<svg xmlns="http://www.w3.org/2000/svg" viewBox="0 0 201.27 229.86"><defs><style>.cls-1{fill:#5b6670;}.cls-2{fill:#ffc629;}</style></defs><title>Asset 2</title><g id="Layer_2" data-name="Layer 2"><g id="Layer_1-2" data-name="Layer 1"><path class="cls-1" d="M19.09,41.37a8.65,8.65,0,0,1-3.43,3.07,11.44,11.44,0,0,1-5,1Q.59,45.42.59,34.11q0-5.79,2.55-8.55c1.71-1.84,4.16-2.76,7.37-2.76a10.87,10.87,0,0,1,5.19,1.08,7.74,7.74,0,0,1,3.06,2.81l-3.43,2.67A7.15,7.15,0,0,0,14,27.73,4.17,4.17,0,0,0,12.52,27a6.3,6.3,0,0,0-1.91-.26,4.93,4.93,0,0,0-4.06,1.71c-.93,1.13-1.4,3-1.4,5.68a9.59,9.59,0,0,0,1.31,5.55,4.79,4.79,0,0,0,4.18,1.84,5.24,5.24,0,0,0,3-.74,7.89,7.89,0,0,0,1.95-2Z"/><path class="cls-1" d="M32,45V43.25a7.46,7.46,0,0,1-5.14,2.2A5.48,5.48,0,0,1,22.7,44a5,5,0,0,1-1.4-3.67A5.39,5.39,0,0,1,22,37.43a4.74,4.74,0,0,1,2.11-1.79,13.28,13.28,0,0,1,4-.92l3.47-.33v-.73a2,2,0,0,0-.84-1.89,4.68,4.68,0,0,0-2.43-.51,5.24,5.24,0,0,0-2.26.44A3,3,0,0,0,24.7,33l-3.15-2a5.26,5.26,0,0,1,2.61-2.14A10.93,10.93,0,0,1,28.44,28q3.84,0,5.54,1.34a5.29,5.29,0,0,1,1.7,4.4V45Zm-.32-7.63-2.06.18a7.12,7.12,0,0,0-3.14.83,2.16,2.16,0,0,0-1,1.93,1.72,1.72,0,0,0,.63,1.55,2.94,2.94,0,0,0,1.66.41,4.66,4.66,0,0,0,1.8-.46,8.76,8.76,0,0,0,2.08-1.31Z"/><path class="cls-1" d="M50.72,45V35.9a8.55,8.55,0,0,0-.46-3.44,1.82,1.82,0,0,0-1.75-.86q-1.8,0-4.35,2.39V45h-4V28.51h4v2.14a9.39,9.39,0,0,1,2.75-1.95A6.87,6.87,0,0,1,49.76,28a4.82,4.82,0,0,1,3.77,1.38c.82.92,1.23,2.44,1.23,4.57V45Z"/><path class="cls-1" d="M70,45v-1.6a9.92,9.92,0,0,1-2.39,1.52,6.81,6.81,0,0,1-2.85.57A5.53,5.53,0,0,1,60,43.21a10.56,10.56,0,0,1-1.65-6.34,10.35,10.35,0,0,1,1.81-6.51A6.12,6.12,0,0,1,65.27,28a6.48,6.48,0,0,1,2.38.48,6.31,6.31,0,0,1,2,1.22V21.61h4V45Zm-.33-11.88a6.39,6.39,0,0,0-1.6-1,4.43,4.43,0,0,0-1.93-.45A3.07,3.07,0,0,0,63.53,33a6.52,6.52,0,0,0-1,3.81,7.19,7.19,0,0,0,.81,3.71,2.71,2.71,0,0,0,2.5,1.35,5,5,0,0,0,2.05-.46,6.63,6.63,0,0,0,1.78-1.14Z"/><path class="cls-1" d="M82.57,24a2,2,0,0,1-.57,1.6,2.72,2.72,0,0,1-1.72.45,2.28,2.28,0,0,1-1.75-.53A2.25,2.25,0,0,1,78.07,24a2.1,2.1,0,0,1,.5-1.58A2.43,2.43,0,0,1,80.28,22a2.64,2.64,0,0,1,1.75.47A2,2,0,0,1,82.57,24ZM78.29,45V28.51h4V45Z"/><path class="cls-1" d="M100.49,42.61A6,6,0,0,1,98,44.73a9.16,9.16,0,0,1-3.89.72,7.9,7.9,0,0,1-6-2.17q-2-2.18-2-6.44a9.69,9.69,0,0,1,2-6.48A7.38,7.38,0,0,1,94,28a9.75,9.75,0,0,1,3.77.69,5.12,5.12,0,0,1,2.51,2.13l-3,2.15A3.48,3.48,0,0,0,96,31.92a4.51,4.51,0,0,0-1.9-.35,3.33,3.33,0,0,0-3,1.27,7.07,7.07,0,0,0-.88,3.94,6.58,6.58,0,0,0,.91,3.89,3.56,3.56,0,0,0,3.08,1.23,5.54,5.54,0,0,0,1.72-.26,3.31,3.31,0,0,0,1.49-1.18Z"/><path class="cls-1" d="M106.84,37.8A4.67,4.67,0,0,0,107.91,41a4.13,4.13,0,0,0,3,.95,6.94,6.94,0,0,0,2.09-.29,3.35,3.35,0,0,0,1.58-1.15l3,2.15A6.12,6.12,0,0,1,115,44.74a10.71,10.71,0,0,1-4.3.71q-4.07,0-6.06-2.14c-1.34-1.42-2-3.56-2-6.44q0-8.83,7.9-8.83a6.94,6.94,0,0,1,5.36,2,8.21,8.21,0,0,1,1.84,5.77v2Zm6.91-2.8q0-3.74-3.27-3.74a3.82,3.82,0,0,0-1.77.36,2.86,2.86,0,0,0-1.11,1.1A7,7,0,0,0,107,35Z"/><path class="cls-1" d="M1.43,75.47V53.77h14.1v3.9H5.86V62.3H14v3.92H5.86v5.2h9.67v4Z"/><path class="cls-1" d="M29.08,75.47V73.76A7.53,7.53,0,0,1,23.94,76a5.5,5.5,0,0,1-4.13-1.44,5.06,5.06,0,0,1-1.39-3.68,5.37,5.37,0,0,1,.71-2.9,4.77,4.77,0,0,1,2.12-1.79,12.91,12.91,0,0,1,4-.92l3.47-.33v-.74a2,2,0,0,0-.83-1.89,4.81,4.81,0,0,0-2.43-.51,5.44,5.44,0,0,0-2.27.44,3,3,0,0,0-1.4,1.26l-3.15-2a5.24,5.24,0,0,1,2.6-2.14,11,11,0,0,1,4.28-.75q3.84,0,5.54,1.34t1.71,4.4V75.47Zm-.33-7.64L26.7,68a7,7,0,0,0-3.15.83,2.17,2.17,0,0,0-1,1.93,1.7,1.7,0,0,0,.63,1.54,2.92,2.92,0,0,0,1.66.42,4.58,4.58,0,0,0,1.79-.46A8.89,8.89,0,0,0,28.75,71Z"/><path class="cls-1" d="M47.16,63a3.72,3.72,0,0,0-1.66-.31,4.45,4.45,0,0,0-2.14.54,9.3,9.3,0,0,0-2.08,1.58V75.47H37.23V59h4.05v2.35a10.45,10.45,0,0,1,2.23-1.86,5,5,0,0,1,2.66-.74A3.59,3.59,0,0,1,48,59.1Z"/><path class="cls-1" d="M61,75.47V66.41A8.32,8.32,0,0,0,60.54,63a1.81,1.81,0,0,0-1.75-.86q-1.8,0-4.34,2.38v11h-4V59h4v2.13a9.5,9.5,0,0,1,2.74-1.94,7,7,0,0,1,2.86-.66,4.79,4.79,0,0,1,3.76,1.38c.83.92,1.24,2.44,1.24,4.56v11Z"/><path class="cls-1" d="M72.83,68.3a4.73,4.73,0,0,0,1.06,3.16,4.17,4.17,0,0,0,3,1,6.63,6.63,0,0,0,2.09-.3A3.31,3.31,0,0,0,80.57,71l3,2.15A6.12,6.12,0,0,1,81,75.25a10.71,10.71,0,0,1-4.3.71C74,76,72,75.24,70.66,73.82s-2-3.57-2-6.44q0-8.83,7.9-8.83a7,7,0,0,1,5.36,2,8.25,8.25,0,0,1,1.84,5.78v2Zm6.91-2.79q0-3.75-3.27-3.75a3.83,3.83,0,0,0-1.78.37,2.84,2.84,0,0,0-1.1,1.1,6.75,6.75,0,0,0-.65,2.28Z"/><path class="cls-1" d="M100,70.78a4.67,4.67,0,0,1-.82,2.79,5,5,0,0,1-2.34,1.77,9.12,9.12,0,0,1-3.46.62q-5.16,0-7-2.87l3-2.12A3.57,3.57,0,0,0,91,72.31a6.06,6.06,0,0,0,2.06.34C95,72.65,96,72.09,96,71a1.25,1.25,0,0,0-.82-1.14A13.65,13.65,0,0,0,92.62,69,9.45,9.45,0,0,1,88,67a4.6,4.6,0,0,1-1.34-3.42A4.51,4.51,0,0,1,88.34,60a7.48,7.48,0,0,1,4.92-1.41,10.09,10.09,0,0,1,3.9.71,5.5,5.5,0,0,1,2.59,2.11l-3,2.15a3.9,3.9,0,0,0-3.53-1.66,3.4,3.4,0,0,0-1.9.43,1.29,1.29,0,0,0-.64,1.11,1.16,1.16,0,0,0,.58,1,8,8,0,0,0,2.29.81,17.16,17.16,0,0,1,4,1.37,4.91,4.91,0,0,1,1.82,1.7A4.68,4.68,0,0,1,100,70.78Z"/><path class="cls-1" d="M112.28,75.47a12.1,12.1,0,0,1-3.43.49,5.53,5.53,0,0,1-4.11-1.29,5.81,5.81,0,0,1-1.26-4.17V62.24H101.4V59h2.08V54.44h4V59h3.83v3.22h-3.83V70a3.29,3.29,0,0,0,.48,2.09,1.72,1.72,0,0,0,1.35.55,5.76,5.76,0,0,0,2.21-.46Z"/><path class="cls-2" d="M3.42,114l1.84-8.73H2.19l.38-1.79a11.48,11.48,0,0,0,1.57-.2,3.82,3.82,0,0,0,1.15-.43,3.11,3.11,0,0,0,.84-.74A6.24,6.24,0,0,0,6.81,101h2L6,114Z"/><path class="cls-2" d="M15.78,114h-3l6.79-10.6H13.13l.52-2.43h9.57l-.34,1.62Z"/><path class="cls-2" d="M34.59,109l-1,5H30.93l1-4.92L29.7,101h2.67l1.34,5.55L37.4,101h2.91Z"/><path class="cls-2" d="M41.27,109.71a3,3,0,0,0-.06.42c0,.15,0,.27,0,.39a1.59,1.59,0,0,0,.45,1.26,1.88,1.88,0,0,0,1.29.39,3.8,3.8,0,0,0,1.44-.24,4,4,0,0,0,1.1-.7l1.35,1.54a5.61,5.61,0,0,1-.76.64,4.05,4.05,0,0,1-.87.48,4.81,4.81,0,0,1-1.09.3,8,8,0,0,1-1.38.11,5.24,5.24,0,0,1-1.85-.29,3.5,3.5,0,0,1-1.25-.8,3,3,0,0,1-.69-1.2,4.73,4.73,0,0,1-.22-1.48,8.15,8.15,0,0,1,1.52-4.73A4.12,4.12,0,0,1,41,105a4.63,4.63,0,0,1,.92-.62A4.77,4.77,0,0,1,43,104a5.58,5.58,0,0,1,1.33-.15,5.68,5.68,0,0,1,1.7.23,3,3,0,0,1,1.18.66,2.64,2.64,0,0,1,.69,1.08,4.39,4.39,0,0,1,.22,1.46,4,4,0,0,1,0,.54c0,.22,0,.43-.09.64l-.26,1.25ZM45.66,108a4.23,4.23,0,0,0,.07-.43,2.34,2.34,0,0,0,0-.38,1.51,1.51,0,0,0-.35-1.08,1.59,1.59,0,0,0-1.2-.36,2.41,2.41,0,0,0-1.09.23,2.15,2.15,0,0,0-.77.64,3.51,3.51,0,0,0-.4.64,4.2,4.2,0,0,0-.29.74Z"/><path class="cls-2" d="M49.25,110.77a9.18,9.18,0,0,1,.14-1.54,9.37,9.37,0,0,1,.44-1.57,8.65,8.65,0,0,1,.73-1.46,5.61,5.61,0,0,1,1-1.21,4.39,4.39,0,0,1,1.29-.83,4.24,4.24,0,0,1,3.08,0,2.84,2.84,0,0,1,1.1.75l.15-.73h2.35L57.47,114h-2l0-1.22a9.34,9.34,0,0,1-.91.7,4.88,4.88,0,0,1-.8.47,3.88,3.88,0,0,1-.77.26,4.28,4.28,0,0,1-.81.08,3.78,3.78,0,0,1-1.26-.2,2.17,2.17,0,0,1-.94-.63,2.86,2.86,0,0,1-.6-1.09A5.8,5.8,0,0,1,49.25,110.77Zm7.36-3.9a2.83,2.83,0,0,0-.36-.32,2.66,2.66,0,0,0-.45-.29,3.24,3.24,0,0,0-.52-.19,2.12,2.12,0,0,0-.57-.08,1.93,1.93,0,0,0-.9.21,2.5,2.5,0,0,0-.74.56,3.74,3.74,0,0,0-.56.81,5.53,5.53,0,0,0-.4.94,5.94,5.94,0,0,0-.24,1,5.13,5.13,0,0,0-.08.92,2.3,2.3,0,0,0,.3,1.32,1.11,1.11,0,0,0,.95.41,2.76,2.76,0,0,0,.74-.11,4.51,4.51,0,0,0,.72-.29,4.6,4.6,0,0,0,.68-.39c.21-.14.4-.28.58-.42Z"/><path class="cls-2" d="M67.55,106.53a1.61,1.61,0,0,0-.38-.14,1.91,1.91,0,0,0-.56-.07,3,3,0,0,0-1.32.33,8.05,8.05,0,0,0-1.42.94L62.52,114H60.15l2.08-9.87H64.6l-.29,1.41a7,7,0,0,1,1.53-1.16,3,3,0,0,1,1.44-.4h.36l.34,0,.3.07a.93.93,0,0,1,.22.08Z"/><path class="cls-2" d="M69.48,111.31a1.93,1.93,0,0,0,.38.49,1.77,1.77,0,0,0,.46.31,3,3,0,0,0,.55.16,4,4,0,0,0,.61,0A2.84,2.84,0,0,0,73,112a.91.91,0,0,0,.46-.78,1,1,0,0,0-.06-.35.76.76,0,0,0-.25-.3,3.28,3.28,0,0,0-.54-.28c-.24-.09-.55-.18-.93-.28a7.88,7.88,0,0,1-1.39-.49,3,3,0,0,1-.88-.61,2,2,0,0,1-.46-.78,2.91,2.91,0,0,1-.14-1,3,3,0,0,1,.27-1.26,2.87,2.87,0,0,1,.81-1.06,3.9,3.9,0,0,1,1.34-.73,5.79,5.79,0,0,1,1.86-.27,5.68,5.68,0,0,1,2.22.4,3.71,3.71,0,0,1,1.55,1.3l-2,1.29a1.71,1.71,0,0,0-.75-.73,2.54,2.54,0,0,0-1.21-.27,2.63,2.63,0,0,0-.74.09,1.73,1.73,0,0,0-.51.24.9.9,0,0,0-.28.31.61.61,0,0,0-.09.3,1.07,1.07,0,0,0,.05.37.61.61,0,0,0,.21.29,1.57,1.57,0,0,0,.45.26,5.59,5.59,0,0,0,.75.24,9.41,9.41,0,0,1,1.53.51,3.53,3.53,0,0,1,1,.63,2,2,0,0,1,.52.78,3.36,3.36,0,0,1-.14,2.36,3,3,0,0,1-.86,1.09,4.08,4.08,0,0,1-1.41.72,6.36,6.36,0,0,1-1.94.27,7.71,7.71,0,0,1-1.45-.12,4.22,4.22,0,0,1-1.07-.32,3.12,3.12,0,0,1-.8-.54,4,4,0,0,1-.6-.74Z"/><path class="cls-2" d="M82.37,114l2.08-9.87h2.37L84.75,114Zm2.47-12.23a1.73,1.73,0,0,1,.07-.47,1.47,1.47,0,0,1,.72-.93,1.68,1.68,0,0,1,.79-.17,1.36,1.36,0,0,1,.91.24.82.82,0,0,1,.27.65,1.92,1.92,0,0,1-.08.5,1.5,1.5,0,0,1-.26.52,1.41,1.41,0,0,1-.49.4,1.6,1.6,0,0,1-.77.16,2.23,2.23,0,0,1-.56-.06.87.87,0,0,1-.36-.18.68.68,0,0,1-.18-.29A1.1,1.1,0,0,1,84.84,101.78Z"/><path class="cls-2" d="M93.66,114l1.16-5.44c.07-.34.13-.65.17-.92a5.54,5.54,0,0,0,.07-.81.86.86,0,0,0-.22-.65.93.93,0,0,0-.63-.2,2.61,2.61,0,0,0-.76.12,4.64,4.64,0,0,0-.77.32,6.68,6.68,0,0,0-.76.46c-.25.17-.49.35-.72.53L89.82,114H87.45l2.07-9.87H91.9l-.28,1.28a9,9,0,0,1,.77-.61,5.57,5.57,0,0,1,.85-.5,4.86,4.86,0,0,1,.9-.33,3.82,3.82,0,0,1,1-.13,3,3,0,0,1,1.16.2,1.82,1.82,0,0,1,1.15,1.27,3.24,3.24,0,0,1,.12.89,8.43,8.43,0,0,1,0,.86,5.79,5.79,0,0,1-.13.71L96,114Z"/><path class="cls-2" d="M103.81,114l2.75-13h8.28l-.5,2.35h-5.68l-.57,2.77h4.79l-.5,2.36h-4.8l-.67,3.12h5.68L112.1,114Z"/><path class="cls-2" d="M114.67,110.77a8,8,0,0,1,.12-1.38,8.73,8.73,0,0,1,.34-1.36,9.62,9.62,0,0,1,.54-1.28,7.94,7.94,0,0,1,.72-1.15,4.4,4.4,0,0,1,1.53-1.3,4.46,4.46,0,0,1,2-.45,3.59,3.59,0,0,1,1.42.27,2.77,2.77,0,0,1,1.08.75l1-4.87h2.34l-2.94,14h-2.18l.19-1a6.89,6.89,0,0,1-1.55.91,3.88,3.88,0,0,1-1.55.34,4.2,4.2,0,0,1-1.34-.2,2.25,2.25,0,0,1-1-.63,2.75,2.75,0,0,1-.61-1.09A5.42,5.42,0,0,1,114.67,110.77Zm3.58-3.72a4.49,4.49,0,0,0-.41.69c-.12.27-.23.54-.33.84a8.63,8.63,0,0,0-.22.91,6,6,0,0,0-.08.93,2.08,2.08,0,0,0,.33,1.31,1.32,1.32,0,0,0,1.11.42,2.74,2.74,0,0,0,.62-.07,5.53,5.53,0,0,0,.66-.2,6.11,6.11,0,0,0,.63-.31c.2-.12.39-.25.57-.38l.9-4.32a2.27,2.27,0,0,0-.36-.32,2.31,2.31,0,0,0-.45-.29,2.66,2.66,0,0,0-.52-.19,2.1,2.1,0,0,0-.56-.08,2.19,2.19,0,0,0-1,.24A2.44,2.44,0,0,0,118.25,107.05Z"/><path class="cls-2" d="M130,104.14l-1.16,5.43c-.06.34-.12.64-.16.9a6.21,6.21,0,0,0-.05.69,1.14,1.14,0,0,0,.21.78.86.86,0,0,0,.63.21,2.45,2.45,0,0,0,.75-.12,4.14,4.14,0,0,0,.77-.31,5.49,5.49,0,0,0,.76-.46l.72-.53,1.38-6.59h2.37L134.11,114h-2.37l.27-1.27a9.29,9.29,0,0,1-.77.6,6.44,6.44,0,0,1-.83.49,5,5,0,0,1-.88.34,3.36,3.36,0,0,1-.89.13,3.22,3.22,0,0,1-1.21-.2,1.93,1.93,0,0,1-.78-.51,2,2,0,0,1-.41-.75,3,3,0,0,1-.13-.89,6.4,6.4,0,0,1,.06-.88c0-.29.08-.52.12-.71l1.31-6.22Z"/><path class="cls-2" d="M145.05,112.59a4.37,4.37,0,0,1-.82.72,5,5,0,0,1-1,.54,5.09,5.09,0,0,1-1.09.33,5.47,5.47,0,0,1-1.15.12,5.35,5.35,0,0,1-1.81-.27,2.84,2.84,0,0,1-1.21-.77,3.11,3.11,0,0,1-.68-1.27,6.58,6.58,0,0,1-.21-1.74,7.26,7.26,0,0,1,.12-1.23,9.83,9.83,0,0,1,.39-1.4,7.94,7.94,0,0,1,.71-1.39,5.11,5.11,0,0,1,2.5-2,5.06,5.06,0,0,1,1.89-.33A6.79,6.79,0,0,1,144,104a4.13,4.13,0,0,1,1,.33,2.91,2.91,0,0,1,.79.54,4.19,4.19,0,0,1,.6.76l-2,1.25a1.63,1.63,0,0,0-.67-.66,2.42,2.42,0,0,0-1.1-.21,2.12,2.12,0,0,0-1,.22,2.53,2.53,0,0,0-.77.57,3.4,3.4,0,0,0-.56.82,5.78,5.78,0,0,0-.38.94,5.65,5.65,0,0,0-.22,1,6.78,6.78,0,0,0-.07.84,4.52,4.52,0,0,0,.07.78,1.52,1.52,0,0,0,.26.59,1.19,1.19,0,0,0,.51.36,2.14,2.14,0,0,0,.82.13,2.79,2.79,0,0,0,1.19-.25,3.18,3.18,0,0,0,1-.73Z"/><path class="cls-2" d="M146.87,110.77a9.18,9.18,0,0,1,.14-1.54,9.37,9.37,0,0,1,.44-1.57,8.65,8.65,0,0,1,.73-1.46,5.61,5.61,0,0,1,1-1.21,4.52,4.52,0,0,1,1.29-.83,4.24,4.24,0,0,1,3.08,0,2.84,2.84,0,0,1,1.1.75l.15-.73h2.35L155.09,114h-2l0-1.22a9.34,9.34,0,0,1-.91.7,4.5,4.5,0,0,1-.8.47,3.88,3.88,0,0,1-.77.26,4.28,4.28,0,0,1-.81.08,3.78,3.78,0,0,1-1.26-.2,2.23,2.23,0,0,1-.94-.63,2.72,2.72,0,0,1-.59-1.09A5.42,5.42,0,0,1,146.87,110.77Zm7.36-3.9a2.27,2.27,0,0,0-.36-.32,2.66,2.66,0,0,0-.45-.29,3.24,3.24,0,0,0-.52-.19,2.12,2.12,0,0,0-.57-.08,1.93,1.93,0,0,0-.9.21,2.5,2.5,0,0,0-.74.56,3.74,3.74,0,0,0-.56.81,6.47,6.47,0,0,0-.4.94,5.94,5.94,0,0,0-.24,1,6.25,6.25,0,0,0-.08.92,2.3,2.3,0,0,0,.3,1.32,1.11,1.11,0,0,0,.95.41,2.76,2.76,0,0,0,.74-.11,4.51,4.51,0,0,0,.72-.29,4.6,4.6,0,0,0,.68-.39c.21-.14.4-.28.58-.42Z"/><path class="cls-2" d="M163,114a6.5,6.5,0,0,1-1,.21,7.7,7.7,0,0,1-1,.08,3.92,3.92,0,0,1-1.21-.17,2,2,0,0,1-.82-.47,1.77,1.77,0,0,1-.47-.73,3,3,0,0,1-.14-1,3.82,3.82,0,0,1,0-.57q0-.31.12-.66l1-4.66h-1.21l.4-1.93h1.22l.6-2.75h2.39l-.6,2.75h2.26l-.41,1.93h-2.26l-1,4.64a4,4,0,0,0-.08.4c0,.13,0,.24,0,.34a.88.88,0,0,0,.2.66.77.77,0,0,0,.53.18,6.56,6.56,0,0,0,.73-.05,3.71,3.71,0,0,0,.73-.18Z"/><path class="cls-2" d="M164.5,114l2.08-9.87H169L166.87,114ZM167,101.78a2.23,2.23,0,0,1,.07-.47,1.32,1.32,0,0,1,.24-.51,1.45,1.45,0,0,1,.49-.42,1.65,1.65,0,0,1,.79-.17,1.35,1.35,0,0,1,.9.24.82.82,0,0,1,.27.65,1.88,1.88,0,0,1-.07.5,1.45,1.45,0,0,1-.75.92,1.64,1.64,0,0,1-.78.16,2.15,2.15,0,0,1-.55-.06.87.87,0,0,1-.36-.18.7.7,0,0,1-.19-.29A1.1,1.1,0,0,1,167,101.78Z"/><path class="cls-2" d="M169.9,110.42a8.38,8.38,0,0,1,.09-1.15,8.84,8.84,0,0,1,.3-1.32,8.11,8.11,0,0,1,.56-1.34,4.75,4.75,0,0,1,.88-1.21,4.83,4.83,0,0,1,1.64-1.15,6,6,0,0,1,2.29-.4,5.19,5.19,0,0,1,1.62.25,3.22,3.22,0,0,1,2,2,5.08,5.08,0,0,1,.28,1.78,6.87,6.87,0,0,1-.1,1.1,7.68,7.68,0,0,1-.34,1.31,7.11,7.11,0,0,1-.61,1.36,5.59,5.59,0,0,1-.93,1.24,5.07,5.07,0,0,1-.8.65,3.92,3.92,0,0,1-.87.43,5.12,5.12,0,0,1-1,.24,10.19,10.19,0,0,1-1.16.07A5,5,0,0,1,172,114a2.9,2.9,0,0,1-1.88-2A5.71,5.71,0,0,1,169.9,110.42Zm2.5,0a2.63,2.63,0,0,0,.09.72,1.25,1.25,0,0,0,.27.54,1.22,1.22,0,0,0,.51.33,2.18,2.18,0,0,0,.77.12,2.32,2.32,0,0,0,1.08-.24,3.1,3.1,0,0,0,.83-.66,3.4,3.4,0,0,0,.47-.73,6.27,6.27,0,0,0,.37-.88,6,6,0,0,0,.23-.9,4.16,4.16,0,0,0,.09-.8,2.31,2.31,0,0,0-.43-1.48,1.62,1.62,0,0,0-1.31-.51,2.23,2.23,0,0,0-1.07.26,3,3,0,0,0-.82.7,3.92,3.92,0,0,0-.44.73,6.46,6.46,0,0,0-.35.9,7.43,7.43,0,0,0-.21,1A6.17,6.17,0,0,0,172.4,110.46Z"/><path class="cls-2" d="M186.75,114l1.16-5.44c.07-.34.12-.65.17-.92a5.52,5.52,0,0,0,.06-.81.82.82,0,0,0-.22-.65.91.91,0,0,0-.62-.2,2.56,2.56,0,0,0-.76.12,5.13,5.13,0,0,0-.78.32,6.57,6.57,0,0,0-.75.46c-.25.17-.49.35-.72.53L182.9,114h-2.37l2.08-9.87H185l-.27,1.28a7.64,7.64,0,0,1,.77-.61,6,6,0,0,1,.84-.5,5,5,0,0,1,.91-.33,3.75,3.75,0,0,1,1-.13,3,3,0,0,1,1.15.2,1.87,1.87,0,0,1,1.16,1.27,3.24,3.24,0,0,1,.12.89,6.33,6.33,0,0,1-.06.86c0,.29-.08.53-.12.71L189.12,114Z"/><path class="cls-1" d="M2,143v3.17H6.31v1.31H2v5.06H.51V141.69H7.08V143Z"/><path class="cls-1" d="M13.89,152.54v-1.22a6.3,6.3,0,0,1-1.38,1.05,3,3,0,0,1-1.48.41,2.66,2.66,0,0,1-1.34-.3,1.76,1.76,0,0,1-.74-.94,5.23,5.23,0,0,1-.23-1.73v-5.49h1.35v4.85a6.48,6.48,0,0,0,.12,1.57,1,1,0,0,0,.39.57,1.44,1.44,0,0,0,.77.17,2.53,2.53,0,0,0,1.2-.39,9.11,9.11,0,0,0,1.34-1v-5.82h1.34v8.22Z"/><path class="cls-1" d="M23.07,152.54V147.7a6.48,6.48,0,0,0-.12-1.57,1,1,0,0,0-.39-.57,1.35,1.35,0,0,0-.77-.18,2.56,2.56,0,0,0-1.21.4,8.34,8.34,0,0,0-1.33.95v5.81H17.9v-8.22h1.35v1.22a6.21,6.21,0,0,1,1.33-1,3,3,0,0,1,1.53-.45,2.15,2.15,0,0,1,1.75.68,3.66,3.66,0,0,1,.55,2.29v5.49Z"/><path class="cls-1" d="M32.9,143v3.17h4.35v1.31H32.9v5.06H31.45V141.69H38V143Z"/><path class="cls-1" d="M44.07,152.54v-1a9,9,0,0,1-1.26.91,3,3,0,0,1-1.44.35,2.28,2.28,0,0,1-1.81-.71,2.64,2.64,0,0,1-.64-1.84,2.78,2.78,0,0,1,.33-1.41,2.31,2.31,0,0,1,1-.88,5.34,5.34,0,0,1,1.83-.47l2-.18v-.4a1.43,1.43,0,0,0-.53-1.29,2.65,2.65,0,0,0-1.46-.35,2.38,2.38,0,0,0-1.28.29,1.87,1.87,0,0,0-.65.63L39,145.49a2.54,2.54,0,0,1,1.15-1,4.41,4.41,0,0,1,1.92-.37,4,4,0,0,1,2.54.65,2.76,2.76,0,0,1,.77,2.22v5.59Zm0-4.17-1.32.13a3.93,3.93,0,0,0-1.89.52,1.61,1.61,0,0,0-.18,2.24,1.69,1.69,0,0,0,1.11.32,1.61,1.61,0,0,0,.6-.12,3.52,3.52,0,0,0,.59-.28,5,5,0,0,0,.56-.38l.53-.42Z"/><path class="cls-1" d="M54.2,151.27a3.18,3.18,0,0,1-1.07,1.09,3.56,3.56,0,0,1-1.88.42,3.35,3.35,0,0,1-2.73-1.09,5,5,0,0,1-.91-3.24,5,5,0,0,1,.91-3.26,3.26,3.26,0,0,1,2.68-1.11,3.07,3.07,0,0,1,2.89,1.51l-1.11.67a2.4,2.4,0,0,0-.71-.74,2,2,0,0,0-1.09-.27,1.79,1.79,0,0,0-1.68.86,4.75,4.75,0,0,0-.5,2.37,5.35,5.35,0,0,0,.24,1.8,1.93,1.93,0,0,0,.73,1,2.17,2.17,0,0,0,1.27.35,2,2,0,0,0,1.07-.25,2.54,2.54,0,0,0,.78-.76Z"/><path class="cls-1" d="M60.21,152.54a5.33,5.33,0,0,1-1.56.24,2.22,2.22,0,0,1-1.8-.65,3.25,3.25,0,0,1-.54-2.07v-4.61H55.13v-1.13h1.18V142h1.35v2.29h2.08v1.13H57.66v4.35a3.58,3.58,0,0,0,.2,1.43.89.89,0,0,0,.89.43,2.88,2.88,0,0,0,1.1-.22Z"/><path class="cls-1" d="M63.61,145.2a.89.89,0,0,1-.23.7,1.15,1.15,0,0,1-.74.19.9.9,0,0,1-.74-.24,1,1,0,0,1-.2-.65.89.89,0,0,1,.22-.67,1,1,0,0,1,.72-.21,1.05,1.05,0,0,1,.75.21A.89.89,0,0,1,63.61,145.2Zm0,6.57a.88.88,0,0,1-.23.69,1.15,1.15,0,0,1-.74.19.93.93,0,0,1-.74-.23,1,1,0,0,1-.2-.65.86.86,0,0,1,.22-.67,1,1,0,0,1,.72-.21,1.05,1.05,0,0,1,.75.21A.86.86,0,0,1,63.61,151.77Z"/><path class="cls-1" d="M79.8,152.54H78.07l-2-8.68-2,8.68H72.26L69.7,141.69h1.44l2,8.77,2-8.77h1.64l2.08,8.83L81,141.69h1.42Z"/><path class="cls-1" d="M90.62,148.45a5,5,0,0,1-.92,3.24A3.32,3.32,0,0,1,87,152.78a3.4,3.4,0,0,1-2.7-1.08,6.19,6.19,0,0,1,0-6.54A3.36,3.36,0,0,1,87,144.08a3.31,3.31,0,0,1,2.69,1.1A5,5,0,0,1,90.62,148.45Zm-1.4,0a4.21,4.21,0,0,0-.55-2.44,2.21,2.21,0,0,0-3.34,0,5.63,5.63,0,0,0,0,4.81,1.9,1.9,0,0,0,1.7.78,1.92,1.92,0,0,0,1.67-.77A4.2,4.2,0,0,0,89.22,148.45Z"/><path class="cls-1" d="M98,152.54V147.7a6.65,6.65,0,0,0-.11-1.57,1,1,0,0,0-.39-.57,1.35,1.35,0,0,0-.77-.18,2.56,2.56,0,0,0-1.21.4,8.34,8.34,0,0,0-1.33.95v5.81H92.87v-8.22h1.35v1.22a6.21,6.21,0,0,1,1.33-1,3,3,0,0,1,1.53-.45,2.15,2.15,0,0,1,1.75.68,3.66,3.66,0,0,1,.55,2.29v5.49Z"/><path class="cls-1" d="M114.67,152.54v-9l-3,6h-.9l-3-6v9h-1.38V141.69h2l2.87,5.91,2.9-5.91h1.9v10.85Z"/><path class="cls-1" d="M120.37,142.23a.78.78,0,0,1-.21.64,1.1,1.1,0,0,1-.67.17.92.92,0,0,1-.69-.21.9.9,0,0,1-.18-.6.8.8,0,0,1,.2-.61,1,1,0,0,1,.67-.19,1,1,0,0,1,.68.19A.81.81,0,0,1,120.37,142.23Zm-1.56,10.31v-8.22h1.35v8.22Z"/><path class="cls-1" d="M128.45,150.32a2.18,2.18,0,0,1-.82,1.81,3.6,3.6,0,0,1-2.32.65,4.21,4.21,0,0,1-1.84-.38,2.51,2.51,0,0,1-1.19-1.1l1.08-.65a2.6,2.6,0,0,0,3.33.65,1.11,1.11,0,0,0,.44-.92.89.89,0,0,0-.16-.56,1.19,1.19,0,0,0-.48-.38,8.65,8.65,0,0,0-1.35-.43,4.34,4.34,0,0,1-2.07-.94,2.11,2.11,0,0,1-.6-1.58,2.15,2.15,0,0,1,.79-1.75,3.25,3.25,0,0,1,2.17-.66,3.45,3.45,0,0,1,1.8.43,2.78,2.78,0,0,1,1.07,1l-1.08.65a2.24,2.24,0,0,0-3-.66,1,1,0,0,0-.47.92.89.89,0,0,0,.41.81,4.55,4.55,0,0,0,1.28.46,8,8,0,0,1,1.92.68,2,2,0,0,1,.79.77A2.34,2.34,0,0,1,128.45,150.32Z"/><path class="cls-1" d="M136.22,150.32a2.21,2.21,0,0,1-.82,1.81,3.6,3.6,0,0,1-2.32.65,4.21,4.21,0,0,1-1.84-.38,2.51,2.51,0,0,1-1.19-1.1l1.08-.65a2.6,2.6,0,0,0,3.33.65,1.11,1.11,0,0,0,.44-.92.89.89,0,0,0-.16-.56,1.19,1.19,0,0,0-.48-.38,8.65,8.65,0,0,0-1.35-.43,4.34,4.34,0,0,1-2.07-.94,2.11,2.11,0,0,1-.6-1.58,2.15,2.15,0,0,1,.79-1.75,3.25,3.25,0,0,1,2.17-.66,3.45,3.45,0,0,1,1.8.43,2.78,2.78,0,0,1,1.07,1l-1.08.65a2.24,2.24,0,0,0-3-.66,1,1,0,0,0-.47.92.89.89,0,0,0,.41.81,4.55,4.55,0,0,0,1.28.46,8,8,0,0,1,1.92.68,2,2,0,0,1,.79.77A2.34,2.34,0,0,1,136.22,150.32Z"/><path class="cls-1" d="M151.11,150.65a4.7,4.7,0,0,1-1.05,1.25,3.81,3.81,0,0,1-1.25.65,5.66,5.66,0,0,1-1.68.22,4.36,4.36,0,0,1-3.59-1.41,6.52,6.52,0,0,1-1.16-4.24,6.63,6.63,0,0,1,1.15-4.25,4.28,4.28,0,0,1,3.54-1.41,5.52,5.52,0,0,1,1.69.24,3.75,3.75,0,0,1,1.26.65,4.15,4.15,0,0,1,.94,1.15l-1.2.79a3.82,3.82,0,0,0-.69-.89,2.59,2.59,0,0,0-.85-.47,3.35,3.35,0,0,0-1.15-.18,2.72,2.72,0,0,0-2.4,1.09,5.7,5.7,0,0,0-.76,3.28,5.8,5.8,0,0,0,.75,3.26,2.71,2.71,0,0,0,2.42,1.1,3.39,3.39,0,0,0,1.61-.36,3.22,3.22,0,0,0,1.22-1.26Z"/><path class="cls-1" d="M159.88,148.45a5,5,0,0,1-.92,3.24,3.32,3.32,0,0,1-2.69,1.09,3.36,3.36,0,0,1-2.69-1.08,4.83,4.83,0,0,1-.94-3.25,4.91,4.91,0,0,1,.94-3.29,3.36,3.36,0,0,1,2.69-1.08,3.31,3.31,0,0,1,2.69,1.1A5,5,0,0,1,159.88,148.45Zm-1.4,0a4.21,4.21,0,0,0-.55-2.44,2.21,2.21,0,0,0-3.34,0,5.63,5.63,0,0,0,0,4.81,1.9,1.9,0,0,0,1.7.78,1.92,1.92,0,0,0,1.67-.77A4.2,4.2,0,0,0,158.48,148.45Z"/><path class="cls-1" d="M167.3,152.54V147.7a6.48,6.48,0,0,0-.12-1.57,1,1,0,0,0-.39-.57,1.35,1.35,0,0,0-.77-.18,2.56,2.56,0,0,0-1.21.4,8.34,8.34,0,0,0-1.33.95v5.81h-1.35v-8.22h1.35v1.22a6.21,6.21,0,0,1,1.33-1,3,3,0,0,1,1.53-.45,2.15,2.15,0,0,1,1.75.68,3.66,3.66,0,0,1,.55,2.29v5.49Z"/><path class="cls-1" d="M177.79,152.36a3.37,3.37,0,0,1-.82,2.47,3.8,3.8,0,0,1-2.72.81,5.4,5.4,0,0,1-3-.77l.5-1.09a4.28,4.28,0,0,0,2.49.74,2.41,2.41,0,0,0,1.67-.48,2.12,2.12,0,0,0,.51-1.59v-1a4.27,4.27,0,0,1-1.11.76,3.21,3.21,0,0,1-1.39.3,2.69,2.69,0,0,1-2.31-1.08,5.23,5.23,0,0,1-.79-3.11,5,5,0,0,1,.89-3.14,2.92,2.92,0,0,1,2.42-1.13,3.45,3.45,0,0,1,2.29.91v-.67h1.36Zm-1.36-6.19a3.37,3.37,0,0,0-2.12-.89,1.75,1.75,0,0,0-1.55.8,4,4,0,0,0-.53,2.24,4.16,4.16,0,0,0,.49,2.3,1.67,1.67,0,0,0,1.47.72,3.31,3.31,0,0,0,2.24-1.06Z"/><path class="cls-1" d="M181.43,148.59a3.79,3.79,0,0,0,.56,2.33,2.17,2.17,0,0,0,1.79.69,2,2,0,0,0,1-.23,2.78,2.78,0,0,0,.8-.75l1.11.69a3.38,3.38,0,0,1-1.14,1.09,3.78,3.78,0,0,1-1.83.37,3.41,3.41,0,0,1-2.74-1.06,4.91,4.91,0,0,1-.9-3.22,5.21,5.21,0,0,1,.88-3.34,3.23,3.23,0,0,1,2.66-1.08,3,3,0,0,1,2.4.92,4.28,4.28,0,0,1,.8,2.84v.75Zm4-1.06a2.81,2.81,0,0,0-.47-1.71,1.68,1.68,0,0,0-1.46-.62,1.8,1.8,0,0,0-1.44.56,3.21,3.21,0,0,0-.64,1.77Z"/><path class="cls-1" d="M188.39,149.09v-1.35h4.89v1.35Z"/><path class="cls-1" d="M5.58,171.81V167a6.48,6.48,0,0,0-.12-1.57,1,1,0,0,0-.38-.57,1.41,1.41,0,0,0-.78-.18,2.45,2.45,0,0,0-1.2.4,7.82,7.82,0,0,0-1.34.95v5.81H.42v-8.22H1.76v1.22a7,7,0,0,1,1.34-1,3,3,0,0,1,1.53-.44,2.13,2.13,0,0,1,1.74.68,3.59,3.59,0,0,1,.56,2.29v5.49Z"/><path class="cls-1" d="M11.09,161.5a.79.79,0,0,1-.21.64,1.08,1.08,0,0,1-.67.17.88.88,0,0,1-.68-.21.86.86,0,0,1-.19-.6.83.83,0,0,1,.2-.61,1,1,0,0,1,.67-.19,1,1,0,0,1,.68.19A.76.76,0,0,1,11.09,161.5ZM9.53,171.81v-8.22h1.35v8.22Z"/><path class="cls-1" d="M18.22,171.81v-1a7.65,7.65,0,0,1-1.26.91,2.85,2.85,0,0,1-1.44.36,2.31,2.31,0,0,1-1.81-.71,2.64,2.64,0,0,1-.64-1.84,2.72,2.72,0,0,1,.33-1.41,2.4,2.4,0,0,1,1-.89,5.62,5.62,0,0,1,1.83-.46l2-.18v-.4a1.45,1.45,0,0,0-.53-1.3,2.65,2.65,0,0,0-1.46-.34,2.4,2.4,0,0,0-1.28.29,1.87,1.87,0,0,0-.65.63l-1.1-.68a2.46,2.46,0,0,1,1.14-1,4.41,4.41,0,0,1,1.92-.37,4,4,0,0,1,2.54.64,2.8,2.8,0,0,1,.77,2.23v5.59Zm0-4.17-1.32.13a3.82,3.82,0,0,0-1.89.52,1.38,1.38,0,0,0-.54,1.18,1.33,1.33,0,0,0,.36,1.05,1.64,1.64,0,0,0,1.11.33,1.61,1.61,0,0,0,.6-.12,3.52,3.52,0,0,0,.59-.28,5,5,0,0,0,.56-.38l.53-.42Z"/><path class="cls-1" d="M22.23,171.81V160.14h1.35v11.67Z"/><path class="cls-1" d="M27.87,161.5a.79.79,0,0,1-.21.64,1.1,1.1,0,0,1-.67.17.71.71,0,0,1-.87-.81.79.79,0,0,1,.2-.61,1,1,0,0,1,.67-.19,1,1,0,0,1,.68.19A.8.8,0,0,1,27.87,161.5Zm-1.56,10.31v-8.22h1.35v8.22Z"/><path class="cls-1" d="M34.43,171.81a5.26,5.26,0,0,1-1.55.24,2.23,2.23,0,0,1-1.8-.66,3.21,3.21,0,0,1-.54-2.07v-4.61H29.36v-1.12h1.18V161.3h1.35v2.29H34v1.12H31.89v4.36a3.49,3.49,0,0,0,.2,1.42c.13.29.43.43.89.43a2.7,2.7,0,0,0,1.1-.22Z"/><path class="cls-1" d="M35,173.56a2.94,2.94,0,0,0,1.19.23c.63,0,1.17-.58,1.61-1.72l.27-.71-3-7.77h1.46l2.26,6,2.28-6h1.41L39,172.44a5.19,5.19,0,0,1-1.19,1.91,2.41,2.41,0,0,1-1.65.56,5.64,5.64,0,0,1-.79-.07,3.4,3.4,0,0,1-.67-.17Z"/><path class="cls-1" d="M53.2,171.81v-1a6.89,6.89,0,0,1-1.26.91,2.84,2.84,0,0,1-1.43.36,2.34,2.34,0,0,1-1.82-.71,2.69,2.69,0,0,1-.64-1.84,2.63,2.63,0,0,1,.34-1.41,2.37,2.37,0,0,1,1-.89,5.62,5.62,0,0,1,1.83-.46l2-.18v-.4a1.45,1.45,0,0,0-.52-1.3,2.71,2.71,0,0,0-1.47-.34,2.4,2.4,0,0,0-1.28.29,1.87,1.87,0,0,0-.65.63l-1.1-.68a2.44,2.44,0,0,1,1.15-1,4.34,4.34,0,0,1,1.91-.37,4,4,0,0,1,2.54.64,2.76,2.76,0,0,1,.77,2.23v5.59Zm0-4.17-1.31.13a3.76,3.76,0,0,0-1.89.52,1.36,1.36,0,0,0-.55,1.18,1.3,1.3,0,0,0,.37,1.05,1.59,1.59,0,0,0,1.1.33,1.62,1.62,0,0,0,.61-.12,3.84,3.84,0,0,0,.58-.28,5.13,5.13,0,0,0,.57-.38c.17-.15.35-.29.52-.42Z"/><path class="cls-1" d="M61.11,171.81a5.33,5.33,0,0,1-1.56.24,2.19,2.19,0,0,1-1.79-.66,3.15,3.15,0,0,1-.55-2.07v-4.61H56v-1.12h1.18V161.3h1.35v2.29h2.08v1.12H58.56v4.36a3.68,3.68,0,0,0,.2,1.42c.13.29.43.43.89.43a2.67,2.67,0,0,0,1.1-.22Z"/><path class="cls-1" d="M71.16,171.81a5.26,5.26,0,0,1-1.55.24,2.2,2.2,0,0,1-1.8-.66,3.15,3.15,0,0,1-.55-2.07v-4.61H66.09v-1.12h1.17V161.3h1.35v2.29H70.7v1.12H68.61v4.36a3.68,3.68,0,0,0,.2,1.42c.13.29.43.43.89.43a2.72,2.72,0,0,0,1.11-.22Z"/><path class="cls-1" d="M77.93,171.81V167a7.27,7.27,0,0,0-.11-1.57,1,1,0,0,0-.38-.57,1.42,1.42,0,0,0-.79-.18,2.45,2.45,0,0,0-1.2.4,7.82,7.82,0,0,0-1.34.95v5.81H72.77V160.14h1.34v4.67a7,7,0,0,1,1.34-1,3,3,0,0,1,1.53-.44,2.13,2.13,0,0,1,1.74.68,3.59,3.59,0,0,1,.56,2.29v5.49Z"/><path class="cls-1" d="M82.86,167.86a3.74,3.74,0,0,0,.56,2.32,2.14,2.14,0,0,0,1.79.7,2,2,0,0,0,1-.23,2.66,2.66,0,0,0,.8-.75l1.12.69a3.37,3.37,0,0,1-1.15,1.08,3.66,3.66,0,0,1-1.83.38A3.41,3.41,0,0,1,82.37,171a4.91,4.91,0,0,1-.9-3.22,5.21,5.21,0,0,1,.88-3.34A3.24,3.24,0,0,1,85,163.35a3,3,0,0,1,2.4.92,4.28,4.28,0,0,1,.8,2.84v.75Zm4-1.06a2.93,2.93,0,0,0-.46-1.72,1.72,1.72,0,0,0-1.47-.61,1.8,1.8,0,0,0-1.44.56,3.29,3.29,0,0,0-.64,1.77Z"/><path class="cls-1" d="M96.24,162.27v3.17h4.35v1.31H96.24v5.06H94.79V161h6.57v1.31Z"/><path class="cls-1" d="M107.41,171.81v-1a7.65,7.65,0,0,1-1.26.91,2.85,2.85,0,0,1-1.44.36,2.33,2.33,0,0,1-1.81-.71,2.64,2.64,0,0,1-.64-1.84,2.72,2.72,0,0,1,.33-1.41,2.46,2.46,0,0,1,1-.89,5.62,5.62,0,0,1,1.83-.46l2-.18v-.4a1.45,1.45,0,0,0-.53-1.3,2.65,2.65,0,0,0-1.46-.34,2.4,2.4,0,0,0-1.28.29,1.87,1.87,0,0,0-.65.63l-1.1-.68a2.46,2.46,0,0,1,1.14-1,4.41,4.41,0,0,1,1.92-.37A4,4,0,0,1,108,164a2.8,2.8,0,0,1,.77,2.23v5.59Zm0-4.17-1.32.13a3.82,3.82,0,0,0-1.89.52,1.38,1.38,0,0,0-.54,1.18,1.33,1.33,0,0,0,.36,1.05,1.64,1.64,0,0,0,1.11.33,1.57,1.57,0,0,0,.6-.12,3.52,3.52,0,0,0,.59-.28,4.24,4.24,0,0,0,.56-.38l.53-.42Z"/><path class="cls-1" d="M111.43,171.81V160.14h1.34v11.67Z"/><path class="cls-1" d="M115.57,171.81V160.14h1.34v11.67Z"/><path class="cls-1" d="M125.52,162.27v3.17h4.35v1.31h-4.35v5.06h-1.45V161h6.57v1.31Z"/><path class="cls-1" d="M139,167.72a5,5,0,0,1-.92,3.24,3.32,3.32,0,0,1-2.69,1.09,3.4,3.4,0,0,1-2.7-1.08,6.19,6.19,0,0,1,0-6.54,3.36,3.36,0,0,1,2.69-1.08,3.31,3.31,0,0,1,2.69,1.1A5,5,0,0,1,139,167.72Zm-1.4,0a4.21,4.21,0,0,0-.55-2.44,2.21,2.21,0,0,0-3.34,0,5.65,5.65,0,0,0,0,4.82,1.9,1.9,0,0,0,1.7.78,1.92,1.92,0,0,0,1.67-.77A4.2,4.2,0,0,0,137.61,167.72Z"/><path class="cls-1" d="M141.32,171.81V160.14h1.35v11.67Z"/><path class="cls-1" d="M147,161.5a.79.79,0,0,1-.21.64,1.11,1.11,0,0,1-.68.17.89.89,0,0,1-.68-.21.86.86,0,0,1-.19-.6.79.79,0,0,1,.21-.61,1.28,1.28,0,0,1,1.34,0A.76.76,0,0,1,147,161.5Zm-1.56,10.31v-8.22h1.35v8.22Z"/><path class="cls-1" d="M154.08,171.81v-1a6.89,6.89,0,0,1-1.26.91,2.84,2.84,0,0,1-1.43.36,2.34,2.34,0,0,1-1.82-.71,2.69,2.69,0,0,1-.64-1.84,2.63,2.63,0,0,1,.34-1.41,2.37,2.37,0,0,1,1-.89,5.62,5.62,0,0,1,1.83-.46l2-.18v-.4a1.45,1.45,0,0,0-.52-1.3,2.69,2.69,0,0,0-1.47-.34,2.4,2.4,0,0,0-1.28.29,2,2,0,0,0-.65.63l-1.1-.68a2.44,2.44,0,0,1,1.15-1,4.34,4.34,0,0,1,1.91-.37,4,4,0,0,1,2.54.64,2.76,2.76,0,0,1,.77,2.23v5.59Zm0-4.17-1.31.13a3.76,3.76,0,0,0-1.89.52,1.36,1.36,0,0,0-.55,1.18,1.3,1.3,0,0,0,.37,1.05,1.59,1.59,0,0,0,1.1.33,1.62,1.62,0,0,0,.61-.12,3.43,3.43,0,0,0,.58-.28,5.13,5.13,0,0,0,.57-.38l.52-.42Z"/><path class="cls-1" d="M164.58,171.63a3.37,3.37,0,0,1-.82,2.47,3.8,3.8,0,0,1-2.72.81,5.4,5.4,0,0,1-3-.77l.5-1.09a4.28,4.28,0,0,0,2.49.74,2.32,2.32,0,0,0,1.66-.49,2.06,2.06,0,0,0,.52-1.58v-1a4.27,4.27,0,0,1-1.11.76,3.24,3.24,0,0,1-1.39.3,2.69,2.69,0,0,1-2.31-1.08,5.18,5.18,0,0,1-.79-3.11,5,5,0,0,1,.89-3.14,2.91,2.91,0,0,1,2.42-1.13,3.4,3.4,0,0,1,2.29.91v-.67h1.36Zm-1.36-6.19a3.37,3.37,0,0,0-2.12-.89,1.75,1.75,0,0,0-1.55.8,4,4,0,0,0-.53,2.24,4.16,4.16,0,0,0,.49,2.3,1.68,1.68,0,0,0,1.47.71,3.27,3.27,0,0,0,2.24-1.06Z"/><path class="cls-1" d="M168.22,167.86a3.74,3.74,0,0,0,.56,2.32,2.12,2.12,0,0,0,1.78.7,2,2,0,0,0,1-.23,2.78,2.78,0,0,0,.8-.75l1.11.69a3.26,3.26,0,0,1-1.14,1.08,3.66,3.66,0,0,1-1.83.38,3.39,3.39,0,0,1-2.74-1.06,4.91,4.91,0,0,1-.9-3.22,5.21,5.21,0,0,1,.88-3.34,3.23,3.23,0,0,1,2.66-1.08,3,3,0,0,1,2.4.92,4.28,4.28,0,0,1,.8,2.84v.75Zm4-1.06a2.93,2.93,0,0,0-.47-1.72,1.7,1.7,0,0,0-1.46-.61,1.8,1.8,0,0,0-1.44.56,3.21,3.21,0,0,0-.64,1.77Z"/><path class="cls-1" d="M2,181.54v3.16H6.31V186H2v5.06H.51V180.23H7.08v1.31Z"/><path class="cls-1" d="M9.6,187.13a3.76,3.76,0,0,0,.56,2.32,2.17,2.17,0,0,0,1.79.7,1.87,1.87,0,0,0,1-.24,2.49,2.49,0,0,0,.8-.74l1.12.69a3.37,3.37,0,0,1-1.15,1.08,3.78,3.78,0,0,1-1.83.38,3.41,3.41,0,0,1-2.74-1.06,4.92,4.92,0,0,1-.9-3.23,5.2,5.2,0,0,1,.88-3.33,3.24,3.24,0,0,1,2.66-1.08,3,3,0,0,1,2.4.92,4.25,4.25,0,0,1,.8,2.83v.76Zm4-1.06a2.93,2.93,0,0,0-.46-1.72,1.69,1.69,0,0,0-1.46-.61,1.81,1.81,0,0,0-1.45.55,3.33,3.33,0,0,0-.64,1.78Z"/><path class="cls-1" d="M22.72,188.86a2.2,2.2,0,0,1-.81,1.81,3.69,3.69,0,0,1-2.33.65,4.24,4.24,0,0,1-1.84-.39,2.49,2.49,0,0,1-1.19-1.09l1.08-.66a2.17,2.17,0,0,0,2,1,2.22,2.22,0,0,0,1.34-.34,1.1,1.1,0,0,0,.44-.93,1,1,0,0,0-.15-.56,1.29,1.29,0,0,0-.49-.37,9.52,9.52,0,0,0-1.35-.44,4.26,4.26,0,0,1-2.06-.93,2.14,2.14,0,0,1-.6-1.58,2.17,2.17,0,0,1,.78-1.75,3.27,3.27,0,0,1,2.17-.66,3.59,3.59,0,0,1,1.81.42,2.82,2.82,0,0,1,1.06,1l-1.07.66a2.08,2.08,0,0,0-1.83-1,2.14,2.14,0,0,0-1.14.29,1,1,0,0,0-.47.93.89.89,0,0,0,.41.81,4.89,4.89,0,0,0,1.28.46,8.45,8.45,0,0,1,1.93.67,2.11,2.11,0,0,1,.79.78A2.35,2.35,0,0,1,22.72,188.86Z"/><path class="cls-1" d="M28.82,191.08a5.26,5.26,0,0,1-1.55.24,2.2,2.2,0,0,1-1.8-.66,3.24,3.24,0,0,1-.55-2.07V184H23.75v-1.13h1.17v-2.29h1.35v2.29h2.09V184H26.27v4.35a3.74,3.74,0,0,0,.2,1.43.88.88,0,0,0,.89.43,2.72,2.72,0,0,0,1.11-.22Z"/><path class="cls-1" d="M32,180.77a.79.79,0,0,1-.21.64,1.11,1.11,0,0,1-.68.17.89.89,0,0,1-.68-.21.86.86,0,0,1-.19-.6.79.79,0,0,1,.21-.61.91.91,0,0,1,.66-.19,1,1,0,0,1,.68.18A.8.8,0,0,1,32,180.77Zm-1.56,10.31v-8.23h1.35v8.23Z"/><path class="cls-1" d="M37.72,191.08H36.39l-2.88-8.23H35l2.13,6.46,2.12-6.46H40.6Z"/><path class="cls-1" d="M46.78,191.08v-1a7.31,7.31,0,0,1-1.27.91,2.84,2.84,0,0,1-1.43.36,2.31,2.31,0,0,1-1.82-.72,2.67,2.67,0,0,1-.64-1.83,2.63,2.63,0,0,1,.34-1.41,2.37,2.37,0,0,1,1-.89,5.62,5.62,0,0,1,1.83-.46l2-.18v-.4a1.44,1.44,0,0,0-.53-1.3,2.69,2.69,0,0,0-1.47-.34,2.31,2.31,0,0,0-1.28.29,2,2,0,0,0-.65.62l-1.1-.67A2.51,2.51,0,0,1,42.9,183a4.49,4.49,0,0,1,1.91-.36,4,4,0,0,1,2.55.64,2.78,2.78,0,0,1,.76,2.23v5.59Zm0-4.17-1.32.12a4,4,0,0,0-1.89.52,1.38,1.38,0,0,0-.55,1.19,1.3,1.3,0,0,0,.37,1,1.59,1.59,0,0,0,1.1.33,1.62,1.62,0,0,0,.61-.12,5.25,5.25,0,0,0,.59-.28,4,4,0,0,0,.56-.39l.53-.42Z"/><path class="cls-1" d="M50.79,191.08V179.4h1.35v11.68Z"/><path class="cls-1" d="M63.87,191.08v-1a6.89,6.89,0,0,1-1.26.91,2.84,2.84,0,0,1-1.43.36,2.31,2.31,0,0,1-1.82-.72,2.67,2.67,0,0,1-.64-1.83,2.63,2.63,0,0,1,.34-1.41,2.37,2.37,0,0,1,1-.89,5.62,5.62,0,0,1,1.83-.46l2-.18v-.4a1.44,1.44,0,0,0-.52-1.3,2.69,2.69,0,0,0-1.47-.34,2.31,2.31,0,0,0-1.28.29,2,2,0,0,0-.65.62l-1.1-.67A2.51,2.51,0,0,1,60,183a4.49,4.49,0,0,1,1.91-.36,3.94,3.94,0,0,1,2.54.64,2.75,2.75,0,0,1,.77,2.23v5.59Zm0-4.17-1.31.12a4,4,0,0,0-1.89.52,1.38,1.38,0,0,0-.55,1.19,1.3,1.3,0,0,0,.37,1,1.59,1.59,0,0,0,1.1.33,1.62,1.62,0,0,0,.61-.12,4.41,4.41,0,0,0,.58-.28,4.12,4.12,0,0,0,.57-.39l.52-.42Z"/><path class="cls-1" d="M73,191.08v-4.85a7.22,7.22,0,0,0-.11-1.56,1,1,0,0,0-.39-.57,1.41,1.41,0,0,0-.78-.18,2.53,2.53,0,0,0-1.2.39,7.89,7.89,0,0,0-1.34,1v5.81H67.83v-8.23h1.34v1.23a7,7,0,0,1,1.34-1,3,3,0,0,1,1.53-.44,2.13,2.13,0,0,1,1.74.68,3.58,3.58,0,0,1,.56,2.29v5.49Z"/><path class="cls-1" d="M82.13,191.08v-.82A4.16,4.16,0,0,1,81,191a3.23,3.23,0,0,1-1.38.3,2.64,2.64,0,0,1-2.29-1.12,6.45,6.45,0,0,1,.07-6.38,2.83,2.83,0,0,1,2.43-1.2,3.4,3.4,0,0,1,2.29.91V179.4h1.35v11.68Zm0-6.38a3.35,3.35,0,0,0-2.12-.88,1.81,1.81,0,0,0-1.5.77,4,4,0,0,0-.59,2.41c0,2.08.66,3.12,2,3.12a2.47,2.47,0,0,0,1.23-.33,4.92,4.92,0,0,0,1-.73Z"/><path class="cls-1" d="M95.65,191.08v-4.85a7.22,7.22,0,0,0-.11-1.56,1,1,0,0,0-.38-.57,1.42,1.42,0,0,0-.79-.18,2.53,2.53,0,0,0-1.2.39,7.89,7.89,0,0,0-1.34,1v5.81H90.48V179.4h1.35v4.68a6.66,6.66,0,0,1,1.34-1,3,3,0,0,1,1.52-.44,2.13,2.13,0,0,1,1.75.68,3.64,3.64,0,0,1,.56,2.29v5.49Z"/><path class="cls-1" d="M104.28,191.08v-1A7.31,7.31,0,0,1,103,191a2.84,2.84,0,0,1-1.43.36,2.31,2.31,0,0,1-1.82-.72,2.67,2.67,0,0,1-.64-1.83,2.72,2.72,0,0,1,.34-1.41,2.37,2.37,0,0,1,1-.89,5.62,5.62,0,0,1,1.83-.46l2-.18v-.4a1.44,1.44,0,0,0-.53-1.3,2.69,2.69,0,0,0-1.47-.34,2.31,2.31,0,0,0-1.28.29,1.91,1.91,0,0,0-.64.62L99.25,184A2.51,2.51,0,0,1,100.4,183a4.51,4.51,0,0,1,1.92-.36,4,4,0,0,1,2.54.64,2.78,2.78,0,0,1,.76,2.23v5.59Zm0-4.17L103,187a4,4,0,0,0-1.89.52,1.38,1.38,0,0,0-.55,1.19,1.3,1.3,0,0,0,.37,1,1.59,1.59,0,0,0,1.1.33,1.62,1.62,0,0,0,.61-.12,5.25,5.25,0,0,0,.59-.28,4,4,0,0,0,.56-.39l.53-.42Z"/><path class="cls-1" d="M113.85,188.86a2.18,2.18,0,0,1-.82,1.81,3.64,3.64,0,0,1-2.32.65,4.21,4.21,0,0,1-1.84-.39,2.49,2.49,0,0,1-1.19-1.09l1.08-.66a2.16,2.16,0,0,0,2,1,2.24,2.24,0,0,0,1.34-.34,1.13,1.13,0,0,0,.44-.93.91.91,0,0,0-.16-.56,1.18,1.18,0,0,0-.48-.37,9.52,9.52,0,0,0-1.35-.44,4.25,4.25,0,0,1-2.07-.93,2.14,2.14,0,0,1-.6-1.58,2.18,2.18,0,0,1,.79-1.75,3.25,3.25,0,0,1,2.17-.66,3.53,3.53,0,0,1,1.8.42,2.85,2.85,0,0,1,1.07,1l-1.07.66a2.08,2.08,0,0,0-1.83-1,2.14,2.14,0,0,0-1.14.29,1,1,0,0,0-.47.93.89.89,0,0,0,.41.81,4.89,4.89,0,0,0,1.28.46,8.45,8.45,0,0,1,1.93.67,2.08,2.08,0,0,1,.78.78A2.34,2.34,0,0,1,113.85,188.86Z"/><path class="cls-1" d="M121.16,191.08v-4.85a7.22,7.22,0,0,0-.11-1.56,1,1,0,0,0-.39-.57,1.37,1.37,0,0,0-.77-.18,2.53,2.53,0,0,0-1.21.39,7.45,7.45,0,0,0-1.33,1v5.81H116v-8.23h1.35v1.23a6.59,6.59,0,0,1,1.33-1,3.05,3.05,0,0,1,1.53-.44,2.16,2.16,0,0,1,1.75.68,3.65,3.65,0,0,1,.55,2.29v5.49Z"/><path class="cls-1" d="M126.91,181a5.16,5.16,0,0,1-.29,1.76A3.78,3.78,0,0,1,126,184h-.82a3,3,0,0,0,.47-1,4.7,4.7,0,0,0,.19-1.17.91.91,0,0,1-.67-.2,1,1,0,0,1-.19-.67.94.94,0,0,1,.21-.67A1,1,0,0,1,126,180a.92.92,0,0,1,.74.26A1.19,1.19,0,0,1,126.91,181Z"/><path class="cls-1" d="M133.57,191.08a5.26,5.26,0,0,1-1.55.24,2.23,2.23,0,0,1-1.8-.66,3.25,3.25,0,0,1-.54-2.07V184H128.5v-1.13h1.18v-2.29H131v2.29h2.08V184H131v4.35a3.55,3.55,0,0,0,.2,1.43c.13.29.43.43.89.43a2.7,2.7,0,0,0,1.1-.22Z"/><path class="cls-1" d="M145.14,188.86a2.18,2.18,0,0,1-.82,1.81,3.64,3.64,0,0,1-2.32.65,4.21,4.21,0,0,1-1.84-.39,2.49,2.49,0,0,1-1.19-1.09l1.08-.66a2.16,2.16,0,0,0,2,1,2.24,2.24,0,0,0,1.34-.34,1.13,1.13,0,0,0,.44-.93,1,1,0,0,0-.15-.56,1.29,1.29,0,0,0-.49-.37,9.52,9.52,0,0,0-1.35-.44,4.25,4.25,0,0,1-2.07-.93,2.14,2.14,0,0,1-.6-1.58,2.18,2.18,0,0,1,.79-1.75,3.27,3.27,0,0,1,2.17-.66,3.53,3.53,0,0,1,1.8.42,2.78,2.78,0,0,1,1.07,1l-1.07.66a2.08,2.08,0,0,0-1.83-1,2.14,2.14,0,0,0-1.14.29,1,1,0,0,0-.47.93.89.89,0,0,0,.41.81,4.89,4.89,0,0,0,1.28.46,8.45,8.45,0,0,1,1.93.67,2.08,2.08,0,0,1,.78.78A2.34,2.34,0,0,1,145.14,188.86Z"/><path class="cls-1" d="M151.24,191.08a5.26,5.26,0,0,1-1.55.24,2.2,2.2,0,0,1-1.8-.66,3.18,3.18,0,0,1-.55-2.07V184h-1.17v-1.13h1.17v-2.29h1.35v2.29h2.09V184h-2.09v4.35a3.74,3.74,0,0,0,.2,1.43c.13.29.43.43.89.43a2.72,2.72,0,0,0,1.11-.22Z"/><path class="cls-1" d="M159.51,187a4.94,4.94,0,0,1-.92,3.23,3.3,3.3,0,0,1-2.69,1.1,3.36,3.36,0,0,1-2.69-1.08,4.85,4.85,0,0,1-.94-3.25,5,5,0,0,1,.94-3.29,3.36,3.36,0,0,1,2.69-1.08,3.31,3.31,0,0,1,2.69,1.1A5,5,0,0,1,159.51,187Zm-1.4,0a4.21,4.21,0,0,0-.55-2.44,2.21,2.21,0,0,0-3.34,0,4.21,4.21,0,0,0-.55,2.44,4.3,4.3,0,0,0,.53,2.38,2.22,2.22,0,0,0,3.37,0A4.2,4.2,0,0,0,158.11,187Z"/><path class="cls-1" d="M168.71,186.91a5.3,5.3,0,0,1-.88,3.22,2.85,2.85,0,0,1-2.42,1.19,3.43,3.43,0,0,1-2.3-.92v3.78h-1.35V182.85h1.35v.83a4,4,0,0,1,1.11-.75,3.18,3.18,0,0,1,1.4-.31,2.66,2.66,0,0,1,2.28,1.11A5.33,5.33,0,0,1,168.71,186.91Zm-1.39,0c0-2.08-.65-3.12-2-3.12a2.56,2.56,0,0,0-1.23.32,5,5,0,0,0-1,.74v4.35a3.28,3.28,0,0,0,2.12.89,1.81,1.81,0,0,0,1.5-.77A4,4,0,0,0,167.32,186.94Z"/><path class="cls-1" d="M177.92,186.91a5.37,5.37,0,0,1-.88,3.22,2.87,2.87,0,0,1-2.43,1.19,3.43,3.43,0,0,1-2.3-.92v3.78H171V182.85h1.35v.83a3.92,3.92,0,0,1,1.12-.75,3.14,3.14,0,0,1,1.39-.31,2.66,2.66,0,0,1,2.28,1.11A5.26,5.26,0,0,1,177.92,186.91Zm-1.4,0c0-2.08-.65-3.12-2-3.12a2.56,2.56,0,0,0-1.23.32,5,5,0,0,0-1,.74v4.35a3.3,3.3,0,0,0,2.12.89,1.84,1.84,0,0,0,1.51-.77A4,4,0,0,0,176.52,186.94Z"/><path class="cls-1" d="M181.15,187.13a3.69,3.69,0,0,0,.56,2.32,2.15,2.15,0,0,0,1.78.7,1.91,1.91,0,0,0,1-.24,2.72,2.72,0,0,0,.8-.74l1.11.69a3.26,3.26,0,0,1-1.14,1.08,3.78,3.78,0,0,1-1.83.38,3.39,3.39,0,0,1-2.74-1.06,4.92,4.92,0,0,1-.91-3.23,5.2,5.2,0,0,1,.89-3.33,3.22,3.22,0,0,1,2.66-1.08,3,3,0,0,1,2.4.92,4.25,4.25,0,0,1,.8,2.83v.76Zm4-1.06a2.93,2.93,0,0,0-.47-1.72,1.69,1.69,0,0,0-1.46-.61,1.83,1.83,0,0,0-1.45.55,3.33,3.33,0,0,0-.63,1.78Z"/><path class="cls-1" d="M193.83,191.08v-.82a4.16,4.16,0,0,1-1.12.76,3.23,3.23,0,0,1-1.38.3A2.65,2.65,0,0,1,189,190.2a6.45,6.45,0,0,1,.07-6.38,2.83,2.83,0,0,1,2.43-1.2,3.4,3.4,0,0,1,2.29.91V179.4h1.35v11.68Zm0-6.38a3.35,3.35,0,0,0-2.12-.88,1.81,1.81,0,0,0-1.5.77,4,4,0,0,0-.59,2.41c0,2.08.66,3.12,2,3.12a2.47,2.47,0,0,0,1.23-.33,4.92,4.92,0,0,0,1-.73Z"/><path class="cls-1" d="M6.59,209.08a3,3,0,0,1-1.06,1.08,3.49,3.49,0,0,1-1.88.43A3.35,3.35,0,0,1,.92,209.5a6.23,6.23,0,0,1,0-6.5,3.27,3.27,0,0,1,2.68-1.11,3.06,3.06,0,0,1,2.89,1.5l-1.1.68a2.47,2.47,0,0,0-.72-.75,1.94,1.94,0,0,0-1.08-.26,1.81,1.81,0,0,0-1.69.85,4.82,4.82,0,0,0-.49,2.38,5.36,5.36,0,0,0,.23,1.79,2,2,0,0,0,.73,1,2.21,2.21,0,0,0,1.27.34,2.09,2.09,0,0,0,1.07-.24,2.72,2.72,0,0,0,.79-.77Z"/><path class="cls-1" d="M13.66,210.35V205.5a6.43,6.43,0,0,0-.12-1.56,1,1,0,0,0-.38-.57,1.38,1.38,0,0,0-.78-.18,2.53,2.53,0,0,0-1.21.39,7.83,7.83,0,0,0-1.33,1v5.81H8.49V198.67H9.84v4.68a6.51,6.51,0,0,1,1.33-1,3.08,3.08,0,0,1,1.53-.44,2.1,2.1,0,0,1,1.75.68,3.64,3.64,0,0,1,.56,2.29v5.49Z"/><path class="cls-1" d="M22.28,210.35v-1a7.65,7.65,0,0,1-1.26.91,2.85,2.85,0,0,1-1.44.36,2.3,2.3,0,0,1-1.81-.72,2.64,2.64,0,0,1-.64-1.84,2.71,2.71,0,0,1,.33-1.4,2.39,2.39,0,0,1,1-.89,5.59,5.59,0,0,1,1.83-.47l2-.18v-.4a1.41,1.41,0,0,0-.53-1.29,2.65,2.65,0,0,0-1.46-.34,2.31,2.31,0,0,0-1.28.29,2,2,0,0,0-.65.62l-1.1-.67a2.48,2.48,0,0,1,1.14-1.05,4.57,4.57,0,0,1,1.92-.36,4,4,0,0,1,2.54.64,2.78,2.78,0,0,1,.77,2.23v5.59Zm0-4.17L21,206.3a3.85,3.85,0,0,0-1.88.52,1.36,1.36,0,0,0-.55,1.18,1.32,1.32,0,0,0,.37,1.06,1.59,1.59,0,0,0,1.1.32,1.77,1.77,0,0,0,.6-.11,4.53,4.53,0,0,0,.59-.28,4.31,4.31,0,0,0,.56-.39l.53-.42Z"/><path class="cls-1" d="M30.68,203.46a1.53,1.53,0,0,0-.63-.1,2.51,2.51,0,0,0-1.16.28,5.58,5.58,0,0,0-1.31,1v5.69H26.23v-8.23h1.35v1.34a8.69,8.69,0,0,1,1.19-1,2.38,2.38,0,0,1,1.38-.44,1.73,1.73,0,0,1,.82.16Z"/><path class="cls-1" d="M42.06,210.35V205.5a9,9,0,0,0-.09-1.61.84.84,0,0,0-.33-.55,1.34,1.34,0,0,0-.71-.15,1.92,1.92,0,0,0-.92.29,7.51,7.51,0,0,0-1.33,1.06v5.81H37.33V205.5a7.75,7.75,0,0,0-.1-1.57.93.93,0,0,0-.32-.57,1.11,1.11,0,0,0-.7-.17,2.1,2.1,0,0,0-1,.35,6.1,6.1,0,0,0-1.24,1v5.81H32.59v-8.23h1.35v1.23a6.42,6.42,0,0,1,1.19-1,2.45,2.45,0,0,1,1.41-.44,2.14,2.14,0,0,1,1.33.38,1.94,1.94,0,0,1,.66,1.22,9,9,0,0,1,1.31-1.14,2.55,2.55,0,0,1,1.49-.46,2.05,2.05,0,0,1,1.2.31,1.82,1.82,0,0,1,.67.92,5.54,5.54,0,0,1,.21,1.74v5.49Z"/><path class="cls-1" d="M47.57,200a.81.81,0,0,1-.21.64,1.08,1.08,0,0,1-.67.16.88.88,0,0,1-.68-.21.84.84,0,0,1-.19-.59.83.83,0,0,1,.2-.61,1,1,0,0,1,.67-.19,1,1,0,0,1,.68.18A.78.78,0,0,1,47.57,200ZM46,210.35v-8.23h1.35v8.23Z"/><path class="cls-1" d="M55.2,210.35V205.5a6.59,6.59,0,0,0-.12-1.57,1,1,0,0,0-.39-.56,1.35,1.35,0,0,0-.77-.18,2.53,2.53,0,0,0-1.21.39,7.83,7.83,0,0,0-1.33,1v5.81H50v-8.23h1.35v1.23a6.25,6.25,0,0,1,1.33-1,3.08,3.08,0,0,1,1.53-.44,2.12,2.12,0,0,1,1.75.68,3.65,3.65,0,0,1,.55,2.29v5.49Z"/><path class="cls-1" d="M65.69,210.17a3.35,3.35,0,0,1-.82,2.46,3.8,3.8,0,0,1-2.72.81,5.4,5.4,0,0,1-3-.76l.5-1.09a4.27,4.27,0,0,0,2.49.73,2.41,2.41,0,0,0,1.67-.48,2.11,2.11,0,0,0,.51-1.59v-1a4,4,0,0,1-1.11.75,3.22,3.22,0,0,1-1.39.31,2.69,2.69,0,0,1-2.31-1.08,5.28,5.28,0,0,1-.79-3.12,5,5,0,0,1,.89-3.13A2.89,2.89,0,0,1,62,201.89a3.4,3.4,0,0,1,2.29.91v-.68h1.36ZM64.33,204a3.35,3.35,0,0,0-2.12-.88,1.72,1.72,0,0,0-1.55.8,3.93,3.93,0,0,0-.53,2.23,4.14,4.14,0,0,0,.49,2.3,1.67,1.67,0,0,0,1.47.72,3.27,3.27,0,0,0,2.24-1.06Z"/><path class="cls-1" d="M73.67,206.4a3.77,3.77,0,0,0,.55,2.32,2.17,2.17,0,0,0,1.79.69,1.91,1.91,0,0,0,1-.23,2.63,2.63,0,0,0,.8-.75l1.11.69a3.32,3.32,0,0,1-1.15,1.09,3.73,3.73,0,0,1-1.82.38,3.35,3.35,0,0,1-2.74-1.07,4.83,4.83,0,0,1-.91-3.22,5.24,5.24,0,0,1,.88-3.33,3.25,3.25,0,0,1,2.67-1.08,3,3,0,0,1,2.39.92,4.19,4.19,0,0,1,.8,2.83v.76Zm4-1.06a2.93,2.93,0,0,0-.47-1.72,1.69,1.69,0,0,0-1.46-.61,1.82,1.82,0,0,0-1.45.55,3.41,3.41,0,0,0-.64,1.78Z"/><path class="cls-1" d="M84.44,210.35H83.11l-2.88-8.23h1.45l2.13,6.46,2.12-6.46h1.39Z"/><path class="cls-1" d="M89.89,206.4a3.69,3.69,0,0,0,.56,2.32,2.15,2.15,0,0,0,1.78.69,1.91,1.91,0,0,0,1-.23,2.63,2.63,0,0,0,.8-.75l1.11.69A3.29,3.29,0,0,1,94,210.21a3.78,3.78,0,0,1-1.83.38,3.37,3.37,0,0,1-2.74-1.07,4.83,4.83,0,0,1-.91-3.22,5.24,5.24,0,0,1,.88-3.33A3.25,3.25,0,0,1,92,201.89a3,3,0,0,1,2.4.92,4.25,4.25,0,0,1,.8,2.83v.76Zm4-1.06a2.93,2.93,0,0,0-.47-1.72A1.69,1.69,0,0,0,92,203a1.82,1.82,0,0,0-1.45.55,3.41,3.41,0,0,0-.64,1.78Z"/><path class="cls-1" d="M101.83,203.46a1.53,1.53,0,0,0-.63-.1,2.51,2.51,0,0,0-1.16.28,5.58,5.58,0,0,0-1.31,1v5.69H97.38v-8.23h1.35v1.34a8.69,8.69,0,0,1,1.19-1,2.38,2.38,0,0,1,1.38-.44,1.73,1.73,0,0,1,.82.16Z"/><path class="cls-1" d="M102.72,212.09a2.73,2.73,0,0,0,1.18.23c.63,0,1.17-.57,1.61-1.71l.27-.71-3-7.78h1.46l2.26,6,2.28-6h1.41L106.68,211a5.16,5.16,0,0,1-1.19,1.92,2.4,2.4,0,0,1-1.65.55,4.45,4.45,0,0,1-.79-.07,3.68,3.68,0,0,1-.67-.16Z"/><path class="cls-1" d="M118.4,206.25a4.89,4.89,0,0,1-.93,3.24,3.29,3.29,0,0,1-2.68,1.1,3.34,3.34,0,0,1-2.7-1.09,6.17,6.17,0,0,1,0-6.53,3.36,3.36,0,0,1,2.69-1.08,3.28,3.28,0,0,1,2.69,1.1A5,5,0,0,1,118.4,206.25Zm-1.4,0a4.17,4.17,0,0,0-.55-2.43,1.91,1.91,0,0,0-1.66-.76,1.94,1.94,0,0,0-1.69.76,5.65,5.65,0,0,0,0,4.82,2.25,2.25,0,0,0,3.38,0A4.24,4.24,0,0,0,117,206.25Z"/><path class="cls-1" d="M125.81,210.35V205.5a7.4,7.4,0,0,0-.11-1.57,1,1,0,0,0-.39-.56,1.41,1.41,0,0,0-.78-.18,2.53,2.53,0,0,0-1.2.39,7.89,7.89,0,0,0-1.34,1v5.81h-1.34v-8.23H122v1.23a6.58,6.58,0,0,1,1.34-1,3,3,0,0,1,1.53-.44,2.1,2.1,0,0,1,1.74.68,3.58,3.58,0,0,1,.56,2.29v5.49Z"/><path class="cls-1" d="M130.74,206.4a3.76,3.76,0,0,0,.56,2.32,2.17,2.17,0,0,0,1.79.69,1.87,1.87,0,0,0,1-.23,2.43,2.43,0,0,0,.8-.75l1.12.69a3.4,3.4,0,0,1-1.15,1.09,3.78,3.78,0,0,1-1.83.38,3.38,3.38,0,0,1-2.74-1.07,4.89,4.89,0,0,1-.9-3.22,5.18,5.18,0,0,1,.88-3.33,3.24,3.24,0,0,1,2.66-1.08,3,3,0,0,1,2.4.92,4.25,4.25,0,0,1,.8,2.83v.76Zm4-1.06a2.93,2.93,0,0,0-.46-1.72,1.69,1.69,0,0,0-1.46-.61,1.81,1.81,0,0,0-1.45.55,3.33,3.33,0,0,0-.64,1.78Z"/><path class="cls-1" d="M148.2,208.13a2.21,2.21,0,0,1-.82,1.81,3.66,3.66,0,0,1-2.32.65,4.21,4.21,0,0,1-1.84-.39,2.49,2.49,0,0,1-1.19-1.09l1.08-.66a2.57,2.57,0,0,0,3.33.65,1.1,1.1,0,0,0,.44-.92.91.91,0,0,0-.16-.56,1.18,1.18,0,0,0-.48-.37,8.34,8.34,0,0,0-1.35-.44,4.25,4.25,0,0,1-2.07-.93,2.35,2.35,0,0,1,.19-3.33,3.25,3.25,0,0,1,2.17-.66,3.55,3.55,0,0,1,1.8.42,2.78,2.78,0,0,1,1.07,1L147,204a2.23,2.23,0,0,0-3-.67,1,1,0,0,0-.47.93.89.89,0,0,0,.41.81,4.89,4.89,0,0,0,1.28.46,8.14,8.14,0,0,1,1.92.67,2.09,2.09,0,0,1,.79.77A2.41,2.41,0,0,1,148.2,208.13Z"/><path class="cls-1" d="M155.51,210.35V205.5a7.22,7.22,0,0,0-.11-1.56,1,1,0,0,0-.38-.57,1.42,1.42,0,0,0-.79-.18,2.53,2.53,0,0,0-1.2.39,7.89,7.89,0,0,0-1.34,1v5.81h-1.35V198.67h1.35v4.68a6.58,6.58,0,0,1,1.34-1,3,3,0,0,1,1.53-.44,2.1,2.1,0,0,1,1.74.68,3.64,3.64,0,0,1,.56,2.29v5.49Z"/><path class="cls-1" d="M160.44,206.4a3.76,3.76,0,0,0,.56,2.32,2.17,2.17,0,0,0,1.79.69,1.9,1.9,0,0,0,1-.23,2.43,2.43,0,0,0,.8-.75l1.11.69a3.29,3.29,0,0,1-1.14,1.09,3.78,3.78,0,0,1-1.83.38,3.38,3.38,0,0,1-2.74-1.07,4.89,4.89,0,0,1-.9-3.22,5.18,5.18,0,0,1,.88-3.33,3.23,3.23,0,0,1,2.66-1.08,3,3,0,0,1,2.4.92,4.25,4.25,0,0,1,.8,2.83v.76Zm4-1.06a2.93,2.93,0,0,0-.46-1.72,1.7,1.7,0,0,0-1.47-.61,1.8,1.8,0,0,0-1.44.55,3.33,3.33,0,0,0-.64,1.78Z"/><path class="cls-1" d="M9.89,229.62v-4.85a8,8,0,0,0-.1-1.62.82.82,0,0,0-.33-.54,1.32,1.32,0,0,0-.71-.15,1.84,1.84,0,0,0-.92.29,7.4,7.4,0,0,0-1.33,1.06v5.81H5.15v-4.85a8.81,8.81,0,0,0-.09-1.57,1,1,0,0,0-.32-.57,1.16,1.16,0,0,0-.71-.17,2,2,0,0,0-1,.35,6.39,6.39,0,0,0-1.24,1v5.81H.42v-8.23H1.76v1.22a6.84,6.84,0,0,1,1.2-1,2.42,2.42,0,0,1,1.41-.44,2.12,2.12,0,0,1,1.33.38,2,2,0,0,1,.66,1.22,8.48,8.48,0,0,1,1.31-1.14,2.52,2.52,0,0,1,1.48-.46,2.11,2.11,0,0,1,1.21.31,1.86,1.86,0,0,1,.66.92,5.49,5.49,0,0,1,.22,1.74v5.49Z"/><path class="cls-1" d="M14.82,225.66a3.78,3.78,0,0,0,.55,2.33,2.18,2.18,0,0,0,1.79.69,1.91,1.91,0,0,0,1-.23,2.63,2.63,0,0,0,.8-.75l1.11.69a3.48,3.48,0,0,1-1.14,1.09,3.78,3.78,0,0,1-1.83.38,3.4,3.4,0,0,1-2.74-1.07,4.83,4.83,0,0,1-.91-3.22,5.27,5.27,0,0,1,.88-3.34A3.24,3.24,0,0,1,17,221.16a3,3,0,0,1,2.4.92,4.25,4.25,0,0,1,.8,2.83v.75Zm4-1a2.93,2.93,0,0,0-.47-1.72,1.69,1.69,0,0,0-1.46-.61,1.82,1.82,0,0,0-1.45.55,3.41,3.41,0,0,0-.64,1.78Z"/><path class="cls-1" d="M23.29,225.66a3.77,3.77,0,0,0,.56,2.33,2.17,2.17,0,0,0,1.79.69,1.9,1.9,0,0,0,1-.23,2.43,2.43,0,0,0,.8-.75l1.12.69a3.5,3.5,0,0,1-1.15,1.09,3.78,3.78,0,0,1-1.83.38,3.41,3.41,0,0,1-2.74-1.07,4.89,4.89,0,0,1-.9-3.22,5.21,5.21,0,0,1,.88-3.34,3.24,3.24,0,0,1,2.66-1.07,3,3,0,0,1,2.4.92,4.25,4.25,0,0,1,.8,2.83v.75Zm4-1a2.93,2.93,0,0,0-.46-1.72,1.7,1.7,0,0,0-1.47-.61,1.8,1.8,0,0,0-1.44.55,3.33,3.33,0,0,0-.64,1.78Z"/><path class="cls-1" d="M34.9,229.62a5.33,5.33,0,0,1-1.56.24,2.19,2.19,0,0,1-1.79-.66,3.18,3.18,0,0,1-.55-2.07v-4.61H29.82v-1.13H31V219.1h1.35v2.29h2.08v1.13H32.35v4.35a3.74,3.74,0,0,0,.2,1.43c.13.29.43.43.89.43a2.67,2.67,0,0,0,1.1-.22Z"/><path class="cls-1" d="M42.13,227.4a2.19,2.19,0,0,1-.82,1.8,3.6,3.6,0,0,1-2.32.66,4.18,4.18,0,0,1-1.84-.39A2.49,2.49,0,0,1,36,228.38l1.08-.66a2.16,2.16,0,0,0,2,1,2.19,2.19,0,0,0,1.34-.34,1.1,1.1,0,0,0,.44-.92.89.89,0,0,0-.16-.56,1.28,1.28,0,0,0-.48-.38,9.94,9.94,0,0,0-1.35-.43,4.35,4.35,0,0,1-2.07-.93,2.37,2.37,0,0,1,.19-3.34,3.31,3.31,0,0,1,2.17-.65,3.58,3.58,0,0,1,1.8.42,2.78,2.78,0,0,1,1.07,1l-1.08.66a2.23,2.23,0,0,0-3-.67,1,1,0,0,0-.47.93.84.84,0,0,0,.41.8,4.74,4.74,0,0,0,1.27.47,8.27,8.27,0,0,1,1.93.67,2.09,2.09,0,0,1,.79.77A2.41,2.41,0,0,1,42.13,227.4Z"/><path class="cls-1" d="M54.23,227.4a2.18,2.18,0,0,1-.81,1.8,3.62,3.62,0,0,1-2.32.66,4.25,4.25,0,0,1-1.85-.39,2.54,2.54,0,0,1-1.19-1.09l1.08-.66a2.18,2.18,0,0,0,2,1,2.15,2.15,0,0,0,1.34-.34,1.07,1.07,0,0,0,.44-.92,1,1,0,0,0-.15-.56,1.41,1.41,0,0,0-.49-.38,9.94,9.94,0,0,0-1.35-.43,4.35,4.35,0,0,1-2.06-.93,2.15,2.15,0,0,1-.6-1.59,2.19,2.19,0,0,1,.78-1.75,3.32,3.32,0,0,1,2.17-.65,3.59,3.59,0,0,1,1.81.42,2.75,2.75,0,0,1,1.06,1l-1.07.66a2.25,2.25,0,0,0-3-.67,1,1,0,0,0-.47.93.86.86,0,0,0,.41.8,4.84,4.84,0,0,0,1.28.47,8.45,8.45,0,0,1,1.93.67,2.17,2.17,0,0,1,.79.77A2.41,2.41,0,0,1,54.23,227.4Z"/><path class="cls-1" d="M57.94,219.31a.77.77,0,0,1-.21.63,1,1,0,0,1-.68.17.72.72,0,0,1-.87-.8.79.79,0,0,1,.21-.61.93.93,0,0,1,.66-.19,1.06,1.06,0,0,1,.69.18A.82.82,0,0,1,57.94,219.31Zm-1.56,10.31v-8.23h1.35v8.23Z"/><path class="cls-1" d="M65.56,229.62v-4.85a6.53,6.53,0,0,0-.12-1.57,1,1,0,0,0-.38-.57,1.5,1.5,0,0,0-.78-.17,2.56,2.56,0,0,0-1.21.39,7.83,7.83,0,0,0-1.33,1v5.81H60.39v-8.23h1.35v1.22a6.47,6.47,0,0,1,1.33-1,3,3,0,0,1,1.53-.44,2.13,2.13,0,0,1,1.75.67,3.69,3.69,0,0,1,.56,2.3v5.49Z"/><path class="cls-1" d="M75.69,228.35a3.16,3.16,0,0,1-1.07,1.08,3.47,3.47,0,0,1-1.88.43,3.37,3.37,0,0,1-2.73-1.1,6.24,6.24,0,0,1,0-6.49,3.26,3.26,0,0,1,2.68-1.11,3.06,3.06,0,0,1,2.89,1.5l-1.11.67a2.52,2.52,0,0,0-.71-.74,2,2,0,0,0-1.09-.27,1.79,1.79,0,0,0-1.68.86,4.8,4.8,0,0,0-.5,2.37,5.35,5.35,0,0,0,.24,1.8,2,2,0,0,0,.73,1,2.16,2.16,0,0,0,1.27.34,2.12,2.12,0,0,0,1.07-.24,2.58,2.58,0,0,0,.78-.77Z"/><path class="cls-1" d="M78.57,225.66a3.78,3.78,0,0,0,.55,2.33,2.18,2.18,0,0,0,1.79.69,1.91,1.91,0,0,0,1-.23,2.63,2.63,0,0,0,.8-.75l1.11.69a3.41,3.41,0,0,1-1.15,1.09,3.73,3.73,0,0,1-1.82.38,3.39,3.39,0,0,1-2.74-1.07,4.83,4.83,0,0,1-.91-3.22,5.27,5.27,0,0,1,.88-3.34,3.24,3.24,0,0,1,2.67-1.07,3,3,0,0,1,2.39.92,4.19,4.19,0,0,1,.8,2.83v.75Zm4-1a2.93,2.93,0,0,0-.47-1.72,1.69,1.69,0,0,0-1.46-.61,1.82,1.82,0,0,0-1.45.55,3.41,3.41,0,0,0-.64,1.78Z"/><path class="cls-1" d="M87.86,228.85a.84.84,0,0,1-.23.68,1.15,1.15,0,0,1-.74.2.9.9,0,0,1-.74-.24,1,1,0,0,1-.2-.64.88.88,0,0,1,.22-.68,1,1,0,0,1,.72-.21,1.05,1.05,0,0,1,.75.21A.88.88,0,0,1,87.86,228.85Z"/><path class="cls-1" d="M134.38,27.5a2,2,0,0,1,1.38.74,2.23,2.23,0,0,1,.17,1.62l-.15.88,1.9.34-.14.75-5.6-1,.29-1.66a2.23,2.23,0,0,1,.71-1.44A1.79,1.79,0,0,1,134.38,27.5Zm-.13.79a1.15,1.15,0,0,0-.91.14,1.53,1.53,0,0,0-.45.95l-.14.82,2.35.42.13-.72a2.24,2.24,0,0,0,0-.88.72.72,0,0,0-.3-.47A1.65,1.65,0,0,0,134.25,28.29Z"/><path class="cls-1" d="M139.21,25.08l-.51-.17a3.15,3.15,0,0,1,.24.78,1.46,1.46,0,0,1-.06.77,1.19,1.19,0,0,1-.66.78,1.33,1.33,0,0,1-1,0,1.28,1.28,0,0,1-.64-.4,1.14,1.14,0,0,1-.28-.63,3,3,0,0,1,.07-1l.25-1-.2-.07a.75.75,0,0,0-.73.05,1.43,1.43,0,0,0-.42.67,1.3,1.3,0,0,0-.07.68,1,1,0,0,0,.21.43l-.52.44a1.23,1.23,0,0,1-.33-.75,2.22,2.22,0,0,1,.14-1,2.13,2.13,0,0,1,.74-1.16,1.46,1.46,0,0,1,1.24,0l2.78.94Zm-2.07-.7-.16.68a2.06,2.06,0,0,0-.06,1,.72.72,0,0,0,.5.47.71.71,0,0,0,.59,0,.89.89,0,0,0,.34-.5.86.86,0,0,0,.05-.32c0-.11,0-.22,0-.34s-.06-.23-.1-.34l-.12-.33Z"/><path class="cls-1" d="M139.61,19.09a2.73,2.73,0,0,1,1.29,1.18,1.52,1.52,0,0,1,0,1.42,1.84,1.84,0,0,1-1,.85l1.76.91-.33.63-5.28-2.72.32-.63.39.19a2,2,0,0,1-.09-.7,1.69,1.69,0,0,1,.2-.72,1.4,1.4,0,0,1,1.06-.8A2.77,2.77,0,0,1,139.61,19.09Zm-.32.65c-1-.5-1.61-.44-1.93.17a1.32,1.32,0,0,0-.14.65,2.27,2.27,0,0,0,.1.65l2,1.05a1.72,1.72,0,0,0,.92-.78.92.92,0,0,0,0-.88A2.08,2.08,0,0,0,139.29,19.74Z"/><path class="cls-1" d="M140.71,17.64a2,2,0,0,0,1.17.47,1.14,1.14,0,0,0,.84-.55,1,1,0,0,0,.2-.48,1.37,1.37,0,0,0-.08-.57l.64-.26a1.81,1.81,0,0,1,.11.82,1.87,1.87,0,0,1-.4.89,1.78,1.78,0,0,1-1.29.84,2.55,2.55,0,0,1-1.65-.6,2.71,2.71,0,0,1-1.15-1.4,1.68,1.68,0,0,1,.35-1.46,1.58,1.58,0,0,1,1.13-.74,2.21,2.21,0,0,1,1.45.53l.32.23Zm.79-2.05a1.49,1.49,0,0,0-.87-.32.86.86,0,0,0-.71.43,1,1,0,0,0-.21.79,1.7,1.7,0,0,0,.56.81Z"/><path class="cls-1" d="M143.63,11.69a.73.73,0,0,0-.26.2,1.31,1.31,0,0,0-.31.55,2.67,2.67,0,0,0-.08.87l2.19,2-.48.52-3.16-2.94.48-.52.51.48a5.52,5.52,0,0,1,0-.82,1.24,1.24,0,0,1,.33-.69,1,1,0,0,1,.35-.26Z"/><path class="cls-1" d="M147,13.55,142.84,9l.53-.48,4.1,4.55Z"/><path class="cls-1" d="M147.64,10.23a2,2,0,0,0,1,.82,1.17,1.17,0,0,0,1-.26,1,1,0,0,0,.33-.4,1.33,1.33,0,0,0,.11-.56l.69-.05a1.78,1.78,0,0,1-.15.81,2.09,2.09,0,0,1-.66.73,1.84,1.84,0,0,1-1.5.39A2.58,2.58,0,0,1,147,10.62a2.76,2.76,0,0,1-.66-1.69,1.72,1.72,0,0,1,.8-1.28,1.61,1.61,0,0,1,1.31-.35,2.26,2.26,0,0,1,1.21,1l.23.32ZM149,8.54A1.6,1.6,0,0,0,148.3,8a.89.89,0,0,0-.81.19,1,1,0,0,0-.45.68,1.73,1.73,0,0,0,.28.95Z"/><path class="cls-1" d="M154,7.38a1.13,1.13,0,0,1,.07,1,1.93,1.93,0,0,1-.91.87,2.3,2.3,0,0,1-1,.28,1.31,1.31,0,0,1-.82-.22l.34-.57a1.1,1.1,0,0,0,1.16,0,1.14,1.14,0,0,0,.54-.49.58.58,0,0,0,0-.53.5.5,0,0,0-.21-.22.76.76,0,0,0-.32-.06,6,6,0,0,0-.73.13,2.2,2.2,0,0,1-1.19.08,1.13,1.13,0,0,1-.67-.59,1.14,1.14,0,0,1-.07-1,1.77,1.77,0,0,1,.85-.84A1.82,1.82,0,0,1,152,5a1.43,1.43,0,0,1,.74.21l-.33.57a1.09,1.09,0,0,0-1.09,0,1.07,1.07,0,0,0-.45.41.54.54,0,0,0,0,.55.46.46,0,0,0,.39.27,2.36,2.36,0,0,0,.7-.1A4.24,4.24,0,0,1,153,6.74a1.11,1.11,0,0,1,.56.16A1.22,1.22,0,0,1,154,7.38Z"/><path class="cls-1" d="M157.75,5.91a1.15,1.15,0,0,1-.07,1,1.81,1.81,0,0,1-1,.75,2.1,2.1,0,0,1-1,.15,1.31,1.31,0,0,1-.79-.32l.41-.52a1.13,1.13,0,0,0,1.16.12,1.24,1.24,0,0,0,.6-.41.57.57,0,0,0,0-.54.45.45,0,0,0-.18-.24.63.63,0,0,0-.3-.1,5.83,5.83,0,0,0-.75,0,2.27,2.27,0,0,1-1.18-.07,1.13,1.13,0,0,1-.59-.67,1.19,1.19,0,0,1,.06-1,1.73,1.73,0,0,1,1-.72,1.85,1.85,0,0,1,1-.12,1.57,1.57,0,0,1,.72.3l-.41.52A1.1,1.1,0,0,0,155.31,4a1,1,0,0,0-.5.35.52.52,0,0,0-.06.54.47.47,0,0,0,.35.33,2.84,2.84,0,0,0,.71,0,4.49,4.49,0,0,1,1.07,0,1.08,1.08,0,0,1,.53.24A1.27,1.27,0,0,1,157.75,5.91Z"/><path class="cls-1" d="M164.48,5.76,161.3,1.25l.63,4.85-.73.09L160.46.54,161.57.4l2.92,4.13L163.91.09l.72-.09.74,5.65Z"/><path class="cls-1" d="M169,5.72l0-.54a4,4,0,0,1-.68.45,1.47,1.47,0,0,1-.76.16,1.19,1.19,0,0,1-.93-.4,1.41,1.41,0,0,1-.31-1,1.43,1.43,0,0,1,.2-.73,1.3,1.3,0,0,1,.53-.45,2.64,2.64,0,0,1,1-.21L169.14,3V2.75a.77.77,0,0,0-.26-.69,1.43,1.43,0,0,0-.76-.2,1.32,1.32,0,0,0-.68.12,1.1,1.1,0,0,0-.35.32l-.57-.37a1.27,1.27,0,0,1,.63-.53,2.36,2.36,0,0,1,1-.16,2,2,0,0,1,1.32.39,1.44,1.44,0,0,1,.36,1.18l-.1,2.93Zm.08-2.19-.69,0a2,2,0,0,0-1,.24.71.71,0,0,0-.31.61.71.71,0,0,0,.17.56,1,1,0,0,0,.89.14A2.22,2.22,0,0,0,168.5,5a2.49,2.49,0,0,0,.3-.19l.28-.21Z"/><path class="cls-1" d="M173,6.22a2.26,2.26,0,0,1-.82,0,1.11,1.11,0,0,1-.88-.48,1.63,1.63,0,0,1-.12-1.12l.37-2.39-.61-.09.09-.59.61.09.18-1.18.7.11-.18,1.18,1.08.17-.09.59-1.08-.17L171.9,4.6a1.88,1.88,0,0,0,0,.75c0,.16.19.26.42.3a1.5,1.5,0,0,0,.6,0Z"/><path class="cls-1" d="M173.71,6.41l1-4.2.68.17-1,4.19Zm2.07-5.07a.41.41,0,0,1-.19.3.54.54,0,0,1-.36,0,.48.48,0,0,1-.33-.19.51.51,0,0,1,0-.33.46.46,0,0,1,.18-.28.48.48,0,0,1,.36,0,.51.51,0,0,1,.33.18A.46.46,0,0,1,175.78,1.34Z"/><path class="cls-1" d="M179.69,6.05a2.6,2.6,0,0,1-1,1.44,1.74,1.74,0,0,1-1.52.06,1.77,1.77,0,0,1-1.14-1,2.53,2.53,0,0,1,.12-1.77,2.55,2.55,0,0,1,1-1.45,1.74,1.74,0,0,1,1.52-.06,1.72,1.72,0,0,1,1.13,1A2.6,2.6,0,0,1,179.69,6.05ZM179,5.8a2.22,2.22,0,0,0,.17-1.3,1,1,0,0,0-.69-.67,1,1,0,0,0-1,.08,2.14,2.14,0,0,0-.71,1.1,2.18,2.18,0,0,0-.16,1.27,1,1,0,0,0,.7.69,1,1,0,0,0,1-.08A2.18,2.18,0,0,0,179,5.8Z"/><path class="cls-1" d="M182.23,9.78l1.21-2.23a3.33,3.33,0,0,0,.34-.75.54.54,0,0,0,0-.36.78.78,0,0,0-.31-.28,1.5,1.5,0,0,0-.66-.12,4.22,4.22,0,0,0-.85.11l-1.46,2.67-.62-.34,2.06-3.78.62.33-.3.57a3.44,3.44,0,0,1,.87-.14,1.64,1.64,0,0,1,.81.19,1.1,1.1,0,0,1,.64.75,2,2,0,0,1-.32,1.19l-1.38,2.53Z"/><path class="cls-1" d="M185.62,12.08l3.77-4.26,2.61,2.3-.46.52-2-1.8-1.11,1.24,1.74,1.54-.45.52L188,10.6l-1.31,1.47,2,1.8-.46.52Z"/><path class="cls-1" d="M190.64,17.2l2-1.62a3.5,3.5,0,0,0,.59-.58.51.51,0,0,0,.1-.34.68.68,0,0,0-.19-.38,1.28,1.28,0,0,0-.56-.35,4.4,4.4,0,0,0-.83-.22l-2.35,1.95-.45-.54,3.32-2.76.45.54-.49.41a3.28,3.28,0,0,1,.85.2,1.58,1.58,0,0,1,.7.47,1.13,1.13,0,0,1,.31.93,2,2,0,0,1-.74,1l-2.21,1.84Z"/><path class="cls-1" d="M193.6,21.58a1.74,1.74,0,0,1-1.33.3,2,2,0,0,1-1.1-1,2.84,2.84,0,0,1-.46-1.55l.63-.07a2.22,2.22,0,0,0,.34,1.32,1.24,1.24,0,0,0,.66.62,1.14,1.14,0,0,0,.86-.19l.43-.26a2.18,2.18,0,0,1-.64-.3,1.8,1.8,0,0,1-.51-.55,1.39,1.39,0,0,1-.13-1.33,2.7,2.7,0,0,1,1.19-1.19,2.62,2.62,0,0,1,1.65-.45,1.55,1.55,0,0,1,1.16.79,1.85,1.85,0,0,1,.21,1.28l.3-.18.36.61ZM196,19.31a1.84,1.84,0,0,0-.17-1.2.91.91,0,0,0-.78-.48,2,2,0,0,0-1.15.36,2.15,2.15,0,0,0-.91.84.92.92,0,0,0,.07.86,1.78,1.78,0,0,0,1.08.72Z"/><path class="cls-1" d="M194,22.78,198,21l.3.65-3.94,1.78Zm5.27-1.49a.42.42,0,0,1-.35,0,.59.59,0,0,1-.23-.29.47.47,0,0,1-.05-.37.43.43,0,0,1,.25-.22.45.45,0,0,1,.33,0,.69.69,0,0,1,.3.65A.44.44,0,0,1,199.3,21.29Z"/><path class="cls-1" d="M195.68,27.12l2.42-.79a3.27,3.27,0,0,0,.76-.31.52.52,0,0,0,.22-.28.71.71,0,0,0,0-.42,1.26,1.26,0,0,0-.39-.54,4.57,4.57,0,0,0-.69-.51l-2.9.95-.22-.68,4.1-1.33.22.67-.61.2a3.39,3.39,0,0,1,.73.5,1.56,1.56,0,0,1,.46.69,1.1,1.1,0,0,1-.05,1,1.88,1.88,0,0,1-1.05.65l-2.74.9Z"/><path class="cls-1" d="M198.3,29.11a1.9,1.9,0,0,0-1.16.49,1.12,1.12,0,0,0-.2,1,1,1,0,0,0,.2.48,1.43,1.43,0,0,0,.46.35l-.26.64a1.75,1.75,0,0,1-.66-.5,2,2,0,0,1-.36-.91,1.78,1.78,0,0,1,.31-1.51,2.59,2.59,0,0,1,1.59-.76,2.78,2.78,0,0,1,1.81.17,1.72,1.72,0,0,1,.79,1.28,1.59,1.59,0,0,1-.27,1.32,2.28,2.28,0,0,1-1.4.67l-.39.06Zm.9,2a1.5,1.5,0,0,0,.84-.39.89.89,0,0,0,.19-.81.91.91,0,0,0-.41-.7,1.68,1.68,0,0,0-1-.18Z"/><path class="cls-1" d="M198.88,33.6a1.93,1.93,0,0,0-1.21.32,1.1,1.1,0,0,0-.34.95,1,1,0,0,0,.13.5,1.29,1.29,0,0,0,.4.41l-.34.6a1.85,1.85,0,0,1-.59-.59,1.93,1.93,0,0,1-.22-.95,1.78,1.78,0,0,1,.52-1.46,2.59,2.59,0,0,1,1.68-.51,2.74,2.74,0,0,1,1.76.41,1.67,1.67,0,0,1,.6,1.39,1.55,1.55,0,0,1-.45,1.27,2.23,2.23,0,0,1-1.48.45H199Zm.61,2.1a1.59,1.59,0,0,0,.89-.27.88.88,0,0,0,.3-.77,1,1,0,0,0-.31-.76,1.81,1.81,0,0,0-.94-.31Z"/><path class="cls-1" d="M200.15,40.1a1,1,0,0,0,.09-.33,1.34,1.34,0,0,0-.09-.62,2.91,2.91,0,0,0-.46-.73l-3-.3.07-.71,4.29.44-.07.7-.69-.07a4.7,4.7,0,0,1,.46.67,1.17,1.17,0,0,1,.16.75.8.8,0,0,1-.13.42Z"/><path class="cls-1" d="M198.35,45.42a1,1,0,0,1-.62-.5,1,1,0,0,1-.1-.8,1,1,0,0,1,.51-.63,1,1,0,0,1,.8-.1,1.06,1.06,0,0,1,.73,1.31,1,1,0,0,1-.51.64A1,1,0,0,1,198.35,45.42Z"/><path class="cls-1" d="M195.28,50.42l-1.95-1,.35-.69,1.93,1,4,0-.4.76-3.07-.09,1.83,2.49-.38.73Z"/><path class="cls-1" d="M193.81,52.7a2,2,0,0,0-1.17-.45,1.15,1.15,0,0,0-.84.56,1.07,1.07,0,0,0-.19.49,1.51,1.51,0,0,0,.09.56l-.63.28a1.83,1.83,0,0,1-.13-.82,2,2,0,0,1,.38-.9,1.77,1.77,0,0,1,1.28-.86,2.54,2.54,0,0,1,1.66.57,2.77,2.77,0,0,1,1.18,1.38,1.72,1.72,0,0,1-.33,1.47,1.59,1.59,0,0,1-1.12.76,2.23,2.23,0,0,1-1.46-.51l-.32-.22Zm-.75,2.06a1.54,1.54,0,0,0,.88.31.91.91,0,0,0,.7-.45.93.93,0,0,0,.19-.79,1.71,1.71,0,0,0-.57-.8Z"/><path class="cls-1" d="M189.83,54.57l4.64,4-.46.54-4.64-4Z"/><path class="cls-1" d="M188.44,56.11l4.35,4.32-.5.5-4.35-4.32Z"/><path class="cls-1" d="M185.59,61.44a2.57,2.57,0,0,1-.69-1.62,1.75,1.75,0,0,1,.74-1.34A1.79,1.79,0,0,1,187.1,58a2.54,2.54,0,0,1,1.45,1,2.59,2.59,0,0,1,.7,1.65A1.77,1.77,0,0,1,188.5,62a1.72,1.72,0,0,1-1.46.44A2.67,2.67,0,0,1,185.59,61.44Zm.57-.46a2.23,2.23,0,0,0,1,.82,1,1,0,0,0,.93-.23,1,1,0,0,0,.44-.87,2.24,2.24,0,0,0-.58-1.18,2.27,2.27,0,0,0-1-.8A1,1,0,0,0,186,59a1,1,0,0,0-.43.86A2.2,2.2,0,0,0,186.16,61Z"/><path class="cls-1" d="M179.94,62.27l.58-.31L183,64.34l-.66-3.4.56-.31,3,3.27-.64.35-2.23-2.53.68,3.38-.51.28L180.74,63l1,3.22-.62.34Z"/><path class="cls-1" d="M179.15,68l-.54-1.57-2.16.74-.22-.65,2.16-.75-.86-2.51.72-.24,1.85,5.38-3.27,1.12-.22-.65Z"/><path class="cls-1" d="M171.27,67a2.62,2.62,0,0,1,.16-1.76,1.76,1.76,0,0,1,1.28-.82,1.79,1.79,0,0,1,1.5.3,3.26,3.26,0,0,1,.62,3.38,1.75,1.75,0,0,1-1.29.81,1.71,1.71,0,0,1-1.49-.31A2.55,2.55,0,0,1,171.27,67Zm.72-.13a2.24,2.24,0,0,0,.51,1.21,1.17,1.17,0,0,0,1.73-.33,2.16,2.16,0,0,0,.05-1.3,2.2,2.2,0,0,0-.5-1.18,1,1,0,0,0-.95-.24,1,1,0,0,0-.79.55A2.14,2.14,0,0,0,172,66.91Z"/><path class="cls-1" d="M169.81,65l.49,6.1-.71.06-.49-6.11Z"/><path class="cls-1" d="M165.11,65.08l0,.43a2.27,2.27,0,0,1,.6-.38,1.64,1.64,0,0,1,.73-.13,1.37,1.37,0,0,1,1.18.62,3.41,3.41,0,0,1-.14,3.35,1.52,1.52,0,0,1-1.3.59A1.81,1.81,0,0,1,165,69l-.07,2.16-.72,0,.2-6.12ZM165,68.42a1.69,1.69,0,0,0,1.09.5.92.92,0,0,0,.8-.37,2.1,2.1,0,0,0,.35-1.26c0-1.09-.29-1.64-1-1.67a1.44,1.44,0,0,0-.65.15,2.78,2.78,0,0,0-.55.37Z"/><path class="cls-1" d="M162.32,66.86a1.91,1.91,0,0,0-.06-1.25,1.12,1.12,0,0,0-.86-.53.91.91,0,0,0-.52,0,1.26,1.26,0,0,0-.48.31l-.51-.47a1.87,1.87,0,0,1,.69-.45,2,2,0,0,1,1,0,1.81,1.81,0,0,1,1.32.81A2.64,2.64,0,0,1,163,67a2.8,2.8,0,0,1-.78,1.64,1.71,1.71,0,0,1-1.47.3,1.58,1.58,0,0,1-1.15-.7,2.21,2.21,0,0,1-.15-1.54l.08-.39Zm-2.18.16a1.54,1.54,0,0,0,.08.93.92.92,0,0,0,.7.46,1,1,0,0,0,.8-.15,1.8,1.8,0,0,0,.5-.86Z"/><path class="cls-1" d="M155.73,66.77a.83.83,0,0,0,.3.15,1.3,1.3,0,0,0,.62,0,2.68,2.68,0,0,0,.82-.3l.9-2.84.68.21-1.31,4.11-.68-.21.22-.67a4.93,4.93,0,0,1-.76.32,1.23,1.23,0,0,1-.76,0,.81.81,0,0,1-.38-.21Z"/><path class="cls-1" d="M152.74,67.31a2.55,2.55,0,0,1,.5-.78,2.06,2.06,0,0,1,.53-.44l.39.17a1.71,1.71,0,0,0-.43.4,2.18,2.18,0,0,0-.34.52.46.46,0,0,1,.28.24.65.65,0,0,1-.29.64.55.55,0,0,1-.4,0,.47.47,0,0,1-.3-.28A.6.6,0,0,1,152.74,67.31Z"/><path class="cls-1" d="M150.6,61.56a1.14,1.14,0,0,1,.84-.62,1.94,1.94,0,0,1,1.23.29,2.36,2.36,0,0,1,.74.65,1.4,1.4,0,0,1,.27.81l-.67,0a1.15,1.15,0,0,0-.65-1,1.17,1.17,0,0,0-.7-.19.57.57,0,0,0-.44.31.42.42,0,0,0-.07.3.64.64,0,0,0,.12.29,4,4,0,0,0,.51.55,2.18,2.18,0,0,1,.7,1,1.1,1.1,0,0,1-.13.87,1.12,1.12,0,0,1-.81.6,1.73,1.73,0,0,1-1.16-.25,1.94,1.94,0,0,1-.72-.66,1.43,1.43,0,0,1-.22-.74l.66,0a1.08,1.08,0,0,0,.59.92,1.1,1.1,0,0,0,.59.15.54.54,0,0,0,.46-.3.49.49,0,0,0,0-.48,3.15,3.15,0,0,0-.47-.54,4.55,4.55,0,0,1-.71-.8,1.09,1.09,0,0,1-.16-.56A1.21,1.21,0,0,1,150.6,61.56Z"/><path class="cls-1" d="M144.72,62l1.1-1.25-1.71-1.51.45-.52,1.72,1.51,1.75-2,.57.5L144.84,63l-2.59-2.28.46-.52Z"/><path class="cls-1" d="M141,58.93a.39.39,0,0,1,.32-.14.56.56,0,0,1,.31.2.46.46,0,0,1,.16.33.5.5,0,0,1-.16.29.45.45,0,0,1-.31.14.51.51,0,0,1-.31-.19.48.48,0,0,1-.17-.33A.38.38,0,0,1,141,58.93Zm4.52-3.08-3.16,2.94-.48-.52,3.16-2.94Z"/><path class="cls-1" d="M142.58,52.23l-2.05,1.51a4.07,4.07,0,0,0-.62.54.49.49,0,0,0-.12.34A.74.74,0,0,0,140,55a1.24,1.24,0,0,0,.54.39,4.93,4.93,0,0,0,.82.27l2.45-1.82.42.57L140.72,57l-.42-.57.52-.38a3.42,3.42,0,0,1-.85-.25,1.55,1.55,0,0,1-.66-.51,1.08,1.08,0,0,1-.26-.94,1.87,1.87,0,0,1,.79-.95l2.32-1.72Z"/><path class="cls-1" d="M139.48,51.19a1.92,1.92,0,0,0,.94-.83,1.11,1.11,0,0,0-.11-1A1,1,0,0,0,140,49a1.49,1.49,0,0,0-.54-.19l0-.68a1.85,1.85,0,0,1,.79.26,1.88,1.88,0,0,1,.62.76,1.78,1.78,0,0,1,.18,1.53,2.54,2.54,0,0,1-1.27,1.21,2.71,2.71,0,0,1-1.76.41,1.69,1.69,0,0,1-1.16-1A1.6,1.6,0,0,1,136.7,50a2.19,2.19,0,0,1,1.12-1.06l.35-.19ZM138,49.58a1.52,1.52,0,0,0-.68.64.89.89,0,0,0,.07.83,1,1,0,0,0,.62.53,1.68,1.68,0,0,0,1-.14Z"/><path class="cls-1" d="M137.55,44.5a1.13,1.13,0,0,1,1,.08,1.86,1.86,0,0,1,.74,1,2.09,2.09,0,0,1,.14,1,1.31,1.31,0,0,1-.32.79l-.52-.42a1.37,1.37,0,0,0-.28-1.76.58.58,0,0,0-.53,0,.48.48,0,0,0-.25.18.81.81,0,0,0-.1.31,5.74,5.74,0,0,0,0,.74,2.17,2.17,0,0,1-.09,1.19,1.12,1.12,0,0,1-.67.58,1.13,1.13,0,0,1-1-.08,1.69,1.69,0,0,1-.72-1,1.74,1.74,0,0,1-.11-1,1.4,1.4,0,0,1,.31-.71l.51.41a1.19,1.19,0,0,0,.21,1.58.54.54,0,0,0,.54.07.47.47,0,0,0,.32-.35,2.06,2.06,0,0,0,0-.71,4.29,4.29,0,0,1,0-1.08,1.09,1.09,0,0,1,.24-.52A1.25,1.25,0,0,1,137.55,44.5Z"/><path class="cls-1" d="M137.91,41.14a2.63,2.63,0,0,1,.32.76,1.17,1.17,0,0,1-.11,1,1.72,1.72,0,0,1-1,.54l-2.35.57.15.6-.58.14-.15-.6-1.16.29-.17-.69,1.17-.29-.26-1.06.57-.14.26,1.06,2.22-.54a1.75,1.75,0,0,0,.7-.28.44.44,0,0,0,.11-.5,1.35,1.35,0,0,0-.25-.54Z"/><path class="cls-1" d="M134.32,36.55a1,1,0,0,1,.76.26,1.05,1.05,0,0,1,.1,1.49,1.05,1.05,0,0,1-1.49.1,1,1,0,0,1-.36-.73,1,1,0,0,1,.26-.76A1,1,0,0,1,134.32,36.55Z"/><path class="cls-2" d="M158.4,34.6a5.66,5.66,0,0,1-.46,4.25A5.67,5.67,0,0,1,154.1,41l-2.47.5.92,4.61-3,.61-3-14.89,5.6-1.13a6,6,0,0,1,4.14.39A4.88,4.88,0,0,1,158.4,34.6Zm-3.12.65a2.27,2.27,0,0,0-1.06-1.68,4.33,4.33,0,0,0-2.62,0l-1.51.3,1,5,1.24-.25a8,8,0,0,0,2.26-.7,1.54,1.54,0,0,0,.75-1A4,4,0,0,0,155.28,35.25Z"/><path class="cls-2" d="M171.24,42.31l-7.57-9.54,2.15,10.63-3,.6-3-14.88,3.94-.8,7.06,9-2-10,3-.6,3,14.88Z"/><path class="cls-2" d="M178,41l-3-14.89,9.67-1.95.54,2.68-6.64,1.34.64,3.17,5.59-1.13.55,2.69L179.78,34l.72,3.57,6.64-1.34L187.7,39Z"/></g></g></svg>