<?xml version="1.0" encoding="utf-8"?>
<!-- Generator: Adobe Illustrator 22.1.0, SVG Export Plug-In . SVG Version: 6.00 Build 0)  -->
<svg version="1.1" id="Layer_1" xmlns="http://www.w3.org/2000/svg" xmlns:xlink="http://www.w3.org/1999/xlink" x="0px" y="0px"
	 viewBox="0 0 1920 1080" style="enable-background:new 0 0 1920 1080;" xml:space="preserve">
<style type="text/css">
	.st0{fill:#FFFFFF;}
	.st1{fill:none;stroke:#5B6670;stroke-width:0.5;stroke-linejoin:round;stroke-miterlimit:10;}
	.st2{fill:#E0E1E0;}
	.st3{fill:#AEADAD;}
	.st4{fill:#FFFFFF;stroke:#5B6670;stroke-width:0.5;stroke-linejoin:round;stroke-miterlimit:10;}
	.st5{fill:#AEADAD;stroke:#5B6670;stroke-width:0.5;stroke-linejoin:round;stroke-miterlimit:10;}
	.st6{fill:#E0E1E0;stroke:#5B6670;stroke-width:0.5;stroke-linejoin:round;stroke-miterlimit:10;}
	.st7{fill:#FFFFFF;stroke:#5B6670;stroke-width:0.5;stroke-miterlimit:10;}
</style>
<g>
	<g>
		<g>
			<path class="st0" d="M719.7,356.2l-104.4,40.4c0,0-0.1,0.1-0.1,0.1l-0.8,225.9c0,0,0,0.1,0.1,0l105.2-41.5c0,0,0.1-0.1,0.1-0.1
				v-70.6"/>
			<path class="st1" d="M719.7,356.2l-104.4,40.4c0,0-0.1,0.1-0.1,0.1l-0.8,225.9c0,0,0,0.1,0.1,0l105.2-41.5c0,0,0.1-0.1,0.1-0.1
				v-70.6"/>
		</g>
		<g>
			<path class="st0" d="M704.9,516.4l-0.2,46.2c0,0,0,0.1-0.1,0.1l-72.9,29.7c0,0-0.1,0-0.1,0l0.3-76.6c0,0,0-0.1,0.1-0.1l36.3-14.5
				"/>
			<path class="st1" d="M704.9,516.4l-0.2,46.2c0,0,0,0.1-0.1,0.1l-72.9,29.7c0,0-0.1,0-0.1,0l0.3-76.6c0,0,0-0.1,0.1-0.1l36.3-14.5
				"/>
		</g>
		<g>
			<path class="st0" d="M649.3,525c0-2.2,6.3-6.5,13.9-9.6l11.6-4.7c7.6-3.1,13.9-3.9,13.9-1.6s-6.3,6.6-13.9,9.7l-11.6,4.7
				C655.6,526.4,649.3,527.2,649.3,525z"/>
			<path class="st1" d="M649.3,525c0-2.2,6.3-6.5,13.9-9.6l11.6-4.7c7.6-3.1,13.9-3.9,13.9-1.6s-6.3,6.6-13.9,9.7l-11.6,4.7
				C655.6,526.4,649.3,527.2,649.3,525z"/>
		</g>
		<g>
			<path class="st2" d="M632.1,486l0.3-76.7c0,0,0-0.1,0.1-0.1l72.9-29.2c0,0,0.1,0,0.1,0l-0.3,76.2"/>
			<path class="st1" d="M632.1,486l0.3-76.7c0,0,0-0.1,0.1-0.1l72.9-29.2c0,0,0.1,0,0.1,0l-0.3,76.2"/>
		</g>
		<g>
			<path class="st3" d="M632.4,409.3C632.4,409.3,632.5,409.2,632.4,409.3l72.8,30.4c0,0,0.1,0.1,0.1,0.1l-0.3,76.6c0,0,0,0.1-0.1,0
				L632.2,486c0,0-0.1-0.1-0.1-0.1L632.4,409.3z"/>
			<path class="st1" d="M632.4,409.3C632.4,409.3,632.5,409.2,632.4,409.3l72.8,30.4c0,0,0.1,0.1,0.1,0.1l-0.3,76.6c0,0,0,0.1-0.1,0
				L632.2,486c0,0-0.1-0.1-0.1-0.1L632.4,409.3z"/>
		</g>
		<g>
			<path class="st0" d="M535.2,589.1c0,0,0,0.1,0.1,0.1l79.1,33.4c0,0,0.1,0,0.1,0l0.8-225.9c0,0,0-0.1-0.1-0.1l-79.9-32.5
				c0,0-0.1,0-0.1,0V589.1z"/>
			<path class="st1" d="M535.2,589.1c0,0,0,0.1,0.1,0.1l79.1,33.4c0,0,0.1,0,0.1,0l0.8-225.9c0,0,0-0.1-0.1-0.1l-79.9-32.5
				c0,0-0.1,0-0.1,0V589.1z"/>
		</g>
		<g>
			<path class="st0" d="M535.3,364.1C535.3,364,535.3,364,535.3,364.1l104.3-40.4c0,0,0.1,0,0.1,0l79.9,32.5c0,0,0,0,0,0.1
				l-104.3,40.4c0,0-0.1,0-0.1,0L535.3,364.1z"/>
			<path class="st1" d="M535.3,364.1C535.3,364,535.3,364,535.3,364.1l104.3-40.4c0,0,0.1,0,0.1,0l79.9,32.5c0,0,0,0,0,0.1
				l-104.3,40.4c0,0-0.1,0-0.1,0L535.3,364.1z"/>
		</g>
		<polyline class="st1" points="719.7,581.1 719.7,356.2 615.3,396.6 		"/>
		<g>
			<path class="st3" d="M705.2,456.2l0.3-76.2c0,0,0-0.1,0.1,0l72.7,30.4c0,0,0.1,0.1,0.1,0.1l-0.3,71.4"/>
			<path class="st1" d="M705.2,456.2l0.3-76.2c0,0,0-0.1,0.1,0l72.7,30.4c0,0,0.1,0.1,0.1,0.1l-0.3,71.4"/>
		</g>
		<g>
			<path class="st0" d="M705.3,439.8C705.3,439.7,705.3,439.7,705.3,439.8l73-29.3c0,0,0.1,0,0.1,0l-0.3,75.9c0,0,0,0.1-0.1,0.1
				L705,516.4c0,0-0.1,0-0.1,0L705.3,439.8z"/>
			<path class="st1" d="M705.3,439.8C705.3,439.7,705.3,439.7,705.3,439.8l73-29.3c0,0,0.1,0,0.1,0l-0.3,75.9c0,0,0,0.1-0.1,0.1
				L705,516.4c0,0-0.1,0-0.1,0L705.3,439.8z"/>
		</g>
		<g>
			<path class="st0" d="M723.8,445.6c0-2.2,6.3-6.5,13.9-9.6l11.6-4.7c7.6-3.1,13.9-3.9,13.9-1.6c0,2.2-6.3,6.6-13.9,9.7l-11.6,4.7
				C730.1,447,723.8,447.8,723.8,445.6z"/>
			<path class="st1" d="M723.8,445.6c0-2.2,6.3-6.5,13.9-9.6l11.6-4.7c7.6-3.1,13.9-3.9,13.9-1.6c0,2.2-6.3,6.6-13.9,9.7l-11.6,4.7
				C730.1,447,723.8,447.8,723.8,445.6z"/>
		</g>
		<g>
			<path class="st0" d="M557,621.8l-45.6,18c0,0-0.1,0-0.1,0l0.8-225.9c0,0,0-0.1,0.1-0.1l104.3-40.4c0,0,0.1,0,0.1,0l-0.5,136.4"/>
			<path class="st1" d="M557,621.8l-45.6,18c0,0-0.1,0-0.1,0l0.8-225.9c0,0,0-0.1,0.1-0.1l104.3-40.4c0,0,0.1,0,0.1,0l-0.5,136.4"/>
		</g>
		<g>
			<path class="st3" d="M432.1,606.3c0,0,0,0.1,0.1,0.1l79.1,33.4c0,0,0.1,0,0.1,0l0.8-225.9c0,0,0-0.1-0.1-0.1l-79.9-32.5
				c0,0-0.1,0-0.1,0V606.3z"/>
			<path class="st1" d="M432.1,606.3c0,0,0,0.1,0.1,0.1l79.1,33.4c0,0,0.1,0,0.1,0l0.8-225.9c0,0,0-0.1-0.1-0.1l-79.9-32.5
				c0,0-0.1,0-0.1,0V606.3z"/>
		</g>
		<g>
			<path class="st0" d="M528.7,426.8C528.7,426.7,528.7,426.7,528.7,426.8l73-29.3c0,0,0.1,0,0.1,0l-0.3,76.1c0,0,0,0.1-0.1,0.1
				l-72.9,29.7c0,0-0.1,0-0.1,0L528.7,426.8z"/>
			<path class="st1" d="M528.7,426.8C528.7,426.7,528.7,426.7,528.7,426.8l73-29.3c0,0,0.1,0,0.1,0l-0.3,76.1c0,0,0,0.1-0.1,0.1
				l-72.9,29.7c0,0-0.1,0-0.1,0L528.7,426.8z"/>
		</g>
		<g>
			<path class="st3" d="M601.1,579.9l0.3-76.2c0,0,0-0.1,0.1,0l72.7,30.4c0,0,0.1,0.1,0.1,0.1l-0.3,71.4"/>
			<path class="st1" d="M601.1,579.9l0.3-76.2c0,0,0-0.1,0.1,0l72.7,30.4c0,0,0.1,0.1,0.1,0.1l-0.3,71.4"/>
		</g>
		<g>
			<path class="st2" d="M528,609.6l0.3-76.7c0,0,0-0.1,0.1-0.1l72.9-29.2c0,0,0.1,0,0.1,0l-0.3,76.2"/>
			<path class="st1" d="M528,609.6l0.3-76.7c0,0,0-0.1,0.1-0.1l72.9-29.2c0,0,0.1,0,0.1,0l-0.3,76.2"/>
		</g>
		<g>
			<path class="st0" d="M601.1,563.5C601.1,563.4,601.2,563.4,601.1,563.5l73-29.3c0,0,0.1,0,0.1,0l-0.3,75.9c0,0,0,0.1-0.1,0.1
				l-72.9,29.9c0,0-0.1,0-0.1,0L601.1,563.5z"/>
			<path class="st1" d="M601.1,563.5C601.1,563.4,601.2,563.4,601.1,563.5l73-29.3c0,0,0.1,0,0.1,0l-0.3,75.9c0,0,0,0.1-0.1,0.1
				l-72.9,29.9c0,0-0.1,0-0.1,0L601.1,563.5z"/>
		</g>
		<g>
			<path class="st3" d="M528.3,533C528.3,533,528.3,532.9,528.3,533l72.8,30.4c0,0,0.1,0.1,0.1,0.1l-0.3,76.6c0,0,0,0.1-0.1,0
				l-72.7-30.4c0,0-0.1-0.1-0.1-0.1L528.3,533z"/>
			<path class="st1" d="M528.3,533C528.3,533,528.3,532.9,528.3,533l72.8,30.4c0,0,0.1,0.1,0.1,0.1l-0.3,76.6c0,0,0,0.1-0.1,0
				l-72.7-30.4c0,0-0.1-0.1-0.1-0.1L528.3,533z"/>
		</g>
		<g>
			<path class="st0" d="M546,436c0-2.2,6.3-6.5,13.9-9.6l11.6-4.7c7.6-3.1,13.9-3.9,13.9-1.6c0,2.2-6.3,6.6-13.9,9.7l-11.6,4.7
				C552.3,437.4,546,438.2,546,436z"/>
			<path class="st1" d="M546,436c0-2.2,6.3-6.5,13.9-9.6l11.6-4.7c7.6-3.1,13.9-3.9,13.9-1.6c0,2.2-6.3,6.6-13.9,9.7l-11.6,4.7
				C552.3,437.4,546,438.2,546,436z"/>
		</g>
		<g>
			<path class="st0" d="M619.7,569.3c0-2.2,6.3-6.5,13.9-9.6l11.6-4.7c7.6-3.1,13.9-3.9,13.9-1.6c0,2.2-6.3,6.6-13.9,9.7l-11.6,4.7
				C625.9,570.7,619.7,571.5,619.7,569.3z"/>
			<path class="st1" d="M619.7,569.3c0-2.2,6.3-6.5,13.9-9.6l11.6-4.7c7.6-3.1,13.9-3.9,13.9-1.6c0,2.2-6.3,6.6-13.9,9.7l-11.6,4.7
				C625.9,570.7,619.7,571.5,619.7,569.3z"/>
		</g>
		<g>
			<path class="st0" d="M432.2,381.2C432.1,381.2,432.1,381.2,432.2,381.2l104.3-40.4c0,0,0.1,0,0.1,0l79.9,32.5c0,0,0,0,0,0.1
				l-104.3,40.4c0,0-0.1,0-0.1,0L432.2,381.2z"/>
			<path class="st1" d="M432.2,381.2C432.1,381.2,432.1,381.2,432.2,381.2l104.3-40.4c0,0,0.1,0,0.1,0l79.9,32.5c0,0,0,0,0,0.1
				l-104.3,40.4c0,0-0.1,0-0.1,0L432.2,381.2z"/>
		</g>
		<g>
			<path class="st0" d="M511.5,435.8l-104.4,40.4c0,0-0.1,0.1-0.1,0.1l-0.8,225.9c0,0,0,0.1,0.1,0l105.2-41.5c0,0,0.1-0.1,0.1-0.1
				V590"/>
			<path class="st1" d="M511.5,435.8l-104.4,40.4c0,0-0.1,0.1-0.1,0.1l-0.8,225.9c0,0,0,0.1,0.1,0l105.2-41.5c0,0,0.1-0.1,0.1-0.1
				V590"/>
		</g>
		<g>
			<path class="st0" d="M496.7,596l-0.2,46.2c0,0,0,0.1-0.1,0.1L423.5,672c0,0-0.1,0-0.1,0l0.3-76.6c0,0,0-0.1,0.1-0.1l36.3-14.5"/>
			<path class="st1" d="M496.7,596l-0.2,46.2c0,0,0,0.1-0.1,0.1L423.5,672c0,0-0.1,0-0.1,0l0.3-76.6c0,0,0-0.1,0.1-0.1l36.3-14.5"/>
		</g>
		<g>
			<path class="st0" d="M441.1,604.6c0-2.2,6.3-6.5,13.9-9.6l11.6-4.7c7.6-3.1,13.9-3.9,13.9-1.6c0,2.2-6.3,6.6-13.9,9.7l-11.6,4.7
				C447.3,606,441.1,606.8,441.1,604.6z"/>
			<path class="st1" d="M441.1,604.6c0-2.2,6.3-6.5,13.9-9.6l11.6-4.7c7.6-3.1,13.9-3.9,13.9-1.6c0,2.2-6.3,6.6-13.9,9.7l-11.6,4.7
				C447.3,606,441.1,606.8,441.1,604.6z"/>
		</g>
		<g>
			<path class="st2" d="M423.9,565.6l0.3-76.7c0,0,0-0.1,0.1-0.1l72.9-29.2c0,0,0.1,0,0.1,0l-0.3,76.2"/>
			<path class="st1" d="M423.9,565.6l0.3-76.7c0,0,0-0.1,0.1-0.1l72.9-29.2c0,0,0.1,0,0.1,0l-0.3,76.2"/>
		</g>
		<g>
			<path class="st3" d="M424.2,488.9C424.2,488.9,424.2,488.9,424.2,488.9l72.8,30.4c0,0,0.1,0.1,0.1,0.1l-0.3,76.6c0,0,0,0.1-0.1,0
				L424,565.6c0,0-0.1-0.1-0.1-0.1L424.2,488.9z"/>
			<path class="st1" d="M424.2,488.9C424.2,488.9,424.2,488.9,424.2,488.9l72.8,30.4c0,0,0.1,0.1,0.1,0.1l-0.3,76.6c0,0,0,0.1-0.1,0
				L424,565.6c0,0-0.1-0.1-0.1-0.1L424.2,488.9z"/>
		</g>
		<g>
			<path class="st3" d="M327,668.7c0,0,0,0.1,0.1,0.1l79.1,33.4c0,0,0.1,0,0.1,0l0.8-225.9c0,0,0-0.1-0.1-0.1l-79.9-32.5
				c0,0-0.1,0-0.1,0V668.7z"/>
			<path class="st1" d="M327,668.7c0,0,0,0.1,0.1,0.1l79.1,33.4c0,0,0.1,0,0.1,0l0.8-225.9c0,0,0-0.1-0.1-0.1l-79.9-32.5
				c0,0-0.1,0-0.1,0V668.7z"/>
		</g>
		<g>
			<path class="st0" d="M327.1,443.7C327,443.7,327,443.6,327.1,443.7l104.3-40.4c0,0,0.1,0,0.1,0l79.9,32.5c0,0,0,0,0,0.1
				l-104.3,40.4c0,0-0.1,0-0.1,0L327.1,443.7z"/>
			<path class="st1" d="M327.1,443.7C327,443.7,327,443.6,327.1,443.7l104.3-40.4c0,0,0.1,0,0.1,0l79.9,32.5c0,0,0,0,0,0.1
				l-104.3,40.4c0,0-0.1,0-0.1,0L327.1,443.7z"/>
		</g>
		<line class="st4" x1="512.1" y1="413.8" x2="511.5" y2="660.7"/>
		<g>
			<path class="st3" d="M496.9,535.8l0.3-76.2c0,0,0-0.1,0.1,0L570,490c0,0,0.1,0.1,0.1,0.1l-0.3,71.4"/>
			<path class="st1" d="M496.9,535.8l0.3-76.2c0,0,0-0.1,0.1,0L570,490c0,0,0.1,0.1,0.1,0.1l-0.3,71.4"/>
		</g>
		<g>
			<path class="st0" d="M497,519.4C497,519.3,497,519.3,497,519.4l73-29.3c0,0,0.1,0,0.1,0l-0.3,75.9c0,0,0,0.1-0.1,0.1L496.8,596
				c0,0-0.1,0-0.1,0L497,519.4z"/>
			<path class="st1" d="M497,519.4C497,519.3,497,519.3,497,519.4l73-29.3c0,0,0.1,0,0.1,0l-0.3,75.9c0,0,0,0.1-0.1,0.1L496.8,596
				c0,0-0.1,0-0.1,0L497,519.4z"/>
		</g>
		<g>
			<path class="st0" d="M515.6,525.2c0-2.2,6.3-6.5,13.9-9.6l11.6-4.7c7.6-3.1,13.9-3.9,13.9-1.6s-6.3,6.6-13.9,9.7l-11.6,4.7
				C521.8,526.7,515.6,527.4,515.6,525.2z"/>
			<path class="st1" d="M515.6,525.2c0-2.2,6.3-6.5,13.9-9.6l11.6-4.7c7.6-3.1,13.9-3.9,13.9-1.6s-6.3,6.6-13.9,9.7l-11.6,4.7
				C521.8,526.7,515.6,527.4,515.6,525.2z"/>
		</g>
	</g>
	<g>
		<polygon class="st5" points="925.2,443.8 925.2,473.1 865.7,473.1 865.7,540 872.7,546.4 925.2,540 925.2,569.4 932.3,575.7 
			952.1,466.8 		"/>
		<polygon class="st4" points="932.3,575.7 1006.7,512.9 932.3,450.1 932.3,479.4 872.7,479.4 872.7,546.4 932.3,546.4 		"/>
		<polygon class="st6" points="872.7,479.4 865.7,473.1 925.2,473.1 932.3,479.4 		"/>
	</g>
	<path class="st4" d="M1394.1,561.9h-284.9c-8.4,0-15.2-6.8-15.2-15.2V373c0-8.4,6.8-15.2,15.2-15.2h284.9c8.4,0,15.2,6.8,15.2,15.2
		v173.7C1409.4,555.1,1402.6,561.9,1394.1,561.9z"/>
	<line class="st4" x1="1094" y1="524.7" x2="1409.4" y2="524.7"/>
	<circle class="st4" cx="1251.7" cy="542.6" r="10.7"/>
	<g>
		<line class="st4" x1="1221.4" y1="453.7" x2="1257.9" y2="417.1"/>
		<line class="st4" x1="1221.4" y1="477.8" x2="1282" y2="417.1"/>
		<line class="st4" x1="1245.4" y1="477.8" x2="1282" y2="441.2"/>
	</g>
	<path class="st4" d="M1251.7,606.3h41.7c0,0-11.4-24.1-11.4-44.3h-60.7c0,20.2-11.4,44.3-11.4,44.3H1251.7z"/>
	<rect x="1112.4" y="375.8" class="st6" width="278.5" height="148.8"/>
	<g>
		<path class="st4" d="M1325.3,613.1V502.9c0-13.8,12.5-25.1,28-25.1h183.9c15.5,0,28,11.2,28,25.1v110.2H1325.3z"/>
		<polygon class="st4" points="1565.2,613.1 1325.3,613.1 1297.1,659.6 1593.3,659.6 		"/>
		<polygon class="st4" points="1310.2,652.2 1329.4,620.4 1561,620.4 1580.3,652.2 		"/>
		<polygon class="st5" points="1593.3,659.6 1584.8,668.1 1457.2,668 1305.5,668 1297.1,659.6 		"/>
		<rect x="1339.1" y="496.1" class="st6" width="212.3" height="105.5"/>
		<circle class="st4" cx="1445.2" cy="487.2" r="3.2"/>
		<line class="st4" x1="1507" y1="620.4" x2="1514.2" y2="652.2"/>
		<line class="st4" x1="1520.6" y1="620.4" x2="1529.5" y2="652.2"/>
		<line class="st4" x1="1534.2" y1="620.4" x2="1545.8" y2="652.2"/>
		<line class="st4" x1="1547.8" y1="620.4" x2="1562.7" y2="652.2"/>
		<line class="st4" x1="1508" y1="625.8" x2="1564.3" y2="625.8"/>
		<line class="st4" x1="1511.8" y1="641.4" x2="1573.5" y2="641.4"/>
		<line class="st4" x1="1509.8" y1="632.6" x2="1568.4" y2="632.6"/>
	</g>
	<path class="st3" d="M1220,575.5c1.4-11.3,1.4-13.6,1.4-13.6h60.7c0,0-0.7,0.5,0.5,7.6L1220,575.5z"/>
	<path class="st1" d="M1251.7,606.3h41.7c0,0-11.4-24.1-11.4-44.3h-60.7c0,20.2-11.4,44.3-11.4,44.3H1251.7z"/>
	<path class="st4" d="M1335.1,448.2C1335.1,448.2,1335.1,448.2,1335.1,448.2c0-2.6-2.1-4.7-4.7-4.7c-1.7,0-3.1,0.9-4,2.2
		c-1.1-2.5-3.7-4.3-6.7-4.3c-1.9,0-3.7,0.7-5,1.9c-1.8-1.4-4-2.2-6.4-2.2c-1.4,0-2.7,0.3-3.9,0.7c-1.9-2.6-5-4.3-8.4-4.3
		c-2.3,0-4.5,0.8-6.2,2c-2.6-3.4-6.6-5.5-11.1-5.5c-5.5,0-10.3,3.2-12.6,7.9c-0.4-0.1-0.7-0.1-1.1-0.1c-2.2,0-4.2,1.2-5.3,2.9
		c-0.8-0.8-2-1.4-3.3-1.4c-2.6,0-4.7,2.1-4.7,4.7c0,0,0,0,0,0H1335.1z"/>
	<g>
		<path class="st7" d="M1312.1,464.7c-1.9-3.9-5.9-6.5-10.5-6.5c-1.3,0-2.5,0.2-3.6,0.6c-5.8-11.9-18-20.1-32.1-20.1
			c-5,0-9.8,1-14.1,2.9c-4.6-6.5-12.2-10.7-20.7-10.7c-12.2,0-22.4,8.6-24.9,20.1c-2.8-2-6.2-3.1-9.8-3.1c-6.4,0-11.9,3.5-14.8,8.8
			c-1.6-1.1-3.6-1.8-5.7-1.8c-5.5,0-10,4.5-10,10c0,0,0,0,0,0H1312.1z"/>
		<path class="st7" d="M1345.5,475.1c0-4.8-3.9-8.8-8.8-8.8c-3.1,0-5.8,1.6-7.4,4.1c-1.8-4.5-6.3-7.7-11.5-7.7c-1.4,0-2.7,0.2-4,0.7
			c-3.5-4.6-9.1-7.6-15.4-7.6c-5.7,0-10.8,2.5-14.4,6.4c-1-0.2-2.1-0.4-3.1-0.4c-5.9,0-10.8,3.8-12.6,9c-1.1-1.2-2.7-1.9-4.5-1.9
			c-3.4,0-6.2,2.8-6.2,6.2H1345.5z"/>
		<path class="st7" d="M1232.7,441.5c-1.2-3.2-4.3-5.4-7.8-5.4c-1.2,0-2.4,0.3-3.5,0.8c-2.1-2-4.8-3.2-7.9-3.2c-0.7,0-1.3,0.1-2,0.2
			c-2.7-5-8-8.4-14.1-8.4c-4.4,0-8.4,1.8-11.3,4.7c0,0,0,0-0.1,0c-3.4,0-6.4,1.5-8.5,3.8c-1.3-0.8-2.9-1.3-4.6-1.3
			c-3.1,0-5.8,1.6-7.4,3.9c-0.7-0.3-1.4-0.5-2.2-0.5c-3,0-5.4,2.4-5.4,5.4H1232.7z"/>
	</g>
	<g>
		<path class="st7" d="M1378.5,554.6c0-7.4,6-13.3,13.3-13.3c4.7,0,8.9,2.5,11.3,6.2c2.8-6.9,9.6-11.7,17.4-11.7c2.1,0,4.1,0.4,6,1
			c5.4-7,13.9-11.6,23.4-11.6c8.7,0,16.5,3.8,21.9,9.8c1.5-0.4,3.1-0.6,4.8-0.6c8.9,0,16.5,5.8,19.2,13.7c1.7-1.8,4.1-2.9,6.8-2.9
			c5.2,0,9.4,4.2,9.4,9.4H1378.5z"/>
		<path class="st7" d="M1426.3,566.1c1-2,3.1-3.5,5.6-3.5c0.7,0,1.3,0.1,1.9,0.3c3-6.3,9.5-10.6,16.9-10.6c2.6,0,5.2,0.5,7.4,1.5
			c2.4-3.4,6.4-5.7,10.9-5.7c6.5,0,11.8,4.6,13.1,10.6c1.5-1,3.3-1.7,5.2-1.7c3.4,0,6.3,1.9,7.8,4.6c0.9-0.6,1.9-0.9,3-0.9
			c2.9,0,5.3,2.4,5.3,5.3c0,0,0,0,0,0H1426.3z"/>
		<path class="st7" d="M1455.8,572.5c-1-2.5-3.4-4.3-6.2-4.3c-1,0-1.9,0.2-2.7,0.6c-1.6-1.6-3.8-2.5-6.2-2.5c-0.5,0-1,0.1-1.5,0.1
			c-2.1-3.9-6.3-6.6-11.1-6.6c-3.5,0-6.6,1.4-8.9,3.7c0,0,0,0-0.1,0c-2.7,0-5.1,1.2-6.7,3c-1.1-0.7-2.3-1-3.6-1
			c-2.4,0-4.5,1.2-5.8,3.1c-0.5-0.2-1.1-0.4-1.7-0.4c-2.3,0-4.3,1.9-4.3,4.3H1455.8z"/>
	</g>
</g>
</svg>
