<?xml version="1.0" encoding="utf-8"?>
<!-- Generator: Adobe Illustrator 22.1.0, SVG Export Plug-In . SVG Version: 6.00 Build 0)  -->
<svg version="1.1" id="Layer_1" xmlns="http://www.w3.org/2000/svg" xmlns:xlink="http://www.w3.org/1999/xlink" x="0px" y="0px"
	 viewBox="0 0 323 708" style="enable-background:new 0 0 323 708;" xml:space="preserve">
<style type="text/css">
	.st0{fill:#FFFFFF;stroke:#808080;stroke-width:0.5;stroke-linecap:round;stroke-linejoin:round;stroke-miterlimit:10;}
</style>
<polygon class="st0" points="16.2,690.6 16.2,16 308.4,16 308.4,689 "/>
<polyline class="st0" points="47.7,207.3 39.7,207.3 39.7,39.1 284.8,39.1 284.8,207.3 127.5,207.3 "/>
<path class="st0" d="M46.5,245.7v-35.2c0-2.6,2.1-4.8,4.8-4.8h73.9c2.6,0,4.8,2.1,4.8,4.8V224h135.1c6.4,0,11.7,4.5,13,10.4"/>
<path class="st0" d="M186.2,67.1h-47.8c-2.1,0-3.8-1.7-3.8-3.8v-4.8c0-2.1,1.7-3.8,3.8-3.8h47.8c2.1,0,3.8,1.7,3.8,3.8v4.8
	C190,65.4,188.3,67.1,186.2,67.1z"/>
<polyline class="st0" points="47.7,664.2 39.7,664.2 39.7,495.9 284.8,495.9 284.8,664.2 127.5,664.2 "/>
<path class="st0" d="M27.8,251.8v-32.5c0-3.1,2.5-5.6,5.6-5.6h85.9c3.1,0,5.6,2.5,5.6,5.6V235h157c6.9,0,12.7,4.5,14.7,10.6"/>
</svg>
