<svg id="Layer_1" xmlns="http://www.w3.org/2000/svg" viewBox="0 0 32 39">
  <style>
    .st0{fill:#5b6670}
  </style>
  <path class="st0" d="M12.9 16.9v-1.5c0-.3-.2-.5-.5-.5H5.1c-.3 0-.5.2-.5.5v2c.4-.3.9-.5 1.4-.5h6.9z"/>
  <path class="st0" d="M24.6 16.8h-3.3v-3.9c0-2-1.6-3.6-3.6-3.6H15c-2 0-3.6 1.6-3.6 3.6v1.3H8v-1.3C8 9.1 11.1 6 14.9 6h2.7c3.8 0 6.9 3.1 6.9 6.9v3.9h.1zM26.3 17.5H6c-.7 0-1.3.6-1.3 1.3v13.8c0 .8.5 1.4 1.3 1.4h20.3c.7 0 1.3-.6 1.3-1.3V18.8c0-.7-.6-1.3-1.3-1.3zM17 26.1v3.2h-1.4v-3.2c-.7-.3-1.2-1-1.2-1.8a1.9 1.9 0 1 1 3.8 0c.1.8-.4 1.5-1.2 1.8z"/>
</svg>
