<?xml version="1.0" encoding="utf-8"?>
<!-- Generator: Adobe Illustrator 22.1.0, SVG Export Plug-In . SVG Version: 6.00 Build 0)  -->
<svg version="1.1" id="Layer_1" xmlns="http://www.w3.org/2000/svg" xmlns:xlink="http://www.w3.org/1999/xlink" x="0px" y="0px"
	 viewBox="0 0 577 698" style="enable-background:new 0 0 577 698;" xml:space="preserve">
<style type="text/css">
	.st0{fill:#FFC629;}
	.st1{fill:#FFFFFF;stroke:#808080;stroke-width:0.5;stroke-linejoin:round;stroke-miterlimit:10;}
	.st2{fill:none;stroke:#808080;stroke-width:0.5;stroke-linejoin:round;stroke-miterlimit:10;}
</style>
<path class="st0" d="M458.4,41.3c-0.9-12.5-11.8-22-24.3-21.1L203.5,36.7l-1.6-23.1c-0.3-4.5-4.2-7.9-8.8-7.6L67,15
	c-4.5,0.3-7.9,4.2-7.6,8.8l3.9,54.7l2.1,29.6l39.9,560c0.9,12.5,11.8,22,24.3,21.1l111.8-8l-0.1,0.1l238.6-17
	c12.5-0.9,22-11.8,21.1-24.3l-8.5-119.9l0,0L458.4,41.3z"/>
<g>
	
		<rect x="266.4" y="64.8" transform="matrix(8.374104e-02 -0.9965 0.9965 8.374104e-02 133.4797 601.2131)" class="st1" width="254.5" height="326.4"/>
	<g>
		<line class="st2" x1="516.7" y1="137.9" x2="500" y2="337.4"/>
		<line class="st2" x1="495.9" y1="136.2" x2="480.7" y2="316.6"/>
		<line class="st2" x1="475" y1="134.4" x2="464.4" y2="261.1"/>
		<line class="st2" x1="454.2" y1="132.6" x2="437.4" y2="332.2"/>
		<line class="st2" x1="433.3" y1="130.9" x2="416.6" y2="330.4"/>
		<line class="st2" x1="412.5" y1="129.1" x2="396.8" y2="315.7"/>
		<line class="st2" x1="391.6" y1="127.4" x2="374.8" y2="326.9"/>
		<line class="st2" x1="370.7" y1="125.6" x2="354" y2="325.1"/>
		<line class="st2" x1="349.9" y1="123.9" x2="335.8" y2="291"/>
		<line class="st2" x1="329" y1="122.1" x2="312.3" y2="321.6"/>
		<line class="st2" x1="308.2" y1="120.4" x2="293" y2="300.8"/>
		<line class="st2" x1="287.3" y1="118.6" x2="278.9" y2="218.4"/>
	</g>
</g>
<g>
	
		<rect x="46.6" y="280.5" transform="matrix(0.895 -0.446 0.446 0.895 -159.8141 136.3748)" class="st1" width="326.4" height="254.5"/>
	<g>
		<line class="st2" x1="151.4" y1="548.6" x2="62.2" y2="369.4"/>
		<line class="st2" x1="170.2" y1="539.3" x2="89.4" y2="377.2"/>
		<line class="st2" x1="188.9" y1="530" x2="132.2" y2="416.2"/>
		<line class="st2" x1="207.6" y1="520.6" x2="118.4" y2="341.4"/>
		<line class="st2" x1="226.4" y1="511.3" x2="137.1" y2="332.1"/>
		<line class="st2" x1="245.1" y1="502" x2="161.6" y2="334.4"/>
		<line class="st2" x1="263.8" y1="492.6" x2="174.6" y2="313.4"/>
		<line class="st2" x1="282.6" y1="483.3" x2="193.3" y2="304.1"/>
		<line class="st2" x1="301.3" y1="474" x2="226.5" y2="323.8"/>
		<line class="st2" x1="320.1" y1="464.6" x2="230.8" y2="285.4"/>
		<line class="st2" x1="338.8" y1="455.3" x2="258" y2="293.2"/>
		<line class="st2" x1="357.5" y1="446" x2="312.9" y2="356.4"/>
	</g>
</g>
</svg>
