<?xml version="1.0" encoding="utf-8"?>
<!-- Generator: Adobe Illustrator 22.1.0, SVG Export Plug-In . SVG Version: 6.00 Build 0)  -->
<svg version="1.1" id="Layer_1" xmlns="http://www.w3.org/2000/svg" xmlns:xlink="http://www.w3.org/1999/xlink" x="0px" y="0px"
	 viewBox="0 0 562 768" style="enable-background:new 0 0 562 768;" xml:space="preserve">
<style type="text/css">
	.st0{fill:none;stroke:#818181;stroke-width:0.2547;stroke-miterlimit:10;}
	.st1{fill:none;stroke:#818181;stroke-width:0.2547;stroke-linejoin:round;stroke-miterlimit:10;}
</style>
<g>
	<line class="st0" x1="42.9" y1="227.5" x2="42.9" y2="489"/>
	<line class="st0" x1="25.8" y1="289" x2="25.8" y2="528.8"/>
	<path class="st0" d="M8.7,603.7V493.9c0-57.7,17.1-33.5,17.1-96.8"/>
	<line class="st0" x1="60" y1="352.9" x2="60" y2="556.5"/>
	<circle class="st1" cx="8.7" cy="610.4" r="6.7"/>
	<circle class="st1" cx="8.7" cy="185.5" r="6.7"/>
	<circle class="st1" cx="42.9" cy="220.9" r="6.7"/>
	<circle class="st1" cx="60" cy="249.4" r="6.7"/>
	<circle class="st1" cx="60" cy="346.2" r="6.7"/>
	<circle class="st1" cx="25.8" cy="535.5" r="6.7"/>
	<circle class="st1" cx="42.9" cy="495.5" r="6.7"/>
	<circle class="st1" cx="60" cy="563.2" r="6.7"/>
	<path class="st0" d="M25.8,289c0-57.7-17.1-33.5-17.1-96.8"/>
	<path class="st0" d="M60,511.3c0-57.7-17.1-33.5-17.1-96.8"/>
	<path class="st0" d="M42.9,352.9c0-57.7,17.1-33.5,17.1-96.8"/>
	<path class="st0" d="M128.3,107.4v231.9l-0.3,30.5c0,60.3,17.9,35,17.9,101.3"/>
	<line class="st0" x1="111.2" y1="264.6" x2="111.2" y2="17.2"/>
	<line class="st0" x1="94.1" y1="304.2" x2="94.1" y2="144.6"/>
	<circle class="st1" cx="111.2" cy="271.2" r="6.7"/>
	<circle class="st1" cx="94.1" cy="310.9" r="6.7"/>
	<circle class="st1" cx="94.1" cy="138" r="6.7"/>
	<circle class="st1" cx="111.2" cy="10.5" r="6.7"/>
	<circle class="st1" cx="128.3" cy="100.8" r="6.7"/>
	<circle class="st1" cx="128.3" cy="32.2" r="6.7"/>
	<path class="st0" d="M94.1,175c0,57.7-17.1,33.5-17.1,96.8l0,38.7v31.6c0,63.4-17.1,39.2-17.1,96.8"/>
	<path class="st0" d="M128.3,38.9c0,57.7-17.1,33.5-17.1,96.8"/>
	<path class="st0" d="M94.1,155.2c0,57.7,17.1,33.5,17.1,96.8"/>
	<path class="st0" d="M111.2,131.3c0,57.7,17.1,33.5,17.1,96.8"/>
	<line class="st0" x1="250.5" y1="156.6" x2="250.5" y2="456.6"/>
	<line class="st0" x1="233.4" y1="125.7" x2="233.4" y2="365.5"/>
	<path class="st0" d="M216.3,322.2v-99.6c0-57.7,17.1-33.5,17.1-96.8"/>
	<line class="st0" x1="267.6" y1="93.3" x2="267.6" y2="296.9"/>
	<circle class="st1" cx="233.4" cy="119" r="6.7"/>
	<circle class="st1" cx="267.6" cy="86" r="6.7"/>
	<circle class="st1" cx="250.5" cy="150" r="6.7"/>
	<circle class="st1" cx="267.6" cy="424.9" r="6.7"/>
	<circle class="st1" cx="216.3" cy="328.8" r="6.7"/>
	<circle class="st1" cx="233.4" cy="372.2" r="6.7"/>
	<circle class="st1" cx="250.5" cy="463.1" r="6.7"/>
	<circle class="st1" cx="267.6" cy="304.2" r="6.7"/>
	<path class="st0" d="M267.6,418.2c0-57.7-17.1-33.5-17.1-96.8"/>
	<path class="st0" d="M250.5,265.3c0-57.7-17.1-33.5-17.1-96.8"/>
	<path class="st0" d="M216.3,251.2c0,63.4-17.1,39.2-17.1,96.8l0.3,95.4c0,60.3-17.9,35-17.9,101.3"/>
	<path class="st0" d="M250.5,319c0-57.7,17.1-33.5,17.1-96.8"/>
	<line class="st0" x1="145.9" y1="643.6" x2="145.9" y2="329.7"/>
	<line class="st0" x1="163.7" y1="675.9" x2="163.7" y2="425"/>
	<path class="st0" d="M181.6,470.4v104.2c0,60.3-17.9,35-17.9,101.3"/>
	<line class="st0" x1="128" y1="709.9" x2="128" y2="496.8"/>
	<circle class="st1" cx="163.7" cy="682.9" r="7"/>
	<circle class="st1" cx="128" cy="717.4" r="7"/>
	<circle class="st1" cx="145.9" cy="650.5" r="7"/>
	<circle class="st1" cx="181.6" cy="463.4" r="7"/>
	<circle class="st1" cx="163.7" cy="418.1" r="7"/>
	<circle class="st1" cx="145.9" cy="322.9" r="7"/>
	<circle class="st1" cx="128" cy="489.2" r="7"/>
	<path class="st0" d="M145.9,529.9c0,60.3,17.9,35,17.9,101.3"/>
	<path class="st0" d="M145.9,473.7c0,60.3-17.9,35-17.9,101.3"/>
</g>
<g>
	<line class="st0" x1="329.1" y1="268.3" x2="329.1" y2="529.8"/>
	<line class="st0" x1="312" y1="329.8" x2="312" y2="569.6"/>
	<path class="st0" d="M294.9,644.5V534.6c0-57.7,17.1-33.5,17.1-96.8"/>
	<line class="st0" x1="346.1" y1="393.6" x2="346.1" y2="597.3"/>
	<circle class="st1" cx="294.9" cy="651.2" r="6.7"/>
	<circle class="st1" cx="294.9" cy="226.3" r="6.7"/>
	<circle class="st1" cx="329.1" cy="261.6" r="6.7"/>
	<circle class="st1" cx="346.1" cy="290.1" r="6.7"/>
	<circle class="st1" cx="346.1" cy="387" r="6.7"/>
	<circle class="st1" cx="312" cy="576.3" r="6.7"/>
	<circle class="st1" cx="329.1" cy="536.3" r="6.7"/>
	<circle class="st1" cx="346.1" cy="604" r="6.7"/>
	<path class="st0" d="M312,329.8c0-57.7-17.1-33.5-17.1-96.8"/>
	<path class="st0" d="M346.1,552.1c0-57.7-17.1-33.5-17.1-96.8"/>
	<path class="st0" d="M329.1,393.6c0-57.7,17.1-33.5,17.1-96.8"/>
	<path class="st0" d="M414.5,148.2v231.9l-0.3,30.5c0,60.3,17.9,35,17.9,101.3"/>
	<line class="st0" x1="397.4" y1="305.3" x2="397.4" y2="57.9"/>
	<line class="st0" x1="380.2" y1="345" x2="380.2" y2="185.4"/>
	<circle class="st1" cx="397.4" cy="312" r="6.7"/>
	<circle class="st1" cx="380.3" cy="351.6" r="6.7"/>
	<circle class="st1" cx="380.2" cy="178.7" r="6.7"/>
	<circle class="st1" cx="397.4" cy="51.3" r="6.7"/>
	<circle class="st1" cx="414.5" cy="141.5" r="6.7"/>
	<circle class="st1" cx="414.5" cy="73" r="6.7"/>
	<path class="st0" d="M380.3,215.7c0,57.7-17.1,33.5-17.1,96.8l0,38.7v31.6c0,63.4-17.1,39.2-17.1,96.8"/>
	<path class="st0" d="M414.5,79.7c0,57.7-17.1,33.5-17.1,96.8"/>
	<path class="st0" d="M380.3,196c0,57.7,17.1,33.5,17.1,96.8"/>
	<path class="st0" d="M397.4,172.1c0,57.7,17.1,33.5,17.1,96.8"/>
	<line class="st0" x1="536.6" y1="197.4" x2="536.6" y2="497.4"/>
	<line class="st0" x1="519.5" y1="166.5" x2="519.5" y2="406.3"/>
	<path class="st0" d="M502.5,362.9v-99.6c0-57.7,17.1-33.5,17.1-96.8"/>
	<line class="st0" x1="553.7" y1="134" x2="553.7" y2="337.7"/>
	<circle class="st1" cx="519.5" cy="159.8" r="6.7"/>
	<circle class="st1" cx="553.7" cy="126.8" r="6.7"/>
	<circle class="st1" cx="536.6" cy="190.7" r="6.7"/>
	<circle class="st1" cx="553.7" cy="465.7" r="6.7"/>
	<circle class="st1" cx="502.5" cy="369.6" r="6.7"/>
	<circle class="st1" cx="519.5" cy="412.9" r="6.7"/>
	<circle class="st1" cx="536.6" cy="503.9" r="6.7"/>
	<circle class="st1" cx="553.7" cy="344.9" r="6.7"/>
	<path class="st0" d="M553.7,459c0-57.7-17.1-33.5-17.1-96.8"/>
	<path class="st0" d="M536.6,306c0-57.7-17.1-33.5-17.1-96.8"/>
	<path class="st0" d="M502.5,291.9c0,63.4-17.1,39.2-17.1,96.8l0.3,95.4c0,60.3-17.9,35-17.9,101.3"/>
	<path class="st0" d="M536.6,359.8c0-57.7,17.1-33.5,17.1-96.8"/>
	<line class="st0" x1="432" y1="684.3" x2="432" y2="370.5"/>
	<line class="st0" x1="449.9" y1="716.7" x2="449.9" y2="465.8"/>
	<path class="st0" d="M467.8,511.1v104.2c0,60.3-17.9,35-17.9,101.3"/>
	<line class="st0" x1="414.2" y1="750.6" x2="414.2" y2="537.5"/>
	<circle class="st1" cx="449.9" cy="723.7" r="7"/>
	<circle class="st1" cx="414.2" cy="758.2" r="7"/>
	<circle class="st1" cx="432" cy="691.3" r="7"/>
	<circle class="st1" cx="467.8" cy="504.2" r="7"/>
	<circle class="st1" cx="449.9" cy="458.8" r="7"/>
	<circle class="st1" cx="432" cy="363.7" r="7"/>
	<circle class="st1" cx="414.2" cy="530" r="7"/>
	<path class="st0" d="M432,570.7c0,60.3,17.9,35,17.9,101.3"/>
	<path class="st0" d="M432,514.4c0,60.3-17.9,35-17.9,101.3"/>
</g>
</svg>
