<?xml version="1.0" encoding="utf-8"?>
<!-- Generator: Adobe Illustrator 22.1.0, SVG Export Plug-In . SVG Version: 6.00 Build 0)  -->
<svg version="1.1" id="Layer_1" xmlns="http://www.w3.org/2000/svg" xmlns:xlink="http://www.w3.org/1999/xlink" x="0px" y="0px"
	 viewBox="0 0 595 768" style="enable-background:new 0 0 595 768;" xml:space="preserve">
<style type="text/css">
	.st0{fill:#FFC629;}
	.st1{fill:#FFFFFF;stroke:#808080;stroke-width:0.5;stroke-linejoin:round;stroke-miterlimit:10;}
	.st2{fill:none;stroke:#808080;stroke-width:0.5;stroke-linejoin:round;stroke-miterlimit:10;}
</style>
<path class="st0" d="M581.4,141.7c2.5-12.5-5.5-24.7-18-27.2L333.8,67.6l4.7-23c0.9-4.5-2-8.9-6.5-9.8L206.5,9.2
	c-4.5-0.9-8.9,2-9.8,6.5l-11.1,54.4l-6,29.5L65.8,657c-2.5,12.5,5.5,24.7,18,27.2L195.2,707l-0.1,0.1l237.6,48.5
	c12.5,2.5,24.7-5.5,27.2-18l24.4-119.4l0,0L581.4,141.7z"/>
<g>
	
		<rect x="67.6" y="389.9" transform="matrix(0.33 -0.944 0.944 0.33 -382.6694 524.8392)" class="st1" width="221.6" height="284.2"/>
	<g>
		<line class="st2" x1="301.8" y1="482.8" x2="244.2" y2="647.4"/>
		<line class="st2" x1="284.5" y1="476.8" x2="232.5" y2="625.7"/>
		<line class="st2" x1="267.3" y1="470.8" x2="230.8" y2="575.3"/>
		<line class="st2" x1="250.1" y1="464.8" x2="192.6" y2="629.3"/>
		<line class="st2" x1="232.9" y1="458.8" x2="175.4" y2="623.3"/>
		<line class="st2" x1="215.7" y1="452.8" x2="161.9" y2="606.6"/>
		<line class="st2" x1="198.5" y1="446.7" x2="141" y2="611.3"/>
		<line class="st2" x1="181.3" y1="440.7" x2="123.8" y2="605.3"/>
		<line class="st2" x1="164.1" y1="434.7" x2="115.9" y2="572.6"/>
		<line class="st2" x1="146.9" y1="428.7" x2="89.4" y2="593.3"/>
		<line class="st2" x1="129.7" y1="422.7" x2="77.7" y2="571.5"/>
		<line class="st2" x1="112.5" y1="416.7" x2="83.7" y2="498.9"/>
	</g>
</g>
<g>
	
		<rect x="335.2" y="326.1" transform="matrix(0.9717 -0.2364 0.2364 0.9717 -98.0447 118.7181)" class="st1" width="221.6" height="284.2"/>
	<g>
		<line class="st2" x1="554.4" y1="545" x2="385" y2="586.2"/>
		<line class="st2" x1="550.1" y1="527.3" x2="396.9" y2="564.6"/>
		<line class="st2" x1="545.8" y1="509.6" x2="438.2" y2="535.7"/>
		<line class="st2" x1="541.5" y1="491.9" x2="372.1" y2="533.1"/>
		<line class="st2" x1="537.2" y1="474.2" x2="367.8" y2="515.4"/>
		<line class="st2" x1="532.8" y1="456.4" x2="374.5" y2="495"/>
		<line class="st2" x1="528.5" y1="438.7" x2="359.1" y2="480"/>
		<line class="st2" x1="524.2" y1="421" x2="354.8" y2="462.2"/>
		<line class="st2" x1="519.9" y1="403.3" x2="378" y2="437.8"/>
		<line class="st2" x1="515.6" y1="385.6" x2="346.2" y2="426.8"/>
		<line class="st2" x1="511.3" y1="367.9" x2="358.1" y2="405.2"/>
		<line class="st2" x1="507" y1="350.2" x2="422.3" y2="370.8"/>
	</g>
</g>
<g>
	
		<rect x="137.9" y="97.4" transform="matrix(0.8165 -0.5774 0.5774 0.8165 -90.1916 183.9847)" class="st1" width="212.8" height="272.9"/>
	<line class="st2" x1="129.5" y1="204.8" x2="255.2" y2="115.9"/>
	<line class="st2" x1="148.2" y1="231.2" x2="273.8" y2="142.3"/>
	<g>
		<line class="st2" x1="190.2" y1="266" x2="128.5" y2="178.8"/>
		<line class="st2" x1="215.8" y1="247.9" x2="154.1" y2="160.7"/>
		<line class="st2" x1="241.4" y1="229.7" x2="179.7" y2="142.5"/>
		<line class="st2" x1="267" y1="211.6" x2="205.4" y2="124.4"/>
		<line class="st2" x1="292.7" y1="193.5" x2="231" y2="106.3"/>
	</g>
	<line class="st2" x1="166.8" y1="257.6" x2="292.5" y2="168.7"/>
	<line class="st2" x1="197" y1="300.3" x2="322.7" y2="211.4"/>
	<line class="st2" x1="207.3" y1="314.8" x2="301.2" y2="248.4"/>
	<line class="st2" x1="217.5" y1="329.3" x2="343.2" y2="240.4"/>
	<line class="st2" x1="227.8" y1="343.7" x2="348.1" y2="258.6"/>
	<line class="st2" x1="238" y1="358.2" x2="342.5" y2="284.3"/>
</g>
</svg>
