<svg xmlns="http://www.w3.org/2000/svg" viewBox="0 0 332.79 377.31"><defs><style>.cls-1{fill:#fff;stroke:#818181;stroke-linejoin:round;stroke-width:0.5px;}.cls-2{fill:#5b6670;}.cls-3{fill:#ffc629;}</style></defs><title>Asset 4</title><g id="Layer_2" data-name="Layer 2"><g id="Layer_1-2" data-name="Layer 1"><rect class="cls-1" x="36.24" y="27.57" width="260.32" height="322.18" transform="translate(-41.71 47.33) rotate(-14.41)"/><path class="cls-2" d="M60.62,153.56q.85,3.36-.46,5.24t-4.94,2.81a13.44,13.44,0,0,1-2.23.33,11.24,11.24,0,0,1-2.47,0l.33-4.18a7.81,7.81,0,0,0,1.71.14,7,7,0,0,0,1.77-.14,3.43,3.43,0,0,0,1.56-.73,1.79,1.79,0,0,0,.44-1.25,8.46,8.46,0,0,0-.35-2.27l-3.66-14.26,4.33-1.11Z"/><path class="cls-2" d="M76.17,155.73l-.43-1.67a7.59,7.59,0,0,1-4.48,3.43,5.54,5.54,0,0,1-4.39-.36,5.08,5.08,0,0,1-2.28-3.25,5.41,5.41,0,0,1,0-3,5,5,0,0,1,1.62-2.29,13.46,13.46,0,0,1,3.72-1.9l3.3-1.2-.18-.72a2,2,0,0,0-1.29-1.63,4.63,4.63,0,0,0-2.5.11,5.38,5.38,0,0,0-2.11,1,3,3,0,0,0-1,1.57l-3.59-1.18a5.39,5.39,0,0,1,2-2.75,11.17,11.17,0,0,1,4-1.8q3.75-1,5.75-.08T77,143.87l2.81,10.92Zm-2.24-7.38-2,.7a7.07,7.07,0,0,0-2.87,1.6,2.17,2.17,0,0,0-.45,2.13,1.72,1.72,0,0,0,1,1.35,3,3,0,0,0,1.72,0,4.81,4.81,0,0,0,1.64-.91,8.41,8.41,0,0,0,1.7-1.8Z"/><path class="cls-2" d="M95.23,146a4.69,4.69,0,0,1-.11,2.93,5.18,5.18,0,0,1-1.83,2.32,9.23,9.23,0,0,1-3.23,1.46q-5,1.31-7.58-1l2.41-2.82a3.64,3.64,0,0,0,2,.88,6.08,6.08,0,0,0,2.1-.19c1.88-.48,2.67-1.27,2.39-2.36a1.23,1.23,0,0,0-1.08-.9,13.42,13.42,0,0,0-2.7-.17,9.63,9.63,0,0,1-5-.83,4.64,4.64,0,0,1-2.16-3,4.56,4.56,0,0,1,.73-3.93,7.54,7.54,0,0,1,4.45-2.61,10.09,10.09,0,0,1,4-.29,5.58,5.58,0,0,1,3.06,1.42l-2.42,2.86a3.92,3.92,0,0,0-3.86-.74,3.46,3.46,0,0,0-1.75.9,1.32,1.32,0,0,0-.35,1.24,1.22,1.22,0,0,0,.83.86,8.53,8.53,0,0,0,2.44.21,16.82,16.82,0,0,1,4.26.34,5,5,0,0,1,2.2,1.19A4.82,4.82,0,0,1,95.23,146Z"/><path class="cls-2" d="M112.4,137.89a9.81,9.81,0,0,1-.25,6.72c-.86,1.81-2.61,3-5.27,3.73q-7.71,2-9.89-6.49a9.93,9.93,0,0,1,.23-6.78c.85-1.8,2.62-3,5.3-3.73s4.79-.44,6.41.73A9.93,9.93,0,0,1,112.4,137.89ZM108.31,139a7.31,7.31,0,0,0-1.82-3.66,3.87,3.87,0,0,0-5.56,1.46,7.19,7.19,0,0,0,.13,4.06,6.91,6.91,0,0,0,1.83,3.57,3.25,3.25,0,0,0,3.1.5,3.21,3.21,0,0,0,2.45-1.91A7,7,0,0,0,108.31,139Z"/><path class="cls-2" d="M128.44,142.3l-2.27-8.86a8.42,8.42,0,0,0-1.32-3.24,1.8,1.8,0,0,0-1.92-.4c-1.18.3-2.39,1.44-3.65,3.42L122,143.94l-4,1L114,128.89l4-1,.53,2.09a9.4,9.4,0,0,1,2.2-2.59,6.8,6.8,0,0,1,2.62-1.36,4.81,4.81,0,0,1,4,.4q1.56,1,2.36,4.15l2.75,10.72Z"/><path class="cls-2" d="M58.37,192.07l1.57-23,5.63-1.45L78.05,187l-4.43,1.14-2.52-3.94-8.16,2.09L62.66,191Zm4.82-9.86,5.72-1.46-5.11-8Z"/><path class="cls-2" d="M91.22,183.64l-.4-1.57a9.75,9.75,0,0,1-1.95,2.09,6.91,6.91,0,0,1-2.64,1.27,5.61,5.61,0,0,1-5.21-1,10.68,10.68,0,0,1-3.2-5.78,10.44,10.44,0,0,1,.14-6.81,6.12,6.12,0,0,1,4.39-3.55,6.83,6.83,0,0,1,2.45-.13,6.57,6.57,0,0,1,2.28.68l-2-7.93,3.95-1,5.86,22.81Zm-3.3-11.54a6.52,6.52,0,0,0-1.81-.6,4.68,4.68,0,0,0-2,.05,3.09,3.09,0,0,0-2.21,2,6.62,6.62,0,0,0,0,4A7.26,7.26,0,0,0,83.61,181a2.74,2.74,0,0,0,2.78.69,5,5,0,0,0,1.88-1,6.38,6.38,0,0,0,1.45-1.55Z"/><path class="cls-2" d="M109.87,178.85l-.4-1.57a10.28,10.28,0,0,1-2,2.09,6.89,6.89,0,0,1-2.65,1.27,5.59,5.59,0,0,1-5.2-1,10.62,10.62,0,0,1-3.2-5.78,10.38,10.38,0,0,1,.14-6.81A6.12,6.12,0,0,1,101,163.5a6.77,6.77,0,0,1,2.44-.13,6.69,6.69,0,0,1,2.29.68l-2-7.93,4-1,5.86,22.81Zm-3.31-11.53a6.12,6.12,0,0,0-1.81-.61,4.64,4.64,0,0,0-2,0,3.07,3.07,0,0,0-2.21,2,6.55,6.55,0,0,0,0,4,7.35,7.35,0,0,0,1.72,3.43,2.75,2.75,0,0,0,2.78.69,5,5,0,0,0,1.89-1,6.58,6.58,0,0,0,1.45-1.55Z"/><path class="cls-2" d="M127.44,174.33l-.43-1.67a7.56,7.56,0,0,1-4.47,3.44,5.58,5.58,0,0,1-4.39-.37,5.11,5.11,0,0,1-2.29-3.24,5.53,5.53,0,0,1,0-3,4.86,4.86,0,0,1,1.62-2.28,13,13,0,0,1,3.72-1.91l3.3-1.19-.19-.72a2.06,2.06,0,0,0-1.28-1.64,4.77,4.77,0,0,0-2.51.11,5.55,5.55,0,0,0-2.1,1,3,3,0,0,0-1.06,1.58l-3.58-1.19a5.25,5.25,0,0,1,2-2.74,11.14,11.14,0,0,1,4-1.8q3.75-1,5.75-.09a5.32,5.32,0,0,1,2.77,3.87l2.8,10.93ZM125.2,167l-2,.7a7.09,7.09,0,0,0-2.86,1.6,2.2,2.2,0,0,0-.46,2.13,1.73,1.73,0,0,0,1,1.35,3,3,0,0,0,1.73,0,4.6,4.6,0,0,0,1.64-.9A8.91,8.91,0,0,0,126,170Z"/><path class="cls-2" d="M154.56,167.37l-2.43-9.47a11.28,11.28,0,0,0-.74-2.18,2,2,0,0,0-.79-.95,1.83,1.83,0,0,0-1.21,0,3.52,3.52,0,0,0-1.75,1.17,10.27,10.27,0,0,0-1.46,2.13l2.76,10.73-3.95,1-2.44-9.47a12.83,12.83,0,0,0-.71-2.23,1.92,1.92,0,0,0-.75-.88,1.88,1.88,0,0,0-1.28,0,3.67,3.67,0,0,0-1.56,1,9.7,9.7,0,0,0-1.64,2.3l2.75,10.73-4,1-4.13-16.07,3.95-1,.54,2.08a9.68,9.68,0,0,1,1.83-2.46,5.65,5.65,0,0,1,2.51-1.37,5.34,5.34,0,0,1,3.14-.07,3.67,3.67,0,0,1,1.84,1.7,12.4,12.4,0,0,1,2-2.71,5.88,5.88,0,0,1,2.64-1.4,4.26,4.26,0,0,1,3.76.46q1.41,1,2.22,4.19l2.75,10.73Z"/><path class="cls-2" d="M173.93,157.51a4.76,4.76,0,0,1-.1,2.93,5.21,5.21,0,0,1-1.84,2.32,9.15,9.15,0,0,1-3.23,1.46c-3.36.87-5.88.52-7.58-1l2.41-2.82a3.64,3.64,0,0,0,2,.88,6.08,6.08,0,0,0,2.1-.19c1.88-.48,2.68-1.27,2.4-2.36a1.28,1.28,0,0,0-1.09-.91,14.26,14.26,0,0,0-2.7-.16,9.65,9.65,0,0,1-5-.83,4.71,4.71,0,0,1-2.16-3,4.56,4.56,0,0,1,.73-3.93,7.53,7.53,0,0,1,4.45-2.61,10.09,10.09,0,0,1,4-.29,5.62,5.62,0,0,1,3.07,1.42l-2.42,2.86a3.94,3.94,0,0,0-3.87-.74,3.42,3.42,0,0,0-1.74.9,1.27,1.27,0,0,0-.35,1.24,1.19,1.19,0,0,0,.82.86,8.58,8.58,0,0,0,2.44.21,16.82,16.82,0,0,1,4.26.34,4.93,4.93,0,0,1,2.2,1.19A4.82,4.82,0,0,1,173.93,157.51Z"/><path class="cls-3" d="M72.46,228.88a3.58,3.58,0,0,1-4.92-2.83,9.91,9.91,0,0,1-.3-2.22q0-1.19,0-2.43a11.56,11.56,0,0,1,.43-2.52,6.18,6.18,0,0,1,.89-1.88A4.88,4.88,0,0,1,70,215.69a6.45,6.45,0,0,1,1.87-.78,6.26,6.26,0,0,1,2-.22,4.12,4.12,0,0,1,1.72.54l-1.25,2.31a3.1,3.1,0,0,0-.47-.26,1.94,1.94,0,0,0-.48-.16,1.91,1.91,0,0,0-.54,0,3.14,3.14,0,0,0-.63.1,2.83,2.83,0,0,0-1,.5,2.63,2.63,0,0,0-.69.85,4.58,4.58,0,0,0-.42,1.2,10.94,10.94,0,0,0-.18,1.52,6.38,6.38,0,0,1,1.14-1,4,4,0,0,1,1.28-.56,3,3,0,0,1,4.11,2.47,6,6,0,0,1,.17,2.14,5.1,5.1,0,0,1-.61,2,5.2,5.2,0,0,1-1.37,1.6A6,6,0,0,1,72.46,228.88Zm-.3-2.3a2.25,2.25,0,0,0,.94-.47,2.3,2.3,0,0,0,.61-.78,2.64,2.64,0,0,0,.27-1,3.18,3.18,0,0,0-.09-1.1,1.86,1.86,0,0,0-.24-.56,1.18,1.18,0,0,0-.39-.41,1.31,1.31,0,0,0-.57-.22,2.06,2.06,0,0,0-.76.06,3.71,3.71,0,0,0-.66.24,4.34,4.34,0,0,0-.56.33,4.61,4.61,0,0,0-.46.36l-.34.34c0,.27,0,.57,0,.88a5.65,5.65,0,0,0,.16.93,2.74,2.74,0,0,0,.25.66,1.36,1.36,0,0,0,.4.51,1.16,1.16,0,0,0,.58.27A1.79,1.79,0,0,0,72.16,226.58Z"/><path class="cls-3" d="M88.85,219.21l.23,5.12-2.56.65-.22-5.06-4.25-7.35,2.61-.67,2.7,5.08,2.22-6.35,2.84-.73Z"/><path class="cls-3" d="M95.55,218.19a2.1,2.1,0,0,0,0,.43,3,3,0,0,0,.08.37,1.59,1.59,0,0,0,.75,1.13,1.9,1.9,0,0,0,1.35.06,4.19,4.19,0,0,0,1.36-.6,3.9,3.9,0,0,0,.89-1l1.71,1.17a7,7,0,0,1-.58.81,4,4,0,0,1-.73.69,5.15,5.15,0,0,1-1,.57,8.11,8.11,0,0,1-1.32.45,5.38,5.38,0,0,1-1.89.18,3.32,3.32,0,0,1-1.41-.47,3,3,0,0,1-1-1,4.92,4.92,0,0,1-.58-1.39,8.18,8.18,0,0,1,.29-5,5.07,5.07,0,0,1,.5-.95,4.51,4.51,0,0,1,.75-.83,4.88,4.88,0,0,1,1-.68,6,6,0,0,1,1.26-.47,5.76,5.76,0,0,1,1.72-.2,2.94,2.94,0,0,1,1.32.35,2.63,2.63,0,0,1,.94.88,4.29,4.29,0,0,1,.58,1.37,3.61,3.61,0,0,1,.1.53c0,.23,0,.44.07.65l.06,1.29Zm3.87-2.74c0-.16,0-.31,0-.44a2.32,2.32,0,0,0-.07-.38,1.51,1.51,0,0,0-.61-1,1.67,1.67,0,0,0-1.26,0,2.45,2.45,0,0,0-1,.5,2.13,2.13,0,0,0-.59.82,3.38,3.38,0,0,0-.23.72,5.69,5.69,0,0,0-.11.8Z"/><path class="cls-3" d="M103.61,217.22a8.26,8.26,0,0,1-.24-1.54,9,9,0,0,1,0-1.64,8.69,8.69,0,0,1,.34-1.61,6,6,0,0,1,.68-1.44,4.71,4.71,0,0,1,1-1.13,3.85,3.85,0,0,1,1.44-.69,4.09,4.09,0,0,1,1.56-.13,3.13,3.13,0,0,1,1.26.46l0-.75,2.29-.59.47,10.16-1.94.5-.25-1.2c-.25.35-.49.65-.71.91a5.89,5.89,0,0,1-.67.66,3.21,3.21,0,0,1-.69.44,4.71,4.71,0,0,1-.77.29,4.16,4.16,0,0,1-1.28.12,2.26,2.26,0,0,1-1.08-.38,2.81,2.81,0,0,1-.85-.92A5.53,5.53,0,0,1,103.61,217.22Zm6.21-5.65a2.18,2.18,0,0,0-.43-.23,2.78,2.78,0,0,0-.51-.17,3.43,3.43,0,0,0-.56-.06,2.22,2.22,0,0,0-.57.07,2,2,0,0,0-.83.43,2.43,2.43,0,0,0-.58.73,4,4,0,0,0-.35.93,6,6,0,0,0-.15,1,7,7,0,0,0,0,1,4.75,4.75,0,0,0,.16.92,2.28,2.28,0,0,0,.62,1.22,1.13,1.13,0,0,0,1,.16,2.81,2.81,0,0,0,.7-.29,4.69,4.69,0,0,0,.63-.47,4.85,4.85,0,0,0,.56-.55,7.12,7.12,0,0,0,.46-.56Z"/><path class="cls-3" d="M120.43,208.48a2.09,2.09,0,0,0-.41,0,2.05,2.05,0,0,0-.57.08,2.84,2.84,0,0,0-1.2.65,8.18,8.18,0,0,0-1.15,1.27l.29,6.61-2.31.6-.45-10.17,2.32-.59.07,1.45a7.32,7.32,0,0,1,1.2-1.52,3,3,0,0,1,1.31-.75,2,2,0,0,1,.35-.07l.35-.05h.31l.23,0Z"/><path class="cls-3" d="M123.51,212.67a1.94,1.94,0,0,0,.5.39,1.66,1.66,0,0,0,.53.18,2.67,2.67,0,0,0,.57,0,4.62,4.62,0,0,0,.61-.11,2.85,2.85,0,0,0,1.38-.67.9.9,0,0,0,.25-.88.84.84,0,0,0-.15-.33.69.69,0,0,0-.31-.22,2.42,2.42,0,0,0-.6-.14c-.26,0-.58,0-1,0a7.83,7.83,0,0,1-1.48-.12,3,3,0,0,1-1-.38,2,2,0,0,1-.65-.64,3.35,3.35,0,0,1-.38-.92,3,3,0,0,1,.48-2.54,3.89,3.89,0,0,1,1.12-1,5.87,5.87,0,0,1,1.75-.73,5.68,5.68,0,0,1,2.27-.17,3.75,3.75,0,0,1,1.84.88L127.58,207a1.73,1.73,0,0,0-.92-.53,2.56,2.56,0,0,0-1.25.05,2.69,2.69,0,0,0-.7.27,2,2,0,0,0-.43.36.9.9,0,0,0-.2.37.59.59,0,0,0,0,.32,1.11,1.11,0,0,0,.14.35.66.66,0,0,0,.28.23,1.49,1.49,0,0,0,.5.14,5.88,5.88,0,0,0,.8,0,9.41,9.41,0,0,1,1.62.12,3.53,3.53,0,0,1,1.11.37,2,2,0,0,1,.71.64,2.9,2.9,0,0,1,.4.94,3.32,3.32,0,0,1,.06,1.4,3.16,3.16,0,0,1-.57,1.27,4.21,4.21,0,0,1-1.2,1.07,6.41,6.41,0,0,1-1.83.74,8.08,8.08,0,0,1-1.44.25,4.11,4.11,0,0,1-1.13-.05,3,3,0,0,1-.92-.32,4.09,4.09,0,0,1-.77-.58Z"/><path class="cls-3" d="M136.79,212.07l-.44-10.17,2.31-.59.45,10.16Zm-.66-12.57a2.12,2.12,0,0,1,0-.47,1.58,1.58,0,0,1,.1-.56,1.55,1.55,0,0,1,.37-.53,1.72,1.72,0,0,1,.73-.36,1.38,1.38,0,0,1,.95,0,.84.84,0,0,1,.42.57,1.88,1.88,0,0,1,.06.51,1.68,1.68,0,0,1-.13.57,1.48,1.48,0,0,1-.37.51,1.73,1.73,0,0,1-.72.35,2.09,2.09,0,0,1-.56.08,1,1,0,0,1-.4-.08.72.72,0,0,1-.25-.24A1,1,0,0,1,136.13,199.5Z"/><path class="cls-3" d="M147.82,209.24l-.23-5.61c0-.35,0-.66-.07-.94a4.43,4.43,0,0,0-.14-.81.82.82,0,0,0-.38-.58.91.91,0,0,0-.66,0,2.44,2.44,0,0,0-.71.31,4.49,4.49,0,0,0-.67.5,7.62,7.62,0,0,0-.63.64c-.2.23-.39.46-.57.7l.3,6.78-2.31.6-.45-10.17,2.32-.59,0,1.31q.29-.4.6-.78a5.78,5.78,0,0,1,.7-.7,4.74,4.74,0,0,1,.8-.55,3.53,3.53,0,0,1,.9-.36,2.93,2.93,0,0,1,1.18-.1,1.84,1.84,0,0,1,1.44.95,3.09,3.09,0,0,1,.34.84,6,6,0,0,1,.17.86c0,.29,0,.53,0,.72l.29,6.41Z"/><path class="cls-3" d="M157.73,206.69l-.57-13.42,8.09-2.07.1,2.41L159.8,195l.13,2.85,4.68-1.2.1,2.42L160,200.32l.13,3.22,5.55-1.43.12,2.5Z"/><path class="cls-3" d="M167.54,200.8a8,8,0,0,1-.23-1.38,9.62,9.62,0,0,1,0-1.42,10.69,10.69,0,0,1,.21-1.38,9.88,9.88,0,0,1,.41-1.3,4.56,4.56,0,0,1,1.18-1.66,4.47,4.47,0,0,1,1.87-.94,3.62,3.62,0,0,1,1.45-.1,3,3,0,0,1,1.25.46l-.2-5,2.29-.59.63,14.43-2.12.54-.06-1a6.8,6.8,0,0,1-1.28,1.29,4.21,4.21,0,0,1-1.44.71,4.09,4.09,0,0,1-1.35.14,2.39,2.39,0,0,1-1.12-.36,2.86,2.86,0,0,1-.87-.92A5.87,5.87,0,0,1,167.54,200.8Zm2.56-4.53a4,4,0,0,0-.22.78,6.16,6.16,0,0,0-.12.89,7.73,7.73,0,0,0,0,1,6.54,6.54,0,0,0,.15.92,2.19,2.19,0,0,0,.65,1.2,1.33,1.33,0,0,0,1.19.13,2.56,2.56,0,0,0,.59-.23,4.05,4.05,0,0,0,.59-.36,4.69,4.69,0,0,0,.54-.46,4.41,4.41,0,0,0,.46-.51l-.2-4.44a2,2,0,0,0-.43-.23,2.88,2.88,0,0,0-.52-.17,2.51,2.51,0,0,0-.55-.06,2.22,2.22,0,0,0-.57.07,2.11,2.11,0,0,0-.88.47A2.54,2.54,0,0,0,170.1,196.27Z"/><path class="cls-3" d="M180.82,190.48l.23,5.6c0,.35,0,.66.07.92a4.71,4.71,0,0,0,.12.68,1.1,1.1,0,0,0,.4.71.86.86,0,0,0,.68.05,2.51,2.51,0,0,0,.7-.3,5.07,5.07,0,0,0,.67-.5,4.71,4.71,0,0,0,.62-.64c.2-.23.39-.46.57-.7l-.3-6.79,2.32-.59.44,10.16-2.31.6-.06-1.31a7.36,7.36,0,0,1-.6.78,7.49,7.49,0,0,1-.69.69,5.15,5.15,0,0,1-.77.55,3.06,3.06,0,0,1-.84.35,3.49,3.49,0,0,1-1.23.12,1.93,1.93,0,0,1-1.49-.94,3.44,3.44,0,0,1-.34-.84,6.64,6.64,0,0,1-.16-.87,5.46,5.46,0,0,1-.06-.72l-.29-6.42Z"/><path class="cls-3" d="M197.68,195a5,5,0,0,1-.62.91,5.32,5.32,0,0,1-.81.76,5.71,5.71,0,0,1-1,.6,5.52,5.52,0,0,1-1.1.4,5.36,5.36,0,0,1-1.83.2,2.86,2.86,0,0,1-1.37-.46,3.11,3.11,0,0,1-1-1.07,6.93,6.93,0,0,1-.64-1.64,7.92,7.92,0,0,1-.19-1.24,9,9,0,0,1,0-1.46,7.64,7.64,0,0,1,.34-1.53,5.43,5.43,0,0,1,.73-1.44,4.88,4.88,0,0,1,1.2-1.2,5.15,5.15,0,0,1,1.77-.79,6.24,6.24,0,0,1,1.26-.21,4.52,4.52,0,0,1,1.06.06,3.4,3.4,0,0,1,.91.33,4.71,4.71,0,0,1,.78.59l-1.65,1.73a1.71,1.71,0,0,0-.82-.47,2.38,2.38,0,0,0-1.13.07,2.18,2.18,0,0,0-.91.46,2.61,2.61,0,0,0-.61.75,3.79,3.79,0,0,0-.35.94,7.11,7.11,0,0,0-.13,1,5.3,5.3,0,0,0,0,1,5.64,5.64,0,0,0,.14.84,3.36,3.36,0,0,0,.27.74,1.22,1.22,0,0,0,.4.51,1.15,1.15,0,0,0,.59.23,2.33,2.33,0,0,0,.83-.08,2.92,2.92,0,0,0,1.1-.55,3.13,3.13,0,0,0,.79-1Z"/><path class="cls-3" d="M199,192.72a8.36,8.36,0,0,1-.25-1.55,8.2,8.2,0,0,1,0-1.64,8,8,0,0,1,.34-1.6,5.3,5.3,0,0,1,.68-1.44,4.48,4.48,0,0,1,1-1.13,3.9,3.9,0,0,1,1.45-.69,4.09,4.09,0,0,1,1.56-.13,3,3,0,0,1,1.26.46l0-.75,2.3-.59.46,10.16-1.94.5-.25-1.2a11.19,11.19,0,0,1-.71.91,5.06,5.06,0,0,1-.67.65,3.26,3.26,0,0,1-.69.45,3.5,3.5,0,0,1-.77.28,3.87,3.87,0,0,1-1.28.13,2.26,2.26,0,0,1-1.07-.38,2.84,2.84,0,0,1-.86-.92A5.53,5.53,0,0,1,199,192.72Zm6.21-5.65a2.28,2.28,0,0,0-.44-.24,2.76,2.76,0,0,0-.51-.16,2.51,2.51,0,0,0-.55-.06,2.22,2.22,0,0,0-.57.07,1.87,1.87,0,0,0-.84.43,2.44,2.44,0,0,0-.57.73,3.44,3.44,0,0,0-.35.93,7.2,7.2,0,0,0-.16,1,7.06,7.06,0,0,0,0,1,5.7,5.7,0,0,0,.15.92A2.24,2.24,0,0,0,202,193a1.09,1.09,0,0,0,1,.17,2.33,2.33,0,0,0,.69-.3,4.7,4.7,0,0,0,.64-.46,7.27,7.27,0,0,0,.56-.55c.17-.19.32-.38.46-.56Z"/><path class="cls-3" d="M215.58,191.83a5.76,5.76,0,0,1-.93.46,9.09,9.09,0,0,1-1,.33,4.31,4.31,0,0,1-1.22.14,2.2,2.2,0,0,1-.93-.25,1.93,1.93,0,0,1-.64-.6,3.28,3.28,0,0,1-.38-.91,3.33,3.33,0,0,1-.1-.58,6.35,6.35,0,0,1-.05-.66l-.22-4.81-1.19.31-.08-2,1.18-.31-.1-2.83,2.34-.6.1,2.83,2.2-.56.09,2-2.2.57.21,4.79a2.63,2.63,0,0,0,0,.41,1.61,1.61,0,0,0,.06.33.91.91,0,0,0,.36.6.76.76,0,0,0,.56,0,4,4,0,0,0,.71-.24,3.41,3.41,0,0,0,.66-.35Z"/><path class="cls-3" d="M217,191.46l-.45-10.17,2.32-.59.44,10.16Zm-.67-12.57a2.14,2.14,0,0,1-.05-.48,1.43,1.43,0,0,1,.11-.56,1.29,1.29,0,0,1,.37-.52,1.52,1.52,0,0,1,.73-.37,1.4,1.4,0,0,1,.94,0,.79.79,0,0,1,.43.56,2,2,0,0,1,0,.51,1.39,1.39,0,0,1-.12.57,1.55,1.55,0,0,1-.38.52,1.73,1.73,0,0,1-.72.35,2.51,2.51,0,0,1-.56.08.8.8,0,0,1-.39-.09.64.64,0,0,1-.26-.23A1.6,1.6,0,0,1,216.37,178.89Z"/><path class="cls-3" d="M221.41,186.6a9.35,9.35,0,0,1-.2-1.15,8.64,8.64,0,0,1,0-1.36,9.34,9.34,0,0,1,.21-1.46,5.44,5.44,0,0,1,.55-1.4,5,5,0,0,1,1.33-1.53,5.68,5.68,0,0,1,2.13-1,5,5,0,0,1,1.65-.17,3.15,3.15,0,0,1,1.4.43,3.32,3.32,0,0,1,1.09,1,5.23,5.23,0,0,1,.72,1.67,6.92,6.92,0,0,1,.17,1.1,7.94,7.94,0,0,1-.25,2.85,5.38,5.38,0,0,1-.61,1.44,4.66,4.66,0,0,1-.61.84,4.1,4.1,0,0,1-.74.64,5.19,5.19,0,0,1-.91.48,9.89,9.89,0,0,1-1.12.36,5,5,0,0,1-1.82.18,2.92,2.92,0,0,1-2.34-1.47A6,6,0,0,1,221.41,186.6Zm2.46-.59a2.47,2.47,0,0,0,.26.68,1.32,1.32,0,0,0,.41.46,1.29,1.29,0,0,0,.58.2,2.52,2.52,0,0,0,.78-.08,2.28,2.28,0,0,0,1-.51,3,3,0,0,0,.65-.85,4.26,4.26,0,0,0,.27-.83,6,6,0,0,0,.14-1,7.37,7.37,0,0,0,0-.94,3.69,3.69,0,0,0-.11-.81,2.31,2.31,0,0,0-.79-1.33,1.63,1.63,0,0,0-1.41-.17,2.21,2.21,0,0,0-1,.52,2.79,2.79,0,0,0-.62.89,3.69,3.69,0,0,0-.25.83,6,6,0,0,0-.11,1,6.55,6.55,0,0,0,0,1A6.81,6.81,0,0,0,223.87,186Z"/><path class="cls-3" d="M238.78,185.87l-.24-5.6c0-.35,0-.66-.06-.94a5.27,5.27,0,0,0-.14-.81.83.83,0,0,0-.38-.58.91.91,0,0,0-.66,0,2.6,2.6,0,0,0-.71.31,4.64,4.64,0,0,0-.68.51,6.24,6.24,0,0,0-.63.63l-.57.7.31,6.79-2.32.59-.45-10.16,2.32-.6.06,1.32a8.66,8.66,0,0,1,.6-.79,5.62,5.62,0,0,1,.69-.69,4.8,4.8,0,0,1,.8-.56,3.75,3.75,0,0,1,.91-.36,3.06,3.06,0,0,1,1.17-.1,2.06,2.06,0,0,1,.86.32,2.09,2.09,0,0,1,.59.63,3.44,3.44,0,0,1,.34.84,8.15,8.15,0,0,1,.16.86c0,.29.05.53.06.72l.28,6.42Z"/><path class="cls-2" d="M77.72,257.44l.8,3.1,4.25-1.09.33,1.28-4.25,1.09,1.27,4.95-1.42.36L76,256.53l6.42-1.65.32,1.28Z"/><path class="cls-2" d="M91.77,263.77l-.31-1.19A6.28,6.28,0,0,1,90.38,264a3,3,0,0,1-1.34.78,2.6,2.6,0,0,1-1.38,0,1.79,1.79,0,0,1-1-.72A5,5,0,0,1,86,262.4L84.66,257l1.31-.34,1.22,4.75a7.15,7.15,0,0,0,.51,1.5,1.05,1.05,0,0,0,.53.46,1.46,1.46,0,0,0,.8,0,2.6,2.6,0,0,0,1.07-.69,9.57,9.57,0,0,0,1.07-1.27l-1.47-5.68L91,255.4l2.07,8Z"/><path class="cls-2" d="M100.74,261.47l-1.22-4.74a6.73,6.73,0,0,0-.5-1.5,1.07,1.07,0,0,0-.52-.46,1.5,1.5,0,0,0-.81,0,2.69,2.69,0,0,0-1.08.69,8.39,8.39,0,0,0-1.06,1.27L97,262.43l-1.32.34-2.06-8,1.31-.34.31,1.2a6.82,6.82,0,0,1,1-1.33,3,3,0,0,1,1.38-.82,2.15,2.15,0,0,1,1.88.23,3.67,3.67,0,0,1,1.12,2.1l1.38,5.36Z"/><path class="cls-2" d="M108,249.68l.8,3.09,4.25-1.09.33,1.29-4.25,1.09,1.27,4.94-1.42.36-2.72-10.6,6.42-1.65.32,1.28Z"/><path class="cls-2" d="M121.26,256.2l-.25-1a7.8,7.8,0,0,1-1,1.21,2.83,2.83,0,0,1-1.31.71,2.3,2.3,0,0,1-2-.24,2.69,2.69,0,0,1-1.09-1.64,2.8,2.8,0,0,1,0-1.46,2.33,2.33,0,0,1,.72-1.11,5.84,5.84,0,0,1,1.67-.91l1.93-.69-.1-.39a1.45,1.45,0,0,0-.84-1.13,2.78,2.78,0,0,0-1.51,0,2.34,2.34,0,0,0-1.18.61,1.88,1.88,0,0,0-.48.77l-1.25-.38a2.5,2.5,0,0,1,.86-1.31,4.47,4.47,0,0,1,1.78-.84,4.07,4.07,0,0,1,2.65,0,2.8,2.8,0,0,1,1.31,2l1.4,5.46Zm-1-4.08-1.26.45a4,4,0,0,0-1.71,1,1.38,1.38,0,0,0-.24,1.29,1.35,1.35,0,0,0,.62.94,1.66,1.66,0,0,0,1.16,0,1.53,1.53,0,0,0,.56-.27,3.35,3.35,0,0,0,.51-.42,4.54,4.54,0,0,0,.45-.52l.41-.54Z"/><path class="cls-2" d="M130.84,252.41a3,3,0,0,1-.77,1.33,3.57,3.57,0,0,1-1.73.89,3.39,3.39,0,0,1-2.94-.38,5,5,0,0,1-1.71-2.94,5.05,5.05,0,0,1,.07-3.41,3.31,3.31,0,0,1,2.34-1.76,3.09,3.09,0,0,1,3.21.75l-.91.93a2.4,2.4,0,0,0-.89-.54,1.89,1.89,0,0,0-1.13,0,1.81,1.81,0,0,0-1.43,1.26,4.82,4.82,0,0,0,.11,2.44,5.72,5.72,0,0,0,.68,1.7,2,2,0,0,0,1,.78,2.18,2.18,0,0,0,1.32,0,2.11,2.11,0,0,0,1-.51,2.64,2.64,0,0,0,.57-.95Z"/><path class="cls-2" d="M137,252.15a5.3,5.3,0,0,1-1.46.62,2.22,2.22,0,0,1-1.92-.19,3.18,3.18,0,0,1-1.05-1.88l-1.16-4.51-1.15.3-.28-1.11,1.15-.29-.58-2.24,1.32-.34.57,2.24,2-.52.29,1.1-2,.52,1.09,4.25a3.86,3.86,0,0,0,.55,1.35.9.9,0,0,0,1,.2,2.83,2.83,0,0,0,1-.5Z"/><path class="cls-2" d="M138.51,244.12a.86.86,0,0,1,0,.74,1.15,1.15,0,0,1-.67.37,1,1,0,0,1-.79,0,1,1,0,0,1-.35-.59.92.92,0,0,1,0-.71,1,1,0,0,1,.66-.39,1.06,1.06,0,0,1,.78,0A.9.9,0,0,1,138.51,244.12Zm1.65,6.42a.87.87,0,0,1,0,.73,1.15,1.15,0,0,1-.67.37.78.78,0,0,1-1.14-.62.9.9,0,0,1,0-.72,1,1,0,0,1,.66-.38,1.07,1.07,0,0,1,.78,0A1,1,0,0,1,140.16,250.54Z"/><path class="cls-2" d="M153.56,244.81a2.94,2.94,0,0,1-.39,2.55,4.49,4.49,0,0,1-2.64,1.56,5.21,5.21,0,0,1-2.52.1,4,4,0,0,1-2-1.17l1-1.06a3.42,3.42,0,0,0,4.83,0,1.57,1.57,0,0,0,.32-1.46,1.49,1.49,0,0,0-.41-.73,1.77,1.77,0,0,0-.69-.4,3.28,3.28,0,0,0-.86-.16l-1,0c-.55,0-1.07,0-1.56,0a5.11,5.11,0,0,1-1.3-.22,2.47,2.47,0,0,1-1-.63,2.64,2.64,0,0,1-.61-1.22,3,3,0,0,1,.33-2.46,4,4,0,0,1,2.51-1.52,4.4,4.4,0,0,1,2.43-.06,4.25,4.25,0,0,1,1.71,1l-.92,1.08a3.27,3.27,0,0,0-1.28-.8,2.88,2.88,0,0,0-1.62,0,2.62,2.62,0,0,0-1.49.87,1.49,1.49,0,0,0-.26,1.37,1.36,1.36,0,0,0,.34.64,1.43,1.43,0,0,0,.62.33,3.17,3.17,0,0,0,.88.12h1.16c.52,0,1,0,1.48,0a4.22,4.22,0,0,1,1.28.26,2.65,2.65,0,0,1,1,.69A3.19,3.19,0,0,1,153.56,244.81Z"/><path class="cls-2" d="M161.05,246l-.25-1a8.3,8.3,0,0,1-1,1.21,2.83,2.83,0,0,1-1.31.71,2.27,2.27,0,0,1-1.95-.25,2.67,2.67,0,0,1-1.09-1.63,2.8,2.8,0,0,1,0-1.46,2.33,2.33,0,0,1,.72-1.11,5.61,5.61,0,0,1,1.67-.91l1.93-.69-.1-.39a1.43,1.43,0,0,0-.84-1.13,2.6,2.6,0,0,0-1.51,0,2.34,2.34,0,0,0-1.18.61,1.88,1.88,0,0,0-.48.77l-1.25-.38a2.5,2.5,0,0,1,.86-1.31,4.47,4.47,0,0,1,1.78-.84,4.07,4.07,0,0,1,2.65,0,2.8,2.8,0,0,1,1.31,2l1.4,5.47Zm-1-4.08-1.26.45a3.91,3.91,0,0,0-1.72,1,1.62,1.62,0,0,0,.39,2.23,1.66,1.66,0,0,0,1.16,0,1.71,1.71,0,0,0,.56-.27,3.35,3.35,0,0,0,.51-.42,4.54,4.54,0,0,0,.45-.52l.41-.54Z"/><path class="cls-2" d="M163.85,234.52a.79.79,0,0,1,0,.68,1.12,1.12,0,0,1-.61.33.89.89,0,0,1-.72,0,.87.87,0,0,1-.34-.53.82.82,0,0,1,.05-.65,1,1,0,0,1,.6-.35,1,1,0,0,1,.72,0A.79.79,0,0,1,163.85,234.52ZM164.91,245l-2.06-8,1.32-.34,2.06,8Z"/><path class="cls-2" d="M168.9,244,166,232.55l1.31-.34,2.93,11.41Z"/><path class="cls-2" d="M172.85,238.83A3.84,3.84,0,0,0,174,241a2.16,2.16,0,0,0,1.92.23,2,2,0,0,0,.89-.47,2.61,2.61,0,0,0,.59-.93l1.26.4a3.36,3.36,0,0,1-.84,1.34,3.76,3.76,0,0,1-1.69.83,3.44,3.44,0,0,1-2.95-.35,4.91,4.91,0,0,1-1.69-2.92,5.28,5.28,0,0,1,0-3.48,3.25,3.25,0,0,1,2.33-1.72,3.06,3.06,0,0,1,2.58.29,4.34,4.34,0,0,1,1.49,2.57l.19.74Zm3.67-2.05a3,3,0,0,0-.89-1.56,1.71,1.71,0,0,0-1.58-.23,1.82,1.82,0,0,0-1.27.91,3.22,3.22,0,0,0-.18,1.89Z"/><path class="cls-2" d="M186.23,239.51l-.21-.8a4.08,4.08,0,0,1-.9,1,3.29,3.29,0,0,1-1.28.64,2.67,2.67,0,0,1-2.51-.51,6.53,6.53,0,0,1-1.54-6.26,2.86,2.86,0,0,1,2.08-1.78,3.41,3.41,0,0,1,2.46.31l-1-4,1.32-.34,2.93,11.41Zm-1.6-6.23a3.33,3.33,0,0,0-2.29-.33,1.81,1.81,0,0,0-1.28,1.13,4,4,0,0,0,0,2.5q.78,3,2.69,2.55a2.64,2.64,0,0,0,1.12-.62,4.59,4.59,0,0,0,.81-1Z"/><path class="cls-2" d="M200,231.7a4.92,4.92,0,0,1-.09,3.39,3.31,3.31,0,0,1-2.35,1.75,3.36,3.36,0,0,1-2.9-.38,4.9,4.9,0,0,1-1.73-2.94,5,5,0,0,1,.09-3.45,3.4,3.4,0,0,1,2.36-1.73,3.32,3.32,0,0,1,2.9.4A5,5,0,0,1,200,231.7Zm-1.36.35a4.21,4.21,0,0,0-1.16-2.24,1.9,1.9,0,0,0-1.81-.33,2,2,0,0,0-1.45,1.17,5.64,5.64,0,0,0,1.19,4.71,1.91,1.91,0,0,0,1.86.33,1.87,1.87,0,0,0,1.43-1.17A4.17,4.17,0,0,0,198.67,232.05Z"/><path class="cls-2" d="M208.3,233.84l-1.21-4.74a7.15,7.15,0,0,0-.51-1.5,1,1,0,0,0-.52-.46,1.46,1.46,0,0,0-.8,0,2.56,2.56,0,0,0-1.08.69,7.89,7.89,0,0,0-1.07,1.27l1.46,5.68-1.31.33-2.07-8,1.32-.34.31,1.19a6.35,6.35,0,0,1,1-1.32,3,3,0,0,1,1.39-.82,2.16,2.16,0,0,1,1.87.22,3.67,3.67,0,0,1,1.12,2.11l1.38,5.36Z"/><path class="cls-2" d="M221,230.58l-.26-1a7.71,7.71,0,0,1-1,1.21,2.93,2.93,0,0,1-1.31.71,2.35,2.35,0,0,1-1.95-.25,3,3,0,0,1-1.11-3.09,2.33,2.33,0,0,1,.72-1.11,5.36,5.36,0,0,1,1.67-.91l1.93-.69-.1-.39a1.45,1.45,0,0,0-.84-1.13,2.63,2.63,0,0,0-1.52,0,2.46,2.46,0,0,0-1.18.6,2.05,2.05,0,0,0-.47.78l-1.25-.38a2.4,2.4,0,0,1,.86-1.31,4.41,4.41,0,0,1,1.78-.84,4,4,0,0,1,2.64,0,2.77,2.77,0,0,1,1.31,2l1.4,5.47Zm-1.05-4.07-1.26.45a3.86,3.86,0,0,0-1.71,1,1.38,1.38,0,0,0-.24,1.29,1.33,1.33,0,0,0,.63.94,1.66,1.66,0,0,0,1.16,0,1.81,1.81,0,0,0,.56-.27,3.84,3.84,0,0,0,.5-.42A4.54,4.54,0,0,0,220,229l.41-.54Z"/><path class="cls-2" d="M86.06,278.13a1.76,1.76,0,0,0-.64.07,2.69,2.69,0,0,0-1.07.56,5.75,5.75,0,0,0-1,1.33l1.42,5.55-1.32.34-2.06-8,1.32-.33.33,1.3a8.75,8.75,0,0,1,.91-1.29,2.36,2.36,0,0,1,1.24-.78,1.77,1.77,0,0,1,.84,0Z"/><path class="cls-2" d="M89.16,280.4a3.77,3.77,0,0,0,1.12,2.13,2.16,2.16,0,0,0,1.92.23,2,2,0,0,0,.89-.47,2.61,2.61,0,0,0,.59-.93l1.26.39a3.44,3.44,0,0,1-.84,1.35,3.76,3.76,0,0,1-1.69.83,3.44,3.44,0,0,1-3-.35,4.91,4.91,0,0,1-1.69-2.92,5.27,5.27,0,0,1,0-3.48,3.29,3.29,0,0,1,2.33-1.73,3.09,3.09,0,0,1,2.58.3,4.31,4.31,0,0,1,1.49,2.57l.19.74Zm3.67-2a2.93,2.93,0,0,0-.89-1.56,1.71,1.71,0,0,0-1.58-.23,1.85,1.85,0,0,0-1.28.9,3.35,3.35,0,0,0-.17,1.9Z"/><path class="cls-2" d="M102.41,278.8a2.19,2.19,0,0,1-.35,2A3.65,3.65,0,0,1,100,282a4.25,4.25,0,0,1-1.9.08,2.59,2.59,0,0,1-1.44-.76l.9-.92a2.61,2.61,0,0,0,3.41-.2,1.1,1.1,0,0,0,.2-1,.92.92,0,0,0-.29-.51,1.36,1.36,0,0,0-.57-.24,9.28,9.28,0,0,0-1.43-.09,4.28,4.28,0,0,1-2.25-.39,2.13,2.13,0,0,1-1-1.4,2.15,2.15,0,0,1,.32-1.9,3.35,3.35,0,0,1,2-1.19,3.62,3.62,0,0,1,1.87,0,2.79,2.79,0,0,1,1.3.73l-.89.91a2.28,2.28,0,0,0-3.06.09,1,1,0,0,0-.23,1,.89.89,0,0,0,.6.68,4.53,4.53,0,0,0,1.37.13,8,8,0,0,1,2.05.18,2.08,2.08,0,0,1,1,.56A2.4,2.4,0,0,1,102.41,278.8Z"/><path class="cls-2" d="M105,276.32a3.78,3.78,0,0,0,1.13,2.13,2.15,2.15,0,0,0,1.92.23,2,2,0,0,0,.88-.47,2.61,2.61,0,0,0,.59-.93l1.27.4A3.38,3.38,0,0,1,110,279a3.76,3.76,0,0,1-1.69.83,3.41,3.41,0,0,1-2.94-.35,4.92,4.92,0,0,1-1.7-2.92,5.2,5.2,0,0,1,0-3.48,3.23,3.23,0,0,1,2.33-1.72,3,3,0,0,1,2.57.29,4.29,4.29,0,0,1,1.49,2.57l.19.74Zm3.67-2a2.94,2.94,0,0,0-.89-1.57,1.71,1.71,0,0,0-1.58-.23,1.85,1.85,0,0,0-1.27.91,3.39,3.39,0,0,0-.18,1.89Z"/><path class="cls-2" d="M117.91,277.13l-.26-1a7.24,7.24,0,0,1-1,1.21,2.88,2.88,0,0,1-1.31.71,2.33,2.33,0,0,1-2-.24,3.09,3.09,0,0,1-1.11-3.1,2.33,2.33,0,0,1,.72-1.11,5.71,5.71,0,0,1,1.67-.91l1.93-.69-.1-.39a1.47,1.47,0,0,0-.84-1.13,2.81,2.81,0,0,0-1.52,0,2.38,2.38,0,0,0-1.18.61,2,2,0,0,0-.47.77l-1.25-.38a2.5,2.5,0,0,1,.86-1.31,4.61,4.61,0,0,1,1.78-.84,4,4,0,0,1,2.64,0,2.79,2.79,0,0,1,1.31,2l1.41,5.46Zm-1-4.08-1.25.46a3.85,3.85,0,0,0-1.72,1,1.38,1.38,0,0,0-.24,1.29,1.36,1.36,0,0,0,.63.94,1.66,1.66,0,0,0,1.16,0,1.78,1.78,0,0,0,.56-.26,4.06,4.06,0,0,0,.5-.43c.16-.16.31-.33.46-.51l.41-.55Z"/><path class="cls-2" d="M124.39,268.29a1.52,1.52,0,0,0-.64.06,2.59,2.59,0,0,0-1.07.57,5.21,5.21,0,0,0-1,1.32l1.43,5.56-1.32.34-2.06-8,1.31-.34.34,1.3a9.89,9.89,0,0,1,.9-1.29,2.43,2.43,0,0,1,1.25-.78,1.72,1.72,0,0,1,.83,0Z"/><path class="cls-2" d="M133.23,271.87a3.25,3.25,0,0,1-.76,1.33,3.61,3.61,0,0,1-1.74.89,3.39,3.39,0,0,1-2.94-.39,5,5,0,0,1-1.71-2.94,5.12,5.12,0,0,1,.07-3.41,3.29,3.29,0,0,1,2.35-1.75,3.09,3.09,0,0,1,3.2.74l-.91.94a2.43,2.43,0,0,0-.89-.55,2.06,2.06,0,0,0-1.13,0,1.8,1.8,0,0,0-1.42,1.26,4.84,4.84,0,0,0,.1,2.45,5.38,5.38,0,0,0,.69,1.69,2,2,0,0,0,1,.78,2.18,2.18,0,0,0,1.32,0,2.11,2.11,0,0,0,1-.51,2.75,2.75,0,0,0,.58-.94Z"/><path class="cls-2" d="M140.46,271.34l-1.22-4.74a8,8,0,0,0-.5-1.5,1,1,0,0,0-.52-.46,1.5,1.5,0,0,0-.81,0,2.56,2.56,0,0,0-1.08.69,7.84,7.84,0,0,0-1.06,1.27l1.45,5.67-1.31.34-2.93-11.4,1.31-.34,1.18,4.56a6.1,6.1,0,0,1,1-1.32,3.09,3.09,0,0,1,1.39-.82,2.19,2.19,0,0,1,1.88.22,3.73,3.73,0,0,1,1.12,2.1l1.37,5.37Z"/><path class="cls-2" d="M151.76,268.43l-1.31.34-4.87-7.32,1.41-.36,3.71,5.78.45-6.85,1.36-.35Z"/><path class="cls-2" d="M156.09,263.2a3.83,3.83,0,0,0,1.12,2.14,2.24,2.24,0,0,0,1.93.23,2.07,2.07,0,0,0,.88-.47,2.57,2.57,0,0,0,.59-.94l1.26.4a3.33,3.33,0,0,1-.84,1.35,3.87,3.87,0,0,1-1.69.83,3.43,3.43,0,0,1-3-.36,4.93,4.93,0,0,1-1.69-2.92,5.28,5.28,0,0,1,0-3.48,3.3,3.3,0,0,1,2.34-1.72,3,3,0,0,1,2.57.3,4.23,4.23,0,0,1,1.49,2.57l.19.73Zm3.67-2a2.93,2.93,0,0,0-.89-1.56,1.71,1.71,0,0,0-1.58-.23,1.81,1.81,0,0,0-1.27.9,3.25,3.25,0,0,0-.18,1.9Z"/><path class="cls-2" d="M169.34,261.61a2.23,2.23,0,0,1-.34,2,3.71,3.71,0,0,1-2.11,1.22,4.25,4.25,0,0,1-1.9.08,2.54,2.54,0,0,1-1.43-.77l.89-.91a2.19,2.19,0,0,0,2.19.47,2.14,2.14,0,0,0,1.22-.67,1.11,1.11,0,0,0,.21-1,.92.92,0,0,0-.3-.51,1.25,1.25,0,0,0-.57-.24,9.12,9.12,0,0,0-1.42-.09,4.51,4.51,0,0,1-2.26-.39,2.15,2.15,0,0,1-1-1.4,2.21,2.21,0,0,1,.33-1.91,3.28,3.28,0,0,1,1.95-1.18,3.51,3.51,0,0,1,1.87,0,2.78,2.78,0,0,1,1.3.72l-.89.92a2.1,2.1,0,0,0-2-.49,2.15,2.15,0,0,0-1,.58,1,1,0,0,0-.23,1,.92.92,0,0,0,.61.69,4.76,4.76,0,0,0,1.36.13,8.66,8.66,0,0,1,2.05.17,2.26,2.26,0,0,1,1,.56A2.49,2.49,0,0,1,169.34,261.61Z"/><path class="cls-2" d="M176.93,259.66a2.2,2.2,0,0,1-.34,2,3.63,3.63,0,0,1-2.11,1.23,4.21,4.21,0,0,1-1.89.08,2.53,2.53,0,0,1-1.44-.77l.89-.91a2.62,2.62,0,0,0,3.42-.2,1.13,1.13,0,0,0,.2-1,.92.92,0,0,0-.3-.51,1.16,1.16,0,0,0-.57-.24,9.12,9.12,0,0,0-1.42-.09,4.54,4.54,0,0,1-2.26-.39,2.19,2.19,0,0,1-1-1.4,2.21,2.21,0,0,1,.33-1.91,3.28,3.28,0,0,1,1.95-1.18,3.51,3.51,0,0,1,1.87,0,2.78,2.78,0,0,1,1.3.72l-.88.92a2.12,2.12,0,0,0-2-.49,2.15,2.15,0,0,0-1,.58,1,1,0,0,0-.22,1,.89.89,0,0,0,.6.69,4.76,4.76,0,0,0,1.36.13,8.76,8.76,0,0,1,2.06.17,2.08,2.08,0,0,1,1,.56A2.49,2.49,0,0,1,176.93,259.66Z"/><path class="cls-2" d="M179.55,257.18a3.84,3.84,0,0,0,1.13,2.13,2.19,2.19,0,0,0,1.92.23,1.92,1.92,0,0,0,.88-.47,2.62,2.62,0,0,0,.6-.93l1.26.39a3.35,3.35,0,0,1-.85,1.35,3.71,3.71,0,0,1-1.69.83,3.42,3.42,0,0,1-2.94-.35,5,5,0,0,1-1.7-2.93,5.33,5.33,0,0,1,0-3.48,3.26,3.26,0,0,1,2.33-1.72,3.06,3.06,0,0,1,2.58.3,4.31,4.31,0,0,1,1.49,2.57l.19.73Zm3.67-2.05a2.92,2.92,0,0,0-.88-1.56,1.72,1.72,0,0,0-1.58-.23,1.83,1.83,0,0,0-1.28.9,3.43,3.43,0,0,0-.18,1.9Z"/><path class="cls-2" d="M187.93,259.14,185,247.73l1.32-.34,2.93,11.41Z"/><path class="cls-2" d="M197.4,245.82a2.24,2.24,0,0,0-.61,0,2.38,2.38,0,0,0-.63.07,1.09,1.09,0,0,0-.83.58,2.39,2.39,0,0,0,.08,1.4l.2.78,1.78-.46.29,1.11-1.79.45,1.78,6.94-1.31.34L194.57,250l-1.18.31-.28-1.11,1.18-.3-.2-.78a3.5,3.5,0,0,1,0-2.28,2.4,2.4,0,0,1,1.75-1.18,4,4,0,0,1,1.63-.11Z"/><path class="cls-2" d="M206.64,250.07a5.07,5.07,0,0,1-.09,3.4,3.32,3.32,0,0,1-2.35,1.74,3.38,3.38,0,0,1-2.91-.38,5,5,0,0,1-1.73-2.94,5,5,0,0,1,.1-3.45,3.36,3.36,0,0,1,2.36-1.73,3.32,3.32,0,0,1,2.9.4A5.11,5.11,0,0,1,206.64,250.07Zm-1.37.35a4.21,4.21,0,0,0-1.15-2.24,2.24,2.24,0,0,0-3.27.84,5.73,5.73,0,0,0,1.19,4.71,2.24,2.24,0,0,0,3.3-.83A4.22,4.22,0,0,0,205.27,250.42Z"/><path class="cls-2" d="M212.48,245.66a1.52,1.52,0,0,0-.64.06,2.59,2.59,0,0,0-1.07.57,5.21,5.21,0,0,0-1,1.32l1.43,5.56-1.32.34-2.06-8,1.31-.34.34,1.3a9.89,9.89,0,0,1,.9-1.29,2.43,2.43,0,0,1,1.25-.78,1.72,1.72,0,0,1,.83,0Z"/><path class="cls-2" d="M224.88,249.65l-.26-1a7.61,7.61,0,0,1-1,1.2,2.83,2.83,0,0,1-1.31.71,2.31,2.31,0,0,1-2-.24,2.69,2.69,0,0,1-1.09-1.64,2.8,2.8,0,0,1,0-1.46,2.35,2.35,0,0,1,.73-1.1,5.35,5.35,0,0,1,1.67-.92l1.93-.68-.1-.39a1.47,1.47,0,0,0-.84-1.14,2.82,2.82,0,0,0-1.52,0,2.47,2.47,0,0,0-1.18.61,2,2,0,0,0-.47.77L218.2,244a2.48,2.48,0,0,1,.86-1.31,4.54,4.54,0,0,1,1.78-.83,4,4,0,0,1,2.64,0,2.77,2.77,0,0,1,1.31,2l1.4,5.46Zm-1-4.08-1.26.46a4,4,0,0,0-1.71,1,1.39,1.39,0,0,0-.24,1.29,1.33,1.33,0,0,0,.62.94,1.69,1.69,0,0,0,1.17,0A1.89,1.89,0,0,0,223,249a5,5,0,0,0,.5-.43,4.43,4.43,0,0,0,.45-.51l.41-.55Z"/><path class="cls-2" d="M242.23,245.19,241,240.46a8,8,0,0,0-.5-1.56.85.85,0,0,0-.45-.45,1.36,1.36,0,0,0-.74,0,1.84,1.84,0,0,0-.82.52,7.75,7.75,0,0,0-1,1.36l1.46,5.68-1.32.34-1.22-4.73a8.13,8.13,0,0,0-.48-1.51.94.94,0,0,0-.46-.48,1.13,1.13,0,0,0-.73,0,2.06,2.06,0,0,0-.92.6,6.75,6.75,0,0,0-1,1.28l1.46,5.68-1.32.34-2.06-8,1.32-.34.3,1.2a6.52,6.52,0,0,1,.91-1.29,2.56,2.56,0,0,1,1.27-.79,2.2,2.2,0,0,1,1.4,0,2,2,0,0,1,.95,1,9.67,9.67,0,0,1,1-1.45,2.61,2.61,0,0,1,1.33-.82,2.14,2.14,0,0,1,1.26,0,1.83,1.83,0,0,1,.89.73,5.68,5.68,0,0,1,.64,1.64l1.38,5.36Z"/><path class="cls-2" d="M251.73,238.49a5,5,0,0,1-.09,3.39,3.9,3.9,0,0,1-5.26,1.37,6.25,6.25,0,0,1-1.63-6.39,3.38,3.38,0,0,1,2.36-1.73,3.29,3.29,0,0,1,2.9.4A5.08,5.08,0,0,1,251.73,238.49Zm-1.37.35a4.21,4.21,0,0,0-1.15-2.24,1.9,1.9,0,0,0-1.81-.33,2,2,0,0,0-1.46,1.17A4.37,4.37,0,0,0,246,240a4.31,4.31,0,0,0,1.12,2.19,1.91,1.91,0,0,0,1.86.33,1.93,1.93,0,0,0,1.43-1.17A4.19,4.19,0,0,0,250.36,238.84Z"/><path class="cls-2" d="M260,240.63l-1.22-4.74a6.54,6.54,0,0,0-.5-1.5,1,1,0,0,0-.52-.46,1.46,1.46,0,0,0-.8,0,2.65,2.65,0,0,0-1.09.69,8.39,8.39,0,0,0-1.06,1.27l1.46,5.67-1.32.34-2.06-8,1.32-.34.3,1.19a6.76,6.76,0,0,1,1.05-1.32,3,3,0,0,1,1.38-.82,2.18,2.18,0,0,1,1.88.22,3.67,3.67,0,0,1,1.12,2.11l1.38,5.36Z"/><path class="cls-2" d="M267.88,238.6a5.34,5.34,0,0,1-1.46.63,2.21,2.21,0,0,1-1.92-.19,3.27,3.27,0,0,1-1.06-1.89l-1.15-4.5-1.15.29-.28-1.1,1.14-.3-.57-2.23,1.32-.34.57,2.24,2-.53.28,1.11-2,.52,1.09,4.25a3.68,3.68,0,0,0,.55,1.35.89.89,0,0,0,1,.19,2.69,2.69,0,0,0,1-.49Z"/><path class="cls-2" d="M274.5,236.9l-1.22-4.73a7.49,7.49,0,0,0-.5-1.5,1,1,0,0,0-.52-.46,1.4,1.4,0,0,0-.81,0,2.56,2.56,0,0,0-1.08.69,7.68,7.68,0,0,0-1.06,1.26l1.45,5.68-1.31.34-2.93-11.41,1.31-.34L269,231a6.4,6.4,0,0,1,1-1.33,3.16,3.16,0,0,1,1.39-.81,2.15,2.15,0,0,1,1.88.22,3.79,3.79,0,0,1,1.12,2.1l1.37,5.36Z"/><path class="cls-2" d="M93.22,301.23a2.19,2.19,0,0,1-.35,2,3.65,3.65,0,0,1-2.1,1.22,4.25,4.25,0,0,1-1.9.08,2.59,2.59,0,0,1-1.44-.76l.9-.92a2.61,2.61,0,0,0,3.41-.2,1.1,1.1,0,0,0,.2-1,.86.86,0,0,0-.29-.5,1.25,1.25,0,0,0-.57-.25,9.28,9.28,0,0,0-1.43-.09,4.28,4.28,0,0,1-2.25-.39,2.13,2.13,0,0,1-1-1.4,2.15,2.15,0,0,1,.32-1.9,3.32,3.32,0,0,1,2-1.19,3.62,3.62,0,0,1,1.87,0,2.84,2.84,0,0,1,1.3.73l-.89.91a2.28,2.28,0,0,0-3.06.09,1,1,0,0,0-.23,1,.89.89,0,0,0,.6.68,4.53,4.53,0,0,0,1.37.13,8.52,8.52,0,0,1,2,.18,2.08,2.08,0,0,1,1,.56A2.4,2.4,0,0,1,93.22,301.23Z"/><path class="cls-2" d="M99.73,301.87a5.24,5.24,0,0,1-1.45.62,2.24,2.24,0,0,1-1.93-.19,3.32,3.32,0,0,1-1-1.88l-1.15-4.51-1.15.3-.29-1.11,1.15-.29-.57-2.24,1.31-.34.58,2.24,2-.52.28,1.1-2,.52,1.1,4.25a3.68,3.68,0,0,0,.55,1.35.89.89,0,0,0,1,.2,2.78,2.78,0,0,0,1-.5Z"/><path class="cls-2" d="M106.05,300.24l-.3-1.19a6.64,6.64,0,0,1-1.09,1.37,3.11,3.11,0,0,1-1.33.78,2.64,2.64,0,0,1-1.39,0,1.83,1.83,0,0,1-1-.73,5.35,5.35,0,0,1-.66-1.63l-1.38-5.37,1.32-.34,1.22,4.75a6.12,6.12,0,0,0,.51,1.5,1,1,0,0,0,.52.46,1.39,1.39,0,0,0,.8,0,2.49,2.49,0,0,0,1.08-.68,9.51,9.51,0,0,0,1.06-1.27L104,292.21l1.32-.34,2.06,8Z"/><path class="cls-2" d="M115,297.93l-.2-.79a4.25,4.25,0,0,1-.9,1,3.24,3.24,0,0,1-1.28.65,2.68,2.68,0,0,1-2.52-.52,5.46,5.46,0,0,1-1.59-2.89,5.38,5.38,0,0,1,.06-3.37,2.88,2.88,0,0,1,2.07-1.78,3.41,3.41,0,0,1,2.46.32l-1-4,1.32-.34,2.94,11.4Zm-1.6-6.22a3.4,3.4,0,0,0-2.29-.34,1.82,1.82,0,0,0-1.27,1.13,4,4,0,0,0,0,2.51q.78,3,2.7,2.55a2.47,2.47,0,0,0,1.11-.63,4.54,4.54,0,0,0,.81-1Z"/><path class="cls-2" d="M118.4,298.89a3,3,0,0,0,1.22-.07c.62-.16,1-.86,1.14-2.08l.09-.76L116,289.13l1.43-.37,3.72,5.32.72-6.46,1.38-.35L122,296.8a5.27,5.27,0,0,1-.68,2.17,2.45,2.45,0,0,1-1.48,1,4.55,4.55,0,0,1-.78.12,3.34,3.34,0,0,1-.7,0Z"/><path class="cls-2" d="M125.87,284.41a.8.8,0,0,1,0,.68,1.1,1.1,0,0,1-.62.33.9.9,0,0,1-.72,0,.87.87,0,0,1-.33-.54.8.8,0,0,1,0-.64,1,1,0,0,1,.61-.36,1,1,0,0,1,.71,0A.82.82,0,0,1,125.87,284.41Zm1.07,10.47-2.07-8,1.32-.34,2.06,8Z"/><path class="cls-2" d="M135.91,292.57l-1.22-4.73a6.23,6.23,0,0,0-.51-1.5,1,1,0,0,0-.52-.46,1.37,1.37,0,0,0-.8,0,2.56,2.56,0,0,0-1.08.69,8.21,8.21,0,0,0-1.06,1.26l1.46,5.68-1.32.34-2.07-8,1.32-.33.31,1.19a6.82,6.82,0,0,1,1.05-1.33,3.08,3.08,0,0,1,1.38-.81,2.15,2.15,0,0,1,1.88.22,3.73,3.73,0,0,1,1.12,2.1l1.38,5.36Z"/><path class="cls-2" d="M146.11,289.76a3.35,3.35,0,0,1-.18,2.62,3.74,3.74,0,0,1-2.45,1.47,5.29,5.29,0,0,1-3.11,0l.22-1.19a4.2,4.2,0,0,0,2.61.1,2.42,2.42,0,0,0,1.51-.89,2.16,2.16,0,0,0,.1-1.68l-.24-.94a4.65,4.65,0,0,1-.89,1,3.28,3.28,0,0,1-1.29.65,2.7,2.7,0,0,1-2.52-.48,5.2,5.2,0,0,1-1.56-2.84,5,5,0,0,1,.08-3.29,3,3,0,0,1,2.08-1.71,3.48,3.48,0,0,1,2.47.31l-.17-.66,1.32-.34Zm-2.88-5.71a3.39,3.39,0,0,0-2.29-.33,1.75,1.75,0,0,0-1.32,1.17,5.35,5.35,0,0,0,1.11,4.44,1.64,1.64,0,0,0,1.61.33,3.31,3.31,0,0,0,1.92-1.59Z"/><path class="cls-2" d="M157,287.15a5.28,5.28,0,0,1-1.45.63,2.27,2.27,0,0,1-1.93-.19,3.32,3.32,0,0,1-1-1.89l-1.16-4.5-1.14.29-.29-1.1,1.15-.3-.57-2.23,1.31-.34.58,2.23,2-.52.28,1.1-2,.53,1.09,4.25a3.69,3.69,0,0,0,.56,1.34.87.87,0,0,0,1,.2,2.76,2.76,0,0,0,1-.49Z"/><path class="cls-2" d="M163.63,285.45l-1.21-4.73a6.72,6.72,0,0,0-.51-1.5,1,1,0,0,0-.51-.46,1.33,1.33,0,0,0-.81,0,2.44,2.44,0,0,0-1.08.68,8.87,8.87,0,0,0-1.07,1.27l1.46,5.68-1.32.34-2.93-11.41L157,275l1.17,4.57a6.82,6.82,0,0,1,1.05-1.33,3,3,0,0,1,1.38-.81,2.14,2.14,0,0,1,1.88.22,3.67,3.67,0,0,1,1.12,2.1l1.38,5.36Z"/><path class="cls-2" d="M167.46,280.35a3.74,3.74,0,0,0,1.13,2.13,2.15,2.15,0,0,0,1.92.23,2,2,0,0,0,.88-.46,2.66,2.66,0,0,0,.59-.94l1.27.4a3.46,3.46,0,0,1-.85,1.35,3.87,3.87,0,0,1-1.69.83,3.43,3.43,0,0,1-3-.36,4.93,4.93,0,0,1-1.69-2.92,5.2,5.2,0,0,1,0-3.48,3.26,3.26,0,0,1,2.33-1.72,3,3,0,0,1,2.57.3,4.23,4.23,0,0,1,1.49,2.57l.19.73Zm3.67-2a2.87,2.87,0,0,0-.89-1.56,1.68,1.68,0,0,0-1.58-.23,1.81,1.81,0,0,0-1.27.9,3.33,3.33,0,0,0-.18,1.9Z"/><path class="cls-2" d="M187.54,279.31l-1.22.31L182.77,274l-.38,6.65-1.2.31-4.06-7.52,1.37-.35,2.93,5.77.35-6.62,1.09-.28,3.54,5.62-.27-6.46,1.31-.33Z"/><path class="cls-2" d="M195.88,277.17l-.26-1a7.61,7.61,0,0,1-1,1.2,2.83,2.83,0,0,1-1.31.71,2.31,2.31,0,0,1-2-.24,2.69,2.69,0,0,1-1.09-1.64,2.8,2.8,0,0,1,0-1.46,2.4,2.4,0,0,1,.72-1.1,5.54,5.54,0,0,1,1.68-.92l1.93-.68-.1-.4a1.47,1.47,0,0,0-.84-1.13,2.82,2.82,0,0,0-1.52,0,2.42,2.42,0,0,0-1.18.61,1.84,1.84,0,0,0-.47.77l-1.25-.38a2.48,2.48,0,0,1,.86-1.31,4.54,4.54,0,0,1,1.78-.83,4.05,4.05,0,0,1,2.64,0,2.81,2.81,0,0,1,1.31,2l1.4,5.46Zm-1-4.08-1.26.46a3.87,3.87,0,0,0-1.71,1,1.38,1.38,0,0,0-.24,1.29,1.35,1.35,0,0,0,.62.94,1.66,1.66,0,0,0,1.16,0,1.83,1.83,0,0,0,.57-.26,5,5,0,0,0,.5-.43,5.47,5.47,0,0,0,.45-.51l.41-.55Z"/><path class="cls-2" d="M203.6,275.18a5.34,5.34,0,0,1-1.46.63,2.21,2.21,0,0,1-1.92-.19,3.21,3.21,0,0,1-1.05-1.89l-1.16-4.5-1.15.29-.28-1.1,1.15-.29-.58-2.24,1.32-.34.57,2.24,2-.53.28,1.11-2,.52,1.09,4.25a3.86,3.86,0,0,0,.55,1.35.89.89,0,0,0,1,.19,2.81,2.81,0,0,0,1-.49Z"/><path class="cls-2" d="M205,270.71a3.77,3.77,0,0,0,1.13,2.14,2.22,2.22,0,0,0,1.92.23,2,2,0,0,0,.88-.47,2.58,2.58,0,0,0,.6-.94l1.26.4a3.35,3.35,0,0,1-.85,1.35,3.81,3.81,0,0,1-1.69.83,3.42,3.42,0,0,1-2.94-.36,4.89,4.89,0,0,1-1.7-2.92,5.27,5.27,0,0,1,0-3.48,3.26,3.26,0,0,1,2.33-1.72,3,3,0,0,1,2.57.3,4.23,4.23,0,0,1,1.5,2.57l.19.73Zm3.67-2a2.92,2.92,0,0,0-.88-1.56,1.71,1.71,0,0,0-1.59-.23,1.83,1.83,0,0,0-1.27.9,3.42,3.42,0,0,0-.18,1.9Z"/><path class="cls-2" d="M215.91,264.84a1.76,1.76,0,0,0-.64.07,2.59,2.59,0,0,0-1.06.56,5.48,5.48,0,0,0-1,1.33l1.42,5.55-1.31.34-2.07-8,1.32-.34.33,1.3a9.57,9.57,0,0,1,.91-1.29,2.4,2.4,0,0,1,1.24-.78,1.76,1.76,0,0,1,.84,0Z"/><path class="cls-2" d="M229.46,267.22a3.16,3.16,0,0,1-.77,1.33,3.65,3.65,0,0,1-1.73.89,3.39,3.39,0,0,1-2.94-.39,5,5,0,0,1-1.71-2.94,5.12,5.12,0,0,1,.07-3.41,3.29,3.29,0,0,1,2.34-1.75,3.11,3.11,0,0,1,3.21.74l-.91.94a2.43,2.43,0,0,0-.89-.55,2,2,0,0,0-1.13,0,1.83,1.83,0,0,0-1.43,1.26,4.82,4.82,0,0,0,.11,2.44,5.61,5.61,0,0,0,.68,1.7,2,2,0,0,0,1,.78,2.18,2.18,0,0,0,1.32,0,2.11,2.11,0,0,0,1-.51,2.68,2.68,0,0,0,.57-.94Z"/><path class="cls-2" d="M237.27,262.27a5,5,0,0,1-.08,3.4,3.32,3.32,0,0,1-2.35,1.74,3.38,3.38,0,0,1-2.91-.38,4.9,4.9,0,0,1-1.73-2.94,5,5,0,0,1,.09-3.45,3.4,3.4,0,0,1,2.36-1.73,3.34,3.34,0,0,1,2.91.4A5.06,5.06,0,0,1,237.27,262.27Zm-1.36.35a4.21,4.21,0,0,0-1.15-2.24,2.24,2.24,0,0,0-3.27.84,4.29,4.29,0,0,0,.08,2.52,4.34,4.34,0,0,0,1.11,2.19,2.25,2.25,0,0,0,3.3-.84A4.27,4.27,0,0,0,235.91,262.62Z"/><path class="cls-2" d="M240.56,265.69l-2.93-11.41,1.32-.34,2.93,11.41Z"/><path class="cls-2" d="M250.18,259a4.92,4.92,0,0,1-.09,3.39,3.34,3.34,0,0,1-2.34,1.75,3.42,3.42,0,0,1-2.91-.39,6.22,6.22,0,0,1-1.64-6.38,3.9,3.9,0,0,1,5.27-1.34A5.09,5.09,0,0,1,250.18,259Zm-1.36.35a4.32,4.32,0,0,0-1.15-2.25,2.23,2.23,0,0,0-3.27.84,5.68,5.68,0,0,0,1.19,4.72,2.25,2.25,0,0,0,3.3-.84A4.27,4.27,0,0,0,248.82,259.31Z"/><path class="cls-2" d="M262.66,260l-1.21-4.73a8.85,8.85,0,0,0-.5-1.56.87.87,0,0,0-.46-.45,1.36,1.36,0,0,0-.74,0,1.9,1.9,0,0,0-.82.52,8,8,0,0,0-1,1.37l1.46,5.67-1.32.34-1.21-4.73a8.74,8.74,0,0,0-.49-1.51.94.94,0,0,0-.46-.48,1.13,1.13,0,0,0-.73,0,2,2,0,0,0-.91.6,6,6,0,0,0-1,1.28l1.46,5.68-1.32.34-2.07-8,1.32-.34.31,1.2a6.13,6.13,0,0,1,.91-1.29,2.52,2.52,0,0,1,1.27-.79,2.16,2.16,0,0,1,1.39,0,1.94,1.94,0,0,1,.95,1,8.48,8.48,0,0,1,1-1.44,2.52,2.52,0,0,1,1.33-.83,2.14,2.14,0,0,1,1.26,0,1.81,1.81,0,0,1,.88.73,5.4,5.4,0,0,1,.64,1.64l1.38,5.36Z"/><path class="cls-2" d="M271.57,257.72,270.35,253a6.36,6.36,0,0,0-.5-1.5,1,1,0,0,0-.52-.46,1.37,1.37,0,0,0-.8,0,2.65,2.65,0,0,0-1.09.69,8.82,8.82,0,0,0-1.06,1.26l1.46,5.68-1.32.34-2.06-8,1.32-.33.3,1.19a6.82,6.82,0,0,1,1.05-1.33,3.08,3.08,0,0,1,1.38-.81,2.14,2.14,0,0,1,1.88.22,3.67,3.67,0,0,1,1.12,2.1l1.38,5.36Z"/><path class="cls-2" d="M97.68,322.46l-.25-1a8.19,8.19,0,0,1-1,1.2,2.94,2.94,0,0,1-1.31.72,2.34,2.34,0,0,1-2-.25,2.67,2.67,0,0,1-1.09-1.63A2.8,2.8,0,0,1,92,320a2.33,2.33,0,0,1,.72-1.11,5.83,5.83,0,0,1,1.67-.92l1.93-.68-.1-.39a1.41,1.41,0,0,0-.84-1.13,2.6,2.6,0,0,0-1.51,0,2.42,2.42,0,0,0-1.18.6,2,2,0,0,0-.48.78L91,316.84a2.46,2.46,0,0,1,.86-1.31,4.47,4.47,0,0,1,1.78-.84,4,4,0,0,1,2.65,0,2.8,2.8,0,0,1,1.31,2l1.4,5.46Zm-1-4.07-1.26.45a4,4,0,0,0-1.71,1,1.39,1.39,0,0,0-.24,1.29,1.37,1.37,0,0,0,.62.95,1.66,1.66,0,0,0,1.16,0,1.68,1.68,0,0,0,.56-.26,4.06,4.06,0,0,0,.51-.42,4.54,4.54,0,0,0,.45-.52l.41-.54Z"/><path class="cls-2" d="M107.29,315.65a5.51,5.51,0,0,1,0,3.38,2.78,2.78,0,0,1-2,1.74,3.44,3.44,0,0,1-1.32.07,4.3,4.3,0,0,1-1.23-.37l.17.66-1.32.34-2.93-11.41,1.32-.34L101,313.9a4.06,4.06,0,0,1,.9-1,3.21,3.21,0,0,1,1.29-.65,2.67,2.67,0,0,1,2.54.5A5.58,5.58,0,0,1,107.29,315.65Zm-1.35.38a4.4,4.4,0,0,0-1.09-2.2,1.66,1.66,0,0,0-1.61-.36,2.56,2.56,0,0,0-1.11.62,5.27,5.27,0,0,0-.82,1l1.09,4.25a4.21,4.21,0,0,0,1.17.36,2.78,2.78,0,0,0,1.19,0,1.74,1.74,0,0,0,1.24-1.12A4.24,4.24,0,0,0,105.94,316Z"/><path class="cls-2" d="M116.18,313.45a5,5,0,0,1-.09,3.39,3.9,3.9,0,0,1-5.26,1.37,6.2,6.2,0,0,1-1.63-6.39,3.36,3.36,0,0,1,2.36-1.73,3.29,3.29,0,0,1,2.9.4A5.08,5.08,0,0,1,116.18,313.45Zm-1.37.35a4.21,4.21,0,0,0-1.15-2.24,1.9,1.9,0,0,0-1.81-.33,2,2,0,0,0-1.46,1.17,4.29,4.29,0,0,0,.08,2.52,4.38,4.38,0,0,0,1.11,2.19,1.92,1.92,0,0,0,1.86.33,2,2,0,0,0,1.44-1.17A4.19,4.19,0,0,0,114.81,313.8Z"/><path class="cls-2" d="M122.45,316.1l-1.3.33-4.88-7.31,1.42-.36,3.7,5.77.45-6.84,1.36-.35Z"/><path class="cls-2" d="M126.78,310.87a3.84,3.84,0,0,0,1.13,2.13,2.16,2.16,0,0,0,1.92.23,1.92,1.92,0,0,0,.88-.47,2.62,2.62,0,0,0,.6-.93l1.26.4a3.38,3.38,0,0,1-.85,1.34,3.71,3.71,0,0,1-1.69.83,3.42,3.42,0,0,1-2.94-.35,4.91,4.91,0,0,1-1.69-2.92,5.28,5.28,0,0,1,0-3.48,3.26,3.26,0,0,1,2.33-1.72,3,3,0,0,1,2.58.3,4.28,4.28,0,0,1,1.49,2.56l.19.74Zm3.67-2a3,3,0,0,0-.88-1.57A1.72,1.72,0,0,0,128,307a1.87,1.87,0,0,0-1.28.91,3.39,3.39,0,0,0-.18,1.89Z"/><path class="cls-2" d="M144.38,310.47l-1.21-4.74a7.15,7.15,0,0,0-.51-1.5,1,1,0,0,0-.51-.46,1.5,1.5,0,0,0-.81,0,2.56,2.56,0,0,0-1.08.69,7.89,7.89,0,0,0-1.07,1.27l1.46,5.67-1.32.34-2.93-11.4,1.32-.34,1.17,4.56a6.48,6.48,0,0,1,1.05-1.32,3,3,0,0,1,1.38-.82,2.18,2.18,0,0,1,1.88.22,3.67,3.67,0,0,1,1.12,2.1l1.38,5.37Z"/><path class="cls-2" d="M147.68,311.44a2.83,2.83,0,0,0,1.21-.08c.62-.15,1-.85,1.14-2.08l.09-.76-4.88-6.84,1.42-.37,3.73,5.32.72-6.46,1.37-.35-1.21,9.53a5.13,5.13,0,0,1-.68,2.17,2.42,2.42,0,0,1-1.48,1,4.55,4.55,0,0,1-.78.12,3.33,3.33,0,0,1-.7,0Z"/><path class="cls-2" d="M161,306.21l-.2-.8a4.29,4.29,0,0,1-.9,1,3.36,3.36,0,0,1-1.28.64,2.68,2.68,0,0,1-2.52-.51,5.42,5.42,0,0,1-1.58-2.9,5.36,5.36,0,0,1,.05-3.36,2.86,2.86,0,0,1,2.07-1.78,3.44,3.44,0,0,1,2.47.31l-1-4,1.33-.34,2.93,11.41Zm-1.6-6.23a3.4,3.4,0,0,0-2.29-.34,1.81,1.81,0,0,0-1.27,1.14,4.07,4.07,0,0,0,0,2.5q.78,3,2.7,2.55a2.64,2.64,0,0,0,1.12-.62,5.14,5.14,0,0,0,.8-1Z"/><path class="cls-2" d="M167.5,297.35a1.67,1.67,0,0,0-.63.06,2.53,2.53,0,0,0-1.07.57,5.4,5.4,0,0,0-1,1.32l1.43,5.56-1.32.34-2.06-8,1.31-.34.34,1.31a9.36,9.36,0,0,1,.9-1.3,2.44,2.44,0,0,1,1.24-.78,1.76,1.76,0,0,1,.84,0Z"/><path class="cls-2" d="M176.27,298a5,5,0,0,1-.08,3.4,3.32,3.32,0,0,1-2.35,1.74,3.38,3.38,0,0,1-2.91-.38,4.9,4.9,0,0,1-1.73-2.94,5,5,0,0,1,.09-3.45,3.4,3.4,0,0,1,2.36-1.73,3.34,3.34,0,0,1,2.91.4A5,5,0,0,1,176.27,298Zm-1.36.35a4.21,4.21,0,0,0-1.15-2.24,1.93,1.93,0,0,0-1.81-.33,2,2,0,0,0-1.46,1.17,4.29,4.29,0,0,0,.08,2.52,4.34,4.34,0,0,0,1.11,2.19,2.25,2.25,0,0,0,3.3-.84A4.27,4.27,0,0,0,174.91,298.36Z"/><path class="cls-2" d="M183.51,300.41a5.28,5.28,0,0,1-1.45.63,2.24,2.24,0,0,1-1.93-.19,3.32,3.32,0,0,1-1-1.89l-1.15-4.5-1.15.29-.29-1.1,1.15-.3-.57-2.23,1.31-.34L179,293l2-.53.28,1.11-2,.52,1.1,4.25a3.68,3.68,0,0,0,.55,1.35.89.89,0,0,0,1,.19,2.76,2.76,0,0,0,1-.49Z"/><path class="cls-2" d="M190.13,298.71,188.92,294a6.72,6.72,0,0,0-.51-1.5,1,1,0,0,0-.51-.46,1.41,1.41,0,0,0-.81,0,2.56,2.56,0,0,0-1.08.69,8.26,8.26,0,0,0-1.07,1.26l1.46,5.68-1.32.34-2.93-11.41,1.32-.34,1.17,4.57a6.82,6.82,0,0,1,1.05-1.33,3.08,3.08,0,0,1,1.38-.81,2.14,2.14,0,0,1,1.88.22,3.67,3.67,0,0,1,1.12,2.1l1.38,5.36Z"/><path class="cls-2" d="M194,293.61a3.77,3.77,0,0,0,1.13,2.14A2.22,2.22,0,0,0,197,296a2,2,0,0,0,.88-.47,2.72,2.72,0,0,0,.6-.94l1.26.4a3.35,3.35,0,0,1-.85,1.35,3.87,3.87,0,0,1-1.69.83,3.41,3.41,0,0,1-2.94-.36,4.89,4.89,0,0,1-1.7-2.92,5.2,5.2,0,0,1,0-3.48,3.26,3.26,0,0,1,2.33-1.72,3,3,0,0,1,2.57.3,4.23,4.23,0,0,1,1.49,2.57l.19.73Zm3.67-2a2.87,2.87,0,0,0-.89-1.56,1.71,1.71,0,0,0-1.58-.23,1.81,1.81,0,0,0-1.27.9,3.42,3.42,0,0,0-.18,1.9Z"/><path class="cls-2" d="M204.89,287.74a1.76,1.76,0,0,0-.64.07,2.69,2.69,0,0,0-1.07.56,5.75,5.75,0,0,0-1,1.33l1.42,5.56-1.32.33-2.06-8,1.32-.34.33,1.3a8.75,8.75,0,0,1,.91-1.29,2.36,2.36,0,0,1,1.24-.78,1.76,1.76,0,0,1,.84,0Z"/><path class="cls-2" d="M217.74,291.62l-1.21-4.73a8.85,8.85,0,0,0-.5-1.56.87.87,0,0,0-.46-.45,1.36,1.36,0,0,0-.74,0,1.9,1.9,0,0,0-.82.52,8.27,8.27,0,0,0-1,1.36l1.46,5.68-1.32.34-1.21-4.73a8.74,8.74,0,0,0-.49-1.51,1,1,0,0,0-.46-.49,1.22,1.22,0,0,0-.73,0,2,2,0,0,0-.91.6,6,6,0,0,0-1,1.28l1.46,5.68-1.32.34-2.07-8,1.32-.34.31,1.2a6.47,6.47,0,0,1,.91-1.3,2.57,2.57,0,0,1,1.27-.78,2.16,2.16,0,0,1,1.39,0,1.94,1.94,0,0,1,.95,1,9,9,0,0,1,1-1.45,2.57,2.57,0,0,1,1.33-.82,2.06,2.06,0,0,1,1.26,0,1.81,1.81,0,0,1,.88.73,5.4,5.4,0,0,1,.64,1.64l1.38,5.36Z"/><path class="cls-2" d="M226.17,289.46l-.26-1a7.76,7.76,0,0,1-1,1.21,2.87,2.87,0,0,1-1.32.71,2.28,2.28,0,0,1-2-.25,3.07,3.07,0,0,1-1.11-3.09,2.33,2.33,0,0,1,.72-1.11,5.36,5.36,0,0,1,1.67-.91l1.93-.69-.1-.39a1.47,1.47,0,0,0-.84-1.13,2.81,2.81,0,0,0-1.52,0,2.38,2.38,0,0,0-1.18.61,2,2,0,0,0-.47.77l-1.25-.38a2.5,2.5,0,0,1,.86-1.31,4.41,4.41,0,0,1,1.78-.84,4,4,0,0,1,2.64,0,2.77,2.77,0,0,1,1.31,2l1.41,5.47Zm-1-4.08-1.25.45a3.85,3.85,0,0,0-1.72,1,1.38,1.38,0,0,0-.24,1.29,1.33,1.33,0,0,0,.63.94,1.66,1.66,0,0,0,1.16,0,1.61,1.61,0,0,0,.56-.27,3.84,3.84,0,0,0,.5-.42,4.54,4.54,0,0,0,.45-.52l.42-.54Z"/><path class="cls-2" d="M230.09,288.45,227.16,277l1.32-.34,2.93,11.41Z"/><path class="cls-2" d="M241.51,285.51l-1.3.34-4.88-7.32,1.42-.36,3.71,5.78.44-6.85,1.37-.35Z"/><path class="cls-2" d="M245.85,280.29a3.77,3.77,0,0,0,1.12,2.13,2.19,2.19,0,0,0,1.92.23,2,2,0,0,0,.89-.47,2.61,2.61,0,0,0,.59-.93l1.26.39a3.44,3.44,0,0,1-.84,1.35,3.76,3.76,0,0,1-1.69.83,3.4,3.4,0,0,1-2.95-.36,4.88,4.88,0,0,1-1.69-2.92,5.28,5.28,0,0,1,0-3.48,3.28,3.28,0,0,1,2.33-1.72,3,3,0,0,1,2.58.3,4.31,4.31,0,0,1,1.49,2.57l.19.73Zm3.67-2.05a2.93,2.93,0,0,0-.89-1.56,1.71,1.71,0,0,0-1.58-.23,1.83,1.83,0,0,0-1.28.9,3.35,3.35,0,0,0-.17,1.9Z"/><path class="cls-2" d="M259.21,281,258,276.23a6.12,6.12,0,0,0-.51-1.5,1,1,0,0,0-.51-.46,1.5,1.5,0,0,0-.81,0,2.69,2.69,0,0,0-1.08.69,7.84,7.84,0,0,0-1.06,1.27l1.46,5.68-1.32.34-2.06-8,1.31-.34.31,1.2a6.82,6.82,0,0,1,1.05-1.33,3,3,0,0,1,1.38-.82,2.15,2.15,0,0,1,1.88.23,3.67,3.67,0,0,1,1.12,2.1l1.38,5.36Z"/><path class="cls-2" d="M267.08,279a5.56,5.56,0,0,1-1.45.62,2.21,2.21,0,0,1-1.92-.19,3.27,3.27,0,0,1-1.06-1.89L261.5,273l-1.15.3-.29-1.11,1.15-.29-.57-2.24,1.32-.34.57,2.24,2-.53.28,1.11-2,.52,1.1,4.25a3.68,3.68,0,0,0,.55,1.35.89.89,0,0,0,1,.2,2.7,2.7,0,0,0,1-.5Z"/><path class="cls-2" d="M273.59,275a2.22,2.22,0,0,1-.34,2,3.68,3.68,0,0,1-2.11,1.23,4.21,4.21,0,0,1-1.89.08,2.53,2.53,0,0,1-1.44-.77l.89-.92a2.18,2.18,0,0,0,2.2.48,2.21,2.21,0,0,0,1.22-.67,1.13,1.13,0,0,0,.2-1,.92.92,0,0,0-.3-.51,1.16,1.16,0,0,0-.57-.25,9.56,9.56,0,0,0-1.42-.08,4.44,4.44,0,0,1-2.26-.4,2.14,2.14,0,0,1-1-1.39,2.21,2.21,0,0,1,.33-1.91,3.34,3.34,0,0,1,1.95-1.19,3.62,3.62,0,0,1,1.87,0,2.88,2.88,0,0,1,1.3.73l-.88.92a2.26,2.26,0,0,0-3.07.09,1,1,0,0,0-.22,1,.89.89,0,0,0,.6.69,4.76,4.76,0,0,0,1.36.13,8.76,8.76,0,0,1,2.06.17,2.08,2.08,0,0,1,1,.56A2.45,2.45,0,0,1,273.59,275Z"/><path class="cls-2" d="M284.5,274.47a5.34,5.34,0,0,1-1.46.63,2.25,2.25,0,0,1-1.92-.19,3.21,3.21,0,0,1-1.05-1.89l-1.16-4.5-1.15.29-.28-1.1,1.15-.3-.58-2.23,1.32-.34.57,2.24,2-.53.28,1.1-2,.53,1.09,4.25a3.71,3.71,0,0,0,.55,1.34.87.87,0,0,0,1,.2,2.69,2.69,0,0,0,1-.49Z"/><path class="cls-2" d="M291.55,268.4a4.92,4.92,0,0,1-.09,3.39,3.32,3.32,0,0,1-2.34,1.75,3.42,3.42,0,0,1-2.91-.38,6.24,6.24,0,0,1-1.64-6.39,3.4,3.4,0,0,1,2.36-1.73,3.31,3.31,0,0,1,2.91.4A5,5,0,0,1,291.55,268.4Zm-1.36.35A4.32,4.32,0,0,0,289,266.5a2.25,2.25,0,0,0-3.27.85,4.32,4.32,0,0,0,.07,2.51,4.38,4.38,0,0,0,1.12,2.2,1.92,1.92,0,0,0,1.86.33,2,2,0,0,0,1.44-1.17A4.27,4.27,0,0,0,290.19,268.75Z"/><path class="cls-2" d="M103.7,336.64a5.55,5.55,0,0,1,0,3.39,2.79,2.79,0,0,1-2,1.73,3.26,3.26,0,0,1-1.32.07,4.3,4.3,0,0,1-1.23-.37l.17.66-1.32.34L95,331.05l1.32-.33,1.07,4.17a4.06,4.06,0,0,1,.9-1,3.21,3.21,0,0,1,1.29-.65,2.63,2.63,0,0,1,2.53.51A5.44,5.44,0,0,1,103.7,336.64Zm-1.35.38a4.4,4.4,0,0,0-1.09-2.2,1.66,1.66,0,0,0-1.61-.36,2.67,2.67,0,0,0-1.11.62,5.76,5.76,0,0,0-.83,1l1.1,4.26a4.21,4.21,0,0,0,1.17.35,2.78,2.78,0,0,0,1.19,0,1.74,1.74,0,0,0,1.24-1.12A4.24,4.24,0,0,0,102.35,337Z"/><path class="cls-2" d="M106.91,336a3.84,3.84,0,0,0,1.13,2.14,2.22,2.22,0,0,0,1.92.23,2.11,2.11,0,0,0,.89-.47,2.61,2.61,0,0,0,.59-.93l1.26.39a3.35,3.35,0,0,1-.85,1.35,3.76,3.76,0,0,1-1.69.83,3.42,3.42,0,0,1-2.94-.36,4.88,4.88,0,0,1-1.69-2.92,5.28,5.28,0,0,1,0-3.48,3.26,3.26,0,0,1,2.33-1.72,3,3,0,0,1,2.58.3A4.27,4.27,0,0,1,112,334l.19.73Zm3.68-2a3,3,0,0,0-.89-1.56,1.72,1.72,0,0,0-1.58-.23,1.83,1.83,0,0,0-1.28.9,3.42,3.42,0,0,0-.18,1.9Z"/><path class="cls-2" d="M119.24,337a5.28,5.28,0,0,1-1.45.63,2.24,2.24,0,0,1-1.93-.19,3.32,3.32,0,0,1-1-1.89l-1.16-4.5-1.14.29-.29-1.1,1.15-.3-.57-2.23,1.31-.34.58,2.24,2-.53.28,1.11-2,.52,1.09,4.25a3.84,3.84,0,0,0,.56,1.35.89.89,0,0,0,1,.19,2.76,2.76,0,0,0,1-.49Z"/><path class="cls-2" d="M124.67,335.6a5,5,0,0,1-1.45.62,2.21,2.21,0,0,1-1.92-.19,3.23,3.23,0,0,1-1.06-1.88l-1.15-4.51-1.15.3-.29-1.11,1.15-.29-.57-2.24,1.32-.34.57,2.24,2-.52.28,1.1-2,.52,1.1,4.26a3.69,3.69,0,0,0,.55,1.34.89.89,0,0,0,1,.2,2.93,2.93,0,0,0,1-.49Z"/><path class="cls-2" d="M126.06,331.13a3.84,3.84,0,0,0,1.12,2.13,2.21,2.21,0,0,0,1.93.23A2,2,0,0,0,130,333a2.61,2.61,0,0,0,.59-.93l1.26.39a3.33,3.33,0,0,1-.84,1.35,3.76,3.76,0,0,1-1.69.83,3.44,3.44,0,0,1-3-.35,5,5,0,0,1-1.69-2.92,5.3,5.3,0,0,1,0-3.49,3.3,3.3,0,0,1,2.33-1.72,3.05,3.05,0,0,1,2.58.3,4.26,4.26,0,0,1,1.49,2.57l.19.73Zm3.67-2.05a2.93,2.93,0,0,0-.89-1.56,1.71,1.71,0,0,0-1.58-.23,1.81,1.81,0,0,0-1.27.9,3.26,3.26,0,0,0-.18,1.9Z"/><path class="cls-2" d="M137,325.26a1.53,1.53,0,0,0-.64.06,2.59,2.59,0,0,0-1.07.57,5.21,5.21,0,0,0-1,1.32l1.43,5.56-1.32.34-2.06-8,1.32-.34L134,326a9.07,9.07,0,0,1,.91-1.29,2.36,2.36,0,0,1,1.24-.78,1.76,1.76,0,0,1,.84,0Z"/><path class="cls-2" d="M144.79,326.32a3.78,3.78,0,0,0,1.13,2.13,2.18,2.18,0,0,0,1.92.23,2.07,2.07,0,0,0,.88-.47,2.61,2.61,0,0,0,.59-.93l1.26.39a3.33,3.33,0,0,1-.84,1.35,3.76,3.76,0,0,1-1.69.83,3.4,3.4,0,0,1-2.95-.36,4.93,4.93,0,0,1-1.69-2.92,5.28,5.28,0,0,1,0-3.48,3.3,3.3,0,0,1,2.34-1.72,3,3,0,0,1,2.57.3,4.26,4.26,0,0,1,1.49,2.57l.19.73Zm3.67-2.05a2.93,2.93,0,0,0-.89-1.56,1.71,1.71,0,0,0-1.58-.23,1.81,1.81,0,0,0-1.27.9,3.25,3.25,0,0,0-.18,1.9Z"/><path class="cls-2" d="M158.17,327l-.21-.79a3.85,3.85,0,0,1-.9,1,3.17,3.17,0,0,1-1.28.65,2.67,2.67,0,0,1-2.51-.52,6.51,6.51,0,0,1-1.54-6.26,2.89,2.89,0,0,1,2.08-1.78,3.41,3.41,0,0,1,2.46.32l-1-4,1.32-.34,2.93,11.4Zm-1.6-6.22a3.4,3.4,0,0,0-2.29-.34,1.84,1.84,0,0,0-1.28,1.13,4,4,0,0,0,0,2.51q.78,3,2.69,2.55a2.51,2.51,0,0,0,1.12-.63,4.54,4.54,0,0,0,.81-1Z"/><path class="cls-2" d="M167.08,324.7l-.3-1.19a6.64,6.64,0,0,1-1.09,1.37,3,3,0,0,1-1.33.78,2.64,2.64,0,0,1-1.39,0,1.87,1.87,0,0,1-1-.72,5.53,5.53,0,0,1-.66-1.64L160,318l1.32-.33,1.22,4.74a6.12,6.12,0,0,0,.51,1.5,1,1,0,0,0,.52.46,1.46,1.46,0,0,0,.8,0,2.63,2.63,0,0,0,1.08-.69,9.51,9.51,0,0,0,1.06-1.27L165,316.67l1.32-.34,2.06,8Z"/><path class="cls-2" d="M176.72,320.9a3,3,0,0,1-.77,1.33,3.57,3.57,0,0,1-1.73.89,3.36,3.36,0,0,1-2.94-.38,5,5,0,0,1-1.71-2.94,5.12,5.12,0,0,1,.07-3.41,3.3,3.3,0,0,1,2.35-1.76,3.08,3.08,0,0,1,3.2.75l-.91.93a2.4,2.4,0,0,0-.89-.54,2,2,0,0,0-1.13,0,1.8,1.8,0,0,0-1.42,1.26,4.69,4.69,0,0,0,.1,2.44,5.72,5.72,0,0,0,.68,1.7,2.06,2.06,0,0,0,1,.78,2.18,2.18,0,0,0,1.32,0,2.11,2.11,0,0,0,1-.51,2.64,2.64,0,0,0,.57-1Z"/><path class="cls-2" d="M183.46,320.5l-.26-1a7.24,7.24,0,0,1-1,1.21,2.83,2.83,0,0,1-1.31.71,2.29,2.29,0,0,1-2-.25,2.7,2.7,0,0,1-1.08-1.63,2.8,2.8,0,0,1,0-1.46,2.33,2.33,0,0,1,.72-1.11,5.61,5.61,0,0,1,1.67-.91l1.93-.69L182,315a1.45,1.45,0,0,0-.84-1.13,2.78,2.78,0,0,0-1.51,0,2.34,2.34,0,0,0-1.18.61,1.88,1.88,0,0,0-.48.77l-1.25-.38a2.5,2.5,0,0,1,.86-1.31,4.47,4.47,0,0,1,1.78-.84,4.07,4.07,0,0,1,2.65,0,2.8,2.8,0,0,1,1.31,2l1.4,5.47Zm-1-4.08-1.26.45a3.91,3.91,0,0,0-1.72,1,1.62,1.62,0,0,0,.39,2.23,1.66,1.66,0,0,0,1.16,0,1.53,1.53,0,0,0,.56-.27,3.35,3.35,0,0,0,.51-.42,4.54,4.54,0,0,0,.45-.52l.41-.54Z"/><path class="cls-2" d="M191.18,318.51a5.28,5.28,0,0,1-1.45.63,2.25,2.25,0,0,1-1.92-.19,3.27,3.27,0,0,1-1.06-1.89l-1.15-4.5-1.15.29-.29-1.1,1.15-.3-.57-2.23,1.32-.34.57,2.24,2-.53.28,1.1-2,.53,1.1,4.25a3.54,3.54,0,0,0,.55,1.34.87.87,0,0,0,1,.2,2.69,2.69,0,0,0,1-.49Z"/><path class="cls-2" d="M192.57,314a3.84,3.84,0,0,0,1.12,2.13,2.18,2.18,0,0,0,1.93.23,2,2,0,0,0,.88-.47,2.61,2.61,0,0,0,.59-.93l1.26.4a3.47,3.47,0,0,1-.84,1.35,3.76,3.76,0,0,1-1.69.82,3.44,3.44,0,0,1-2.95-.35,5,5,0,0,1-1.69-2.92,5.28,5.28,0,0,1,0-3.48,3.3,3.3,0,0,1,2.34-1.72,3,3,0,0,1,2.57.3A4.23,4.23,0,0,1,197.6,312l.19.74Zm3.67-2a3,3,0,0,0-.89-1.57,1.74,1.74,0,0,0-1.58-.23,1.85,1.85,0,0,0-1.27.91,3.22,3.22,0,0,0-.18,1.89Z"/><path class="cls-2" d="M210.17,313.64,209,308.9a7.32,7.32,0,0,0-.5-1.5,1,1,0,0,0-.52-.46,1.5,1.5,0,0,0-.81,0,2.63,2.63,0,0,0-1.08.69,7.84,7.84,0,0,0-1.06,1.27l1.46,5.67-1.32.34-2.93-11.4,1.32-.34,1.17,4.56a6.76,6.76,0,0,1,1-1.32,3,3,0,0,1,1.38-.82,2.18,2.18,0,0,1,1.88.22,3.73,3.73,0,0,1,1.12,2.1l1.38,5.37Z"/><path class="cls-2" d="M213,302.18a.83.83,0,0,1-.05.68,1.16,1.16,0,0,1-.62.33.89.89,0,0,1-.72,0,1,1,0,0,1-.28-1.18,1,1,0,0,1,.6-.35,1,1,0,0,1,.71,0A.8.8,0,0,1,213,302.18ZM214,312.64l-2.07-8,1.32-.34,2.07,8Z"/><path class="cls-2" d="M222.89,308.06a2.19,2.19,0,0,1-.35,2,3.65,3.65,0,0,1-2.1,1.22,4.25,4.25,0,0,1-1.9.08,2.54,2.54,0,0,1-1.44-.77l.9-.91a2.61,2.61,0,0,0,3.41-.2,1.1,1.1,0,0,0,.2-1,.92.92,0,0,0-.29-.51,1.36,1.36,0,0,0-.57-.24,9.28,9.28,0,0,0-1.43-.09,4.28,4.28,0,0,1-2.25-.39,2.4,2.4,0,0,1-.66-3.3,3.32,3.32,0,0,1,2-1.19,3.51,3.51,0,0,1,1.87,0,2.84,2.84,0,0,1,1.3.73l-.89.91a2.28,2.28,0,0,0-3.06.09,1,1,0,0,0-.23,1,.89.89,0,0,0,.6.69,4.53,4.53,0,0,0,1.37.13,8,8,0,0,1,2,.18,2.15,2.15,0,0,1,1,.55A2.49,2.49,0,0,1,222.89,308.06Z"/><path class="cls-2" d="M234.72,305a2.22,2.22,0,0,1-.35,2,3.65,3.65,0,0,1-2.1,1.22,4.25,4.25,0,0,1-1.9.08,2.55,2.55,0,0,1-1.44-.76l.89-.92a2.62,2.62,0,0,0,3.42-.2,1.1,1.1,0,0,0,.2-1,.91.91,0,0,0-.29-.5,1.25,1.25,0,0,0-.57-.25,9.28,9.28,0,0,0-1.43-.09,4.28,4.28,0,0,1-2.25-.39,2.13,2.13,0,0,1-1-1.4,2.15,2.15,0,0,1,.32-1.9,3.32,3.32,0,0,1,2-1.19,3.62,3.62,0,0,1,1.87,0,2.84,2.84,0,0,1,1.3.73l-.89.91a2.08,2.08,0,0,0-2-.48,2.1,2.1,0,0,0-1,.57,1.07,1.07,0,0,0-.22,1,.86.86,0,0,0,.6.68,4.49,4.49,0,0,0,1.37.13,8.52,8.52,0,0,1,2.05.18,2,2,0,0,1,1,.56A2.31,2.31,0,0,1,234.72,305Z"/><path class="cls-2" d="M241.23,305.66a5.24,5.24,0,0,1-1.45.62,2.24,2.24,0,0,1-1.93-.19,3.32,3.32,0,0,1-1-1.89l-1.16-4.5-1.15.3-.28-1.11,1.15-.29-.57-2.24,1.31-.34.58,2.24,2-.52.28,1.1-2,.52,1.09,4.25a3.66,3.66,0,0,0,.56,1.35.88.88,0,0,0,1,.2,2.83,2.83,0,0,0,1-.5Z"/><path class="cls-2" d="M247.55,304l-.3-1.19a6.64,6.64,0,0,1-1.09,1.37,3.14,3.14,0,0,1-1.34.78,2.6,2.6,0,0,1-1.38,0,1.76,1.76,0,0,1-1-.73,4.88,4.88,0,0,1-.66-1.63l-1.38-5.37,1.32-.34L243,301.7a6.12,6.12,0,0,0,.51,1.5,1,1,0,0,0,.52.46,1.39,1.39,0,0,0,.8,0,2.47,2.47,0,0,0,1.07-.68,8.87,8.87,0,0,0,1.07-1.27L245.49,296l1.32-.34,2.06,8Z"/><path class="cls-2" d="M256.54,301.72l-.21-.79a3.85,3.85,0,0,1-.9,1,3.14,3.14,0,0,1-1.27.65,2.68,2.68,0,0,1-2.52-.52,5.4,5.4,0,0,1-1.59-2.89,5.46,5.46,0,0,1,0-3.37,2.91,2.91,0,0,1,2.08-1.78,3.41,3.41,0,0,1,2.46.32l-1-4,1.32-.34,2.93,11.4Zm-1.6-6.22a3.4,3.4,0,0,0-2.29-.34,1.83,1.83,0,0,0-1.28,1.13,4,4,0,0,0,0,2.51q.78,3,2.7,2.54a2.41,2.41,0,0,0,1.11-.62,4.54,4.54,0,0,0,.81-1Z"/><path class="cls-2" d="M260.43,296.61a3.84,3.84,0,0,0,1.13,2.13,2.19,2.19,0,0,0,1.92.23,2,2,0,0,0,.89-.47,2.61,2.61,0,0,0,.59-.93l1.26.39a3.35,3.35,0,0,1-.85,1.35,3.67,3.67,0,0,1-1.68.83,3.44,3.44,0,0,1-2.95-.35,4.94,4.94,0,0,1-1.69-2.92,5.27,5.27,0,0,1,0-3.48,3.26,3.26,0,0,1,2.33-1.73,3.06,3.06,0,0,1,2.58.3,4.31,4.31,0,0,1,1.49,2.57l.19.74Zm3.68-2.05a3,3,0,0,0-.89-1.56,1.71,1.71,0,0,0-1.58-.23,1.83,1.83,0,0,0-1.28.9,3.43,3.43,0,0,0-.18,1.9Z"/><path class="cls-2" d="M273.8,297.29l-1.22-4.73a6.54,6.54,0,0,0-.51-1.51,1,1,0,0,0-.52-.46,1.39,1.39,0,0,0-.8,0,2.49,2.49,0,0,0-1.08.68,8.3,8.3,0,0,0-1.06,1.27l1.46,5.68-1.32.34-2.07-8,1.32-.34.31,1.2a6.82,6.82,0,0,1,1.05-1.33,3.1,3.1,0,0,1,1.38-.82,2.18,2.18,0,0,1,1.88.23,3.73,3.73,0,0,1,1.12,2.1l1.38,5.36Z"/><path class="cls-2" d="M281.67,295.27a5,5,0,0,1-1.45.62,2.24,2.24,0,0,1-1.93-.19,3.28,3.28,0,0,1-1.05-1.88l-1.16-4.51-1.14.3-.29-1.11,1.15-.29-.57-2.24,1.31-.34.58,2.24,2-.52.28,1.1-2,.52,1.09,4.26a3.86,3.86,0,0,0,.56,1.34.89.89,0,0,0,1,.2,2.93,2.93,0,0,0,1-.49Z"/><path class="cls-2" d="M288.18,291.29a2.2,2.2,0,0,1-.34,2,3.72,3.72,0,0,1-2.11,1.23,4.25,4.25,0,0,1-1.9.08,2.54,2.54,0,0,1-1.43-.77l.89-.91a2.19,2.19,0,0,0,2.19.47,2.14,2.14,0,0,0,1.22-.67,1.11,1.11,0,0,0,.21-1,.92.92,0,0,0-.3-.51,1.25,1.25,0,0,0-.57-.24,9.12,9.12,0,0,0-1.42-.09,4.51,4.51,0,0,1-2.26-.39,2.15,2.15,0,0,1-1-1.4,2.21,2.21,0,0,1,.33-1.91,3.34,3.34,0,0,1,2-1.19,3.61,3.61,0,0,1,1.87,0,2.78,2.78,0,0,1,1.3.72l-.88.92a2.12,2.12,0,0,0-2-.49,2.15,2.15,0,0,0-1,.58,1,1,0,0,0-.23,1,.92.92,0,0,0,.61.69,4.76,4.76,0,0,0,1.36.13,8.66,8.66,0,0,1,2.05.17,2.16,2.16,0,0,1,1,.56A2.49,2.49,0,0,1,288.18,291.29Z"/><path class="cls-2" d="M292.4,291.71a.87.87,0,0,1-.06.73,1.15,1.15,0,0,1-.67.37.9.9,0,0,1-.78,0,1.14,1.14,0,0,1-.31-1.3,1,1,0,0,1,.65-.38,1.09,1.09,0,0,1,.79,0A1,1,0,0,1,292.4,291.71Z"/><path class="cls-2" d="M195.85,38.87a1.83,1.83,0,0,1,.46,1.39,2.06,2.06,0,0,1-.92,1.22l-.67.49,1.08,1.45-.57.42-3.17-4.27,1.26-.94a2.13,2.13,0,0,1,1.4-.53A1.71,1.71,0,0,1,195.85,38.87Zm-.59.46a1.07,1.07,0,0,0-.71-.49,1.35,1.35,0,0,0-.91.36l-.63.47,1.33,1.78.55-.4a2.29,2.29,0,0,0,.59-.58.71.71,0,0,0,.1-.51A1.7,1.7,0,0,0,195.26,39.33Z"/><path class="cls-2" d="M200.69,40.32l-.24-.44a4.78,4.78,0,0,1-.33.68,1.42,1.42,0,0,1-.54.49,1.13,1.13,0,0,1-1,.11,1.3,1.3,0,0,1-.7-.65,1.32,1.32,0,0,1-.18-.69,1.15,1.15,0,0,1,.21-.6,2.84,2.84,0,0,1,.68-.63l.84-.54-.1-.17a.68.68,0,0,0-.53-.44,1.24,1.24,0,0,0-.71.19,1.07,1.07,0,0,0-.48.42,1,1,0,0,0-.14.42l-.63,0a1.2,1.2,0,0,1,.25-.71,2.24,2.24,0,0,1,.75-.61,1.91,1.91,0,0,1,1.24-.3,1.32,1.32,0,0,1,.85.78L201.27,40Zm-1-1.8-.54.35a1.91,1.91,0,0,0-.69.67.65.65,0,0,0,0,.63.67.67,0,0,0,.41.38.86.86,0,0,0,.55-.12.71.71,0,0,0,.23-.19,1.24,1.24,0,0,0,.19-.26,2.69,2.69,0,0,0,.16-.29,2.88,2.88,0,0,1,.13-.31Z"/><path class="cls-2" d="M204.8,36.5a2.61,2.61,0,0,1,.12,1.63,1.43,1.43,0,0,1-.93.95,1.7,1.7,0,0,1-1.21,0l.61,1.74-.62.22-1.85-5.23.62-.22.14.38a1.9,1.9,0,0,1,.39-.53,1.64,1.64,0,0,1,.59-.37,1.32,1.32,0,0,1,1.24.14A2.63,2.63,0,0,1,204.8,36.5Zm-.64.24c-.34-1-.82-1.34-1.42-1.12a1.2,1.2,0,0,0-.52.35,2.44,2.44,0,0,0-.35.51l.72,2a1.63,1.63,0,0,0,1.12.06.9.9,0,0,0,.57-.6A1.92,1.92,0,0,0,204.16,36.74Z"/><path class="cls-2" d="M206.47,36.22a1.9,1.9,0,0,0,.49,1.06,1,1,0,0,0,.93.17.94.94,0,0,0,.44-.2,1.27,1.27,0,0,0,.31-.44l.6.23a1.46,1.46,0,0,1-.45.63A1.82,1.82,0,0,1,208,38a1.67,1.67,0,0,1-1.42-.25,2.44,2.44,0,0,1-.74-1.47,2.54,2.54,0,0,1,.12-1.69,1.61,1.61,0,0,1,1.18-.77,1.54,1.54,0,0,1,1.24.22,2.13,2.13,0,0,1,.65,1.29l.07.37Zm1.85-.89a1.47,1.47,0,0,0-.39-.78.83.83,0,0,0-.76-.16.89.89,0,0,0-.65.4,1.71,1.71,0,0,0-.14.92Z"/><path class="cls-2" d="M212.26,34a.71.71,0,0,0-.31,0,1.3,1.3,0,0,0-.56.17,2.72,2.72,0,0,0-.6.54L211,37.5l-.66,0-.27-4,.66,0,0,.65a3.93,3.93,0,0,1,.55-.53,1.14,1.14,0,0,1,.66-.27.79.79,0,0,1,.4.06Z"/><path class="cls-2" d="M213.33,37.42l.12-5.72.66,0L214,37.44Z"/><path class="cls-2" d="M215.93,35.61a1.82,1.82,0,0,0,.12,1.16,1.05,1.05,0,0,0,.83.45.84.84,0,0,0,.48,0,1.32,1.32,0,0,0,.44-.31l.5.4a1.74,1.74,0,0,1-.63.46,1.86,1.86,0,0,1-.91.07,1.69,1.69,0,0,1-1.27-.69,2.37,2.37,0,0,1-.24-1.62,2.58,2.58,0,0,1,.64-1.57,1.61,1.61,0,0,1,1.36-.36,1.49,1.49,0,0,1,1.11.6,2.09,2.09,0,0,1,.21,1.43l0,.36Zm2-.26a1.47,1.47,0,0,0-.12-.87.83.83,0,0,0-.67-.39.9.9,0,0,0-.74.18,1.65,1.65,0,0,0-.42.83Z"/><path class="cls-2" d="M222.08,37.74a1.1,1.1,0,0,1-.62.75,1.81,1.81,0,0,1-1.18,0,2.17,2.17,0,0,1-.83-.42,1.28,1.28,0,0,1-.42-.67l.6-.18a1.06,1.06,0,0,0,.81.73,1.05,1.05,0,0,0,.68,0,.53.53,0,0,0,.33-.38.38.38,0,0,0,0-.28.63.63,0,0,0-.18-.24,3.8,3.8,0,0,0-.58-.38,2.15,2.15,0,0,1-.86-.71,1.11,1.11,0,0,1-.08-.83,1.09,1.09,0,0,1,.6-.72,1.6,1.6,0,0,1,1.11,0,1.66,1.66,0,0,1,.8.43,1.3,1.3,0,0,1,.37.62l-.59.17a1,1,0,0,0-.74-.69,1,1,0,0,0-.58,0,.53.53,0,0,0-.34.38.43.43,0,0,0,.09.44,2.41,2.41,0,0,0,.55.38,3.63,3.63,0,0,1,.82.57,1.12,1.12,0,0,1,.28.46A1.21,1.21,0,0,1,222.08,37.74Z"/><path class="cls-2" d="M225.57,39.15a1.11,1.11,0,0,1-.71.66,1.82,1.82,0,0,1-1.18-.14,2.08,2.08,0,0,1-.75-.53,1.27,1.27,0,0,1-.34-.72l.62-.09a1.08,1.08,0,0,0,.71.83,1.05,1.05,0,0,0,.67.09.49.49,0,0,0,.37-.33.41.41,0,0,0,0-.28.58.58,0,0,0-.15-.26,4.68,4.68,0,0,0-.53-.46,2,2,0,0,1-.75-.81,1,1,0,0,1,0-.83,1.07,1.07,0,0,1,.69-.64,1.64,1.64,0,0,1,1.11.11,1.75,1.75,0,0,1,.73.54,1.37,1.37,0,0,1,.29.66l-.61.09a1,1,0,0,0-.64-.78,1.08,1.08,0,0,0-.57-.08.5.5,0,0,0-.39.33.43.43,0,0,0,0,.44,2,2,0,0,0,.49.45,4.08,4.08,0,0,1,.74.67.9.9,0,0,1,.21.5A1.17,1.17,0,0,1,225.57,39.15Z"/><path class="cls-2" d="M230.24,43.35l.73-5.11L228.29,42l-.55-.41,3.11-4.31.85.61L231,42.52l2.44-3.39.56.4-3.11,4.31Z"/><path class="cls-2" d="M233.38,46.24l.36-.35a4.14,4.14,0,0,1-.76-.13,1.43,1.43,0,0,1-.62-.37,1.14,1.14,0,0,1-.37-.88,1.31,1.31,0,0,1,.42-.86,1.22,1.22,0,0,1,.6-.37,1.17,1.17,0,0,1,.64,0,2.81,2.81,0,0,1,.8.47l.76.65.14-.14a.68.68,0,0,0,.26-.63,1.3,1.3,0,0,0-.38-.63,1.21,1.21,0,0,0-.54-.35,1.15,1.15,0,0,0-.45,0l-.14-.61a1.18,1.18,0,0,1,.76,0,2.15,2.15,0,0,1,.79.54,2,2,0,0,1,.65,1.1,1.35,1.35,0,0,1-.51,1l-1.94,1.93Zm1.45-1.44-.5-.42a1.83,1.83,0,0,0-.83-.47.65.65,0,0,0-.6.21.67.67,0,0,0-.24.5.79.79,0,0,0,.27.49.74.74,0,0,0,.25.17,1.33,1.33,0,0,0,.3.11,1.65,1.65,0,0,0,.32.06l.33,0Z"/><path class="cls-2" d="M235.75,49.12a2.89,2.89,0,0,1-.57-.53,1.07,1.07,0,0,1-.28-.89,1.59,1.59,0,0,1,.63-.84l1.79-1.39L237,45l.44-.34.35.45.89-.69.4.52-.88.69.63.81-.44.34-.63-.81L236,47.31a1.83,1.83,0,0,0-.49.5.44.44,0,0,0,.1.48,1.44,1.44,0,0,0,.42.36Z"/><path class="cls-2" d="M236.11,49.7l3.38-2.21.36.56-3.37,2.2Zm4.65-2.13a.36.36,0,0,1-.32.09.64.64,0,0,1-.25-.23.45.45,0,0,1-.09-.34.43.43,0,0,1,.19-.24.44.44,0,0,1,.31-.08.65.65,0,0,1,.36.55A.36.36,0,0,1,240.76,47.57Z"/><path class="cls-2" d="M240.41,53.28a2.37,2.37,0,0,1-1.62.32,1.91,1.91,0,0,1-1.2-2.35,2.43,2.43,0,0,1,1.22-1.13,2.45,2.45,0,0,1,1.64-.32,1.69,1.69,0,0,1,1.07.94,1.65,1.65,0,0,1,.12,1.42A2.44,2.44,0,0,1,240.41,53.28Zm-.31-.6a2.06,2.06,0,0,0,1-.79.94.94,0,0,0,0-.89,1,1,0,0,0-.71-.57,2,2,0,0,0-1.18.3,2.13,2.13,0,0,0-.93.76,1.1,1.1,0,0,0,.75,1.48A2.16,2.16,0,0,0,240.1,52.68Z"/><path class="cls-2" d="M239.74,57.45l2.26-.74a2.9,2.9,0,0,0,.71-.3.47.47,0,0,0,.21-.26.62.62,0,0,0,0-.39,1.18,1.18,0,0,0-.36-.5,3.53,3.53,0,0,0-.65-.48l-2.71.89L239,55l3.83-1.26.2.63-.57.19a3,3,0,0,1,.68.46,1.51,1.51,0,0,1,.44.65,1.07,1.07,0,0,1,0,.92,1.81,1.81,0,0,1-1,.61l-2.56.83Z"/><path class="cls-2" d="M240.58,61.18l5.3-.49.3,3.24-.64.06-.24-2.53-1.54.14.2,2.17-.65,0-.2-2.16-1.82.17.23,2.53-.64.06Z"/><path class="cls-2" d="M240.72,67.88l2.37.15a3.6,3.6,0,0,0,.78,0,.46.46,0,0,0,.28-.17.66.66,0,0,0,.11-.38,1.15,1.15,0,0,0-.15-.6,3.86,3.86,0,0,0-.43-.68L240.84,66l0-.66,4,.25,0,.66-.6,0a3.07,3.07,0,0,1,.46.69,1.41,1.41,0,0,1,.17.76,1,1,0,0,1-.38.83,1.8,1.8,0,0,1-1.14.21l-2.69-.17Z"/><path class="cls-2" d="M239.93,72.76a1.63,1.63,0,0,1-1.09-.66,1.81,1.81,0,0,1-.11-1.38,2.63,2.63,0,0,1,.69-1.35l.46.35a2.17,2.17,0,0,0-.61,1.11,1.16,1.16,0,0,0,.06.85,1,1,0,0,0,.7.42l.46.1a1.94,1.94,0,0,1-.24-.61,1.65,1.65,0,0,1,0-.7,1.33,1.33,0,0,1,.76-1,2.54,2.54,0,0,1,1.57-.05,2.42,2.42,0,0,1,1.41.75,1.43,1.43,0,0,1,.29,1.28,1.66,1.66,0,0,1-.68,1l.32.07-.14.65Zm3.11,0a1.68,1.68,0,0,0,.65-.92.85.85,0,0,0-.22-.83,2,2,0,0,0-1-.49,2.11,2.11,0,0,0-1.15,0,.84.84,0,0,0-.5.63,1.62,1.62,0,0,0,.27,1.19Z"/><path class="cls-2" d="M239.46,73.84l3.82,1.31-.22.62-3.81-1.3ZM244,76.2c-.15,0-.24-.11-.27-.2a.53.53,0,0,1,0-.34.43.43,0,0,1,.21-.28.39.39,0,0,1,.3,0,.34.34,0,0,1,.25.19.44.44,0,0,1,0,.34.45.45,0,0,1-.2.28A.33.33,0,0,1,244,76.2Z"/><path class="cls-2" d="M237.8,77.85l2.15,1a3.45,3.45,0,0,0,.72.27.51.51,0,0,0,.33,0,.67.67,0,0,0,.24-.31,1.24,1.24,0,0,0,.08-.61,3.87,3.87,0,0,0-.15-.8l-2.57-1.21.28-.6,3.65,1.72-.29.6-.54-.26a3,3,0,0,1,.17.81,1.41,1.41,0,0,1-.12.77,1.05,1.05,0,0,1-.67.63A1.82,1.82,0,0,1,240,79.6l-2.43-1.15Z"/><path class="cls-2" d="M238.31,80.88a1.86,1.86,0,0,0-1.1-.41,1.07,1.07,0,0,0-.77.55,1,1,0,0,0-.17.45,1.34,1.34,0,0,0,.09.53l-.58.27a1.73,1.73,0,0,1-.14-.76,1.85,1.85,0,0,1,.35-.85,1.64,1.64,0,0,1,1.18-.83,2.41,2.41,0,0,1,1.56.5,2.59,2.59,0,0,1,1.12,1.27,1.6,1.6,0,0,1-.28,1.38,1.47,1.47,0,0,1-1,.73,2.14,2.14,0,0,1-1.38-.44l-.3-.21Zm-.66,1.93a1.41,1.41,0,0,0,.82.28.84.84,0,0,0,.65-.43.89.89,0,0,0,.17-.74,1.64,1.64,0,0,0-.55-.75Z"/><path class="cls-2" d="M235.83,84.31a1.86,1.86,0,0,0-1-.56,1.09,1.09,0,0,0-.84.43.91.91,0,0,0-.23.43,1.24,1.24,0,0,0,0,.54l-.61.18a1.73,1.73,0,0,1,0-.78,1.94,1.94,0,0,1,.46-.79,1.66,1.66,0,0,1,1.28-.65,2.4,2.4,0,0,1,1.48.72,2.54,2.54,0,0,1,.93,1.41,1.62,1.62,0,0,1-.47,1.33,1.47,1.47,0,0,1-1.13.57,2,2,0,0,1-1.29-.63l-.28-.25Zm-.93,1.82a1.37,1.37,0,0,0,.78.39.83.83,0,0,0,.7-.34.88.88,0,0,0,.27-.71,1.72,1.72,0,0,0-.44-.81Z"/><path class="cls-2" d="M232.54,89.55a.94.94,0,0,0,.26-.17,1.27,1.27,0,0,0,.34-.48,2.72,2.72,0,0,0,.16-.8L231.47,86l.5-.43,2.64,3-.5.43-.43-.49a3.76,3.76,0,0,1-.11.76,1.18,1.18,0,0,1-.37.61.85.85,0,0,1-.35.2Z"/><path class="cls-2" d="M227.9,92a1,1,0,0,1-.1-.75,1,1,0,0,1,.44-.6,1,1,0,0,1,.76-.11,1,1,0,0,1,.26,1.81,1,1,0,0,1-.75.11A1,1,0,0,1,227.9,92Z"/><path class="cls-2" d="M222.62,93.45l-.69-1.94.68-.23.67,1.9L226,95.74l-.76.26-2-2-.35,2.86-.72.25Z"/><path class="cls-2" d="M220.15,94.06a1.9,1.9,0,0,0-.5-1.06,1.09,1.09,0,0,0-.93-.15,1,1,0,0,0-.44.21,1.27,1.27,0,0,0-.31.44l-.6-.22a1.59,1.59,0,0,1,.44-.63,1.78,1.78,0,0,1,.83-.37,1.66,1.66,0,0,1,1.43.23,2.41,2.41,0,0,1,.76,1.45,2.56,2.56,0,0,1-.09,1.69,1.54,1.54,0,0,1-1.16.79,1.48,1.48,0,0,1-1.25-.2,2.1,2.1,0,0,1-.67-1.27l-.08-.36Zm-1.83.92a1.44,1.44,0,0,0,.4.77.83.83,0,0,0,.77.15.89.89,0,0,0,.63-.41,1.65,1.65,0,0,0,.13-.92Z"/><path class="cls-2" d="M216.25,92.79l.6,5.69-.66.07-.6-5.7Z"/><path class="cls-2" d="M214.32,92.94l.19,5.72-.66,0L213.66,93Z"/><path class="cls-2" d="M209,94.75a2.39,2.39,0,0,1,.57-1.55,1.9,1.9,0,0,1,2.63.2A2.34,2.34,0,0,1,212.5,95a2.37,2.37,0,0,1-.58,1.57,1.64,1.64,0,0,1-1.36.43,1.6,1.6,0,0,1-1.27-.64A2.43,2.43,0,0,1,209,94.75Zm.68,0a2.13,2.13,0,0,0,.17,1.22,1,1,0,0,0,.79.43.93.93,0,0,0,.85-.31,2.76,2.76,0,0,0,.19-2.35.93.93,0,0,0-.8-.45,1,1,0,0,0-.85.31A2.11,2.11,0,0,0,209.65,94.8Z"/><path class="cls-2" d="M204.59,91.7l.6.15.18,3.24,1.72-2.75.59.15,0,4.16-.67-.17.11-3.15-1.7,2.74-.53-.14-.19-3.22-1.4,2.81-.64-.17Z"/><path class="cls-2" d="M200.39,95.08l.64-1.41-1.94-.88.26-.59,2,.88,1-2.26.65.29L200.78,96l-2.94-1.33.27-.58Z"/><path class="cls-2" d="M195.63,89.39a2.45,2.45,0,0,1,1.24-1.09,1.89,1.89,0,0,1,2.22,1.42,3,3,0,0,1-1.73,2.69,1.62,1.62,0,0,1-1.4-.26,1.65,1.65,0,0,1-.82-1.17A2.5,2.5,0,0,1,195.63,89.39Zm.58.37a2,2,0,0,0-.42,1.15,1.1,1.1,0,0,0,1.38.89,2.82,2.82,0,0,0,1.29-2A1,1,0,0,0,198,89a.91.91,0,0,0-.89-.12A2,2,0,0,0,196.21,89.76Z"/><path class="cls-2" d="M195.94,87.07l-3.57,4.47-.52-.42,3.58-4.46Z"/><path class="cls-2" d="M192.7,84.11l-.28.28a2.15,2.15,0,0,1,.64.13,1.59,1.59,0,0,1,.59.37,1.33,1.33,0,0,1,.4,1.19,3.18,3.18,0,0,1-2.24,2.18,1.41,1.41,0,0,1-1.26-.43,1.66,1.66,0,0,1-.47-1.11l-1.44,1.43-.47-.47,4.06-4Zm-2.22,2.2a1.72,1.72,0,0,0,.43,1,.89.89,0,0,0,.79.25,1.94,1.94,0,0,0,1-.63c.72-.72.85-1.3.4-1.76a1.22,1.22,0,0,0-.54-.31,2.21,2.21,0,0,0-.6-.1Z"/><path class="cls-2" d="M189.67,83.54a1.85,1.85,0,0,0,.76-.89,1.08,1.08,0,0,0-.25-.91,1,1,0,0,0-.37-.32,1.56,1.56,0,0,0-.53-.1l-.05-.64a1.72,1.72,0,0,1,.76.14,1.89,1.89,0,0,1,.68.61,1.69,1.69,0,0,1,.38,1.4,2.45,2.45,0,0,1-1,1.29,2.55,2.55,0,0,1-1.57.62,1.62,1.62,0,0,1-1.2-.74,1.47,1.47,0,0,1-.33-1.22,2.06,2.06,0,0,1,.89-1.14l.3-.21Zm-1.59-1.29a1.4,1.4,0,0,0-.54.69.79.79,0,0,0,.18.75.88.88,0,0,0,.64.41,1.57,1.57,0,0,0,.88-.26Z"/><path class="cls-2" d="M185.24,79.26a.76.76,0,0,0,.1.29,1.36,1.36,0,0,0,.4.43,2.7,2.7,0,0,0,.75.32l2.44-1.36.32.58-3.53,2-.32-.58.57-.32a5,5,0,0,1-.71-.26,1.12,1.12,0,0,1-.52-.49.78.78,0,0,1-.13-.39Z"/><path class="cls-2" d="M182.86,77.71a2.26,2.26,0,0,1,.84-.21,2,2,0,0,1,.64,0l.16.37a1.41,1.41,0,0,0-.55,0,2,2,0,0,0-.57.14.48.48,0,0,1,0,.34.45.45,0,0,1-.85,0,.43.43,0,0,1,0-.38A.58.58,0,0,1,182.86,77.71Z"/><path class="cls-2" d="M185.09,72.43a1,1,0,0,1,1,.11,1.76,1.76,0,0,1,.65,1,2.11,2.11,0,0,1,.09.92,1.28,1.28,0,0,1-.34.72l-.47-.41a1.08,1.08,0,0,0,.18-1.08,1,1,0,0,0-.36-.57.54.54,0,0,0-.49-.08.48.48,0,0,0-.24.16.55.55,0,0,0-.11.28,3.84,3.84,0,0,0,0,.7,2.14,2.14,0,0,1-.14,1.1,1,1,0,0,1-.65.51,1,1,0,0,1-.93-.11,1.62,1.62,0,0,1-.63-.91,1.82,1.82,0,0,1-.07-.91,1.42,1.42,0,0,1,.32-.65l.47.41a1,1,0,0,0-.18,1,1,1,0,0,0,.3.49.51.51,0,0,0,.51.09.42.42,0,0,0,.31-.31,2.25,2.25,0,0,0,0-.67,4.72,4.72,0,0,1,0-1,1,1,0,0,1,.25-.48A1.14,1.14,0,0,1,185.09,72.43Z"/><path class="cls-2" d="M180.82,68.94l1.55-.14-.2-2.13.64-.06.2,2.13,2.47-.24.07.71-5.3.5-.3-3.2.64-.06Z"/><path class="cls-2" d="M180.24,64.5a.37.37,0,0,1,.31.11.5.5,0,0,1,.08.33.42.42,0,0,1-.1.33.45.45,0,0,1-.3.09.37.37,0,0,1-.29-.1.45.45,0,0,1-.1-.33.56.56,0,0,1,.1-.33A.38.38,0,0,1,180.24,64.5Zm5,.8-4,0v-.66l4,0Z"/><path class="cls-2" d="M185.6,61l-2.36-.28a3.28,3.28,0,0,0-.77,0,.54.54,0,0,0-.3.16.67.67,0,0,0-.13.37,1.26,1.26,0,0,0,.12.61,3.75,3.75,0,0,0,.39.7l2.83.34-.08.65-4-.47.08-.66.6.07a2.77,2.77,0,0,1-.42-.71,1.51,1.51,0,0,1-.13-.77,1.08,1.08,0,0,1,.43-.81A1.86,1.86,0,0,1,183,60l2.68.32Z"/><path class="cls-2" d="M184.16,58.26a1.89,1.89,0,0,0,1.17,0,1.1,1.1,0,0,0,.56-.76,1,1,0,0,0,0-.49,1.14,1.14,0,0,0-.25-.47l.47-.44a1.69,1.69,0,0,1,.37.68,1.87,1.87,0,0,1-.06.92,1.63,1.63,0,0,1-.86,1.15,2.33,2.33,0,0,1-1.64,0,2.47,2.47,0,0,1-1.46-.85,1.56,1.56,0,0,1-.17-1.39,1.47,1.47,0,0,1,.75-1,2.12,2.12,0,0,1,1.44,0l.36.1Zm0-2a1.42,1.42,0,0,0-.87,0,.8.8,0,0,0-.48.61.88.88,0,0,0,.07.76,1.61,1.61,0,0,0,.76.53Z"/><path class="cls-2" d="M187.12,52.47a1.06,1.06,0,0,1,.66.71,1.78,1.78,0,0,1-.16,1.18,2.08,2.08,0,0,1-.53.75,1.25,1.25,0,0,1-.72.33l-.09-.62a1.25,1.25,0,0,0,.94-1.37.57.57,0,0,0-.33-.38.48.48,0,0,0-.28,0,.61.61,0,0,0-.27.15,4.42,4.42,0,0,0-.45.52,2.1,2.1,0,0,1-.82.75,1,1,0,0,1-.83,0,1.07,1.07,0,0,1-.64-.69,1.65,1.65,0,0,1,.12-1.11,1.75,1.75,0,0,1,.54-.73,1.42,1.42,0,0,1,.67-.28l.09.61a1,1,0,0,0-.79.63,1.12,1.12,0,0,0-.09.58.5.5,0,0,0,.33.38.41.41,0,0,0,.44,0,2.23,2.23,0,0,0,.46-.49,4,4,0,0,1,.68-.74.93.93,0,0,1,.5-.2A1.13,1.13,0,0,1,187.12,52.47Z"/><path class="cls-2" d="M189.52,50.42a2.82,2.82,0,0,1-.27.72,1.06,1.06,0,0,1-.72.6,1.6,1.6,0,0,1-1-.26l-2-1.12-.28.5-.48-.27.28-.5-1-.55.32-.58,1,.55.5-.89.48.28-.5.89,1.85,1.05a1.85,1.85,0,0,0,.66.26c.16,0,.29-.08.4-.28a1.27,1.27,0,0,0,.17-.52Z"/><path class="cls-2" d="M190,45a.91.91,0,0,1,.35.66,1,1,0,0,1-.88,1.08.94.94,0,0,1-.72-.21,1,1,0,0,1-.36-.68.94.94,0,0,1,.22-.72A1,1,0,0,1,190,45Z"/><path class="cls-3" d="M207.65,59.08a4.39,4.39,0,0,1-7,1.58l-2-1.24-2.32,3.73-2.45-1.53,7.49-12,4.53,2.81a5.53,5.53,0,0,1,2.56,2.92A4.54,4.54,0,0,1,207.65,59.08Zm-2.55-1.56a2.1,2.1,0,0,0,.36-1.82A4,4,0,0,0,203.72,54l-1.23-.76L200,57.28l1,.62a7.25,7.25,0,0,0,2,1,1.48,1.48,0,0,0,1.12-.17A3.55,3.55,0,0,0,205.1,57.52Z"/><path class="cls-3" d="M211.45,72.55l1-11.34-5.35,8.61-2.4-1.5,7.49-12,3.18,2-1,10.66,5-8.13,2.42,1.5-7.49,12.05Z"/><path class="cls-3" d="M216.94,76l7.49-12,7.83,4.87-1.35,2.16-5.37-3.33-1.6,2.56L228.47,73l-1.36,2.17-4.52-2.81-1.8,2.89,5.37,3.34-1.39,2.25Z"/></g></g></svg>