<svg xmlns="http://www.w3.org/2000/svg" width="157.07" height="83.58">
  <style>
    .st0{fill:#afafae;stroke:#5b6670;stroke-width:.5;stroke-miterlimit:10}.st0,.st1{stroke-linejoin:round}.st1,.st2{fill:#fff;stroke:#818181;stroke-width:.5;stroke-miterlimit:10}
  </style>
  <path class="st0" d="M.25 71.37v-.03a8.8 8.8 0 0 1 16.27-4.64 13.73 13.73 0 0 1 21.82-4.42 19.65 19.65 0 0 1 19.27-2.67 19.72 19.72 0 0 1 27.57-4.18 26.3 26.3 0 0 1 44.6 4.39 11.7 11.7 0 0 1 12.01 5.29 8.8 8.8 0 0 1 15.02 6.23l.01.03H.25z"/>
  <path class="st1" d="M48.8.25h54.92v83.08H48.8z"/>
  <path class="st1" d="M54.61 6.51h43.3v27.11h-43.3zM54.61 39.34h43.3v37.73h-43.3z"/>
  <path class="st0" d="M80.93 12.08H71.6a1.33 1.33 0 1 1 0-2.65h9.34a1.33 1.33 0 0 1 0 2.65zM80.93 45.46H71.6a1.33 1.33 0 1 1 0-2.65h9.34a1.33 1.33 0 0 1 0 2.65z"/>
  <path class="st2" d="M142.44 83.33a10.61 10.61 0 0 0-12.8-5.4 32.26 32.26 0 0 0-41.79-15.6 23.03 23.03 0 0 0-41.29 8.5 15.33 15.33 0 0 0-22.32 5.09 9.01 9.01 0 0 0-14.15 7.4v.01h132.35zM67.96 48.57a7.08 7.08 0 0 0-9.54-3.92 9.57 9.57 0 0 0-8.34-2.57 13.55 13.55 0 0 0-21.46-3.12h-.06a9.58 9.58 0 0 0-7.18 3.24 7.43 7.43 0 0 0-10.12 2.2 4.56 4.56 0 0 0-6.4 4.17h63.1z"/>
</svg>
