<?xml version="1.0" encoding="utf-8"?>
<!-- Generator: Adobe Illustrator 22.1.0, SVG Export Plug-In . SVG Version: 6.00 Build 0)  -->
<svg version="1.1" id="Layer_1" xmlns="http://www.w3.org/2000/svg" xmlns:xlink="http://www.w3.org/1999/xlink" x="0px" y="0px"
	 viewBox="0 0 336.9 298.6" style="enable-background:new 0 0 336.9 298.6;" xml:space="preserve">
<style type="text/css">
	.st0{fill:#FFFFFF;stroke:#808080;stroke-width:0.5;stroke-linecap:round;stroke-linejoin:round;stroke-miterlimit:10;}
</style>
<polygon class="st0" points="10.3,53.6 17.3,54.9 17.3,46.9 "/>
<polygon class="st0" points="321.8,47.3 321.5,55.3 328.4,53.6 "/>
<path class="st0" d="M17.3,53.5v-42c0-3.5,2.8-6.3,6.3-6.3h97c3.5,0,6.3,2.8,6.3,6.3v17.8h177.3c9.7,0,17.5,7.8,17.5,17.5v6.8"/>
<rect x="10.3" y="53.6" class="st0" width="318.1" height="237.2"/>
<path class="st0" d="M206.3,91.8h-74c-3.2,0-5.8-2.6-5.8-5.8v-7.4c0-3.2,2.6-5.8,5.8-5.8h74c3.2,0,5.8,2.6,5.8,5.8V86
	C212.1,89.2,209.5,91.8,206.3,91.8z"/>
</svg>
