<!-- Generator: Adobe Illustrator 22.1.0, SVG Export Plug-In  -->
<svg version="1.1"
	 xmlns="http://www.w3.org/2000/svg" xmlns:xlink="http://www.w3.org/1999/xlink" xmlns:a="http://ns.adobe.com/AdobeSVGViewerExtensions/3.0/"
	 x="0px" y="0px" width="420.119px" height="128.721px" viewBox="0 0 420.119 128.721"
	 style="enable-background:new 0 0 420.119 128.721;" xml:space="preserve">
<style type="text/css">
	.st0{fill:#FFFFFF;}
	.st1{fill:#FFC629;}
</style>
<defs>
</defs>
<g>
	<path class="st0" d="M131.562,87.322l-12.244-30.576h10.689l6.996,19.758l7.449-19.758h9.977l-13.086,30.576v16.195h-9.781V87.322z
		"/>
	<path class="st0" d="M157.54,88.619c0,3.887,0.131,9.717,4.146,9.717c3.239,0,3.887-3.109,3.887-5.83h9.265
		c-0.13,3.562-1.296,6.477-3.499,8.486c-2.138,2.008-5.377,3.174-9.652,3.174c-11.79,0-13.344-7.191-13.344-17.426
		c0-8.939,1.295-16.586,13.344-16.586c12.309,0,13.67,7.969,13.346,18.465H157.54z M165.898,83.5c0-3.174,0.13-7.709-4.211-7.709
		c-4.209,0-4.146,4.924-4.146,7.709H165.898z"/>
	<path class="st0" d="M187.537,56.746v46.771h-9.134V56.746H187.537z"/>
	<path class="st0" d="M201.66,56.746v46.771h-9.134V56.746H201.66z"/>
	<path class="st0" d="M203.799,86.74c0-8.939,1.296-16.586,13.345-16.586c12.049,0,13.345,7.646,13.345,16.586
		c0,10.234-1.555,17.426-13.345,17.426C205.355,104.166,203.799,96.975,203.799,86.74z M221.355,86.221
		c0-6.803-0.324-10.234-4.211-10.234c-3.887,0-4.211,3.432-4.211,10.234c0,9.977,0.843,12.115,4.211,12.115
		C220.513,98.336,221.355,96.197,221.355,86.221z"/>
	<path class="st0" d="M228.872,70.803h9.068l4.471,24.617h0.13l6.282-24.617h9.459l5.766,24.617h0.129l4.924-24.617h8.745
		l-8.874,32.715h-9.588l-5.895-22.35h-0.13l-6.606,22.35h-9.718L228.872,70.803z"/>
	<path class="st0" d="M278.562,103.517V56.746h24.295v7.189h-14.512v11.986h13.863v7.189h-13.863v20.406H278.562z"/>
	<path class="st0" d="M303.698,86.74c0-8.939,1.297-16.586,13.344-16.586c12.051,0,13.346,7.646,13.346,16.586
		c0,10.234-1.555,17.426-13.346,17.426C305.253,104.166,303.698,96.975,303.698,86.74z M321.253,86.221
		c0-6.803-0.322-10.234-4.211-10.234c-3.886,0-4.209,3.432-4.209,10.234c0,9.977,0.843,12.115,4.209,12.115
		C320.411,98.336,321.253,96.197,321.253,86.221z"/>
	<path class="st0" d="M341.599,56.746v46.771h-9.135V56.746H341.599z"/>
	<path class="st0" d="M362.136,103.517v-3.627h-0.131c-1.684,3.174-4.211,4.275-7.709,4.275c-9.457,0-9.134-10.494-9.134-17.232
		c0-6.607-0.259-16.779,8.94-16.779c3.304,0,5.571,0.973,7.449,3.758h0.129V56.746h9.135v46.771H362.136z M361.681,86.869
		c0-6.543,0.066-11.078-3.691-11.078c-3.951,0-3.887,4.535-3.887,11.078c0,8.227,0.582,11.66,3.887,11.66
		C361.099,98.529,361.681,95.096,361.681,86.869z"/>
	<path class="st0" d="M382.737,88.619c0,3.887,0.129,9.717,4.146,9.717c3.24,0,3.887-3.109,3.887-5.83h9.264
		c-0.129,3.562-1.297,6.477-3.498,8.486c-2.139,2.008-5.377,3.174-9.652,3.174c-11.791,0-13.346-7.191-13.346-17.426
		c0-8.939,1.297-16.586,13.346-16.586c12.309,0,13.669,7.969,13.344,18.465H382.737z M391.094,83.5c0-3.174,0.13-7.709-4.21-7.709
		c-4.211,0-4.146,4.924-4.146,7.709H391.094z"/>
	<path class="st0" d="M411.503,70.803v4.211h0.129c1.686-3.756,4.795-4.859,8.487-4.859v8.164c-8.034-0.518-8.163,4.146-8.163,7.385
		v17.814h-9.133V70.803H411.503z"/>
</g>
<g>
	<g>
		<g>
			<path class="st1" d="M37.965,50.032v-6.766c0-1.204-0.977-2.18-2.18-2.18H2.18c-1.204,0-2.18,0.976-2.18,2.18v9.107
				c1.606-1.45,3.726-2.342,6.055-2.342H37.965z"/>
		</g>
		<g>
			<path class="st0" d="M91.473,49.858H76.334V31.745c0-9.157-7.45-16.607-16.607-16.607H47.141c-9.158,0-16.607,7.45-16.607,16.607
				v6.694H15.395v-6.694C15.395,14.24,29.637,0,47.141,0h12.586c17.504,0,31.746,14.24,31.746,31.745V49.858z"/>
		</g>
		<g>
			<path class="st1" d="M99.404,53.032H6.055C2.711,53.032,0,55.743,0,59.087v63.577c0,3.344,2.711,6.057,6.055,6.057h93.35
				c3.344,0,6.055-2.713,6.055-6.057V59.087C105.459,55.743,102.748,53.032,99.404,53.032z M56.924,92.368v14.523h-6.422V92.368
				c-3.286-1.285-5.618-4.475-5.618-8.217c0-4.876,3.953-8.829,8.829-8.829c4.875,0,8.828,3.953,8.828,8.829
				C62.541,87.893,60.21,91.083,56.924,92.368z"/>
		</g>
	</g>
</g>
<g>
	<path class="st0" d="M121.09,127.725v-13.68h9.101v1.102h-7.809v4.94h7.049v1.102h-7.049v5.435h7.999v1.102H121.09z"/>
	<path class="st0" d="M141.078,114.045h1.14v13.68h-1.14v-1.729h-0.038c-0.165,0.329-0.377,0.617-0.637,0.864
		c-0.26,0.247-0.545,0.453-0.855,0.617c-0.311,0.165-0.63,0.291-0.959,0.38c-0.33,0.089-0.652,0.133-0.969,0.133
		c-0.798,0-1.476-0.133-2.033-0.398c-0.558-0.267-1.017-0.63-1.377-1.093c-0.361-0.462-0.624-1.01-0.789-1.644
		c-0.165-0.633-0.247-1.311-0.247-2.033c0-0.684,0.088-1.342,0.266-1.976c0.177-0.634,0.446-1.188,0.808-1.662
		c0.361-0.476,0.817-0.855,1.368-1.141c0.551-0.285,1.2-0.428,1.948-0.428c0.696,0,1.365,0.155,2.004,0.466s1.143,0.77,1.51,1.378
		V114.045z M141.078,122.766c0-0.558-0.076-1.086-0.228-1.587c-0.152-0.5-0.371-0.937-0.656-1.311
		c-0.285-0.373-0.633-0.671-1.045-0.893s-0.877-0.333-1.396-0.333c-0.596,0-1.108,0.117-1.539,0.352s-0.786,0.555-1.064,0.959
		c-0.279,0.406-0.481,0.878-0.608,1.416c-0.127,0.538-0.178,1.118-0.152,1.738c0,0.621,0.086,1.169,0.257,1.644
		c0.171,0.476,0.408,0.877,0.712,1.207c0.304,0.329,0.658,0.579,1.064,0.75c0.405,0.171,0.849,0.257,1.33,0.257
		c0.532,0,1.007-0.107,1.425-0.323c0.418-0.215,0.767-0.51,1.045-0.884c0.279-0.373,0.491-0.816,0.637-1.33
		C141.005,123.916,141.078,123.362,141.078,122.766z"/>
	<path class="st0" d="M152.706,117.883h1.14v9.842h-1.14v-1.368c-0.152,0.178-0.323,0.361-0.513,0.551
		c-0.19,0.19-0.408,0.364-0.655,0.522c-0.247,0.159-0.536,0.292-0.865,0.399c-0.33,0.107-0.709,0.161-1.14,0.161
		c-0.659,0-1.209-0.092-1.653-0.275s-0.801-0.439-1.073-0.77c-0.273-0.329-0.469-0.712-0.589-1.149
		c-0.121-0.437-0.18-0.915-0.18-1.435v-6.479h1.14v6.46c0,0.849,0.196,1.498,0.589,1.947c0.392,0.45,1.038,0.675,1.938,0.675
		c0.468,0,0.89-0.092,1.263-0.275s0.687-0.44,0.94-0.77s0.45-0.723,0.589-1.179c0.139-0.456,0.209-0.956,0.209-1.501V117.883z"/>
	<path class="st0" d="M164.524,120.98c-0.203-0.734-0.551-1.308-1.045-1.72c-0.494-0.411-1.121-0.617-1.881-0.617
		c-0.583,0-1.083,0.12-1.501,0.361c-0.418,0.24-0.76,0.561-1.026,0.959c-0.266,0.399-0.463,0.849-0.589,1.35
		c-0.126,0.5-0.19,1.004-0.19,1.51c0,0.52,0.06,1.026,0.181,1.521c0.12,0.494,0.313,0.938,0.58,1.33
		c0.266,0.393,0.608,0.706,1.026,0.94s0.924,0.352,1.52,0.352c0.849,0,1.529-0.234,2.042-0.703s0.839-1.114,0.979-1.938h1.216
		c-0.102,0.545-0.263,1.042-0.484,1.492c-0.222,0.449-0.507,0.836-0.855,1.158c-0.349,0.323-0.763,0.574-1.245,0.751
		s-1.032,0.266-1.653,0.266c-0.786,0-1.463-0.133-2.033-0.398c-0.57-0.267-1.039-0.63-1.406-1.093
		c-0.368-0.462-0.64-1.01-0.817-1.644c-0.178-0.633-0.266-1.311-0.266-2.033c0-0.684,0.098-1.339,0.294-1.966
		s0.484-1.182,0.864-1.663c0.38-0.481,0.852-0.864,1.416-1.149s1.213-0.428,1.948-0.428c1.14,0,2.062,0.272,2.765,0.817
		c0.703,0.545,1.143,1.394,1.32,2.546H164.524z"/>
	<path class="st0" d="M173.587,121.987c0.215-0.025,0.472-0.062,0.77-0.113c0.297-0.051,0.542-0.121,0.731-0.209
		c0.19-0.089,0.307-0.238,0.352-0.447c0.044-0.209,0.066-0.401,0.066-0.579c0-0.583-0.187-1.061-0.561-1.435
		c-0.374-0.373-1.004-0.561-1.891-0.561c-0.393,0-0.754,0.035-1.083,0.104c-0.33,0.069-0.617,0.19-0.864,0.361
		s-0.45,0.398-0.608,0.684c-0.159,0.285-0.263,0.644-0.314,1.073h-1.159c0.038-0.582,0.171-1.079,0.399-1.491
		c0.228-0.411,0.522-0.747,0.883-1.007c0.361-0.26,0.779-0.449,1.254-0.57c0.475-0.12,0.979-0.181,1.51-0.181
		c0.494,0,0.959,0.055,1.396,0.162s0.817,0.278,1.14,0.513c0.323,0.234,0.576,0.548,0.76,0.94s0.276,0.874,0.276,1.444v5.357
		c0,0.444,0.079,0.726,0.237,0.846c0.158,0.121,0.478,0.092,0.959-0.085v0.893c-0.089,0.025-0.218,0.063-0.39,0.114
		c-0.171,0.051-0.339,0.076-0.503,0.076c-0.177,0-0.349-0.02-0.513-0.058c-0.19-0.025-0.342-0.085-0.456-0.181
		c-0.114-0.095-0.206-0.209-0.276-0.342c-0.069-0.133-0.117-0.278-0.142-0.437c-0.026-0.158-0.038-0.326-0.038-0.504
		c-0.481,0.532-1.033,0.938-1.653,1.216c-0.621,0.279-1.292,0.418-2.014,0.418c-0.431,0-0.846-0.057-1.245-0.171
		c-0.399-0.113-0.75-0.291-1.055-0.531c-0.304-0.241-0.544-0.535-0.722-0.884c-0.178-0.349-0.266-0.763-0.266-1.245
		c0-1.672,1.146-2.659,3.439-2.964L173.587,121.987z M175.506,122.557c-0.481,0.203-0.969,0.336-1.463,0.399
		c-0.494,0.063-0.988,0.113-1.482,0.151c-0.874,0.063-1.555,0.26-2.042,0.589c-0.488,0.33-0.731,0.83-0.731,1.501
		c0,0.305,0.06,0.567,0.181,0.789c0.12,0.222,0.278,0.405,0.475,0.551c0.196,0.146,0.424,0.254,0.684,0.323
		c0.259,0.069,0.522,0.104,0.788,0.104c0.456,0,0.899-0.058,1.33-0.171c0.431-0.114,0.814-0.288,1.149-0.522
		c0.336-0.234,0.605-0.532,0.808-0.894c0.203-0.36,0.304-0.788,0.304-1.282V122.557z"/>
	<path class="st0" d="M184.037,127.763c-0.14,0.025-0.323,0.069-0.551,0.133s-0.481,0.095-0.76,0.095
		c-0.57,0-1.004-0.143-1.302-0.427c-0.298-0.285-0.446-0.795-0.446-1.53v-7.2h-1.387v-0.95h1.387v-2.736h1.14v2.736h1.843v0.95
		h-1.843v6.744c0,0.241,0.006,0.45,0.019,0.628c0.013,0.177,0.051,0.322,0.114,0.437c0.063,0.114,0.162,0.196,0.294,0.247
		s0.32,0.076,0.561,0.076c0.152,0,0.307-0.013,0.465-0.038s0.313-0.058,0.466-0.095V127.763z"/>
	<path class="st0" d="M186.925,115.736v-1.69h1.254v1.69H186.925z M186.982,127.725v-9.842h1.141v9.842H186.982z"/>
	<path class="st0" d="M195.893,127.991c-0.634-0.013-1.226-0.126-1.776-0.342c-0.551-0.215-1.032-0.538-1.444-0.969
		c-0.411-0.431-0.738-0.969-0.979-1.615c-0.24-0.646-0.36-1.399-0.36-2.261c0-0.722,0.095-1.396,0.284-2.023
		c0.19-0.627,0.476-1.175,0.855-1.644s0.854-0.839,1.425-1.111s1.235-0.409,1.995-0.409c0.772,0,1.444,0.137,2.014,0.409
		c0.57,0.272,1.045,0.64,1.426,1.102c0.38,0.463,0.661,1.011,0.845,1.644c0.184,0.634,0.275,1.312,0.275,2.033
		c0,0.785-0.107,1.495-0.322,2.128c-0.216,0.634-0.522,1.178-0.922,1.634c-0.398,0.456-0.881,0.808-1.444,1.055
		S196.576,127.991,195.893,127.991z M199.236,122.804c0-0.583-0.063-1.127-0.189-1.634c-0.127-0.507-0.323-0.947-0.589-1.321
		c-0.267-0.373-0.608-0.668-1.026-0.883c-0.418-0.216-0.931-0.323-1.539-0.323c-0.596,0-1.105,0.117-1.529,0.352
		c-0.425,0.234-0.77,0.545-1.036,0.931c-0.266,0.387-0.462,0.83-0.589,1.33c-0.126,0.501-0.189,1.017-0.189,1.549
		c0,0.607,0.072,1.168,0.219,1.682c0.145,0.513,0.357,0.953,0.636,1.32s0.627,0.652,1.045,0.854
		c0.418,0.203,0.899,0.305,1.444,0.305c0.596,0,1.105-0.117,1.529-0.352c0.425-0.234,0.77-0.548,1.036-0.94
		c0.266-0.393,0.462-0.836,0.589-1.33C199.173,123.849,199.236,123.336,199.236,122.804z"/>
	<path class="st0" d="M204.632,127.725h-1.14v-9.842h1.14v1.368c0.456-0.481,0.928-0.874,1.416-1.179
		c0.487-0.304,1.073-0.456,1.758-0.456c0.607,0,1.171,0.104,1.69,0.313s0.956,0.573,1.312,1.093c0.24,0.354,0.383,0.719,0.427,1.093
		c0.045,0.374,0.066,0.763,0.066,1.168v6.441h-1.14v-6.422c0-0.887-0.196-1.552-0.589-1.995s-1.045-0.665-1.957-0.665
		c-0.354,0-0.678,0.054-0.969,0.161c-0.292,0.108-0.555,0.251-0.789,0.428c-0.234,0.178-0.434,0.38-0.599,0.608
		c-0.164,0.228-0.291,0.469-0.38,0.722c-0.113,0.316-0.184,0.621-0.209,0.912c-0.025,0.292-0.038,0.608-0.038,0.95V127.725z"/>
	<path class="st0" d="M216.546,116.287c0,0.558-0.131,1.005-0.39,1.34c-0.26,0.336-0.593,0.567-0.998,0.693v-0.703
		c0.152-0.101,0.298-0.24,0.438-0.418c0.139-0.177,0.209-0.456,0.209-0.836v-0.646h-0.646v-1.672h1.388V116.287z"/>
	<path class="st0" d="M220.839,124.647c0.178,0.849,0.497,1.447,0.96,1.796c0.462,0.349,1.124,0.522,1.985,0.522
		c0.418,0,0.778-0.051,1.083-0.152c0.304-0.102,0.554-0.237,0.75-0.408s0.345-0.364,0.446-0.58c0.102-0.215,0.152-0.442,0.152-0.684
		c0-0.481-0.155-0.839-0.466-1.073s-0.699-0.418-1.168-0.552c-0.469-0.133-0.976-0.246-1.521-0.342
		c-0.544-0.095-1.051-0.237-1.52-0.427c-0.469-0.19-0.858-0.463-1.169-0.817s-0.465-0.855-0.465-1.501
		c0-0.823,0.301-1.498,0.902-2.023s1.453-0.789,2.556-0.789c1.063,0,1.928,0.238,2.593,0.713s1.067,1.271,1.207,2.385h-1.159
		c-0.102-0.761-0.39-1.295-0.864-1.605c-0.476-0.311-1.073-0.466-1.796-0.466c-0.722,0-1.272,0.155-1.652,0.466
		c-0.381,0.311-0.57,0.719-0.57,1.226c0,0.443,0.155,0.782,0.466,1.017c0.31,0.234,0.699,0.424,1.168,0.569s0.976,0.275,1.521,0.39
		c0.544,0.114,1.051,0.275,1.52,0.484s0.858,0.491,1.169,0.846c0.31,0.354,0.465,0.849,0.465,1.482c0,0.469-0.102,0.883-0.304,1.244
		c-0.203,0.361-0.481,0.662-0.836,0.902c-0.354,0.241-0.776,0.421-1.264,0.542c-0.487,0.12-1.022,0.18-1.605,0.18
		s-1.099-0.085-1.549-0.256c-0.449-0.171-0.833-0.409-1.149-0.713s-0.563-0.658-0.74-1.063c-0.178-0.405-0.279-0.843-0.305-1.312
		H220.839z"/>
	<path class="st0" d="M236.495,120.904c0-1,0.136-1.938,0.408-2.812s0.675-1.637,1.207-2.29c0.531-0.652,1.19-1.168,1.976-1.548
		s1.691-0.57,2.717-0.57c1.064,0,1.998,0.188,2.803,0.561c0.805,0.374,1.476,0.887,2.014,1.539c0.539,0.652,0.944,1.419,1.217,2.299
		c0.271,0.881,0.408,1.821,0.408,2.821c0,0.988-0.137,1.916-0.408,2.784c-0.272,0.867-0.675,1.627-1.207,2.279
		c-0.532,0.653-1.197,1.169-1.995,1.549s-1.723,0.57-2.773,0.57c-1.052,0-1.977-0.19-2.774-0.57s-1.463-0.896-1.995-1.549
		c-0.532-0.652-0.931-1.412-1.197-2.279C236.628,122.82,236.495,121.892,236.495,120.904z M242.879,126.984
		c0.887,0,1.649-0.168,2.29-0.503c0.639-0.336,1.165-0.782,1.576-1.34c0.412-0.558,0.716-1.203,0.912-1.938
		c0.196-0.734,0.295-1.501,0.295-2.299c0-0.95-0.117-1.802-0.352-2.556c-0.234-0.753-0.573-1.396-1.017-1.928
		c-0.443-0.532-0.981-0.938-1.615-1.217c-0.633-0.278-1.343-0.418-2.128-0.418c-0.874,0-1.631,0.172-2.271,0.514
		s-1.165,0.795-1.577,1.358c-0.411,0.563-0.716,1.213-0.912,1.947c-0.196,0.735-0.294,1.501-0.294,2.299
		c0,0.812,0.098,1.584,0.294,2.318s0.501,1.381,0.912,1.938c0.412,0.558,0.938,1.001,1.577,1.33
		C241.21,126.82,241.98,126.984,242.879,126.984z"/>
	<path class="st0" d="M253.728,127.725h-1.14v-9.842h1.14v1.368c0.456-0.481,0.928-0.874,1.416-1.179
		c0.487-0.304,1.073-0.456,1.758-0.456c0.607,0,1.171,0.104,1.69,0.313s0.956,0.573,1.312,1.093c0.24,0.354,0.383,0.719,0.427,1.093
		c0.045,0.374,0.066,0.763,0.066,1.168v6.441h-1.14v-6.422c0-0.887-0.196-1.552-0.589-1.995s-1.045-0.665-1.957-0.665
		c-0.354,0-0.678,0.054-0.969,0.161c-0.292,0.108-0.555,0.251-0.789,0.428c-0.234,0.178-0.434,0.38-0.599,0.608
		c-0.164,0.228-0.291,0.469-0.38,0.722c-0.113,0.316-0.184,0.621-0.209,0.912c-0.025,0.292-0.038,0.608-0.038,0.95V127.725z"/>
	<path class="st0" d="M264.274,127.725v-13.68h1.14v13.68H264.274z"/>
	<path class="st0" d="M269.384,115.736v-1.69h1.254v1.69H269.384z M269.441,127.725v-9.842h1.141v9.842H269.441z"/>
	<path class="st0" d="M275.577,127.725h-1.14v-9.842h1.14v1.368c0.456-0.481,0.928-0.874,1.416-1.179
		c0.487-0.304,1.073-0.456,1.758-0.456c0.607,0,1.171,0.104,1.69,0.313s0.956,0.573,1.312,1.093c0.24,0.354,0.383,0.719,0.427,1.093
		c0.045,0.374,0.066,0.763,0.066,1.168v6.441h-1.14v-6.422c0-0.887-0.196-1.552-0.589-1.995s-1.045-0.665-1.957-0.665
		c-0.354,0-0.678,0.054-0.969,0.161c-0.292,0.108-0.555,0.251-0.789,0.428c-0.234,0.178-0.434,0.38-0.599,0.608
		c-0.164,0.228-0.291,0.469-0.38,0.722c-0.113,0.316-0.184,0.621-0.209,0.912c-0.025,0.292-0.038,0.608-0.038,0.95V127.725z"/>
	<path class="st0" d="M286.654,123.07c0,0.532,0.07,1.036,0.209,1.511c0.14,0.475,0.346,0.887,0.618,1.235s0.617,0.627,1.035,0.836
		s0.899,0.313,1.444,0.313c0.747,0,1.387-0.196,1.919-0.589s0.887-0.95,1.063-1.673h1.273c-0.14,0.47-0.323,0.903-0.551,1.302
		c-0.229,0.399-0.514,0.748-0.855,1.045c-0.342,0.298-0.747,0.529-1.216,0.693c-0.469,0.165-1.014,0.247-1.634,0.247
		c-0.786,0-1.463-0.133-2.033-0.398c-0.57-0.267-1.039-0.63-1.406-1.093c-0.367-0.462-0.64-1.007-0.816-1.634
		c-0.178-0.627-0.267-1.302-0.267-2.023c0-0.723,0.104-1.399,0.313-2.033c0.209-0.633,0.507-1.188,0.894-1.662
		c0.386-0.476,0.857-0.849,1.415-1.121s1.19-0.409,1.9-0.409c1.355,0,2.419,0.466,3.191,1.396c0.772,0.932,1.153,2.283,1.141,4.057
		H286.654z M293.077,122.12c0-0.48-0.067-0.934-0.2-1.358c-0.133-0.424-0.329-0.791-0.589-1.102s-0.586-0.558-0.979-0.741
		s-0.843-0.275-1.349-0.275c-0.507,0-0.953,0.095-1.34,0.285c-0.387,0.189-0.716,0.443-0.988,0.76s-0.49,0.685-0.655,1.103
		s-0.272,0.861-0.323,1.329H293.077z"/>
	<path class="st0" d="M303.735,127.725v-13.68h8.816v1.102h-7.524v4.94h6.84v1.102h-6.84v6.536H303.735z"/>
	<path class="st0" d="M315.325,115.736v-1.69h1.254v1.69H315.325z M315.383,127.725v-9.842h1.14v9.842H315.383z"/>
	<path class="st0" d="M320.551,127.725v-13.68h1.14v13.68H320.551z"/>
	<path class="st0" d="M326.25,123.07c0,0.532,0.069,1.036,0.209,1.511s0.345,0.887,0.617,1.235s0.618,0.627,1.036,0.836
		s0.898,0.313,1.443,0.313c0.747,0,1.388-0.196,1.919-0.589c0.532-0.393,0.887-0.95,1.064-1.673h1.272
		c-0.139,0.47-0.322,0.903-0.551,1.302c-0.228,0.399-0.513,0.748-0.854,1.045c-0.343,0.298-0.748,0.529-1.216,0.693
		c-0.47,0.165-1.014,0.247-1.635,0.247c-0.785,0-1.463-0.133-2.032-0.398c-0.57-0.267-1.039-0.63-1.406-1.093
		c-0.368-0.462-0.64-1.007-0.817-1.634s-0.266-1.302-0.266-2.023c0-0.723,0.104-1.399,0.313-2.033
		c0.209-0.633,0.506-1.188,0.893-1.662c0.387-0.476,0.858-0.849,1.416-1.121c0.557-0.272,1.19-0.409,1.899-0.409
		c1.355,0,2.42,0.466,3.192,1.396c0.772,0.932,1.152,2.283,1.14,4.057H326.25z M332.672,122.12c0-0.48-0.066-0.934-0.199-1.358
		c-0.133-0.424-0.33-0.791-0.589-1.102c-0.26-0.311-0.586-0.558-0.979-0.741c-0.394-0.184-0.843-0.275-1.35-0.275
		s-0.953,0.095-1.339,0.285c-0.387,0.189-0.716,0.443-0.988,0.76s-0.491,0.685-0.655,1.103c-0.165,0.418-0.272,0.861-0.323,1.329
		H332.672z"/>
	<path class="st0" d="M353.173,118.016c-0.266-1.165-0.76-1.995-1.481-2.489c-0.723-0.494-1.666-0.741-2.831-0.741
		c-0.824,0-1.533,0.165-2.128,0.494c-0.596,0.33-1.087,0.773-1.473,1.33c-0.387,0.558-0.672,1.2-0.855,1.929
		s-0.275,1.498-0.275,2.309c0,0.76,0.079,1.508,0.237,2.242s0.421,1.39,0.789,1.966c0.367,0.577,0.861,1.042,1.481,1.396
		c0.621,0.355,1.399,0.532,2.337,0.532c0.583,0,1.115-0.095,1.597-0.285c0.481-0.189,0.902-0.452,1.264-0.788
		c0.36-0.336,0.665-0.731,0.911-1.188c0.247-0.456,0.435-0.956,0.561-1.501h1.35c-0.152,0.659-0.374,1.282-0.665,1.871
		c-0.292,0.589-0.675,1.105-1.149,1.549c-0.476,0.443-1.052,0.795-1.729,1.055s-1.473,0.39-2.385,0.39
		c-1.051,0-1.95-0.193-2.697-0.58c-0.748-0.386-1.358-0.908-1.834-1.567c-0.475-0.658-0.82-1.422-1.035-2.289
		c-0.216-0.868-0.323-1.789-0.323-2.765c0-1.305,0.162-2.413,0.484-3.325c0.323-0.912,0.77-1.656,1.34-2.232
		s1.241-0.994,2.014-1.254s1.615-0.39,2.527-0.39c0.696,0,1.346,0.092,1.947,0.275s1.134,0.459,1.596,0.826
		c0.463,0.368,0.843,0.82,1.141,1.359c0.297,0.538,0.503,1.162,0.617,1.871H353.173z"/>
	<path class="st0" d="M362.483,121.987c0.216-0.025,0.472-0.062,0.77-0.113s0.542-0.121,0.731-0.209
		c0.19-0.089,0.307-0.238,0.352-0.447c0.044-0.209,0.066-0.401,0.066-0.579c0-0.583-0.187-1.061-0.561-1.435
		c-0.374-0.373-1.004-0.561-1.891-0.561c-0.393,0-0.754,0.035-1.083,0.104s-0.617,0.19-0.864,0.361s-0.449,0.398-0.607,0.684
		c-0.159,0.285-0.264,0.644-0.314,1.073h-1.158c0.038-0.582,0.171-1.079,0.398-1.491c0.229-0.411,0.522-0.747,0.884-1.007
		s0.779-0.449,1.254-0.57c0.475-0.12,0.979-0.181,1.511-0.181c0.494,0,0.959,0.055,1.396,0.162c0.437,0.107,0.816,0.278,1.14,0.513
		s0.576,0.548,0.76,0.94s0.276,0.874,0.276,1.444v5.357c0,0.444,0.078,0.726,0.237,0.846c0.158,0.121,0.478,0.092,0.959-0.085v0.893
		c-0.089,0.025-0.218,0.063-0.39,0.114c-0.171,0.051-0.339,0.076-0.503,0.076c-0.178,0-0.349-0.02-0.513-0.058
		c-0.19-0.025-0.343-0.085-0.456-0.181c-0.114-0.095-0.206-0.209-0.276-0.342c-0.069-0.133-0.117-0.278-0.142-0.437
		c-0.026-0.158-0.038-0.326-0.038-0.504c-0.481,0.532-1.033,0.938-1.653,1.216c-0.621,0.279-1.292,0.418-2.014,0.418
		c-0.431,0-0.846-0.057-1.245-0.171c-0.398-0.113-0.75-0.291-1.055-0.531c-0.304-0.241-0.544-0.535-0.722-0.884
		s-0.266-0.763-0.266-1.245c0-1.672,1.146-2.659,3.438-2.964L362.483,121.987z M364.401,122.557
		c-0.481,0.203-0.969,0.336-1.463,0.399s-0.988,0.113-1.482,0.151c-0.873,0.063-1.555,0.26-2.042,0.589
		c-0.488,0.33-0.731,0.83-0.731,1.501c0,0.305,0.06,0.567,0.181,0.789c0.12,0.222,0.278,0.405,0.475,0.551s0.425,0.254,0.685,0.323
		c0.259,0.069,0.522,0.104,0.788,0.104c0.456,0,0.899-0.058,1.33-0.171c0.431-0.114,0.813-0.288,1.149-0.522
		s0.604-0.532,0.808-0.894c0.202-0.36,0.304-0.788,0.304-1.282V122.557z"/>
	<path class="st0" d="M370.747,127.725h-1.14v-13.68h1.14v5.415c0.367-0.608,0.871-1.067,1.511-1.378s1.308-0.466,2.005-0.466
		c0.747,0,1.396,0.143,1.947,0.428s1.007,0.665,1.368,1.141c0.36,0.475,0.63,1.028,0.808,1.662c0.177,0.634,0.266,1.292,0.266,1.976
		c0,0.723-0.082,1.4-0.247,2.033c-0.165,0.634-0.428,1.182-0.788,1.644c-0.361,0.463-0.82,0.826-1.378,1.093
		c-0.558,0.266-1.234,0.398-2.033,0.398c-0.316,0-0.64-0.044-0.969-0.133s-0.649-0.215-0.959-0.38
		c-0.311-0.164-0.596-0.37-0.855-0.617s-0.472-0.535-0.636-0.864h-0.039V127.725z M370.747,122.766c0,0.596,0.073,1.149,0.219,1.662
		c0.146,0.514,0.357,0.957,0.637,1.33c0.278,0.374,0.627,0.669,1.045,0.884c0.418,0.216,0.893,0.323,1.425,0.323
		c0.481,0,0.925-0.086,1.33-0.257s0.76-0.421,1.064-0.75c0.304-0.33,0.541-0.731,0.712-1.207c0.171-0.475,0.257-1.022,0.257-1.644
		c0.025-0.62-0.025-1.2-0.152-1.738s-0.329-1.01-0.607-1.416c-0.279-0.404-0.637-0.725-1.074-0.959
		c-0.437-0.234-0.946-0.352-1.529-0.352c-0.52,0-0.984,0.111-1.396,0.333c-0.411,0.222-0.76,0.52-1.045,0.893
		c-0.285,0.374-0.503,0.811-0.655,1.311C370.823,121.68,370.747,122.209,370.747,122.766z"/>
	<path class="st0" d="M382.148,115.736v-1.69h1.254v1.69H382.148z M382.204,127.725v-9.842h1.14v9.842H382.204z"/>
	<path class="st0" d="M388.341,127.725h-1.14v-9.842h1.14v1.368c0.456-0.481,0.928-0.874,1.416-1.179
		c0.487-0.304,1.073-0.456,1.757-0.456c0.608,0,1.172,0.104,1.691,0.313s0.956,0.573,1.311,1.093
		c0.241,0.354,0.384,0.719,0.428,1.093s0.066,0.763,0.066,1.168v6.441h-1.14v-6.422c0-0.887-0.196-1.552-0.589-1.995
		s-1.045-0.665-1.957-0.665c-0.354,0-0.678,0.054-0.969,0.161c-0.292,0.108-0.555,0.251-0.789,0.428
		c-0.234,0.178-0.434,0.38-0.599,0.608c-0.164,0.228-0.291,0.469-0.38,0.722c-0.114,0.316-0.184,0.621-0.209,0.912
		c-0.025,0.292-0.038,0.608-0.038,0.95V127.725z"/>
	<path class="st0" d="M399.418,123.07c0,0.532,0.069,1.036,0.209,1.511c0.139,0.475,0.345,0.887,0.617,1.235
		s0.617,0.627,1.035,0.836s0.899,0.313,1.444,0.313c0.747,0,1.387-0.196,1.919-0.589s0.887-0.95,1.064-1.673h1.272
		c-0.14,0.47-0.323,0.903-0.551,1.302c-0.229,0.399-0.513,0.748-0.855,1.045c-0.342,0.298-0.747,0.529-1.216,0.693
		c-0.469,0.165-1.014,0.247-1.634,0.247c-0.785,0-1.463-0.133-2.033-0.398c-0.569-0.267-1.038-0.63-1.405-1.093
		c-0.368-0.462-0.641-1.007-0.817-1.634c-0.178-0.627-0.266-1.302-0.266-2.023c0-0.723,0.104-1.399,0.313-2.033
		c0.209-0.633,0.506-1.188,0.893-1.662c0.386-0.476,0.858-0.849,1.415-1.121c0.558-0.272,1.19-0.409,1.9-0.409
		c1.355,0,2.419,0.466,3.192,1.396c0.772,0.932,1.152,2.283,1.14,4.057H399.418z M405.84,122.12c0-0.48-0.066-0.934-0.199-1.358
		c-0.134-0.424-0.33-0.791-0.59-1.102s-0.586-0.558-0.979-0.741s-0.842-0.275-1.349-0.275s-0.953,0.095-1.34,0.285
		c-0.386,0.189-0.716,0.443-0.987,0.76c-0.272,0.316-0.491,0.685-0.656,1.103c-0.164,0.418-0.272,0.861-0.322,1.329H405.84z"/>
	<path class="st0" d="M413.688,127.763c-0.14,0.025-0.323,0.069-0.551,0.133c-0.229,0.063-0.481,0.095-0.761,0.095
		c-0.569,0-1.004-0.143-1.301-0.427c-0.298-0.285-0.447-0.795-0.447-1.53v-7.2h-1.387v-0.95h1.387v-2.736h1.141v2.736h1.843v0.95
		h-1.843v6.744c0,0.241,0.006,0.45,0.019,0.628c0.013,0.177,0.051,0.322,0.114,0.437s0.161,0.196,0.295,0.247
		c0.133,0.051,0.319,0.076,0.56,0.076c0.152,0,0.308-0.013,0.466-0.038s0.313-0.058,0.466-0.095V127.763z"/>
</g>
</svg>