<svg xmlns="http://www.w3.org/2000/svg" width="420.12" height="128.72"><style>.st0{fill:#fff}.st1{fill:#ffc629}</style><path class="st0" d="M131.56 87.32l-12.24-30.57H130l7 19.75 7.44-19.75h9.98l-13.09 30.57v16.2h-9.78v-16.2z"/><path class="st0" d="M157.54 88.62c0 3.89.13 9.72 4.15 9.72 3.23 0 3.88-3.11 3.88-5.83h9.27c-.13 3.56-1.3 6.47-3.5 8.48-2.14 2.01-5.38 3.18-9.65 3.18-11.8 0-13.35-7.2-13.35-17.43 0-8.94 1.3-16.59 13.35-16.59 12.3 0 13.67 7.97 13.34 18.47h-17.49zm8.36-5.12c0-3.17.13-7.7-4.21-7.7-4.21 0-4.15 4.92-4.15 7.7h8.36zM187.54 56.75v46.77h-9.14V56.75h9.14zM201.66 56.75v46.77h-9.13V56.75h9.13zM203.8 86.74c0-8.94 1.3-16.59 13.34-16.59 12.05 0 13.35 7.65 13.35 16.59 0 10.23-1.56 17.43-13.35 17.43-11.78 0-13.34-7.2-13.34-17.43zm17.55-.52c0-6.8-.32-10.23-4.2-10.23-3.9 0-4.22 3.43-4.22 10.23 0 9.98.85 12.12 4.21 12.12 3.37 0 4.22-2.14 4.22-12.12z"/><path class="st0" d="M228.87 70.8h9.07l4.47 24.62h.13l6.28-24.62h9.46l5.77 24.62h.13l4.92-24.62h8.75l-8.88 32.72h-9.59l-5.9-22.35h-.12l-6.6 22.35h-9.72l-8.17-32.72zM278.56 103.52V56.75h24.3v7.19h-14.51v11.98h13.86v7.19h-13.86v20.4h-9.79zM303.7 86.74c0-8.94 1.3-16.59 13.34-16.59 12.05 0 13.35 7.65 13.35 16.59 0 10.23-1.56 17.43-13.35 17.43s-13.34-7.2-13.34-17.43zm17.55-.52c0-6.8-.32-10.23-4.2-10.23-3.9 0-4.22 3.43-4.22 10.23 0 9.98.85 12.12 4.21 12.12 3.37 0 4.21-2.14 4.21-12.12zM341.6 56.75v46.77h-9.14V56.75h9.14zM362.14 103.52v-3.63H362c-1.69 3.17-4.22 4.28-7.71 4.28-9.46 0-9.14-10.5-9.14-17.24 0-6.6-.26-16.78 8.94-16.78 3.3 0 5.57.98 7.45 3.76h.13V56.75h9.14v46.77h-8.68zm-.46-16.65c0-6.54.07-11.08-3.69-11.08-3.95 0-3.89 4.54-3.89 11.08 0 8.23.58 11.66 3.89 11.66 3.1 0 3.7-3.43 3.7-11.66zM382.74 88.62c0 3.89.13 9.72 4.14 9.72 3.24 0 3.89-3.11 3.89-5.83h9.26c-.12 3.56-1.3 6.47-3.5 8.48-2.13 2.01-5.37 3.18-9.65 3.18-11.79 0-13.34-7.2-13.34-17.43 0-8.94 1.3-16.59 13.34-16.59 12.31 0 13.67 7.97 13.35 18.47h-17.5zm8.35-5.12c0-3.17.13-7.7-4.2-7.7-4.22 0-4.15 4.92-4.15 7.7h8.35zM411.5 70.8v4.21h.13c1.69-3.75 4.8-4.86 8.49-4.86v8.17c-8.03-.52-8.16 4.15-8.16 7.38v17.82h-9.14V70.8h8.68z"/><g><path class="st1" d="M37.97 50.03v-6.76c0-1.2-.98-2.18-2.18-2.18H2.18c-1.2 0-2.18.97-2.18 2.18v9.1a9 9 0 0 1 6.05-2.34h31.92z"/><path class="st0" d="M91.47 49.86H76.33V31.75c0-9.16-7.45-16.61-16.6-16.61H47.14c-9.16 0-16.6 7.45-16.6 16.6v6.7H15.4v-6.7A31.78 31.78 0 0 1 47.13 0h12.59a31.78 31.78 0 0 1 31.74 31.75v18.1z"/><path class="st1" d="M99.4 53.03H6.06A6.06 6.06 0 0 0 0 59.1v63.57a6.06 6.06 0 0 0 6.05 6.06H99.4a6.06 6.06 0 0 0 6.06-6.06V59.1a6.06 6.06 0 0 0-6.06-6.06zM56.92 92.37v14.52H50.5V92.37a8.82 8.82 0 1 1 6.42 0z"/></g><g><path class="st0" d="M121.09 127.72v-13.68h9.1v1.1h-7.8v4.95h7.04v1.1h-7.05v5.43h8v1.1h-9.29zM141.08 114.05h1.14v13.68h-1.14V126h-.04a3.1 3.1 0 0 1-.64.86c-.26.25-.54.45-.85.62a4.6 4.6 0 0 1-1.93.51 4.7 4.7 0 0 1-2.03-.4 3.78 3.78 0 0 1-1.38-1.1 4.46 4.46 0 0 1-.79-1.63 8.04 8.04 0 0 1 .02-4.01c.18-.64.45-1.2.8-1.67a4 4 0 0 1 3.32-1.57c.7 0 1.37.16 2 .47s1.15.77 1.52 1.38v-5.41zm0 8.72c0-.56-.08-1.09-.23-1.6-.15-.5-.37-.93-.66-1.3-.28-.38-.63-.67-1.04-.9s-.88-.33-1.4-.33c-.6 0-1.1.12-1.54.35s-.78.56-1.06.96c-.28.4-.48.88-.6 1.42a6.38 6.38 0 0 0-.16 1.74c0 .62.09 1.17.26 1.64.17.48.4.88.7 1.2.31.34.67.59 1.07.76a3.39 3.39 0 0 0 2.76-.07c.42-.21.77-.5 1.04-.88.28-.37.5-.82.64-1.33.14-.51.22-1.07.22-1.66zM152.7 117.88h1.15v9.85h-1.14v-1.37l-.52.55a3.87 3.87 0 0 1-1.52.92c-.33.1-.7.16-1.14.16-.66 0-1.2-.1-1.65-.27s-.8-.44-1.07-.77a3.03 3.03 0 0 1-.6-1.15 5.37 5.37 0 0 1-.17-1.44v-6.48h1.14v6.46c0 .85.2 1.5.59 1.95.39.45 1.03.67 1.93.67a2.62 2.62 0 0 0 2.2-1.05c.26-.32.46-.71.6-1.17.14-.46.2-.96.2-1.5v-5.36zM164.52 120.98c-.2-.73-.55-1.3-1.04-1.72a2.84 2.84 0 0 0-1.88-.62c-.58 0-1.08.12-1.5.36-.42.24-.76.57-1.03.96-.26.4-.46.85-.59 1.35a6.16 6.16 0 0 0 0 3.03c.11.5.3.94.57 1.33.27.4.61.71 1.03.94s.92.36 1.52.36c.85 0 1.53-.24 2.04-.7s.84-1.12.98-1.94h1.22c-.1.54-.27 1.04-.49 1.49a3.67 3.67 0 0 1-2.1 1.9c-.48.18-1.03.27-1.65.27-.79 0-1.46-.13-2.03-.4a3.84 3.84 0 0 1-1.41-1.09 4.58 4.58 0 0 1-.82-1.64 7.48 7.48 0 0 1 .03-4c.2-.63.49-1.18.87-1.66a4.18 4.18 0 0 1 3.36-1.58c1.14 0 2.06.27 2.76.82a3.8 3.8 0 0 1 1.32 2.54h-1.16zM173.59 121.99l.77-.12c.3-.05.54-.12.73-.2a.6.6 0 0 0 .35-.45c.04-.21.07-.4.07-.58 0-.58-.2-1.06-.56-1.44-.38-.37-1-.56-1.9-.56-.39 0-.75.04-1.08.1-.33.08-.62.2-.86.37s-.45.4-.61.68a2.9 2.9 0 0 0-.32 1.07h-1.15c.03-.58.17-1.07.4-1.49.22-.4.52-.74.88-1s.78-.45 1.25-.57a6.15 6.15 0 0 1 2.9-.02c.44.1.82.28 1.15.51.32.23.57.55.76.94s.27.87.27 1.44v5.36c0 .45.08.73.24.85.16.12.48.09.96-.09v.9l-.39.11c-.17.05-.34.08-.5.08-.18 0-.35-.02-.52-.06a.87.87 0 0 1-.45-.18c-.12-.1-.2-.21-.28-.35a1.42 1.42 0 0 1-.14-.43 3.1 3.1 0 0 1-.04-.5 4.94 4.94 0 0 1-3.67 1.63c-.43 0-.84-.06-1.24-.17-.4-.12-.75-.3-1.06-.53-.3-.25-.54-.54-.72-.89a2.7 2.7 0 0 1-.26-1.24c0-1.68 1.14-2.66 3.44-2.97l1.58-.2zm1.92.57c-.48.2-.97.33-1.47.4l-1.48.15c-.87.06-1.55.26-2.04.59-.49.33-.73.83-.73 1.5a1.62 1.62 0 0 0 .65 1.34c.2.14.43.25.69.32.26.07.52.1.79.1.45 0 .9-.05 1.33-.17.43-.11.81-.29 1.15-.52a2.57 2.57 0 0 0 1.11-2.18v-1.53zM184.04 127.76c-.14.03-.33.07-.55.14s-.48.1-.76.1c-.57 0-1-.15-1.3-.44-.3-.28-.45-.8-.45-1.53v-7.2h-1.39v-.95h1.39v-2.73h1.14v2.73h1.84v.95h-1.84v6.75c0 .24 0 .45.02.63.01.17.05.32.11.43.06.12.16.2.3.25s.32.08.56.08c.15 0 .3-.02.46-.04s.31-.06.47-.1v.93zM186.93 115.74v-1.7h1.25v1.7h-1.25zm.05 11.98v-9.84h1.14v9.85h-1.14zM195.9 128a5.1 5.1 0 0 1-1.78-.35 3.97 3.97 0 0 1-1.45-.97 4.67 4.67 0 0 1-.98-1.61 6.48 6.48 0 0 1-.36-2.27c0-.72.1-1.4.29-2.02.19-.63.47-1.17.85-1.64s.86-.84 1.43-1.11 1.23-.41 2-.41a4.12 4.12 0 0 1 4.28 3.16 7.26 7.26 0 0 1-.05 4.15 4.78 4.78 0 0 1-.92 1.64c-.4.45-.88.8-1.45 1.05s-1.18.37-1.87.37zm3.34-5.2c0-.58-.07-1.12-.2-1.63-.12-.5-.32-.95-.58-1.32-.27-.37-.61-.67-1.03-.88a3.32 3.32 0 0 0-1.54-.33 2.99 2.99 0 0 0-2.56 1.28c-.27.4-.46.84-.6 1.34a6.32 6.32 0 0 0 .04 3.23c.14.51.36.95.63 1.32s.63.65 1.05.85c.42.2.9.3 1.44.3a2.96 2.96 0 0 0 2.56-1.3c.27-.38.47-.82.6-1.32.12-.5.19-1 .19-1.54zM204.63 127.72h-1.14v-9.84h1.14v1.37c.46-.48.93-.87 1.42-1.18.48-.3 1.07-.45 1.76-.45.6 0 1.17.1 1.69.3s.95.58 1.3 1.1c.25.36.4.72.44 1.1.04.37.06.76.06 1.16v6.44h-1.14v-6.42c0-.88-.2-1.55-.59-2s-1.04-.66-1.95-.66a2.8 2.8 0 0 0-1.76.6 2.9 2.9 0 0 0-.98 1.32c-.11.32-.19.62-.21.91-.03.3-.04.61-.04.95v5.3zM216.55 116.29c0 .55-.14 1-.4 1.34-.25.33-.59.56-1 .69v-.7c.16-.1.3-.24.45-.42.14-.18.2-.46.2-.84v-.64h-.64v-1.68h1.39v2.25zM220.84 124.65c.18.85.5 1.44.96 1.8.46.34 1.12.52 1.98.52.42 0 .78-.06 1.09-.16.3-.1.55-.23.75-.4a1.7 1.7 0 0 0 .6-1.27c0-.48-.16-.84-.47-1.07s-.7-.42-1.17-.55c-.47-.14-.98-.25-1.52-.35a7.45 7.45 0 0 1-1.52-.42c-.47-.2-.86-.47-1.17-.82s-.46-.85-.46-1.5c0-.82.3-1.5.9-2.02s1.45-.8 2.55-.8c1.07 0 1.93.25 2.6.72s1.06 1.27 1.2 2.39H226c-.1-.77-.39-1.3-.86-1.61a3.22 3.22 0 0 0-1.8-.47c-.72 0-1.27.16-1.65.47a1.5 1.5 0 0 0-.57 1.23c0 .44.16.78.47 1.01.3.24.7.43 1.17.57s.97.28 1.52.4c.54.1 1.05.27 1.52.48s.86.49 1.17.84c.3.36.46.85.46 1.48a2.5 2.5 0 0 1-1.14 2.15c-.35.24-.77.42-1.26.54-.49.12-1.02.18-1.6.18s-1.1-.08-1.56-.25a3.36 3.36 0 0 1-2.19-3.1h1.16zM236.5 120.9c0-1 .13-1.93.4-2.8s.68-1.64 1.21-2.3a5.72 5.72 0 0 1 4.7-2.12c1.06 0 2 .2 2.8.56.8.38 1.47.9 2.01 1.54.54.66.94 1.42 1.22 2.3a9.54 9.54 0 0 1 0 5.6 6.77 6.77 0 0 1-1.21 2.29c-.53.65-1.2 1.17-2 1.55s-1.72.57-2.77.57-1.97-.2-2.77-.57-1.46-.9-2-1.55a6.64 6.64 0 0 1-1.2-2.28c-.26-.87-.4-1.8-.4-2.79zm6.38 6.08a4.56 4.56 0 0 0 3.87-1.84c.4-.56.71-1.2.9-1.94.2-.73.3-1.5.3-2.3 0-.95-.12-1.8-.35-2.55a5.53 5.53 0 0 0-1.02-1.93 4.36 4.36 0 0 0-1.61-1.22 5.24 5.24 0 0 0-2.13-.42 4.6 4.6 0 0 0-3.85 1.87 5.81 5.81 0 0 0-.91 1.95 8.88 8.88 0 0 0 0 4.62c.2.73.5 1.38.91 1.94.41.56.94 1 1.58 1.33.64.33 1.41.5 2.3.5zM253.73 127.72h-1.14v-9.84h1.14v1.37c.45-.48.93-.87 1.41-1.18.5-.3 1.08-.45 1.76-.45.6 0 1.17.1 1.7.3s.95.58 1.3 1.1c.24.36.39.72.43 1.1.05.37.07.76.07 1.16v6.44h-1.14v-6.42c0-.88-.2-1.55-.6-2s-1.04-.66-1.95-.66a2.8 2.8 0 0 0-1.76.6 2.9 2.9 0 0 0-.98 1.32c-.1.32-.18.62-.2.91-.03.3-.04.61-.04.95v5.3zM264.27 127.72v-13.68h1.14v13.68h-1.14zM269.38 115.74v-1.7h1.26v1.7h-1.26zm.06 11.98v-9.84h1.14v9.85h-1.14zM275.58 127.72h-1.14v-9.84h1.14v1.37c.45-.48.93-.87 1.41-1.18.49-.3 1.08-.45 1.76-.45.6 0 1.17.1 1.7.3s.95.58 1.3 1.1c.24.36.39.72.43 1.1.04.37.07.76.07 1.16v6.44h-1.14v-6.42c0-.88-.2-1.55-.6-2s-1.04-.66-1.95-.66a2.8 2.8 0 0 0-1.76.6 2.9 2.9 0 0 0-.98 1.32c-.11.32-.18.62-.2.91-.03.3-.04.61-.04.95v5.3zM286.65 123.07c0 .53.07 1.04.21 1.51.14.48.35.89.62 1.24s.62.62 1.04.83.9.31 1.44.31c.75 0 1.39-.2 1.92-.58s.89-.95 1.06-1.68h1.28c-.14.47-.33.9-.56 1.3a3.67 3.67 0 0 1-2.07 1.74c-.47.17-1.01.25-1.63.25-.79 0-1.46-.13-2.03-.4a3.84 3.84 0 0 1-1.41-1.1c-.37-.45-.64-1-.82-1.62a7.38 7.38 0 0 1 .05-4.06c.2-.63.5-1.19.9-1.66a4.12 4.12 0 0 1 3.3-1.53c1.36 0 2.43.46 3.2 1.4.77.92 1.15 2.28 1.14 4.05h-7.64zm6.43-.95c0-.48-.07-.93-.2-1.36a2.9 2.9 0 0 0-2.92-2.12 3 3 0 0 0-2.33 1.05c-.27.32-.49.68-.65 1.1s-.27.86-.33 1.33h6.43zM303.74 127.72v-13.68h8.81v1.1h-7.52v4.95h6.84v1.1h-6.84v6.53h-1.3zM315.32 115.74v-1.7h1.26v1.7h-1.25zm.06 11.98v-9.84h1.14v9.85h-1.14zM320.55 127.72v-13.68h1.14v13.68h-1.14zM326.25 123.07c0 .53.07 1.04.2 1.51s.35.89.63 1.24.61.62 1.03.83.9.31 1.45.31c.74 0 1.38-.2 1.91-.58.54-.4.9-.95 1.07-1.68h1.27c-.14.47-.32.9-.55 1.3a3.7 3.7 0 0 1-2.07 1.74c-.47.17-1.01.25-1.64.25-.78 0-1.46-.13-2.03-.4a3.84 3.84 0 0 1-1.4-1.1c-.37-.45-.64-1-.82-1.62a7.27 7.27 0 0 1 .05-4.06c.2-.63.5-1.19.89-1.66a4.14 4.14 0 0 1 3.31-1.53c1.36 0 2.42.46 3.2 1.4.77.92 1.15 2.28 1.14 4.05h-7.64zm6.42-.95c0-.48-.06-.93-.2-1.36a3.2 3.2 0 0 0-.59-1.1 2.79 2.79 0 0 0-.97-.74c-.4-.19-.85-.28-1.35-.28a3.02 3.02 0 0 0-2.33 1.05c-.27.32-.5.68-.66 1.1a5.1 5.1 0 0 0-.32 1.33h6.42zM353.17 118.02c-.26-1.17-.76-2-1.48-2.5a4.92 4.92 0 0 0-2.83-.73c-.82 0-1.53.16-2.13.49a4.3 4.3 0 0 0-1.47 1.33c-.39.56-.67 1.2-.85 1.93s-.28 1.5-.28 2.3c0 .77.08 1.52.24 2.25s.42 1.39.79 1.97a4.17 4.17 0 0 0 3.81 1.92 3.97 3.97 0 0 0 2.86-1.07c.36-.33.67-.73.92-1.19.24-.45.43-.95.56-1.5h1.35a8.54 8.54 0 0 1-.67 1.87 5.29 5.29 0 0 1-2.88 2.6c-.67.27-1.47.4-2.38.4a5.8 5.8 0 0 1-2.7-.58 5.12 5.12 0 0 1-1.83-1.57 6.57 6.57 0 0 1-1.04-2.29c-.21-.87-.32-1.79-.32-2.76 0-1.3.16-2.42.48-3.33.33-.91.77-1.66 1.34-2.23s1.24-1 2.02-1.26a7.91 7.91 0 0 1 4.47-.11 4.49 4.49 0 0 1 2.74 2.18c.3.54.5 1.17.62 1.88h-1.34zM362.48 121.99l.77-.12c.3-.05.54-.12.73-.2a.6.6 0 0 0 .36-.45c.04-.21.06-.4.06-.58 0-.58-.19-1.06-.56-1.44-.37-.37-1-.56-1.89-.56-.4 0-.75.04-1.08.1s-.62.2-.87.37-.45.4-.6.68c-.16.29-.27.65-.32 1.07h-1.16c.04-.58.17-1.07.4-1.49.23-.4.52-.74.89-1s.77-.45 1.25-.57a6.15 6.15 0 0 1 2.9-.02c.44.1.82.28 1.15.51s.57.55.76.94.27.87.27 1.44v5.36c0 .45.08.73.24.85.16.12.48.09.96-.09v.9l-.4.11c-.16.05-.33.08-.5.08-.17 0-.34-.02-.5-.06a.86.86 0 0 1-.46-.18c-.12-.1-.2-.21-.28-.35a1.42 1.42 0 0 1-.14-.43 3.1 3.1 0 0 1-.04-.5 4.94 4.94 0 0 1-3.67 1.63c-.43 0-.84-.06-1.24-.17-.4-.12-.75-.3-1.06-.53-.3-.25-.54-.54-.72-.89s-.26-.76-.26-1.24c0-1.68 1.14-2.66 3.43-2.97l1.58-.2zm1.92.57c-.48.2-.97.33-1.46.4s-.99.1-1.48.15c-.88.06-1.56.26-2.05.59-.48.33-.73.83-.73 1.5a1.62 1.62 0 0 0 .66 1.34 2 2 0 0 0 .68.32c.26.07.53.1.8.1.45 0 .9-.05 1.32-.17.43-.11.82-.29 1.15-.52s.6-.53.8-.9c.21-.35.31-.78.31-1.28v-1.53zM370.75 127.72h-1.14v-13.68h1.14v5.42c.36-.6.87-1.07 1.5-1.38a4.51 4.51 0 0 1 3.96-.04 4 4 0 0 1 1.37 1.14c.36.48.63 1.03.8 1.67a8.03 8.03 0 0 1 .02 4 4.47 4.47 0 0 1-.78 1.65c-.36.46-.82.83-1.38 1.1a4.7 4.7 0 0 1-3 .26 4.58 4.58 0 0 1-1.82-1 3.09 3.09 0 0 1-.63-.86h-.04v1.72zm0-4.95c0 .6.07 1.15.22 1.66.14.51.35.96.63 1.33a2.99 2.99 0 0 0 2.47 1.2 3.08 3.08 0 0 0 2.4-1c.3-.33.54-.73.7-1.2.18-.48.27-1.03.27-1.65.02-.62-.03-1.2-.16-1.74s-.32-1.01-.6-1.42a3.02 3.02 0 0 0-2.6-1.3c-.53 0-.99.1-1.4.32-.41.23-.76.52-1.05.9-.28.37-.5.8-.65 1.3-.16.51-.23 1.04-.23 1.6zM382.15 115.74v-1.7h1.25v1.7h-1.25zm.05 11.98v-9.84h1.14v9.85h-1.14zM388.34 127.72h-1.14v-9.84h1.14v1.37c.46-.48.93-.87 1.42-1.18.48-.3 1.07-.45 1.75-.45.61 0 1.18.1 1.7.3s.95.58 1.3 1.1c.25.36.39.72.43 1.1s.07.76.07 1.16v6.44h-1.14v-6.42c0-.88-.2-1.55-.59-2s-1.04-.66-1.96-.66a2.8 2.8 0 0 0-1.75.6 2.9 2.9 0 0 0-.98 1.32 3.6 3.6 0 0 0-.21.91c-.03.3-.04.61-.04.95v5.3zM399.42 123.07c0 .53.07 1.04.2 1.51.15.48.35.89.62 1.24s.62.62 1.04.83.9.31 1.44.31c.75 0 1.39-.2 1.92-.58s.89-.95 1.07-1.68h1.27c-.14.47-.32.9-.55 1.3a3.67 3.67 0 0 1-2.07 1.74c-.47.17-1.02.25-1.64.25-.78 0-1.46-.13-2.03-.4a3.84 3.84 0 0 1-1.4-1.1c-.37-.45-.65-1-.82-1.62a7.38 7.38 0 0 1 .04-4.06c.21-.63.51-1.19.9-1.66a4.13 4.13 0 0 1 3.31-1.53c1.36 0 2.42.46 3.2 1.4.77.92 1.15 2.28 1.13 4.05h-7.63zm6.42-.95c0-.48-.07-.93-.2-1.36-.13-.42-.33-.79-.59-1.1s-.59-.56-.98-.74-.84-.28-1.35-.28a3 3 0 0 0-2.32 1.05c-.28.31-.5.68-.66 1.1a5.1 5.1 0 0 0-.32 1.33h6.42zM413.69 127.76c-.14.03-.33.07-.55.14-.23.06-.48.1-.76.1-.57 0-1-.15-1.3-.44-.3-.28-.45-.8-.45-1.53v-7.2h-1.39v-.95h1.39v-2.73h1.14v2.73h1.84v.95h-1.84v6.75c0 .24 0 .45.02.63.01.17.05.32.11.43s.16.2.3.25c.13.05.32.08.56.08.15 0 .3-.02.46-.04s.32-.06.47-.1v.93z"/></g></svg>