<svg xmlns="http://www.w3.org/2000/svg" viewBox="0 0 1920 1080"></svg>
	<style>
		.st0 {
			fill: #fc3;
			stroke: #939393;
			stroke-width: .5;
			stroke-linejoin: round;
			stroke-miterlimit: 10
		}
	</style>
	<path transform="scale(-1) rotate(50.69 678.36 -1086.24)" class="st0" d="M393.9 166.6h241.3V476H393.9z" />
	<path class="st0" d="M490.2 463.9L370 317.1M505.6 451.3L385.4 304.5M520.9 438.8L400.7 291.9M536.3 426.2L416.1 279.4M551.7 413.6l-84.8-103.4M582.4 388.5L462.1 241.6M597.7 375.9L477.5 229.1M613.1 363.4L492.8 216.5M628.4 350.8l-63.3-77.3M643.8 338.2L523.5 191.4M659.1 325.6L550.4 192.8" />
	<path transform="scale(-1) rotate(79.53 927.52 -1188.32)" class="st0" d="M868.1 617h241.3v309.4H868.1z" />
	<path class="st0" d="M898.6 884.9l-34.5-186.6M918.1 881.3l-34.5-186.6M937.7 877.7L903.1 691M957.2 874.1l-34.5-186.7M976.7 870.5L952.4 739M1015.7 863.2l-34.5-186.6M1035.2 859.6L1000.7 673M1054.7 856l-34.5-186.6M1074.2 852.4l-18.1-98.2M1093.7 848.8l-34.5-186.6M1113.3 845.2L1082 676.4" />
	<g>
		<path transform="rotate(148.43 428.8 500.8)" class="st0" d="M308.1 346.1h241.3v309.4H308.1z" />
		<path class="st0" d="M556.6 542.1l-148.8 91.4M537.4 510.9l-148.7 91.3M492.4 468.4l63.4 103.2M462.1 487l63.4 103.2M431.8 505.7l63.4 103.2M401.4 524.3l63.5 103.2M371.1 542.9l63.4 103.2M518.2 479.6L369.5 571M487.1 429.1l-148.7 91.3M476.6 411.9l-111.1 68.3M466.1 394.8l-148.7 91.4M455.6 377.7l-142.5 87.5M445 360.5l-123.6 76" />
	</g>
	<g>
		<path transform="rotate(-14.56 658.19 429.01)" class="st0" d="M537.5 274.2h241.3v309.4H537.5z" />
		<path class="st0" d="M538.8 347.2l183.7-47.7M543.8 366.4L710 323.2M548.8 385.6l116.6-30.3M553.8 404.8l183.7-47.7M558.8 424l183.7-47.7M563.8 443.2l171.7-44.6M568.8 462.4l183.7-47.7M573.7 481.6l183.7-47.7M578.7 500.8l153.9-40M583.7 520l183.7-47.7M588.7 539.2l166.2-43.1M593.7 558.4l91.8-23.8" />
	</g>
	<g>
		<path transform="rotate(54.27 1049.6 540.22)" class="st0" d="M928.9 385.5h241.3v309.4H928.9z" />
		<path class="st0" d="M1082.8 399.5l110.8 154.1M1066.6 411.1l100.3 139.3M1050.5 422.6l70.4 97.9M1034.4 434.2l110.9 154.1M1018.3 445.8l110.8 154.1M1002.2 457.4l103.6 144.1M986.1 469l110.8 154.1M970 480.6l110.8 154.1M953.9 492.2l92.8 129M937.8 503.7l110.8 154.1M921.7 515.3l100.2 139.4M905.6 526.9L961 604" />
	</g>
	<g>
		<path transform="rotate(8.26 872.56 344.85)" class="st0" d="M751.8 190.1h241.3v309.4H751.8z" />
		<path class="st0" d="M794.2 223.2L982 250.4M791.4 242.8l169.8 24.7M788.5 262.4l187.8 27.3M785.7 282.1l187.8 27.2M782.8 301.7L970.6 329M780 321.4l175.6 25.4M777.1 341l187.8 27.2M774.3 360.6l187.8 27.3M771.4 380.3l187.8 27.2M768.6 399.9l187.8 27.3M765.7 419.5L941.3 445M762.9 439.2l169.9 24.6" />
	</g>
	<g>
		<path transform="scale(-1) rotate(62.96 1166.17 -675.82)" class="st0" d="M293.2 559.3h241.3v309.4H293.2z" />
		<path class="st0" d="M359.8 848.2l-86.3-169.1M377.4 839.2l-78-152.9M395.1 830.1l-86.3-169M412.8 821.1l-86.3-169M430.4 812.1l-86.3-169M448.1 803.1L367.4 645M465.8 794.1L379.5 625M483.5 785l-86.3-169M501.1 776l-86.3-169M518.8 767l-86.3-169.1M536.5 758l-80.7-158.1M554.1 748.9l-78-152.8" />
	</g>
	<g>
		<path transform="rotate(14.07 704.08 788.57)" class="st0" d="M583.5 634h241.3v309.4H583.5z" />
		<path class="st0" d="M638.6 659.8l184.1 46.1M633.8 679l166.5 41.7M629 698.2l116.9 29.3M624.2 717.5l184.1 46.1M619.3 736.7l184.1 46.2M614.5 756l172.2 43.1M609.7 775.2l184.1 46.2M604.9 794.5L789 840.6M600 813.7l154.3 38.7M595.2 833l184.1 46.1M590.4 852.2L756.9 894M585.6 871.5l92 23" />
	</g>
	<g>
		<path transform="rotate(-76.49 630.72 619.48)" class="st0" d="M510 464.7h241.3v309.4H510z" />
		<path class="st0" d="M502.4 686.2l44.3-184.5M521.7 690.9L566 506.3M541 695.5L585.3 511M560.3 700.1l44.3-184.5M579.6 704.8l31.2-130M618.2 714l44.3-184.5M637.5 718.7l44.3-184.6M656.8 723.3l44.3-184.5M676 728l23.4-97.2M695.3 732.6L739.7 548M714.6 737.2l40.1-166.9" />
	</g>
	<g>
		<path transform="rotate(35.16 882.46 563.77)" class="st0" d="M761.8 409.1h241.3v309.4H761.8z" />
		<path class="st0" d="M869.9 430.1l142.7 100.5M848.8 460l142.7 100.6M827.5 518.1l69.8-99M856.6 538.6l69.8-99M885.7 559.1l69.8-99M914.8 579.6l69.8-99M943.9 600.1l69.8-99M827.7 490l142.7 100.5M793.5 538.5L936.2 639M781.9 555l106.6 75M770.3 571.4L913 671.9M758.7 587.8l136.7 96.3M747.1 604.3l118.7 83.5" />
	</g>
	<g>
		<path transform="scale(-1) rotate(50.69 678.36 -2144.66)" class="st0" d="M895.3 166.6h241.3V476H895.3z" />
		<path class="st0" d="M991.6 463.9L871.4 317.1M1007 451.3L886.7 304.5M1022.3 438.8L902.1 291.9M1037.7 426.2L917.5 279.4M1053 413.6l-84.7-103.4M1083.7 388.5L963.5 241.6M1099.1 375.9L978.9 229.1M1114.4 363.4L994.2 216.5M1129.8 350.8l-63.3-77.3M1145.2 338.2l-120.3-146.8M1160.5 325.6l-108.7-132.8" />
	</g>
	<g>
		<path transform="rotate(-72.5 1445.3 785.85)" class="st0" d="M1324.7 631.1H1566v309.4h-241.3z" />
		<path class="st0" d="M1312.7 843.5l57-181M1331.6 849.5l57.1-181M1350.5 855.4l57.1-181M1369.4 861.4l57.1-181M1388.4 867.4l40.2-127.5M1426.2 879.3l57.1-181M1445.1 885.3l57.1-181M1464.1 891.2l57-181M1483 897.2l30-95.3M1501.9 903.2l57.1-181M1520.8 909.1l51.7-163.7" />
	</g>
	<g>
		<path transform="rotate(148.43 930.18 500.8)" class="st0" d="M809.5 346.1h241.3v309.4H809.5z" />
		<path class="st0" d="M1058 542.1l-148.8 91.4M1038.8 510.9l-148.7 91.3M993.8 468.4l63.4 103.2M963.5 487l63.4 103.2M933.2 505.7l63.4 103.2M902.8 524.3l63.4 103.2M872.5 542.9l63.4 103.2M1019.6 479.6L870.9 571M988.5 429.1l-148.7 91.3M978 411.9l-111.1 68.3M967.5 394.8l-148.8 91.4M956.9 377.7l-142.4 87.5M946.4 360.5l-123.6 76" />
	</g>
	<g>
		<path transform="rotate(-14.56 1159.63 429.02)" class="st0" d="M1038.9 274.2h241.3v309.4h-241.3z" />
		<path class="st0" d="M1040.2 347.2l183.7-47.7M1045.2 366.4l166.2-43.2M1050.2 385.6l116.6-30.3M1055.2 404.8l183.7-47.7M1060.2 424l183.7-47.7M1065.2 443.2l171.7-44.6M1070.1 462.4l183.7-47.7M1075.1 481.6l183.7-47.7M1080.1 500.8l153.9-40M1085.1 520l183.7-47.7M1090.1 539.2l166.1-43.1M1095.1 558.4l91.8-23.8" />
	</g>
	<g>
		<path transform="rotate(-14.56 537.45 713)" class="st0" d="M416.8 558.2h241.3v309.4H416.8z" />
		<path class="st0" d="M418.1 631.1l183.7-47.7M423.1 650.3l166.2-43.1M428.1 669.5l116.6-30.3M433.1 688.7L616.8 641M438.1 707.9l183.7-47.7M443.1 727.1l171.7-44.6M448 746.3l183.7-47.7M453 765.6l183.7-47.7M458 784.8l153.9-40M463 804l183.7-47.7M468 823.2L634.1 780M473 842.4l91.8-23.9" />
	</g>
	<g>
		<path transform="rotate(54.27 1550.99 540.21)" class="st0" d="M1430.3 385.5h241.3v309.4h-241.3z" />
		<path class="st0" d="M1584.1 399.5L1695 553.6M1568 411.1l100.3 139.3M1551.9 422.6l70.4 97.9M1535.8 434.2l110.8 154.1M1519.7 445.8l110.8 154.1M1503.6 457.4l103.6 144.1M1487.5 469l110.8 154.1M1471.4 480.6l110.8 154.1M1455.3 492.2l92.8 129M1439.2 503.7L1550 657.8M1423.1 515.3l100.2 139.4M1407 526.9l55.4 77.1" />
	</g>
	<g>
		<path transform="rotate(8.26 1374 344.85)" class="st0" d="M1253.2 190.1h241.3v309.4h-241.3z" />
		<path class="st0" d="M1295.6 223.2l187.8 27.2M1292.8 242.8l169.8 24.7M1289.9 262.4l187.8 27.3M1287.1 282.1l187.8 27.2M1284.2 301.7L1472 329M1281.4 321.4l175.6 25.4M1278.5 341l187.8 27.2M1275.7 360.6l187.8 27.3M1272.8 380.3l187.8 27.2M1270 399.9l187.8 27.3M1267.1 419.5l175.6 25.5M1264.3 439.2l169.8 24.6" />
		<path transform="rotate(8.26 1489.21 411.12)" class="st0" d="M1368.4 256.3h241.3v309.4h-241.3z" />
		<path class="st0" d="M1410.8 289.4l187.8 27.3M1408 309.1l169.8 24.6M1405.1 328.7l187.8 27.3M1402.3 348.3l187.8 27.3M1399.4 368l187.8 27.2M1396.6 387.6l175.6 25.5M1393.7 407.2l187.8 27.3M1390.9 426.9l187.8 27.2M1388 446.5l187.8 27.3M1385.2 466.2l187.8 27.2M1382.3 485.8l175.6 25.5M1379.5 505.4l169.8 24.7" />
		<path transform="rotate(-20.08 1496.74 604.36)" class="st0" d="M1376.2 449.5h241.3v309.4h-241.3z" />
		<path class="st0" d="M1370.2 534.3l178.3-65.1M1377 553l161.2-59M1383.8 571.6l178.3-65.1M1390.6 590.2l178.3-65.1M1397.5 608.9l178.2-65.2M1404.3 627.5l166.6-60.9M1411.1 646.2l178.2-65.2M1417.9 664.8l178.2-65.2M1424.7 683.4l178.3-65.1M1431.5 702.1l178.3-65.2M1438.3 720.7l166.7-60.9M1445.1 739.3l161.3-58.9" />
	</g>
	<g>
		<path transform="rotate(-6.21 771.62 317.13)" class="st0" d="M650.8 162.3h241.3v309.4H650.8z" />
		<path class="st0" d="M665.3 218.8l188.6-20.5M667.4 238.6L838.1 220M669.6 258.3l188.6-20.6M671.7 278l188.7-20.5M673.9 297.7l188.6-20.5M676 317.5l176.4-19.2M678.2 337.2l188.6-20.5M680.3 356.9L869 336.4M682.4 376.6l188.7-20.5M684.6 396.4l188.7-20.6M686.7 416.1l176.5-19.2M688.9 435.8l170.6-18.6" />
	</g>
	<g>
		<path transform="scale(-1) rotate(62.96 1166.16 -1494.68)" class="st0" d="M794.5 559.3h241.3v309.4H794.5z" />
		<path class="st0" d="M861.1 848.2l-86.3-169.1M878.8 839.2l-78-152.9M896.5 830.1l-86.3-169M914.2 821.1l-86.3-169M931.8 812.1l-86.3-169M949.5 803.1L868.8 645M967.2 794.1L880.9 625M984.8 785l-86.3-169M1002.5 776l-86.3-169M1020.2 767l-86.3-169.1M1037.9 758l-80.7-158.1M1055.5 748.9l-78-152.8" />
	</g>
	<g>
		<path transform="rotate(14.07 1205.4 788.55)" class="st0" d="M1084.9 634h241.3v309.4h-241.3z" />
		<path class="st0" d="M1140 659.8l184.1 46.1M1135.2 679l166.5 41.7M1130.4 698.2l116.9 29.3M1125.5 717.5l184.1 46.1M1120.7 736.7l184.1 46.2M1115.9 756l172.1 43.1M1111.1 775.2l184.1 46.2M1106.3 794.5l184.1 46.1M1101.4 813.7l154.3 38.7M1096.6 833l184.1 46.1M1091.8 852.2l166.5 41.8M1087 871.5l92 23" />
	</g>
	<g>
		<path transform="rotate(-76.49 1132.13 619.47)" class="st0" d="M1011.4 464.7h241.3v309.4h-241.3z" />
		<path class="st0" d="M1003.8 686.2l44.3-184.5M1023.1 690.9l44.3-184.6M1042.4 695.5l44.3-184.5M1061.7 700.1l44.3-184.5M1081 704.8l31.2-130M1119.6 714l44.3-184.5M1138.8 718.7l44.4-184.6M1158.1 723.3l44.4-184.5M1177.4 728l23.4-97.2M1196.7 732.6l44.4-184.6M1216 737.2l40.1-166.9" />
	</g>
	<g>
		<path transform="rotate(35.16 1383.85 563.76)" class="st0" d="M1263.2 409.1h241.3v309.4h-241.3z" />
		<path class="st0" d="M1371.2 430.1l142.7 100.5M1350.1 460l142.7 100.6M1328.9 518.1l69.8-99M1358 538.6l69.8-99M1387.1 559.1l69.8-99M1416.2 579.6l69.7-99M1445.3 600.1l69.7-99M1329 490l142.8 100.5M1294.8 538.5L1437.6 639M1283.3 555l106.6 75M1271.7 571.4l142.7 100.5M1260.1 587.8l136.7 96.3M1248.5 604.3l118.7 83.5" />
	</g>
</svg>
