<?xml version="1.0" encoding="utf-8"?>
<!-- Generator: Adobe Illustrator 22.1.0, SVG Export Plug-In . SVG Version: 6.00 Build 0)  -->
<svg version="1.1" id="Layer_1" xmlns="http://www.w3.org/2000/svg" xmlns:xlink="http://www.w3.org/1999/xlink" x="0px" y="0px"
	 viewBox="0 0 1920 1080" style="enable-background:new 0 0 1920 1080;" xml:space="preserve">
<style type="text/css">
	.st0{fill:#FFCC33;stroke:#939393;stroke-width:0.5;stroke-linejoin:round;stroke-miterlimit:10;}
</style>
<g>
	<g>
		
			<rect x="393.9" y="166.6" transform="matrix(-0.6335 -0.7738 0.7738 -0.6335 591.8849 923.074)" class="st0" width="241.3" height="309.4"/>
		<g>
			<line class="st0" x1="490.2" y1="463.9" x2="370" y2="317.1"/>
			<line class="st0" x1="505.6" y1="451.3" x2="385.4" y2="304.5"/>
			<line class="st0" x1="520.9" y1="438.8" x2="400.7" y2="291.9"/>
			<line class="st0" x1="536.3" y1="426.2" x2="416.1" y2="279.4"/>
			<line class="st0" x1="551.7" y1="413.6" x2="466.9" y2="310.2"/>
			<line class="st0" x1="582.4" y1="388.5" x2="462.1" y2="241.6"/>
			<line class="st0" x1="597.7" y1="375.9" x2="477.5" y2="229.1"/>
			<line class="st0" x1="613.1" y1="363.4" x2="492.8" y2="216.5"/>
			<line class="st0" x1="628.4" y1="350.8" x2="565.1" y2="273.5"/>
			<line class="st0" x1="643.8" y1="338.2" x2="523.5" y2="191.4"/>
			<line class="st0" x1="659.1" y1="325.6" x2="550.4" y2="192.8"/>
		</g>
	</g>
	<g>
		
			<rect x="868.1" y="617" transform="matrix(-0.1818 -0.9833 0.9833 -0.1818 409.6105 1884.2677)" class="st0" width="241.3" height="309.4"/>
		<g>
			<line class="st0" x1="898.6" y1="884.9" x2="864.1" y2="698.3"/>
			<line class="st0" x1="918.1" y1="881.3" x2="883.6" y2="694.7"/>
			<line class="st0" x1="937.7" y1="877.7" x2="903.1" y2="691"/>
			<line class="st0" x1="957.2" y1="874.1" x2="922.7" y2="687.4"/>
			<line class="st0" x1="976.7" y1="870.5" x2="952.4" y2="739"/>
			<line class="st0" x1="1015.7" y1="863.2" x2="981.2" y2="676.6"/>
			<line class="st0" x1="1035.2" y1="859.6" x2="1000.7" y2="673"/>
			<line class="st0" x1="1054.7" y1="856" x2="1020.2" y2="669.4"/>
			<line class="st0" x1="1074.2" y1="852.4" x2="1056.1" y2="754.2"/>
			<line class="st0" x1="1093.7" y1="848.8" x2="1059.2" y2="662.2"/>
			<line class="st0" x1="1113.3" y1="845.2" x2="1082" y2="676.4"/>
		</g>
	</g>
	<g>
		
			<rect x="308.1" y="346.1" transform="matrix(-0.852 0.5235 -0.5235 -0.852 1056.2957 703.0121)" class="st0" width="241.3" height="309.4"/>
		<line class="st0" x1="556.6" y1="542.1" x2="407.8" y2="633.5"/>
		<line class="st0" x1="537.4" y1="510.9" x2="388.7" y2="602.2"/>
		<g>
			<line class="st0" x1="492.4" y1="468.4" x2="555.8" y2="571.6"/>
			<line class="st0" x1="462.1" y1="487" x2="525.5" y2="590.2"/>
			<line class="st0" x1="431.8" y1="505.7" x2="495.2" y2="608.9"/>
			<line class="st0" x1="401.4" y1="524.3" x2="464.9" y2="627.5"/>
			<line class="st0" x1="371.1" y1="542.9" x2="434.5" y2="646.1"/>
		</g>
		<line class="st0" x1="518.2" y1="479.6" x2="369.5" y2="571"/>
		<line class="st0" x1="487.1" y1="429.1" x2="338.4" y2="520.4"/>
		<line class="st0" x1="476.6" y1="411.9" x2="365.5" y2="480.2"/>
		<line class="st0" x1="466.1" y1="394.8" x2="317.4" y2="486.2"/>
		<line class="st0" x1="455.6" y1="377.7" x2="313.1" y2="465.2"/>
		<line class="st0" x1="445" y1="360.5" x2="321.4" y2="436.5"/>
	</g>
	<g>
		
			<rect x="537.5" y="274.2" transform="matrix(0.9679 -0.2513 0.2513 0.9679 -86.6826 179.1734)" class="st0" width="241.3" height="309.4"/>
		<g>
			<line class="st0" x1="538.8" y1="347.2" x2="722.5" y2="299.5"/>
			<line class="st0" x1="543.8" y1="366.4" x2="710" y2="323.2"/>
			<line class="st0" x1="548.8" y1="385.6" x2="665.4" y2="355.3"/>
			<line class="st0" x1="553.8" y1="404.8" x2="737.5" y2="357.1"/>
			<line class="st0" x1="558.8" y1="424" x2="742.5" y2="376.3"/>
			<line class="st0" x1="563.8" y1="443.2" x2="735.5" y2="398.6"/>
			<line class="st0" x1="568.8" y1="462.4" x2="752.5" y2="414.7"/>
			<line class="st0" x1="573.7" y1="481.6" x2="757.4" y2="433.9"/>
			<line class="st0" x1="578.7" y1="500.8" x2="732.6" y2="460.8"/>
			<line class="st0" x1="583.7" y1="520" x2="767.4" y2="472.3"/>
			<line class="st0" x1="588.7" y1="539.2" x2="754.9" y2="496.1"/>
			<line class="st0" x1="593.7" y1="558.4" x2="685.5" y2="534.6"/>
		</g>
	</g>
	<g>
		
			<rect x="928.9" y="385.5" transform="matrix(0.5839 0.8118 -0.8118 0.5839 875.2908 -627.2756)" class="st0" width="241.3" height="309.4"/>
		<g>
			<line class="st0" x1="1082.8" y1="399.5" x2="1193.6" y2="553.6"/>
			<line class="st0" x1="1066.6" y1="411.1" x2="1166.9" y2="550.4"/>
			<line class="st0" x1="1050.5" y1="422.6" x2="1120.9" y2="520.5"/>
			<line class="st0" x1="1034.4" y1="434.2" x2="1145.3" y2="588.3"/>
			<line class="st0" x1="1018.3" y1="445.8" x2="1129.1" y2="599.9"/>
			<line class="st0" x1="1002.2" y1="457.4" x2="1105.8" y2="601.5"/>
			<line class="st0" x1="986.1" y1="469" x2="1096.9" y2="623.1"/>
			<line class="st0" x1="970" y1="480.6" x2="1080.8" y2="634.7"/>
			<line class="st0" x1="953.9" y1="492.2" x2="1046.7" y2="621.2"/>
			<line class="st0" x1="937.8" y1="503.7" x2="1048.6" y2="657.8"/>
			<line class="st0" x1="921.7" y1="515.3" x2="1021.9" y2="654.7"/>
			<line class="st0" x1="905.6" y1="526.9" x2="961" y2="604"/>
		</g>
	</g>
	<g>
		
			<rect x="751.8" y="190.1" transform="matrix(0.9896 0.1436 -0.1436 0.9896 58.5635 -121.7248)" class="st0" width="241.3" height="309.4"/>
		<g>
			<line class="st0" x1="794.2" y1="223.2" x2="982" y2="250.4"/>
			<line class="st0" x1="791.4" y1="242.8" x2="961.2" y2="267.5"/>
			<line class="st0" x1="788.5" y1="262.4" x2="976.3" y2="289.7"/>
			<line class="st0" x1="785.7" y1="282.1" x2="973.5" y2="309.3"/>
			<line class="st0" x1="782.8" y1="301.7" x2="970.6" y2="329"/>
			<line class="st0" x1="780" y1="321.4" x2="955.6" y2="346.8"/>
			<line class="st0" x1="777.1" y1="341" x2="964.9" y2="368.2"/>
			<line class="st0" x1="774.3" y1="360.6" x2="962.1" y2="387.9"/>
			<line class="st0" x1="771.4" y1="380.3" x2="959.2" y2="407.5"/>
			<line class="st0" x1="768.6" y1="399.9" x2="956.4" y2="427.2"/>
			<line class="st0" x1="765.7" y1="419.5" x2="941.3" y2="445"/>
			<line class="st0" x1="762.9" y1="439.2" x2="932.8" y2="463.8"/>
		</g>
	</g>
	<g>
		
			<rect x="293.2" y="559.3" transform="matrix(-0.4547 -0.8907 0.8907 -0.4547 -34.0159 1407.2657)" class="st0" width="241.3" height="309.4"/>
		<g>
			<line class="st0" x1="359.8" y1="848.2" x2="273.5" y2="679.1"/>
			<line class="st0" x1="377.4" y1="839.2" x2="299.4" y2="686.3"/>
			<line class="st0" x1="395.1" y1="830.1" x2="308.8" y2="661.1"/>
			<line class="st0" x1="412.8" y1="821.1" x2="326.5" y2="652.1"/>
			<line class="st0" x1="430.4" y1="812.1" x2="344.1" y2="643.1"/>
			<line class="st0" x1="448.1" y1="803.1" x2="367.4" y2="645"/>
			<line class="st0" x1="465.8" y1="794.1" x2="379.5" y2="625"/>
			<line class="st0" x1="483.5" y1="785" x2="397.2" y2="616"/>
			<line class="st0" x1="501.1" y1="776" x2="414.8" y2="607"/>
			<line class="st0" x1="518.8" y1="767" x2="432.5" y2="597.9"/>
			<line class="st0" x1="536.5" y1="758" x2="455.8" y2="599.9"/>
			<line class="st0" x1="554.1" y1="748.9" x2="476.1" y2="596.1"/>
		</g>
	</g>
	<g>
		
			<rect x="583.5" y="634" transform="matrix(0.97 0.2431 -0.2431 0.97 212.8226 -147.5051)" class="st0" width="241.3" height="309.4"/>
		<g>
			<line class="st0" x1="638.6" y1="659.8" x2="822.7" y2="705.9"/>
			<line class="st0" x1="633.8" y1="679" x2="800.3" y2="720.7"/>
			<line class="st0" x1="629" y1="698.2" x2="745.9" y2="727.5"/>
			<line class="st0" x1="624.2" y1="717.5" x2="808.3" y2="763.6"/>
			<line class="st0" x1="619.3" y1="736.7" x2="803.4" y2="782.9"/>
			<line class="st0" x1="614.5" y1="756" x2="786.7" y2="799.1"/>
			<line class="st0" x1="609.7" y1="775.2" x2="793.8" y2="821.4"/>
			<line class="st0" x1="604.9" y1="794.5" x2="789" y2="840.6"/>
			<line class="st0" x1="600" y1="813.7" x2="754.3" y2="852.4"/>
			<line class="st0" x1="595.2" y1="833" x2="779.3" y2="879.1"/>
			<line class="st0" x1="590.4" y1="852.2" x2="756.9" y2="894"/>
			<line class="st0" x1="585.6" y1="871.5" x2="677.6" y2="894.5"/>
		</g>
	</g>
	<g>
		
			<rect x="510" y="464.7" transform="matrix(0.2336 -0.9723 0.9723 0.2336 -118.9555 1087.9972)" class="st0" width="241.3" height="309.4"/>
		<g>
			<line class="st0" x1="502.4" y1="686.2" x2="546.7" y2="501.7"/>
			<line class="st0" x1="521.7" y1="690.9" x2="566" y2="506.3"/>
			<line class="st0" x1="541" y1="695.5" x2="585.3" y2="511"/>
			<line class="st0" x1="560.3" y1="700.1" x2="604.6" y2="515.6"/>
			<line class="st0" x1="579.6" y1="704.8" x2="610.8" y2="574.8"/>
			<line class="st0" x1="618.2" y1="714" x2="662.5" y2="529.5"/>
			<line class="st0" x1="637.5" y1="718.7" x2="681.8" y2="534.1"/>
			<line class="st0" x1="656.8" y1="723.3" x2="701.1" y2="538.8"/>
			<line class="st0" x1="676" y1="728" x2="699.4" y2="630.8"/>
			<line class="st0" x1="695.3" y1="732.6" x2="739.7" y2="548"/>
			<line class="st0" x1="714.6" y1="737.2" x2="754.7" y2="570.3"/>
		</g>
	</g>
	<g>
		
			<rect x="761.8" y="409.1" transform="matrix(0.8175 0.5759 -0.5759 0.8175 485.7229 -405.3203)" class="st0" width="241.3" height="309.4"/>
		<line class="st0" x1="869.9" y1="430.1" x2="1012.6" y2="530.6"/>
		<line class="st0" x1="848.8" y1="460" x2="991.5" y2="560.6"/>
		<g>
			<line class="st0" x1="827.5" y1="518.1" x2="897.3" y2="419.1"/>
			<line class="st0" x1="856.6" y1="538.6" x2="926.4" y2="439.6"/>
			<line class="st0" x1="885.7" y1="559.1" x2="955.5" y2="460.1"/>
			<line class="st0" x1="914.8" y1="579.6" x2="984.6" y2="480.6"/>
			<line class="st0" x1="943.9" y1="600.1" x2="1013.7" y2="501.1"/>
		</g>
		<line class="st0" x1="827.7" y1="490" x2="970.4" y2="590.5"/>
		<line class="st0" x1="793.5" y1="538.5" x2="936.2" y2="639"/>
		<line class="st0" x1="781.9" y1="555" x2="888.5" y2="630"/>
		<line class="st0" x1="770.3" y1="571.4" x2="913" y2="671.9"/>
		<line class="st0" x1="758.7" y1="587.8" x2="895.4" y2="684.1"/>
		<line class="st0" x1="747.1" y1="604.3" x2="865.8" y2="687.8"/>
	</g>
	<g>
		
			<rect x="895.3" y="166.6" transform="matrix(-0.6335 -0.7738 0.7738 -0.6335 1410.8899 1311.0249)" class="st0" width="241.3" height="309.4"/>
		<g>
			<line class="st0" x1="991.6" y1="463.9" x2="871.4" y2="317.1"/>
			<line class="st0" x1="1007" y1="451.3" x2="886.7" y2="304.5"/>
			<line class="st0" x1="1022.3" y1="438.8" x2="902.1" y2="291.9"/>
			<line class="st0" x1="1037.7" y1="426.2" x2="917.5" y2="279.4"/>
			<line class="st0" x1="1053" y1="413.6" x2="968.3" y2="310.2"/>
			<line class="st0" x1="1083.7" y1="388.5" x2="963.5" y2="241.6"/>
			<line class="st0" x1="1099.1" y1="375.9" x2="978.9" y2="229.1"/>
			<line class="st0" x1="1114.4" y1="363.4" x2="994.2" y2="216.5"/>
			<line class="st0" x1="1129.8" y1="350.8" x2="1066.5" y2="273.5"/>
			<line class="st0" x1="1145.2" y1="338.2" x2="1024.9" y2="191.4"/>
			<line class="st0" x1="1160.5" y1="325.6" x2="1051.8" y2="192.8"/>
		</g>
	</g>
	<g>
		
			<rect x="1324.7" y="631.1" transform="matrix(0.3007 -0.9537 0.9537 0.3007 261.236 1927.9279)" class="st0" width="241.3" height="309.4"/>
		<g>
			<line class="st0" x1="1312.7" y1="843.5" x2="1369.7" y2="662.5"/>
			<line class="st0" x1="1331.6" y1="849.5" x2="1388.7" y2="668.5"/>
			<line class="st0" x1="1350.5" y1="855.4" x2="1407.6" y2="674.4"/>
			<line class="st0" x1="1369.4" y1="861.4" x2="1426.5" y2="680.4"/>
			<line class="st0" x1="1388.4" y1="867.4" x2="1428.6" y2="739.9"/>
			<line class="st0" x1="1426.2" y1="879.3" x2="1483.3" y2="698.3"/>
			<line class="st0" x1="1445.1" y1="885.3" x2="1502.2" y2="704.3"/>
			<line class="st0" x1="1464.1" y1="891.2" x2="1521.1" y2="710.2"/>
			<line class="st0" x1="1483" y1="897.2" x2="1513" y2="801.9"/>
			<line class="st0" x1="1501.9" y1="903.2" x2="1559" y2="722.2"/>
			<line class="st0" x1="1520.8" y1="909.1" x2="1572.5" y2="745.4"/>
		</g>
	</g>
	<g>
		
			<rect x="809.5" y="346.1" transform="matrix(-0.852 0.5235 -0.5235 -0.852 1984.8622 440.5156)" class="st0" width="241.3" height="309.4"/>
		<line class="st0" x1="1058" y1="542.1" x2="909.2" y2="633.5"/>
		<line class="st0" x1="1038.8" y1="510.9" x2="890.1" y2="602.2"/>
		<g>
			<line class="st0" x1="993.8" y1="468.4" x2="1057.2" y2="571.6"/>
			<line class="st0" x1="963.5" y1="487" x2="1026.9" y2="590.2"/>
			<line class="st0" x1="933.2" y1="505.7" x2="996.6" y2="608.9"/>
			<line class="st0" x1="902.8" y1="524.3" x2="966.2" y2="627.5"/>
			<line class="st0" x1="872.5" y1="542.9" x2="935.9" y2="646.1"/>
		</g>
		<line class="st0" x1="1019.6" y1="479.6" x2="870.9" y2="571"/>
		<line class="st0" x1="988.5" y1="429.1" x2="839.8" y2="520.4"/>
		<line class="st0" x1="978" y1="411.9" x2="866.9" y2="480.2"/>
		<line class="st0" x1="967.5" y1="394.8" x2="818.7" y2="486.2"/>
		<line class="st0" x1="956.9" y1="377.7" x2="814.5" y2="465.2"/>
		<line class="st0" x1="946.4" y1="360.5" x2="822.8" y2="436.5"/>
	</g>
	<g>
		
			<rect x="1038.9" y="274.2" transform="matrix(0.9679 -0.2513 0.2513 0.9679 -70.5887 305.1876)" class="st0" width="241.3" height="309.4"/>
		<g>
			<line class="st0" x1="1040.2" y1="347.2" x2="1223.9" y2="299.5"/>
			<line class="st0" x1="1045.2" y1="366.4" x2="1211.4" y2="323.2"/>
			<line class="st0" x1="1050.2" y1="385.6" x2="1166.8" y2="355.3"/>
			<line class="st0" x1="1055.2" y1="404.8" x2="1238.9" y2="357.1"/>
			<line class="st0" x1="1060.2" y1="424" x2="1243.9" y2="376.3"/>
			<line class="st0" x1="1065.2" y1="443.2" x2="1236.9" y2="398.6"/>
			<line class="st0" x1="1070.1" y1="462.4" x2="1253.8" y2="414.7"/>
			<line class="st0" x1="1075.1" y1="481.6" x2="1258.8" y2="433.9"/>
			<line class="st0" x1="1080.1" y1="500.8" x2="1234" y2="460.8"/>
			<line class="st0" x1="1085.1" y1="520" x2="1268.8" y2="472.3"/>
			<line class="st0" x1="1090.1" y1="539.2" x2="1256.2" y2="496.1"/>
			<line class="st0" x1="1095.1" y1="558.4" x2="1186.9" y2="534.6"/>
		</g>
	</g>
	<g>
		
			<rect x="416.8" y="558.2" transform="matrix(0.9679 -0.2513 0.2513 0.9679 -161.9232 157.9485)" class="st0" width="241.3" height="309.4"/>
		<g>
			<line class="st0" x1="418.1" y1="631.1" x2="601.8" y2="583.4"/>
			<line class="st0" x1="423.1" y1="650.3" x2="589.3" y2="607.2"/>
			<line class="st0" x1="428.1" y1="669.5" x2="544.7" y2="639.2"/>
			<line class="st0" x1="433.1" y1="688.7" x2="616.8" y2="641"/>
			<line class="st0" x1="438.1" y1="707.9" x2="621.8" y2="660.2"/>
			<line class="st0" x1="443.1" y1="727.1" x2="614.8" y2="682.5"/>
			<line class="st0" x1="448" y1="746.3" x2="631.7" y2="698.6"/>
			<line class="st0" x1="453" y1="765.6" x2="636.7" y2="717.9"/>
			<line class="st0" x1="458" y1="784.8" x2="611.9" y2="744.8"/>
			<line class="st0" x1="463" y1="804" x2="646.7" y2="756.3"/>
			<line class="st0" x1="468" y1="823.2" x2="634.1" y2="780"/>
			<line class="st0" x1="473" y1="842.4" x2="564.8" y2="818.5"/>
		</g>
	</g>
	<g>
		
			<rect x="1430.3" y="385.5" transform="matrix(0.5839 0.8118 -0.8118 0.5839 1083.913 -1034.3102)" class="st0" width="241.3" height="309.4"/>
		<g>
			<line class="st0" x1="1584.1" y1="399.5" x2="1695" y2="553.6"/>
			<line class="st0" x1="1568" y1="411.1" x2="1668.3" y2="550.4"/>
			<line class="st0" x1="1551.9" y1="422.6" x2="1622.3" y2="520.5"/>
			<line class="st0" x1="1535.8" y1="434.2" x2="1646.6" y2="588.3"/>
			<line class="st0" x1="1519.7" y1="445.8" x2="1630.5" y2="599.9"/>
			<line class="st0" x1="1503.6" y1="457.4" x2="1607.2" y2="601.5"/>
			<line class="st0" x1="1487.5" y1="469" x2="1598.3" y2="623.1"/>
			<line class="st0" x1="1471.4" y1="480.6" x2="1582.2" y2="634.7"/>
			<line class="st0" x1="1455.3" y1="492.2" x2="1548.1" y2="621.2"/>
			<line class="st0" x1="1439.2" y1="503.7" x2="1550" y2="657.8"/>
			<line class="st0" x1="1423.1" y1="515.3" x2="1523.3" y2="654.7"/>
			<line class="st0" x1="1407" y1="526.9" x2="1462.4" y2="604"/>
		</g>
	</g>
	<g>
		
			<rect x="1253.2" y="190.1" transform="matrix(0.9896 0.1436 -0.1436 0.9896 63.7612 -193.7322)" class="st0" width="241.3" height="309.4"/>
		<g>
			<line class="st0" x1="1295.6" y1="223.2" x2="1483.4" y2="250.4"/>
			<line class="st0" x1="1292.8" y1="242.8" x2="1462.6" y2="267.5"/>
			<line class="st0" x1="1289.9" y1="262.4" x2="1477.7" y2="289.7"/>
			<line class="st0" x1="1287.1" y1="282.1" x2="1474.9" y2="309.3"/>
			<line class="st0" x1="1284.2" y1="301.7" x2="1472" y2="329"/>
			<line class="st0" x1="1281.4" y1="321.4" x2="1457" y2="346.8"/>
			<line class="st0" x1="1278.5" y1="341" x2="1466.3" y2="368.2"/>
			<line class="st0" x1="1275.7" y1="360.6" x2="1463.5" y2="387.9"/>
			<line class="st0" x1="1272.8" y1="380.3" x2="1460.6" y2="407.5"/>
			<line class="st0" x1="1270" y1="399.9" x2="1457.8" y2="427.2"/>
			<line class="st0" x1="1267.1" y1="419.5" x2="1442.7" y2="445"/>
			<line class="st0" x1="1264.3" y1="439.2" x2="1434.1" y2="463.8"/>
			
				<rect x="1368.4" y="256.3" transform="matrix(0.9896 0.1436 -0.1436 0.9896 74.4714 -209.5901)" class="st0" width="241.3" height="309.4"/>
			<line class="st0" x1="1410.8" y1="289.4" x2="1598.6" y2="316.7"/>
			<line class="st0" x1="1408" y1="309.1" x2="1577.8" y2="333.7"/>
			<line class="st0" x1="1405.1" y1="328.7" x2="1592.9" y2="356"/>
			<line class="st0" x1="1402.3" y1="348.3" x2="1590.1" y2="375.6"/>
			<line class="st0" x1="1399.4" y1="368" x2="1587.2" y2="395.2"/>
			<line class="st0" x1="1396.6" y1="387.6" x2="1572.2" y2="413.1"/>
			<line class="st0" x1="1393.7" y1="407.2" x2="1581.5" y2="434.5"/>
			<line class="st0" x1="1390.9" y1="426.9" x2="1578.7" y2="454.1"/>
			<line class="st0" x1="1388" y1="446.5" x2="1575.8" y2="473.8"/>
			<line class="st0" x1="1385.2" y1="466.2" x2="1573" y2="493.4"/>
			<line class="st0" x1="1382.3" y1="485.8" x2="1557.9" y2="511.3"/>
			<line class="st0" x1="1379.5" y1="505.4" x2="1549.3" y2="530.1"/>
			
				<rect x="1376.2" y="449.5" transform="matrix(0.9392 -0.3433 0.3433 0.9392 -116.4747 550.5752)" class="st0" width="241.3" height="309.4"/>
			<line class="st0" x1="1370.2" y1="534.3" x2="1548.5" y2="469.2"/>
			<line class="st0" x1="1377" y1="553" x2="1538.2" y2="494"/>
			<line class="st0" x1="1383.8" y1="571.6" x2="1562.1" y2="506.5"/>
			<line class="st0" x1="1390.6" y1="590.2" x2="1568.9" y2="525.1"/>
			<line class="st0" x1="1397.5" y1="608.9" x2="1575.7" y2="543.7"/>
			<line class="st0" x1="1404.3" y1="627.5" x2="1570.9" y2="566.6"/>
			<line class="st0" x1="1411.1" y1="646.2" x2="1589.3" y2="581"/>
			<line class="st0" x1="1417.9" y1="664.8" x2="1596.1" y2="599.6"/>
			<line class="st0" x1="1424.7" y1="683.4" x2="1603" y2="618.3"/>
			<line class="st0" x1="1431.5" y1="702.1" x2="1609.8" y2="636.9"/>
			<line class="st0" x1="1438.3" y1="720.7" x2="1605" y2="659.8"/>
			<line class="st0" x1="1445.1" y1="739.3" x2="1606.4" y2="680.4"/>
		</g>
	</g>
	<g>
		
			<rect x="650.8" y="162.3" transform="matrix(0.9941 -0.1082 0.1082 0.9941 -29.7833 85.3509)" class="st0" width="241.3" height="309.4"/>
		<g>
			<line class="st0" x1="665.3" y1="218.8" x2="853.9" y2="198.3"/>
			<line class="st0" x1="667.4" y1="238.6" x2="838.1" y2="220"/>
			<line class="st0" x1="669.6" y1="258.3" x2="858.2" y2="237.7"/>
			<line class="st0" x1="671.7" y1="278" x2="860.4" y2="257.5"/>
			<line class="st0" x1="673.9" y1="297.7" x2="862.5" y2="277.2"/>
			<line class="st0" x1="676" y1="317.5" x2="852.4" y2="298.3"/>
			<line class="st0" x1="678.2" y1="337.2" x2="866.8" y2="316.7"/>
			<line class="st0" x1="680.3" y1="356.9" x2="869" y2="336.4"/>
			<line class="st0" x1="682.4" y1="376.6" x2="871.1" y2="356.1"/>
			<line class="st0" x1="684.6" y1="396.4" x2="873.3" y2="375.8"/>
			<line class="st0" x1="686.7" y1="416.1" x2="863.2" y2="396.9"/>
			<line class="st0" x1="688.9" y1="435.8" x2="859.5" y2="417.2"/>
		</g>
	</g>
	<g>
		
			<rect x="794.5" y="559.3" transform="matrix(-0.4547 -0.8907 0.8907 -0.4547 695.3445 1853.8252)" class="st0" width="241.3" height="309.4"/>
		<g>
			<line class="st0" x1="861.1" y1="848.2" x2="774.8" y2="679.1"/>
			<line class="st0" x1="878.8" y1="839.2" x2="800.8" y2="686.3"/>
			<line class="st0" x1="896.5" y1="830.1" x2="810.2" y2="661.1"/>
			<line class="st0" x1="914.2" y1="821.1" x2="827.9" y2="652.1"/>
			<line class="st0" x1="931.8" y1="812.1" x2="845.5" y2="643.1"/>
			<line class="st0" x1="949.5" y1="803.1" x2="868.8" y2="645"/>
			<line class="st0" x1="967.2" y1="794.1" x2="880.9" y2="625"/>
			<line class="st0" x1="984.8" y1="785" x2="898.5" y2="616"/>
			<line class="st0" x1="1002.5" y1="776" x2="916.2" y2="607"/>
			<line class="st0" x1="1020.2" y1="767" x2="933.9" y2="597.9"/>
			<line class="st0" x1="1037.9" y1="758" x2="957.2" y2="599.9"/>
			<line class="st0" x1="1055.5" y1="748.9" x2="977.5" y2="596.1"/>
		</g>
	</g>
	<g>
		
			<rect x="1084.9" y="634" transform="matrix(0.97 0.2431 -0.2431 0.97 227.8597 -269.3767)" class="st0" width="241.3" height="309.4"/>
		<g>
			<line class="st0" x1="1140" y1="659.8" x2="1324.1" y2="705.9"/>
			<line class="st0" x1="1135.2" y1="679" x2="1301.7" y2="720.7"/>
			<line class="st0" x1="1130.4" y1="698.2" x2="1247.3" y2="727.5"/>
			<line class="st0" x1="1125.5" y1="717.5" x2="1309.6" y2="763.6"/>
			<line class="st0" x1="1120.7" y1="736.7" x2="1304.8" y2="782.9"/>
			<line class="st0" x1="1115.9" y1="756" x2="1288" y2="799.1"/>
			<line class="st0" x1="1111.1" y1="775.2" x2="1295.2" y2="821.4"/>
			<line class="st0" x1="1106.3" y1="794.5" x2="1290.4" y2="840.6"/>
			<line class="st0" x1="1101.4" y1="813.7" x2="1255.7" y2="852.4"/>
			<line class="st0" x1="1096.6" y1="833" x2="1280.7" y2="879.1"/>
			<line class="st0" x1="1091.8" y1="852.2" x2="1258.3" y2="894"/>
			<line class="st0" x1="1087" y1="871.5" x2="1179" y2="894.5"/>
		</g>
	</g>
	<g>
		
			<rect x="1011.4" y="464.7" transform="matrix(0.2336 -0.9723 0.9723 0.2336 265.3128 1575.5126)" class="st0" width="241.3" height="309.4"/>
		<g>
			<line class="st0" x1="1003.8" y1="686.2" x2="1048.1" y2="501.7"/>
			<line class="st0" x1="1023.1" y1="690.9" x2="1067.4" y2="506.3"/>
			<line class="st0" x1="1042.4" y1="695.5" x2="1086.7" y2="511"/>
			<line class="st0" x1="1061.7" y1="700.1" x2="1106" y2="515.6"/>
			<line class="st0" x1="1081" y1="704.8" x2="1112.2" y2="574.8"/>
			<line class="st0" x1="1119.6" y1="714" x2="1163.9" y2="529.5"/>
			<line class="st0" x1="1138.8" y1="718.7" x2="1183.2" y2="534.1"/>
			<line class="st0" x1="1158.1" y1="723.3" x2="1202.5" y2="538.8"/>
			<line class="st0" x1="1177.4" y1="728" x2="1200.8" y2="630.8"/>
			<line class="st0" x1="1196.7" y1="732.6" x2="1241.1" y2="548"/>
			<line class="st0" x1="1216" y1="737.2" x2="1256.1" y2="570.3"/>
		</g>
	</g>
	<g>
		
			<rect x="1263.2" y="409.1" transform="matrix(0.8175 0.5759 -0.5759 0.8175 577.221 -694.076)" class="st0" width="241.3" height="309.4"/>
		<line class="st0" x1="1371.2" y1="430.1" x2="1513.9" y2="530.6"/>
		<line class="st0" x1="1350.1" y1="460" x2="1492.8" y2="560.6"/>
		<g>
			<line class="st0" x1="1328.9" y1="518.1" x2="1398.7" y2="419.1"/>
			<line class="st0" x1="1358" y1="538.6" x2="1427.8" y2="439.6"/>
			<line class="st0" x1="1387.1" y1="559.1" x2="1456.9" y2="460.1"/>
			<line class="st0" x1="1416.2" y1="579.6" x2="1485.9" y2="480.6"/>
			<line class="st0" x1="1445.3" y1="600.1" x2="1515" y2="501.1"/>
		</g>
		<line class="st0" x1="1329" y1="490" x2="1471.8" y2="590.5"/>
		<line class="st0" x1="1294.8" y1="538.5" x2="1437.6" y2="639"/>
		<line class="st0" x1="1283.3" y1="555" x2="1389.9" y2="630"/>
		<line class="st0" x1="1271.7" y1="571.4" x2="1414.4" y2="671.9"/>
		<line class="st0" x1="1260.1" y1="587.8" x2="1396.8" y2="684.1"/>
		<line class="st0" x1="1248.5" y1="604.3" x2="1367.2" y2="687.8"/>
	</g>
</g>
</svg>
