<?xml version="1.0" encoding="utf-8"?>
<svg version="1.1" id="Layer_1" xmlns="http://www.w3.org/2000/svg" xmlns:xlink="http://www.w3.org/1999/xlink" x="0px" y="0px"
	 viewBox="0 0 1165 757.6" style="enable-background:new 0 0 1165 757.6;" xml:space="preserve">
<style type="text/css">
	.st0{fill:none;stroke:#C7C6C5;stroke-width:0.5;stroke-miterlimit:10;}
	.st1{fill:none;stroke:#C7C6C5;stroke-width:0.5;stroke-linejoin:round;stroke-miterlimit:10;}
</style>
<g>
	<g>
		<g>
			<path class="st0" d="M502.3,205.8v-22.4c0-4-3.2-7.2-7.2-7.2H384c-4,0-7.2,3.2-7.2,7.2v30.1c5.3-4.8,12.3-7.7,20-7.7H502.3z"/>
		</g>
		<g>
			<path class="st0" d="M679.1,205.2h-50v-59.9c0-30.3-24.6-54.9-54.9-54.9h-41.6c-30.3,0-54.9,24.6-54.9,54.9v22.1h-50v-22.1
				c0-57.8,47.1-104.9,104.9-104.9h41.6c57.8,0,104.9,47.1,104.9,104.9V205.2z"/>
		</g>
		<g>
			<path class="st0" d="M705.3,215.7H396.8c-11,0-20,9-20,20v210.1c0,11,9,20,20,20h308.5c11,0,20-9,20-20V235.7
				C725.3,224.7,716.3,215.7,705.3,215.7z M564.9,345.7v48h-21.2v-48c-10.9-4.2-18.6-14.8-18.6-27.2c0-16.1,13.1-29.2,29.2-29.2
				c16.1,0,29.2,13.1,29.2,29.2C583.5,330.9,575.8,341.4,564.9,345.7z"/>
		</g>
	</g>
	<g>
		<g>
			<g>
				<path class="st1" d="M362.7,381.2h-30.4v-31.1c0-18.4-15-33.4-33.4-33.4h-25.3c-18.4,0-33.4,15-33.4,33.4v15.1h-30.4v-15.1
					c0-35.2,28.6-63.8,63.8-63.8h25.3c35.2,0,63.8,28.6,63.8,63.8V381.2z"/>
			</g>
		</g>
		<g>
			<path class="st1" d="M390.8,405.1c0-6.7-5.5-12.2-12.2-12.2H255.1v-12.4c0-2.4-2-4.4-4.4-4.4h-67.6c-2.4,0-4.4,2-4.4,4.4v29.3
				l103.8-0.6c0.7,0,1.5,0,2.3,0.1l40.6-0.2c10.5,0,20.9,7.1,24.4,16.5L389,530.8c0.7,2,1.1,4,1.2,6c0.4-1.2,0.6-2.4,0.6-3.8V405.1z
				"/>
		</g>
		<path class="st1" d="M325.4,419.2l-172.2,1c-6.2,0-9.5,4.5-7.4,10.1L185,535.4c2.1,5.5,8.7,10,14.9,10l172.2-1
			c6.2,0,9.5-4.6,7.4-10.1l-39.3-105.2C338.2,423.6,331.6,419.1,325.4,419.2z"/>
		<path class="st1" d="M268.6,486.7l6.8,18h-9l-6.8-18c-5.2-1.6-10-5.5-11.7-10.2c-2.3-6,1.4-10.9,8.2-10.9
			c6.8,0,14.2,4.9,16.5,10.9C274.3,481.2,272.6,485.1,268.6,486.7z"/>
	</g>
	<g>
		<g>
			<path class="st1" d="M688.8,487.9c0-4.2,3.4-7.6,7.6-7.6h77.1v-7.7c0-1.5,1.2-2.7,2.7-2.7h42.2c1.5,0,2.7,1.2,2.7,2.7v18.3
				l-64.7-0.4c-0.5,0-0.9,0-1.4,0.1l-25.3-0.1c-6.5,0-13,4.4-15.2,10.3L690,566.3c-0.5,1.2-0.7,2.5-0.8,3.7
				c-0.2-0.7-0.4-1.5-0.4-2.3V487.9z"/>
		</g>
		<path class="st0" d="M720.3,502.9l-24.5,65.6c-1.3,3.4,0.8,6.3,4.6,6.3l107.4,0.6c3.8,0,8-2.8,9.3-6.2l24.5-65.6
			c1.3-3.4-0.8-6.3-4.6-6.3l-107.4-0.6C725.8,496.7,721.6,499.5,720.3,502.9z"/>
	</g>
	<g>
		<line class="st0" x1="461.7" y1="424.4" x2="461.7" y2="642.5"/>
		<line class="st0" x1="447.5" y1="475.7" x2="447.5" y2="675.6"/>
		<path class="st0" d="M433.2,738.1v-91.6c0-48.1,14.3-27.9,14.3-80.8"/>
		<line class="st0" x1="476" y1="528.9" x2="476" y2="698.7"/>
		<circle class="st1" cx="433.2" cy="743.7" r="5.6"/>
		<circle class="st1" cx="433.2" cy="389.3" r="5.6"/>
		<circle class="st1" cx="461.7" cy="418.8" r="5.6"/>
		<circle class="st1" cx="476" cy="442.6" r="5.6"/>
		<circle class="st1" cx="490.2" cy="488.5" r="5.6"/>
		<circle class="st1" cx="476" cy="523.3" r="5.6"/>
		<circle class="st1" cx="447.5" cy="681.2" r="5.6"/>
		<circle class="st1" cx="461.7" cy="647.9" r="5.6"/>
		<circle class="st1" cx="476" cy="704.3" r="5.6"/>
		<path class="st0" d="M447.5,475.7c0-48.1-14.3-27.9-14.3-80.8"/>
		<path class="st0" d="M476,661c0-48.1-14.3-27.9-14.3-80.8"/>
		<path class="st0" d="M461.7,528.9c0-48.1,14.3-27.9,14.3-80.8"/>
		<path class="st0" d="M476,600.7c0-48.1,14.3-27.9,14.3-80.8v-26.4"/>
	</g>
	<g>
		<line class="st0" x1="873.3" y1="330.4" x2="873.3" y2="489"/>
		<line class="st0" x1="859.1" y1="347.2" x2="859.1" y2="466.1"/>
		<path class="st0" d="M844.8,443.6v-6.4c0-48.1,14.3-27.9,14.3-80.8"/>
		<circle class="st1" cx="844.8" cy="449.1" r="5.6"/>
		<circle class="st1" cx="887.6" cy="348.6" r="5.6"/>
		<circle class="st1" cx="873.3" cy="324.9" r="5.6"/>
		<circle class="st1" cx="859.1" cy="341.7" r="5.6"/>
		<circle class="st1" cx="859.1" cy="471.7" r="5.6"/>
		<circle class="st1" cx="873.3" cy="494.6" r="5.6"/>
		<path class="st0" d="M873.3,434.9c0-48.1,14.3-27.9,14.3-80.8"/>
		<path class="st0" d="M873.3,489.5c0-48.1-14.3-27.9-14.3-80.8"/>
	</g>
	<g>
		<line class="st0" x1="159" y1="482.5" x2="159" y2="289.1"/>
		<line class="st0" x1="144.7" y1="420.1" x2="144.7" y2="213.8"/>
		<line class="st0" x1="130.4" y1="453.2" x2="130.4" y2="320.1"/>
		<circle class="st1" cx="116.2" cy="431.7" r="5.6"/>
		<circle class="st1" cx="159" cy="488" r="5.6"/>
		<circle class="st1" cx="144.7" cy="425.7" r="5.6"/>
		<circle class="st1" cx="130.5" cy="458.7" r="5.6"/>
		<circle class="st1" cx="130.4" cy="314.6" r="5.6"/>
		<circle class="st1" cx="144.7" cy="208.3" r="5.6"/>
		<circle class="st1" cx="159" cy="283.5" r="5.6"/>
		<circle class="st1" cx="159" cy="226.4" r="5.6"/>
		<path class="st0" d="M130.5,345.4c0,48.1-14.3,27.9-14.3,80.8"/>
		<path class="st0" d="M159,231.9c0,48.1-14.3,27.9-14.3,80.8"/>
		<path class="st0" d="M130.5,328.9c0,48.1,14.3,27.9,14.3,80.8"/>
		<path class="st0" d="M144.7,309c0,48.1,14.3,27.9,14.3,80.8"/>
	</g>
	<g>
		<line class="st0" x1="758.3" y1="72" x2="758.3" y2="322.2"/>
		<line class="st0" x1="744.1" y1="46.2" x2="744.1" y2="246.2"/>
		<path class="st0" d="M729.8,210.1V127c0-48.1,14.3-27.9,14.3-80.8"/>
		<line class="st0" x1="772.6" y1="19.2" x2="772.6" y2="189"/>
		<circle class="st1" cx="715.6" cy="237.3" r="5.6"/>
		<circle class="st1" cx="744.1" cy="40.7" r="5.6"/>
		<circle class="st1" cx="772.6" cy="13.2" r="5.6"/>
		<circle class="st1" cx="758.3" cy="66.5" r="5.6"/>
		<circle class="st1" cx="772.6" cy="295.7" r="5.6"/>
		<circle class="st1" cx="729.8" cy="215.6" r="5.6"/>
		<circle class="st1" cx="744.1" cy="251.8" r="5.6"/>
		<circle class="st1" cx="758.3" cy="327.6" r="5.6"/>
		<circle class="st1" cx="772.6" cy="195.1" r="5.6"/>
		<path class="st0" d="M772.6,290.2c0-48.1-14.3-27.9-14.3-80.8"/>
		<path class="st0" d="M758.3,162.6c0-48.1-14.3-27.9-14.3-80.8"/>
		<path class="st0" d="M715.6,231.6c0-48.1,14.3-27.9,14.3-80.8"/>
		<path class="st0" d="M758.3,207.5c0-48.1,14.3-27.9,14.3-80.8"/>
	</g>
	<g>
		<g>
			<path class="st1" d="M335.5,698.4l-27.1,10.7c0,0-0.1,0-0.1,0l0.5-134.1c0,0,0-0.1,0.1-0.1l61.9-24c0,0,0.1,0,0.1,0l-0.3,81"/>
		</g>
		<g>
			<path class="st1" d="M261.3,689.2C261.3,689.2,261.4,689.3,261.3,689.2l47,19.9c0,0,0.1,0,0.1,0l0.5-134.1c0,0,0-0.1-0.1-0.1
				l-47.4-19.3c0,0-0.1,0-0.1,0L261.3,689.2z"/>
		</g>
		<g>
			<path class="st1" d="M261.4,555.5C261.4,555.5,261.4,555.5,261.4,555.5l47.4,19.3c0,0,0.1,0,0.1,0l61.9-24c0,0,0,0,0-0.1
				L322,531.5c0,0-0.1,0-0.1,0L261.4,555.5z"/>
		</g>
		<g>
			<path class="st1" d="M318.7,582.6C318.7,582.6,318.8,582.5,318.7,582.6l43.3-17.4c0,0,0.1,0,0.1,0l-0.2,45.1c0,0,0,0.1-0.1,0.1
				l-43.3,17.6c0,0-0.1,0-0.1,0L318.7,582.6z"/>
		</g>
		<g>
			<path class="st1" d="M361.7,673.5l0.2-45.2c0,0,0-0.1,0.1,0l43.1,18c0,0,0.1,0.1,0.1,0.1l-0.2,42.4"/>
		</g>
		<g>
			<path class="st1" d="M318.3,691.2l0.2-45.5c0,0,0-0.1,0.1-0.1l43.3-17.3c0,0,0.1,0,0.1,0l-0.2,45.2"/>
		</g>
		<g>
			<path class="st1" d="M361.8,663.8C361.8,663.8,361.8,663.7,361.8,663.8l43.3-17.4c0,0,0.1,0,0.1,0l-0.2,45c0,0,0,0.1-0.1,0.1
				l-43.3,17.7c0,0-0.1,0-0.1,0L361.8,663.8z"/>
		</g>
		<g>
			<path class="st1" d="M318.5,645.7C318.5,645.7,318.5,645.6,318.5,645.7l43.2,18c0,0,0.1,0.1,0.1,0.1l-0.2,45.4c0,0,0,0.1-0.1,0
				l-43.1-18c0,0-0.1-0.1-0.1-0.1L318.5,645.7z"/>
		</g>
		<g>
			<path class="st1" d="M329,588.1c0-1.3,5.3-4.5,11.7-7.1c6.4-2.6,11.7-3.7,11.7-2.4c0,1.3-5.3,4.5-11.7,7.1S329,589.4,329,588.1z"
				/>
		</g>
		<g>
			<path class="st1" d="M372.8,667.2c0-1.3,5.3-4.5,11.7-7.1c6.4-2.6,11.7-3.7,11.7-2.4c0,1.3-5.3,4.5-11.7,7.1
				C378,667.5,372.8,668.5,372.8,667.2z"/>
		</g>
	</g>
	<g>
		<path class="st1" d="M600.4,494.8l-0.2-122.7l12.1-49.8l13.6,49.7l0.2,122.7c0,0,4.6,2.5,0,5.3l0,5.3c0,0,4.4,1,0,2.5l-25.6,0
			c0,0-4.5-1.3,0-2.6l-0.1-5.1C600.3,500.1,596,497.5,600.4,494.8z"/>
		<line class="st1" x1="598.5" y1="497.5" x2="628.1" y2="497.4"/>
		<path class="st1" d="M626,507.8c0,8.8,0.1,17.7,0.1,26.5c-0.7,0.9-5.3,6.3-12.8,6.3c-7.5,0-12.1-5.4-12.9-6.2l0-26.5L626,507.8z"
			/>
		<line class="st1" x1="600.2" y1="372.1" x2="625.9" y2="372.1"/>
		<polygon class="st1" points="608.6,337.7 616.5,337.7 612.3,322.4 		"/>
		<line class="st1" x1="612.6" y1="372.1" x2="613.3" y2="497.4"/>
	</g>
	<g>
		<g>
			<path class="st1" d="M282.9,140.3C282.8,140.3,282.8,140.3,282.9,140.3l-0.1,129.5c0,0,0,0.1,0.1,0.1l107.9-21.7
				c0,0,0.1,0,0.1-0.1l0.1-129.3c0,0,0-0.1-0.1-0.1L282.9,140.3z"/>
		</g>
		<g>
			<path class="st1" d="M261.2,129.4C261.2,129.3,261.3,129.3,261.2,129.4l21.5,10.9c0,0,0.1,0.1,0.1,0.1l-0.1,129.5
				c0,0,0,0.1-0.1,0l-21.4-10.7c0,0-0.1-0.1-0.1-0.1L261.2,129.4z"/>
		</g>
		<g>
			<path class="st1" d="M282.8,140.3l-21.5-11c0,0,0-0.1,0-0.1l75.5-53.8c0,0,0.1,0,0.1,0l0,15.9"/>
		</g>
		<g>
			<path class="st1" d="M334.1,91.4c0,0,0.1,0,0.1,0c0,0,15.7,0.1,27.5,7.2c12.4,7.4,19.8,22,19.8,22c0,0,0,0.1,0,0.1l-98.6,19.6
				c0,0-0.1,0-0.1,0l-15.8-8c0,0,0,0,0-0.1L334.1,91.4z"/>
		</g>
		<g>
			<path class="st1" d="M345.9,92.5l-75.9,41.3c0,0,0,0,0,0.1l3,1.5c0,0,0.1,0,0.1,0l81.5-40.2c0,0,0.1,0,0.1,0l6.8,3.4
				c0,0,0,0,0,0.1l-85.5,38.2c0,0,0,0,0,0.1l3,1.4c0,0,0.1,0,0.1,0l89.4-34.6c0,0,0.1,0,0.1,0l6.6,6.9c0,0,0,0.1,0,0.1l-93,29.3"/>
		</g>
		<polygon class="st1" points="261.2,157.5 282.8,168.3 282.7,237.4 261.2,227.6 		"/>
	</g>
	<path class="st1" d="M707.1,649.2H533.8c-8.4,0-15.2-6.8-15.2-15.2V532.4c0-8.4,6.8-15.2,15.2-15.2h173.4c8.4,0,15.2,6.8,15.2,15.2
		v101.5C722.4,642.4,715.6,649.2,707.1,649.2z"/>
	<line class="st1" x1="518.6" y1="625.1" x2="722.4" y2="625.1"/>
	<circle class="st1" cx="620.5" cy="636.7" r="6.9"/>
	<g>
		<line class="st1" x1="600.9" y1="579.2" x2="624.5" y2="555.6"/>
		<line class="st1" x1="600.9" y1="594.8" x2="640.1" y2="555.6"/>
		<line class="st1" x1="616.4" y1="594.8" x2="640.1" y2="571.2"/>
	</g>
	<path class="st1" d="M600.9,649.2c0,13-7.4,28.7-7.4,28.7h27"/>
	<path class="st1" d="M640.1,649.2c0,13,7.4,28.7,7.4,28.7h-27"/>
	<path class="st0" d="M850.3,422.5c0-10.5-8.5-19-19-19c-6.8,0-12.7,3.5-16,8.9c-4-9.8-13.6-16.7-24.8-16.7c-3,0-5.9,0.5-8.6,1.4
		c-7.7-10-19.7-16.5-33.3-16.5c-12.4,0-23.5,5.4-31.2,13.9c-2.2-0.5-4.5-0.8-6.8-0.8c-12.7,0-23.4,8.2-27.3,19.6
		c-2.4-2.5-5.9-4.1-9.7-4.1c-7.4,0-13.4,6-13.4,13.4H850.3z"/>
	<path class="st1" d="M282.4,608.1C282.4,608,282.4,608,282.4,608.1c0-8.6-6.9-15.5-15.5-15.5c-5.5,0-10.4,2.9-13.1,7.3
		c-3.8-8.4-12.2-14.2-22-14.2c-6.3,0-12.1,2.4-16.4,6.4c-5.8-4.5-13.1-7.1-21.1-7.1c-4.5,0-8.8,0.9-12.8,2.4
		c-6.3-8.5-16.5-14.1-27.9-14.1c-7.7,0-14.8,2.5-20.6,6.7c-8.4-11.1-21.8-18.3-36.8-18.3c-18.3,0-34.1,10.6-41.6,26
		c-1.2-0.2-2.4-0.3-3.7-0.3c-7.3,0-13.8,3.9-17.4,9.6c-2.8-2.8-6.7-4.5-10.9-4.5c-8.5,0-15.5,6.9-15.5,15.5c0,0,0,0,0,0H282.4z"/>
	<path class="st0" d="M467.3,300.2c-3.1-6.4-9.7-10.8-17.3-10.8c-2.1,0-4.1,0.3-5.9,0.9c-9.5-19.6-29.5-33.1-52.7-33.1
		c-8.2,0-16,1.7-23.1,4.8c-7.6-10.7-20-17.6-34.1-17.6c-20.1,0-36.8,14.2-40.9,33.1c-4.6-3.2-10.1-5.2-16.1-5.2
		c-10.5,0-19.6,5.8-24.4,14.4c-2.6-1.8-5.9-2.9-9.3-2.9c-9,0-16.4,7.3-16.4,16.4c0,0,0,0,0,0H467.3z"/>
	<path class="st0" d="M907,567.2c-0.2-5.2-4.4-9.4-9.7-9.4c-1.1,0-2.1,0.2-3.1,0.5c-2.8-3.7-7.2-6.1-12.2-6.1
		c-4.4,0-8.3,1.8-11.1,4.8c-2.6-7.6-9.9-13.1-18.4-13.1c-8.7,0-16.1,5.8-18.6,13.7c-2.6-1.5-5.6-2.3-8.7-2.3
		c-6.8,0-12.7,3.9-15.6,9.5c-1.6-2.5-4.4-4.1-7.5-4.1c-4.1,0-7.5,2.7-8.6,6.5H907z"/>
	<path class="st1" d="M658.9,153.7c-1.1-5.9-6.3-10.4-12.5-10.4c-4.1,0-7.8,2-10.1,5c-2.2-5.9-7.8-10.1-14.5-10.1
		c-3.6,0-6.8,1.2-9.4,3.2c-4.5-9-13.7-15.1-24.4-15.1c-9,0-16.9,4.3-21.9,11c-1.8-0.6-3.8-1-5.8-1c-8.1,0-14.9,5.6-16.8,13.1
		c-1.6-1.6-3.9-2.6-6.3-2.6c-4.2,0-7.8,2.9-8.8,6.7H658.9z"/>
	<rect x="530.5" y="528.9" class="st1" width="180" height="96.2"/>
</g>
</svg>
