<svg id="Layer_1" xmlns="http://www.w3.org/2000/svg" viewBox="0 0 1165 917">
  <style>
    .st0,.st1{fill:none;stroke:#929497;stroke-width:.5;stroke-miterlimit:10}.st1{stroke-linejoin:round}
  </style>
  <path class="st0" d="M1009.2 324.6v-14c0-2.5-2-4.5-4.5-4.5H935c-2.5 0-4.5 2-4.5 4.5v18.9c3.3-3 7.7-4.9 12.6-4.9h66.1z"/>
  <path class="st0" d="M1120.2 324.2h-31.4v-37.6c0-19-15.5-34.5-34.5-34.5h-26.1c-19 0-34.5 15.5-34.5 34.5v13.9h-31.4v-13.9a66 66 0 0 1 65.9-65.9h26.1a66 66 0 0 1 65.9 65.9v37.6zM1136.6 330.8H943c-6.9 0-12.6 5.6-12.6 12.6v131.9c0 6.9 5.6 12.6 12.6 12.6h193.7c6.9 0 12.6-5.6 12.6-12.6v-132a12.7 12.7 0 0 0-12.7-12.5zm-88.1 81.6v30.1h-13.3v-30.1a18.4 18.4 0 0 1-11.7-17 18.3 18.3 0 1 1 25 17z"/>
  <path class="st1" d="M740 266.8h-49.5v-50.6c0-30-24.4-54.3-54.3-54.3H595c-30 0-54.3 24.4-54.3 54.3v24.7H491v-24.7a104 104 0 0 1 103.9-103.9h41.2A104 104 0 0 1 740 216.2v50.6zM785.8 305.7c0-10.9-8.9-19.8-19.8-19.8H564.9v-20.2c0-3.9-3.2-7.1-7.1-7.1h-110a7.1 7.1 0 0 0-7.1 7.1v47.7l168.8-1 3.7.2 66-.4c17 0 34 11.5 39.7 26.8l63.9 171.1c1.2 3.2 1.8 6.5 2 9.8.6-1.9 1-4 1-6.1V305.7z"/>
  <path class="st1" d="M679.3 328.6l-280.2 1.6c-10 .1-15.4 7.4-12.1 16.4l63.9 171.1c3.4 9 14.2 16.3 24.3 16.2l280.2-1.6c10-.1 15.4-7.4 12.1-16.4l-63.9-171.1a27.4 27.4 0 0 0-24.3-16.2z"/>
  <path class="st1" d="M586.9 438.4l11.1 29.3h-14.6l-11.1-29.3a30 30 0 0 1-19.1-16.6c-3.7-9.8 2.2-17.8 13.3-17.8 11.1 0 23.1 8 26.9 17.8 2.8 7.6 0 14.1-6.5 16.6zM770.2 790.6c0-5.3 4.3-9.7 9.7-9.7h98v-9.8c0-1.9 1.6-3.5 3.5-3.5H935c1.9 0 3.5 1.6 3.5 3.5v23.2l-82.3-.5-1.8.1-32.2-.2c-8.3 0-16.6 5.6-19.3 13.1l-31.2 83.4c-.6 1.6-.9 3.2-1 4.8-.3-.9-.5-1.9-.5-3V790.6z"/>
  <path class="st0" d="M810.3 809.6L779.2 893c-1.6 4.4 1 8 5.9 8l136.6.8c4.9 0 10.2-3.5 11.8-7.9l31.2-83.4c1.6-4.4-1-8-5.9-8l-136.6-.8c-5 0-10.2 3.5-11.9 7.9zM732.5 606.1v170.2M721.4 646.1v156.1M710.3 851v-71.5c0-37.6 11.1-21.8 11.1-63M743.6 687.7v132.6"/>
  <circle class="st1" cx="710.3" cy="855.3" r="4.3"/>
  <circle class="st1" cx="710.3" cy="578.7" r="4.3"/>
  <circle class="st1" cx="732.5" cy="601.7" r="4.3"/>
  <circle class="st1" cx="743.6" cy="620.3" r="4.3"/>
  <circle class="st1" cx="754.8" cy="656.1" r="4.3"/>
  <circle class="st1" cx="743.6" cy="683.3" r="4.3"/>
  <circle class="st1" cx="721.4" cy="806.6" r="4.3"/>
  <circle class="st1" cx="732.5" cy="780.6" r="4.3"/>
  <circle class="st1" cx="743.6" cy="824.6" r="4.3"/>
  <path class="st0" d="M721.4 646.1c0-37.6-11.1-21.8-11.1-63M743.6 790.8c0-37.6-11.1-21.8-11.1-63M732.5 687.7c0-37.6 11.1-21.8 11.1-63M743.6 743.8c0-37.6 11.1-21.8 11.1-63v-20.6"/>
  <g>
    <path class="st0" d="M1071 102.3v197M1053.3 123.1v147.7M1035.6 242.8v-8c0-59.8 17.7-34.7 17.7-100.3"/>
    <circle class="st1" cx="1035.6" cy="249.7" r="6.9"/>
    <circle class="st1" cx="1088.7" cy="124.9" r="6.9"/>
    <circle class="st1" cx="1071" cy="95.4" r="6.9"/>
    <circle class="st1" cx="1053.3" cy="116.2" r="6.9"/>
    <circle class="st1" cx="1053.3" cy="277.7" r="6.9"/>
    <circle class="st1" cx="1071" cy="306.2" r="6.9"/>
    <path class="st0" d="M1071 232.1c0-59.8 17.7-34.7 17.7-100.3M1071 299.9c0-59.8-17.7-34.7-17.7-100.3"/>
  </g>
  <g>
    <path class="st0" d="M640.5 65.4v135.8M650.5 109.2V254M660.5 86v93.4"/>
    <circle class="st1" cx="670.5" cy="101" r="3.9"/>
    <circle class="st1" cx="640.5" cy="61.5" r="3.9"/>
    <circle class="st1" cx="650.5" cy="105.3" r="3.9"/>
    <circle class="st1" cx="660.5" cy="82.1" r="3.9"/>
    <circle class="st1" cx="660.5" cy="183.3" r="3.9"/>
    <circle class="st1" cx="650.5" cy="257.9" r="3.9"/>
    <circle class="st1" cx="640.5" cy="205.1" r="3.9"/>
    <circle class="st1" cx="640.5" cy="245.2" r="3.9"/>
    <path class="st0" d="M660.5 161.6c0-33.8 10-19.6 10-56.7M640.5 241.3c0-33.8 10-19.6 10-56.7M660.5 173.2c0-33.8-10-19.6-10-56.7M650.5 187.2c0-33.8-10-19.6-10-56.7"/>
  </g>
  <g>
    <path class="st0" d="M375.5 678.8V407.1M391 706.9V489.6M406.5 528.9v90.3c0 52.3-15.5 30.3-15.5 87.7M360.1 736.3V551.7"/>
    <circle class="st1" cx="422" cy="499.3" r="6"/>
    <circle class="st1" cx="391" cy="712.9" r="6"/>
    <circle class="st1" cx="360.1" cy="742.8" r="6"/>
    <circle class="st1" cx="375.5" cy="684.9" r="6"/>
    <circle class="st1" cx="360.1" cy="435.8" r="6"/>
    <circle class="st1" cx="406.5" cy="522.8" r="6"/>
    <circle class="st1" cx="391" cy="483.6" r="6"/>
    <circle class="st1" cx="375.5" cy="401.2" r="6"/>
    <circle class="st1" cx="360.1" cy="545.2" r="6"/>
    <path class="st0" d="M360.1 441.8c0 52.3 15.5 30.3 15.5 87.7M375.5 580.4c0 52.3 15.5 30.3 15.5 87.7M422 505.5c0 52.3-15.5 30.3-15.5 87.7M375.5 531.7c0 52.3-15.5 30.3-15.5 87.7"/>
  </g>
  <g>
    <path class="st1" d="M1027.8 830.4l-35.6 14h-.1l.6-176.1.1-.1 81.3-31.5h.1l-.4 106.4"/>
    <path class="st1" d="M930.4 818.3l.1.1 61.6 26h.1l.6-176.1-.1-.1-62.2-25.3h-.1v175.4zM930.5 642.8c-.1 0-.1.1 0 0l62.2 25.4h.1l81.3-31.5v-.1l-64.2-25.4h-.1l-79.3 31.6zM1005.7 678.4c0-.1 0-.1 0 0l56.9-22.8h.1l-.2 59.3-.1.1-56.8 23.1h-.1l.2-59.7zM1062.1 797.8l.2-59.4s0-.1.1 0l56.7 23.7.1.1-.2 55.7"/>
    <path class="st1" d="M1005.2 821l.2-59.8.1-.1 56.8-22.8h.1l-.2 59.4"/>
    <path class="st1" d="M1062.2 785c0-.1 0-.1 0 0l56.9-22.8h.1l-.2 59.1-.1.1-56.8 23.3h-.1l.2-59.7z"/>
    <path class="st1" d="M1005.4 761.2l56.7 23.7.1.1-.2 59.7s0 .1-.1 0l-56.7-23.7-.1-.1.3-59.7zM1019.2 685.6c0-1.7 6.3-5.7 13.9-8.8l2.9-1.2c7.6-3.1 13.9-4.3 13.9-2.5s-6.3 5.7-13.9 8.8l-2.9 1.2c-7.6 3-13.9 4.2-13.9 2.5zM1076.7 789.5c0-1.7 6.3-5.7 13.9-8.8l2.9-1.2c7.6-3.1 13.9-4.3 13.9-2.5s-6.3 5.7-13.9 8.8l-2.9 1.2c-7.7 3.1-14 4.2-13.9 2.5z"/>
  </g>
  <g>
    <path class="st1" d="M809.6 323.8l-.3-221.1L831 13l24.6 89.6.3 221.1s8.2 4.6 0 9.5l-.1 9.5s7.9 1.8-.1 4.4l-46.1.1s-8.2-2.3 0-4.8l-.2-9.2c0 .1-7.7-4.5.2-9.4zM806 328.6l53.5-.1M855.7 347.2l.2 47.8a31 31 0 0 1-23.1 11.3c-13.6 0-21.9-9.7-23.2-11.2l-.1-47.8 46.2-.1zM809.2 102.7l46.3-.1"/>
    <path class="st1" d="M824.3 40.7h14.3L831 13zM831.5 102.7l1.3 225.8"/>
  </g>
  <path class="st0" d="M921.1 421.8a30.6 30.6 0 0 0-56.5-16.3 43.4 43.4 0 0 0-54-24.7 67.7 67.7 0 0 0-104.1-4.2 46.6 46.6 0 0 0-55.1 30.2 21.6 21.6 0 0 0-37.3 15h307zM1077.1 589.9a22.1 22.1 0 0 0-29.1-20.2 34.6 34.6 0 0 0-52.9-2.9 44.1 44.1 0 0 0-84 1.3 40.2 40.2 0 0 0-55.5 16.3 20.3 20.3 0 0 0-36.6 5.5h258.1z"/>
  <path class="st1" d="M523.2 224.4A16.6 16.6 0 0 0 507 211c-5.3 0-10.1 2.5-13.1 6.5a19.9 19.9 0 0 0-30.9-8.8 35.4 35.4 0 0 0-60.1-5.3 22.3 22.3 0 0 0-29.2 15.7c-2.1-2.1-5-3.3-8.2-3.3-5.5 0-10.1 3.7-11.4 8.7h169.1z"/>
  <g>
    <path class="st1" d="M974.1 649.3H682.6c-8.4 0-15.2-6.8-15.2-15.2v-178c0-8.4 6.8-15.2 15.2-15.2h291.5c8.4 0 15.2 6.8 15.2 15.2v178a15 15 0 0 1-15.2 15.2zM667.4 611.3h322"/>
    <circle class="st1" cx="828.4" cy="629.6" r="10.9"/>
    <path class="st1" d="M797.4 538.9l37.4-37.4M797.4 563.4l62-61.9M822 563.4l37.4-37.3M797.4 649.3c0 20.6-11.7 45.3-11.7 45.3h42.6M859.4 649.3c0 20.6 11.7 45.3 11.7 45.3h-42.6M686.2 459.3h284.4v151.9H686.2z"/>
  </g>
  <g>
    <path transform="matrix(1 .00512 -.00512 1 3.3 -2.8)" class="st1" d="M473.1 545.6h162.1v208H473.1z"/>
    <path class="st1" d="M490.8 575.9l127.5.7M490.7 589.2l115.4.6M490.6 602.6l81 .4M490.6 615.9l127.5.7M490.5 629.2l127.6.7M490.4 642.6l119.3.6M490.4 655.9l127.5.7M490.3 669.2l127.6.7M490.2 682.6l106.9.5M490.2 695.9l127.5.7M490.1 709.3l115.4.5M490 722.6l63.8.3"/>
  </g>
</svg>
