<svg id="Layer_1" xmlns="http://www.w3.org/2000/svg" viewBox="0 0 1165 757.6"><style>.st0,.st1{fill:none;stroke:#c7c6c5;stroke-width:.5;stroke-miterlimit:10}.st1{stroke-linejoin:round}</style><path class="st0" d="M502.3 205.8v-22.4c0-4-3.2-7.2-7.2-7.2H384c-4 0-7.2 3.2-7.2 7.2v30.1c5.3-4.8 12.3-7.7 20-7.7h105.5z"/><path class="st0" d="M679.1 205.2h-50v-59.9c0-30.3-24.6-54.9-54.9-54.9h-41.6c-30.3 0-54.9 24.6-54.9 54.9v22.1h-50v-22.1c0-57.8 47.1-104.9 104.9-104.9h41.6c57.8 0 104.9 47.1 104.9 104.9v59.9zM705.3 215.7H396.8c-11 0-20 9-20 20v210.1c0 11 9 20 20 20h308.5c11 0 20-9 20-20V235.7c0-11-9-20-20-20zm-140.4 130v48h-21.2v-48a29.11 29.11 0 0 1-18.6-27.2c0-16.1 13.1-29.2 29.2-29.2s29.2 13.1 29.2 29.2c0 12.4-7.7 22.9-18.6 27.2z"/><path class="st1" d="M362.7 381.2h-30.4v-31.1c0-18.4-15-33.4-33.4-33.4h-25.3c-18.4 0-33.4 15-33.4 33.4v15.1h-30.4v-15.1c0-35.2 28.6-63.8 63.8-63.8h25.3c35.2 0 63.8 28.6 63.8 63.8v31.1zM390.8 405.1c0-6.7-5.5-12.2-12.2-12.2H255.1v-12.4c0-2.4-2-4.4-4.4-4.4h-67.6c-2.4 0-4.4 2-4.4 4.4v29.3l103.8-.6c.7 0 1.5 0 2.3.1l40.6-.2c10.5 0 20.9 7.1 24.4 16.5L389 530.8c.7 2 1.1 4 1.2 6 .4-1.2.6-2.4.6-3.8V405.1z"/><path class="st1" d="M325.4 419.2l-172.2 1c-6.2 0-9.5 4.5-7.4 10.1L185 535.4c2.1 5.5 8.7 10 14.9 10l172.2-1c6.2 0 9.5-4.6 7.4-10.1l-39.3-105.2c-2-5.5-8.6-10-14.8-9.9z"/><path class="st1" d="M268.6 486.7l6.8 18h-9l-6.8-18c-5.2-1.6-10-5.5-11.7-10.2-2.3-6 1.4-10.9 8.2-10.9 6.8 0 14.2 4.9 16.5 10.9 1.7 4.7 0 8.6-4 10.2zM688.8 487.9c0-4.2 3.4-7.6 7.6-7.6h77.1v-7.7c0-1.5 1.2-2.7 2.7-2.7h42.2c1.5 0 2.7 1.2 2.7 2.7v18.3l-64.7-.4c-.5 0-.9 0-1.4.1l-25.3-.1c-6.5 0-13 4.4-15.2 10.3L690 566.3c-.5 1.2-.7 2.5-.8 3.7-.2-.7-.4-1.5-.4-2.3v-79.8z"/><path class="st0" d="M720.3 502.9l-24.5 65.6c-1.3 3.4.8 6.3 4.6 6.3l107.4.6c3.8 0 8-2.8 9.3-6.2l24.5-65.6c1.3-3.4-.8-6.3-4.6-6.3l-107.4-.6c-3.8 0-8 2.8-9.3 6.2zM461.7 424.4v218.1M447.5 475.7v199.9M433.2 738.1v-91.6c0-48.1 14.3-27.9 14.3-80.8M476 528.9v169.8"/><circle class="st1" cx="433.2" cy="743.7" r="5.6"/><circle class="st1" cx="433.2" cy="389.3" r="5.6"/><circle class="st1" cx="461.7" cy="418.8" r="5.6"/><circle class="st1" cx="476" cy="442.6" r="5.6"/><circle class="st1" cx="490.2" cy="488.5" r="5.6"/><circle class="st1" cx="476" cy="523.3" r="5.6"/><circle class="st1" cx="447.5" cy="681.2" r="5.6"/><circle class="st1" cx="461.7" cy="647.9" r="5.6"/><circle class="st1" cx="476" cy="704.3" r="5.6"/><path class="st0" d="M447.5 475.7c0-48.1-14.3-27.9-14.3-80.8M476 661c0-48.1-14.3-27.9-14.3-80.8M461.7 528.9c0-48.1 14.3-27.9 14.3-80.8M476 600.7c0-48.1 14.3-27.9 14.3-80.8v-26.4"/><g><path class="st0" d="M873.3 330.4V489M859.1 347.2v118.9M844.8 443.6v-6.4c0-48.1 14.3-27.9 14.3-80.8"/><circle class="st1" cx="844.8" cy="449.1" r="5.6"/><circle class="st1" cx="887.6" cy="348.6" r="5.6"/><circle class="st1" cx="873.3" cy="324.9" r="5.6"/><circle class="st1" cx="859.1" cy="341.7" r="5.6"/><circle class="st1" cx="859.1" cy="471.7" r="5.6"/><circle class="st1" cx="873.3" cy="494.6" r="5.6"/><path class="st0" d="M873.3 434.9c0-48.1 14.3-27.9 14.3-80.8M873.3 489.5c0-48.1-14.3-27.9-14.3-80.8"/></g><g><path class="st0" d="M159 482.5V289.1M144.7 420.1V213.8M130.4 453.2V320.1"/><circle class="st1" cx="116.2" cy="431.7" r="5.6"/><circle class="st1" cx="159" cy="488" r="5.6"/><circle class="st1" cx="144.7" cy="425.7" r="5.6"/><circle class="st1" cx="130.5" cy="458.7" r="5.6"/><circle class="st1" cx="130.4" cy="314.6" r="5.6"/><circle class="st1" cx="144.7" cy="208.3" r="5.6"/><circle class="st1" cx="159" cy="283.5" r="5.6"/><circle class="st1" cx="159" cy="226.4" r="5.6"/><path class="st0" d="M130.5 345.4c0 48.1-14.3 27.9-14.3 80.8M159 231.9c0 48.1-14.3 27.9-14.3 80.8M130.5 328.9c0 48.1 14.3 27.9 14.3 80.8M144.7 309c0 48.1 14.3 27.9 14.3 80.8"/></g><g><path class="st0" d="M758.3 72v250.2M744.1 46.2v200M729.8 210.1V127c0-48.1 14.3-27.9 14.3-80.8M772.6 19.2V189"/><circle class="st1" cx="715.6" cy="237.3" r="5.6"/><circle class="st1" cx="744.1" cy="40.7" r="5.6"/><circle class="st1" cx="772.6" cy="13.2" r="5.6"/><circle class="st1" cx="758.3" cy="66.5" r="5.6"/><circle class="st1" cx="772.6" cy="295.7" r="5.6"/><circle class="st1" cx="729.8" cy="215.6" r="5.6"/><circle class="st1" cx="744.1" cy="251.8" r="5.6"/><circle class="st1" cx="758.3" cy="327.6" r="5.6"/><circle class="st1" cx="772.6" cy="195.1" r="5.6"/><path class="st0" d="M772.6 290.2c0-48.1-14.3-27.9-14.3-80.8M758.3 162.6c0-48.1-14.3-27.9-14.3-80.8M715.6 231.6c0-48.1 14.3-27.9 14.3-80.8M758.3 207.5c0-48.1 14.3-27.9 14.3-80.8"/></g><g><path class="st1" d="M335.5 698.4l-27.1 10.7h-.1l.5-134.1s0-.1.1-.1l61.9-24h.1l-.3 81"/><path class="st1" d="M261.3 689.2s.1.1 0 0l47 19.9h.1l.5-134.1s0-.1-.1-.1l-47.4-19.3h-.1v133.6zM261.4 555.5l47.4 19.3h.1l61.9-24v-.1L322 531.5h-.1l-60.5 24zM318.7 582.6s.1-.1 0 0l43.3-17.4h.1l-.2 45.1s0 .1-.1.1L318.5 628h-.1l.3-45.4zM361.7 673.5l.2-45.2s0-.1.1 0l43.1 18 .1.1-.2 42.4"/><path class="st1" d="M318.3 691.2l.2-45.5s0-.1.1-.1l43.3-17.3h.1l-.2 45.2"/><path class="st1" d="M361.8 663.8s0-.1 0 0l43.3-17.4h.1l-.2 45s0 .1-.1.1l-43.3 17.7h-.1l.3-45.4z"/><path class="st1" d="M318.5 645.7s0-.1 0 0l43.2 18 .1.1-.2 45.4s0 .1-.1 0l-43.1-18-.1-.1.2-45.4zM329 588.1c0-1.3 5.3-4.5 11.7-7.1 6.4-2.6 11.7-3.7 11.7-2.4 0 1.3-5.3 4.5-11.7 7.1s-11.7 3.7-11.7 2.4zM372.8 667.2c0-1.3 5.3-4.5 11.7-7.1 6.4-2.6 11.7-3.7 11.7-2.4 0 1.3-5.3 4.5-11.7 7.1-6.5 2.7-11.7 3.7-11.7 2.4z"/></g><g><path class="st1" d="M600.4 494.8l-.2-122.7 12.1-49.8 13.6 49.7.2 122.7s4.6 2.5 0 5.3v5.3s4.4 1 0 2.5h-25.6s-4.5-1.3 0-2.6l-.1-5.1c-.1 0-4.4-2.6 0-5.3zM598.5 497.5l29.6-.1"/><path class="st1" d="M626 507.8c0 8.8.1 17.7.1 26.5-.7.9-5.3 6.3-12.8 6.3-7.5 0-12.1-5.4-12.9-6.2v-26.5l25.6-.1zM600.2 372.1h25.7M608.6 337.7h7.9l-4.2-15.3zM612.6 372.1l.7 125.3"/></g><g><path class="st1" d="M282.9 140.3c-.1 0-.1 0 0 0l-.1 129.5s0 .1.1.1l107.9-21.7s.1 0 .1-.1l.1-129.3s0-.1-.1-.1l-108 21.6z"/><path class="st1" d="M261.2 129.4c0-.1.1-.1 0 0l21.5 10.9.1.1-.1 129.5s0 .1-.1 0l-21.4-10.7-.1-.1.1-129.7zM282.8 140.3l-21.5-11v-.1l75.5-53.8h.1v15.9"/><path class="st1" d="M334.1 91.4h.1s15.7.1 27.5 7.2c12.4 7.4 19.8 22 19.8 22v.1l-98.6 19.6h-.1l-15.8-8v-.1l67.1-40.8z"/><path class="st1" d="M345.9 92.5L270 133.8v.1l3 1.5h.1l81.5-40.2h.1l6.8 3.4v.1L276 136.9v.1l3 1.4h.1l89.4-34.6h.1l6.6 6.9v.1l-93 29.3M261.2 157.5l21.6 10.8-.1 69.1-21.5-9.8z"/></g><path class="st1" d="M707.1 649.2H533.8c-8.4 0-15.2-6.8-15.2-15.2V532.4c0-8.4 6.8-15.2 15.2-15.2h173.4c8.4 0 15.2 6.8 15.2 15.2v101.5c0 8.5-6.8 15.3-15.3 15.3zM518.6 625.1h203.8"/><circle class="st1" cx="620.5" cy="636.7" r="6.9"/><g><path class="st1" d="M600.9 579.2l23.6-23.6M600.9 594.8l39.2-39.2M616.4 594.8l23.7-23.6"/></g><path class="st1" d="M600.9 649.2c0 13-7.4 28.7-7.4 28.7h27M640.1 649.2c0 13 7.4 28.7 7.4 28.7h-27"/><path class="st0" d="M850.3 422.5a19 19 0 0 0-19-19c-6.8 0-12.7 3.5-16 8.9a26.8 26.8 0 0 0-33.4-15.3 41.92 41.92 0 0 0-64.5-2.6 28.85 28.85 0 0 0-34.1 18.8 13.5 13.5 0 0 0-9.7-4.1c-7.4 0-13.4 6-13.4 13.4h190.1z"/><path class="st1" d="M282.4 608.1c0-.1 0-.1 0 0 0-8.6-6.9-15.5-15.5-15.5-5.5 0-10.4 2.9-13.1 7.3a24.1 24.1 0 0 0-22-14.2c-6.3 0-12.1 2.4-16.4 6.4-5.8-4.5-13.1-7.1-21.1-7.1-4.5 0-8.8.9-12.8 2.4A34.8 34.8 0 0 0 133 580a46.22 46.22 0 0 0-78.4 7.7 20.69 20.69 0 0 0-21.1 9.3c-2.8-2.8-6.7-4.5-10.9-4.5-8.5 0-15.5 6.9-15.5 15.5h275.3z"/><path class="st0" d="M467.3 300.2a19.2 19.2 0 0 0-17.3-10.8c-2.1 0-4.1.3-5.9.9a58.52 58.52 0 0 0-52.7-33.1c-8.2 0-16 1.7-23.1 4.8-7.6-10.7-20-17.6-34.1-17.6-20.1 0-36.8 14.2-40.9 33.1a28.1 28.1 0 0 0-16.1-5.2 27.9 27.9 0 0 0-24.4 14.4 16.41 16.41 0 0 0-25.7 13.5h240.2zM907 567.2a9.72 9.72 0 0 0-12.8-8.9 15.25 15.25 0 0 0-23.3-1.3c-2.6-7.6-9.9-13.1-18.4-13.1-8.7 0-16.1 5.8-18.6 13.7a17.6 17.6 0 0 0-24.3 7.2 8.91 8.91 0 0 0-16.1 2.4H907z"/><path class="st1" d="M658.9 153.7c-1.1-5.9-6.3-10.4-12.5-10.4-4.1 0-7.8 2-10.1 5a15.43 15.43 0 0 0-23.9-6.9c-4.5-9-13.7-15.1-24.4-15.1-9 0-16.9 4.3-21.9 11-1.8-.6-3.8-1-5.8-1-8.1 0-14.9 5.6-16.8 13.1a9.01 9.01 0 0 0-6.3-2.6c-4.2 0-7.8 2.9-8.8 6.7h130.5zM530.5 528.9h180v96.2h-180z"/></svg>