<?xml version="1.0" encoding="utf-8"?>
<!-- Generator: Adobe Illustrator 22.1.0, SVG Export Plug-In . SVG Version: 6.00 Build 0)  -->
<svg version="1.1" id="Layer_1" xmlns="http://www.w3.org/2000/svg" xmlns:xlink="http://www.w3.org/1999/xlink" x="0px" y="0px"
	 viewBox="0 0 81 80" style="enable-background:new 0 0 81 80;" xml:space="preserve">
<style type="text/css">
	.st0{fill:#5B6670;}
	.st1{fill:#FFC629;}
</style>
<g>
	<g>
		<path class="st0" d="M36.2,8.5c0.1,0.6,0.1,1.1-0.1,1.5c-0.2,0.4-0.7,0.6-1.4,0.8l-0.8,0.2l0.4,1.8l-0.7,0.2l-1.2-5.3l1.6-0.4
			c0.7-0.1,1.2-0.1,1.5,0.1S36,7.9,36.2,8.5z M35.4,8.7C35.3,8.3,35.2,8.1,35,8c-0.2-0.1-0.6-0.1-1,0l-0.8,0.2l0.5,2.2l0.7-0.2
			c0.4-0.1,0.6-0.2,0.8-0.3c0.2-0.1,0.3-0.3,0.3-0.4C35.5,9.2,35.5,9,35.4,8.7z"/>
		<path class="st0" d="M40.1,11.9l0-0.5c-0.2,0.2-0.4,0.4-0.6,0.5c-0.2,0.1-0.4,0.2-0.7,0.2c-0.4,0-0.7-0.1-0.9-0.3
			s-0.4-0.5-0.4-0.9c0-0.3,0-0.5,0.1-0.7c0.1-0.2,0.2-0.4,0.4-0.5c0.2-0.1,0.5-0.2,0.9-0.3l1-0.2l0-0.2c0-0.3-0.1-0.5-0.3-0.6
			c-0.2-0.1-0.4-0.1-0.7-0.1c-0.3,0-0.5,0.1-0.6,0.2c-0.1,0.1-0.2,0.2-0.3,0.3l-0.6-0.3c0.1-0.2,0.3-0.4,0.5-0.6
			c0.2-0.1,0.6-0.2,0.9-0.3c0.6,0,1,0,1.3,0.2c0.3,0.2,0.4,0.6,0.5,1.1l0.2,2.8L40.1,11.9z M39.9,9.8l-0.7,0.1
			c-0.4,0.1-0.8,0.2-0.9,0.3c-0.2,0.1-0.2,0.4-0.2,0.6c0,0.2,0.1,0.4,0.2,0.5c0.1,0.1,0.3,0.1,0.6,0.1c0.1,0,0.2,0,0.3-0.1
			c0.1,0,0.2-0.1,0.3-0.2c0.1-0.1,0.2-0.1,0.3-0.2c0.1-0.1,0.2-0.2,0.2-0.2L39.9,9.8z"/>
		<path class="st0" d="M45.5,10c-0.1,0.7-0.2,1.2-0.6,1.6c-0.3,0.4-0.7,0.5-1.3,0.5c-0.4,0-0.8-0.2-1.1-0.5l-0.1,1.9l-0.7-0.1
			l0.4-5.6l0.7,0.1l0,0.4C43,8,43.2,7.9,43.4,7.8c0.2-0.1,0.5-0.1,0.7-0.1c0.5,0,0.9,0.3,1.1,0.6C45.5,8.8,45.5,9.3,45.5,10z
			 M44.8,10c0.1-1-0.2-1.6-0.9-1.6c-0.2,0-0.4,0-0.6,0.1c-0.2,0.1-0.4,0.2-0.5,0.3l-0.2,2.2c0.3,0.3,0.7,0.5,1,0.5
			c0.3,0,0.6-0.1,0.8-0.3C44.6,10.9,44.8,10.5,44.8,10z"/>
		<path class="st0" d="M47.2,10.4c-0.1,0.5-0.1,0.9,0,1.2c0.1,0.3,0.4,0.4,0.8,0.5c0.2,0,0.3,0,0.5,0c0.2,0,0.3-0.1,0.5-0.3l0.5,0.5
			c-0.2,0.2-0.4,0.3-0.7,0.4c-0.2,0.1-0.6,0.1-0.9,0c-0.6-0.1-1-0.4-1.2-0.8c-0.2-0.4-0.2-1-0.1-1.7c0.2-0.7,0.4-1.2,0.8-1.5
			c0.4-0.3,0.8-0.4,1.4-0.2c0.5,0.1,0.9,0.4,1.1,0.7C50,9.5,50,10,49.9,10.6L49.8,11L47.2,10.4z M49.3,10.4c0.1-0.4,0.1-0.7,0-0.9
			c-0.1-0.2-0.3-0.4-0.6-0.5c-0.3-0.1-0.6,0-0.8,0.1c-0.2,0.1-0.4,0.4-0.5,0.8L49.3,10.4z"/>
		<path class="st0" d="M53.5,10.8c-0.1-0.1-0.2-0.1-0.3-0.2c-0.2-0.1-0.4-0.1-0.6-0.1c-0.2,0-0.5,0.1-0.8,0.3l-1,2.7l-0.6-0.2
			l1.4-3.9l0.6,0.2L52,10.2c0.2-0.1,0.5-0.2,0.7-0.3c0.2-0.1,0.5-0.1,0.7,0c0.2,0.1,0.3,0.1,0.4,0.2L53.5,10.8z"/>
		<path class="st0" d="M53.1,14.4l2.5-5.3l0.6,0.3l-2.5,5.3L53.1,14.4z"/>
		<path class="st0" d="M56.2,13.7c-0.3,0.5-0.4,0.8-0.4,1.1c0,0.3,0.2,0.5,0.6,0.8c0.2,0.1,0.3,0.1,0.5,0.2c0.2,0,0.3,0,0.5-0.1
			l0.3,0.6c-0.3,0.1-0.5,0.2-0.8,0.2c-0.3,0-0.6-0.1-0.9-0.3c-0.5-0.3-0.8-0.7-0.9-1.2c-0.1-0.5,0.1-1,0.4-1.6
			c0.4-0.6,0.8-1,1.2-1.2c0.4-0.2,0.9-0.1,1.4,0.2c0.5,0.3,0.7,0.6,0.8,1c0.1,0.4-0.1,0.9-0.4,1.4l-0.2,0.3L56.2,13.7z M58.2,14.3
			c0.2-0.3,0.3-0.6,0.2-0.9c0-0.3-0.2-0.5-0.5-0.6c-0.3-0.2-0.5-0.2-0.8-0.1c-0.2,0.1-0.5,0.3-0.7,0.6L58.2,14.3z"/>
		<path class="st0" d="M61.1,18.3c-0.2,0.3-0.5,0.4-0.9,0.4c-0.3,0-0.7-0.2-1.1-0.5c-0.3-0.2-0.5-0.5-0.6-0.7
			c-0.1-0.3-0.2-0.5-0.1-0.8l0.6,0.1c0,0.4,0.1,0.7,0.5,1c0.2,0.2,0.4,0.3,0.6,0.3c0.2,0,0.3-0.1,0.5-0.2c0.1-0.1,0.1-0.2,0.1-0.3
			c0-0.1,0-0.2-0.1-0.3c-0.1-0.1-0.2-0.3-0.4-0.6c-0.3-0.4-0.5-0.7-0.5-1s0.1-0.5,0.3-0.8c0.2-0.3,0.5-0.4,0.9-0.4
			c0.3,0,0.7,0.1,1.1,0.4c0.3,0.2,0.5,0.5,0.6,0.7c0.1,0.3,0.1,0.5,0.1,0.7l-0.6-0.1c0-0.4-0.1-0.7-0.4-0.9
			c-0.2-0.1-0.4-0.2-0.5-0.2c-0.2,0-0.3,0-0.5,0.2c-0.1,0.1-0.1,0.3-0.1,0.4c0.1,0.2,0.2,0.3,0.4,0.6c0.3,0.4,0.5,0.7,0.5,0.9
			c0.1,0.2,0.1,0.4,0.1,0.5C61.3,17.9,61.3,18.1,61.1,18.3z"/>
		<path class="st0" d="M63.8,21c-0.3,0.3-0.6,0.4-0.9,0.3c-0.3,0-0.7-0.3-1-0.6c-0.2-0.2-0.4-0.5-0.5-0.8c-0.1-0.3-0.1-0.6,0-0.8
			l0.6,0.2c-0.1,0.4,0,0.7,0.3,1.1c0.2,0.2,0.4,0.3,0.6,0.4c0.2,0,0.3,0,0.5-0.2c0.1-0.1,0.1-0.2,0.1-0.3c0-0.1,0-0.2,0-0.3
			c0-0.1-0.1-0.3-0.3-0.6c-0.3-0.4-0.4-0.8-0.4-1.1c0-0.3,0.1-0.5,0.4-0.8c0.3-0.2,0.6-0.4,0.9-0.3c0.3,0,0.7,0.2,1,0.6
			c0.2,0.3,0.4,0.5,0.5,0.8c0.1,0.3,0.1,0.5,0,0.7l-0.6-0.2c0.1-0.4,0-0.7-0.3-1c-0.2-0.2-0.3-0.3-0.5-0.3c-0.2,0-0.3,0-0.5,0.1
			c-0.1,0.1-0.2,0.3-0.2,0.4c0,0.2,0.1,0.4,0.3,0.6c0.2,0.4,0.4,0.7,0.4,0.9c0,0.2,0,0.4,0,0.6C64.1,20.7,64,20.9,63.8,21z"/>
		<path class="st0" d="M66.4,26.9l2.8-4.5l-4,2.4l-0.4-0.6l4.7-2.7l0.5,0.9l-2.5,4.1l3.7-2.2l0.4,0.6l-4.7,2.7L66.4,26.9z"/>
		<path class="st0" d="M68.1,30.9l0.5-0.2c-0.2-0.1-0.5-0.3-0.7-0.4c-0.2-0.2-0.3-0.4-0.4-0.6c-0.1-0.4-0.1-0.7,0-1
			c0.1-0.3,0.4-0.5,0.7-0.6c0.3-0.1,0.5-0.1,0.7-0.1s0.4,0.1,0.6,0.3c0.2,0.2,0.4,0.4,0.5,0.8l0.4,0.9l0.2-0.1
			c0.3-0.1,0.5-0.3,0.5-0.5c0-0.2,0-0.5-0.1-0.7c-0.1-0.3-0.2-0.4-0.4-0.5s-0.3-0.2-0.4-0.2l0.1-0.6c0.3,0,0.5,0.2,0.7,0.3
			c0.2,0.2,0.4,0.5,0.5,0.8c0.2,0.6,0.3,1,0.2,1.3c-0.1,0.3-0.4,0.6-0.9,0.8l-2.6,1L68.1,30.9z M70.1,30.1l-0.3-0.6
			c-0.2-0.4-0.4-0.7-0.6-0.8c-0.2-0.1-0.4-0.1-0.6,0c-0.2,0.1-0.4,0.2-0.4,0.4s0,0.3,0,0.6c0,0.1,0.1,0.2,0.2,0.3
			c0.1,0.1,0.1,0.2,0.2,0.2c0.1,0.1,0.2,0.1,0.3,0.2c0.1,0.1,0.2,0.1,0.3,0.2L70.1,30.1z"/>
		<path class="st0" d="M69.2,34.5c-0.1-0.2-0.2-0.5-0.3-0.7c-0.1-0.4-0.1-0.7,0.1-1c0.2-0.2,0.5-0.4,0.9-0.5l2.2-0.6L72,31.2
			l0.5-0.1l0.1,0.6l1.1-0.3L74,32l-1.1,0.3l0.3,1l-0.5,0.1l-0.3-1l-2.1,0.5c-0.3,0.1-0.5,0.2-0.7,0.3c-0.1,0.1-0.2,0.3-0.1,0.5
			c0,0.2,0.1,0.4,0.2,0.5L69.2,34.5z"/>
		<path class="st0" d="M69.3,35.2l4.1-0.7l0.1,0.7l-4.1,0.7L69.3,35.2z M74.5,35.1c-0.2,0-0.3,0-0.3-0.1C74.1,35,74,34.9,74,34.8
			c0-0.2,0-0.3,0-0.4c0.1-0.1,0.2-0.1,0.3-0.1c0.1,0,0.2,0,0.3,0.1c0.1,0.1,0.1,0.2,0.1,0.3c0,0.2,0,0.3,0,0.4
			C74.7,35.1,74.6,35.1,74.5,35.1z"/>
		<path class="st0" d="M71.8,40.3c-0.7,0-1.3-0.1-1.6-0.4c-0.4-0.3-0.6-0.7-0.6-1.3c0-0.6,0.1-1,0.5-1.4c0.3-0.3,0.9-0.5,1.6-0.6
			c0.7,0,1.3,0.1,1.7,0.4c0.4,0.3,0.6,0.7,0.6,1.3c0,0.6-0.1,1-0.5,1.4C73.1,40.1,72.5,40.3,71.8,40.3z M71.8,39.6
			c0.6,0,1-0.1,1.2-0.3s0.4-0.5,0.3-0.8c0-0.4-0.2-0.7-0.4-0.8s-0.7-0.2-1.2-0.2c-0.5,0-0.9,0.1-1.2,0.3c-0.2,0.2-0.4,0.5-0.3,0.9
			c0,0.4,0.2,0.6,0.4,0.8C70.8,39.6,71.2,39.7,71.8,39.6z"/>
		<path class="st0" d="M69.5,43.9l2.4,0.2c0.4,0,0.7,0,0.8,0c0.1,0,0.2-0.1,0.3-0.2c0.1-0.1,0.1-0.2,0.1-0.4c0-0.2,0-0.4-0.1-0.6
			c-0.1-0.2-0.2-0.5-0.4-0.7L69.7,42l0.1-0.7l4.1,0.4l-0.1,0.7l-0.6-0.1c0.2,0.2,0.3,0.4,0.4,0.7c0.1,0.3,0.2,0.5,0.1,0.8
			c0,0.4-0.2,0.7-0.4,0.8c-0.2,0.2-0.6,0.2-1.2,0.2l-2.7-0.3L69.5,43.9z"/>
		<path class="st0" d="M68.7,47.8l5.1,1.7l-1.1,3.1l-0.6-0.2L73,50l-1.5-0.5l-0.7,2.1l-0.6-0.2l0.7-2.1l-1.8-0.6l-0.8,2.5l-0.6-0.2
			L68.7,47.8z"/>
		<path class="st0" d="M66.1,54.1l2.2,1.1c0.3,0.2,0.6,0.3,0.7,0.3c0.1,0,0.2,0,0.3,0c0.1-0.1,0.2-0.2,0.3-0.3
			c0.1-0.2,0.1-0.4,0.1-0.6c0-0.3,0-0.5-0.1-0.8L67,52.4l0.3-0.6l3.7,1.9l-0.3,0.6L70.1,54c0.1,0.3,0.1,0.5,0.1,0.8
			c0,0.3,0,0.6-0.2,0.8c-0.2,0.4-0.4,0.6-0.7,0.6c-0.3,0.1-0.7,0-1.1-0.3l-2.4-1.3L66.1,54.1z"/>
		<path class="st0" d="M63.3,58.3c-0.4-0.3-0.7-0.7-0.8-1.1c-0.1-0.4,0.1-0.8,0.5-1.3c0.4-0.5,0.8-0.8,1.2-1l0.3,0.5
			c-0.4,0.1-0.8,0.4-1,0.8c-0.2,0.3-0.3,0.6-0.3,0.8c0,0.2,0.2,0.5,0.5,0.7l0.4,0.3c0-0.2,0-0.4,0-0.7c0-0.2,0.1-0.5,0.3-0.7
			c0.3-0.4,0.7-0.6,1.1-0.6s0.9,0.2,1.5,0.6c0.5,0.4,0.9,0.8,1,1.3c0.1,0.5,0,0.9-0.3,1.3c-0.2,0.3-0.6,0.6-1,0.7l0.3,0.2l-0.4,0.5
			L63.3,58.3z M66.2,59.6c0.4-0.1,0.8-0.3,1-0.6c0.2-0.3,0.2-0.6,0.1-0.9c-0.1-0.3-0.4-0.6-0.7-0.9c-0.4-0.3-0.8-0.5-1.1-0.5
			c-0.3,0-0.5,0.1-0.7,0.4c-0.2,0.3-0.3,0.7-0.2,1.2L66.2,59.6z"/>
		<path class="st0" d="M62.4,59.1l3,2.8L65,62.4l-3-2.8L62.4,59.1z M65.7,63.2c-0.1-0.1-0.2-0.2-0.2-0.3c0-0.1,0.1-0.2,0.2-0.3
			c0.1-0.1,0.2-0.2,0.3-0.2c0.1,0,0.2,0,0.3,0.1c0.1,0.1,0.2,0.2,0.2,0.3c0,0.1-0.1,0.2-0.2,0.3c-0.1,0.1-0.2,0.2-0.3,0.2
			C65.9,63.3,65.8,63.3,65.7,63.2z"/>
		<path class="st0" d="M59.2,62.2l1.6,1.8c0.3,0.3,0.4,0.5,0.6,0.6c0.1,0.1,0.2,0.1,0.3,0.1c0.1,0,0.2-0.1,0.4-0.2
			c0.1-0.1,0.2-0.3,0.3-0.5c0.1-0.2,0.2-0.5,0.2-0.8l-1.9-2.2l0.5-0.4l2.7,3.1L63.4,64L63,63.6c0,0.3-0.1,0.5-0.2,0.8
			c-0.1,0.3-0.2,0.5-0.4,0.7c-0.3,0.3-0.6,0.4-0.9,0.3c-0.3,0-0.6-0.3-1-0.7l-1.8-2.1L59.2,62.2z"/>
		<path class="st0" d="M58.5,65.2c-0.3-0.5-0.6-0.7-0.9-0.8c-0.3-0.1-0.6,0-0.9,0.2c-0.2,0.1-0.3,0.2-0.3,0.4
			c-0.1,0.1-0.1,0.3-0.1,0.5l-0.7,0c0-0.3,0.1-0.5,0.2-0.8c0.1-0.2,0.3-0.4,0.7-0.7c0.5-0.3,1-0.4,1.4-0.3s0.9,0.5,1.2,1.1
			c0.4,0.6,0.6,1.2,0.5,1.6c-0.1,0.5-0.3,0.9-0.8,1.2c-0.4,0.3-0.9,0.4-1.3,0.3c-0.4-0.1-0.8-0.4-1.1-1l-0.2-0.3L58.5,65.2z
			 M57,66.7c0.2,0.3,0.4,0.5,0.7,0.6c0.2,0.1,0.5,0,0.8-0.1c0.3-0.2,0.4-0.4,0.5-0.6c0-0.2,0-0.5-0.2-0.9L57,66.7z"/>
		<path class="st0" d="M54.7,67.4c-0.2-0.5-0.5-0.8-0.7-0.9c-0.3-0.1-0.6-0.1-1,0.1c-0.2,0.1-0.3,0.2-0.4,0.3
			c-0.1,0.1-0.2,0.3-0.2,0.5l-0.6-0.1c0-0.3,0.1-0.5,0.3-0.7c0.2-0.2,0.4-0.4,0.8-0.6c0.6-0.3,1-0.3,1.5-0.1
			c0.4,0.2,0.8,0.6,1.1,1.3c0.3,0.7,0.4,1.3,0.3,1.7c-0.1,0.4-0.4,0.8-1,1c-0.5,0.2-0.9,0.2-1.3,0.1c-0.4-0.2-0.7-0.5-0.9-1.1
			l-0.2-0.3L54.7,67.4z M53.1,68.7c0.2,0.3,0.3,0.6,0.6,0.7s0.5,0.1,0.8,0c0.3-0.1,0.5-0.3,0.5-0.6c0.1-0.2,0-0.5-0.1-0.9L53.1,68.7
			z"/>
		<path class="st0" d="M49.5,70.9c0.1,0,0.2,0,0.3,0c0.2-0.1,0.4-0.2,0.5-0.3c0.2-0.1,0.3-0.4,0.5-0.7L50,67.2l0.6-0.2l1.2,3.9
			l-0.6,0.2L51,70.5c-0.1,0.2-0.3,0.5-0.4,0.7c-0.2,0.2-0.4,0.3-0.6,0.4c-0.2,0.1-0.3,0.1-0.4,0L49.5,70.9z"/>
		<path class="st0" d="M44.2,71.3c0-0.3,0-0.5,0.2-0.7c0.2-0.2,0.4-0.3,0.7-0.4c0.3,0,0.5,0,0.7,0.2c0.2,0.2,0.3,0.4,0.4,0.7
			c0,0.3,0,0.5-0.2,0.8c-0.2,0.2-0.4,0.3-0.7,0.4c-0.3,0-0.5,0-0.7-0.2S44.2,71.6,44.2,71.3z"/>
		<path class="st0" d="M38.6,70.5l0.2-2.1l0.7,0.1l-0.2,2.1l1.4,3.5L40,73.9l-1.1-2.7l-1.5,2.5l-0.8-0.1L38.6,70.5z"/>
		<path class="st0" d="M36.1,70c0.1-0.5,0.1-0.9,0-1.2c-0.1-0.3-0.4-0.4-0.8-0.5c-0.2,0-0.3,0-0.5,0c-0.2,0-0.3,0.1-0.5,0.3
			l-0.5-0.5c0.2-0.2,0.4-0.3,0.7-0.4c0.2-0.1,0.6-0.1,0.9,0c0.6,0.1,1,0.4,1.2,0.8c0.2,0.4,0.3,1,0.1,1.7c-0.2,0.7-0.4,1.3-0.8,1.5
			c-0.4,0.3-0.8,0.4-1.4,0.3c-0.5-0.1-0.9-0.3-1.1-0.7c-0.2-0.4-0.2-0.8-0.1-1.5l0.1-0.4L36.1,70z M34,70.1
			c-0.1,0.4-0.1,0.7,0.1,0.9c0.1,0.2,0.3,0.4,0.7,0.4c0.3,0.1,0.6,0,0.8-0.1c0.2-0.1,0.4-0.4,0.5-0.8L34,70.1z"/>
		<path class="st0" d="M33,67.2l-1.8,5.6l-0.6-0.2l1.8-5.6L33,67.2z"/>
		<path class="st0" d="M31.1,66.6L28.9,72l-0.6-0.3l2.2-5.4L31.1,66.6z"/>
		<path class="st0" d="M25.4,66c0.3-0.6,0.7-1,1.2-1.2c0.4-0.2,0.9-0.1,1.4,0.2c0.5,0.3,0.8,0.7,0.9,1.1c0.1,0.5,0,1-0.4,1.7
			c-0.3,0.6-0.7,1.1-1.2,1.2c-0.4,0.2-0.9,0.1-1.4-0.2c-0.5-0.3-0.8-0.7-0.9-1.1C24.9,67.2,25,66.7,25.4,66z M26,66.4
			c-0.3,0.5-0.4,0.9-0.3,1.2c0,0.3,0.2,0.6,0.6,0.7c0.3,0.2,0.6,0.2,0.9,0.1c0.3-0.1,0.6-0.5,0.8-0.9c0.3-0.5,0.4-0.9,0.3-1.2
			c0-0.3-0.2-0.6-0.6-0.7c-0.3-0.2-0.6-0.2-0.9-0.1C26.5,65.6,26.2,65.9,26,66.4z"/>
		<path class="st0" d="M22.6,61.4l0.5,0.4l-1.2,3.1l2.7-1.8l0.5,0.4l-1.7,3.9l-0.6-0.4l1.4-2.9l-2.7,1.9L21,65.5l1.2-3.1l-2.5,2
			L19.2,64L22.6,61.4z"/>
		<path class="st0" d="M17.2,62.8l1.2-1.1L17,60.1l0.5-0.4l1.5,1.6l1.9-1.7l0.5,0.5l-4,3.6L15,61.4l0.5-0.4L17.2,62.8z"/>
		<path class="st0" d="M15.1,55.6c0.6-0.4,1.1-0.6,1.6-0.5c0.5,0.1,0.9,0.3,1.2,0.8c0.3,0.5,0.4,1,0.3,1.4c-0.1,0.5-0.5,0.9-1.1,1.3
			c-0.6,0.4-1.2,0.6-1.6,0.5c-0.5-0.1-0.9-0.3-1.2-0.8c-0.3-0.5-0.4-1-0.3-1.4C14.2,56.4,14.5,55.9,15.1,55.6z M15.5,56.1
			c-0.5,0.3-0.8,0.6-0.9,0.9c-0.1,0.3-0.1,0.6,0.1,0.9c0.2,0.3,0.5,0.5,0.8,0.5c0.3,0,0.7-0.1,1.2-0.4c0.4-0.3,0.7-0.6,0.8-0.9
			c0.1-0.3,0.1-0.6-0.1-0.9c-0.2-0.3-0.5-0.5-0.8-0.5C16.4,55.7,16,55.8,15.5,56.1z"/>
		<path class="st0" d="M16.4,53.5l-5.2,2.7l-0.3-0.6l5.2-2.7L16.4,53.5z"/>
		<path class="st0" d="M14.6,49.4l-0.4,0.1c0.2,0.1,0.4,0.2,0.6,0.4c0.2,0.2,0.3,0.4,0.4,0.6c0.2,0.5,0.1,0.9-0.1,1.3
			c-0.3,0.4-0.7,0.7-1.3,0.9c-0.6,0.2-1.2,0.3-1.7,0.2c-0.5-0.1-0.8-0.4-1-0.9c-0.1-0.4-0.1-0.8,0-1.2l-1.9,0.7l-0.2-0.6l5.4-2.1
			L14.6,49.4z M11.6,50.6c-0.1,0.4-0.2,0.8,0,1.1c0.1,0.3,0.3,0.5,0.6,0.6s0.7,0,1.2-0.2c1-0.4,1.3-0.9,1.1-1.5
			c-0.1-0.2-0.2-0.4-0.4-0.5c-0.2-0.1-0.3-0.3-0.5-0.3L11.6,50.6z"/>
		<path class="st0" d="M12,47.6c0.5-0.1,0.9-0.3,1.1-0.5c0.2-0.2,0.2-0.5,0.1-0.9c0-0.2-0.1-0.3-0.2-0.4c-0.1-0.1-0.3-0.2-0.5-0.3
			l0.2-0.6c0.3,0.1,0.5,0.2,0.7,0.4c0.2,0.2,0.3,0.5,0.4,0.9c0.1,0.6,0.1,1.1-0.2,1.5c-0.3,0.4-0.8,0.6-1.5,0.8
			c-0.7,0.2-1.3,0.1-1.7-0.1C10,48,9.7,47.7,9.6,47.1c-0.1-0.5-0.1-0.9,0.2-1.3c0.2-0.3,0.7-0.6,1.3-0.7l0.4-0.1L12,47.6z M11,45.8
			c-0.4,0.1-0.6,0.2-0.8,0.4c-0.2,0.2-0.2,0.5-0.1,0.8c0.1,0.3,0.2,0.5,0.4,0.6s0.5,0.2,0.9,0.1L11,45.8z"/>
		<path class="st0" d="M9.6,41.8c0,0.1,0,0.2,0,0.3c0,0.2,0.1,0.4,0.2,0.6c0.1,0.2,0.3,0.4,0.6,0.6l2.8-0.3l0.1,0.7l-4.1,0.4
			l-0.1-0.7l0.7-0.1c-0.2-0.2-0.4-0.4-0.6-0.5c-0.2-0.2-0.3-0.4-0.3-0.7c0-0.2,0-0.3,0-0.4L9.6,41.8z"/>
		<path class="st0" d="M8,39.4c0.3,0,0.6,0.1,0.9,0.2c0.3,0.1,0.5,0.2,0.6,0.3l0,0.4C9.4,40.2,9.2,40.1,9,40
			c-0.2-0.1-0.4-0.1-0.6-0.1c0,0.2,0,0.3-0.1,0.3c-0.1,0.1-0.2,0.1-0.3,0.1c-0.1,0-0.3,0-0.3-0.1c-0.1-0.1-0.1-0.2-0.1-0.4
			c0-0.2,0-0.3,0.1-0.4C7.7,39.4,7.9,39.4,8,39.4z"/>
		<path class="st0" d="M12.3,35.4c0.4,0,0.7,0.2,0.9,0.5c0.2,0.3,0.3,0.7,0.2,1.2c0,0.3-0.1,0.6-0.3,0.9c-0.2,0.3-0.4,0.4-0.6,0.5
			l-0.3-0.6c0.4-0.2,0.6-0.5,0.6-0.9c0-0.3,0-0.5-0.1-0.7c-0.1-0.2-0.2-0.3-0.4-0.3c-0.1,0-0.2,0-0.3,0s-0.1,0.1-0.2,0.2
			c-0.1,0.1-0.2,0.3-0.3,0.6c-0.2,0.5-0.4,0.8-0.6,1c-0.2,0.2-0.5,0.2-0.8,0.2c-0.4,0-0.6-0.2-0.8-0.5C9,37.4,9,37,9,36.5
			c0-0.4,0.1-0.6,0.3-0.9c0.2-0.2,0.4-0.4,0.6-0.5l0.3,0.6c-0.3,0.2-0.5,0.5-0.6,0.9c0,0.2,0,0.4,0.1,0.6c0.1,0.2,0.2,0.3,0.4,0.3
			c0.2,0,0.3,0,0.4-0.2c0.1-0.1,0.2-0.3,0.3-0.6c0.2-0.4,0.3-0.8,0.4-0.9c0.1-0.2,0.3-0.3,0.4-0.3S12.1,35.4,12.3,35.4z"/>
		<path class="st0" d="M9.8,30.4l1.5,0.5l0.7-2.1l0.6,0.2l-0.7,2.1l2.4,0.8l-0.2,0.7l-5.1-1.7l1-3.1l0.6,0.2L9.8,30.4z"/>
		<path class="st0" d="M11,26c0.1,0.1,0.2,0.1,0.2,0.2c0,0.1,0,0.2-0.1,0.3c-0.1,0.2-0.1,0.2-0.2,0.3c-0.1,0-0.2,0-0.3,0
			c-0.1-0.1-0.2-0.1-0.2-0.2c0-0.1,0-0.2,0-0.3c0.1-0.1,0.1-0.2,0.2-0.3S10.9,25.9,11,26z M15.4,28.8l-3.7-1.7l0.3-0.6l3.7,1.7
			L15.4,28.8z"/>
		<path class="st0" d="M17.5,24.9l-2.1-1.2c-0.3-0.2-0.6-0.3-0.7-0.3c-0.1,0-0.2,0-0.3,0c-0.1,0-0.2,0.1-0.3,0.3
			C14,23.8,14,24,14,24.2c0,0.3,0,0.5,0.1,0.8l2.5,1.5l-0.3,0.6L12.7,25l0.3-0.6l0.5,0.3c-0.1-0.3-0.1-0.5-0.1-0.8
			c0-0.3,0.1-0.6,0.2-0.8c0.2-0.3,0.4-0.5,0.7-0.6c0.3,0,0.7,0.1,1.1,0.3l2.4,1.4L17.5,24.9z"/>
		<path class="st0" d="M17.3,21.8c0.4,0.3,0.8,0.5,1.1,0.5c0.3,0,0.6-0.2,0.8-0.5c0.1-0.1,0.2-0.3,0.2-0.4c0-0.2,0-0.3,0-0.5
			l0.6-0.2c0.1,0.3,0.1,0.5,0.1,0.8c0,0.3-0.2,0.5-0.4,0.8c-0.4,0.5-0.8,0.7-1.3,0.7c-0.5,0-1-0.2-1.5-0.7c-0.6-0.5-0.9-0.9-1-1.4
			c-0.1-0.5,0-0.9,0.4-1.4c0.3-0.4,0.7-0.6,1.1-0.6c0.4,0,0.9,0.2,1.4,0.6l0.3,0.2L17.3,21.8z M18.1,19.9c-0.3-0.2-0.6-0.3-0.8-0.4
			c-0.3,0-0.5,0.1-0.7,0.4c-0.2,0.2-0.3,0.5-0.2,0.7c0,0.2,0.2,0.5,0.5,0.8L18.1,19.9z"/>
		<path class="st0" d="M22.4,17.6c0.3,0.3,0.4,0.6,0.3,0.9c-0.1,0.3-0.3,0.7-0.6,1c-0.3,0.2-0.5,0.4-0.8,0.5c-0.3,0.1-0.6,0.1-0.8,0
			l0.2-0.6c0.4,0.1,0.7,0,1.1-0.3c0.2-0.2,0.3-0.4,0.4-0.6c0-0.2,0-0.3-0.2-0.5c-0.1-0.1-0.2-0.1-0.2-0.2c-0.1,0-0.2,0-0.3,0
			c-0.1,0-0.3,0.1-0.6,0.3c-0.4,0.3-0.8,0.4-1.1,0.4c-0.3,0-0.5-0.1-0.8-0.4c-0.2-0.3-0.4-0.6-0.3-0.9c0-0.3,0.2-0.7,0.6-1
			c0.3-0.2,0.5-0.4,0.8-0.5c0.3-0.1,0.5-0.1,0.7,0l-0.2,0.6c-0.4-0.1-0.7,0-1,0.3c-0.2,0.2-0.3,0.3-0.3,0.5c0,0.2,0,0.3,0.1,0.5
			c0.1,0.1,0.3,0.2,0.4,0.2s0.4-0.1,0.6-0.3c0.4-0.2,0.7-0.4,0.9-0.4s0.4,0,0.6,0C22.1,17.3,22.3,17.4,22.4,17.6z"/>
		<path class="st0" d="M25.5,16.7c-0.2,0.2-0.3,0.4-0.6,0.6c-0.3,0.2-0.6,0.3-0.9,0.3c-0.3-0.1-0.6-0.3-0.8-0.7L21.8,15l-0.5,0.4
			L21,14.9l0.5-0.4l-0.7-0.9l0.5-0.4l0.7,0.9l0.8-0.6l0.3,0.5l-0.8,0.6l1.3,1.7c0.2,0.3,0.4,0.4,0.5,0.5c0.1,0.1,0.3,0,0.5-0.1
			c0.2-0.1,0.3-0.3,0.4-0.4L25.5,16.7z"/>
		<path class="st0" d="M28.2,11.8c0.1,0.2,0.1,0.5,0.1,0.8c-0.1,0.3-0.3,0.5-0.5,0.6c-0.2,0.1-0.5,0.1-0.8,0.1
			c-0.3-0.1-0.5-0.3-0.6-0.5c-0.1-0.3-0.1-0.5-0.1-0.8c0.1-0.3,0.3-0.5,0.5-0.6c0.3-0.1,0.5-0.1,0.8-0.1
			C27.9,11.4,28.1,11.6,28.2,11.8z"/>
	</g>
	<g>
		<path class="st1" d="M38.8,32.2c-1.4,1-2.7,1.4-3.9,1.2c-1.2-0.2-2.3-1.1-3.3-2.6l-1.4-2l-3.7,2.5l-1.7-2.4l12-8.2l3.1,4.5
			c0.9,1.4,1.3,2.6,1.2,3.8C41,30.2,40.3,31.3,38.8,32.2z M37.1,29.7c0.7-0.5,1-1,1.1-1.6c0-0.6-0.3-1.3-0.9-2.3l-0.8-1.2l-4,2.7
			l0.7,1c0.6,0.9,1.1,1.5,1.4,1.7c0.4,0.3,0.7,0.4,1.1,0.3C36.1,30.3,36.5,30.1,37.1,29.7z"/>
		<path class="st1" d="M36.8,46.4l5.6-10.2L33.9,42l-1.6-2.4l12-8.2l2.2,3.2l-5.3,9.5l8.1-5.5l1.6,2.4l-12,8.2L36.8,46.4z"/>
		<path class="st1" d="M40.6,51.8l12-8.2l5.3,7.8l-2.2,1.5L52,47.6l-2.5,1.7l3.1,4.5l-2.2,1.5l-3.1-4.5l-2.9,2l3.6,5.3l-2.2,1.5
			L40.6,51.8z"/>
	</g>
</g>
</svg>
