<?xml version="1.0" encoding="utf-8"?>
<!-- Generator: Adobe Illustrator 22.1.0, SVG Export Plug-In . SVG Version: 6.00 Build 0)  -->
<svg version="1.1" id="Layer_1" xmlns="http://www.w3.org/2000/svg" xmlns:xlink="http://www.w3.org/1999/xlink" x="0px" y="0px"
	 viewBox="0 0 564 581" style="enable-background:new 0 0 564 581;" xml:space="preserve">
<style type="text/css">
	.st0{fill:#FFFFFF;stroke:#808080;stroke-width:0.5;stroke-linejoin:round;stroke-miterlimit:10;}
</style>
<rect x="6.3" y="382.1" class="st0" width="548.7" height="158.1"/>
<polygon class="st0" points="555,382.1 6.3,382.1 98.7,286.7 464.1,286.7 "/>
<polygon class="st0" points="521,370.2 40.4,370.2 121.3,286.7 441.3,286.7 "/>
<polygon class="st0" points="450.3,343.4 111.7,343.4 126.1,243.5 434.7,243.5 "/>
<rect x="122.1" y="343.4" class="st0" width="317.9" height="13"/>
<rect x="138.2" y="7.6" class="st0" width="285.6" height="342"/>
<path class="st0" d="M116.7,540.1l-30.9,0v-52.3c0-10.8,8.7-19.5,19.5-19.5h350.8c10.8,0,19.5,8.7,19.5,19.5v52.3h-30.2"/>
<polygon class="st0" points="475.6,572 85.8,572 151.4,504.3 410.9,504.3 "/>
<path class="st0" d="M210.3,571v-18.9c0-3.9,3.2-7,7-7H344c3.9,0,7,3.2,7,7V571"/>
<rect x="423.8" y="394" class="st0" width="119.5" height="62.4"/>
<rect x="463.1" y="396.8" transform="matrix(-1.836970e-16 1 -1 -1.836970e-16 900.4214 -59.3604)" class="st0" width="33.6" height="47.5"/>
<rect x="467.8" y="401.5" transform="matrix(-1.836970e-16 1 -1 -1.836970e-16 909.8132 -59.3604)" class="st0" width="33.6" height="47.5"/>
<rect x="472.5" y="406.2" transform="matrix(-1.836970e-16 1 -1 -1.836970e-16 919.205 -59.3604)" class="st0" width="33.6" height="47.5"/>
</svg>
