<svg version="1" xmlns="http://www.w3.org/2000/svg" width="801.333" height="801.333" viewBox="0 0 601.000000 601.000000"><path d="M252.1 49c-48.3 9.7-85.9 45.2-98 92.7-2.7 10.6-4.3 28.1-3.9 43.8l.3 13 30.3.3 30.2.2v-16.7c0-20.2 1.4-27.6 7.1-39.3 5.6-11.3 17-22.8 27.9-28.3 12.9-6.4 16.3-6.9 47.7-7.4 41.4-.7 52.1 1 66.9 10.9 14.7 9.8 25 25.1 27.9 41.3 1.1 6 1.4 17.6 1.5 45.7V243h61v-34.8c0-46.4-1-57.1-7.2-76.2-8.5-26.3-30.6-53.8-54.3-67.5-14.1-8.2-24.9-12.2-41.2-15.5-9.2-1.8-13.7-2-48.5-1.9-33.2.1-39.5.3-47.7 1.9z"/><path d="M95.9 211.6c-2.3 2.5-2.4 3-2.7 22.1l-.3 19.6 2.3-1.7c1.3-.9 4.8-2.9 7.8-4.4l5.5-2.7 67.3-.3 67.3-.3-.3-14.8c-.3-14.2-.4-15.1-2.7-17.5l-2.4-2.6H98.3l-2.4 2.6zM111.2 256.5C102 259.4 96 266 94 275.4c-.7 3.5-1 45-.8 131.6.3 126.2.3 126.5 2.4 131 2.7 5.7 6.7 9.7 12.4 12.4l4.5 2.1h376l4.5-2.1c5.7-2.7 9.7-6.7 12.4-12.4l2.1-4.5v-259l-2.1-4.5c-2.7-5.7-6.7-9.7-12.4-12.4l-4.5-2.1-186.5-.2c-154.2-.1-187.2.1-190.8 1.2z"/></svg>