<svg id="Layer_1" xmlns="http://www.w3.org/2000/svg" viewBox="0 0 577 698"><style>.st1,.st2{fill:#fff;stroke:gray;stroke-width:.5;stroke-linejoin:round;stroke-miterlimit:10}.st2{fill:none}</style><path d="M458.4 41.3a22.8 22.8 0 0 0-24.3-21.1L203.5 36.7l-1.6-23.1a8.2 8.2 0 0 0-8.8-7.6L67 15a8.2 8.2 0 0 0-7.6 8.8l3.9 54.7 2.1 29.6 39.9 560c.9 12.5 11.8 22 24.3 21.1l111.8-8-.1.1 238.6-17c12.5-.9 22-11.8 21.1-24.3l-8.5-119.9-34.1-478.8z" fill="#ffc629"/><path transform="rotate(-85.2 393.67 228.02) scale(1.00001)" class="st1" d="M266.4 64.8h254.5v326.4H266.4z"/><path class="st2" d="M516.7 137.9L500 337.4M495.9 136.2l-15.2 180.4M475 134.4l-10.6 126.7M454.2 132.6l-16.8 199.6M433.3 130.9l-16.7 199.5M412.5 129.1l-15.7 186.6M391.6 127.4l-16.8 199.5M370.7 125.6L354 325.1M349.9 123.9L335.8 291M329 122.1l-16.7 199.5M308.2 120.4L293 300.8M287.3 118.6l-8.4 99.8"/><g><path transform="rotate(-26.49 209.79 407.72)" class="st1" d="M46.6 280.5H373V535H46.6z"/><path class="st2" d="M151.4 548.6L62.2 369.4M170.2 539.3L89.4 377.2M188.9 530l-56.7-113.8M207.6 520.6l-89.2-179.2M226.4 511.3l-89.3-179.2M245.1 502l-83.5-167.6M263.8 492.6l-89.2-179.2M282.6 483.3l-89.3-179.2M301.3 474l-74.8-150.2M320.1 464.6l-89.3-179.2M338.8 455.3L258 293.2M357.5 446l-44.6-89.6"/></g></svg>