<?xml version="1.0" encoding="utf-8"?>
<!-- Generator: Adobe Illustrator 22.1.0, SVG Export Plug-In . SVG Version: 6.00 Build 0)  -->
<svg version="1.1" id="Layer_1" xmlns="http://www.w3.org/2000/svg" xmlns:xlink="http://www.w3.org/1999/xlink" x="0px" y="0px"
	 viewBox="0 0 930 757.6" style="enable-background:new 0 0 930 757.6;" xml:space="preserve">
<style type="text/css">
	.st0{fill:none;stroke:#C7C6C5;stroke-width:0.5;stroke-linejoin:round;stroke-miterlimit:10;}
</style>
<g>
	<g>
		<g>
			<path class="st0" d="M343.1,293.5v-13.3c0-2.4-1.9-4.3-4.3-4.3h-66.1c-2.4,0-4.3,1.9-4.3,4.3v17.9c3.2-2.9,7.3-4.6,11.9-4.6
				H343.1z"/>
		</g>
		<g>
			<path class="st0" d="M448.4,293.1h-29.8v-35.6c0-18-14.7-32.7-32.7-32.7h-24.8c-18,0-32.7,14.7-32.7,32.7v13.2h-29.8v-13.2
				c0-34.4,28-62.5,62.5-62.5h24.8c34.4,0,62.5,28,62.5,62.5V293.1z"/>
		</g>
		<g>
			<path class="st0" d="M464,299.4H280.3c-6.6,0-11.9,5.3-11.9,11.9v125.1c0,6.6,5.3,11.9,11.9,11.9H464c6.6,0,11.9-5.3,11.9-11.9
				V311.3C475.9,304.7,470.5,299.4,464,299.4z M380.4,376.8v28.6h-12.6v-28.6c-6.5-2.5-11.1-8.8-11.1-16.2c0-9.6,7.8-17.4,17.4-17.4
				c9.6,0,17.4,7.8,17.4,17.4C391.4,367.9,386.8,374.2,380.4,376.8z"/>
		</g>
	</g>
	<g>
		<line class="st0" x1="854.4" y1="735" x2="854.4" y2="468.2"/>
		<line class="st0" x1="834.7" y1="649" x2="834.7" y2="364.3"/>
		<line class="st0" x1="815" y1="694.6" x2="815" y2="511"/>
		<circle class="st0" cx="795.4" cy="664.9" r="7.7"/>
		<circle class="st0" cx="854.4" cy="742.7" r="7.7"/>
		<circle class="st0" cx="834.7" cy="656.6" r="7.7"/>
		<circle class="st0" cx="815" cy="702.2" r="7.7"/>
		<circle class="st0" cx="815" cy="503.3" r="7.7"/>
		<circle class="st0" cx="834.7" cy="356.7" r="7.7"/>
		<circle class="st0" cx="854.4" cy="460.5" r="7.7"/>
		<circle class="st0" cx="854.4" cy="381.7" r="7.7"/>
		<path class="st0" d="M815,545.9c0,66.4-19.7,38.5-19.7,111.4"/>
		<path class="st0" d="M854.4,389.3c0,66.4-19.7,38.5-19.7,111.4"/>
		<path class="st0" d="M815,523.2c0,66.4,19.7,38.5,19.7,111.4"/>
		<path class="st0" d="M834.7,495.7c0,66.4,19.7,38.5,19.7,111.4"/>
	</g>
	<g>
		<line class="st0" x1="710.8" y1="197.3" x2="710.8" y2="30.5"/>
		<line class="st0" x1="722.7" y1="218.7" x2="722.7" y2="52.6"/>
		<path class="st0" d="M734.5,82.6v69c0,39.9-11.8,23.2-11.8,67.1"/>
		<line class="st0" x1="699" y1="241.2" x2="699" y2="100.1"/>
		<circle class="st0" cx="746.4" cy="60" r="4.6"/>
		<circle class="st0" cx="722.7" cy="223.3" r="4.6"/>
		<circle class="st0" cx="699" cy="246.2" r="4.6"/>
		<circle class="st0" cx="710.8" cy="201.9" r="4.6"/>
		<circle class="st0" cx="699" cy="11.5" r="4.6"/>
		<circle class="st0" cx="734.5" cy="78" r="4.6"/>
		<circle class="st0" cx="722.7" cy="48" r="4.6"/>
		<circle class="st0" cx="710.8" cy="26" r="4.6"/>
		<circle class="st0" cx="699" cy="95.1" r="4.6"/>
		<path class="st0" d="M699,16.1c0,39.9,11.8,23.2,11.8,67.1"/>
		<path class="st0" d="M710.8,122c0,39.9,11.8,23.2,11.8,67.1"/>
		<path class="st0" d="M746.4,64.7c0,39.9-11.8,23.2-11.8,67.1"/>
		<path class="st0" d="M710.8,84.8c0,39.9-11.8,23.2-11.8,67.1"/>
	</g>
	<g>
		<path class="st0" d="M607.6,384.2l-0.2-150.4l14.8-61l16.7,61l0.2,150.4c0,0,5.6,3.1,0,6.5l0,6.5c0,0,5.4,1.2-0.1,3l-31.4,0
			c0,0-5.5-1.6,0-3.2l-0.1-6.3C607.5,390.6,602.2,387.5,607.6,384.2z"/>
		<line class="st0" x1="605.2" y1="387.4" x2="641.5" y2="387.4"/>
		<path class="st0" d="M639,400.1c0.1,10.8,0.1,21.7,0.2,32.5c-0.9,1.1-6.5,7.7-15.7,7.7c-9.2,0-14.9-6.6-15.8-7.6l0-32.5L639,400.1
			z"/>
		<line class="st0" x1="607.3" y1="233.7" x2="638.8" y2="233.7"/>
		<polygon class="st0" points="617.6,191.5 627.3,191.5 622.1,172.7 		"/>
		<line class="st0" x1="622.5" y1="233.7" x2="623.4" y2="387.4"/>
	</g>
	<g>
		<g>
			<path class="st0" d="M451,124.4C451.1,124.4,451.1,124.5,451,124.4l0.1,92.7c0,0,0,0.1-0.1,0.1l-77.2-15.5c0,0-0.1,0-0.1-0.1
				l-0.1-92.5c0,0,0-0.1,0.1-0.1L451,124.4z"/>
		</g>
		<g>
			<path class="st0" d="M466.5,116.6C466.5,116.6,466.5,116.6,466.5,116.6l-15.4,7.8c0,0-0.1,0.1-0.1,0.1l0.1,92.6c0,0,0,0.1,0.1,0
				l15.3-7.7c0,0,0.1-0.1,0.1-0.1L466.5,116.6z"/>
		</g>
		<g>
			<path class="st0" d="M451.1,124.4l15.4-7.8c0,0,0-0.1,0-0.1l-54-38.5c0,0-0.1,0-0.1,0l0,11.4"/>
		</g>
		<g>
			<path class="st0" d="M414.4,89.5c0,0-0.1,0-0.1,0c0,0-11.2,0.1-19.6,5.2c-8.8,5.3-14.1,15.7-14.1,15.7c0,0,0,0.1,0,0.1l70.5,14
				c0,0,0.1,0,0.1,0l11.3-5.7c0,0,0,0,0-0.1L414.4,89.5z"/>
		</g>
		<g>
			<path class="st0" d="M406.3,90.4l53.9,29.4c0,0,0,0,0,0.1l-2.1,1.1c0,0-0.1,0-0.1,0l-58.2-28.7c0,0-0.1,0-0.1,0
				c0,0-1.2,0.5-1.9,0.8c-1.2,0.5-3.1,1.6-3.1,1.6c0,0,0,0,0,0.1l61.1,27.4c0,0,0,0,0,0.1l-2.1,1c0,0-0.1,0-0.1,0l-63.8-24.7
				c0,0-0.1,0-0.1,0c0,0-1.4,1.3-2.1,2.1c-0.9,1-2.4,2.8-2.4,2.8c0,0,0,0.1,0,0.1c0,0,44.2,13.9,66.3,20.9"/>
		</g>
		<polygon class="st0" points="466.6,136.7 451.1,144.5 451.2,193.9 466.6,186.9 		"/>
	</g>
	<g>
		<path class="st0" d="M482.9,282.5V147.3c0-17,15.4-30.8,34.4-30.8H743c19,0,34.4,13.8,34.4,30.8v135.3H482.9z"/>
		<polygon class="st0" points="777.4,282.5 482.9,282.5 448.4,339.6 812,339.6 		"/>
		<polygon class="st0" points="464.4,330.6 488,291.6 772.3,291.6 796,330.6 		"/>
		<polygon class="st0" points="812,339.6 801.5,350.1 644.9,350 458.7,350 448.4,339.6 		"/>
		<rect x="499.9" y="138.9" class="st0" width="260.6" height="129.5"/>
		<circle class="st0" cx="630.2" cy="128" r="4"/>
		<line class="st0" x1="706" y1="291.6" x2="714.9" y2="330.6"/>
		<line class="st0" x1="722.7" y1="291.6" x2="733.7" y2="330.6"/>
		<line class="st0" x1="739.4" y1="291.6" x2="753.6" y2="330.6"/>
		<line class="st0" x1="756" y1="291.6" x2="774.4" y2="330.6"/>
		<line class="st0" x1="707.2" y1="298.2" x2="776.3" y2="298.2"/>
		<line class="st0" x1="711.9" y1="317.3" x2="787.7" y2="317.3"/>
		<line class="st0" x1="709.4" y1="306.5" x2="781.4" y2="306.5"/>
	</g>
	<g>
		<line class="st0" x1="303.6" y1="551.7" x2="303.6" y2="359.2"/>
		<line class="st0" x1="320.9" y1="531.3" x2="320.9" y2="387"/>
		<path class="st0" d="M338.2,414.4v7.8c0,58.4-17.3,33.9-17.3,98"/>
		<circle class="st0" cx="338.2" cy="407.6" r="6.7"/>
		<circle class="st0" cx="286.3" cy="529.6" r="6.7"/>
		<circle class="st0" cx="303.6" cy="558.5" r="6.7"/>
		<circle class="st0" cx="320.9" cy="538.1" r="6.7"/>
		<circle class="st0" cx="320.9" cy="380.3" r="6.7"/>
		<circle class="st0" cx="303.6" cy="352.5" r="6.7"/>
		<path class="st0" d="M303.6,424.9c0,58.4-17.3,33.9-17.3,98"/>
		<path class="st0" d="M303.6,358.6c0,58.4,17.3,33.9,17.3,98"/>
	</g>
	<g>
		<path class="st0" d="M878.2,547.9H666c-8.4,0-15.2-6.8-15.2-15.2V406c0-8.4,6.8-15.2,15.2-15.2h212.2c8.4,0,15.2,6.8,15.2,15.2
			v126.7C893.4,541.1,886.6,547.9,878.2,547.9z"/>
		<line class="st0" x1="650.7" y1="519.3" x2="893.4" y2="519.3"/>
		<circle class="st0" cx="772.1" cy="533.1" r="8.2"/>
		<g>
			<line class="st0" x1="748.7" y1="464.7" x2="776.9" y2="436.5"/>
			<line class="st0" x1="748.7" y1="483.2" x2="795.4" y2="436.5"/>
			<line class="st0" x1="767.3" y1="483.2" x2="795.4" y2="455"/>
		</g>
		<path class="st0" d="M748.7,547.9c0,15.5-8.8,34.1-8.8,34.1h32.1"/>
		<path class="st0" d="M795.4,547.9c0,15.5,8.8,34.1,8.8,34.1h-32.1"/>
		<rect x="664.9" y="404.7" class="st0" width="214.4" height="114.5"/>
	</g>
	<g>
		<rect x="574.3" y="502.4" class="st0" width="137.5" height="176.4"/>
		<g>
			<line class="st0" x1="589" y1="528.4" x2="697.2" y2="528.4"/>
			<line class="st0" x1="589" y1="539.7" x2="686.8" y2="539.7"/>
			<line class="st0" x1="589" y1="551" x2="657.7" y2="551"/>
			<line class="st0" x1="589" y1="562.4" x2="697.2" y2="562.3"/>
			<line class="st0" x1="589" y1="573.7" x2="697.2" y2="573.7"/>
			<line class="st0" x1="589" y1="585" x2="690.1" y2="585"/>
			<line class="st0" x1="589" y1="596.3" x2="697.2" y2="596.3"/>
			<line class="st0" x1="589" y1="607.6" x2="697.2" y2="607.6"/>
			<line class="st0" x1="589" y1="618.9" x2="679.6" y2="618.9"/>
			<line class="st0" x1="589" y1="630.2" x2="697.2" y2="630.2"/>
			<line class="st0" x1="589" y1="641.5" x2="686.8" y2="641.5"/>
			<line class="st0" x1="589" y1="652.8" x2="643.1" y2="652.8"/>
		</g>
	</g>
	<g>
		<path class="st0" d="M491.4,720.7l0.2-108.8l18.2,0l-0.2,108.8c-1.6,2.7-5,4.4-8.7,4.5C496.9,725.3,493.1,723.5,491.4,720.7z"/>
		<path class="st0" d="M489.4,611.9l22.1,0c0,0,0.6-64.3-10.9-64.3C489.1,547.6,489.4,611.9,489.4,611.9z"/>
		<path class="st0" d="M506.4,555.2c13.6,0,12.1,52.5,12.1,59.2"/>
		<line class="st0" x1="491.4" y1="720.7" x2="509.7" y2="720.7"/>
	</g>
	<g>
		<polygon class="st0" points="413.8,576.3 414,508.5 414.4,396.5 459.2,396.5 459.2,575.7 		"/>
		<line class="st0" x1="413.8" y1="560.5" x2="426.5" y2="560.5"/>
		<line class="st0" x1="413.9" y1="530.9" x2="436.3" y2="530.9"/>
		<line class="st0" x1="426.8" y1="545.7" x2="413.9" y2="545.7"/>
		<line class="st0" x1="436.3" y1="486.1" x2="413.9" y2="486.1"/>
		<line class="st0" x1="426.7" y1="515.9" x2="413.9" y2="515.9"/>
		<line class="st0" x1="436.6" y1="441.3" x2="414.3" y2="441.3"/>
		<line class="st0" x1="426.7" y1="501" x2="414" y2="501"/>
		<line class="st0" x1="414.1" y1="472" x2="426.9" y2="472"/>
		<line class="st0" x1="427.1" y1="457.3" x2="414.2" y2="457.3"/>
		<line class="st0" x1="427.1" y1="426.8" x2="414.4" y2="426.8"/>
		<line class="st0" x1="427.1" y1="411.3" x2="414.4" y2="411.3"/>
	</g>
	<g>
		<path class="st0" d="M527.1,370.6c14.1,16.8,14.9,39.7,14.9,39.7"/>
		<path class="st0" d="M520.3,424.9c14.7-11.5,21.7-14.6,21.7-14.6c3.7-1.8,34.2-15.5,61.5-0.1c32.9,18.5,31.1,62.4,30.8,70.4
			c-1.2,29.9-17.5,48.9-34.3,68.4c-18,20.9-29.9,23.3-36.6,23.2c-2.4,0-8.4-0.2-13.8-4.3c-9-6.8-8.9-19.5-8.9-19.5
			s-0.1,12.7-9.3,19.3c-5.5,4-11.5,4-13.9,4c-8.5-0.1-19.5-4.3-35.4-23.6c-17.6-21.4-33.1-40.1-33.8-69.3
			c-0.2-7.8-1.3-51.9,32.1-69.9c27.6-14.9,57.8-0.6,61.5,1.3"/>
		<path class="st0" d="M541.7,404.6c0,0-6.7-39.4,46-43.9C587.7,360.7,595.5,397.9,541.7,404.6z"/>
	</g>
</g>
</svg>
