<svg xmlns="http://www.w3.org/2000/svg" viewBox="0 0 341.21 384.12"><defs><style>.cls-1{fill:#fff;stroke:#818181;stroke-linejoin:round;stroke-width:0.5px;}.cls-2{fill:#5b6670;}.cls-3{fill:#ffc629;}</style></defs><title>Asset 5</title><g id="Layer_2" data-name="Layer 2"><g id="Layer_1-2" data-name="Layer 1"><rect class="cls-1" x="46.22" y="32.53" width="248.78" height="319.06" transform="translate(-54.15 67.65) rotate(-19.42)"/><path class="cls-2" d="M59.73,137.42,51.16,131l-.72,1.84,2.5,7-4.09,1.46-7.21-20.11,4.1-1.47,2.81,7.85,3.77-10.21,4.78-1.71L52.71,127l12.14,8.57Z"/><path class="cls-2" d="M67.5,127.15a4.6,4.6,0,0,0,2,2.56,4,4,0,0,0,3.11-.11,6.49,6.49,0,0,0,1.84-1A3.28,3.28,0,0,0,75.56,127l3.51,1a6,6,0,0,1-1.67,2.82A10.6,10.6,0,0,1,73.64,133q-3.77,1.35-6.32,0t-4-5.31q-2.93-8.17,4.4-10.8a6.82,6.82,0,0,1,5.62.06A8.08,8.08,0,0,1,77,121.67l.66,1.85ZM73,122.26c-.83-2.31-2.26-3.11-4.28-2.38a3.66,3.66,0,0,0-1.52.93,2.63,2.63,0,0,0-.66,1.38,6.63,6.63,0,0,0,.15,2.33Z"/><path class="cls-2" d="M83.39,129,75.64,107.3,79.39,106l7.75,21.64Z"/><path class="cls-2" d="M91.37,126.09l-7.75-21.64,3.75-1.35,7.75,21.64Z"/><path class="cls-2" d="M98.49,125.85a7,7,0,0,0,2.34-.37,2.4,2.4,0,0,0,1.3-1,5.77,5.77,0,0,0,.57-2.58l.07-1L92.17,108.6l3.9-1.4,7.09,8.45.2-11.06,3.81-1.37-.71,18.64a13,13,0,0,1-.52,3.47,4.81,4.81,0,0,1-1.27,2,7.24,7.24,0,0,1-2.39,1.33,13.28,13.28,0,0,1-3.43.73Z"/><path class="cls-2" d="M71.77,153.67c1.25,3.5,1.45,6.38.6,8.66s-2.69,3.91-5.51,4.92-5.49.93-7.55-.4-3.68-3.66-4.87-7-1.41-6.17-.67-8.49,2.61-4,5.58-5.1,5.52-.94,7.56.39S70.57,150.34,71.77,153.67Zm-4.23,1.52a10.78,10.78,0,0,0-2.88-4.85,3.92,3.92,0,0,0-4-.41,3.92,3.92,0,0,0-2.83,2.86,14.65,14.65,0,0,0,3.75,10.42,3.94,3.94,0,0,0,4,.41,4,4,0,0,0,2.84-2.86A11,11,0,0,0,67.54,155.19Z"/><path class="cls-2" d="M92.08,157.41a5.81,5.81,0,0,1-.24,5.22q-1.35,2.16-5.49,3.64a13.69,13.69,0,0,1-6.44.83v-3.46a12.05,12.05,0,0,0,5.26-.64,6.09,6.09,0,0,0,3-1.83,2.79,2.79,0,0,0,.1-2.58l-.45-1.24a6.8,6.8,0,0,1-3.88,3.3,5.62,5.62,0,0,1-5.11-.43,9.61,9.61,0,0,1-3.67-5.2,11.41,11.41,0,0,1-.74-4.41,6.49,6.49,0,0,1,1.21-3.56,6.33,6.33,0,0,1,3.14-2.24,6.2,6.2,0,0,1,2.6-.33,6.76,6.76,0,0,1,2.5.62l0-1.62,2.87-1ZM84.49,148a5.26,5.26,0,0,0-3.85-.16,3,3,0,0,0-1.86,2.07,5.68,5.68,0,0,0,.24,3.64,6,6,0,0,0,2.06,3.13,2.76,2.76,0,0,0,2.57.33,5.91,5.91,0,0,0,3.07-2.79Z"/><path class="cls-2" d="M96.42,156.19l-7.76-21.64,3.75-1.35,7.76,21.64Z"/><path class="cls-2" d="M105.11,145.58a4.61,4.61,0,0,0,2,2.56,4.07,4.07,0,0,0,3.11-.11,6.63,6.63,0,0,0,1.84-1,3.32,3.32,0,0,0,1.08-1.59l3.5,1a5.9,5.9,0,0,1-1.67,2.82,10.54,10.54,0,0,1-3.75,2.09q-3.77,1.35-6.33,0c-1.7-.87-3-2.64-4-5.31q-2.94-8.17,4.39-10.8a6.82,6.82,0,0,1,5.62.06,8,8,0,0,1,3.63,4.74l.66,1.85Zm5.48-4.89c-.82-2.31-2.25-3.11-4.28-2.38a3.72,3.72,0,0,0-1.52.93,2.78,2.78,0,0,0-.66,1.38,7,7,0,0,0,.16,2.33Z"/><path class="cls-2" d="M131.09,138.86a4.65,4.65,0,0,1,.17,2.86,5.08,5.08,0,0,1-1.58,2.42,9.07,9.07,0,0,1-3,1.71c-3.19,1.14-5.68,1-7.47-.32l2.09-3a3.5,3.5,0,0,0,2,.68,6.1,6.1,0,0,0,2-.37c1.78-.64,2.49-1.48,2.11-2.51a1.22,1.22,0,0,0-1.13-.79,13.33,13.33,0,0,0-2.64.09,9.32,9.32,0,0,1-5-.36,4.5,4.5,0,0,1-2.37-2.73,4.43,4.43,0,0,1,.35-3.88,7.37,7.37,0,0,1,4.09-2.94,9.94,9.94,0,0,1,3.85-.64,5.47,5.47,0,0,1,3.11,1.1l-2.1,3a3.83,3.83,0,0,0-3.82-.37,3.37,3.37,0,0,0-1.61,1,1.25,1.25,0,0,0-.23,1.24,1.13,1.13,0,0,0,.88.75,8,8,0,0,0,2.39,0,17.3,17.3,0,0,1,4.17-.06,4.82,4.82,0,0,1,2.24,1A4.55,4.55,0,0,1,131.09,138.86Z"/><path class="cls-2" d="M147.38,129.2a10.59,10.59,0,0,1,.55,6.56,5.59,5.59,0,0,1-3.75,3.82,7.64,7.64,0,0,1-2.73.38,6.66,6.66,0,0,1-2.67-.56V141l-2.86,1-7.75-21.64,3.75-1.34,2.73,7.61a7.59,7.59,0,0,1,4-3.29,5.33,5.33,0,0,1,5.24.51A11,11,0,0,1,147.38,129.2Zm-3.85,1.44a7.21,7.21,0,0,0-2-3.26,2.75,2.75,0,0,0-2.81-.32,4.57,4.57,0,0,0-1.7,1.09,6.91,6.91,0,0,0-1.26,1.64l2.4,6.67a7.08,7.08,0,0,0,1.86.41,4.42,4.42,0,0,0,1.88-.21,3.05,3.05,0,0,0,2-2.12A6.57,6.57,0,0,0,143.53,130.64Z"/><path class="cls-2" d="M152.6,138.37a7,7,0,0,0,2.34-.37,2.37,2.37,0,0,0,1.3-1,5.77,5.77,0,0,0,.57-2.58l.07-1-10.59-12.23,3.89-1.39,7.09,8.44.21-11.06,3.8-1.36-.71,18.64a13.11,13.11,0,0,1-.52,3.47,4.62,4.62,0,0,1-1.27,2,6.9,6.9,0,0,1-2.39,1.33,12.82,12.82,0,0,1-3.42.74Z"/><path class="cls-3" d="M69.54,206.12l-.31-2.21c.36-.52.73-1.07,1.11-1.66s.77-1.17,1.13-1.75.69-1.14,1-1.67.56-1,.76-1.43c.11-.22.21-.45.32-.71a8.36,8.36,0,0,0,.27-.8,4.45,4.45,0,0,0,.13-.8,1.93,1.93,0,0,0-.1-.73,1.06,1.06,0,0,0-.59-.69,1.42,1.42,0,0,0-1,0,3.29,3.29,0,0,0-.77.4,3.34,3.34,0,0,0-.58.54,3.58,3.58,0,0,0-.41.63,4.82,4.82,0,0,0-.3.66L68,195a7.06,7.06,0,0,1,.55-1.14,5.71,5.71,0,0,1,.77-1,5.58,5.58,0,0,1,1-.81,7.13,7.13,0,0,1,1.33-.63,6.2,6.2,0,0,1,1.56-.36,3.2,3.2,0,0,1,1.3.14,2.6,2.6,0,0,1,1,.69,3.48,3.48,0,0,1,.71,1.25,3.57,3.57,0,0,1,.21,1.09,5.94,5.94,0,0,1-.1,1.18,6.65,6.65,0,0,1-.34,1.19,10,10,0,0,1-.51,1.16q-.28.54-.66,1.17c-.25.42-.52.84-.79,1.26s-.55.83-.83,1.23l-.74,1.07,5.15-1.85.34,2.42Z"/><path class="cls-3" d="M81.14,193.66l.91-.33a3.8,3.8,0,0,0,.81-.4,3.24,3.24,0,0,0,.68-.59,2.13,2.13,0,0,0,.41-.75,1.32,1.32,0,0,0,0-.83,1.47,1.47,0,0,0-.22-.39,1,1,0,0,0-.35-.27,1.28,1.28,0,0,0-.5-.08,2.19,2.19,0,0,0-.64.14,3.41,3.41,0,0,0-1.25.76,3.29,3.29,0,0,0-.76,1.17l-2.11-.92a6.08,6.08,0,0,1,.58-1.07,5.09,5.09,0,0,1,.77-.91,6.16,6.16,0,0,1,1-.75,8,8,0,0,1,1.31-.6,4.34,4.34,0,0,1,2.93-.23,3,3,0,0,1,1.78,2.84,3,3,0,0,1-.24,1.07,4.43,4.43,0,0,1-.68,1.07,6.07,6.07,0,0,1-1.15,1,3,3,0,0,1,.94,0,2.47,2.47,0,0,1,.86.27,2.45,2.45,0,0,1,.71.58,2.83,2.83,0,0,1,.5.87,4.75,4.75,0,0,1,.3,1.85,3.54,3.54,0,0,1-.48,1.66,4.91,4.91,0,0,1-1.33,1.42,8.6,8.6,0,0,1-2.21,1.13,6.55,6.55,0,0,1-1.49.36,4.06,4.06,0,0,1-1.26,0,2.82,2.82,0,0,1-1-.34,2.14,2.14,0,0,1-.71-.62l1.59-2.1a2,2,0,0,0,1,.56,2.56,2.56,0,0,0,1.4-.16,3.36,3.36,0,0,0,1-.55,2.27,2.27,0,0,0,.58-.68,1.65,1.65,0,0,0,.21-.74,2.07,2.07,0,0,0-.11-.71,1.39,1.39,0,0,0-.87-.95,2.51,2.51,0,0,0-1.53.15l-1.06.38Z"/><path class="cls-3" d="M99.55,190.17l.68,5-2.42.87-.67-4.89-4.8-6.77,2.48-.88,3.08,4.69,1.58-6.37,2.7-1Z"/><path class="cls-3" d="M106,188.57a2.59,2.59,0,0,0,.09.42c0,.14.07.25.11.36a1.63,1.63,0,0,0,.83,1,1.89,1.89,0,0,0,1.33-.07,3.43,3.43,0,0,0,2-1.72l1.77,1a6.3,6.3,0,0,1-.49.85,4.42,4.42,0,0,1-.65.73,4.89,4.89,0,0,1-.91.64,7.75,7.75,0,0,1-1.25.56,5.16,5.16,0,0,1-1.81.34,3.2,3.2,0,0,1-1.42-.33,2.91,2.91,0,0,1-1-.87,4.61,4.61,0,0,1-.69-1.3,7.81,7.81,0,0,1-.47-2.4,7.59,7.59,0,0,1,.3-2.49,4.51,4.51,0,0,1,.4-1,4.87,4.87,0,0,1,.65-.88,5.15,5.15,0,0,1,.91-.74,6.16,6.16,0,0,1,1.18-.57,5.73,5.73,0,0,1,1.66-.36,3,3,0,0,1,1.31.22,2.67,2.67,0,0,1,1,.77,4.45,4.45,0,0,1,.69,1.28c0,.13.09.3.14.52s.09.42.12.62l.18,1.24Zm3.52-3c0-.15,0-.29-.08-.42s-.06-.24-.1-.36a1.5,1.5,0,0,0-.68-.89,1.62,1.62,0,0,0-1.23.07,2.28,2.28,0,0,0-.94.57,2.2,2.2,0,0,0-.5.85,3.74,3.74,0,0,0-.16.73,5.14,5.14,0,0,0,0,.78Z"/><path class="cls-3" d="M113.71,186.91a9.14,9.14,0,0,1-.38-1.48,9.49,9.49,0,0,1-.11-1.6,7.85,7.85,0,0,1,.19-1.59,5.53,5.53,0,0,1,.53-1.46,4.38,4.38,0,0,1,.91-1.19,3.83,3.83,0,0,1,1.34-.8,4.09,4.09,0,0,1,1.51-.27,2.82,2.82,0,0,1,1.26.34l-.1-.73,2.18-.78,1.37,9.83-1.84.66-.35-1.15c-.21.37-.42.69-.61,1a5.28,5.28,0,0,1-.59.69,3.64,3.64,0,0,1-.63.5,3.78,3.78,0,0,1-.73.34,3.53,3.53,0,0,1-1.23.24,2.22,2.22,0,0,1-1.08-.27,2.79,2.79,0,0,1-.91-.82A5.22,5.22,0,0,1,113.71,186.91Zm5.53-6a2,2,0,0,0-.44-.19,3,3,0,0,0-.52-.11,2.43,2.43,0,0,0-.54,0,2.07,2.07,0,0,0-.55.11,1.87,1.87,0,0,0-.77.5,2.64,2.64,0,0,0-.5.76,3.93,3.93,0,0,0-.25.94,5.65,5.65,0,0,0-.06,1,6.52,6.52,0,0,0,.11,1,5.9,5.9,0,0,0,.23.88,2.17,2.17,0,0,0,.72,1.12,1,1,0,0,0,1,.07,2.41,2.41,0,0,0,.65-.35,4.63,4.63,0,0,0,.58-.5,6.66,6.66,0,0,0,.49-.59c.15-.2.28-.4.4-.59Z"/><path class="cls-3" d="M129.26,176.9a1.59,1.59,0,0,0-.39,0,2.55,2.55,0,0,0-.55.13,2.89,2.89,0,0,0-1.11.74,7.89,7.89,0,0,0-1,1.35l.88,6.39-2.2.79-1.35-9.84,2.2-.79.2,1.41a7.29,7.29,0,0,1,1-1.59,3.06,3.06,0,0,1,1.2-.85l.34-.1.34-.07.29,0h.23Z"/><path class="cls-3" d="M132.64,180.69a1.84,1.84,0,0,0,.51.33,1.77,1.77,0,0,0,.54.13,2.67,2.67,0,0,0,.56,0,4.6,4.6,0,0,0,.58-.16,2.81,2.81,0,0,0,1.28-.78.89.89,0,0,0,.17-.87,1,1,0,0,0-.18-.31.66.66,0,0,0-.33-.19,2.21,2.21,0,0,0-.59-.08,8.91,8.91,0,0,0-1,0,7,7,0,0,1-1.44,0,2.93,2.93,0,0,1-1-.27,1.92,1.92,0,0,1-.69-.57,3,3,0,0,1-.45-.86,3,3,0,0,1-.17-1.26,3.1,3.1,0,0,1,.4-1.25,3.82,3.82,0,0,1,1-1.11,5.87,5.87,0,0,1,1.64-.87,5.27,5.27,0,0,1,2.18-.36,3.62,3.62,0,0,1,1.87.68l-1.46,1.87a1.78,1.78,0,0,0-.94-.43,2.51,2.51,0,0,0-1.21.16,2.89,2.89,0,0,0-.66.33,2.39,2.39,0,0,0-.39.39.94.94,0,0,0-.16.38.63.63,0,0,0,0,.31,1.2,1.2,0,0,0,.17.32.64.64,0,0,0,.29.21,1.69,1.69,0,0,0,.5.08,5.58,5.58,0,0,0,.78,0,10.94,10.94,0,0,1,1.59,0,3.36,3.36,0,0,1,1.11.26,2,2,0,0,1,.75.55,3.11,3.11,0,0,1,.22,3.53,4.22,4.22,0,0,1-1.07,1.14,6.24,6.24,0,0,1-1.71.89,7.76,7.76,0,0,1-1.38.37,4.29,4.29,0,0,1-1.11.06A2.66,2.66,0,0,1,132,183a3.19,3.19,0,0,1-.8-.49Z"/><path class="cls-3" d="M145.49,178.91l-1.35-9.84,2.2-.79,1.35,9.84Zm-1.78-12.16a2.23,2.23,0,0,1-.09-.45,1.54,1.54,0,0,1,0-.56,1.35,1.35,0,0,1,.31-.54,1.72,1.72,0,0,1,.68-.42,1.34,1.34,0,0,1,.92-.08.76.76,0,0,1,.46.51,1.7,1.7,0,0,1,.1.49,1.4,1.4,0,0,1-.07.57,1.35,1.35,0,0,1-.32.53,1.62,1.62,0,0,1-.66.41,2.23,2.23,0,0,1-.54.12.81.81,0,0,1-.39,0,.71.71,0,0,1-.27-.21A1.29,1.29,0,0,1,143.71,166.75Z"/><path class="cls-3" d="M156,175.16l-.73-5.43c-.05-.33-.1-.64-.15-.9a5,5,0,0,0-.21-.78.84.84,0,0,0-.42-.53.9.9,0,0,0-.64,0,2.37,2.37,0,0,0-.66.36,4.61,4.61,0,0,0-.62.56,7.57,7.57,0,0,0-.55.67c-.17.24-.33.49-.49.73l.91,6.57-2.2.78-1.35-9.83,2.2-.79.17,1.27c.16-.27.33-.55.51-.81a5.62,5.62,0,0,1,.62-.75,5.28,5.28,0,0,1,.72-.61,4.24,4.24,0,0,1,.85-.43,2.9,2.9,0,0,1,1.13-.2,2,2,0,0,1,.87.23,2.07,2.07,0,0,1,.62.56,3.12,3.12,0,0,1,.41.79,5.87,5.87,0,0,1,.23.82,5.3,5.3,0,0,1,.13.69l.85,6.21Z"/><path class="cls-3" d="M165.35,171.79l-1.76-13,7.67-2.75.32,2.33-5.27,1.89.39,2.76,4.44-1.59.32,2.35L167,165.39l.42,3.12,5.26-1.89L173,169Z"/><path class="cls-3" d="M174.35,165.18a8,8,0,0,1-.35-1.32,9.09,9.09,0,0,1-.14-1.37,8.92,8.92,0,0,1,.08-1.37,9.08,9.08,0,0,1,.28-1.3,4.42,4.42,0,0,1,1-1.71A4.24,4.24,0,0,1,177,157a3.7,3.7,0,0,1,1.4-.23,2.78,2.78,0,0,1,1.25.34l-.65-4.87,2.18-.77,1.92,14-2,.72-.14-.95a7.37,7.37,0,0,1-1.13,1.37,4,4,0,0,1-1.33.82,4.11,4.11,0,0,1-1.31.26,2.39,2.39,0,0,1-1.12-.25,2.72,2.72,0,0,1-.92-.82A5.22,5.22,0,0,1,174.35,165.18Zm2.08-4.63a4.23,4.23,0,0,0-.14.77,6.51,6.51,0,0,0,0,.89,5.88,5.88,0,0,0,.1.92,4.72,4.72,0,0,0,.23.88,2,2,0,0,0,.74,1.11,1.28,1.28,0,0,0,1.17,0,2.6,2.6,0,0,0,.55-.28,3.43,3.43,0,0,0,.54-.4,4.45,4.45,0,0,0,.48-.49,4.69,4.69,0,0,0,.4-.54l-.59-4.3a2.53,2.53,0,0,0-.44-.19,3,3,0,0,0-.52-.11,2.43,2.43,0,0,0-.54,0,1.75,1.75,0,0,0-.55.12,2.13,2.13,0,0,0-.81.54A2.39,2.39,0,0,0,176.43,160.55Z"/><path class="cls-3" d="M186.33,154l.73,5.43c.05.33.1.63.15.88a3.72,3.72,0,0,0,.18.65,1.09,1.09,0,0,0,.45.66.89.89,0,0,0,.66,0,2.37,2.37,0,0,0,.66-.36,4.39,4.39,0,0,0,.6-.55,5.17,5.17,0,0,0,.55-.67c.18-.24.34-.49.49-.73l-.9-6.58,2.19-.78,1.35,9.83-2.19.79-.17-1.27c-.16.28-.33.55-.52.82a6.21,6.21,0,0,1-.61.73,4.94,4.94,0,0,1-.69.61,3.56,3.56,0,0,1-.8.41,3.27,3.27,0,0,1-1.18.23,2.05,2.05,0,0,1-.89-.22,2,2,0,0,1-.63-.56,3.12,3.12,0,0,1-.41-.79,6,6,0,0,1-.24-.83q-.09-.42-.12-.69l-.86-6.21Z"/><path class="cls-3" d="M203.12,156.78a4.79,4.79,0,0,1-.52.94,5.1,5.1,0,0,1-.72.82,5.54,5.54,0,0,1-.9.67,5.74,5.74,0,0,1-1,.49,5.42,5.42,0,0,1-1.76.35,2.81,2.81,0,0,1-1.38-.31,3.07,3.07,0,0,1-1.05-1,6.08,6.08,0,0,1-.77-1.53,7.63,7.63,0,0,1-.3-1.19,7.6,7.6,0,0,1,.09-2.94,5.6,5.6,0,0,1,.57-1.47,4.93,4.93,0,0,1,2.71-2.2,7.55,7.55,0,0,1,1.21-.32,4.6,4.6,0,0,1,1,0,3.05,3.05,0,0,1,.91.24,3.86,3.86,0,0,1,.81.5l-1.45,1.83a1.7,1.7,0,0,0-.84-.39,2.45,2.45,0,0,0-1.09.18,2.14,2.14,0,0,0-.84.52,2.58,2.58,0,0,0-.52.79,3.34,3.34,0,0,0-.26.95,6.69,6.69,0,0,0,0,1,5.87,5.87,0,0,0,.12.95,4.83,4.83,0,0,0,.22.8,3.78,3.78,0,0,0,.32.7,1.39,1.39,0,0,0,.44.46,1.2,1.2,0,0,0,.59.17,2.45,2.45,0,0,0,.8-.16,2.82,2.82,0,0,0,1-.63,3.42,3.42,0,0,0,.69-1Z"/><path class="cls-3" d="M204.19,154.49a8.21,8.21,0,0,1-.37-1.48,8.56,8.56,0,0,1-.12-1.6,7.68,7.68,0,0,1,.19-1.59,5.53,5.53,0,0,1,.53-1.46,4.43,4.43,0,0,1,.91-1.19,3.73,3.73,0,0,1,1.35-.8,3.85,3.85,0,0,1,1.5-.27,2.89,2.89,0,0,1,1.27.34l-.11-.73,2.18-.78,1.37,9.83-1.84.66-.35-1.15a9.29,9.29,0,0,1-.61.95,4.72,4.72,0,0,1-.59.7,3.64,3.64,0,0,1-.63.5,4,4,0,0,1-.72.34,3.62,3.62,0,0,1-1.24.24,2.28,2.28,0,0,1-1.08-.27,2.89,2.89,0,0,1-.91-.82A5.37,5.37,0,0,1,204.19,154.49Zm5.53-6.06a2.53,2.53,0,0,0-.44-.18,2.33,2.33,0,0,0-.51-.11,2,2,0,0,0-.55,0,2.15,2.15,0,0,0-.55.11,1.94,1.94,0,0,0-.77.5,2.31,2.31,0,0,0-.49.76,3.52,3.52,0,0,0-.26.94,5.65,5.65,0,0,0-.06,1,6.66,6.66,0,0,0,.11,1,5.9,5.9,0,0,0,.23.88,2.21,2.21,0,0,0,.72,1.12,1.09,1.09,0,0,0,1,.07,2.51,2.51,0,0,0,.64-.35,4,4,0,0,0,.58-.51,5.37,5.37,0,0,0,.49-.58c.15-.21.29-.4.4-.59Z"/><path class="cls-3" d="M220.23,152.13a6.73,6.73,0,0,1-.86.53,8.14,8.14,0,0,1-.9.4,3.73,3.73,0,0,1-1.17.25,2,2,0,0,1-.92-.16,1.75,1.75,0,0,1-.68-.53,2.79,2.79,0,0,1-.45-.84c-.06-.17-.11-.35-.16-.55s-.07-.42-.1-.65l-.65-4.65-1.12.4-.27-1.92,1.13-.4-.36-2.75,2.22-.79.35,2.75,2.09-.75.27,1.92-2.09.75.63,4.63c0,.14.05.28.07.39s.06.23.09.32a.86.86,0,0,0,.41.55.72.72,0,0,0,.54,0c.21-.08.43-.18.67-.3a3.51,3.51,0,0,0,.62-.41Z"/><path class="cls-3" d="M221.61,151.63l-1.35-9.84,2.2-.78,1.35,9.83Zm-1.78-12.15a2.34,2.34,0,0,1-.09-.46,1.49,1.49,0,0,1,0-.55,1.46,1.46,0,0,1,.31-.55,1.72,1.72,0,0,1,.68-.42,1.4,1.4,0,0,1,.92-.08.81.81,0,0,1,.46.51,1.77,1.77,0,0,1,.1.5,1.37,1.37,0,0,1-.07.56,1.28,1.28,0,0,1-.32.53,1.53,1.53,0,0,1-.66.41,2.31,2.31,0,0,1-.54.13,1,1,0,0,1-.39-.05.6.6,0,0,1-.27-.2A1.29,1.29,0,0,1,219.83,139.48Z"/><path class="cls-3" d="M225.42,146.52a7.9,7.9,0,0,1-.29-1.1,8.15,8.15,0,0,1-.09-2.75,5.12,5.12,0,0,1,.41-1.42,4.78,4.78,0,0,1,1.14-1.6,5.81,5.81,0,0,1,2-1.13,4.92,4.92,0,0,1,1.59-.31,3.28,3.28,0,0,1,1.4.28,3.41,3.41,0,0,1,1.15.91,5.23,5.23,0,0,1,.85,1.56,7.92,7.92,0,0,1,.27,1,9.22,9.22,0,0,1,.13,1.33,8.32,8.32,0,0,1-.12,1.47,5.83,5.83,0,0,1-.46,1.45,5,5,0,0,1-.52.88,3.86,3.86,0,0,1-.66.68,5.08,5.08,0,0,1-.84.55,8.24,8.24,0,0,1-1.06.45,5,5,0,0,1-1.75.34,2.91,2.91,0,0,1-1.37-.32,3,3,0,0,1-1-.9A5.75,5.75,0,0,1,225.42,146.52Zm2.34-.8a2.55,2.55,0,0,0,.32.64,1.2,1.2,0,0,0,.43.41,1.21,1.21,0,0,0,.58.14,2.26,2.26,0,0,0,.75-.15,2.2,2.2,0,0,0,.92-.58,2.89,2.89,0,0,0,.55-.89,3.74,3.74,0,0,0,.2-.83,7.25,7.25,0,0,0,.05-.93,6.83,6.83,0,0,0-.09-.92,3.8,3.8,0,0,0-.18-.77,2.23,2.23,0,0,0-.89-1.22,1.55,1.55,0,0,0-1.39,0,2.14,2.14,0,0,0-.89.59,2.73,2.73,0,0,0-.53.92,3.93,3.93,0,0,0-.17.83,5.88,5.88,0,0,0,0,.94,6.27,6.27,0,0,0,.11,1A7.35,7.35,0,0,0,227.76,145.72Z"/><path class="cls-3" d="M242.23,144.24l-.73-5.42c-.05-.34-.1-.64-.15-.91a4.85,4.85,0,0,0-.21-.77.81.81,0,0,0-.42-.53.84.84,0,0,0-.64,0,2.18,2.18,0,0,0-.66.37,4.53,4.53,0,0,0-.62.55,6.27,6.27,0,0,0-.55.68c-.17.24-.33.48-.49.73l.91,6.56-2.2.79-1.35-9.84,2.2-.79.17,1.28c.15-.28.33-.55.51-.82a5.52,5.52,0,0,1,.62-.74,4.65,4.65,0,0,1,.72-.61,3.77,3.77,0,0,1,.85-.43,3.13,3.13,0,0,1,1.13-.21,1.92,1.92,0,0,1,.86.24,1.77,1.77,0,0,1,.63.56,3.23,3.23,0,0,1,.41.78,7.66,7.66,0,0,1,.23.82,4.89,4.89,0,0,1,.12.7l.86,6.21Z"/><path class="cls-2" d="M81.89,232,83,235l4-1.45.44,1.22-4,1.45,1.68,4.68-1.34.49-3.61-10.06,6.09-2.18.44,1.21Z"/><path class="cls-2" d="M96.12,236.9l-.41-1.13a6.28,6.28,0,0,1-.93,1.43,3,3,0,0,1-1.23.88,2.51,2.51,0,0,1-1.34.15,1.69,1.69,0,0,1-1-.61,5.36,5.36,0,0,1-.79-1.53L88.59,231l1.25-.45,1.62,4.5a6.67,6.67,0,0,0,.63,1.41,1,1,0,0,0,.55.4,1.35,1.35,0,0,0,.78-.1,2.44,2.44,0,0,0,1-.76,8.69,8.69,0,0,0,.92-1.33l-1.94-5.39,1.25-.45,2.74,7.63Z"/><path class="cls-2" d="M104.62,233.85l-1.6-4.49a6.67,6.67,0,0,0-.63-1.41,1,1,0,0,0-.55-.4,1.42,1.42,0,0,0-.78.09,2.52,2.52,0,0,0-1,.77,7.6,7.6,0,0,0-.91,1.33l1.93,5.38-1.25.45L97.1,228l1.25-.45.41,1.13a6.53,6.53,0,0,1,.9-1.38,2.94,2.94,0,0,1,1.27-.92,2.08,2.08,0,0,1,1.84,0,3.59,3.59,0,0,1,1.28,1.94l1.82,5.09Z"/><path class="cls-2" d="M110.57,221.75l1.05,2.93,4-1.44.44,1.22-4,1.44,1.68,4.69-1.35.48L108.79,221l6.09-2.18.43,1.21Z"/><path class="cls-2" d="M124.09,226.88l-.34-.95a6.66,6.66,0,0,1-.87,1.26,2.81,2.81,0,0,1-1.21.81,2.28,2.28,0,0,1-1.92-.06,2.64,2.64,0,0,1-1.2-1.49,2.69,2.69,0,0,1-.16-1.42,2.26,2.26,0,0,1,.6-1.14,5.43,5.43,0,0,1,1.54-1l1.82-.84-.13-.37c-.21-.59-.52-.93-.92-1a2.62,2.62,0,0,0-1.47.16,2.4,2.4,0,0,0-1.1.7,2,2,0,0,0-.39.79l-1.25-.25a2.49,2.49,0,0,1,.72-1.36,4.47,4.47,0,0,1,1.66-1,3.88,3.88,0,0,1,2.56-.25,2.73,2.73,0,0,1,1.46,1.81l1.85,5.18ZM122.71,223l-1.18.56a3.87,3.87,0,0,0-1.58,1.11,1.57,1.57,0,0,0,.58,2.13,1.56,1.56,0,0,0,1.13-.07,1.6,1.6,0,0,0,.52-.3,3.92,3.92,0,0,0,.45-.46,5.3,5.3,0,0,0,.39-.54c.12-.2.24-.38.35-.57Z"/><path class="cls-2" d="M133.06,222.34a3.07,3.07,0,0,1-.63,1.36,3.51,3.51,0,0,1-1.6,1,3.31,3.31,0,0,1-2.89-.11,4.86,4.86,0,0,1-1.93-2.7,5,5,0,0,1-.24-3.32,3.21,3.21,0,0,1,2.12-1.92,3,3,0,0,1,3.18.44l-.8,1a2.28,2.28,0,0,0-.91-.45,1.89,1.89,0,0,0-1.1.11,1.75,1.75,0,0,0-1.27,1.35,4.63,4.63,0,0,0,.33,2.37,5.09,5.09,0,0,0,.81,1.58,2,2,0,0,0,1,.68,2.18,2.18,0,0,0,1.29-.11,2,2,0,0,0,.91-.58,2.66,2.66,0,0,0,.47-1Z"/><path class="cls-2" d="M139.05,221.52a5.16,5.16,0,0,1-1.36.74,2.2,2.2,0,0,1-1.89,0,3.2,3.2,0,0,1-1.19-1.74l-1.53-4.27-1.09.39-.37-1,1.09-.39-.77-2.12,1.25-.45.77,2.12,1.93-.69.37,1-1.93.69,1.45,4a3.74,3.74,0,0,0,.65,1.26.86.86,0,0,0,1,.1,2.59,2.59,0,0,0,.95-.57Z"/><path class="cls-2" d="M139.77,213.59a.85.85,0,0,1,0,.72,1.1,1.1,0,0,1-.61.42,1,1,0,0,1-.78,0,1.19,1.19,0,0,1-.42-1.24,1.43,1.43,0,0,1,1.37-.49A1,1,0,0,1,139.77,213.59Zm2.18,6.09a.83.83,0,0,1,0,.71,1.1,1.1,0,0,1-.61.42.94.94,0,0,1-.78,0,1,1,0,0,1-.39-.54.9.9,0,0,1,0-.7.94.94,0,0,1,.6-.43,1,1,0,0,1,.76-.06A.93.93,0,0,1,142,219.68Z"/><path class="cls-2" d="M157.21,215l-1.61.58-4.78-7.37,1,8.73-1.57.57-6-9.21,1.33-.48,4.79,7.45-1-8.8,1.52-.55,4.86,7.49-1-8.86,1.31-.47Z"/><path class="cls-2" d="M165.88,207.63a4.83,4.83,0,0,1,.22,3.3,3.26,3.26,0,0,1-2.13,1.91,3.29,3.29,0,0,1-2.86-.11,6.08,6.08,0,0,1-2.16-6.06,3.33,3.33,0,0,1,2.13-1.89,3.25,3.25,0,0,1,2.86.12A5,5,0,0,1,165.88,207.63Zm-1.3.46a4.14,4.14,0,0,0-1.32-2.08,2.19,2.19,0,0,0-3.1,1.12,4.18,4.18,0,0,0,.3,2.44,4.23,4.23,0,0,0,1.29,2,1.88,1.88,0,0,0,1.83.15,1.86,1.86,0,0,0,1.29-1.26A4.08,4.08,0,0,0,164.58,208.09Z"/><path class="cls-2" d="M171.15,202.81a1.62,1.62,0,0,0-.61.12,2.53,2.53,0,0,0-1,.64,5.31,5.31,0,0,0-.88,1.39l1.89,5.26-1.25.45-2.73-7.62,1.25-.45.44,1.24a9.18,9.18,0,0,1,.77-1.34,2.27,2.27,0,0,1,1.13-.87,1.81,1.81,0,0,1,.81-.12Z"/><path class="cls-2" d="M179.71,207l-3.65-2.55-.49,1.2.9,2.51-1.25.45-3.88-10.82,1.25-.45,2.42,6.76,1.82-4.67,1.53-.55-1.84,4.42,4.74,3.15Z"/><path class="cls-2" d="M182.14,202a3.69,3.69,0,0,0,1.29,2,2.13,2.13,0,0,0,1.88.05,1.9,1.9,0,0,0,.82-.54,2.4,2.4,0,0,0,.49-1l1.26.27a3.21,3.21,0,0,1-.7,1.39,3.73,3.73,0,0,1-1.56,1,3.37,3.37,0,0,1-2.9-.08,4.84,4.84,0,0,1-1.91-2.69,5.16,5.16,0,0,1-.29-3.38,3.19,3.19,0,0,1,2.11-1.88,3,3,0,0,1,2.53.05,4.15,4.15,0,0,1,1.68,2.36l.25.7Zm3.38-2.32a2.89,2.89,0,0,0-1-1.44,1.68,1.68,0,0,0-1.56-.08,1.78,1.78,0,0,0-1.16,1,3.39,3.39,0,0,0,0,1.86Z"/><path class="cls-2" d="M195.2,201.4l-.27-.76a4.12,4.12,0,0,1-.78,1.07,3.35,3.35,0,0,1-1.19.75,2.64,2.64,0,0,1-2.49-.28,5.2,5.2,0,0,1-1.8-2.67,5.27,5.27,0,0,1-.26-3.27,2.8,2.8,0,0,1,1.86-1.92,3.33,3.33,0,0,1,2.42.08l-1.37-3.82,1.26-.45L196.46,201Zm-2.12-5.91a3.29,3.29,0,0,0-2.25-.12,1.79,1.79,0,0,0-1.14,1.22A4,4,0,0,0,190,199c.69,1.92,1.64,2.67,2.85,2.23a2.49,2.49,0,0,0,1-.7,5,5,0,0,0,.7-1Z"/><path class="cls-2" d="M207.28,197.07l-.34-.95a7.74,7.74,0,0,1-.87,1.26,2.7,2.7,0,0,1-1.21.81,2.27,2.27,0,0,1-1.92-.06,2.56,2.56,0,0,1-1.2-1.49,2.68,2.68,0,0,1-.16-1.42,2.26,2.26,0,0,1,.6-1.14,5.49,5.49,0,0,1,1.54-1l1.81-.84-.13-.37a1.43,1.43,0,0,0-.92-1A2.57,2.57,0,0,0,203,191a2.28,2.28,0,0,0-1.09.69,1.74,1.74,0,0,0-.39.8l-1.25-.26a2.37,2.37,0,0,1,.72-1.35,4.35,4.35,0,0,1,1.65-1,4,4,0,0,1,2.57-.25,2.72,2.72,0,0,1,1.45,1.81l1.86,5.18Zm-1.39-3.86-1.18.55a3.83,3.83,0,0,0-1.57,1.11,1.36,1.36,0,0,0-.12,1.28,1.33,1.33,0,0,0,.69.86,1.89,1.89,0,0,0,1.66-.38c.15-.14.3-.29.45-.46a5.3,5.3,0,0,0,.39-.54c.12-.19.23-.38.35-.56Z"/><path class="cls-2" d="M215.41,191.84a2.13,2.13,0,0,1-.15,1.94,3.55,3.55,0,0,1-1.94,1.38,4.08,4.08,0,0,1-1.83.25,2.46,2.46,0,0,1-1.47-.62l.78-1a2.15,2.15,0,0,0,2.18.27,2.24,2.24,0,0,0,1.13-.76,1.12,1.12,0,0,0,.1-1,.9.9,0,0,0-.33-.46,1.28,1.28,0,0,0-.58-.19,9.07,9.07,0,0,0-1.39,0,4.26,4.26,0,0,1-2.22-.17,2.11,2.11,0,0,1-1.09-1.27,2.13,2.13,0,0,1,.15-1.88,3.27,3.27,0,0,1,1.79-1.34,3.59,3.59,0,0,1,1.82-.2,2.77,2.77,0,0,1,1.32.59l-.77,1a2,2,0,0,0-2-.29,2.18,2.18,0,0,0-1,.65,1,1,0,0,0-.12,1,.87.87,0,0,0,.64.61,4.52,4.52,0,0,0,1.34,0,8.22,8.22,0,0,1,2,0,2,2,0,0,1,1,.45A2.29,2.29,0,0,1,215.41,191.84Z"/><path class="cls-2" d="M226,190.38a5.16,5.16,0,0,1-1.36.74,2.2,2.2,0,0,1-1.89,0,3.13,3.13,0,0,1-1.19-1.73L220,185.09l-1.09.39-.37-1,1.09-.39-.76-2.13,1.24-.44.77,2.12,1.93-.69.37,1-1.93.69,1.45,4a3.57,3.57,0,0,0,.66,1.25.84.84,0,0,0,1,.11,2.59,2.59,0,0,0,1-.57Z"/><path class="cls-2" d="M232.25,188.13l-1.61-4.5a6.67,6.67,0,0,0-.63-1.41.94.94,0,0,0-.54-.4,1.42,1.42,0,0,0-.78.09,2.52,2.52,0,0,0-1,.77,7.64,7.64,0,0,0-.92,1.33l1.93,5.38-1.25.45L223.58,179l1.25-.45,1.55,4.33a6.53,6.53,0,0,1,.9-1.38,3,3,0,0,1,1.27-.92,2.11,2.11,0,0,1,1.85.05,3.58,3.58,0,0,1,1.27,1.94l1.83,5.09Z"/><path class="cls-2" d="M235.51,182.82a3.7,3.7,0,0,0,1.28,2,2.09,2.09,0,0,0,1.89.05,2,2,0,0,0,.82-.53,2.7,2.7,0,0,0,.49-1l1.26.27a3.33,3.33,0,0,1-.7,1.39,3.6,3.6,0,0,1-1.57,1,3.32,3.32,0,0,1-2.89-.07,4.87,4.87,0,0,1-1.91-2.69,5.1,5.1,0,0,1-.29-3.38,3.2,3.2,0,0,1,2.11-1.89,3,3,0,0,1,2.53.06,4.15,4.15,0,0,1,1.68,2.36l.25.7Zm3.38-2.31a2.89,2.89,0,0,0-1-1.44,1.65,1.65,0,0,0-1.56-.08,1.78,1.78,0,0,0-1.16,1,3.39,3.39,0,0,0,0,1.86Z"/><path class="cls-2" d="M90.12,259.21l-3.61-10.06,6.15-2.21.44,1.22-4.81,1.72,1,2.94,4.11-1.48.44,1.22L89.78,254,91,257.5l4.81-1.72.44,1.22Z"/><path class="cls-2" d="M102.74,254.68l-.34-1a7.74,7.74,0,0,1-.87,1.26,2.7,2.7,0,0,1-1.21.81,2.27,2.27,0,0,1-1.92-.06,2.64,2.64,0,0,1-1.2-1.49,2.68,2.68,0,0,1-.16-1.42,2.26,2.26,0,0,1,.6-1.14,5.64,5.64,0,0,1,1.54-1l1.82-.84-.14-.37a1.41,1.41,0,0,0-.92-1,2.57,2.57,0,0,0-1.47.17,2.28,2.28,0,0,0-1.09.69,2,2,0,0,0-.39.8l-1.25-.26a2.37,2.37,0,0,1,.72-1.35,4.43,4.43,0,0,1,1.65-1,4,4,0,0,1,2.57-.25,2.75,2.75,0,0,1,1.45,1.81l1.86,5.18Zm-1.39-3.86-1.17.55a3.8,3.8,0,0,0-1.58,1.11,1.36,1.36,0,0,0-.12,1.28,1.33,1.33,0,0,0,.69.86,1.7,1.7,0,0,0,1.14-.07,1.75,1.75,0,0,0,.52-.31,3.92,3.92,0,0,0,.45-.46,5.3,5.3,0,0,0,.39-.54l.35-.56Z"/><path class="cls-2" d="M110.88,249.45a2.16,2.16,0,0,1-.16,1.94,3.53,3.53,0,0,1-1.93,1.38A4.14,4.14,0,0,1,107,253a2.46,2.46,0,0,1-1.47-.62l.79-1a2.13,2.13,0,0,0,2.17.27,2.19,2.19,0,0,0,1.13-.76,1.09,1.09,0,0,0,.1-1,.85.85,0,0,0-.33-.46,1.24,1.24,0,0,0-.57-.19,9.19,9.19,0,0,0-1.4,0,4.26,4.26,0,0,1-2.22-.17,2.06,2.06,0,0,1-1.08-1.27,2.1,2.1,0,0,1,.14-1.88,3.26,3.26,0,0,1,1.8-1.34,3.55,3.55,0,0,1,1.81-.2,2.77,2.77,0,0,1,1.32.59l-.77,1a2,2,0,0,0-2-.29,2.09,2.09,0,0,0-.95.65,1,1,0,0,0-.13,1,.87.87,0,0,0,.65.61,4.45,4.45,0,0,0,1.33,0,8.32,8.32,0,0,1,2,0,1.94,1.94,0,0,1,1,.45A2.39,2.39,0,0,1,110.88,249.45Z"/><path class="cls-2" d="M117.27,249.48a5.32,5.32,0,0,1-1.36.74,2.16,2.16,0,0,1-1.89,0,3.13,3.13,0,0,1-1.19-1.73l-1.53-4.28-1.09.39-.38-1,1.09-.39-.76-2.12,1.25-.45.76,2.12,1.94-.69.37,1-1.93.7,1.44,4a3.64,3.64,0,0,0,.66,1.26.87.87,0,0,0,1,.1,2.59,2.59,0,0,0,.95-.57Z"/><path class="cls-2" d="M118.21,245a3.69,3.69,0,0,0,1.29,2,2.13,2.13,0,0,0,1.88.05,1.9,1.9,0,0,0,.82-.54,2.54,2.54,0,0,0,.49-1l1.26.27a3.33,3.33,0,0,1-.7,1.39,3.73,3.73,0,0,1-1.56,1,3.37,3.37,0,0,1-2.9-.08,4.84,4.84,0,0,1-1.91-2.69,5.16,5.16,0,0,1-.29-3.38,3.19,3.19,0,0,1,2.11-1.88,3,3,0,0,1,2.53,0,4.15,4.15,0,0,1,1.68,2.36l.25.7Zm3.38-2.32a2.89,2.89,0,0,0-1-1.44,1.68,1.68,0,0,0-1.56-.08,1.78,1.78,0,0,0-1.16,1,3.39,3.39,0,0,0,0,1.86Z"/><path class="cls-2" d="M128.3,238.32a1.58,1.58,0,0,0-.61.12,2.49,2.49,0,0,0-1,.64,5.15,5.15,0,0,0-.87,1.38l1.89,5.27-1.25.45-2.74-7.62,1.25-.45.45,1.24a8.31,8.31,0,0,1,.76-1.34,2.34,2.34,0,0,1,1.14-.87,1.77,1.77,0,0,1,.81-.12Z"/><path class="cls-2" d="M142.49,237.11a2.72,2.72,0,0,1-.18,2.6,5,5,0,0,1-2.57,1.71l-3.27,1.18-3.61-10.06,3-1.07a5.35,5.35,0,0,1,2.85-.42,2,2,0,0,1,1.45,1.46,2.26,2.26,0,0,1-.74,2.84,2.86,2.86,0,0,1,1.85.16A2.63,2.63,0,0,1,142.49,237.11Zm-3.62-3.8a1.3,1.3,0,0,0-.87-.92,3.51,3.51,0,0,0-1.82.3l-1.55.55,1.07,3,1.49-.53a3.22,3.22,0,0,0,1.59-1A1.52,1.52,0,0,0,138.87,233.31Zm2.21,4.24a1.83,1.83,0,0,0-.6-.9,1.49,1.49,0,0,0-.94-.25,6.07,6.07,0,0,0-1.7.42l-1.71.61,1.24,3.47,1.37-.49a7.79,7.79,0,0,0,1.79-.84,1.64,1.64,0,0,0,.65-.86A1.92,1.92,0,0,0,141.08,237.55Z"/><path class="cls-2" d="M150.35,237.62l-.4-1.13a6.51,6.51,0,0,1-.93,1.43,3.1,3.1,0,0,1-1.23.87,2.43,2.43,0,0,1-1.34.16,1.71,1.71,0,0,1-1-.62,4.92,4.92,0,0,1-.79-1.52l-1.83-5.1,1.25-.44,1.61,4.5a6.54,6.54,0,0,0,.64,1.41,1,1,0,0,0,.55.4,1.31,1.31,0,0,0,.77-.1,2.4,2.4,0,0,0,1-.76,8,8,0,0,0,.92-1.33L147.62,230l1.25-.45,2.73,7.62Z"/><path class="cls-2" d="M158.86,234.57l-1.61-4.49a6.19,6.19,0,0,0-.63-1.41,1,1,0,0,0-.54-.4,1.42,1.42,0,0,0-.78.09,2.52,2.52,0,0,0-1,.77,7.8,7.8,0,0,0-.92,1.33l1.93,5.38-1.25.45-2.73-7.62,1.25-.45.41,1.13a6.16,6.16,0,0,1,.9-1.38,2.94,2.94,0,0,1,1.27-.92,2.09,2.09,0,0,1,1.84,0,3.55,3.55,0,0,1,1.28,1.94l1.82,5.08Z"/><path class="cls-2" d="M167.31,231.54l-1.61-4.49a7.42,7.42,0,0,0-.62-1.41,1,1,0,0,0-.55-.4,1.42,1.42,0,0,0-.78.09,2.52,2.52,0,0,0-1,.77,7.6,7.6,0,0,0-.91,1.33l1.93,5.38-1.25.45-2.74-7.62,1.25-.45.41,1.13a6.53,6.53,0,0,1,.9-1.38,2.94,2.94,0,0,1,1.27-.92,2.09,2.09,0,0,1,1.84,0,3.55,3.55,0,0,1,1.28,1.94l1.82,5.09Z"/><path class="cls-2" d="M170.61,232.19a2.79,2.79,0,0,0,1.17-.18c.58-.21.89-.92.92-2.12l0-.75-5.37-6.21,1.35-.49,4.1,4.83.12-6.34,1.31-.46-.32,9.37a5,5,0,0,1-.47,2.17,2.37,2.37,0,0,1-1.35,1.06,5.11,5.11,0,0,1-.75.2,5,5,0,0,1-.68.07Z"/><path class="cls-2" d="M180.58,216a.79.79,0,0,1,0,.66,1,1,0,0,1-.57.38.86.86,0,0,1-.7,0,.84.84,0,0,1-.37-.49.82.82,0,0,1,0-.63,1,1,0,0,1,.56-.4,1,1,0,0,1,.69-.05A.78.78,0,0,1,180.58,216Zm2,10.07-2.73-7.62,1.25-.45,2.73,7.63Z"/><path class="cls-2" d="M191.06,223l-1.61-4.49a6.67,6.67,0,0,0-.63-1.41,1,1,0,0,0-.54-.4,1.42,1.42,0,0,0-.78.09,2.52,2.52,0,0,0-1,.77,8.22,8.22,0,0,0-.92,1.33l1.93,5.38-1.25.45-2.73-7.62,1.25-.45.41,1.13a6.16,6.16,0,0,1,.9-1.38,2.94,2.94,0,0,1,1.27-.92,2.09,2.09,0,0,1,1.84.05,3.59,3.59,0,0,1,1.28,1.94l1.82,5.09Z"/><path class="cls-2" d="M203.53,218.57l-1.61-4.49a7.3,7.3,0,0,0-.62-1.42,1.07,1.07,0,0,0-.54-.4,1.37,1.37,0,0,0-.79.1,2.48,2.48,0,0,0-1,.76,8.69,8.69,0,0,0-.92,1.33l1.93,5.38-1.25.45-3.87-10.82,1.25-.45,1.55,4.33a6.39,6.39,0,0,1,.9-1.38,2.94,2.94,0,0,1,1.27-.92,2.12,2.12,0,0,1,1.84.05A3.59,3.59,0,0,1,203,213l1.82,5.09Z"/><path class="cls-2" d="M205.22,207.18a.75.75,0,0,1,0,.66,1,1,0,0,1-.57.38.86.86,0,0,1-.7,0,.84.84,0,0,1-.37-.49.77.77,0,0,1,0-.63.91.91,0,0,1,.55-.4,1,1,0,0,1,.69,0A.78.78,0,0,1,205.22,207.18Zm2,10.07-2.74-7.62,1.25-.45,2.74,7.63Z"/><path class="cls-2" d="M216.92,213.58a3.35,3.35,0,0,1,.06,2.56,3.74,3.74,0,0,1-2.25,1.65,5.26,5.26,0,0,1-3,.28l.11-1.17a4.24,4.24,0,0,0,2.55-.14,2.37,2.37,0,0,0,1.38-1,2.11,2.11,0,0,0-.05-1.65l-.32-.89a4.08,4.08,0,0,1-.78,1.06,3.18,3.18,0,0,1-1.19.75,2.62,2.62,0,0,1-2.49-.23,5.12,5.12,0,0,1-1.77-2.63,4.83,4.83,0,0,1-.22-3.2,2.86,2.86,0,0,1,1.87-1.85,3.33,3.33,0,0,1,2.42.08l-.22-.62,1.25-.45Zm-3.32-5.29a3.29,3.29,0,0,0-2.25-.12,1.72,1.72,0,0,0-1.18,1.26,4,4,0,0,0,.25,2.25,4.14,4.14,0,0,0,1.22,2,1.67,1.67,0,0,0,1.6.18A3.27,3.27,0,0,0,215,212.1Z"/><path class="cls-2" d="M224.24,211.15l-1.61-4.49a6.19,6.19,0,0,0-.63-1.41,1,1,0,0,0-.54-.41,1.38,1.38,0,0,0-.79.1,2.46,2.46,0,0,0-1,.76,8,8,0,0,0-.92,1.33l1.93,5.39-1.25.44L215.57,202l1.25-.44,1.55,4.33a6.85,6.85,0,0,1,.9-1.39,3,3,0,0,1,1.27-.91,2.11,2.11,0,0,1,1.85,0,3.62,3.62,0,0,1,1.27,1.94l1.83,5.09Z"/><path class="cls-2" d="M232.37,205.91a2.15,2.15,0,0,1-.15,2,3.66,3.66,0,0,1-1.94,1.38,4.23,4.23,0,0,1-1.83.25,2.52,2.52,0,0,1-1.47-.62l.78-1a2.12,2.12,0,0,0,2.18.26,2.18,2.18,0,0,0,1.13-.76,1.1,1.1,0,0,0,.1-1,1,1,0,0,0-.33-.47,1.21,1.21,0,0,0-.58-.18,7.89,7.89,0,0,0-1.39,0,4.19,4.19,0,0,1-2.23-.18,2.1,2.1,0,0,1-1.08-1.27,2.13,2.13,0,0,1,.15-1.88,3.22,3.22,0,0,1,1.79-1.33,3.47,3.47,0,0,1,1.81-.21,2.77,2.77,0,0,1,1.33.59l-.78,1a2,2,0,0,0-2-.29,2,2,0,0,0-1,.66,1,1,0,0,0-.12,1,.87.87,0,0,0,.64.62,4.9,4.9,0,0,0,1.34,0,8.39,8.39,0,0,1,2,0,2.07,2.07,0,0,1,1,.46A2.25,2.25,0,0,1,232.37,205.91Z"/><path class="cls-2" d="M240.4,204a3.17,3.17,0,0,1-.62,1.36,3.55,3.55,0,0,1-1.61,1,3.32,3.32,0,0,1-2.89-.11,4.81,4.81,0,0,1-1.92-2.7,4.91,4.91,0,0,1-.24-3.32,3.19,3.19,0,0,1,2.11-1.92,3,3,0,0,1,3.19.43l-.81,1a2.38,2.38,0,0,0-.91-.46,2,2,0,0,0-1.09.12,1.77,1.77,0,0,0-1.28,1.35,4.74,4.74,0,0,0,.33,2.37,5.57,5.57,0,0,0,.81,1.58,1.94,1.94,0,0,0,1,.67,2.09,2.09,0,0,0,1.29-.1,2,2,0,0,0,.91-.58,2.67,2.67,0,0,0,.48-1Z"/><path class="cls-2" d="M247.37,202.86l-1.6-4.49a7.13,7.13,0,0,0-.63-1.42,1.07,1.07,0,0,0-.54-.4,1.37,1.37,0,0,0-.79.1,2.48,2.48,0,0,0-1,.76,8,8,0,0,0-.91,1.33l1.93,5.39-1.25.44-3.88-10.82,1.25-.45,1.55,4.34a6.59,6.59,0,0,1,.9-1.39,2.94,2.94,0,0,1,1.27-.92,2.12,2.12,0,0,1,1.84,0,3.59,3.59,0,0,1,1.28,1.94l1.82,5.09Z"/><path class="cls-2" d="M256,195.49a4.83,4.83,0,0,1,.22,3.3,3.22,3.22,0,0,1-2.12,1.91,3.29,3.29,0,0,1-2.86-.11,4.76,4.76,0,0,1-2-2.7,4.83,4.83,0,0,1-.22-3.36,3.32,3.32,0,0,1,2.14-1.89,3.26,3.26,0,0,1,2.86.12A5,5,0,0,1,256,195.49Zm-1.29.46a4.21,4.21,0,0,0-1.33-2.08,2.17,2.17,0,0,0-3.09,1.12,5.56,5.56,0,0,0,1.58,4.47,2.2,2.2,0,0,0,3.13-1.11A4.17,4.17,0,0,0,254.71,196Z"/><path class="cls-2" d="M264.41,192.47a4.86,4.86,0,0,1,.22,3.31,3.28,3.28,0,0,1-2.13,1.91,3.33,3.33,0,0,1-2.86-.11,6.08,6.08,0,0,1-2.16-6.06,3.31,3.31,0,0,1,2.13-1.9,3.25,3.25,0,0,1,2.86.13A5,5,0,0,1,264.41,192.47Zm-1.3.47a4.14,4.14,0,0,0-1.32-2.08,1.87,1.87,0,0,0-1.79-.15,1.91,1.91,0,0,0-1.31,1.26,4.17,4.17,0,0,0,.3,2.44,4.27,4.27,0,0,0,1.29,2,1.88,1.88,0,0,0,1.83.15,1.85,1.85,0,0,0,1.29-1.27A4.06,4.06,0,0,0,263.11,192.94Z"/><path class="cls-2" d="M267.91,195.5,264,184.68l1.25-.45,3.88,10.82Z"/><path class="cls-2" d="M100.24,275.73a5,5,0,0,1-1.36.74,2.16,2.16,0,0,1-1.89,0,3.2,3.2,0,0,1-1.19-1.74l-1.53-4.27-1.09.39-.38-1,1.09-.39-.76-2.12,1.25-.45.76,2.12,1.94-.69.37,1.05-1.93.69L97,274a3.54,3.54,0,0,0,.66,1.26.86.86,0,0,0,1,.1,2.59,2.59,0,0,0,1-.57Z"/><path class="cls-2" d="M106.54,269.19a4.87,4.87,0,0,1,.23,3.31,3.28,3.28,0,0,1-2.13,1.91,3.33,3.33,0,0,1-2.86-.11,6.13,6.13,0,0,1-2.17-6.06,3.33,3.33,0,0,1,2.14-1.9,3.25,3.25,0,0,1,2.86.13A4.87,4.87,0,0,1,106.54,269.19Zm-1.29.46a4.15,4.15,0,0,0-1.32-2.07,1.9,1.9,0,0,0-1.79-.16,1.94,1.94,0,0,0-1.31,1.27,4.17,4.17,0,0,0,.3,2.44,4.23,4.23,0,0,0,1.28,2,1.87,1.87,0,0,0,1.84.16,1.89,1.89,0,0,0,1.29-1.27A4.1,4.1,0,0,0,105.25,269.65Z"/><path class="cls-2" d="M122.79,267.65l-1.61-4.49a8.13,8.13,0,0,0-.63-1.47.8.8,0,0,0-.48-.39,1.37,1.37,0,0,0-.71.09,1.86,1.86,0,0,0-.76.58,8,8,0,0,0-.88,1.42l1.93,5.39-1.25.44-1.61-4.49a8.53,8.53,0,0,0-.61-1.42,1,1,0,0,0-.49-.43,1.26,1.26,0,0,0-.71.08,2.11,2.11,0,0,0-.84.67,6.66,6.66,0,0,0-.81,1.33l1.93,5.39-1.25.45-2.73-7.63,1.25-.44.4,1.13a6.38,6.38,0,0,1,.77-1.34,2.49,2.49,0,0,1,1.16-.88,2.09,2.09,0,0,1,1.36-.08,2,2,0,0,1,1,.91,8.39,8.39,0,0,1,.83-1.49,2.48,2.48,0,0,1,1.22-.92,2,2,0,0,1,1.23-.11,1.71,1.71,0,0,1,.92.63,5.3,5.3,0,0,1,.77,1.54L124,267.2Z"/><path class="cls-2" d="M130.78,264.79l-.34-1a8.72,8.72,0,0,1-.87,1.26,2.81,2.81,0,0,1-1.21.81,2.27,2.27,0,0,1-1.92-.06,3,3,0,0,1-1.36-2.91,2.26,2.26,0,0,1,.6-1.14,5.43,5.43,0,0,1,1.54-1l1.82-.84-.14-.37a1.41,1.41,0,0,0-.92-1,2.65,2.65,0,0,0-1.47.17,2.41,2.41,0,0,0-1.09.69,2,2,0,0,0-.39.8l-1.25-.26a2.43,2.43,0,0,1,.72-1.35,4.42,4.42,0,0,1,1.65-1,3.91,3.91,0,0,1,2.57-.25,2.72,2.72,0,0,1,1.45,1.81l1.86,5.18Zm-1.39-3.87-1.17.56a3.63,3.63,0,0,0-1.58,1.11,1.34,1.34,0,0,0-.12,1.27,1.3,1.3,0,0,0,.69.86,1.64,1.64,0,0,0,1.14-.07,2,2,0,0,0,.52-.3,3.92,3.92,0,0,0,.45-.46,5.3,5.3,0,0,0,.39-.54l.35-.57Z"/><path class="cls-2" d="M138.93,261.87l-3.64-2.56-.5,1.2.9,2.52-1.25.44-3.87-10.82,1.25-.44,2.42,6.76,1.82-4.68,1.53-.55-1.84,4.43,4.73,3.14Z"/><path class="cls-2" d="M141.36,256.86a3.65,3.65,0,0,0,1.29,2,2.12,2.12,0,0,0,1.89.05,2,2,0,0,0,.82-.53,2.7,2.7,0,0,0,.49-1l1.26.27a3.23,3.23,0,0,1-.7,1.38,3.58,3.58,0,0,1-1.57,1,3.32,3.32,0,0,1-2.89-.08,4.76,4.76,0,0,1-1.91-2.68,5.13,5.13,0,0,1-.29-3.39,3.19,3.19,0,0,1,2.11-1.88,3,3,0,0,1,2.53.06,4.15,4.15,0,0,1,1.68,2.36l.25.7Zm3.39-2.32a2.82,2.82,0,0,0-1-1.43,1.63,1.63,0,0,0-1.55-.08,1.75,1.75,0,0,0-1.16,1,3.21,3.21,0,0,0,0,1.86Z"/><path class="cls-2" d="M157.45,255.23a5.16,5.16,0,0,1-1.36.74,2.14,2.14,0,0,1-1.88,0,3.21,3.21,0,0,1-1.2-1.74L151.48,250l-1.09.39-.37-1.05,1.09-.39-.76-2.12,1.25-.45.76,2.12,1.93-.69.37,1.05-1.93.69,1.45,4a3.54,3.54,0,0,0,.66,1.26.84.84,0,0,0,1,.1,2.72,2.72,0,0,0,1-.57Z"/><path class="cls-2" d="M163.73,253l-1.61-4.49a6.19,6.19,0,0,0-.63-1.41.9.9,0,0,0-.54-.4,1.42,1.42,0,0,0-.78.09,2.52,2.52,0,0,0-1,.77,7.55,7.55,0,0,0-.92,1.32l1.93,5.39-1.25.45-3.88-10.82,1.25-.45,1.55,4.33a6.53,6.53,0,0,1,.9-1.38,2.92,2.92,0,0,1,1.27-.92,2.07,2.07,0,0,1,1.85,0,3.6,3.6,0,0,1,1.28,1.94l1.82,5.08Z"/><path class="cls-2" d="M167,247.68a3.69,3.69,0,0,0,1.29,2,2.1,2.1,0,0,0,1.88,0,2,2,0,0,0,.82-.53,2.55,2.55,0,0,0,.49-1l1.26.27a3.12,3.12,0,0,1-.7,1.38,3.54,3.54,0,0,1-1.56,1,3.34,3.34,0,0,1-2.9-.08,4.81,4.81,0,0,1-1.91-2.68,5.19,5.19,0,0,1-.29-3.39,3.19,3.19,0,0,1,2.11-1.88,3,3,0,0,1,2.53.06,4.15,4.15,0,0,1,1.68,2.36l.25.7Zm3.38-2.32a2.81,2.81,0,0,0-1-1.43,1.68,1.68,0,0,0-1.56-.09,1.82,1.82,0,0,0-1.16,1,3.39,3.39,0,0,0,0,1.86Z"/><path class="cls-2" d="M178.86,243.43a3.74,3.74,0,0,0,1.29,2,2.16,2.16,0,0,0,1.89,0,1.9,1.9,0,0,0,.81-.54,2.55,2.55,0,0,0,.5-1l1.26.27a3.45,3.45,0,0,1-.7,1.39,3.84,3.84,0,0,1-1.57,1,3.35,3.35,0,0,1-2.89-.08,4.78,4.78,0,0,1-1.91-2.69,5.1,5.1,0,0,1-.29-3.38,3.2,3.2,0,0,1,2.11-1.89,3,3,0,0,1,2.53.06,4.24,4.24,0,0,1,1.68,2.36l.25.7Zm3.39-2.32a2.9,2.9,0,0,0-1-1.44,1.68,1.68,0,0,0-1.56-.08,1.76,1.76,0,0,0-1.15,1,3.29,3.29,0,0,0,0,1.86Z"/><path class="cls-2" d="M191.91,242.88l-1.61-4.49a6.42,6.42,0,0,0-.63-1.41,1,1,0,0,0-.54-.4,1.4,1.4,0,0,0-.78.09,2.52,2.52,0,0,0-1,.77,7.64,7.64,0,0,0-.92,1.33l1.93,5.38-1.25.45L184.39,237l1.25-.45.41,1.13a6.11,6.11,0,0,1,.89-1.38,3.07,3.07,0,0,1,1.27-.92,2.1,2.1,0,0,1,1.85,0,3.6,3.6,0,0,1,1.28,1.94l1.82,5.09Z"/><path class="cls-2" d="M199.38,240.21A5.16,5.16,0,0,1,198,241a2.17,2.17,0,0,1-1.88,0,3.14,3.14,0,0,1-1.2-1.73l-1.53-4.28-1.09.39-.37-1,1.09-.39-.76-2.12,1.25-.45.76,2.12,1.93-.69.37,1-1.93.7,1.45,4a3.74,3.74,0,0,0,.66,1.26.86.86,0,0,0,1,.1,2.72,2.72,0,0,0,1-.57Z"/><path class="cls-2" d="M198.89,229.6a.76.76,0,0,1,0,.66,1.11,1.11,0,0,1-.57.38.86.86,0,0,1-.7,0,.85.85,0,0,1-.38-.49.81.81,0,0,1,0-.63.94.94,0,0,1,.56-.4,1,1,0,0,1,.69-.05A.72.72,0,0,1,198.89,229.6Zm2,10.07-2.73-7.62,1.25-.45,2.73,7.63Z"/><path class="cls-2" d="M206.42,230.48a1.62,1.62,0,0,0-.61.12,2.64,2.64,0,0,0-1,.64,5.7,5.7,0,0,0-.87,1.38l1.89,5.27-1.25.45-2.73-7.62,1.25-.45.44,1.23a8.7,8.7,0,0,1,.77-1.33,2.27,2.27,0,0,1,1.13-.87,1.81,1.81,0,0,1,.81-.12Z"/><path class="cls-2" d="M209.64,232.4a3.69,3.69,0,0,0,1.29,2,2.13,2.13,0,0,0,1.88,0,1.9,1.9,0,0,0,.82-.54,2.4,2.4,0,0,0,.49-1l1.26.27a3.16,3.16,0,0,1-.7,1.39,3.73,3.73,0,0,1-1.56,1,3.37,3.37,0,0,1-2.9-.08,4.84,4.84,0,0,1-1.91-2.68,5.19,5.19,0,0,1-.29-3.39,3.19,3.19,0,0,1,2.11-1.88,3,3,0,0,1,2.53.05,4.17,4.17,0,0,1,1.68,2.37l.25.69Zm3.38-2.32a2.89,2.89,0,0,0-1-1.44,1.68,1.68,0,0,0-1.56-.08,1.83,1.83,0,0,0-1.16,1,3.39,3.39,0,0,0,0,1.86Z"/><path class="cls-2" d="M227.09,227a3,3,0,0,1-.11,2.65,4.35,4.35,0,0,1-2.37,1.72,4.61,4.61,0,0,1-2,.26A2.81,2.81,0,0,1,221,231l.86-1.11a2.5,2.5,0,0,0,2.34.3,2.58,2.58,0,0,0,1.49-1.07,2.11,2.11,0,0,0,0-1.71c-.43-1.2-1.41-1.52-2.94-1l-.75.27-.41-1.16.62-.23a2.78,2.78,0,0,0,1.48-1,1.54,1.54,0,0,0,.15-1.48,1.34,1.34,0,0,0-.88-.92,2.33,2.33,0,0,0-1.43.11,2.5,2.5,0,0,0-1.7,1.86l-1.38-.31a3,3,0,0,1,.88-1.65,5.08,5.08,0,0,1,1.87-1.11,4.61,4.61,0,0,1,1.79-.3,2.6,2.6,0,0,1,2.26,3.38,3,3,0,0,1-1.22,1.38,2.5,2.5,0,0,1,1.83.15A2.65,2.65,0,0,1,227.09,227Z"/><path class="cls-2" d="M232.38,221.18a1.58,1.58,0,0,0-.61.12,2.45,2.45,0,0,0-1,.64,5.7,5.7,0,0,0-.87,1.38l1.89,5.27-1.25.45-2.73-7.62,1.25-.45.44,1.23a9,9,0,0,1,.76-1.33,2.34,2.34,0,0,1,1.14-.87,1.65,1.65,0,0,1,.81-.12Z"/><path class="cls-2" d="M240.8,225.36l-.27-.75a4.3,4.3,0,0,1-.78,1.07,3.19,3.19,0,0,1-1.19.74,2.61,2.61,0,0,1-2.49-.27,5.34,5.34,0,0,1-1.8-2.68,5.19,5.19,0,0,1-.25-3.27,2.8,2.8,0,0,1,1.85-1.92,3.38,3.38,0,0,1,2.42.09l-1.37-3.83,1.26-.45,3.88,10.82Zm-2.12-5.9a3.28,3.28,0,0,0-2.25-.12,1.78,1.78,0,0,0-1.14,1.21,4,4,0,0,0,.26,2.43q1,2.88,2.85,2.24a2.52,2.52,0,0,0,1-.71,4.64,4.64,0,0,0,.7-1Z"/><path class="cls-2" d="M254.55,220.25a3.26,3.26,0,0,1,.06,2.56,3.74,3.74,0,0,1-2.25,1.65,5.23,5.23,0,0,1-3,.28l.1-1.17a4.16,4.16,0,0,0,2.55-.15,2.33,2.33,0,0,0,1.38-1,2,2,0,0,0-.05-1.64l-.32-.89a4.21,4.21,0,0,1-.77,1.06,3.22,3.22,0,0,1-1.2.75,2.62,2.62,0,0,1-2.49-.24,5.09,5.09,0,0,1-1.77-2.62,4.9,4.9,0,0,1-.22-3.2,2.86,2.86,0,0,1,1.87-1.85,3.33,3.33,0,0,1,2.42.08l-.22-.63,1.26-.45ZM251.23,215a3.28,3.28,0,0,0-2.25-.12,1.72,1.72,0,0,0-1.18,1.26,5.17,5.17,0,0,0,1.48,4.22,1.62,1.62,0,0,0,1.59.17,3.21,3.21,0,0,0,1.73-1.72Z"/><path class="cls-2" d="M258.91,211.67a1.62,1.62,0,0,0-.61.12,2.64,2.64,0,0,0-1,.64,5.7,5.7,0,0,0-.87,1.38l1.89,5.27-1.25.45-2.73-7.62,1.25-.45.44,1.24a9.14,9.14,0,0,1,.76-1.34,2.34,2.34,0,0,1,1.14-.87,1.81,1.81,0,0,1,.81-.12Z"/><path class="cls-2" d="M267.16,215.92l-.34-.95a7.74,7.74,0,0,1-.87,1.26,2.88,2.88,0,0,1-1.21.81,2.27,2.27,0,0,1-1.92-.06,2.64,2.64,0,0,1-1.2-1.49,2.69,2.69,0,0,1-.16-1.42,2.26,2.26,0,0,1,.6-1.14,5.43,5.43,0,0,1,1.54-1l1.81-.84-.13-.37a1.41,1.41,0,0,0-.92-1,2.64,2.64,0,0,0-1.47.16,2.36,2.36,0,0,0-1.09.7,2,2,0,0,0-.39.79l-1.25-.25a2.42,2.42,0,0,1,.72-1.36,4.42,4.42,0,0,1,1.65-1,4,4,0,0,1,2.57-.25,2.72,2.72,0,0,1,1.45,1.81l1.86,5.18Zm-1.39-3.87-1.18.56a3.83,3.83,0,0,0-1.57,1.11,1.36,1.36,0,0,0-.12,1.28,1.28,1.28,0,0,0,.69.85,1.56,1.56,0,0,0,1.13-.07,1.65,1.65,0,0,0,.53-.3,3.92,3.92,0,0,0,.45-.46,5.3,5.3,0,0,0,.39-.54c.12-.19.24-.38.35-.57Z"/><path class="cls-2" d="M275.63,212.89l-.28-.76a3.71,3.71,0,0,1-.78,1.07,3.15,3.15,0,0,1-1.18.74,2.61,2.61,0,0,1-2.49-.27,6.33,6.33,0,0,1-2.06-5.94,2.79,2.79,0,0,1,1.85-1.92,3.36,3.36,0,0,1,2.43.08l-1.37-3.82,1.26-.45,3.87,10.82ZM273.51,207a3.31,3.31,0,0,0-2.26-.12,1.78,1.78,0,0,0-1.13,1.22,3.87,3.87,0,0,0,.26,2.42c.69,1.93,1.64,2.67,2.85,2.24a2.49,2.49,0,0,0,1-.71,4.59,4.59,0,0,0,.69-1Z"/><path class="cls-2" d="M279,207.56a3.65,3.65,0,0,0,1.29,2,2.07,2.07,0,0,0,1.88.05,1.92,1.92,0,0,0,.82-.53,2.55,2.55,0,0,0,.49-1l1.27.27a3.34,3.34,0,0,1-.7,1.38,3.64,3.64,0,0,1-1.57,1,3.34,3.34,0,0,1-2.9-.08,4.81,4.81,0,0,1-1.91-2.68,5.19,5.19,0,0,1-.29-3.39,3.21,3.21,0,0,1,2.11-1.88,3,3,0,0,1,2.53.06,4.2,4.2,0,0,1,1.69,2.36l.25.7Zm3.38-2.32a2.86,2.86,0,0,0-1-1.43,1.65,1.65,0,0,0-1.56-.08,1.76,1.76,0,0,0-1.15,1,3.29,3.29,0,0,0,0,1.86Z"/><path class="cls-2" d="M107.3,291a2.15,2.15,0,0,1-.15,2,3.59,3.59,0,0,1-1.94,1.37,4.09,4.09,0,0,1-1.83.26,2.52,2.52,0,0,1-1.47-.62l.78-1a2.12,2.12,0,0,0,2.18.26,2.18,2.18,0,0,0,1.13-.76,1.1,1.1,0,0,0,.1-1,1,1,0,0,0-.33-.47,1.21,1.21,0,0,0-.58-.18,7.89,7.89,0,0,0-1.39,0,4.19,4.19,0,0,1-2.23-.18,2.1,2.1,0,0,1-1.08-1.27,2.13,2.13,0,0,1,.15-1.88,3.22,3.22,0,0,1,1.79-1.33,3.47,3.47,0,0,1,1.81-.21,2.77,2.77,0,0,1,1.33.59l-.78,1a2,2,0,0,0-2-.29,2,2,0,0,0-1,.66,1,1,0,0,0-.12,1,.84.84,0,0,0,.64.61,4.46,4.46,0,0,0,1.34,0,8.39,8.39,0,0,1,2,0,2.07,2.07,0,0,1,1,.46A2.25,2.25,0,0,1,107.3,291Z"/><path class="cls-2" d="M118.81,289.23l-1.61-4.49a8.81,8.81,0,0,0-.62-1.47.84.84,0,0,0-.49-.39,1.27,1.27,0,0,0-.71.09,1.84,1.84,0,0,0-.76.58,7.67,7.67,0,0,0-.88,1.42l1.93,5.38-1.25.45-1.61-4.49a8.15,8.15,0,0,0-.61-1.42,1,1,0,0,0-.49-.43,1.17,1.17,0,0,0-.71.08,2.07,2.07,0,0,0-.83.66,6.59,6.59,0,0,0-.82,1.34l1.93,5.39-1.25.44-2.73-7.62,1.25-.45.4,1.14a6.57,6.57,0,0,1,.77-1.34,2.49,2.49,0,0,1,1.16-.88,2.09,2.09,0,0,1,1.36-.08,1.87,1.87,0,0,1,1,.91,8.89,8.89,0,0,1,.84-1.5,2.49,2.49,0,0,1,1.22-.92,2,2,0,0,1,1.22-.1,1.71,1.71,0,0,1,.92.63,5.34,5.34,0,0,1,.78,1.53l1.82,5.09Z"/><path class="cls-2" d="M120.49,277.84a.78.78,0,0,1,0,.67,1.09,1.09,0,0,1-.57.38,1,1,0,0,1-.7,0,.83.83,0,0,1-.37-.49.8.8,0,0,1,0-.64,1.33,1.33,0,0,1,1.25-.45A.77.77,0,0,1,120.49,277.84Zm2,10.08-2.73-7.63,1.25-.44,2.73,7.62Z"/><path class="cls-2" d="M126.25,286.56l-3.88-10.82,1.25-.45,3.88,10.82Z"/><path class="cls-2" d="M129.62,281.22a3.81,3.81,0,0,0,1.29,2,2.12,2.12,0,0,0,1.89.05,2,2,0,0,0,.82-.53,2.7,2.7,0,0,0,.49-1l1.26.27a3.23,3.23,0,0,1-.7,1.38,3.52,3.52,0,0,1-1.57,1,3.32,3.32,0,0,1-2.89-.08,4.76,4.76,0,0,1-1.91-2.68,5.13,5.13,0,0,1-.29-3.39,3.19,3.19,0,0,1,2.11-1.88,3,3,0,0,1,2.53.06,4.15,4.15,0,0,1,1.68,2.36l.25.69ZM133,278.9a3,3,0,0,0-1-1.44,1.71,1.71,0,0,0-1.56-.08,1.82,1.82,0,0,0-1.16,1,3.21,3.21,0,0,0,0,1.86Z"/><path class="cls-2" d="M145.71,279.59a5.16,5.16,0,0,1-1.36.74,2.18,2.18,0,0,1-1.88,0,3.21,3.21,0,0,1-1.2-1.74l-1.53-4.27-1.09.39-.37-1.05,1.09-.39-.76-2.12,1.25-.45.76,2.12,1.93-.69.38,1.05-1.94.69,1.45,4a3.54,3.54,0,0,0,.66,1.26.84.84,0,0,0,1,.1,2.72,2.72,0,0,0,1-.57Z"/><path class="cls-2" d="M152,277.34l-1.61-4.49a6.84,6.84,0,0,0-.62-1.41,1,1,0,0,0-.55-.4,1.25,1.25,0,0,0-.78.09,2.48,2.48,0,0,0-1,.76,8,8,0,0,0-.92,1.33l1.93,5.39-1.25.45-3.88-10.83,1.25-.44,1.56,4.33a6.4,6.4,0,0,1,.89-1.39,3,3,0,0,1,1.27-.91,2.11,2.11,0,0,1,1.85,0,3.68,3.68,0,0,1,1.28,1.95l1.82,5.08Z"/><path class="cls-2" d="M155.25,272a3.69,3.69,0,0,0,1.29,2,2.13,2.13,0,0,0,1.88.05,1.84,1.84,0,0,0,.82-.54,2.4,2.4,0,0,0,.49-1l1.26.27a3.16,3.16,0,0,1-.7,1.39,3.73,3.73,0,0,1-1.56,1,3.34,3.34,0,0,1-2.9-.08,4.84,4.84,0,0,1-1.91-2.68,5.19,5.19,0,0,1-.29-3.39,3.19,3.19,0,0,1,2.11-1.88,3,3,0,0,1,2.53.05,4.17,4.17,0,0,1,1.68,2.37l.25.69Zm3.38-2.32a2.89,2.89,0,0,0-1-1.44,1.71,1.71,0,0,0-1.56-.08,1.82,1.82,0,0,0-1.16,1,3.35,3.35,0,0,0,0,1.85Z"/><path class="cls-2" d="M168.3,271.5,166.69,267a6.58,6.58,0,0,0-.63-1.42,1,1,0,0,0-.55-.4,1.35,1.35,0,0,0-.78.1,2.46,2.46,0,0,0-1,.76,8,8,0,0,0-.92,1.33l1.93,5.38-1.25.45-2.73-7.62,1.25-.45.4,1.14a6.59,6.59,0,0,1,.9-1.39,3,3,0,0,1,1.27-.92,2.14,2.14,0,0,1,1.85,0,3.58,3.58,0,0,1,1.27,1.94l1.83,5.09Z"/><path class="cls-2" d="M175.57,264.76a3.74,3.74,0,0,0,1.29,2,2.16,2.16,0,0,0,1.89,0,2,2,0,0,0,.82-.54,2.54,2.54,0,0,0,.49-1l1.26.27a3.33,3.33,0,0,1-.7,1.39,3.77,3.77,0,0,1-1.57,1,3.35,3.35,0,0,1-2.89-.08,4.79,4.79,0,0,1-1.91-2.69,5.1,5.1,0,0,1-.29-3.38,3.22,3.22,0,0,1,2.11-1.89,3,3,0,0,1,2.53.06,4.15,4.15,0,0,1,1.68,2.36l.25.7Zm3.39-2.32a2.9,2.9,0,0,0-1-1.44,1.66,1.66,0,0,0-1.55-.08,1.75,1.75,0,0,0-1.16,1,3.21,3.21,0,0,0,0,1.86Z"/><path class="cls-2" d="M186.87,264.84l-1.23.44-5.4-6.66,1.34-.49,4.12,5.28-.18-6.69,1.29-.46Z"/><path class="cls-2" d="M190.61,259.37a3.69,3.69,0,0,0,1.29,2,2.13,2.13,0,0,0,1.88.05,1.84,1.84,0,0,0,.82-.54,2.4,2.4,0,0,0,.49-1l1.27.27a3.28,3.28,0,0,1-.71,1.39,3.73,3.73,0,0,1-1.56,1,3.34,3.34,0,0,1-2.9-.08,4.84,4.84,0,0,1-1.91-2.68,5.19,5.19,0,0,1-.29-3.39,3.19,3.19,0,0,1,2.11-1.88,3,3,0,0,1,2.53.05,4.23,4.23,0,0,1,1.69,2.37l.25.69Zm3.38-2.32a2.89,2.89,0,0,0-1-1.44,1.71,1.71,0,0,0-1.56-.08,1.81,1.81,0,0,0-1.15,1,3.29,3.29,0,0,0,0,1.86Z"/><path class="cls-2" d="M203.66,258.83l-1.61-4.49a6.58,6.58,0,0,0-.63-1.42,1,1,0,0,0-.55-.4,1.31,1.31,0,0,0-.77.1,2.48,2.48,0,0,0-1,.76,8,8,0,0,0-.92,1.33l1.93,5.38-1.25.45-2.73-7.62,1.25-.45.4,1.13a6.79,6.79,0,0,1,.9-1.38,3,3,0,0,1,1.27-.92,2.14,2.14,0,0,1,1.85,0,3.58,3.58,0,0,1,1.27,1.94l1.83,5.09Z"/><path class="cls-2" d="M211.13,256.15a5.32,5.32,0,0,1-1.36.74,2.2,2.2,0,0,1-1.89,0,3.2,3.2,0,0,1-1.19-1.74l-1.53-4.27-1.09.39-.38-1,1.09-.39L204,247.7l1.25-.45.76,2.12,1.94-.69.37,1-1.93.69,1.45,4a3.56,3.56,0,0,0,.65,1.26.88.88,0,0,0,1,.1,2.59,2.59,0,0,0,1-.57Z"/><path class="cls-2" d="M217.12,254l-.4-1.13a6.51,6.51,0,0,1-.93,1.43,3.1,3.1,0,0,1-1.23.87,2.43,2.43,0,0,1-1.34.16,1.71,1.71,0,0,1-1-.62,4.92,4.92,0,0,1-.79-1.52l-1.83-5.1,1.25-.44,1.61,4.49a7,7,0,0,0,.64,1.42,1,1,0,0,0,.55.4,1.4,1.4,0,0,0,.77-.1,2.48,2.48,0,0,0,1-.76,8.64,8.64,0,0,0,.91-1.33l-1.93-5.39,1.25-.45,2.73,7.62Z"/><path class="cls-2" d="M225.18,251.12l-.35-1a7.62,7.62,0,0,1-.86,1.27,2.94,2.94,0,0,1-1.21.81,2.24,2.24,0,0,1-1.92-.07,2.58,2.58,0,0,1-1.21-1.49,2.75,2.75,0,0,1-.16-1.41,2.43,2.43,0,0,1,.6-1.14,5.5,5.5,0,0,1,1.55-1l1.81-.84-.13-.37a1.43,1.43,0,0,0-.92-1,2.64,2.64,0,0,0-1.47.17,2.3,2.3,0,0,0-1.09.69,1.94,1.94,0,0,0-.4.8l-1.24-.26a2.48,2.48,0,0,1,.71-1.35,4.34,4.34,0,0,1,1.66-1,3.85,3.85,0,0,1,2.57-.25,2.75,2.75,0,0,1,1.45,1.81l1.86,5.18Zm-1.39-3.87-1.18.55a3.87,3.87,0,0,0-1.58,1.11,1.34,1.34,0,0,0-.11,1.28,1.3,1.3,0,0,0,.69.86,1.61,1.61,0,0,0,1.13-.07,1.63,1.63,0,0,0,.52-.31,3.19,3.19,0,0,0,.45-.45,3.69,3.69,0,0,0,.4-.55c.11-.19.23-.38.35-.56Z"/><path class="cls-2" d="M228.9,249.78,225,239l1.25-.45,3.88,10.83Z"/><path class="cls-2" d="M232.73,248.41l-3.87-10.82,1.25-.45L234,248Z"/><path class="cls-2" d="M236.14,249a2.93,2.93,0,0,0,1.17-.19c.59-.21.9-.92.92-2.12l0-.75-5.36-6.21,1.35-.48,4.1,4.83.11-6.34,1.31-.47-.31,9.37a5.18,5.18,0,0,1-.47,2.17,2.37,2.37,0,0,1-1.35,1.06,5.11,5.11,0,0,1-.75.2,3.9,3.9,0,0,1-.68.07Z"/><path class="cls-2" d="M252.58,241.3l-3.65-2.56-.49,1.2.9,2.52-1.25.45-3.88-10.82,1.25-.45,2.42,6.76,1.82-4.67,1.54-.55-1.85,4.42,4.74,3.14Z"/><path class="cls-2" d="M255,236.29a3.65,3.65,0,0,0,1.29,2,2.07,2.07,0,0,0,1.88.05,1.92,1.92,0,0,0,.82-.53,2.55,2.55,0,0,0,.49-1l1.27.27a3.34,3.34,0,0,1-.71,1.39,3.62,3.62,0,0,1-1.56,1,3.37,3.37,0,0,1-2.9-.07,4.87,4.87,0,0,1-1.91-2.69,5.16,5.16,0,0,1-.29-3.38,3.2,3.2,0,0,1,2.11-1.89,3,3,0,0,1,2.53.06,4.2,4.2,0,0,1,1.69,2.36l.25.7Zm3.38-2.32a2.86,2.86,0,0,0-1-1.43,1.65,1.65,0,0,0-1.56-.08,1.8,1.8,0,0,0-1.16,1,3.39,3.39,0,0,0,0,1.86Z"/><path class="cls-2" d="M268.33,231.29a5.22,5.22,0,0,1,.25,3.28,2.81,2.81,0,0,1-1.85,1.91,3.44,3.44,0,0,1-2.44-.09l1.26,3.5-1.25.45-3.76-10.5,1.25-.44.27.76a4.12,4.12,0,0,1,.78-1.07,3.19,3.19,0,0,1,1.19-.74,2.61,2.61,0,0,1,2.49.27A5.18,5.18,0,0,1,268.33,231.29Zm-1.28.49c-.69-1.92-1.65-2.67-2.86-2.24a2.49,2.49,0,0,0-1,.71,4.64,4.64,0,0,0-.7,1l1.44,4a3.2,3.2,0,0,0,2.26.12,1.76,1.76,0,0,0,1.14-1.21A4,4,0,0,0,267.05,231.78Z"/><path class="cls-2" d="M275.61,233.05a5.32,5.32,0,0,1-1.36.74,2.2,2.2,0,0,1-1.89,0,3.13,3.13,0,0,1-1.19-1.73l-1.53-4.28-1.09.39-.38-1,1.09-.39-.76-2.13,1.25-.44.76,2.12,1.94-.69.37,1-1.93.69,1.44,4a3.75,3.75,0,0,0,.66,1.25.86.86,0,0,0,1,.11,2.59,2.59,0,0,0,1-.57Z"/><path class="cls-2" d="M113,311.45a5.32,5.32,0,0,1-1.36.74,2.2,2.2,0,0,1-1.89,0,3.2,3.2,0,0,1-1.19-1.74l-1.53-4.27-1.09.39-.38-1.05,1.09-.39-.76-2.12,1.25-.45.76,2.12,1.94-.69.37,1-1.93.69,1.44,4a3.54,3.54,0,0,0,.66,1.26.86.86,0,0,0,1,.1,2.59,2.59,0,0,0,1-.57Z"/><path class="cls-2" d="M119.31,309.2l-1.6-4.49a6.69,6.69,0,0,0-.63-1.41,1,1,0,0,0-.54-.4,1.28,1.28,0,0,0-.79.09,2.48,2.48,0,0,0-1,.76,8,8,0,0,0-.91,1.33l1.93,5.39-1.25.45-3.88-10.82,1.25-.45,1.55,4.33a6.85,6.85,0,0,1,.9-1.39,2.92,2.92,0,0,1,1.27-.91,2.09,2.09,0,0,1,1.84,0,3.62,3.62,0,0,1,1.28,1.95l1.82,5.08Z"/><path class="cls-2" d="M122.57,303.9a3.69,3.69,0,0,0,1.29,2,2.16,2.16,0,0,0,1.89.05,1.9,1.9,0,0,0,.82-.54,2.54,2.54,0,0,0,.49-1l1.26.27a3.38,3.38,0,0,1-.7,1.39,3.67,3.67,0,0,1-1.57,1,3.32,3.32,0,0,1-2.89-.08,4.8,4.8,0,0,1-1.91-2.68,5.13,5.13,0,0,1-.29-3.39,3.16,3.16,0,0,1,2.11-1.88,2.91,2.91,0,0,1,2.53.06,4.16,4.16,0,0,1,1.68,2.36l.25.69Zm3.39-2.32a2.9,2.9,0,0,0-1-1.44,1.69,1.69,0,0,0-1.55-.08,1.79,1.79,0,0,0-1.16,1,3.18,3.18,0,0,0,0,1.85Z"/><path class="cls-2" d="M139.61,301.93,138,297.44a8.81,8.81,0,0,0-.62-1.47.84.84,0,0,0-.49-.39,1.19,1.19,0,0,0-.71.09,1.87,1.87,0,0,0-.75.57,8.13,8.13,0,0,0-.89,1.43l1.93,5.38-1.25.45L133.61,299a7.42,7.42,0,0,0-.61-1.42.92.92,0,0,0-.48-.43,1.17,1.17,0,0,0-.71.08,2,2,0,0,0-.84.66,6.32,6.32,0,0,0-.82,1.34l1.93,5.39-1.25.44-2.73-7.62,1.25-.45.41,1.14a6.1,6.1,0,0,1,.76-1.34,2.47,2.47,0,0,1,1.17-.88,2.14,2.14,0,0,1,1.35-.09,2,2,0,0,1,1,.92,7.9,7.9,0,0,1,.83-1.5,2.49,2.49,0,0,1,1.22-.92,2.12,2.12,0,0,1,1.22-.11,1.89,1.89,0,0,1,.93.63,5.59,5.59,0,0,1,.77,1.54l1.82,5.09Z"/><path class="cls-2" d="M146.89,295.19a3.74,3.74,0,0,0,1.29,2,2.13,2.13,0,0,0,1.88,0,1.84,1.84,0,0,0,.82-.54,2.4,2.4,0,0,0,.49-1l1.26.27a3.21,3.21,0,0,1-.7,1.39,3.73,3.73,0,0,1-1.56,1,3.37,3.37,0,0,1-2.9-.08,4.84,4.84,0,0,1-1.91-2.69,5.16,5.16,0,0,1-.29-3.38,3.19,3.19,0,0,1,2.11-1.88,3,3,0,0,1,2.53.05,4.15,4.15,0,0,1,1.68,2.36l.25.7Zm3.38-2.32a2.89,2.89,0,0,0-1-1.44,1.68,1.68,0,0,0-1.56-.08,1.8,1.8,0,0,0-1.16,1,3.39,3.39,0,0,0,0,1.86Z"/><path class="cls-2" d="M159.94,294.64l-1.61-4.49a6.67,6.67,0,0,0-.63-1.41,1,1,0,0,0-.55-.4,1.42,1.42,0,0,0-.78.09,2.5,2.5,0,0,0-1,.77,7.64,7.64,0,0,0-.92,1.33l1.93,5.38-1.25.45-2.73-7.62,1.25-.45.4,1.13A6.53,6.53,0,0,1,155,288a3,3,0,0,1,1.27-.92,2.11,2.11,0,0,1,1.85.05,3.58,3.58,0,0,1,1.27,1.94l1.83,5.09Z"/><path class="cls-2" d="M167.41,292a5.32,5.32,0,0,1-1.36.74,2.2,2.2,0,0,1-1.89,0A3.2,3.2,0,0,1,163,291l-1.53-4.28-1.09.4L160,286l1.09-.39-.76-2.12,1.25-.45.76,2.12,1.94-.69.37,1-1.93.7,1.44,4a3.64,3.64,0,0,0,.66,1.26.87.87,0,0,0,1,.1,2.59,2.59,0,0,0,1-.57Z"/><path class="cls-2" d="M168.35,287.5a3.69,3.69,0,0,0,1.29,2,2.13,2.13,0,0,0,1.88,0,1.9,1.9,0,0,0,.82-.54,2.4,2.4,0,0,0,.49-1l1.26.27a3.21,3.21,0,0,1-.7,1.39,3.73,3.73,0,0,1-1.56,1,3.37,3.37,0,0,1-2.9-.08,4.84,4.84,0,0,1-1.91-2.69,5.16,5.16,0,0,1-.29-3.38,3.19,3.19,0,0,1,2.11-1.88,3,3,0,0,1,2.53.05,4.18,4.18,0,0,1,1.68,2.36l.25.7Zm3.38-2.32a2.89,2.89,0,0,0-1-1.44,1.68,1.68,0,0,0-1.56-.08,1.8,1.8,0,0,0-1.16,1,3.39,3.39,0,0,0,0,1.86Z"/><path class="cls-2" d="M178.44,280.81a1.58,1.58,0,0,0-.61.12,2.49,2.49,0,0,0-1,.64A5.15,5.15,0,0,0,176,283l1.89,5.27-1.25.45-2.73-7.62,1.25-.45.44,1.24a9.14,9.14,0,0,1,.76-1.34,2.34,2.34,0,0,1,1.14-.87,1.77,1.77,0,0,1,.81-.12Z"/><path class="cls-2" d="M186.31,285.2a5.16,5.16,0,0,1-1.36.74,2.2,2.2,0,0,1-1.89,0,3.13,3.13,0,0,1-1.19-1.73l-1.53-4.28-1.09.39-.37-1,1.09-.39-.77-2.13,1.25-.44.77,2.12,1.93-.69.37,1-1.93.69,1.45,4a3.77,3.77,0,0,0,.65,1.25.86.86,0,0,0,1,.11,2.59,2.59,0,0,0,1-.57Z"/><path class="cls-2" d="M192.27,283.06l-.34-.95a8,8,0,0,1-.86,1.26,2.94,2.94,0,0,1-1.21.81,2.27,2.27,0,0,1-1.92-.06,3,3,0,0,1-1.37-2.91,2.34,2.34,0,0,1,.6-1.14,5.5,5.5,0,0,1,1.55-1l1.81-.84-.13-.37a1.43,1.43,0,0,0-.92-1A2.64,2.64,0,0,0,188,277a2.3,2.3,0,0,0-1.09.69,1.94,1.94,0,0,0-.4.8l-1.24-.26a2.48,2.48,0,0,1,.71-1.35,4.47,4.47,0,0,1,1.66-1,3.91,3.91,0,0,1,2.57-.25,2.75,2.75,0,0,1,1.45,1.81l1.85,5.18Zm-1.38-3.87-1.18.56a3.7,3.7,0,0,0-1.58,1.11,1.32,1.32,0,0,0-.11,1.27,1.3,1.3,0,0,0,.69.86,1.62,1.62,0,0,0,1.13-.07,1.81,1.81,0,0,0,.52-.3,3.92,3.92,0,0,0,.45-.46,5.39,5.39,0,0,0,.4-.54c.11-.2.23-.39.35-.57Z"/><path class="cls-2" d="M194,271.67a.8.8,0,0,1,0,.66,1.11,1.11,0,0,1-.57.38.71.71,0,0,1-1.08-.46.81.81,0,0,1,0-.63,1,1,0,0,1,.55-.4,1,1,0,0,1,.7-.05A.8.8,0,0,1,194,271.67Zm2,10.07-2.73-7.62,1.25-.45,2.73,7.63Z"/><path class="cls-2" d="M204.45,278.7l-1.61-4.5a6.67,6.67,0,0,0-.63-1.41,1,1,0,0,0-.55-.4,1.35,1.35,0,0,0-.78.1,2.53,2.53,0,0,0-1,.76,8,8,0,0,0-.92,1.33l1.93,5.38-1.25.45-2.73-7.62,1.25-.45.4,1.13a6.53,6.53,0,0,1,.9-1.38,3,3,0,0,1,1.27-.92,2.11,2.11,0,0,1,1.85.05,3.58,3.58,0,0,1,1.27,1.94l1.83,5.09Z"/><path class="cls-2" d="M207.71,273.4a3.79,3.79,0,0,0,1.28,2,2.16,2.16,0,0,0,1.89.05,2,2,0,0,0,.82-.54,2.54,2.54,0,0,0,.49-1l1.26.27a3.33,3.33,0,0,1-.7,1.39,3.71,3.71,0,0,1-1.57,1,3.35,3.35,0,0,1-2.89-.08,4.83,4.83,0,0,1-1.91-2.69,5.1,5.1,0,0,1-.29-3.38,3.2,3.2,0,0,1,2.11-1.89,3,3,0,0,1,2.53.06,4.15,4.15,0,0,1,1.68,2.36l.25.7Zm3.38-2.32a3,3,0,0,0-1-1.44,1.65,1.65,0,0,0-1.56-.08,1.78,1.78,0,0,0-1.16,1,3.3,3.3,0,0,0,0,1.86Z"/><path class="cls-2" d="M220.77,272.85l-.27-.76a4.12,4.12,0,0,1-.78,1.07,3.19,3.19,0,0,1-1.19.74,2.61,2.61,0,0,1-2.49-.27,5.2,5.2,0,0,1-1.8-2.67,5.27,5.27,0,0,1-.26-3.27,2.8,2.8,0,0,1,1.86-1.92,3.33,3.33,0,0,1,2.42.08L216.89,262l1.26-.45L222,272.4Zm-2.12-5.91a3.29,3.29,0,0,0-2.25-.12,1.77,1.77,0,0,0-1.14,1.22,3.94,3.94,0,0,0,.26,2.42c.69,1.93,1.64,2.67,2.85,2.24a2.42,2.42,0,0,0,1-.71,4.76,4.76,0,0,0,.7-1Z"/><path class="cls-2" d="M232.85,268.52l-.34-.95a7.74,7.74,0,0,1-.87,1.26,2.94,2.94,0,0,1-1.21.81,2.27,2.27,0,0,1-1.92-.06,2.61,2.61,0,0,1-1.21-1.49,2.8,2.8,0,0,1-.16-1.42,2.36,2.36,0,0,1,.61-1.14,5.28,5.28,0,0,1,1.54-1l1.81-.84-.13-.37c-.21-.59-.52-.93-.92-1a2.64,2.64,0,0,0-1.47.16,2.36,2.36,0,0,0-1.09.7,1.76,1.76,0,0,0-.39.79l-1.25-.25a2.47,2.47,0,0,1,.71-1.36,4.47,4.47,0,0,1,1.66-1,4,4,0,0,1,2.57-.25,2.72,2.72,0,0,1,1.45,1.81l1.86,5.18Zm-1.39-3.87-1.18.56a3.87,3.87,0,0,0-1.58,1.11,1.32,1.32,0,0,0-.11,1.27,1.28,1.28,0,0,0,.69.86,1.56,1.56,0,0,0,1.13-.07,1.6,1.6,0,0,0,.52-.3,3.92,3.92,0,0,0,.45-.46,4.19,4.19,0,0,0,.4-.54l.35-.57Z"/><path class="cls-2" d="M241,263.28a2.15,2.15,0,0,1-.15,2,3.6,3.6,0,0,1-1.94,1.38,4.23,4.23,0,0,1-1.83.25,2.52,2.52,0,0,1-1.47-.62l.78-1a2.57,2.57,0,0,0,3.31-.5,1.1,1.1,0,0,0,.1-1,.92.92,0,0,0-.33-.46,1.21,1.21,0,0,0-.58-.19,9.06,9.06,0,0,0-1.39,0,4.19,4.19,0,0,1-2.23-.18,2.1,2.1,0,0,1-1.08-1.27,2.13,2.13,0,0,1,.15-1.88,3.22,3.22,0,0,1,1.79-1.33,3.47,3.47,0,0,1,1.81-.21,2.77,2.77,0,0,1,1.33.6l-.78,1a2.24,2.24,0,0,0-3,.37,1,1,0,0,0-.12,1,.87.87,0,0,0,.64.62,4.9,4.9,0,0,0,1.34,0,7.76,7.76,0,0,1,2,0,2,2,0,0,1,1,.45A2.31,2.31,0,0,1,241,263.28Z"/><path class="cls-2" d="M251.54,261.82a5,5,0,0,1-1.36.74,2.16,2.16,0,0,1-1.89,0,3.2,3.2,0,0,1-1.19-1.74l-1.53-4.27-1.09.39-.38-1.05,1.09-.39-.76-2.12,1.25-.45.76,2.13,1.94-.7.37,1.05-1.93.69,1.44,4a3.57,3.57,0,0,0,.66,1.25.87.87,0,0,0,1,.11,2.76,2.76,0,0,0,1-.58Z"/><path class="cls-2" d="M257.82,259.57l-1.61-4.49a6.42,6.42,0,0,0-.63-1.41,1,1,0,0,0-.54-.4,1.45,1.45,0,0,0-.79.09,2.52,2.52,0,0,0-1,.77,7.77,7.77,0,0,0-.91,1.33l1.93,5.38-1.25.45-3.88-10.82,1.25-.45,1.55,4.33a6.53,6.53,0,0,1,.9-1.38,2.94,2.94,0,0,1,1.27-.92,2.11,2.11,0,0,1,1.85,0,3.54,3.54,0,0,1,1.27,1.94l1.83,5.09Z"/><path class="cls-2" d="M261.07,254.27a3.71,3.71,0,0,0,1.29,2,2.12,2.12,0,0,0,1.89.05,2,2,0,0,0,.82-.53,2.7,2.7,0,0,0,.49-1l1.26.27a3.23,3.23,0,0,1-.7,1.38,3.58,3.58,0,0,1-1.57,1,3.32,3.32,0,0,1-2.89-.08,4.76,4.76,0,0,1-1.91-2.68,5.13,5.13,0,0,1-.29-3.39,3.21,3.21,0,0,1,2.11-1.88,3,3,0,0,1,2.53.06,4.15,4.15,0,0,1,1.68,2.36l.25.7Zm3.39-2.32a2.82,2.82,0,0,0-1-1.43,1.63,1.63,0,0,0-1.55-.08,1.75,1.75,0,0,0-1.16,1,3.21,3.21,0,0,0,0,1.86Z"/><path class="cls-2" d="M267.36,245.37a.75.75,0,0,1,0,.66,1,1,0,0,1-.57.38.7.7,0,0,1-1.07-.45.84.84,0,0,1,0-.64,1,1,0,0,1,.56-.4,1,1,0,0,1,.69,0A.81.81,0,0,1,267.36,245.37Zm2,10.08-2.73-7.63,1.25-.45,2.73,7.63Z"/><path class="cls-2" d="M274.89,246.25a1.66,1.66,0,0,0-.62.12,2.53,2.53,0,0,0-1,.64,5.07,5.07,0,0,0-.87,1.39l1.88,5.26-1.25.45-2.73-7.62,1.25-.45.45,1.24a8.31,8.31,0,0,1,.76-1.34,2.32,2.32,0,0,1,1.13-.87,1.83,1.83,0,0,1,.82-.12Z"/><path class="cls-2" d="M115.83,319.67a2.89,2.89,0,0,0-.59,0,2.41,2.41,0,0,0-.61.13,1.11,1.11,0,0,0-.76.63,2.34,2.34,0,0,0,.21,1.36l.26.74,1.69-.6.38,1-1.69.61,2.35,6.58-1.25.44L113.47,324l-1.12.4-.38-1.05,1.12-.4-.26-.74a3.46,3.46,0,0,1-.21-2.22,2.33,2.33,0,0,1,1.59-1.3,3.92,3.92,0,0,1,1.58-.25Z"/><path class="cls-2" d="M124.56,327.47l-.34-1a7.74,7.74,0,0,1-.87,1.26,2.7,2.7,0,0,1-1.21.81,2.27,2.27,0,0,1-1.92-.06A2.56,2.56,0,0,1,119,327a2.65,2.65,0,0,1-.16-1.41,2.29,2.29,0,0,1,.6-1.15,5.49,5.49,0,0,1,1.54-1l1.81-.84-.13-.37a1.43,1.43,0,0,0-.92-1,2.57,2.57,0,0,0-1.47.17,2.28,2.28,0,0,0-1.09.69,1.79,1.79,0,0,0-.39.8l-1.25-.26a2.37,2.37,0,0,1,.72-1.35,4.35,4.35,0,0,1,1.65-1,3.9,3.9,0,0,1,2.57-.24,2.7,2.7,0,0,1,1.45,1.8l1.86,5.19Zm-1.39-3.86-1.18.55a3.83,3.83,0,0,0-1.57,1.11,1.36,1.36,0,0,0-.12,1.28,1.33,1.33,0,0,0,.69.86,1.89,1.89,0,0,0,1.66-.38,4.93,4.93,0,0,0,.45-.46,3.74,3.74,0,0,0,.39-.54c.12-.19.23-.38.35-.56Z"/><path class="cls-2" d="M131,325.15l-1.23.45-5.4-6.67,1.34-.48,4.13,5.28-.19-6.69,1.3-.47Z"/><path class="cls-2" d="M140.14,317.61a4.86,4.86,0,0,1,.22,3.31,3.26,3.26,0,0,1-2.12,1.91,3.32,3.32,0,0,1-2.86-.11,6.08,6.08,0,0,1-2.17-6.06,3.31,3.31,0,0,1,2.14-1.9,3.23,3.23,0,0,1,2.85.13A4.93,4.93,0,0,1,140.14,317.61Zm-1.3.46a4.15,4.15,0,0,0-1.32-2.07,1.89,1.89,0,0,0-1.79-.16,1.94,1.94,0,0,0-1.31,1.27,4.17,4.17,0,0,0,.3,2.44,4.23,4.23,0,0,0,1.29,2,2.17,2.17,0,0,0,3.12-1.11A4.1,4.1,0,0,0,138.84,318.07Z"/><path class="cls-2" d="M145.41,312.79a1.62,1.62,0,0,0-.61.12,2.55,2.55,0,0,0-1,.65,5,5,0,0,0-.87,1.38l1.88,5.27-1.25.45L140.85,313l1.25-.44.44,1.23a9.06,9.06,0,0,1,.77-1.33,2.28,2.28,0,0,1,1.13-.88,1.65,1.65,0,0,1,.81-.11Z"/><path class="cls-2" d="M147.5,308.47a.75.75,0,0,1,0,.66,1,1,0,0,1-.56.38.71.71,0,0,1-1.08-.46.77.77,0,0,1,0-.63,1,1,0,0,1,.55-.4,1,1,0,0,1,.7,0A.8.8,0,0,1,147.5,308.47Zm2,10.07-2.73-7.62,1.24-.45,2.74,7.63Z"/><path class="cls-2" d="M157,315.85a5.49,5.49,0,0,1-1.36.74,2.16,2.16,0,0,1-1.89,0,3.13,3.13,0,0,1-1.19-1.73L151,310.56,150,311l-.38-1,1.09-.39-.76-2.12,1.25-.45.76,2.12,1.93-.69.38,1-1.93.7,1.44,4a3.64,3.64,0,0,0,.66,1.26.87.87,0,0,0,1,.1,2.68,2.68,0,0,0,.95-.57Z"/><path class="cls-2" d="M158,311.38a3.75,3.75,0,0,0,1.28,2,2.16,2.16,0,0,0,1.89,0,1.9,1.9,0,0,0,.82-.54,2.54,2.54,0,0,0,.49-1l1.26.27a3.33,3.33,0,0,1-.7,1.39,3.71,3.71,0,0,1-1.57,1,3.35,3.35,0,0,1-2.89-.08,4.79,4.79,0,0,1-1.91-2.69,5.1,5.1,0,0,1-.29-3.38,3.19,3.19,0,0,1,2.11-1.88,3,3,0,0,1,2.53.05,4.15,4.15,0,0,1,1.68,2.36l.25.7Zm3.38-2.32a3,3,0,0,0-1-1.44,1.68,1.68,0,0,0-1.56-.08,1.78,1.78,0,0,0-1.16,1,3.3,3.3,0,0,0,0,1.86Z"/><path class="cls-2" d="M168.25,301a.75.75,0,0,1,0,.66,1,1,0,0,1-.57.38.86.86,0,0,1-.7,0,.84.84,0,0,1-.37-.49.77.77,0,0,1,0-.63.91.91,0,0,1,.55-.4,1,1,0,0,1,.69-.06A.81.81,0,0,1,168.25,301Zm2,10.07-2.73-7.62,1.25-.45,2.73,7.62Z"/><path class="cls-2" d="M178.73,308.06l-1.61-4.49a6.19,6.19,0,0,0-.63-1.41.93.93,0,0,0-.54-.4,1.42,1.42,0,0,0-.78.09,2.52,2.52,0,0,0-1,.77,8.13,8.13,0,0,0-.92,1.32l1.93,5.39-1.25.45-2.73-7.63,1.25-.44.41,1.13a6.53,6.53,0,0,1,.9-1.38,2.87,2.87,0,0,1,1.27-.92,2.05,2.05,0,0,1,1.84,0,3.55,3.55,0,0,1,1.28,1.94l1.82,5.08Z"/><path class="cls-2" d="M186.87,302.83a2.16,2.16,0,0,1-.16,1.94,3.49,3.49,0,0,1-1.93,1.38,4.12,4.12,0,0,1-1.84.25,2.41,2.41,0,0,1-1.46-.62l.78-1a2.52,2.52,0,0,0,3.3-.5,1.07,1.07,0,0,0,.11-1,.92.92,0,0,0-.33-.46,1.32,1.32,0,0,0-.58-.19,9.06,9.06,0,0,0-1.39,0,4.3,4.3,0,0,1-2.23-.17,2.32,2.32,0,0,1-.93-3.15A3.2,3.2,0,0,1,182,298a3.56,3.56,0,0,1,1.81-.2,2.68,2.68,0,0,1,1.33.59l-.78,1a2,2,0,0,0-2-.29,2.07,2.07,0,0,0-1,.65,1,1,0,0,0-.13,1,.89.89,0,0,0,.65.61,4.89,4.89,0,0,0,1.34,0,8.24,8.24,0,0,1,2,0,2,2,0,0,1,1,.45A2.38,2.38,0,0,1,186.87,302.83Z"/><path class="cls-2" d="M193.26,302.86a5.16,5.16,0,0,1-1.36.74,2.17,2.17,0,0,1-1.88,0,3.14,3.14,0,0,1-1.2-1.73l-1.53-4.28-1.09.39-.37-1,1.09-.39-.76-2.12,1.25-.45.76,2.12,1.93-.69.37,1-1.93.7,1.45,4a3.74,3.74,0,0,0,.66,1.26.86.86,0,0,0,1,.1,2.72,2.72,0,0,0,1-.57Z"/><path class="cls-2" d="M196.58,294.46a1.62,1.62,0,0,0-.61.12,2.64,2.64,0,0,0-1,.64,5.6,5.6,0,0,0-.87,1.39l1.89,5.26-1.25.45L192,294.7l1.25-.45.44,1.24a9.14,9.14,0,0,1,.76-1.34,2.34,2.34,0,0,1,1.14-.87,1.79,1.79,0,0,1,.81-.12Z"/><path class="cls-2" d="M205.37,298.52l-.4-1.14a6.07,6.07,0,0,1-.93,1.43,3,3,0,0,1-1.23.88,2.63,2.63,0,0,1-1.34.16,1.76,1.76,0,0,1-1-.62,5,5,0,0,1-.79-1.53l-1.83-5.09,1.25-.45,1.62,4.5a6.19,6.19,0,0,0,.63,1.41,1,1,0,0,0,.55.4,1.42,1.42,0,0,0,.78-.09,2.57,2.57,0,0,0,1-.77,9.05,9.05,0,0,0,.91-1.32l-1.93-5.4,1.25-.45,2.73,7.63Z"/><path class="cls-2" d="M214.4,294a3,3,0,0,1-.63,1.36,3.41,3.41,0,0,1-1.6,1,3.28,3.28,0,0,1-2.89-.1,4.9,4.9,0,0,1-1.93-2.7,5,5,0,0,1-.24-3.32,3.21,3.21,0,0,1,2.12-1.92,3,3,0,0,1,3.18.43l-.8,1a2.5,2.5,0,0,0-.91-.45,2.07,2.07,0,0,0-1.1.11,1.78,1.78,0,0,0-1.27,1.36,4.67,4.67,0,0,0,.32,2.36,5.38,5.38,0,0,0,.82,1.59,2,2,0,0,0,1,.67,2.14,2.14,0,0,0,1.28-.1,2,2,0,0,0,.92-.59,2.53,2.53,0,0,0,.47-1Z"/><path class="cls-2" d="M220.39,293.14a5.32,5.32,0,0,1-1.36.74,2.2,2.2,0,0,1-1.89,0,3.13,3.13,0,0,1-1.19-1.73l-1.53-4.28-1.09.39-.38-1,1.09-.39-.76-2.13,1.25-.44.76,2.12,1.94-.69.37,1-1.93.7,1.44,4a3.93,3.93,0,0,0,.66,1.26.88.88,0,0,0,1,.1,2.59,2.59,0,0,0,.95-.57Z"/><path class="cls-2" d="M226.7,286.6a4.89,4.89,0,0,1,.22,3.3,3.26,3.26,0,0,1-2.13,1.91,3.29,3.29,0,0,1-2.86-.11A4.75,4.75,0,0,1,220,289a4.83,4.83,0,0,1-.22-3.36,3.3,3.3,0,0,1,2.13-1.89,3.25,3.25,0,0,1,2.86.12A5,5,0,0,1,226.7,286.6Zm-1.3.46a4.14,4.14,0,0,0-1.32-2.08,2.19,2.19,0,0,0-3.1,1.12,4.18,4.18,0,0,0,.3,2.44,4.23,4.23,0,0,0,1.28,2,2.2,2.2,0,0,0,3.13-1.11A4.08,4.08,0,0,0,225.4,287.06Z"/><path class="cls-2" d="M232,281.78a1.62,1.62,0,0,0-.61.12,2.64,2.64,0,0,0-1,.64,5.7,5.7,0,0,0-.87,1.38l1.89,5.27-1.25.45L227.41,282l1.25-.45.44,1.24a9.14,9.14,0,0,1,.76-1.34,2.34,2.34,0,0,1,1.14-.87,1.81,1.81,0,0,1,.81-.12Z"/><path class="cls-2" d="M235.51,286.91a.85.85,0,0,1,0,.72,1.1,1.1,0,0,1-.61.42.94.94,0,0,1-.77,0,1,1,0,0,1-.4-.53.9.9,0,0,1,0-.7,1,1,0,0,1,.6-.44,1.08,1.08,0,0,1,.76-.05A.87.87,0,0,1,235.51,286.91Z"/><path class="cls-2" d="M173.87,88a2,2,0,0,1,1.4-.63,2.18,2.18,0,0,1,1.38.84l.59.65,1.4-1.28.51.56L175,91.94l-1.12-1.23a2.22,2.22,0,0,1-.7-1.42A1.76,1.76,0,0,1,173.87,88Zm.54.57a1.13,1.13,0,0,0-.44.8,1.47,1.47,0,0,0,.47.92l.56.61,1.73-1.58-.48-.54a2.6,2.6,0,0,0-.67-.56.73.73,0,0,0-.54,0A1.59,1.59,0,0,0,174.41,88.6Z"/><path class="cls-2" d="M174.88,82.81l-.44.29a4.35,4.35,0,0,1,.75.28,1.49,1.49,0,0,1,.57.52,1.13,1.13,0,0,1,.21,1,1.34,1.34,0,0,1-.6.8,1.32,1.32,0,0,1-.7.26,1.14,1.14,0,0,1-.66-.16,2.69,2.69,0,0,1-.73-.65l-.65-.81-.18.11a.74.74,0,0,0-.4.6,1.35,1.35,0,0,0,.27.73,1.24,1.24,0,0,0,.5.46.9.9,0,0,0,.45.1l0,.67a1.3,1.3,0,0,1-.78-.19,2.32,2.32,0,0,1-.71-.72,2,2,0,0,1-.45-1.28,1.46,1.46,0,0,1,.73-1l2.4-1.6ZM173.09,84l.43.53a2,2,0,0,0,.77.67.7.7,0,0,0,.66-.11.65.65,0,0,0,.35-.46.86.86,0,0,0-.18-.57.92.92,0,0,0-.22-.22,1.69,1.69,0,0,0-.29-.17,1.64,1.64,0,0,0-.33-.14l-.33-.1Z"/><path class="cls-2" d="M170.44,78.9a2.73,2.73,0,0,1,1.7-.3,1.46,1.46,0,0,1,1.09.87,1.75,1.75,0,0,1,.08,1.28l1.76-.83.3.63L170.08,83l-.3-.63.38-.18a2.18,2.18,0,0,1-.59-.36,1.62,1.62,0,0,1-.45-.58,1.35,1.35,0,0,1,0-1.31A2.68,2.68,0,0,1,170.44,78.9Zm.32.64c-1,.46-1.31,1-1,1.61a1.26,1.26,0,0,0,.42.5,2,2,0,0,0,.57.31l2-.95a1.71,1.71,0,0,0,0-1.19,1,1,0,0,0-.69-.53A2.06,2.06,0,0,0,170.76,79.54Z"/><path class="cls-2" d="M170,77.17a2,2,0,0,0,1.07-.62,1.11,1.11,0,0,0,.08-1,1,1,0,0,0-.26-.45,1.4,1.4,0,0,0-.49-.28l.18-.65a1.71,1.71,0,0,1,.71.4,2.06,2.06,0,0,1,.46.85,1.75,1.75,0,0,1-.12,1.51,2.51,2.51,0,0,1-1.47.93,2.74,2.74,0,0,1-1.78.06,1.7,1.7,0,0,1-.93-1.16,1.59,1.59,0,0,1,.1-1.32,2.21,2.21,0,0,1,1.29-.82l.37-.11Zm-1.12-1.84a1.49,1.49,0,0,0-.78.48.88.88,0,0,0-.08.82.89.89,0,0,0,.48.63,1.7,1.7,0,0,0,1,0Z"/><path class="cls-2" d="M167.08,71.32a.9.9,0,0,0,0,.33,1.44,1.44,0,0,0,.25.57,2.61,2.61,0,0,0,.63.58l2.9-.49L171,73l-4.19.7-.12-.69.68-.11a4.4,4.4,0,0,1-.61-.52,1.15,1.15,0,0,1-.35-.67,1,1,0,0,1,0-.43Z"/><path class="cls-2" d="M170.53,69.85l-6,.47,0-.7,6-.47Z"/><path class="cls-2" d="M168.35,67.32a1.94,1.94,0,0,0,1.21-.26,1.12,1.12,0,0,0,.39-.91,1,1,0,0,0-.11-.5,1.31,1.31,0,0,0-.37-.43l.37-.56a1.65,1.65,0,0,1,.54.61,1.84,1.84,0,0,1,.17.94,1.73,1.73,0,0,1-.59,1.4,2.41,2.41,0,0,1-1.68.42,2.74,2.74,0,0,1-1.71-.5,1.68,1.68,0,0,1-.51-1.39,1.53,1.53,0,0,1,.51-1.23,2.19,2.19,0,0,1,1.47-.37h.39Zm-.48-2.1a1.49,1.49,0,0,0-.9.21.9.9,0,0,0-.34.75,1,1,0,0,0,.27.76,1.68,1.68,0,0,0,.91.35Z"/><path class="cls-2" d="M169.94,60.64a1.14,1.14,0,0,1,.85.57,1.89,1.89,0,0,1,.14,1.24,2.23,2.23,0,0,1-.36.91,1.27,1.27,0,0,1-.66.51l-.24-.61a1.12,1.12,0,0,0,.68-.93,1.14,1.14,0,0,0-.06-.71.55.55,0,0,0-.43-.3.48.48,0,0,0-.3,0,.59.59,0,0,0-.23.22,3.8,3.8,0,0,0-.34.65,2.28,2.28,0,0,1-.65,1,1.1,1.1,0,0,1-.86.17,1.11,1.11,0,0,1-.83-.55,1.67,1.67,0,0,1-.15-1.16,1.92,1.92,0,0,1,.37-.88,1.43,1.43,0,0,1,.61-.46l.25.6a1.08,1.08,0,0,0-.65.85,1.12,1.12,0,0,0,0,.61.56.56,0,0,0,.44.32.46.46,0,0,0,.44-.14,2.37,2.37,0,0,0,.35-.62,4,4,0,0,1,.51-.92,1.07,1.07,0,0,1,.46-.34A1.22,1.22,0,0,1,169.94,60.64Z"/><path class="cls-2" d="M171.06,56.83a1.17,1.17,0,0,1,.77.68,1.92,1.92,0,0,1,0,1.25,2.34,2.34,0,0,1-.47.85,1.28,1.28,0,0,1-.72.42l-.16-.63a1.14,1.14,0,0,0,.79-.84,1.1,1.1,0,0,0,0-.71.57.57,0,0,0-.39-.36.51.51,0,0,0-.3,0,.76.76,0,0,0-.26.18,6,6,0,0,0-.42.6,2.15,2.15,0,0,1-.77.88,1.09,1.09,0,0,1-.87.05,1.12,1.12,0,0,1-.75-.65,1.73,1.73,0,0,1,0-1.17,1.92,1.92,0,0,1,.48-.83,1.38,1.38,0,0,1,.66-.37l.17.63a1.08,1.08,0,0,0-.76.76,1.16,1.16,0,0,0,0,.61.54.54,0,0,0,.38.37.46.46,0,0,0,.46-.08,2.42,2.42,0,0,0,.43-.56,4.31,4.31,0,0,1,.62-.85,1.1,1.1,0,0,1,.5-.28A1.37,1.37,0,0,1,171.06,56.83Z"/><path class="cls-2" d="M175,51.49l-5.43-.22,4.16,2.41-.36.63-4.85-2.82.55-1,5,.21-3.81-2.21.37-.63,4.84,2.82Z"/><path class="cls-2" d="M177.68,47.9l-.41-.33a4.14,4.14,0,0,1-.05.8,1.38,1.38,0,0,1-.33.69,1.23,1.23,0,0,1-.88.49,1.4,1.4,0,0,1-.94-.35,1.36,1.36,0,0,1-.45-.6,1.2,1.2,0,0,1,0-.68A2.73,2.73,0,0,1,175,47l.59-.86-.16-.14a.74.74,0,0,0-.69-.21,1.35,1.35,0,0,0-.62.47,1.2,1.2,0,0,0-.3.6,1,1,0,0,0,0,.47l-.63.22a1.31,1.31,0,0,1,0-.81,2.38,2.38,0,0,1,.49-.88,2,2,0,0,1,1.09-.8,1.44,1.44,0,0,1,1.14.43l2.23,1.84ZM176,46.53l-.38.57a2,2,0,0,0-.42.92.73.73,0,0,0,.29.61.7.7,0,0,0,.55.2.89.89,0,0,0,.49-.33,1.08,1.08,0,0,0,.15-.28,2.27,2.27,0,0,0,.11-.68c0-.12,0-.24,0-.35Z"/><path class="cls-2" d="M180.45,45.12a2.64,2.64,0,0,1-.49.65,1.17,1.17,0,0,1-.91.39,1.67,1.67,0,0,1-.94-.58l-1.64-1.72-.44.41-.4-.42.44-.42-.82-.85.5-.48.82.85.78-.74.4.42-.78.74L178.52,45a1.88,1.88,0,0,0,.59.47c.15.06.31,0,.48-.16a1.45,1.45,0,0,0,.34-.48Z"/><path class="cls-2" d="M181,44.67l-2.67-3.31.54-.43,2.67,3.31ZM178.31,40a.41.41,0,0,1,.12.33.55.55,0,0,1-.21.28.5.5,0,0,1-.35.14.53.53,0,0,1-.27-.18.42.42,0,0,1-.11-.31.7.7,0,0,1,.54-.44A.38.38,0,0,1,178.31,40Z"/><path class="cls-2" d="M184.34,39.79a2.57,2.57,0,0,1,.5,1.67,1.73,1.73,0,0,1-.87,1.23,1.75,1.75,0,0,1-1.47.27,2.49,2.49,0,0,1-1.31-1.15,2.55,2.55,0,0,1-.51-1.69A2,2,0,0,1,183,38.63,2.61,2.61,0,0,1,184.34,39.79Zm-.61.39a2.24,2.24,0,0,0-.92-.91,1,1,0,0,0-.93.13,1,1,0,0,0-.52.81,2.24,2.24,0,0,0,.43,1.21,2.21,2.21,0,0,0,.9.89,1.15,1.15,0,0,0,1.47-.93A2.22,2.22,0,0,0,183.73,40.18Z"/><path class="cls-2" d="M188.77,40.06l-1-2.29a3.51,3.51,0,0,0-.38-.72.5.5,0,0,0-.3-.19.76.76,0,0,0-.41.08,1.28,1.28,0,0,0-.48.44,4,4,0,0,0-.44.73L187,40.86l-.64.28-1.72-3.89.64-.28.26.58a3.51,3.51,0,0,1,.41-.76,1.54,1.54,0,0,1,.64-.53,1.06,1.06,0,0,1,1,0,1.81,1.81,0,0,1,.74,1l1.15,2.6Z"/><path class="cls-2" d="M192.6,38.79l-1.06-5.5,3.36-.65.13.66-2.63.51.31,1.61L195,35l.13.67-2.25.44.37,1.89,2.63-.5.12.66Z"/><path class="cls-2" d="M199.61,38l-.09-2.51a4.06,4.06,0,0,0-.09-.8.55.55,0,0,0-.21-.29.79.79,0,0,0-.41-.08,1.41,1.41,0,0,0-.61.23,4,4,0,0,0-.67.52l.11,3-.69,0-.16-4.25.69,0,0,.63a4,4,0,0,1,.66-.55,1.59,1.59,0,0,1,.79-.25,1.09,1.09,0,0,1,.91.31,1.91,1.91,0,0,1,.33,1.18l.11,2.83Z"/><path class="cls-2" d="M204.81,38.27a1.72,1.72,0,0,1-.57,1.21,2,2,0,0,1-1.44.26,2.84,2.84,0,0,1-1.49-.58l.32-.53a2.22,2.22,0,0,0,1.23.53,1.26,1.26,0,0,0,.89-.14,1.15,1.15,0,0,0,.36-.79l.06-.49a2.27,2.27,0,0,1-.62.32,1.77,1.77,0,0,1-.73.07,1.39,1.39,0,0,1-1.12-.69,2.72,2.72,0,0,1-.22-1.65,2.56,2.56,0,0,1,.65-1.56,1.5,1.5,0,0,1,1.31-.43,1.73,1.73,0,0,1,1.12.61l0-.35.7.08ZM204.49,35a1.7,1.7,0,0,0-1-.58.88.88,0,0,0-.85.31,2.14,2.14,0,0,0-.41,1.12,2.18,2.18,0,0,0,.12,1.21.86.86,0,0,0,.7.45,1.7,1.7,0,0,0,1.22-.4Z"/><path class="cls-2" d="M206,38.65l1-4.14.68.16-1,4.14Zm2-5a.43.43,0,0,1-.18.29.61.61,0,0,1-.36,0,.45.45,0,0,1-.32-.19.42.42,0,0,1,0-.32.41.41,0,0,1,.17-.28.47.47,0,0,1,.36,0,.51.51,0,0,1,.32.17A.46.46,0,0,1,208,33.65Z"/><path class="cls-2" d="M210.38,40l.84-2.36a3.84,3.84,0,0,0,.21-.78.46.46,0,0,0-.09-.34.73.73,0,0,0-.35-.22,1.25,1.25,0,0,0-.65,0,5.33,5.33,0,0,0-.82.23l-1,2.83-.66-.23,1.42-4,.66.23-.21.59a3.57,3.57,0,0,1,.82-.26,1.49,1.49,0,0,1,.82,0,1.11,1.11,0,0,1,.74.63,1.88,1.88,0,0,1-.13,1.21L211,40.21Z"/><path class="cls-2" d="M213.5,39.12a1.9,1.9,0,0,0-.31,1.2,1.12,1.12,0,0,0,.65.75,1,1,0,0,0,.49.13,1.57,1.57,0,0,0,.55-.15l.34.58a1.78,1.78,0,0,1-.79.22,1.85,1.85,0,0,1-.92-.27,1.72,1.72,0,0,1-1-1.15,2.53,2.53,0,0,1,.36-1.69,2.74,2.74,0,0,1,1.21-1.31,1.72,1.72,0,0,1,1.48.15,1.54,1.54,0,0,1,.87,1,2.13,2.13,0,0,1-.32,1.48l-.18.35Zm2.09.5a1.47,1.47,0,0,0,.21-.9.89.89,0,0,0-.52-.63.94.94,0,0,0-.8-.1,1.82,1.82,0,0,0-.72.65Z"/><path class="cls-2" d="M217.35,41.37a1.88,1.88,0,0,0-.47,1.14,1.11,1.11,0,0,0,.53.83,1.05,1.05,0,0,0,.48.2,1.46,1.46,0,0,0,.56-.07l.25.63a1.74,1.74,0,0,1-.81.1,1.85,1.85,0,0,1-.87-.4,1.74,1.74,0,0,1-.82-1.28,2.48,2.48,0,0,1,.6-1.62,2.69,2.69,0,0,1,1.38-1.12,1.67,1.67,0,0,1,1.44.36,1.5,1.5,0,0,1,.72,1.11,2.2,2.2,0,0,1-.52,1.43l-.23.31Zm2,.78a1.53,1.53,0,0,0,.33-.86.92.92,0,0,0-.43-.7,1,1,0,0,0-.77-.21,1.74,1.74,0,0,0-.81.55Z"/><path class="cls-2" d="M223.19,44.27A1,1,0,0,0,223,44a1.3,1.3,0,0,0-.54-.3,2.54,2.54,0,0,0-.85-.08l-2,2.13-.5-.47,2.91-3.1.51.48-.47.5a5.29,5.29,0,0,1,.8,0,1.25,1.25,0,0,1,.68.33.85.85,0,0,1,.25.35Z"/><path class="cls-2" d="M226.27,48.88a1,1,0,0,1-.77.18,1,1,0,0,1-.87-1.18,1,1,0,0,1,.4-.68,1,1,0,0,1,.78-.19,1,1,0,0,1,.68.41.94.94,0,0,1,.19.77A1,1,0,0,1,226.27,48.88Z"/><path class="cls-2" d="M228.32,54.27l-2,.92L226,54.5l1.93-.9,2.4-3.08.36.77-1.92,2.35,3,.06.34.73Z"/><path class="cls-2" d="M229.22,56.79a2,2,0,0,0-1.06.64,1.11,1.11,0,0,0-.06,1,.92.92,0,0,0,.26.44,1.56,1.56,0,0,0,.5.28l-.17.65a1.69,1.69,0,0,1-.71-.39,1.86,1.86,0,0,1-.48-.84,1.75,1.75,0,0,1,.1-1.52,2.53,2.53,0,0,1,1.44-.95,2.78,2.78,0,0,1,1.78-.09,1.66,1.66,0,0,1,1,1.15,1.53,1.53,0,0,1-.08,1.32,2.15,2.15,0,0,1-1.27.84l-.37.12Zm1.15,1.82a1.44,1.44,0,0,0,.77-.5.86.86,0,0,0,.07-.81.92.92,0,0,0-.5-.63,1.69,1.69,0,0,0-1,0Z"/><path class="cls-2" d="M228.28,61l5.91-1.21.14.68-5.91,1.22Z"/><path class="cls-2" d="M228.65,63l6-.8.09.69-6,.8Z"/><path class="cls-2" d="M231.1,68.45a2.53,2.53,0,0,1-1.68-.44,1.75,1.75,0,0,1-.6-1.37,1.78,1.78,0,0,1,.53-1.41,2.56,2.56,0,0,1,1.67-.52,2.61,2.61,0,0,1,1.71.45,1.73,1.73,0,0,1,.59,1.38,1.71,1.71,0,0,1-.54,1.4A2.51,2.51,0,0,1,231.1,68.45Zm0-.72a2.19,2.19,0,0,0,1.25-.31,1,1,0,0,0,.38-.87,1,1,0,0,0-.42-.86,2.21,2.21,0,0,0-1.26-.26,2.41,2.41,0,0,0-1.23.3,1.16,1.16,0,0,0,0,1.75A2.19,2.19,0,0,0,231.09,67.73Z"/><path class="cls-2" d="M228.36,73.36l.1-.64,3.37-.53-3.06-1.52.1-.63,4.36-.4-.11.72-3.31.22,3.05,1.49-.09.58-3.36.53,3.1,1.17-.11.69Z"/><path class="cls-2" d="M232.35,77.41l-1.56-.53L230.08,79l-.65-.22.72-2.13-2.48-.84.24-.71,5.32,1.79-1.09,3.22-.64-.22Z"/><path class="cls-2" d="M226.87,83a2.5,2.5,0,0,1-1.27-1.18,1.72,1.72,0,0,1,.13-1.5,1.69,1.69,0,0,1,1.13-1,2.5,2.5,0,0,1,1.72.33,2.6,2.6,0,0,1,1.29,1.21,1.77,1.77,0,0,1-.14,1.49,1.7,1.7,0,0,1-1.14,1A2.58,2.58,0,0,1,226.87,83Zm.33-.64a2.19,2.19,0,0,0,1.25.32,1,1,0,0,0,.74-.58,1,1,0,0,0,.05-1A2.95,2.95,0,0,0,227,80a1.15,1.15,0,0,0-.8,1.55A2.15,2.15,0,0,0,227.2,82.35Z"/><path class="cls-2" d="M224.41,82.91l5.06,3.28-.38.59L224,83.49Z"/><path class="cls-2" d="M221.64,86.62l.33.27a2.06,2.06,0,0,1,.06-.69,1.71,1.71,0,0,1,.33-.66,1.39,1.39,0,0,1,1.2-.54,2.73,2.73,0,0,1,1.53.72,2.77,2.77,0,0,1,1,1.4,1.5,1.5,0,0,1-.32,1.37,1.8,1.8,0,0,1-1.12.61l1.65,1.35-.45.55-4.65-3.84Zm2.54,2.09a1.72,1.72,0,0,0,1-.55.92.92,0,0,0,.19-.85,2.11,2.11,0,0,0-.77-1q-1.25-1-1.89-.24a1.27,1.27,0,0,0-.27.6,2,2,0,0,0,0,.64Z"/><path class="cls-2" d="M221.36,89.86a1.92,1.92,0,0,0-1-.7,1.11,1.11,0,0,0-.92.35,1.17,1.17,0,0,0-.3.42,1.42,1.42,0,0,0,0,.56l-.67.12a1.69,1.69,0,0,1,.07-.81,1.88,1.88,0,0,1,.57-.78,1.73,1.73,0,0,1,1.42-.53,2.53,2.53,0,0,1,1.46.92,2.68,2.68,0,0,1,.81,1.59,1.65,1.65,0,0,1-.65,1.33,1.56,1.56,0,0,1-1.24.48,2.17,2.17,0,0,1-1.29-.81l-.26-.29Zm-1.18,1.8a1.5,1.5,0,0,0,.77.5.89.89,0,0,0,.77-.27,1,1,0,0,0,.37-.71,1.8,1.8,0,0,0-.37-.91Z"/><path class="cls-2" d="M217.33,95a.69.69,0,0,0,.29-.14,1.3,1.3,0,0,0,.41-.46,2.73,2.73,0,0,0,.26-.82l-1.68-2.41.57-.4,2.43,3.49-.57.4-.4-.57a3.88,3.88,0,0,1-.2.78,1.19,1.19,0,0,1-.46.6.82.82,0,0,1-.39.17Z"/><path class="cls-2" d="M216,97.61a2.8,2.8,0,0,1-.31-.86,2.23,2.23,0,0,1,0-.67l.37-.21a1.56,1.56,0,0,0,0,.58,2.22,2.22,0,0,0,.2.57.51.51,0,0,1,.36-.07.49.49,0,0,1,.25.26.43.43,0,0,1,.07.35.51.51,0,0,1-.27.28.48.48,0,0,1-.4.07A.62.62,0,0,1,216,97.61Z"/><path class="cls-2" d="M210.18,95.82a1.11,1.11,0,0,1,0-1,1.83,1.83,0,0,1,1-.78,2.09,2.09,0,0,1,1-.19,1.22,1.22,0,0,1,.78.28l-.38.53a1.1,1.1,0,0,0-1.14-.07,1.07,1.07,0,0,0-.57.43.55.55,0,0,0,0,.53.39.39,0,0,0,.18.23.59.59,0,0,0,.31.08,4.12,4.12,0,0,0,.73-.06,2.23,2.23,0,0,1,1.17,0,1.14,1.14,0,0,1,.61.63,1.11,1.11,0,0,1,0,1,1.69,1.69,0,0,1-.9.76,1.82,1.82,0,0,1-.94.16,1.3,1.3,0,0,1-.71-.27l.37-.53a1.08,1.08,0,0,0,1.07.09,1.15,1.15,0,0,0,.48-.37.52.52,0,0,0,0-.54.46.46,0,0,0-.36-.3,2.61,2.61,0,0,0-.7,0,3.9,3.9,0,0,1-1.05.07,1,1,0,0,1-.53-.21A1.24,1.24,0,0,1,210.18,95.82Z"/><path class="cls-2" d="M207,100.66l-.31-1.61-2.21.43-.13-.67,2.21-.43-.5-2.56.73-.15,1.08,5.51-3.33.65-.13-.67Z"/><path class="cls-2" d="M202.37,101.73a.46.46,0,0,1,.08-.34.64.64,0,0,1,.34-.12.38.38,0,0,1,.49.38.4.4,0,0,1-.08.32.46.46,0,0,1-.33.13.47.47,0,0,1-.36-.06A.43.43,0,0,1,202.37,101.73Zm.32-5.38.39,4.24-.7.06L202,96.42Z"/><path class="cls-2" d="M198.09,96.48,198,99a3.16,3.16,0,0,0,.05.81.52.52,0,0,0,.19.3.72.72,0,0,0,.4.09,1.24,1.24,0,0,0,.63-.19,3.89,3.89,0,0,0,.69-.48l.06-3,.7,0-.08,4.24H200v-.63a3.41,3.41,0,0,1-.7.51,1.47,1.47,0,0,1-.79.21,1.11,1.11,0,0,1-.9-.36,2,2,0,0,1-.26-1.19l0-2.84Z"/><path class="cls-2" d="M195.42,98.28a2.07,2.07,0,0,0-.08-1.24,1.18,1.18,0,0,0-.86-.51,1,1,0,0,0-.51,0,1.36,1.36,0,0,0-.47.31l-.51-.45a1.76,1.76,0,0,1,.68-.45,2,2,0,0,1,1,0,1.79,1.79,0,0,1,1.31.78,2.62,2.62,0,0,1,.18,1.73,2.73,2.73,0,0,1-.74,1.62,1.69,1.69,0,0,1-1.45.32,1.58,1.58,0,0,1-1.14-.68,2.18,2.18,0,0,1-.16-1.51l.06-.39Zm-2.15.19a1.47,1.47,0,0,0,.09.91.9.9,0,0,0,.69.44,1,1,0,0,0,.79-.16,1.81,1.81,0,0,0,.48-.85Z"/><path class="cls-2" d="M189,95.77a1.11,1.11,0,0,1,.68-.76,1.84,1.84,0,0,1,1.24,0,2.13,2.13,0,0,1,.85.47,1.34,1.34,0,0,1,.42.73l-.64.15a1.13,1.13,0,0,0-.82-.8,1.18,1.18,0,0,0-.71,0,.58.58,0,0,0-.37.39.52.52,0,0,0,0,.3.68.68,0,0,0,.18.26,4.4,4.4,0,0,0,.6.42,2.2,2.2,0,0,1,.87.79,1.08,1.08,0,0,1,0,.87,1.11,1.11,0,0,1-.66.74,1.73,1.73,0,0,1-1.17,0,1.93,1.93,0,0,1-.82-.49,1.45,1.45,0,0,1-.37-.67L189,98a1.16,1.16,0,0,0,1.36.79.54.54,0,0,0,.38-.38.46.46,0,0,0-.08-.46,2.22,2.22,0,0,0-.56-.43,4,4,0,0,1-.84-.63,1.15,1.15,0,0,1-.27-.51A1.12,1.12,0,0,1,189,95.77Z"/><path class="cls-2" d="M186.63,93.47a2.56,2.56,0,0,1,.79.21,1.14,1.14,0,0,1,.71.68,1.72,1.72,0,0,1-.17,1.1l-1,2.17.56.25-.24.53-.55-.24-.48,1.08-.64-.28.48-1.09-1-.43.24-.53,1,.43.91-2a2,2,0,0,0,.21-.72q0-.24-.33-.39a1.47,1.47,0,0,0-.57-.13Z"/><path class="cls-2" d="M180.89,93.52a1,1,0,0,1,.66-.44,1,1,0,0,1,1.22.81,1,1,0,0,1-.14.78,1.07,1.07,0,0,1-.67.45,1,1,0,0,1-.79-.16,1,1,0,0,1-.44-.66A1,1,0,0,1,180.89,93.52Z"/><path class="cls-3" d="M193.83,73.55a5.56,5.56,0,0,1,3,2.91,5.53,5.53,0,0,1-.65,4.27L195.13,83l4.15,2-1.35,2.74-13.42-6.6,2.48-5a5.86,5.86,0,0,1,2.8-3A4.76,4.76,0,0,1,193.83,73.55Zm-1.37,2.83a2.21,2.21,0,0,0-1.94-.18,4.11,4.11,0,0,0-1.61,2l-.68,1.36,4.51,2.22.55-1.11a7.86,7.86,0,0,0,.81-2.19,1.54,1.54,0,0,0-.3-1.16A4,4,0,0,0,192.46,76.38Z"/><path class="cls-3" d="M207.56,68.16l-12,.18,9.58,4.71-1.31,2.68-13.42-6.6,1.75-3.55,11.28-.1-9-4.45,1.32-2.68L209.14,65Z"/><path class="cls-3" d="M210.57,62.05l-13.42-6.6,4.29-8.72,2.41,1.19-2.94,6,2.86,1.41,2.48-5,2.42,1.19-2.48,5,3.22,1.58,2.94-6,2.5,1.23Z"/></g></g></svg>