<svg xmlns="http://www.w3.org/2000/svg" viewBox="0 0 288.45 355.9"><defs><style>.cls-2{fill:#5b6670}.cls-3{fill:#ffc629}</style></defs><g id="Layer_2" data-name="Layer 2"><g id="Layer_1-2" data-name="Layer 1"><path fill="#fff" stroke="#818181" stroke-linejoin="round" stroke-width=".5" d="M.26 21.8L260.58.24l27.62 333.86-260.32 21.54z"/><path class="cls-2" d="M47.78 89.73a5.53 5.53 0 0 0-2.26-1.87 6.44 6.44 0 0 0-3.14-.39 5 5 0 0 0-4.25 2.35 10.32 10.32 0 0 0-.85 6c.23 2.56.84 4.4 1.85 5.51a5.08 5.08 0 0 0 4.49 1.4 9.39 9.39 0 0 0 4.08-1.3l-.3-3.47-4.4.34-.36-4 8.93-.79.87 9.89a12.59 12.59 0 0 1-3.69 2.21 16.2 16.2 0 0 1-4.67 1.13q-5.23.45-8.12-2t-3.42-8.49q-1-11.84 9.38-12.75a12.88 12.88 0 0 1 5.38.55 7.51 7.51 0 0 1 3.71 2.69zM59.7 83.15a2 2 0 0 1-.43 1.7 2.86 2.86 0 0 1-1.74.62 1.87 1.87 0 0 1-2.46-1.91 2.18 2.18 0 0 1 .37-1.67 2.53 2.53 0 0 1 1.72-.65 2.74 2.74 0 0 1 1.85.32 2.09 2.09 0 0 1 .69 1.59zm-2.51 21.94L55.7 88.16l4.17-.37 1.48 16.94zM77 103.36L76.15 94a8.68 8.68 0 0 0-.79-3.49 1.84 1.84 0 0 0-1.88-.73q-1.85.17-4.25 2.85l1 11.3-4.17.37-1.5-16.92 4.17-.38.19 2.2a9.72 9.72 0 0 1 2.65-2.2 7.17 7.17 0 0 1 2.88-1 5 5 0 0 1 4 1.08q1.41 1.31 1.69 4.59l1 11.3zM95.7 101.71l-.15-1.71a7.82 7.82 0 0 1-5.1 2.73 5.73 5.73 0 0 1-4.38-1.11 5.26 5.26 0 0 1-1.77-3.66 5.63 5.63 0 0 1 .47-3 5 5 0 0 1 2-2 13.54 13.54 0 0 1 4.08-1.31l3.54-.65-.07-.76a2.1 2.1 0 0 0-1-1.87 4.81 4.81 0 0 0-2.55-.31 5.51 5.51 0 0 0-2.29.66A3 3 0 0 0 87.14 90l-3.43-1.8a5.45 5.45 0 0 1 2.49-2.44 11.3 11.3 0 0 1 4.34-1.15c2.63-.24 4.58.06 5.83.87s2 2.28 2.15 4.38l1 11.51zm-1-7.83l-2.1.37a7.29 7.29 0 0 0-3.16 1.15 2.23 2.23 0 0 0-.82 2.07 1.76 1.76 0 0 0 .76 1.53 3.06 3.06 0 0 0 1.75.28 4.73 4.73 0 0 0 1.8-.64 8.86 8.86 0 0 0 2-1.54zM37.18 138.51l-2-22.35 4.55-.4L41.37 134l9.4-.83.36 4.17zM64.65 136.1l-.19-2.18a9 9 0 0 1-2.52 2.17 7.17 7.17 0 0 1-3 1c-1.91.17-3.3-.24-4.16-1.23a7.75 7.75 0 0 1-1.54-4.43l-1-11.32 4.17-.37.82 9.34a14.44 14.44 0 0 0 .45 2.72 2.27 2.27 0 0 0 .8 1.26 2.35 2.35 0 0 0 1.43.24c1.24-.11 2.65-1.05 4.25-2.83l-1-11.32 4.17-.37 1.49 16.94zM84.43 134.36l-.82-9.36a8.74 8.74 0 0 0-.79-3.5 1.86 1.86 0 0 0-1.88-.73q-1.84.17-4.25 2.85l1 11.3-4.17.37L72 118.38l4.16-.37.19 2.2A9.72 9.72 0 0 1 79 118a7.32 7.32 0 0 1 2.88-.94 5 5 0 0 1 4 1.08q1.41 1.32 1.69 4.59l1 11.3zM105.68 127.63a4.82 4.82 0 0 1-.6 3 5.29 5.29 0 0 1-2.24 2 9.4 9.4 0 0 1-3.51.94c-3.54.32-6-.46-7.49-2.32l2.91-2.45a3.65 3.65 0 0 0 1.87 1.2 6.38 6.38 0 0 0 2.15.16c2-.18 2.92-.84 2.82-2a1.28 1.28 0 0 0-.94-1.1 14 14 0 0 0-2.71-.61 9.9 9.9 0 0 1-4.94-1.66 4.79 4.79 0 0 1-1.68-3.4 4.65 4.65 0 0 1 1.39-3.85 7.72 7.72 0 0 1 4.94-1.9 10.5 10.5 0 0 1 4.08.37 5.73 5.73 0 0 1 2.87 1.99l-2.92 2.48a4 4 0 0 0-3.79-1.39 3.5 3.5 0 0 0-1.91.62 1.31 1.31 0 0 0-.56 1.19 1.22 1.22 0 0 0 .69 1 8.31 8.31 0 0 0 2.43.62 18.17 18.17 0 0 1 4.25 1.05 5.16 5.16 0 0 1 2 1.58 4.82 4.82 0 0 1 .89 2.48zM116.86 110.84a7.23 7.23 0 0 0-2.28-.19 2.25 2.25 0 0 0-1.64.66 2.68 2.68 0 0 0-.3 1.84l.14 1.65 3.44-.3.29 3.31-3.44.3 1.2 13.63-4.16.36-1.2-13.63-2.15.19-.29-3.31 2.15-.19-.15-1.64c-.18-2.1.2-3.67 1.16-4.69a6.83 6.83 0 0 1 4.57-1.83 13.07 13.07 0 0 1 3.15.13zM135 121.42a10.06 10.06 0 0 1-1.37 6.75q-1.76 2.52-6 2.89-8.13.72-8.92-8.21c-.25-2.87.2-5.14 1.37-6.82s3.16-2.64 6-2.89 4.92.35 6.36 1.81a10.14 10.14 0 0 1 2.56 6.47zm-4.31.38a7.34 7.34 0 0 0-1.23-4 3.27 3.27 0 0 0-3-1 3.33 3.33 0 0 0-2.83 1.57 7.33 7.33 0 0 0-.55 4.13 7.15 7.15 0 0 0 1.25 3.92 3.36 3.36 0 0 0 3.06 1 3.31 3.31 0 0 0 2.8-1.52 7.22 7.22 0 0 0 .52-4.1zM148.68 115.74a4 4 0 0 0-1.74-.17 4.67 4.67 0 0 0-2.15.75 9.89 9.89 0 0 0-2 1.81l1 11-4.17.37-1.49-16.94 4.17-.36.21 2.42a10.43 10.43 0 0 1 2.13-2.12 5.1 5.1 0 0 1 2.67-1 3.84 3.84 0 0 1 1.88.18zM163.62 127.4l-.14-1.65a10.19 10.19 0 0 1-2.32 1.78 6.93 6.93 0 0 1-2.89.84 5.7 5.7 0 0 1-5.09-1.88 10.82 10.82 0 0 1-2.27-6.37 10.71 10.71 0 0 1 1.27-6.87 6.31 6.31 0 0 1 5-2.85 6.85 6.85 0 0 1 2.5.28 6.58 6.58 0 0 1 2.19 1.07l-.73-8.37 4.16-.36 2.12 24zm-1.41-12.21a6.48 6.48 0 0 0-1.74-.91 4.6 4.6 0 0 0-2-.29 3.16 3.16 0 0 0-2.57 1.68 6.73 6.73 0 0 0-.67 4 7.52 7.52 0 0 0 1.16 3.75 2.79 2.79 0 0 0 2.7 1.16 5.21 5.21 0 0 0 2.07-.66 6.91 6.91 0 0 0 1.73-1.33z"/><path class="cls-3" d="M38.19 178.42l.27-2.33L40 174.7c.55-.49 1.09-1 1.61-1.48s1-1 1.46-1.43.84-.88 1.15-1.25c.17-.19.34-.4.52-.64a5.84 5.84 0 0 0 .48-.74 4.81 4.81 0 0 0 .35-.77 1.9 1.9 0 0 0 .1-.77 1.19 1.19 0 0 0-.42-.86 1.49 1.49 0 0 0-1.06-.23 3.42 3.42 0 0 0-.89.2 3.89 3.89 0 0 0-.73.39 3.72 3.72 0 0 0-.59.53c-.17.19-.33.39-.48.59l-1.93-1.51a7.1 7.1 0 0 1 .87-1 5.81 5.81 0 0 1 1-.79 5.52 5.52 0 0 1 1.26-.55 7.59 7.59 0 0 1 1.52-.29 7.06 7.06 0 0 1 1.68 0 3.26 3.26 0 0 1 1.28.49 2.68 2.68 0 0 1 .86 1 3.86 3.86 0 0 1 .4 1.46 3.91 3.91 0 0 1-.09 1.17 6 6 0 0 1-.41 1.17 7.62 7.62 0 0 1-.66 1.12 10.38 10.38 0 0 1-.83 1c-.29.32-.61.66-1 1l-1.14 1.07c-.39.35-.78.7-1.17 1l-1 .88 5.72-.5-.29 2.55zM53.28 168.85l1-.09a4.57 4.57 0 0 0 .92-.19 3.46 3.46 0 0 0 .86-.43 2.07 2.07 0 0 0 .61-.64 1.39 1.39 0 0 0 .19-.86 1.83 1.83 0 0 0-.12-.46 1.1 1.1 0 0 0-.29-.36 1.07 1.07 0 0 0-.47-.21 2 2 0 0 0-.7 0 3.29 3.29 0 0 0-1.46.44 3.4 3.4 0 0 0-1.09 1l-1.9-1.49a7.12 7.12 0 0 1 .87-.94 5.38 5.38 0 0 1 1-.71 6.2 6.2 0 0 1 1.23-.5 8.91 8.91 0 0 1 1.48-.26 4.54 4.54 0 0 1 3 .55 2.94 2.94 0 0 1 1.17 2.28 3 3 0 0 1-.11 1.07 3.48 3.48 0 0 1-.53 1 4.52 4.52 0 0 1-1 .9 5.69 5.69 0 0 1-1.44.71 3.13 3.13 0 0 1 1 .23 2.64 2.64 0 0 1 .8.5 2.75 2.75 0 0 1 .57.77 3.19 3.19 0 0 1 .27 1 5.21 5.21 0 0 1-.18 2 3.71 3.71 0 0 1-.94 1.55 5 5 0 0 1-1.72 1.1 8.92 8.92 0 0 1-2.55.55 6.68 6.68 0 0 1-1.62 0 4.62 4.62 0 0 1-1.27-.35 2.9 2.9 0 0 1-.92-.61 2.35 2.35 0 0 1-.56-.82l2.18-1.7a2 2 0 0 0 .85.82 2.67 2.67 0 0 0 1.47.21 3.47 3.47 0 0 0 1.18-.28 2.4 2.4 0 0 0 .77-.54 1.73 1.73 0 0 0 .4-.69 1.82 1.82 0 0 0 .08-.76 1.48 1.48 0 0 0-.62-1.2 2.7 2.7 0 0 0-1.6-.25l-1.18.11zM72.91 170.21l-.63 5.21-2.69.24.62-5.16-3.07-8.14 2.75-.24 1.88 5.58 3.31-6 3-.26zM79.85 170.29a2.26 2.26 0 0 0 0 .45v.39a1.68 1.68 0 0 0 .57 1.27 2 2 0 0 0 1.36.28 4 4 0 0 0 1.47-.38 4.14 4.14 0 0 0 1.06-.82l1.53 1.52a7.11 7.11 0 0 1-.72.73 4.59 4.59 0 0 1-.86.57 5.76 5.76 0 0 1-1.09.41 9.66 9.66 0 0 1-1.41.23 5.41 5.41 0 0 1-1.94-.13 3.48 3.48 0 0 1-1.35-.71 3.14 3.14 0 0 1-.82-1.17 5.15 5.15 0 0 1-.36-1.5 8.24 8.24 0 0 1 .17-2.57 8.06 8.06 0 0 1 1-2.44 4.76 4.76 0 0 1 .67-.88 4.83 4.83 0 0 1 .89-.72 5.33 5.33 0 0 1 1.13-.52 6.1 6.1 0 0 1 1.35-.26 5.88 5.88 0 0 1 1.77.08 3.13 3.13 0 0 1 1.28.57 2.78 2.78 0 0 1 .8 1.05 4.66 4.66 0 0 1 .36 1.48 3.3 3.3 0 0 1 0 .56 4.73 4.73 0 0 1 0 .67l-.14 1.31zm4.37-2.12v-.45-.39a1.6 1.6 0 0 0-.46-1.09 1.68 1.68 0 0 0-1.26-.26 2.39 2.39 0 0 0-1.11.34 2.28 2.28 0 0 0-.73.72 5.08 5.08 0 0 0-.36.7 4.71 4.71 0 0 0-.23.79zM88.16 170.66a9.53 9.53 0 0 1 0-1.6 9.23 9.23 0 0 1 .31-1.65 8.84 8.84 0 0 1 .62-1.57 5.79 5.79 0 0 1 .91-1.34 5.12 5.12 0 0 1 1.25-1 4.53 4.53 0 0 1 3.17-.32 3 3 0 0 1 1.2.68l.09-.77 2.42-.22-1.23 10.35-2 .18v-1.25c-.31.31-.6.58-.87.8a5.69 5.69 0 0 1-.79.55 3.48 3.48 0 0 1-.77.34 4.36 4.36 0 0 1-.83.16 4 4 0 0 1-1.31-.09 2.41 2.41 0 0 1-1-.56 3 3 0 0 1-.71-1.08 5.79 5.79 0 0 1-.46-1.61zm7.23-4.66a3.25 3.25 0 0 0-.4-.31 2.82 2.82 0 0 0-.49-.25 3.47 3.47 0 0 0-.55-.16 2.32 2.32 0 0 0-.59 0 2.16 2.16 0 0 0-.92.29 2.54 2.54 0 0 0-.7.65 4 4 0 0 0-.51.88 6 6 0 0 0-.33 1 6.21 6.21 0 0 0-.15 1 5.12 5.12 0 0 0 0 1 2.27 2.27 0 0 0 .43 1.33 1.17 1.17 0 0 0 1 .34 3 3 0 0 0 .75-.19 4.84 4.84 0 0 0 .72-.36 6 6 0 0 0 .66-.46c.21-.17.39-.33.56-.49zM106.62 164.64a1.4 1.4 0 0 0-.4-.11 2.19 2.19 0 0 0-.58 0 3 3 0 0 0-1.33.46 8.16 8.16 0 0 0-1.38 1.1l-.8 6.73-2.45.21 1.25-10.35 2.44-.22-.17 1.48a7.64 7.64 0 0 1 1.48-1.33 3 3 0 0 1 1.44-.54h1.04a1 1 0 0 1 .23.07zM109 169.39a2.22 2.22 0 0 0 .44.47 1.67 1.67 0 0 0 .51.27 2.62 2.62 0 0 0 .57.12 4.58 4.58 0 0 0 .64 0 2.93 2.93 0 0 0 1.5-.44.93.93 0 0 0 .4-.85 1.06 1.06 0 0 0-.09-.36.83.83 0 0 0-.28-.28 2.64 2.64 0 0 0-.59-.24 9.86 9.86 0 0 0-1-.21 8 8 0 0 1-1.47-.37 3.36 3.36 0 0 1-1-.55 2 2 0 0 1-.55-.76 3.27 3.27 0 0 1-.23-1 3.15 3.15 0 0 1 .17-1.33 3.12 3.12 0 0 1 .73-1.16 4.05 4.05 0 0 1 1.31-.87 6.1 6.1 0 0 1 1.9-.44 5.7 5.7 0 0 1 2.32.21 4 4 0 0 1 1.72 1.19l-2 1.51a1.74 1.74 0 0 0-.84-.68 2.71 2.71 0 0 0-1.27-.17 2.59 2.59 0 0 0-.76.17 1.63 1.63 0 0 0-.49.29.85.85 0 0 0-.27.34.77.77 0 0 0-.07.32 1.82 1.82 0 0 0 .09.37.75.75 0 0 0 .25.29 1.66 1.66 0 0 0 .48.22 7.75 7.75 0 0 0 .8.18 8.76 8.76 0 0 1 1.62.39 3.75 3.75 0 0 1 1.06.55 2 2 0 0 1 .61.77 3.06 3.06 0 0 1 .25 1 3.21 3.21 0 0 1-1 2.63 4.46 4.46 0 0 1-1.39.87 6.87 6.87 0 0 1-2 .45 8.4 8.4 0 0 1-1.5 0 4.58 4.58 0 0 1-1.14-.24 3 3 0 0 1-.86-.48 4.23 4.23 0 0 1-.69-.71zM122.57 171l1.25-10.35 2.44-.22-1.26 10.35zm1.43-12.82a2.17 2.17 0 0 1 0-.49 1.53 1.53 0 0 1 .2-.55 1.57 1.57 0 0 1 .46-.47 1.76 1.76 0 0 1 .8-.24 1.36 1.36 0 0 1 1 .16.85.85 0 0 1 .34.64 2.49 2.49 0 0 1 0 .53 1.63 1.63 0 0 1-.22.55 1.48 1.48 0 0 1-.47.46 1.72 1.72 0 0 1-.79.24 2.08 2.08 0 0 1-.57 0 .86.86 0 0 1-.39-.15.69.69 0 0 1-.22-.28 1.12 1.12 0 0 1-.14-.4zM134.2 170l.7-5.71q.06-.53.09-1a4.71 4.71 0 0 0 0-.84.85.85 0 0 0-.29-.65 1 1 0 0 0-.66-.15 2.51 2.51 0 0 0-.77.2 4.72 4.72 0 0 0-.77.4 7.33 7.33 0 0 0-.74.54c-.24.2-.47.4-.69.61l-.83 6.91-2.44.21 1.2-10.33 2.44-.22-.16 1.35a8.16 8.16 0 0 1 .74-.7 5.86 5.86 0 0 1 .82-.59 5.24 5.24 0 0 1 .9-.42 3.51 3.51 0 0 1 1-.22 3 3 0 0 1 1.2.1 2 2 0 0 1 .82.46 2.17 2.17 0 0 1 .49.74 3.44 3.44 0 0 1 .2.91 6.58 6.58 0 0 1 0 .89 6.3 6.3 0 0 1-.06.74l-.78 6.53zM144.64 169.06l1.66-13.66 8.53-.75-.3 2.46-5.86.51-.34 2.91 4.93-.43-.3 2.47-4.96.43-.4 3.28 5.85-.52-.29 2.55zM155.54 164.74a8.66 8.66 0 0 1 .22-2.86 9.12 9.12 0 0 1 .44-1.37 8 8 0 0 1 .63-1.24 4.44 4.44 0 0 1 3.52-2.13 3.78 3.78 0 0 1 1.48.15 3 3 0 0 1 1.17.71l.63-5.11 2.41-.21-1.76 14.69-2.24.2.11-1a7.52 7.52 0 0 1-1.52 1.09 4.07 4.07 0 0 1-1.57.48 4.17 4.17 0 0 1-1.39-.08 2.45 2.45 0 0 1-1.07-.56 2.8 2.8 0 0 1-.72-1.07 5.24 5.24 0 0 1-.34-1.69zm3.34-4.15a5.25 5.25 0 0 0-.35.75 5.78 5.78 0 0 0-.26.89 7.39 7.39 0 0 0-.15 1 6.15 6.15 0 0 0 0 1 2.2 2.2 0 0 0 .46 1.32 1.37 1.37 0 0 0 1.18.34 3.13 3.13 0 0 0 .63-.14 5.32 5.32 0 0 0 .66-.26 5.73 5.73 0 0 0 .62-.38 4.82 4.82 0 0 0 .55-.44l.54-4.53a2.77 2.77 0 0 0-.4-.3 2.51 2.51 0 0 0-.49-.25 3.19 3.19 0 0 0-.55-.16 2.88 2.88 0 0 0-.59 0 2.31 2.31 0 0 0-1 .34 2.64 2.64 0 0 0-.85.82zM170.69 156.53l-.7 5.7c0 .36-.07.67-.08.94a4.19 4.19 0 0 0 0 .71 1.14 1.14 0 0 0 .29.78.88.88 0 0 0 .67.17 2.57 2.57 0 0 0 .76-.19 5.57 5.57 0 0 0 .77-.39 7.22 7.22 0 0 0 .73-.54l.7-.61.82-6.92 2.45-.22-1.25 10.36-2.44.21.16-1.33a9.73 9.73 0 0 1-.74.69 6.34 6.34 0 0 1-.81.58 5.86 5.86 0 0 1-.87.43 3.64 3.64 0 0 1-.91.21A3.6 3.6 0 0 1 169 167a2.13 2.13 0 0 1-.84-.46 2 2 0 0 1-.5-.74 3 3 0 0 1-.2-.9 5.56 5.56 0 0 1 0-.91 6.5 6.5 0 0 1 .06-.74l.78-6.53zM187 163.87a5.49 5.49 0 0 1-.78.82 6.31 6.31 0 0 1-1 .64 5.69 5.69 0 0 1-1.08.44 6.64 6.64 0 0 1-1.14.23 5.66 5.66 0 0 1-1.89-.11 2.9 2.9 0 0 1-1.31-.69 3.32 3.32 0 0 1-.8-1.2 6.82 6.82 0 0 1-.37-1.77 7.88 7.88 0 0 1 0-1.28 9.14 9.14 0 0 1 .28-1.48 7.49 7.49 0 0 1 .6-1.49 5.15 5.15 0 0 1 2.39-2.34 5 5 0 0 1 1.91-.51 7.25 7.25 0 0 1 1.32 0 4.22 4.22 0 0 1 1.06.24 3.15 3.15 0 0 1 .86.49 4 4 0 0 1 .69.72l-1.96 1.42a1.74 1.74 0 0 0-.75-.61 2.56 2.56 0 0 0-1.16-.12 2.45 2.45 0 0 0-1 .31 3.1 3.1 0 0 0-.74.66 3.93 3.93 0 0 0-.5.9 6.07 6.07 0 0 0-.31 1 7.07 7.07 0 0 0-.14 1 8.13 8.13 0 0 0 0 .87 4.42 4.42 0 0 0 .14.8 1.48 1.48 0 0 0 .32.58 1.3 1.3 0 0 0 .56.33 2.29 2.29 0 0 0 .86.06 3 3 0 0 0 1.2-.37 3.46 3.46 0 0 0 1-.84zM188.69 161.83a9.65 9.65 0 0 1 0-1.61 10.64 10.64 0 0 1 .31-1.65 8.74 8.74 0 0 1 .62-1.56 5.85 5.85 0 0 1 .92-1.35 4.85 4.85 0 0 1 1.25-1 3.93 3.93 0 0 1 1.58-.46 4.25 4.25 0 0 1 1.59.13 3 3 0 0 1 1.2.68l.09-.77 2.42-.21-1.23 10.35-2 .18v-1.26q-.47.47-.87.81a6.71 6.71 0 0 1-.79.55 4 4 0 0 1-.77.33 4.36 4.36 0 0 1-.83.16 4 4 0 0 1-1.31-.09 2.31 2.31 0 0 1-1-.56 3 3 0 0 1-.71-1.07 6 6 0 0 1-.47-1.6zm7.23-4.68a3.25 3.25 0 0 0-.4-.31 3.75 3.75 0 0 0-.49-.25 3.44 3.44 0 0 0-.55-.15 1.94 1.94 0 0 0-.59 0 2 2 0 0 0-.92.3 2.5 2.5 0 0 0-.7.64 4.22 4.22 0 0 0-.51.88 6.13 6.13 0 0 0-.48 2.05 5.12 5.12 0 0 0 0 1 2.27 2.27 0 0 0 .43 1.33 1.14 1.14 0 0 0 1 .34 2.24 2.24 0 0 0 .75-.19 3.46 3.46 0 0 0 .72-.36 5.17 5.17 0 0 0 .66-.46c.21-.17.39-.33.56-.49zM205.61 163.7a6.16 6.16 0 0 1-1 .31 7.22 7.22 0 0 1-1 .17 4.23 4.23 0 0 1-1.26-.06 2.22 2.22 0 0 1-.89-.41 1.89 1.89 0 0 1-.54-.71 2.94 2.94 0 0 1-.24-1 4 4 0 0 1 0-.6q0-.31.06-.69l.59-4.89-1.33.18.24-2 1.25-.11.37-2.89 2.46-.21-.32 2.81 2.33-.2-.24 2-2.33.2-.59 4.88a3.17 3.17 0 0 0 0 .41 2 2 0 0 0 0 .35.93.93 0 0 0 .27.67.8.8 0 0 0 .56.14 4.55 4.55 0 0 0 .75-.13 3.22 3.22 0 0 0 .74-.25zM207.14 163.56l1.25-10.35 2.44-.21-1.25 10.35zm1.43-12.81a2.17 2.17 0 0 1 0-.49 1.66 1.66 0 0 1 .2-.55 1.58 1.58 0 0 1 .46-.47 1.8 1.8 0 0 1 .8-.25 1.53 1.53 0 0 1 1 .16.83.83 0 0 1 .33.65 1.9 1.9 0 0 1 0 .52 1.43 1.43 0 0 1-.22.56 1.48 1.48 0 0 1-.47.46 1.84 1.84 0 0 1-.78.23 2.18 2.18 0 0 1-.58 0 .89.89 0 0 1-.38-.15.74.74 0 0 1-.22-.28 1.41 1.41 0 0 1-.14-.39zM212.38 159.38a9.24 9.24 0 0 1 0-1.19 8 8 0 0 1 .19-1.39 7.87 7.87 0 0 1 .45-1.43 5.77 5.77 0 0 1 .79-1.33 5 5 0 0 1 1.6-1.32 6 6 0 0 1 2.31-.62 5.23 5.23 0 0 1 1.7.11 3.55 3.55 0 0 1 1.35.66 3.49 3.49 0 0 1 .92 1.23 5.28 5.28 0 0 1 .45 1.81 6.26 6.26 0 0 1 0 1.14 8.15 8.15 0 0 1-.22 1.39 8.67 8.67 0 0 1-.51 1.45 5.59 5.59 0 0 1-.85 1.35 5.45 5.45 0 0 1-.76.76 4.64 4.64 0 0 1-.86.51 5.76 5.76 0 0 1-1 .34 8.06 8.06 0 0 1-1.2.17 5.31 5.31 0 0 1-1.87-.11 3.35 3.35 0 0 1-1.31-.69 3.19 3.19 0 0 1-.81-1.2 6 6 0 0 1-.37-1.64zm2.58-.18a3 3 0 0 0 .15.73 1.25 1.25 0 0 0 .34.53 1.22 1.22 0 0 0 .55.3 2.25 2.25 0 0 0 .8.05 2.38 2.38 0 0 0 1.09-.35 3 3 0 0 0 .8-.75 4.16 4.16 0 0 0 .41-.79 5.14 5.14 0 0 0 .3-.94 6.5 6.5 0 0 0 .16-.95 4 4 0 0 0 0-.84 2.31 2.31 0 0 0-.58-1.48 1.65 1.65 0 0 0-1.39-.4 2.1 2.1 0 0 0-1.07.36 2.93 2.93 0 0 0-.78.79 4 4 0 0 0-.4.8 7 7 0 0 0-.27 1 6.82 6.82 0 0 0-.14 1 6.37 6.37 0 0 0 .07.94zM230.06 161.55l.7-5.71q.06-.53.09-1a4.71 4.71 0 0 0 0-.84.88.88 0 0 0-.28-.65 1 1 0 0 0-.67-.14 2.48 2.48 0 0 0-.77.19 5.66 5.66 0 0 0-.77.4 6.25 6.25 0 0 0-.73.54c-.24.2-.48.4-.7.61l-.83 6.91-2.44.21 1.25-10.35 2.44-.21-.16 1.34c.23-.24.48-.47.74-.7a5.79 5.79 0 0 1 .82-.58 4.63 4.63 0 0 1 .9-.43 3.9 3.9 0 0 1 1-.21 3.1 3.1 0 0 1 1.21.09 2 2 0 0 1 .81.47 1.92 1.92 0 0 1 .49.73 3.08 3.08 0 0 1 .2.91 5.39 5.39 0 0 1 0 .9 6.11 6.11 0 0 1-.06.73l-.78 6.54z"/><path class="cls-2" d="M43.84 208l.28 3.26 4.48-.39.12 1.35-4.48.4.46 5.21-1.49.13-1-11.18 6.79-.58.12 1.35zM57 216.76l-.11-1.26a6.29 6.29 0 0 1-1.33 1.2 3.08 3.08 0 0 1-1.48.56 2.65 2.65 0 0 1-1.4-.19 1.78 1.78 0 0 1-.85-.9 5.26 5.26 0 0 1-.4-1.76l-.5-5.66 1.39-.12.44 5a6.32 6.32 0 0 0 .27 1.6 1 1 0 0 0 .45.55 1.43 1.43 0 0 0 .82.12 2.63 2.63 0 0 0 1.2-.52 8.69 8.69 0 0 0 1.28-1.1l-.52-6 1.38-.13.75 8.47zM66.43 215.93l-.43-5a6.43 6.43 0 0 0-.27-1.61 1 1 0 0 0-.44-.55 1.54 1.54 0 0 0-.82-.11 2.63 2.63 0 0 0-1.21.51 7.77 7.77 0 0 0-1.26 1.12l.52 6-1.39.12-.74-8.47 1.39-.12.11 1.26a6.56 6.56 0 0 1 1.28-1.17 3.17 3.17 0 0 1 1.53-.59 2.24 2.24 0 0 1 1.87.54 3.8 3.8 0 0 1 .78 2.31l.49 5.65zM75.7 205.21l.28 3.26 4.48-.39.12 1.35-4.48.4.46 5.21-1.49.13-1-11.18 6.77-.59.12 1.35zM88.06 214l-.06-1a8.32 8.32 0 0 1-1.25 1 3 3 0 0 1-1.44.5 2.35 2.35 0 0 1-1.93-.58 2.71 2.71 0 0 1-.83-1.83 2.76 2.76 0 0 1 .22-1.48 2.36 2.36 0 0 1 .91-1 5.76 5.76 0 0 1 1.84-.65l2.07-.37v-.41a1.44 1.44 0 0 0-.66-1.28 2.76 2.76 0 0 0-1.54-.23 2.48 2.48 0 0 0-1.29.42 2.14 2.14 0 0 0-.61.7l-1.2-.59a2.58 2.58 0 0 1 1.05-1.2 4.58 4.58 0 0 1 1.94-.55 4.09 4.09 0 0 1 2.67.43 2.88 2.88 0 0 1 1 2.22l.5 5.76zm-.37-4.29l-1.35.25a4.07 4.07 0 0 0-1.9.7A1.43 1.43 0 0 0 84 212a1.38 1.38 0 0 0 .47 1.06 1.77 1.77 0 0 0 1.17.23 1.92 1.92 0 0 0 .61-.17 5 5 0 0 0 .58-.35 3.79 3.79 0 0 0 .54-.45l.51-.47zM98.38 211.8a3.22 3.22 0 0 1-1 1.21 3.56 3.56 0 0 1-1.9.61 3.47 3.47 0 0 1-2.91-.88 5.12 5.12 0 0 1-1.23-3.25 5.2 5.2 0 0 1 .64-3.44 3.32 3.32 0 0 1 2.66-1.38 3.15 3.15 0 0 1 3.11 1.33l-1.07.79a2.53 2.53 0 0 0-.81-.7 2 2 0 0 0-1.14-.18 1.86 1.86 0 0 0-1.66 1 4.8 4.8 0 0 0-.29 2.48 5.55 5.55 0 0 0 .4 1.83 2 2 0 0 0 .85.95 2.17 2.17 0 0 0 1.33.24 2.09 2.09 0 0 0 1.08-.35 2.67 2.67 0 0 0 .74-.86zM104.68 212.56a5 5 0 0 1-1.58.39 2.27 2.27 0 0 1-1.91-.51 3.37 3.37 0 0 1-.75-2.08l-.41-4.75-1.21.11-.11-1.17 1.21-.1-.2-2.36 1.39-.12.2 2.35 2.15-.19.1 1.17-2.14.19.39 4.48a3.91 3.91 0 0 0 .33 1.45.93.93 0 0 0 1 .36 2.8 2.8 0 0 0 1.12-.32zM107.52 204.7a.91.91 0 0 1-.17.73 1.18 1.18 0 0 1-.74.27.81.81 0 0 1-1-.83.89.89 0 0 1 .16-.71 1.06 1.06 0 0 1 .73-.29 1.12 1.12 0 0 1 .79.15 1 1 0 0 1 .23.68zm.6 6.76a.87.87 0 0 1-.18.73 1.15 1.15 0 0 1-.74.27 1 1 0 0 1-.79-.17 1 1 0 0 1-.26-.65 1 1 0 0 1 .16-.72 1.05 1.05 0 0 1 .73-.28 1.17 1.17 0 0 1 .79.14 1 1 0 0 1 .29.68zM122.62 207.9a3 3 0 0 1-.82 2.52 4.52 4.52 0 0 1-2.93 1.13 5.29 5.29 0 0 1-2.56-.31 4.12 4.12 0 0 1-1.8-1.51l1.14-.91a3.54 3.54 0 0 0 4.9.75 1.61 1.61 0 0 0 .56-1.42 1.46 1.46 0 0 0-.29-.81 1.84 1.84 0 0 0-.62-.52 3.55 3.55 0 0 0-.85-.3l-1-.19a26.5 26.5 0 0 1-1.57-.28 5.07 5.07 0 0 1-1.28-.44 2.53 2.53 0 0 1-.89-.8 2.75 2.75 0 0 1-.42-1.33A3 3 0 0 1 115 201a4.12 4.12 0 0 1 2.79-1.12 4.58 4.58 0 0 1 2.47.35 4.3 4.3 0 0 1 1.55 1.31l-1.11.95a3.32 3.32 0 0 0-1.16-1 3 3 0 0 0-1.64-.26 2.71 2.71 0 0 0-1.65.63 1.54 1.54 0 0 0-.49 1.34 1.31 1.31 0 0 0 .24.71 1.55 1.55 0 0 0 .56.44 3.54 3.54 0 0 0 .88.26c.34.07.74.14 1.18.2l1.48.3a4.52 4.52 0 0 1 1.25.48 2.55 2.55 0 0 1 .89.87 3.14 3.14 0 0 1 .38 1.44zM130 210.34l-.09-1.06a7.75 7.75 0 0 1-1.22 1.05 2.92 2.92 0 0 1-1.44.5 2.41 2.41 0 0 1-1.94-.57 2.74 2.74 0 0 1-.82-1.84 2.88 2.88 0 0 1 .21-1.48 2.44 2.44 0 0 1 .92-1 5.69 5.69 0 0 1 1.84-.64l2.07-.37v-.41a1.5 1.5 0 0 0-.66-1.29 2.78 2.78 0 0 0-1.54-.22 2.49 2.49 0 0 0-1.29.41 1.87 1.87 0 0 0-.61.71l-1.2-.6a2.53 2.53 0 0 1 1.09-1.18 4.69 4.69 0 0 1 1.94-.55 4.18 4.18 0 0 1 2.67.43 2.85 2.85 0 0 1 1 2.23l.51 5.76zm-.38-4.3l-1.34.25a4 4 0 0 0-1.9.71 1.41 1.41 0 0 0-.46 1.26 1.38 1.38 0 0 0 .48 1.06 1.64 1.64 0 0 0 1.16.23 2 2 0 0 0 .62-.17 4.18 4.18 0 0 0 1.12-.79q.25-.26.51-.48zM139.39 209.51l-.44-5a7.11 7.11 0 0 0-.26-1.6 1 1 0 0 0-.45-.55 1.32 1.32 0 0 0-.81-.11 2.59 2.59 0 0 0-1.21.51 8.75 8.75 0 0 0-1.29 1.1l.53 6-1.39.12-.74-8.47 1.38-.12.12 1.26a6.28 6.28 0 0 1 1.28-1.17 3 3 0 0 1 1.53-.59 2.18 2.18 0 0 1 1.86.54 3.68 3.68 0 0 1 .78 2.31l.5 5.65zM150.18 208.38a3.46 3.46 0 0 1-.62 2.61 3.87 3.87 0 0 1-2.73 1.08 5.49 5.49 0 0 1-3.14-.52l.42-1.17a4.35 4.35 0 0 0 2.62.54 2.47 2.47 0 0 0 1.67-.65 2.12 2.12 0 0 0 .39-1.68l-.09-1a4.42 4.42 0 0 1-1.07.87 3.2 3.2 0 0 1-1.41.44 2.78 2.78 0 0 1-2.47-.9 5.43 5.43 0 0 1-1.1-3.14 5.14 5.14 0 0 1 .63-3.31 3 3 0 0 1 2.39-1.38 3.55 3.55 0 0 1 2.44.73l-.06-.7 1.4-.12zm-2-6.26a3.49 3.49 0 0 0-2.26-.72 1.8 1.8 0 0 0-1.53 1 4.12 4.12 0 0 0-.34 2.35 4.27 4.27 0 0 0 .71 2.33 1.73 1.73 0 0 0 1.58.6 3.34 3.34 0 0 0 2.21-1.29zM162.22 207.5l-.1-1.05a8.26 8.26 0 0 1-1.21 1.05 3.07 3.07 0 0 1-1.45.5 2.38 2.38 0 0 1-1.93-.57 3.12 3.12 0 0 1-.61-3.32 2.42 2.42 0 0 1 .91-1 5.55 5.55 0 0 1 1.84-.64l2.07-.37v-.42a1.45 1.45 0 0 0-.66-1.28 2.73 2.73 0 0 0-1.53-.22 2.53 2.53 0 0 0-1.3.41 2.07 2.07 0 0 0-.61.71l-1.2-.6a2.58 2.58 0 0 1 1.09-1.18 4.63 4.63 0 0 1 1.94-.55 4.2 4.2 0 0 1 2.68.43 2.92 2.92 0 0 1 1 2.23l.51 5.75zm-.38-4.29l-1.35.25a4 4 0 0 0-1.89.71 1.67 1.67 0 0 0 0 2.32 1.71 1.71 0 0 0 1.17.23 1.92 1.92 0 0 0 .61-.17 3.89 3.89 0 0 0 .58-.35 4.51 4.51 0 0 0 .54-.44l.51-.48zM170.35 206.79a5.56 5.56 0 0 1-1.57.39 2.26 2.26 0 0 1-1.91-.52 3.23 3.23 0 0 1-.75-2.08l-.42-4.74-1.21.1-.1-1.16 1.21-.11-.21-2.36 1.39-.12.21 2.36 2.14-.19.11 1.16-2.15.19.39 4.48a3.7 3.7 0 0 0 .34 1.46.91.91 0 0 0 1 .36 2.76 2.76 0 0 0 1.12-.33zM180.71 205.88a5.71 5.71 0 0 1-1.58.39 2.26 2.26 0 0 1-1.91-.52 3.23 3.23 0 0 1-.75-2.08l-.42-4.74-1.21.1-.1-1.16 1.21-.11-.21-2.35 1.39-.13.21 2.36 2.15-.19.1 1.16-2.15.19.39 4.49a3.69 3.69 0 0 0 .34 1.45.91.91 0 0 0 1 .36 2.76 2.76 0 0 0 1.12-.33zM187.68 205.27l-.44-5a6.46 6.46 0 0 0-.26-1.6 1 1 0 0 0-.44-.55 1.43 1.43 0 0 0-.82-.12 2.59 2.59 0 0 0-1.21.51 8.84 8.84 0 0 0-1.29 1.11l.53 6-1.39.12-1.06-12 1.39-.12.43 4.81a6.54 6.54 0 0 1 1.28-1.16 3.12 3.12 0 0 1 1.53-.6 2.21 2.21 0 0 1 1.86.54 3.68 3.68 0 0 1 .78 2.31l.5 5.65zM192.4 200.75a3.84 3.84 0 0 0 .79 2.34 2.21 2.21 0 0 0 1.9.56 1.9 1.9 0 0 0 1-.33 2.62 2.62 0 0 0 .76-.84l1.21.61a3.46 3.46 0 0 1-1.08 1.22 3.89 3.89 0 0 1-1.85.56 3.51 3.51 0 0 1-2.92-.85 5 5 0 0 1-1.22-3.24 5.35 5.35 0 0 1 .6-3.51 3.31 3.31 0 0 1 2.65-1.35 3.07 3.07 0 0 1 2.55.73 4.31 4.31 0 0 1 1.08 2.84l.07.78zm4.06-1.45a3 3 0 0 0-.64-1.73 1.77 1.77 0 0 0-1.56-.5 1.89 1.89 0 0 0-1.44.7 3.51 3.51 0 0 0-.5 1.89zM212.28 200a3 3 0 0 1-.81 2.52 4.62 4.62 0 0 1-2.94 1.13 5.41 5.41 0 0 1-2.56-.31 4.18 4.18 0 0 1-1.8-1.51l1.15-.92a3.52 3.52 0 0 0 4.89.76 1.59 1.59 0 0 0 .56-1.42 1.52 1.52 0 0 0-.29-.82 1.83 1.83 0 0 0-.62-.51 2.76 2.76 0 0 0-.85-.3l-1-.19a33 33 0 0 1-1.57-.28 4.48 4.48 0 0 1-1.28-.45 2.46 2.46 0 0 1-.9-.79 2.79 2.79 0 0 1-.42-1.34 3 3 0 0 1 .75-2.43 4.14 4.14 0 0 1 2.81-1.14 4.49 4.49 0 0 1 2.47.35 4.3 4.3 0 0 1 1.55 1.31l-1.11.94a3.28 3.28 0 0 0-1.16-1 2.92 2.92 0 0 0-1.64-.26 2.65 2.65 0 0 0-1.65.63 1.54 1.54 0 0 0-.49 1.34 1.25 1.25 0 0 0 .24.7 1.43 1.43 0 0 0 .57.45 3.33 3.33 0 0 0 .87.26c.34.07.74.13 1.18.2s1 .19 1.48.3a4.52 4.52 0 0 1 1.25.48 2.55 2.55 0 0 1 .89.87 3 3 0 0 1 .43 1.43zM220.11 202.42l-.11-1.26a6.54 6.54 0 0 1-1.33 1.2 3.08 3.08 0 0 1-1.48.56 2.64 2.64 0 0 1-1.4-.19 1.8 1.8 0 0 1-.86-.9 5.56 5.56 0 0 1-.39-1.76l-.5-5.66 1.39-.12.44 5a6.32 6.32 0 0 0 .27 1.6.94.94 0 0 0 .45.55 1.39 1.39 0 0 0 .81.12 2.63 2.63 0 0 0 1.2-.52 8.75 8.75 0 0 0 1.29-1.1l-.53-6 1.39-.13.75 8.47zM231 197.13a5.43 5.43 0 0 1-.61 3.39A2.93 2.93 0 0 1 228 202a3.57 3.57 0 0 1-2.45-.73l.34 3.88-1.39.12-1-11.66 1.39-.12.07.85a4.12 4.12 0 0 1 1.08-.88 3.43 3.43 0 0 1 1.41-.44 2.77 2.77 0 0 1 2.45.94 5.49 5.49 0 0 1 1.1 3.17zm-1.43.16c-.19-2.14-1-3.16-2.3-3a2.73 2.73 0 0 0-1.24.44 5.12 5.12 0 0 0-1 .85l.39 4.49a3.46 3.46 0 0 0 2.26.72 1.89 1.89 0 0 0 1.48-.93 4.07 4.07 0 0 0 .43-2.57zM234.37 197.06a4 4 0 0 0 .78 2.35 2.27 2.27 0 0 0 1.91.55 1.9 1.9 0 0 0 1-.33 2.74 2.74 0 0 0 .76-.84l1.21.61a3.46 3.46 0 0 1-1.08 1.22 3.89 3.89 0 0 1-1.85.56 3.51 3.51 0 0 1-2.92-.85 5 5 0 0 1-1.22-3.24 5.35 5.35 0 0 1 .6-3.51 3.31 3.31 0 0 1 2.65-1.35 3.08 3.08 0 0 1 2.55.73 4.41 4.41 0 0 1 1.08 2.84l.07.78zm4.06-1.45a3 3 0 0 0-.64-1.73 1.77 1.77 0 0 0-1.56-.5 1.92 1.92 0 0 0-1.44.7 3.51 3.51 0 0 0-.5 1.89zM246.4 193a1.79 1.79 0 0 0-.65 0 2.68 2.68 0 0 0-1.18.4 5.57 5.57 0 0 0-1.25 1.17l.52 5.85-1.39.12-.75-8.54 1.39-.12.12 1.37a10.26 10.26 0 0 1 1.13-1.15 2.43 2.43 0 0 1 1.39-.58 1.7 1.7 0 0 1 .85.1zM248.13 196.37L248 195l5-.44.12 1.39zM52.47 231.52a8.37 8.37 0 0 1-.24 3.31 3.53 3.53 0 0 1-1.48 1.91 7 7 0 0 1-3 .83l-2.85.25-1-11.18 2.81-.24a6.92 6.92 0 0 1 3.13.29 3.46 3.46 0 0 1 1.83 1.63 8.21 8.21 0 0 1 .8 3.2zm-1.58.12a7 7 0 0 0-.57-2.47A2.38 2.38 0 0 0 49 228a5.34 5.34 0 0 0-2.31-.21l-1.25.11.75 8.47 1.24-.11a5 5 0 0 0 2.24-.61 2.38 2.38 0 0 0 1-1.41 6.89 6.89 0 0 0 .22-2.6zM61.94 232.07a5.07 5.07 0 0 1-.66 3.42 3.4 3.4 0 0 1-2.66 1.37 3.47 3.47 0 0 1-2.88-.87 6.42 6.42 0 0 1-.59-6.73 3.47 3.47 0 0 1 2.68-1.36 3.41 3.41 0 0 1 2.87.89 5.13 5.13 0 0 1 1.24 3.28zm-1.44.13a4.32 4.32 0 0 0-.79-2.47 2.29 2.29 0 0 0-3.44.31 5.81 5.81 0 0 0 .41 5 2.31 2.31 0 0 0 3.48-.29 4.37 4.37 0 0 0 .34-2.55zM74.38 235.22l-.44-5a8.4 8.4 0 0 0-.24-1.65.87.87 0 0 0-.39-.53 1.36 1.36 0 0 0-.75-.1 2.08 2.08 0 0 0-.92.39 7.76 7.76 0 0 0-1.27 1.21l.52 6-1.39.12-.44-5a9.81 9.81 0 0 0-.23-1.6 1 1 0 0 0-.39-.57 1.22 1.22 0 0 0-.74-.11 2.29 2.29 0 0 0-1 .45 7.28 7.28 0 0 0-1.21 1.17l.53 6-1.39.12-.75-8.47 1.39-.12.11 1.26a6.59 6.59 0 0 1 1.14-1.16 2.59 2.59 0 0 1 1.41-.58 2.14 2.14 0 0 1 1.4.28 2 2 0 0 1 .8 1.2 8.6 8.6 0 0 1 1.24-1.3 2.63 2.63 0 0 1 1.49-.61 2.19 2.19 0 0 1 1.27.21 2 2 0 0 1 .77.89 5.79 5.79 0 0 1 .37 1.77l.5 5.65zM79.1 230.71a3.91 3.91 0 0 0 .78 2.34 2.24 2.24 0 0 0 1.91.55 2 2 0 0 0 1-.32 2.92 2.92 0 0 0 .76-.85l1.21.61a3.62 3.62 0 0 1-1.09 1.23 3.85 3.85 0 0 1-1.84.55 3.5 3.5 0 0 1-2.92-.85 4.94 4.94 0 0 1-1.22-3.23 5.39 5.39 0 0 1 .6-3.52 3.36 3.36 0 0 1 2.65-1.35 3.12 3.12 0 0 1 2.55.73 4.44 4.44 0 0 1 1.08 2.85l.07.77zm4.06-1.46a3.05 3.05 0 0 0-.64-1.72A1.74 1.74 0 0 0 81 227a1.89 1.89 0 0 0-1.44.7 3.42 3.42 0 0 0-.5 1.89zM92.32 223a.84.84 0 0 1-.16.67 1.16 1.16 0 0 1-.68.24.92.92 0 0 1-.73-.16.87.87 0 0 1-.24-.59.82.82 0 0 1 .15-.65 1 1 0 0 1 .67-.26 1.06 1.06 0 0 1 .72.13.86.86 0 0 1 .27.62zm-.68 10.75l-.74-8.47 1.39-.12.74 8.47zM101.1 232.87l-.44-5a6.41 6.41 0 0 0-.27-1.6 1 1 0 0 0-.44-.55 1.54 1.54 0 0 0-.82-.11 2.63 2.63 0 0 0-1.21.51 8.21 8.21 0 0 0-1.28 1.11l.52 6-1.38.12-.78-8.48 1.39-.12.11 1.26a6.86 6.86 0 0 1 1.28-1.17 3.17 3.17 0 0 1 1.54-.59 2.23 2.23 0 0 1 1.86.54 3.8 3.8 0 0 1 .78 2.31l.5 5.65zM116.21 231.55l-5.89-9.15.85 9.59-1.44.12-1-11.17 2.18-.19 5.4 8.37-.77-8.78 1.44-.12 1 11.17zM121.47 227a3.9 3.9 0 0 0 .79 2.35 2.24 2.24 0 0 0 1.9.55 1.9 1.9 0 0 0 1-.33 2.62 2.62 0 0 0 .76-.84l1.21.61a3.46 3.46 0 0 1-1.08 1.22 3.89 3.89 0 0 1-1.85.56 3.51 3.51 0 0 1-2.92-.85A5.1 5.1 0 0 1 120 227a5.35 5.35 0 0 1 .6-3.51 3.32 3.32 0 0 1 2.65-1.35 3.06 3.06 0 0 1 2.55.73 4.31 4.31 0 0 1 1.08 2.84l.07.78zm4.06-1.45a3 3 0 0 0-.64-1.73 1.77 1.77 0 0 0-1.56-.5 1.92 1.92 0 0 0-1.44.7 3.51 3.51 0 0 0-.5 1.89zM137.49 229.67l-1.3.12-2.63-6.3-1.5 6.66-1.27.11-2.85-8.26 1.45-.13 2 6.33 1.45-6.63 1.16-.1 2.63 6.27.81-6.58 1.38-.12zM154.11 222.58a7 7 0 0 1-.74 4.52 4.85 4.85 0 0 1-6.85.58 9.28 9.28 0 0 1-.78-8.78 4.1 4.1 0 0 1 3.31-1.74 4.15 4.15 0 0 1 3.55 1.11 7.09 7.09 0 0 1 1.51 4.31zm-1.56.14a6.58 6.58 0 0 0-1-3.35 2.95 2.95 0 0 0-4.56.41 8.69 8.69 0 0 0 .6 6.82 3 3 0 0 0 4.55-.39 6.49 6.49 0 0 0 .41-3.49zM160.89 220.47a1.61 1.61 0 0 0-.65 0 2.54 2.54 0 0 0-1.18.39 5.37 5.37 0 0 0-1.25 1.17l.52 5.85-1.39.13-.75-8.47 1.39-.13.12 1.38a9.56 9.56 0 0 1 1.13-1.16 2.47 2.47 0 0 1 1.39-.58 1.7 1.7 0 0 1 .85.1zM163.55 227.38l-1.06-12 1.39-.12 1.06 12zM168.4 222.86a3.91 3.91 0 0 0 .78 2.34 2.24 2.24 0 0 0 1.91.55 2 2 0 0 0 1-.32 2.84 2.84 0 0 0 .75-.84l1.21.6a3.5 3.5 0 0 1-1.08 1.23 3.85 3.85 0 0 1-1.84.55 3.5 3.5 0 0 1-2.92-.85 5 5 0 0 1-1.23-3.23 5.44 5.44 0 0 1 .61-3.52 3.36 3.36 0 0 1 2.61-1.37 3.13 3.13 0 0 1 2.56.73 4.47 4.47 0 0 1 1.08 2.85l.07.77zm4-1.46a3 3 0 0 0-.63-1.72 1.74 1.74 0 0 0-1.56-.5 1.85 1.85 0 0 0-1.44.7 3.42 3.42 0 0 0-.5 1.89zM181.29 225.83l-.1-1.06a8.26 8.26 0 0 1-1.21 1 3.07 3.07 0 0 1-1.45.5 2.35 2.35 0 0 1-1.93-.58 2.75 2.75 0 0 1-.83-1.83 2.78 2.78 0 0 1 .22-1.48 2.42 2.42 0 0 1 .91-1 5.83 5.83 0 0 1 1.85-.65l2.06-.36v-.42a1.46 1.46 0 0 0-.67-1.28 2.65 2.65 0 0 0-1.53-.22 2.53 2.53 0 0 0-1.3.41 2.07 2.07 0 0 0-.61.71l-1.2-.6a2.58 2.58 0 0 1 1.09-1.18 4.63 4.63 0 0 1 1.94-.55 4.13 4.13 0 0 1 2.68.43 2.92 2.92 0 0 1 1 2.23l.51 5.75zm-.38-4.3l-1.34.25a4 4 0 0 0-1.9.71 1.67 1.67 0 0 0 0 2.32 1.74 1.74 0 0 0 1.17.23 1.92 1.92 0 0 0 .61-.17 3.89 3.89 0 0 0 .58-.35 4.51 4.51 0 0 0 .54-.44l.51-.48zM190.68 225l-.44-5a7 7 0 0 0-.26-1.6 1.08 1.08 0 0 0-.45-.56 1.52 1.52 0 0 0-.82-.11 2.63 2.63 0 0 0-1.2.52 8.75 8.75 0 0 0-1.29 1.1l.53 6-1.39.13-.75-8.47 1.39-.13.11 1.26a7.17 7.17 0 0 1 1.28-1.16 3.07 3.07 0 0 1 1.54-.59 2.17 2.17 0 0 1 1.86.53 3.86 3.86 0 0 1 .78 2.32l.5 5.65zM200.34 221.85a2.29 2.29 0 0 1-.68 1.93 3.74 3.74 0 0 1-2.33.89 4.34 4.34 0 0 1-1.93-.24 2.55 2.55 0 0 1-1.33-1l1.05-.78a2.66 2.66 0 0 0 3.49.37 1.13 1.13 0 0 0 .37-1 1 1 0 0 0-.21-.56 1.31 1.31 0 0 0-.53-.34 9.81 9.81 0 0 0-1.43-.33 4.41 4.41 0 0 1-2.21-.77 2.18 2.18 0 0 1-.76-1.58 2.25 2.25 0 0 1 .64-1.87 3.38 3.38 0 0 1 2.18-.87 3.6 3.6 0 0 1 1.9.27 2.87 2.87 0 0 1 1.19.95l-1.05.78a2.13 2.13 0 0 0-2-.83 2.2 2.2 0 0 0-1.15.41 1 1 0 0 0-.39 1 .92.92 0 0 0 .49.8 4.72 4.72 0 0 0 1.36.36 8.25 8.25 0 0 1 2.05.52 2.18 2.18 0 0 1 .88.72 2.57 2.57 0 0 1 .4 1.17zM213.87 218.71a5.07 5.07 0 0 1-.66 3.42 3.39 3.39 0 0 1-2.66 1.37 3.46 3.46 0 0 1-2.88-.87 6.36 6.36 0 0 1-.59-6.73 3.5 3.5 0 0 1 2.68-1.36 3.45 3.45 0 0 1 2.87.89 5.24 5.24 0 0 1 1.24 3.28zm-1.44.13a4.31 4.31 0 0 0-.79-2.46 2.29 2.29 0 0 0-3.44.31 4.36 4.36 0 0 0-.35 2.55 4.44 4.44 0 0 0 .76 2.41 2.32 2.32 0 0 0 3.48-.3 4.37 4.37 0 0 0 .34-2.51zM221.88 222.26l-.44-5a6.52 6.52 0 0 0-.27-1.61 1 1 0 0 0-.44-.55 1.54 1.54 0 0 0-.82-.11 2.56 2.56 0 0 0-1.21.52 7.7 7.7 0 0 0-1.28 1.1l.52 6-1.39.12-.74-8.47 1.39-.12.11 1.26a6.84 6.84 0 0 1 1.28-1.16 3.19 3.19 0 0 1 1.53-.6 2.24 2.24 0 0 1 1.87.54 3.8 3.8 0 0 1 .78 2.31l.49 5.66zM226 221.89l-1.06-12 1.39-.12 1.06 12zM229.31 223.42a3.08 3.08 0 0 0 1.24.13q1-.09 1.5-1.92l.22-.75-3.8-7.74L230 213l2.88 6 1.8-6.41 1.46-.13-2.82 9.43a5.32 5.32 0 0 1-1 2.08 2.53 2.53 0 0 1-1.65.73 4.52 4.52 0 0 1-.82 0 5 5 0 0 1-.71-.1zM247.3 220a5 5 0 0 1-1.58.39 2.26 2.26 0 0 1-1.91-.51 3.4 3.4 0 0 1-.75-2.08l-.41-4.75-1.22.1-.1-1.16 1.21-.1-.2-2.36 1.38-.12.21 2.35 2.15-.19.1 1.17-2.18.26.4 4.48a3.91 3.91 0 0 0 .33 1.45.92.92 0 0 0 1 .36 2.8 2.8 0 0 0 1.12-.32zM255.45 215.06a5.07 5.07 0 0 1-.66 3.42 3.4 3.4 0 0 1-2.66 1.37 3.51 3.51 0 0 1-2.88-.87 6.42 6.42 0 0 1-.59-6.73 3.47 3.47 0 0 1 2.68-1.36 3.41 3.41 0 0 1 2.87.89 5.19 5.19 0 0 1 1.24 3.28zm-1.44.13a4.32 4.32 0 0 0-.79-2.47 2.29 2.29 0 0 0-3.44.31 5.81 5.81 0 0 0 .41 5 2.31 2.31 0 0 0 3.48-.29 4.37 4.37 0 0 0 .33-2.55zM50.55 250.16a1.79 1.79 0 0 0-.65 0 2.79 2.79 0 0 0-1.18.39 5.85 5.85 0 0 0-1.25 1.17l.52 5.86-1.39.12-.75-8.47 1.39-.12.12 1.37a10.26 10.26 0 0 1 1.13-1.15 2.43 2.43 0 0 1 1.39-.58 1.84 1.84 0 0 1 .85.09zM53.3 253a3.84 3.84 0 0 0 .79 2.34 2.22 2.22 0 0 0 1.9.56 2 2 0 0 0 1-.33 2.52 2.52 0 0 0 .76-.84l1.21.61a3.46 3.46 0 0 1-1.08 1.22 3.89 3.89 0 0 1-1.85.56 3.54 3.54 0 0 1-2.92-.85 5.1 5.1 0 0 1-1.25-3.27 5.35 5.35 0 0 1 .61-3.51 3.34 3.34 0 0 1 2.64-1.36 3.1 3.1 0 0 1 2.55.74 4.31 4.31 0 0 1 1.08 2.84l.07.78zm4.06-1.45a3 3 0 0 0-.64-1.73 1.75 1.75 0 0 0-1.56-.5 1.89 1.89 0 0 0-1.44.7 3.51 3.51 0 0 0-.5 1.89zM66.19 255.94l-.09-1.06a7.26 7.26 0 0 1-1.22 1.05 2.89 2.89 0 0 1-1.44.5 2.42 2.42 0 0 1-1.94-.57 2.79 2.79 0 0 1-.82-1.84 2.88 2.88 0 0 1 .21-1.48 2.44 2.44 0 0 1 .92-1 5.78 5.78 0 0 1 1.84-.64l2.07-.37v-.41a1.51 1.51 0 0 0-.66-1.29 2.78 2.78 0 0 0-1.54-.22 2.49 2.49 0 0 0-1.29.41 2.05 2.05 0 0 0-.61.71l-1.2-.6a2.58 2.58 0 0 1 1.05-1.13 4.73 4.73 0 0 1 1.94-.55 4.08 4.08 0 0 1 2.67.44 2.85 2.85 0 0 1 1 2.22l.5 5.76zm-.37-4.3l-1.35.25a4 4 0 0 0-1.9.71 1.44 1.44 0 0 0-.46 1.26 1.42 1.42 0 0 0 .48 1.06 1.66 1.66 0 0 0 1.17.23 1.69 1.69 0 0 0 .61-.17 4.88 4.88 0 0 0 .58-.34 5.85 5.85 0 0 0 .54-.45l.51-.48zM70.33 255.57l-1.06-12 1.39-.12 1.06 12zM75.2 244.45a.8.8 0 0 1-.16.67 1.13 1.13 0 0 1-.68.24.89.89 0 0 1-.72-.16.87.87 0 0 1-.25-.59.86.86 0 0 1 .16-.65 1 1 0 0 1 .66-.26 1.06 1.06 0 0 1 .72.13.86.86 0 0 1 .27.62zm-.67 10.76l-.75-8.47 1.39-.13.74 8.47zM78 254.9l-.09-1.05 3.86-6.64-4.32.38-.1-1.16 6-.53.09 1-3.88 6.68 4.56-.4.11 1.17zM86.85 250a3.9 3.9 0 0 0 .79 2.35 2.23 2.23 0 0 0 1.9.55 1.9 1.9 0 0 0 1-.33 2.74 2.74 0 0 0 .76-.84l1.21.61a3.46 3.46 0 0 1-1.08 1.22 3.89 3.89 0 0 1-1.85.56 3.51 3.51 0 0 1-2.92-.85 5 5 0 0 1-1.22-3.24 5.35 5.35 0 0 1 .6-3.51 3.34 3.34 0 0 1 2.65-1.36 3.11 3.11 0 0 1 2.55.74 4.41 4.41 0 0 1 1.08 2.84l.07.78zm4.06-1.45a3 3 0 0 0-.64-1.73 1.77 1.77 0 0 0-1.56-.5 1.89 1.89 0 0 0-1.44.7 3.51 3.51 0 0 0-.5 1.89zM103.62 252.65a5.56 5.56 0 0 1-1.57.39 2.29 2.29 0 0 1-1.91-.52 3.26 3.26 0 0 1-.75-2.08l-.39-4.75-1.21.11-.1-1.16 1.21-.11-.21-2.36 1.39-.12.21 2.36 2.14-.19.11 1.16-2.15.19.39 4.48a3.59 3.59 0 0 0 .34 1.45.89.89 0 0 0 1 .37 3 3 0 0 0 1.12-.33zM110.6 252l-.44-5a7.12 7.12 0 0 0-.26-1.61 1 1 0 0 0-.44-.55 1.52 1.52 0 0 0-.82-.11 2.59 2.59 0 0 0-1.21.51 8.27 8.27 0 0 0-1.29 1.11l.53 6-1.39.12-1.06-12 1.39-.12.42 4.81a6.86 6.86 0 0 1 1.28-1.17 3.17 3.17 0 0 1 1.54-.59 2.21 2.21 0 0 1 1.86.54 3.8 3.8 0 0 1 .78 2.31l.5 5.65zM115.32 247.52a3.91 3.91 0 0 0 .78 2.34 2.27 2.27 0 0 0 1.91.56 2.11 2.11 0 0 0 1-.33 2.74 2.74 0 0 0 .76-.84l1.21.61a3.59 3.59 0 0 1-1.09 1.22 3.85 3.85 0 0 1-1.84.55 3.51 3.51 0 0 1-2.92-.85 5 5 0 0 1-1.22-3.23 5.4 5.4 0 0 1 .6-3.52 3.36 3.36 0 0 1 2.65-1.35 3.15 3.15 0 0 1 2.55.73 4.47 4.47 0 0 1 1.08 2.85l.07.77zm4.06-1.46a3 3 0 0 0-.64-1.72 1.77 1.77 0 0 0-1.56-.5 1.89 1.89 0 0 0-1.44.7 3.42 3.42 0 0 0-.5 1.89zM134.65 245.59a5.59 5.59 0 0 1-.59 3.42 2.84 2.84 0 0 1-2.34 1.42 3.3 3.3 0 0 1-1.35-.16 4.17 4.17 0 0 1-1.18-.57l.06.7-1.39.12-1-12 1.38-.12.39 4.4a4.29 4.29 0 0 1 1.08-.87 3.28 3.28 0 0 1 1.41-.44 2.74 2.74 0 0 1 2.48.93 5.69 5.69 0 0 1 1.05 3.17zm-1.44.16a4.51 4.51 0 0 0-.73-2.41 1.74 1.74 0 0 0-1.57-.63 2.56 2.56 0 0 0-1.22.45 4.93 4.93 0 0 0-1 .85l.39 4.48a4.42 4.42 0 0 0 1.13.56 2.86 2.86 0 0 0 1.21.15 1.79 1.79 0 0 0 1.44-.92 4.32 4.32 0 0 0 .35-2.53zM138 245.53a3.84 3.84 0 0 0 .79 2.34 2.2 2.2 0 0 0 1.9.55 2 2 0 0 0 1-.32 2.78 2.78 0 0 0 .76-.85l1.21.61a3.38 3.38 0 0 1-1.08 1.22 3.78 3.78 0 0 1-1.85.56 3.51 3.51 0 0 1-2.92-.85 5 5 0 0 1-1.22-3.23 5.39 5.39 0 0 1 .6-3.52 3.36 3.36 0 0 1 2.65-1.35 3.1 3.1 0 0 1 2.55.73 4.32 4.32 0 0 1 1.08 2.85l.07.77zm4.06-1.46a3 3 0 0 0-.64-1.72 1.74 1.74 0 0 0-1.56-.5 1.89 1.89 0 0 0-1.44.7 3.51 3.51 0 0 0-.5 1.89zM151.66 246.12a2.28 2.28 0 0 1-.68 1.94 3.74 3.74 0 0 1-2.33.88 4.36 4.36 0 0 1-1.93-.23 2.62 2.62 0 0 1-1.33-1l1.06-.78a2.24 2.24 0 0 0 2.14.85 2.21 2.21 0 0 0 1.34-.47 1.14 1.14 0 0 0 .38-1 1 1 0 0 0-.22-.56 1.33 1.33 0 0 0-.53-.35 8.93 8.93 0 0 0-1.43-.32 4.45 4.45 0 0 1-2.21-.78 2.19 2.19 0 0 1-.76-1.57 2.24 2.24 0 0 1 .65-1.88A3.35 3.35 0 0 1 148 240a3.81 3.81 0 0 1 1.9.27 2.9 2.9 0 0 1 1.19 1l-1 .77a2.32 2.32 0 0 0-3.11-.42 1.05 1.05 0 0 0-.4 1 .89.89 0 0 0 .49.79 4.72 4.72 0 0 0 1.36.36 9.27 9.27 0 0 1 2 .52 2.22 2.22 0 0 1 .88.73 2.57 2.57 0 0 1 .35 1.1zM158.14 247.86a5.63 5.63 0 0 1-1.58.39 2.29 2.29 0 0 1-1.91-.52 3.37 3.37 0 0 1-.75-2.08l-.42-4.75-1.21.11-.1-1.17 1.21-.1-.2-2.36 1.38-.12.21 2.36 2.15-.19.1 1.16-2.15.19.4 4.48a3.86 3.86 0 0 0 .33 1.45.91.91 0 0 0 1 .37 3 3 0 0 0 1.12-.33zM169.07 246.89l-.09-1a8.32 8.32 0 0 1-1.22 1 3 3 0 0 1-1.44.5 2.37 2.37 0 0 1-1.94-.58 2.74 2.74 0 0 1-.82-1.83 2.87 2.87 0 0 1 .21-1.48 2.44 2.44 0 0 1 .92-1 5.46 5.46 0 0 1 1.84-.64l2.07-.38v-.41a1.48 1.48 0 0 0-.66-1.28 2.7 2.7 0 0 0-1.54-.22 2.49 2.49 0 0 0-1.29.41 1.87 1.87 0 0 0-.61.71l-1.2-.6a2.58 2.58 0 0 1 1.09-1.18 4.54 4.54 0 0 1 1.94-.55 4.1 4.1 0 0 1 2.67.43 2.85 2.85 0 0 1 1 2.23l.51 5.75zm-.38-4.29l-1.34.25a4 4 0 0 0-1.9.71 1.44 1.44 0 0 0-.46 1.26 1.38 1.38 0 0 0 .48 1.06 1.71 1.71 0 0 0 1.17.23 1.92 1.92 0 0 0 .61-.17 4.88 4.88 0 0 0 1.12-.79q.25-.26.51-.48zM178.4 246.08l-.11-1.26A7.19 7.19 0 0 1 177 246a3.08 3.08 0 0 1-1.48.56 2.65 2.65 0 0 1-1.4-.19 1.84 1.84 0 0 1-.86-.9 5.56 5.56 0 0 1-.39-1.76l-.5-5.66 1.39-.12.44 5a6.32 6.32 0 0 0 .27 1.6 1 1 0 0 0 .45.55 1.32 1.32 0 0 0 .81.11 2.6 2.6 0 0 0 1.2-.51 9.41 9.41 0 0 0 1.29-1.1l-.53-6 1.39-.13.75 8.47zM187.87 245.24l-.08-.84a4.23 4.23 0 0 1-1.07.88 3.43 3.43 0 0 1-1.41.44 2.75 2.75 0 0 1-2.45-.94 5.48 5.48 0 0 1-1.12-3.2 5.53 5.53 0 0 1 .61-3.39 2.94 2.94 0 0 1 2.39-1.45 3.5 3.5 0 0 1 2.44.73l-.37-4.25 1.4-.12 1 12zm-.58-6.56A3.43 3.43 0 0 0 185 238a1.85 1.85 0 0 0-1.48.93 4.15 4.15 0 0 0-.38 2.53c.19 2.14 1 3.15 2.3 3a2.62 2.62 0 0 0 1.24-.44 5.45 5.45 0 0 0 1-.85zM192.68 234.12a.8.8 0 0 1-.16.68 1.11 1.11 0 0 1-.68.23.94.94 0 0 1-.72-.15 1 1 0 0 1-.25-.6.86.86 0 0 1 .16-.65 1 1 0 0 1 .67-.25 1 1 0 0 1 .72.13.78.78 0 0 1 .26.61zm-.68 10.76l-.74-8.47 1.38-.12.75 8.47zM196.8 240.36a3.78 3.78 0 0 0 .78 2.34 2.21 2.21 0 0 0 1.9.55 2 2 0 0 0 1-.32 2.66 2.66 0 0 0 .76-.85l1.21.61a3.5 3.5 0 0 1-1.08 1.23 3.9 3.9 0 0 1-1.85.55 3.51 3.51 0 0 1-2.92-.85 5 5 0 0 1-1.22-3.23 5.38 5.38 0 0 1 .61-3.52 3.36 3.36 0 0 1 2.64-1.35 3.09 3.09 0 0 1 2.55.73 4.34 4.34 0 0 1 1.08 2.85l.07.77zm4-1.46a3 3 0 0 0-.64-1.72 1.72 1.72 0 0 0-1.56-.5 1.89 1.89 0 0 0-1.44.7 3.51 3.51 0 0 0-.49 1.89zM210.19 243.28l-.44-5a6.46 6.46 0 0 0-.26-1.6 1 1 0 0 0-.45-.56 1.49 1.49 0 0 0-.81-.11 2.62 2.62 0 0 0-1.21.52 8.75 8.75 0 0 0-1.29 1.1l.53 6-1.39.12-.74-8.47 1.39-.12.11 1.26a6.56 6.56 0 0 1 1.28-1.17 3 3 0 0 1 1.53-.59 2.17 2.17 0 0 1 1.86.53 3.74 3.74 0 0 1 .78 2.32l.5 5.65zM220.51 241.06a3.3 3.3 0 0 1-1 1.21 3.68 3.68 0 0 1-1.9.61 3.47 3.47 0 0 1-2.91-.88 5.12 5.12 0 0 1-1.24-3.25 5.19 5.19 0 0 1 .65-3.44 3.36 3.36 0 0 1 2.66-1.39 3.17 3.17 0 0 1 3.11 1.29l-1.08.79a2.51 2.51 0 0 0-.8-.7 2.12 2.12 0 0 0-1.14-.17 1.84 1.84 0 0 0-1.66 1 4.93 4.93 0 0 0-.3 2.49 5.65 5.65 0 0 0 .41 1.83 2.07 2.07 0 0 0 .84 1 2.22 2.22 0 0 0 1.34.24 2.19 2.19 0 0 0 1.08-.35 2.78 2.78 0 0 0 .74-.86zM223.23 238a4 4 0 0 0 .78 2.35 2.24 2.24 0 0 0 1.91.55 1.94 1.94 0 0 0 1-.33 2.74 2.74 0 0 0 .76-.84l1.2.61a3.46 3.46 0 0 1-1.08 1.22 3.85 3.85 0 0 1-1.84.56 3.5 3.5 0 0 1-2.92-.85 5 5 0 0 1-1.23-3.24 5.41 5.41 0 0 1 .61-3.51 3.3 3.3 0 0 1 2.58-1.32 3.09 3.09 0 0 1 2.56.73 4.41 4.41 0 0 1 1.08 2.84l.07.78zm4.05-1.45a3 3 0 0 0-.63-1.73 1.74 1.74 0 0 0-1.56-.49 1.84 1.84 0 0 0-1.44.7 3.36 3.36 0 0 0-.5 1.88zM238.91 229.91a2.68 2.68 0 0 0-.61-.16 2.38 2.38 0 0 0-.64 0 1.18 1.18 0 0 0-.95.44 2.57 2.57 0 0 0-.15 1.44l.07.82 1.88-.16.11 1.16-1.88.16.64 7.31-1.38.08-.64-7.3-1.25.1-.1-1.16 1.24-.11-.07-.82a3.65 3.65 0 0 1 .38-2.31 2.51 2.51 0 0 1 2-.9 4.07 4.07 0 0 1 1.66.17zM247.54 235.75a5.07 5.07 0 0 1-.66 3.42 4 4 0 0 1-5.54.5 5 5 0 0 1-1.26-3.26 5.08 5.08 0 0 1 .67-3.47 3.5 3.5 0 0 1 2.68-1.36 3.42 3.42 0 0 1 2.87.89 5.25 5.25 0 0 1 1.24 3.28zm-1.44.13a4.46 4.46 0 0 0-.79-2.47 2 2 0 0 0-1.78-.63 2 2 0 0 0-1.66.94 4.31 4.31 0 0 0-.35 2.56 4.5 4.5 0 0 0 .76 2.41 2 2 0 0 0 1.83.64 2 2 0 0 0 1.64-.94 4.28 4.28 0 0 0 .35-2.51zM254.18 232.26a1.87 1.87 0 0 0-.66 0 2.8 2.8 0 0 0-1.17.39 5.47 5.47 0 0 0-1.25 1.18l.51 5.85-1.39.12-.74-8.47 1.39-.12.12 1.37a9.46 9.46 0 0 1 1.13-1.15 2.37 2.37 0 0 1 1.38-.58 1.88 1.88 0 0 1 .86.09zM53.66 277l-.44-5a7.18 7.18 0 0 0-.25-1.6 1.08 1.08 0 0 0-.45-.56 1.52 1.52 0 0 0-.82-.11 2.59 2.59 0 0 0-1.21.51 8.27 8.27 0 0 0-1.29 1.11l.53 6-1.39.12-1.06-12 1.39-.12.43 4.81a6.88 6.88 0 0 1 1.28-1.16 3.2 3.2 0 0 1 1.53-.59 2.21 2.21 0 0 1 1.86.54 3.68 3.68 0 0 1 .78 2.31l.5 5.65zM58.38 272.52a3.84 3.84 0 0 0 .79 2.34 2.22 2.22 0 0 0 1.9.56 2 2 0 0 0 1-.33 2.62 2.62 0 0 0 .76-.84l1.21.61a3.46 3.46 0 0 1-1.08 1.22 3.89 3.89 0 0 1-1.85.56 3.51 3.51 0 0 1-2.92-.86 5 5 0 0 1-1.22-3.23 5.4 5.4 0 0 1 .6-3.52 3.4 3.4 0 0 1 2.65-1.35 3.13 3.13 0 0 1 2.55.73 4.36 4.36 0 0 1 1.08 2.85l.07.78zm4.06-1.45a3 3 0 0 0-.64-1.73 1.76 1.76 0 0 0-1.56-.5 1.89 1.89 0 0 0-1.44.7 3.51 3.51 0 0 0-.5 1.89zM70.41 268.41a1.79 1.79 0 0 0-.65 0 2.71 2.71 0 0 0-1.17.39 5.86 5.86 0 0 0-1.26 1.17l.52 5.86-1.39.12-.74-8.47 1.38-.12.12 1.37a9.53 9.53 0 0 1 1.14-1.15 2.37 2.37 0 0 1 1.38-.58 1.88 1.88 0 0 1 .86.09zM83.72 273.08a3.22 3.22 0 0 1-1 1.21 3.68 3.68 0 0 1-1.9.61 3.47 3.47 0 0 1-2.91-.88 5.12 5.12 0 0 1-1.24-3.25 5.19 5.19 0 0 1 .65-3.44 3.36 3.36 0 0 1 2.68-1.39 3.17 3.17 0 0 1 3.11 1.29L82 268a2.43 2.43 0 0 0-.8-.71 2.12 2.12 0 0 0-1.14-.17 1.86 1.86 0 0 0-1.66 1 4.93 4.93 0 0 0-.3 2.49 5.65 5.65 0 0 0 .41 1.83 2.07 2.07 0 0 0 .84.95 2.22 2.22 0 0 0 1.34.24 2.19 2.19 0 0 0 1.08-.35 2.78 2.78 0 0 0 .74-.86zM90.6 273.79l-.09-1.06a7.68 7.68 0 0 1-1.22 1 2.92 2.92 0 0 1-1.44.5 2.41 2.41 0 0 1-1.94-.57 2.74 2.74 0 0 1-.82-1.84 2.88 2.88 0 0 1 .21-1.48 2.51 2.51 0 0 1 .92-1 5.69 5.69 0 0 1 1.84-.64l2.07-.37v-.41a1.51 1.51 0 0 0-.66-1.29 2.78 2.78 0 0 0-1.54-.22 2.49 2.49 0 0 0-1.29.41 2 2 0 0 0-.61.71l-1.2-.59a2.55 2.55 0 0 1 1.09-1.19 4.69 4.69 0 0 1 1.94-.55 4.11 4.11 0 0 1 2.67.44 2.81 2.81 0 0 1 1 2.22l.51 5.76zm-.38-4.3l-1.34.25a4 4 0 0 0-1.9.71 1.41 1.41 0 0 0-.46 1.26 1.38 1.38 0 0 0 .48 1.06 1.64 1.64 0 0 0 1.16.23 1.74 1.74 0 0 0 .62-.17 5.82 5.82 0 0 0 .58-.34 5.6 5.6 0 0 0 .54-.45l.51-.48zM100 273l-.44-5a7.11 7.11 0 0 0-.26-1.6 1 1 0 0 0-.45-.55 1.4 1.4 0 0 0-.81-.11 2.59 2.59 0 0 0-1.21.51 8.27 8.27 0 0 0-1.29 1.11l.53 6-1.39.12-.75-8.48 1.38-.12.12 1.26a6.28 6.28 0 0 1 1.28-1.17 3 3 0 0 1 1.53-.59 2.21 2.21 0 0 1 1.86.54 3.68 3.68 0 0 1 .78 2.31l.5 5.65zM115.31 267.29a5.61 5.61 0 0 1-.58 3.42 2.91 2.91 0 0 1-2.35 1.42A3.68 3.68 0 0 1 111 272a5 5 0 0 1-1.18-.57l.06.69-1.38.12-1.06-12 1.39-.12.38 4.4a4.12 4.12 0 0 1 1.08-.88 3.43 3.43 0 0 1 1.41-.44 2.74 2.74 0 0 1 2.48.94 5.59 5.59 0 0 1 1.13 3.15zm-1.44.16a4.4 4.4 0 0 0-.73-2.41 1.7 1.7 0 0 0-1.57-.63 2.69 2.69 0 0 0-1.22.44 5.6 5.6 0 0 0-1 .85l.4 4.48a4.05 4.05 0 0 0 1.12.56 3 3 0 0 0 1.21.16 1.79 1.79 0 0 0 1.44-.92 4.25 4.25 0 0 0 .35-2.53zM118.66 267.22a3.9 3.9 0 0 0 .78 2.35 2.24 2.24 0 0 0 1.9.55 2 2 0 0 0 1-.33 2.61 2.61 0 0 0 .75-.84l1.21.61a3.46 3.46 0 0 1-1.08 1.22 3.89 3.89 0 0 1-1.85.56 3.51 3.51 0 0 1-2.92-.85 5.1 5.1 0 0 1-1.22-3.24 5.35 5.35 0 0 1 .61-3.51 3.3 3.3 0 0 1 2.64-1.35 3.06 3.06 0 0 1 2.55.73 4.31 4.31 0 0 1 1.08 2.84l.07.78zm4-1.45a3 3 0 0 0-.64-1.73 1.75 1.75 0 0 0-1.56-.5 1.92 1.92 0 0 0-1.44.7 3.51 3.51 0 0 0-.49 1.89zM134.34 259.1a2.83 2.83 0 0 0-.61-.16 2.45 2.45 0 0 0-.65 0 1.16 1.16 0 0 0-.94.44 2.57 2.57 0 0 0-.15 1.44l.07.82 1.88-.17.1 1.17-1.88.16.64 7.31-1.39.12-.64-7.31-1.24.11-.1-1.16 1.24-.11-.07-.82a3.58 3.58 0 0 1 .38-2.31 2.47 2.47 0 0 1 2-.9 4.12 4.12 0 0 1 1.67.17zM143 264.94a5.13 5.13 0 0 1-.65 3.42 4 4 0 0 1-5.55.5 6.4 6.4 0 0 1-.58-6.73 3.45 3.45 0 0 1 2.67-1.36 3.4 3.4 0 0 1 2.87.89 5.13 5.13 0 0 1 1.24 3.28zm-1.44.13a4.32 4.32 0 0 0-.79-2.47 2 2 0 0 0-1.77-.6 2 2 0 0 0-1.67.94 4.41 4.41 0 0 0-.34 2.56 4.35 4.35 0 0 0 .76 2.4 2 2 0 0 0 1.82.65 2 2 0 0 0 1.65-.94 4.29 4.29 0 0 0 .3-2.54zM150.91 268.49l-.11-1.26a6.54 6.54 0 0 1-1.33 1.2 3.25 3.25 0 0 1-1.47.57 2.79 2.79 0 0 1-1.41-.2 1.84 1.84 0 0 1-.85-.89 5.42 5.42 0 0 1-.39-1.76l-.5-5.67 1.39-.12.44 5a6.52 6.52 0 0 0 .27 1.61 1 1 0 0 0 .45.55 1.49 1.49 0 0 0 .81.11 2.63 2.63 0 0 0 1.2-.52 8.75 8.75 0 0 0 1.29-1.1l-.53-6 1.39-.12.74 8.47zM160.36 267.66l-.44-5a7.23 7.23 0 0 0-.26-1.61 1 1 0 0 0-.45-.55 1.49 1.49 0 0 0-.81-.11 2.59 2.59 0 0 0-1.21.51 8.27 8.27 0 0 0-1.29 1.1l.53 6-1.39.12-.75-8.47 1.39-.12.11 1.26a6.91 6.91 0 0 1 1.29-1.16 3.12 3.12 0 0 1 1.53-.6 2.21 2.21 0 0 1 1.86.54 3.8 3.8 0 0 1 .78 2.31l.5 5.65zM169.77 266.83l-.08-.84a4.32 4.32 0 0 1-1.08.88 3.49 3.49 0 0 1-1.4.44 2.79 2.79 0 0 1-2.46-.95 6.72 6.72 0 0 1-.5-6.58 2.92 2.92 0 0 1 2.39-1.45 3.45 3.45 0 0 1 2.44.73l-.37-4.25 1.4-.13 1 12zm-.58-6.56a3.45 3.45 0 0 0-2.26-.73 1.89 1.89 0 0 0-1.48.94 4.15 4.15 0 0 0-.38 2.53c.19 2.14 1 3.15 2.3 3a2.65 2.65 0 0 0 1.23-.44 4.84 4.84 0 0 0 1-.85zM184 263.28a2.24 2.24 0 0 1-.67 1.93 3.75 3.75 0 0 1-2.34.89 4.53 4.53 0 0 1-1.93-.23 2.63 2.63 0 0 1-1.32-1l1.05-.78a2.66 2.66 0 0 0 3.49.37 1.12 1.12 0 0 0 .37-1 1 1 0 0 0-.21-.57 1.29 1.29 0 0 0-.54-.34 9.57 9.57 0 0 0-1.42-.33 4.49 4.49 0 0 1-2.22-.77 2.45 2.45 0 0 1-.11-3.45 3.38 3.38 0 0 1 2.18-.87 3.54 3.54 0 0 1 1.89.27 2.75 2.75 0 0 1 1.19 1l-1 .78a2.13 2.13 0 0 0-2-.83 2.17 2.17 0 0 0-1.15.41 1.07 1.07 0 0 0-.4 1 .92.92 0 0 0 .5.8 4.63 4.63 0 0 0 1.36.36 8.48 8.48 0 0 1 2 .52 2.06 2.06 0 0 1 .88.72 2.39 2.39 0 0 1 .4 1.12zM187.05 254.61a.82.82 0 0 1-.16.68 1.07 1.07 0 0 1-.68.23.93.93 0 0 1-.72-.15.9.9 0 0 1-.25-.6.83.83 0 0 1 .15-.64 1 1 0 0 1 .67-.26 1 1 0 0 1 .72.13.83.83 0 0 1 .27.61zm-.68 10.76l-.74-8.47 1.39-.12.74 8.47zM194.74 264.63a5.32 5.32 0 0 1-1.58.4 2.29 2.29 0 0 1-1.91-.52 3.37 3.37 0 0 1-.75-2.08l-.42-4.75-1.21.11-.1-1.17 1.21-.1-.21-2.36 1.39-.12.21 2.35 2.15-.18.1 1.16-2.15.19.4 4.48a3.86 3.86 0 0 0 .33 1.45.91.91 0 0 0 1 .36 2.8 2.8 0 0 0 1.12-.32zM200.46 264.13a5 5 0 0 1-1.57.39A2.29 2.29 0 0 1 197 264a3.35 3.35 0 0 1-.74-2.09l-.42-4.74-1.21.1-.1-1.16 1.21-.11-.21-2.35 1.39-.13.21 2.36 2.14-.19.11 1.17-2.15.18.39 4.49a3.69 3.69 0 0 0 .34 1.45.91.91 0 0 0 .95.36A2.81 2.81 0 0 0 200 263zM202.79 253.23a.8.8 0 0 1-.16.68 1.17 1.17 0 0 1-.68.23.89.89 0 0 1-.72-.16.92.92 0 0 1-.25-.59.86.86 0 0 1 .16-.65 1 1 0 0 1 .67-.26 1.06 1.06 0 0 1 .72.13.82.82 0 0 1 .26.62zm-.67 10.77l-.75-8.47 1.39-.13.75 8.47zM211.57 263.15l-.44-5a6.56 6.56 0 0 0-.26-1.6 1 1 0 0 0-.45-.55 1.49 1.49 0 0 0-.81-.11 2.59 2.59 0 0 0-1.21.51 7.77 7.77 0 0 0-1.28 1.11l.52 6-1.39.12-.74-8.47 1.39-.12.11 1.26a6.56 6.56 0 0 1 1.28-1.17 3.13 3.13 0 0 1 1.53-.59 2.21 2.21 0 0 1 1.86.54 3.74 3.74 0 0 1 .79 2.31L213 263zM222.36 262a3.44 3.44 0 0 1-.62 2.61 3.85 3.85 0 0 1-2.72 1.08 5.51 5.51 0 0 1-3.15-.52l.42-1.16a4.35 4.35 0 0 0 2.62.53 2.5 2.5 0 0 0 1.68-.65 2.16 2.16 0 0 0 .38-1.68l-.09-1a4.24 4.24 0 0 1-1.07.87 3.2 3.2 0 0 1-1.41.44 2.76 2.76 0 0 1-2.47-.9 5.32 5.32 0 0 1-1.09-3.13 5.06 5.06 0 0 1 .62-3.31 3 3 0 0 1 2.4-1.39 3.57 3.57 0 0 1 2.44.73l-.06-.69 1.39-.12zm-2-6.26a3.49 3.49 0 0 0-2.26-.72 1.82 1.82 0 0 0-1.53 1 4.17 4.17 0 0 0-.34 2.35 4.26 4.26 0 0 0 .72 2.32 1.71 1.71 0 0 0 1.57.61 3.37 3.37 0 0 0 2.21-1.3zM230.26 250.81a.82.82 0 0 1-.16.68 1.07 1.07 0 0 1-.68.23.93.93 0 0 1-.72-.15.9.9 0 0 1-.25-.6.83.83 0 0 1 .16-.64 1 1 0 0 1 .67-.26 1 1 0 0 1 .71.13.8.8 0 0 1 .27.61zm-.67 10.76l-.75-8.47 1.39-.12.75 8.47zM239 260.74l-.44-5a7 7 0 0 0-.26-1.6.94.94 0 0 0-.45-.55 1.39 1.39 0 0 0-.81-.12 2.62 2.62 0 0 0-1.21.52 8.75 8.75 0 0 0-1.29 1.1l.53 6-1.39.12-.74-8.47 1.38-.12.12 1.26a6.28 6.28 0 0 1 1.28-1.17 3 3 0 0 1 1.53-.59 2.17 2.17 0 0 1 1.86.53 3.74 3.74 0 0 1 .78 2.32l.5 5.65zM54.32 297a5.08 5.08 0 0 1-1.58.39 2.26 2.26 0 0 1-1.91-.51 3.26 3.26 0 0 1-.75-2.08l-.42-4.8-1.21.11-.1-1.17 1.21-.1-.21-2.36 1.39-.12.21 2.35 2.15-.18.1 1.16-2.15.19.39 4.48a3.82 3.82 0 0 0 .34 1.45.91.91 0 0 0 .95.36 2.75 2.75 0 0 0 1.12-.32zM61.29 296.36l-.44-5a7.18 7.18 0 0 0-.25-1.6 1 1 0 0 0-.45-.55 1.43 1.43 0 0 0-.82-.12 2.73 2.73 0 0 0-1.21.52 8.75 8.75 0 0 0-1.29 1.1l.53 6-1.39.12-1-12 1.38-.13.43 4.82a6.56 6.56 0 0 1 1.22-1.19 3 3 0 0 1 1.53-.59 2.15 2.15 0 0 1 1.86.54 3.68 3.68 0 0 1 .78 2.31l.5 5.65zM66 291.85a3.84 3.84 0 0 0 .79 2.34 2.21 2.21 0 0 0 1.9.55 2 2 0 0 0 1-.32 2.78 2.78 0 0 0 .76-.85l1.21.61a3.38 3.38 0 0 1-1.08 1.22 3.78 3.78 0 0 1-1.85.56 3.51 3.51 0 0 1-2.92-.85 5.07 5.07 0 0 1-1.22-3.24 5.35 5.35 0 0 1 .6-3.51 3.38 3.38 0 0 1 2.63-1.36 3.09 3.09 0 0 1 2.55.73 4.32 4.32 0 0 1 1.08 2.85l.07.77zm4.06-1.46a3 3 0 0 0-.64-1.73 1.76 1.76 0 0 0-1.56-.49 1.89 1.89 0 0 0-1.44.7 3.47 3.47 0 0 0-.5 1.88zM74.76 284.48a.77.77 0 0 1-.16.67 1.11 1.11 0 0 1-.68.24.9.9 0 0 1-.72-.16.92.92 0 0 1-.25-.59.86.86 0 0 1 .16-.65 1 1 0 0 1 .67-.26 1.06 1.06 0 0 1 .72.13.82.82 0 0 1 .26.62zm-.67 10.76l-.74-8.47 1.38-.13.75 8.47zM82.18 287.37a1.87 1.87 0 0 0-.66 0 2.68 2.68 0 0 0-1.17.4 5.18 5.18 0 0 0-1.25 1.17l.51 5.85-1.39.12-.74-8.47 1.39-.12.12 1.37a9.46 9.46 0 0 1 1.13-1.15 2.37 2.37 0 0 1 1.38-.58 1.74 1.74 0 0 1 .86.1zM94.57 293.44l-.07-.84a4.29 4.29 0 0 1-1.08.87 3.24 3.24 0 0 1-1.4.44 2.74 2.74 0 0 1-2.46-.94 5.58 5.58 0 0 1-1.12-3.19 5.5 5.5 0 0 1 .62-3.39 2.91 2.91 0 0 1 2.39-1.46 3.55 3.55 0 0 1 2.44.73l-.37-4.25 1.39-.12 1.06 12zm-.57-6.57a3.51 3.51 0 0 0-2.26-.72 1.89 1.89 0 0 0-1.48.93 4.18 4.18 0 0 0-.38 2.54c.18 2.13 1 3.14 2.3 3a2.56 2.56 0 0 0 1.23-.45 4.8 4.8 0 0 0 1-.85zM99.37 288.91a4 4 0 0 0 .78 2.35 2.24 2.24 0 0 0 1.9.55 1.94 1.94 0 0 0 1-.33 2.61 2.61 0 0 0 .75-.84l1.21.61a3.46 3.46 0 0 1-1.08 1.22 3.86 3.86 0 0 1-1.85.56 3.48 3.48 0 0 1-2.91-.85 5 5 0 0 1-1.23-3.24 5.41 5.41 0 0 1 .61-3.51 3.3 3.3 0 0 1 2.64-1.35 3.09 3.09 0 0 1 2.56.73 4.41 4.41 0 0 1 1.08 2.84l.06.78zm4-1.45a3.11 3.11 0 0 0-.63-1.73 1.75 1.75 0 0 0-1.57-.49 1.82 1.82 0 0 0-1.43.7 3.36 3.36 0 0 0-.5 1.88zM113 289.51a2.24 2.24 0 0 1-.67 1.93 3.74 3.74 0 0 1-2.33.89 4.56 4.56 0 0 1-1.94-.23 2.63 2.63 0 0 1-1.32-1l1-.78a2.66 2.66 0 0 0 3.49.37 1.12 1.12 0 0 0 .37-1 1 1 0 0 0-.21-.57 1.29 1.29 0 0 0-.54-.34 9.57 9.57 0 0 0-1.42-.33 4.49 4.49 0 0 1-2.22-.77 2.23 2.23 0 0 1-.76-1.58 2.26 2.26 0 0 1 .65-1.87 3.38 3.38 0 0 1 2.18-.87 3.54 3.54 0 0 1 1.89.27 2.82 2.82 0 0 1 1.19.95l-1 .78a2.13 2.13 0 0 0-2-.83 2.17 2.17 0 0 0-1.15.41 1.07 1.07 0 0 0-.4 1 .92.92 0 0 0 .5.8 4.63 4.63 0 0 0 1.36.36 8.48 8.48 0 0 1 2 .52 2.06 2.06 0 0 1 .88.72 2.39 2.39 0 0 1 .45 1.17zM120.43 291.16l-3-3.56-.82 1.08.24 2.8-1.38.12-1.06-12 1.39-.12.66 7.51 3.09-4.26 1.7-.15-3 4 4 4.45zM129.34 288.08a2.25 2.25 0 0 1-.67 1.93 3.81 3.81 0 0 1-2.34.89 4.38 4.38 0 0 1-1.93-.24 2.53 2.53 0 0 1-1.32-1l1-.77a2.69 2.69 0 0 0 3.49.37 1.16 1.16 0 0 0 .37-1 1 1 0 0 0-.21-.56 1.29 1.29 0 0 0-.54-.34 8.4 8.4 0 0 0-1.42-.33 4.49 4.49 0 0 1-2.22-.77 2.45 2.45 0 0 1-.11-3.45 3.44 3.44 0 0 1 2.18-.88 3.64 3.64 0 0 1 1.89.28 2.75 2.75 0 0 1 1.19.95l-1 .78a2.33 2.33 0 0 0-3.12-.42 1.07 1.07 0 0 0-.4 1 .93.93 0 0 0 .5.8 5.26 5.26 0 0 0 1.35.36 8.13 8.13 0 0 1 2 .52 2.06 2.06 0 0 1 .88.72 2.35 2.35 0 0 1 .43 1.16zM133.53 289.21a.91.91 0 0 1-.17.73 1.12 1.12 0 0 1-.74.26.94.94 0 0 1-.79-.17 1 1 0 0 1-.26-.64 1 1 0 0 1 .16-.72 1.05 1.05 0 0 1 .73-.28 1.11 1.11 0 0 1 .79.14.92.92 0 0 1 .28.68zM181 64.93a1.93 1.93 0 0 1 1.49.09 2.17 2.17 0 0 1 .8 1.34l.21.82 1.78-.46.18.7-5.25 1.37-.4-1.56a2.17 2.17 0 0 1 0-1.53 1.73 1.73 0 0 1 1.19-.77zm.21.73a1.12 1.12 0 0 0-.74.49 1.44 1.44 0 0 0 0 1l.2.77 2.2-.57-.17-.68a2.27 2.27 0 0 0-.32-.78.73.73 0 0 0-.45-.28 1.65 1.65 0 0 0-.71.05zM184.23 60.91l-.51.06a3.45 3.45 0 0 1 .52.58 1.34 1.34 0 0 1 .25.69 1.11 1.11 0 0 1-.26.94 1.47 1.47 0 0 1-1.59.32 1.15 1.15 0 0 1-.5-.43 2.82 2.82 0 0 1-.32-.88l-.2-1h-.2a.69.69 0 0 0-.61.33 1.33 1.33 0 0 0-.1.75 1.22 1.22 0 0 0 .21.62 1.12 1.12 0 0 0 .35.29l-.28.58a1.24 1.24 0 0 1-.58-.51 2.27 2.27 0 0 1-.28-.94 2 2 0 0 1 .18-1.29 1.38 1.38 0 0 1 1.07-.5l2.78-.3zm-2.07.22l.13.65a2 2 0 0 0 .36.91.67.67 0 0 0 .61.21.62.62 0 0 0 .51-.24.8.8 0 0 0 .1-.56.86.86 0 0 0-.09-.3 1.34 1.34 0 0 0-.17-.27 1.78 1.78 0 0 0-.22-.26l-.23-.24zM182.19 55.57a2.62 2.62 0 0 1 1.59.51 1.44 1.44 0 0 1 .54 1.24 1.73 1.73 0 0 1-.51 1.12l1.89.09v.67L180 59v-.68h.41a2 2 0 0 1-.35-.57A1.67 1.67 0 0 1 180 57a1.34 1.34 0 0 1 .6-1.12 2.65 2.65 0 0 1 1.59-.31zm0 .69c-1 0-1.57.26-1.6.91a1.23 1.23 0 0 0 .14.62 2.19 2.19 0 0 0 .34.53l2.17.1a1.59 1.59 0 0 0 .49-1 .88.88 0 0 0-.35-.77 2 2 0 0 0-1.21-.39zM182.57 53.87a1.81 1.81 0 0 0 1.19 0 1.1 1.1 0 0 0 .51-.81.94.94 0 0 0 0-.5 1.25 1.25 0 0 0-.29-.46l.45-.48a1.65 1.65 0 0 1 .42.67 1.79 1.79 0 0 1 0 .93 1.72 1.72 0 0 1-.78 1.24 2.43 2.43 0 0 1-1.67.14 2.6 2.6 0 0 1-1.55-.76 1.61 1.61 0 0 1-.28-1.41 1.48 1.48 0 0 1 .68-1.08 2.06 2.06 0 0 1 1.47-.12l.37.07zm-.14-2.08a1.47 1.47 0 0 0-.88.07.81.81 0 0 0-.44.66.91.91 0 0 0 .13.76 1.7 1.7 0 0 0 .81.48zM182.72 47.56a.87.87 0 0 0-.14.29 1.18 1.18 0 0 0-.05.59 2.56 2.56 0 0 0 .28.78l2.7.89-.21.64-3.91-1.28.21-.64.64.2a3.43 3.43 0 0 1-.3-.72 1.21 1.21 0 0 1 0-.73 1 1 0 0 1 .21-.36zM186.34 47.85l-5.34-2.3.27-.62 5.36 2.3zM185.61 44.7a1.87 1.87 0 0 0 1.15.33 1.06 1.06 0 0 0 .74-.61 1 1 0 0 0 .14-.47 1.32 1.32 0 0 0-.13-.54l.57-.31a1.63 1.63 0 0 1 .2.76 1.85 1.85 0 0 1-.29.89 1.66 1.66 0 0 1-1.13.93 2.45 2.45 0 0 1-1.63-.39 2.61 2.61 0 0 1-1.24-1.2 1.63 1.63 0 0 1 .19-1.43 1.51 1.51 0 0 1 1-.82 2.16 2.16 0 0 1 1.43.35l.33.18zm.53-2a1.43 1.43 0 0 0-.86-.22.85.85 0 0 0-.63.49.93.93 0 0 0-.11.76 1.71 1.71 0 0 0 .62.72zM190 39.71a1.07 1.07 0 0 1 .47.87 1.82 1.82 0 0 1-.47 1.12 2.18 2.18 0 0 1-.71.62 1.36 1.36 0 0 1-.8.14l.07-.63a1.09 1.09 0 0 0 1-.49 1.11 1.11 0 0 0 .27-.64.56.56 0 0 0-.24-.45.45.45 0 0 0-.27-.11.55.55 0 0 0-.29.08 4.31 4.31 0 0 0-.59.4 2 2 0 0 1-1 .54 1.05 1.05 0 0 1-.81-.24 1.06 1.06 0 0 1-.46-.84 1.61 1.61 0 0 1 .39-1.06 1.78 1.78 0 0 1 .72-.59 1.39 1.39 0 0 1 .73-.12l-.07.63a1 1 0 0 0-.93.44 1 1 0 0 0-.23.54.48.48 0 0 0 .23.46.43.43 0 0 0 .44.09 2.31 2.31 0 0 0 .57-.37 3.79 3.79 0 0 1 .85-.56 1 1 0 0 1 .55-.08 1.09 1.09 0 0 1 .58.25zM192.65 36.94a1.1 1.1 0 0 1 .35.93 1.8 1.8 0 0 1-.58 1.06 2.06 2.06 0 0 1-.79.51 1.26 1.26 0 0 1-.81 0l.15-.62a1.1 1.1 0 0 0 1.06-.35 1.12 1.12 0 0 0 .35-.6.59.59 0 0 0-.17-.48.48.48 0 0 0-.26-.14.66.66 0 0 0-.3 0 3.94 3.94 0 0 0-.63.33 2.23 2.23 0 0 1-1.06.4 1.18 1.18 0 0 1-1.12-1.24 1.67 1.67 0 0 1 .53-1 1.7 1.7 0 0 1 .79-.49 1.31 1.31 0 0 1 .73 0l-.14.61a1.05 1.05 0 0 0-1 .31 1.1 1.1 0 0 0-.29.51.5.5 0 0 0 .16.49.44.44 0 0 0 .43.14 2.31 2.31 0 0 0 .62-.29 4.53 4.53 0 0 1 .91-.45 1.06 1.06 0 0 1 .56 0 1.2 1.2 0 0 1 .51.37zM198.41 34.14l-4.55-2.64 2.48 3.94-.59.37-2.89-4.59.9-.57 4.17 2.42-2.27-3.61.59-.37 2.89 4.59zM202.35 32.28l-.2-.47a4.14 4.14 0 0 1-.41.66 1.46 1.46 0 0 1-.59.44 1.16 1.16 0 0 1-1 0 1.51 1.51 0 0 1-.77-1.44 1.19 1.19 0 0 1 .28-.59 2.78 2.78 0 0 1 .75-.57l.9-.47-.08-.19c-.12-.29-.28-.45-.49-.49a1.3 1.3 0 0 0-.74.12 1.25 1.25 0 0 0-.54.38.91.91 0 0 0-.17.42l-.64-.1a1.16 1.16 0 0 1 .32-.7 2 2 0 0 1 .82-.54 2 2 0 0 1 1.29-.2 1.4 1.4 0 0 1 .79.88L203 32zm-.81-1.92l-.58.31a1.92 1.92 0 0 0-.77.6.68.68 0 0 0 0 .65.69.69 0 0 0 .37.42.87.87 0 0 0 .58-.06.85.85 0 0 0 .25-.17 2.62 2.62 0 0 0 .22-.25 1.67 1.67 0 0 0 .18-.28l.17-.3zM206 31.14a2.67 2.67 0 0 1-.71.33 1.1 1.1 0 0 1-1-.07 1.64 1.64 0 0 1-.54-.92l-.63-2.21-.57.16-.15-.55.56-.16-.31-1.1.65-.18.31 1.1 1-.29.16.55-1 .28.59 2.09a1.88 1.88 0 0 0 .29.66.45.45 0 0 0 .49.09 1.4 1.4 0 0 0 .5-.26zM206.66 31l-.79-4 .66-.13.79 4zm-.23-5.21a.38.38 0 0 1 0 .33.53.53 0 0 1-.31.15.45.45 0 0 1-.36 0 .44.44 0 0 1-.15-.27.41.41 0 0 1 0-.32.53.53 0 0 1 .31-.16.48.48 0 0 1 .35 0 .4.4 0 0 1 .16.29zM211.7 28.33a2.43 2.43 0 0 1-.33 1.65 1.64 1.64 0 0 1-1.29.66 1.7 1.7 0 0 1-1.39-.42 2.47 2.47 0 0 1-.6-1.58 2.48 2.48 0 0 1 .33-1.68 1.67 1.67 0 0 1 1.3-.65 1.64 1.64 0 0 1 1.38.43 2.48 2.48 0 0 1 .6 1.59zm-.7.06a2.08 2.08 0 0 0-.38-1.19 1.1 1.1 0 0 0-1.66.14 2.11 2.11 0 0 0-.17 1.24 2.06 2.06 0 0 0 .36 1.16 1.1 1.1 0 0 0 1.68-.14 2 2 0 0 0 .17-1.21zM215.37 30.55l.17-2.41a3.1 3.1 0 0 0 0-.79.5.5 0 0 0-.17-.3.71.71 0 0 0-.38-.11 1.29 1.29 0 0 0-.61.15 3.72 3.72 0 0 0-.7.44l-.2 2.89h-.67l.28-4.11.67.05v.61a3.14 3.14 0 0 1 .7-.46 1.48 1.48 0 0 1 .78-.17 1 1 0 0 1 .84.4 1.81 1.81 0 0 1 .2 1.16l-.18 2.74zM219.22 31.19l1.57-5.19 3.21 1-.19.63-2.48-.75-.46 1.51L223 29l-.19.63-2.16-.63-.54 1.79 2.48.75-.19.63zM225.61 33.62l1-2.18a3.13 3.13 0 0 0 .28-.73.47.47 0 0 0-.05-.34.68.68 0 0 0-.31-.25A1.32 1.32 0 0 0 226 30a3.44 3.44 0 0 0-.81.14l-1.25 2.62-.61-.29 1.78-3.71.6.29-.26.55a3.62 3.62 0 0 1 .82-.17 1.57 1.57 0 0 1 .79.13 1.08 1.08 0 0 1 .64.69 1.79 1.79 0 0 1-.25 1.15l-1.18 2.48zM229.92 36.24a1.69 1.69 0 0 1-1 .79 1.92 1.92 0 0 1-1.35-.44 2.61 2.61 0 0 1-1-1.16l.51-.31a2.15 2.15 0 0 0 .82 1 1.14 1.14 0 0 0 .82.27 1 1 0 0 0 .66-.51l.27-.39a2.1 2.1 0 0 1-.66 0 1.44 1.44 0 0 1-.67-.27 1.33 1.33 0 0 1-.64-1.09 2.65 2.65 0 0 1 .55-1.51 2.47 2.47 0 0 1 1.26-1 1.45 1.45 0 0 1 1.32.22 1.66 1.66 0 0 1 .68 1l.19-.28.56.39zm1.19-2.94a1.74 1.74 0 0 0-.62-1 .89.89 0 0 0-.87-.11 2 2 0 0 0-.85.77 2.1 2.1 0 0 0-.45 1.09.84.84 0 0 0 .4.71A1.67 1.67 0 0 0 230 35zM230.76 37.1l2.7-3.11.51.45-2.7 3.1zm4-3.38a.39.39 0 0 1-.29.17.54.54 0 0 1-.31-.16.47.47 0 0 1-.19-.3.44.44 0 0 1 .13-.29.39.39 0 0 1 .27-.16.64.64 0 0 1 .51.44.38.38 0 0 1-.15.3zM233.92 40.21l1.78-1.65a2.61 2.61 0 0 0 .53-.57.48.48 0 0 0 .08-.33.61.61 0 0 0-.2-.35 1.19 1.19 0 0 0-.55-.31 4.05 4.05 0 0 0-.8-.17l-2.14 2-.45-.5 3-2.79.45.5-.45.41a3.09 3.09 0 0 1 .83.15 1.42 1.42 0 0 1 .68.41 1.07 1.07 0 0 1 .35.87 1.8 1.8 0 0 1-.66 1l-2 1.86zM237 40.88a1.88 1.88 0 0 0-.8.89 1.07 1.07 0 0 0 .22.93 1.06 1.06 0 0 0 .36.34 1.24 1.24 0 0 0 .54.11v.66a1.64 1.64 0 0 1-.77-.17 1.82 1.82 0 0 1-.67-.64 1.72 1.72 0 0 1-.34-1.44 2.52 2.52 0 0 1 1.08-1.28 2.64 2.64 0 0 1 1.63-.58 1.61 1.61 0 0 1 1.19.8 1.52 1.52 0 0 1 .3 1.25 2.16 2.16 0 0 1-1 1.13l-.31.21zm1.58 1.37a1.42 1.42 0 0 0 .57-.68.81.81 0 0 0-.16-.77.91.91 0 0 0-.63-.45 1.87 1.87 0 0 0-.92.24zM239.27 44.54a1.88 1.88 0 0 0-.92.76 1.08 1.08 0 0 0 .08 1 1 1 0 0 0 .31.38 1.23 1.23 0 0 0 .52.19l-.07.66a1.7 1.7 0 0 1-.74-.28 1.86 1.86 0 0 1-.57-.73 1.73 1.73 0 0 1-.13-1.47 2.5 2.5 0 0 1 1.25-1.16 2.66 2.66 0 0 1 1.69-.34 1.64 1.64 0 0 1 1.07 1 1.48 1.48 0 0 1 .12 1.28 2.13 2.13 0 0 1-1.1 1l-.33.16zm1.36 1.58a1.52 1.52 0 0 0 .67-.59.86.86 0 0 0-.05-.79.89.89 0 0 0-.57-.53 1.66 1.66 0 0 0-.94.11zM243 49.66a1 1 0 0 0-.06-.31 1.37 1.37 0 0 0-.32-.51 2.49 2.49 0 0 0-.7-.45l-2.68.92-.22-.63 3.89-1.34.21.64-.63.21a4.5 4.5 0 0 1 .68.4 1.19 1.19 0 0 1 .43.58.92.92 0 0 1 .06.41zM243.52 55a1 1 0 0 1-.75-.19 1 1 0 0 1-.4-.65 1 1 0 0 1 .19-.75 1 1 0 0 1 .65-.41 1 1 0 0 1 .76.19 1 1 0 0 1 .4.66 1 1 0 0 1-.19.75 1 1 0 0 1-.66.4zM242.85 60.53l-2.09-.1v-.73l2.06.1 3.44-1.56v.82l-2.69 1.15 2.57 1.42v.78zM242.48 63.1a1.78 1.78 0 0 0-1.19.07 1.06 1.06 0 0 0-.5.82 1 1 0 0 0 0 .49 1.29 1.29 0 0 0 .3.46l-.44.49a1.74 1.74 0 0 1-.44-.66 1.9 1.9 0 0 1 0-.93 1.69 1.69 0 0 1 .76-1.26 2.46 2.46 0 0 1 1.67-.16 2.59 2.59 0 0 1 1.56.72 1.65 1.65 0 0 1 .3 1.41 1.5 1.5 0 0 1-.66 1.1 2.08 2.08 0 0 1-1.47.14l-.37-.06zm.17 2.07a1.45 1.45 0 0 0 .88-.08.83.83 0 0 0 .43-.66.9.9 0 0 0-.14-.76 1.71 1.71 0 0 0-.82-.47zM239.78 66.29l5.61 1.62-.19.65-5.61-1.62zM239.19 68.18l5.48 2-.23.64-5.48-2zM238.85 73.93a2.51 2.51 0 0 1-1.25-1.13 1.67 1.67 0 0 1 .11-1.45 1.69 1.69 0 0 1 1.09-1 2.48 2.48 0 0 1 1.66.31 2.44 2.44 0 0 1 1.26 1.15 1.92 1.92 0 0 1-1.21 2.41 2.5 2.5 0 0 1-1.66-.29zm.31-.62a2.08 2.08 0 0 0 1.21.29.94.94 0 0 0 .71-.57 1 1 0 0 0 0-.93 2.13 2.13 0 0 0-1-.78A2.15 2.15 0 0 0 239 71a1.12 1.12 0 0 0-.76 1.51 2.11 2.11 0 0 0 .92.8zM234.29 76.9l.37-.51 3.13 1.07-1.94-2.68.37-.49 3.91 1.62-.41.56-2.94-1.3 1.94 2.65-.33.45-3.12-1 2.12 2.39-.4.55zM235.88 82.16L234.79 81l-1.58 1.51-.45-.48 1.57-1.5-1.74-1.83.52-.5 3.75 3.92-2.38 2.27-.45-.47zM228.68 84.48a2.41 2.41 0 0 1-.56-1.59 1.64 1.64 0 0 1 .78-1.22 1.67 1.67 0 0 1 1.42-.33 2.39 2.39 0 0 1 1.31 1.06 2.46 2.46 0 0 1 .57 1.6 1.71 1.71 0 0 1-.79 1.22 1.67 1.67 0 0 1-1.42.32 2.45 2.45 0 0 1-1.31-1.06zm.57-.4a2.13 2.13 0 0 0 .92.83.94.94 0 0 0 .9-.16 1 1 0 0 0 .47-.8 2.14 2.14 0 0 0-.48-1.15 2.08 2.08 0 0 0-.9-.82.92.92 0 0 0-.92.17.93.93 0 0 0-.46.79 2.06 2.06 0 0 0 .47 1.14zM226.6 83.3l2.86 5.09-.59.33-2.87-5.09zM222.56 85.23l.16.38a2 2 0 0 1 .37-.57 1.74 1.74 0 0 1 .58-.41 1.33 1.33 0 0 1 1.27.08 2.67 2.67 0 0 1 1 1.3 2.62 2.62 0 0 1 .21 1.65 1.43 1.43 0 0 1-.88 1 1.68 1.68 0 0 1-1.23 0l.8 1.9-.63.26-2.26-5.38zm1.24 2.94a1.73 1.73 0 0 0 1.15 0 .92.92 0 0 0 .54-.65 2 2 0 0 0-.2-1.22c-.4-1-.91-1.31-1.51-1.06a1.24 1.24 0 0 0-.5.39 2.32 2.32 0 0 0-.33.53zM220.86 87.88a1.9 1.9 0 0 0-.55-1.06 1.22 1.22 0 0 0-1.39.11 1.31 1.31 0 0 0-.3.46l-.62-.19a1.6 1.6 0 0 1 .42-.67 1.94 1.94 0 0 1 .84-.41 1.7 1.7 0 0 1 1.46.18 2.47 2.47 0 0 1 .83 1.45 2.57 2.57 0 0 1 0 1.73 1.61 1.61 0 0 1-1.15.85 1.52 1.52 0 0 1-1.28-.15 2.19 2.19 0 0 1-.74-1.28l-.09-.36zm-1.82 1a1.47 1.47 0 0 0 .44.77.84.84 0 0 0 .78.12.91.91 0 0 0 .63-.45 1.67 1.67 0 0 0 .1-.94zM215.12 90.43a1 1 0 0 0 .31 0 1.41 1.41 0 0 0 .56-.21 2.71 2.71 0 0 0 .59-.59l-.35-2.82.67-.08.5 4.08-.66.08-.09-.66a4.76 4.76 0 0 1-.52.57 1.13 1.13 0 0 1-.66.31.92.92 0 0 1-.42 0zM212.74 92.08a2.75 2.75 0 0 1 .13-.88 2 2 0 0 1 .28-.58h.41a1.5 1.5 0 0 0-.22.52 1.87 1.87 0 0 0-.08.58.45.45 0 0 1 .33.1.5.5 0 0 1 .11.33.45.45 0 0 1-.1.33.46.46 0 0 1-.36.12.43.43 0 0 1-.38-.12.67.67 0 0 1-.12-.4zM208.6 88a1.07 1.07 0 0 1 .48-.86 1.81 1.81 0 0 1 1.19-.24 2.16 2.16 0 0 1 .9.27 1.3 1.3 0 0 1 .55.59l-.57.29a1.08 1.08 0 0 0-1-.58 1.12 1.12 0 0 0-.68.12.55.55 0 0 0-.26.44.42.42 0 0 0 .06.28.53.53 0 0 0 .23.21 4.72 4.72 0 0 0 .65.27 2.15 2.15 0 0 1 1 .55 1.06 1.06 0 0 1 .24.81 1.08 1.08 0 0 1-.46.84 1.67 1.67 0 0 1-1.11.25 1.77 1.77 0 0 1-.88-.29 1.33 1.33 0 0 1-.49-.55l.56-.28a1 1 0 0 0 .87.55 1.08 1.08 0 0 0 .58-.1.54.54 0 0 0 .27-.45.43.43 0 0 0-.17-.41 2.42 2.42 0 0 0-.62-.29 3.7 3.7 0 0 1-.93-.41 1.13 1.13 0 0 1-.37-.42 1.19 1.19 0 0 1-.04-.59zM203.68 90.65l.45-1.52-2.08-.62.19-.63 2.08.62.73-2.42.69.21-1.55 5.19-3.19-.94.19-.63zM199.26 89.5c.06-.14.13-.23.22-.25a.49.49 0 0 1 .34 0c.15.06.25.13.28.22a.46.46 0 0 1 0 .32.42.42 0 0 1-.21.24.65.65 0 0 1-.63-.26.41.41 0 0 1 0-.27zM202 85l-1.57 3.8-.63-.25 1.58-3.8zM198 83.08l-1.17 2.12a2.77 2.77 0 0 0-.32.71.47.47 0 0 0 0 .34.7.7 0 0 0 .29.27 1.39 1.39 0 0 0 .63.12 3.9 3.9 0 0 0 .81-.1l1.4-2.54.59.32-2 3.6-.59-.32.29-.54a3.06 3.06 0 0 1-.82.13 1.61 1.61 0 0 1-.78-.18 1 1 0 0 1-.6-.72 1.8 1.8 0 0 1 .31-1.14l1.32-2.4zM194.85 83.41a1.88 1.88 0 0 0 .49-1.1 1.06 1.06 0 0 0-.5-.81 1.14 1.14 0 0 0-.45-.21 1.38 1.38 0 0 0-.55.06l-.23-.61a1.78 1.78 0 0 1 .78-.09 1.81 1.81 0 0 1 .84.41 1.68 1.68 0 0 1 .77 1.25 2.45 2.45 0 0 1-.62 1.56 2.63 2.63 0 0 1-1.38 1.06 1.65 1.65 0 0 1-1.39-.38 1.51 1.51 0 0 1-.67-1.1 2.15 2.15 0 0 1 .54-1.37l.23-.3zm-1.92-.81a1.42 1.42 0 0 0-.33.83.81.81 0 0 0 .39.68.89.89 0 0 0 .74.22 1.71 1.71 0 0 0 .8-.51zM190.52 78.39a1.09 1.09 0 0 1 .93-.35 1.85 1.85 0 0 1 1.05.6 2.06 2.06 0 0 1 .51.79 1.26 1.26 0 0 1 0 .81l-.62-.16a1.09 1.09 0 0 0-.34-1.06 1.06 1.06 0 0 0-.6-.35.56.56 0 0 0-.48.17.43.43 0 0 0-.14.25.53.53 0 0 0 0 .3 5.15 5.15 0 0 0 .32.64 2.1 2.1 0 0 1 .4 1.06 1.08 1.08 0 0 1-.35.77 1.12 1.12 0 0 1-.9.34 1.75 1.75 0 0 1-1-.54 1.81 1.81 0 0 1-.48-.79 1.33 1.33 0 0 1 0-.74l.61.15a1.13 1.13 0 0 0 .8 1.29.54.54 0 0 0 .5-.16.44.44 0 0 0 .14-.43 2.56 2.56 0 0 0-.28-.62 3.72 3.72 0 0 1-.44-.92 1 1 0 0 1 0-.55 1.15 1.15 0 0 1 .37-.5zM189.5 75.33a2.72 2.72 0 0 1 .58.54 1.13 1.13 0 0 1 .3.91 1.64 1.64 0 0 1-.65.85l-1.8 1.43.36.46-.44.35-.36-.46-.9.71-.42-.52.9-.71-.65-.82.44-.35.65.81 1.7-1.35a1.78 1.78 0 0 0 .5-.52.43.43 0 0 0-.11-.48 1.27 1.27 0 0 0-.43-.37zM184.56 72.79a1 1 0 0 1 1.36.4 1 1 0 0 1 .08.81 1 1 0 0 1-.48.6 1 1 0 0 1-.77.08 1 1 0 0 1-.6-.48 1 1 0 0 1 .41-1.37z"/><path class="cls-3" d="M204.63 61.52a5.32 5.32 0 0 1 1.29 3.85 5.36 5.36 0 0 1-2.48 3.38l-1.94 1.41 2.63 3.62-2.38 1.73-8.52-11.69 4.4-3.2a5.64 5.64 0 0 1 3.74-1.31 4.63 4.63 0 0 1 3.26 2.21zm-2.45 1.81a2.14 2.14 0 0 0-1.58-1 4.1 4.1 0 0 0-2.29 1l-1.19.86 2.88 3.89 1-.7a7.64 7.64 0 0 0 1.68-1.51 1.51 1.51 0 0 0 .26-1.13 3.67 3.67 0 0 0-.76-1.41zM218.81 63.08l-10.35-5.25 6.09 8.36-2.33 1.7-8.52-11.7 3.09-2.25 9.71 5-5.75-7.88 2.34-1.7L221.62 61zM224.14 59.2l-8.52-11.69 7.6-5.54 1.53 2.11-5.21 3.79 1.81 2.5 4.4-3.21 1.53 2.12-4.39 3.2 2.05 2.8 5.21-3.8 1.59 2.18z"/></g></g></svg>