<svg xmlns="http://www.w3.org/2000/svg" viewBox="0 0 298.55 348.53"><defs><style>.cls-2{fill:#5b6670}.cls-3{fill:#ffc629}</style></defs><g id="Layer_2" data-name="Layer 2"><g id="Layer_1-2" data-name="Layer 1"><path fill="#fff" stroke="#818181" stroke-linejoin="round" stroke-width=".5" d="M68.3.25l230 53.06-68.05 294.98-230-53.06z"/><path class="cls-2" d="M87 69.05l-3.58 16.09-4-.9L83 68.14l-6.08-1.37.83-3.68L94 66.74l-.83 3.68z"/><path class="cls-2" d="M93.66 80.59a4.39 4.39 0 0 0 .34 3.09 3.85 3.85 0 0 0 2.55 1.49 6.26 6.26 0 0 0 2 .16 3.21 3.21 0 0 0 1.67-.72l2.3 2.57a5.61 5.61 0 0 1-2.82 1.42 9.76 9.76 0 0 1-4.06-.24c-2.47-.55-4.17-1.62-5.09-3.19s-1.09-3.66-.5-6.28q1.82-8 9-6.42a6.52 6.52 0 0 1 4.47 2.9A7.66 7.66 0 0 1 104 81l-.41 1.81zm6.88-1.12q.76-3.42-2.22-4.09a3.47 3.47 0 0 0-1.69 0 2.6 2.6 0 0 0-1.23.77 6.5 6.5 0 0 0-1.06 1.95zM117.89 88.42a4.4 4.4 0 0 1-1.32 2.38 4.78 4.78 0 0 1-2.49 1.13 8.79 8.79 0 0 1-3.28-.15c-3.14-.71-5.07-2.06-5.81-4.06l3.17-1.31a3.39 3.39 0 0 0 1.28 1.59 5.69 5.69 0 0 0 1.81.73c1.75.4 2.74.08 3-.94a1.16 1.16 0 0 0-.51-1.2 12.51 12.51 0 0 0-2.16-1.27 8.93 8.93 0 0 1-3.78-2.81 4.28 4.28 0 0 1-.51-3.39 4.21 4.21 0 0 1 2.26-2.93 6.91 6.91 0 0 1 4.77-.27 9.25 9.25 0 0 1 3.4 1.44 5.16 5.16 0 0 1 1.93 2.46l-3.2 1.34a3.61 3.61 0 0 0-2.87-2.24 3.26 3.26 0 0 0-1.82 0 1.21 1.21 0 0 0-.81.88 1.09 1.09 0 0 0 .32 1 7.51 7.51 0 0 0 1.89 1.2 15.83 15.83 0 0 1 3.37 2.07 4.69 4.69 0 0 1 1.31 1.93 4.36 4.36 0 0 1 .05 2.42zM132.55 91.72a4.37 4.37 0 0 1-1.32 2.38 4.78 4.78 0 0 1-2.49 1.13 8.39 8.39 0 0 1-3.28-.15Q120.77 94 119.65 91l3.18-1.31a3.32 3.32 0 0 0 1.27 1.57 5.69 5.69 0 0 0 1.81.73c1.75.4 2.75.09 3-.93a1.17 1.17 0 0 0-.51-1.21 12.51 12.51 0 0 0-2.16-1.27 8.83 8.83 0 0 1-3.79-2.81 4.26 4.26 0 0 1-.51-3.38 4.19 4.19 0 0 1 2.26-2.93 7 7 0 0 1 4.8-.26 9.37 9.37 0 0 1 3.41 1.44 5.22 5.22 0 0 1 1.93 2.46l-3.2 1.34a3.65 3.65 0 0 0-2.88-2.24 3.26 3.26 0 0 0-1.82 0 1.21 1.21 0 0 0-.81.88 1.09 1.09 0 0 0 .32 1 7.51 7.51 0 0 0 1.92 1.21 16.25 16.25 0 0 1 3.37 2.07 4.59 4.59 0 0 1 1.31 1.92 4.27 4.27 0 0 1 0 2.44zM143.65 98.71l.35-1.55a7 7 0 0 1-5.13.94 5.14 5.14 0 0 1-3.47-2.1 4.77 4.77 0 0 1-.52-3.64 5.05 5.05 0 0 1 1.25-2.5 4.43 4.43 0 0 1 2.3-1.2 12.27 12.27 0 0 1 3.87 0l3.22.41.15-.67a1.88 1.88 0 0 0-.37-1.89 4.28 4.28 0 0 0-2.11-1 5 5 0 0 0-2.15-.07 2.77 2.77 0 0 0-1.54.86l-2.5-2.51a4.94 4.94 0 0 1 2.82-1.42 10.35 10.35 0 0 1 4 .2c2.33.53 3.93 1.31 4.78 2.36a4.92 4.92 0 0 1 .64 4.36L147 99.48zm1.27-7l-1.92-.27a6.43 6.43 0 0 0-3 .11 2 2 0 0 0-1.27 1.56 1.59 1.59 0 0 0 .25 1.53 2.77 2.77 0 0 0 1.43.72 4.28 4.28 0 0 0 1.73 0 7.87 7.87 0 0 0 2.17-.77zM80.78 96.86L77.16 113l-4-.91L76.75 96l-6.09-1.37.83-3.69 16.21 3.6-.83 3.69z"/><path class="cls-2" d="M81.75 116.1a6.81 6.81 0 0 0 2.06.9 2.35 2.35 0 0 0 1.57-.17 5.83 5.83 0 0 0 1.77-1.78l.58-.8-2.27-15.18 3.83.86 1.39 10.37 5.79-8.75 3.74.84L90.16 117a12.51 12.51 0 0 1-2.16 2.47 4.34 4.34 0 0 1-2 1 6.67 6.67 0 0 1-2.58-.14 12.48 12.48 0 0 1-3.12-1.16zM99.28 117.93l4.79-21.28 3.69.83-4.76 21.28zM111.64 113.85a4.34 4.34 0 0 0 .32 3.09 3.81 3.81 0 0 0 2.55 1.49 6 6 0 0 0 2 .16 3.1 3.1 0 0 0 1.67-.72l2.3 2.58a5.75 5.75 0 0 1-2.77 1.42 10.16 10.16 0 0 1-4.07-.24c-2.47-.56-4.16-1.62-5.09-3.19s-1.08-3.67-.49-6.29q1.8-8 9-6.42a6.47 6.47 0 0 1 4.47 2.91 7.64 7.64 0 0 1 .5 5.64l-.41 1.82zm6.87-1.12c.51-2.28-.22-3.64-2.22-4.09a3.47 3.47 0 0 0-1.69 0 2.54 2.54 0 0 0-1.23.78 6.52 6.52 0 0 0-1.06 1.94zM135.07 114a3.43 3.43 0 0 0-1.45-.63 4.11 4.11 0 0 0-2.06 0 8.91 8.91 0 0 0-2.22 1l-2.2 9.75-3.68-.83 3.37-15 3.69.83-.48 2.14a9.68 9.68 0 0 1 2.41-1.24A4.6 4.6 0 0 1 135 110a3.47 3.47 0 0 1 1.56.67z"/><path class="cls-3" d="M58.57 145.66l.88-1.93c.55-.23 1.12-.49 1.73-.76s1.21-.55 1.79-.83l1.66-.83c.52-.27 1-.52 1.33-.76.2-.12.4-.25.62-.41a5.9 5.9 0 0 0 .62-.5 4.53 4.53 0 0 0 .51-.57 1.56 1.56 0 0 0 .29-.63 1 1 0 0 0-.12-.86 1.34 1.34 0 0 0-.84-.49 3 3 0 0 0-.83-.07 2.86 2.86 0 0 0-.73.14 2.93 2.93 0 0 0-.65.29 6.42 6.42 0 0 0-.58.37L63 136a5.39 5.39 0 0 1 1-.63 4.74 4.74 0 0 1 1.11-.4 5.55 5.55 0 0 1 1.24-.13 6.47 6.47 0 0 1 1.39.18 5.84 5.84 0 0 1 1.43.5 2.93 2.93 0 0 1 1 .77 2.36 2.36 0 0 1 .47 1.07 3.24 3.24 0 0 1-.06 1.37 3.43 3.43 0 0 1-.4 1 5.06 5.06 0 0 1-.67.89 6.53 6.53 0 0 1-.87.78 9.3 9.3 0 0 1-1 .67 49.59 49.59 0 0 1-3.68 1.77l-1.14.48 5.06 1.14-1 2.11zM73.2 149l-2.75-.62 8.36-8.26-5.81-1.36 1-2.11 8.73 2L82 140zM91.36 148.29l-2 4.32-2.36-.54 2-4.27-.4-7.85 2.43.55.08 5.32 4.51-4.29 2.65.6zM97.31 150.27a2.92 2.92 0 0 0-.14.38 3 3 0 0 0-.09.35 1.52 1.52 0 0 0 .14 1.24 1.79 1.79 0 0 0 1.1.62 3.43 3.43 0 0 0 1.37.07 3.21 3.21 0 0 0 1.13-.41l.92 1.69a5.85 5.85 0 0 1-.82.43 4.1 4.1 0 0 1-.9.25 4.46 4.46 0 0 1-1 .05 8.34 8.34 0 0 1-1.28-.18 4.91 4.91 0 0 1-1.63-.65 3.23 3.23 0 0 1-1-1 3 3 0 0 1-.39-1.24 4.77 4.77 0 0 1 .11-1.39 7.63 7.63 0 0 1 2.35-4 4.29 4.29 0 0 1 .82-.57 4.35 4.35 0 0 1 1-.38 4.81 4.81 0 0 1 1.1-.13 5.52 5.52 0 0 1 1.24.15 5.42 5.42 0 0 1 1.51.55 3 3 0 0 1 .94.85 2.4 2.4 0 0 1 .4 1.12 3.92 3.92 0 0 1-.1 1.38 3.2 3.2 0 0 1-.14.48l-.22.56-.49 1.09zm4.35-.62l.15-.38a1.91 1.91 0 0 0 .1-.34 1.42 1.42 0 0 0-.09-1.06 1.55 1.55 0 0 0-1-.57 2.3 2.3 0 0 0-1 0 2.06 2.06 0 0 0-.83.43 3 3 0 0 0-.5.5 4.22 4.22 0 0 0-.42.62zM104.36 152.88a10.06 10.06 0 0 1 .45-1.38 8.55 8.55 0 0 1 .72-1.33 9.25 9.25 0 0 1 1-1.19 5.18 5.18 0 0 1 1.17-.89 4.08 4.08 0 0 1 1.34-.49 3.54 3.54 0 0 1 1.48 0 3.81 3.81 0 0 1 1.34.55 2.83 2.83 0 0 1 .85.91l.28-.64 2.15.49-3.91 8.57-1.8-.41.3-1.09c-.36.18-.68.33-1 .45a5.46 5.46 0 0 1-.82.26 3.36 3.36 0 0 1-.76.07 3.2 3.2 0 0 1-.75-.09 3.27 3.27 0 0 1-1.11-.44 2 2 0 0 1-.73-.76 2.72 2.72 0 0 1-.32-1.12 5.58 5.58 0 0 1 .12-1.47zm7.51-2a2.09 2.09 0 0 0-.26-.37 2.32 2.32 0 0 0-.35-.35 2.49 2.49 0 0 0-.43-.29 2.3 2.3 0 0 0-.5-.18 1.83 1.83 0 0 0-.87 0 2.45 2.45 0 0 0-.79.36 3.94 3.94 0 0 0-.68.62 5.46 5.46 0 0 0-.55.78 5.65 5.65 0 0 0-.43.85 6.93 6.93 0 0 0-.26.82 2.14 2.14 0 0 0 0 1.27 1 1 0 0 0 .78.57 2.25 2.25 0 0 0 .69.05 4.51 4.51 0 0 0 .72-.12 3.94 3.94 0 0 0 .69-.21c.23-.09.44-.18.62-.27zM121.91 152.77a2 2 0 0 0-.31-.21 2.09 2.09 0 0 0-.5-.17 2.74 2.74 0 0 0-1.27 0 8.28 8.28 0 0 0-1.49.56l-2.54 5.57-2.16-.48 3.92-8.57 2.16.49-.56 1.22a7 7 0 0 1 1.64-.74 2.78 2.78 0 0 1 1.39-.07 1.92 1.92 0 0 1 .32.09l.31.11c.1 0 .18.09.26.13l.18.12zM122.69 157.52a1.63 1.63 0 0 0 .25.53 1.41 1.41 0 0 0 .36.37 1.89 1.89 0 0 0 .46.26 3 3 0 0 0 .55.17 2.63 2.63 0 0 0 1.42 0 .84.84 0 0 0 .58-.62.93.93 0 0 0 0-.33.64.64 0 0 0-.16-.32 2.63 2.63 0 0 0-.44-.37 9.2 9.2 0 0 0-.79-.45 7.62 7.62 0 0 1-1.16-.72 3.07 3.07 0 0 1-.68-.74 1.8 1.8 0 0 1-.26-.8 3 3 0 0 1 .07-.92 2.84 2.84 0 0 1 .51-1.1 2.9 2.9 0 0 1 1-.8 3.73 3.73 0 0 1 1.36-.38 5.22 5.22 0 0 1 1.76.14 5 5 0 0 1 1.93.82 3.47 3.47 0 0 1 1.16 1.49l-2.13.76a1.6 1.6 0 0 0-.53-.82 2.42 2.42 0 0 0-1.06-.49 2.52 2.52 0 0 0-.69-.07 1.75 1.75 0 0 0-.51.11 1.13 1.13 0 0 0-.32.22.61.61 0 0 0-.14.26 1.08 1.08 0 0 0 0 .35.59.59 0 0 0 .13.31 1.45 1.45 0 0 0 .36.32 4.14 4.14 0 0 0 .64.38 9.1 9.1 0 0 1 1.28.78 3.23 3.23 0 0 1 .76.77 1.9 1.9 0 0 1 .32.82 2.88 2.88 0 0 1-.07 1 3 3 0 0 1-.54 1.18 2.79 2.79 0 0 1-1 .81 3.91 3.91 0 0 1-1.43.37 6 6 0 0 1-1.83-.16 6.8 6.8 0 0 1-1.29-.4 3.82 3.82 0 0 1-.92-.52 2.67 2.67 0 0 1-.61-.65 3.49 3.49 0 0 1-.39-.8zM133.89 162.63l3.92-8.57 2.16.49-3.92 8.57zm4.76-10.63a1.73 1.73 0 0 1 .15-.41 1.61 1.61 0 0 1 .33-.42 1.37 1.37 0 0 1 .52-.28 1.63 1.63 0 0 1 .76 0 1.29 1.29 0 0 1 .78.4.76.76 0 0 1 .11.65 1.88 1.88 0 0 1-.17.44 1.53 1.53 0 0 1-.34.42 1.38 1.38 0 0 1-.53.26 1.55 1.55 0 0 1-.74 0 1.82 1.82 0 0 1-.5-.17.89.89 0 0 1-.29-.24.6.6 0 0 1-.11-.3 1.08 1.08 0 0 1 .03-.35zM144.18 165l2.17-4.72c.13-.3.25-.56.34-.8a4.75 4.75 0 0 0 .23-.73.78.78 0 0 0-.07-.64.87.87 0 0 0-.53-.31 2.37 2.37 0 0 0-.71 0 5.52 5.52 0 0 0-.78.13 7.92 7.92 0 0 0-.78.26l-.77.34-2.61 5.72-2.16-.49 3.92-8.57 2.16.49-.51 1.11c.27-.14.54-.27.83-.39a5.22 5.22 0 0 1 .87-.29 5.28 5.28 0 0 1 .89-.11 3.05 3.05 0 0 1 .9.08 2.84 2.84 0 0 1 1 .41 1.78 1.78 0 0 1 .57.63 1.81 1.81 0 0 1 .22.77 3.37 3.37 0 0 1-.07.83 7 7 0 0 1-.23.78c-.1.26-.18.46-.26.62l-2.47 5.4zM153.42 167l5.19-11.3 7.54 1.7-.93 2-5.22-1.1-1 2.41 4.36 1-.94 2-4.37-1-1.25 2.71 5.18 1.16-1 2.11zM164 166.31a6.76 6.76 0 0 1 .39-1.23 8.78 8.78 0 0 1 1.34-2.23 7.48 7.48 0 0 1 .89-.89 4.15 4.15 0 0 1 1.67-.88 4.24 4.24 0 0 1 1.94 0 3.49 3.49 0 0 1 1.24.54 2.74 2.74 0 0 1 .83.9l2-4.22 2.14.48-5.62 12.22-2-.45.37-.83a6.51 6.51 0 0 1-1.61.51 3.51 3.51 0 0 1-1.48 0 3.82 3.82 0 0 1-1.18-.45 2.18 2.18 0 0 1-.76-.78 2.42 2.42 0 0 1-.33-1.12 4.9 4.9 0 0 1 .17-1.57zm4-2.65a3.94 3.94 0 0 0-.51.55 6 6 0 0 0-.47.69 5.65 5.65 0 0 0-.65 1.62 2 2 0 0 0 0 1.26 1.24 1.24 0 0 0 .93.61 2.65 2.65 0 0 0 .58.06 4.27 4.27 0 0 0 1.28-.2 4.53 4.53 0 0 0 .59-.23l1.71-3.75a2.41 2.41 0 0 0-.25-.37 3 3 0 0 0-.36-.35 2.69 2.69 0 0 0-.43-.29 2 2 0 0 0-1.43-.16 2.39 2.39 0 0 0-.99.56zM179.29 163.41l-2.17 4.72-.33.78a4.52 4.52 0 0 0-.19.61 1 1 0 0 0 0 .76.82.82 0 0 0 .54.33 2.32 2.32 0 0 0 .7 0 4.27 4.27 0 0 0 .77-.13 5.94 5.94 0 0 0 .78-.26l.77-.34 2.61-5.72 2.16.49-3.93 8.6-2.16-.49.51-1.1a6.28 6.28 0 0 1-.83.39 5.39 5.39 0 0 1-.86.28 4.36 4.36 0 0 1-.87.13 2.63 2.63 0 0 1-.84-.07 3 3 0 0 1-1.06-.42 1.88 1.88 0 0 1-.6-.63 1.73 1.73 0 0 1-.23-.77 3.41 3.41 0 0 1 .07-.84 5 5 0 0 1 .24-.78 5.24 5.24 0 0 1 .25-.62l2.47-5.41zM191.3 174.21a4.55 4.55 0 0 1-.89.49 4.79 4.79 0 0 1-1 .29 5.2 5.2 0 0 1-1 .08 5.69 5.69 0 0 1-1.08-.13 5.23 5.23 0 0 1-1.59-.61 2.61 2.61 0 0 1-.94-1 2.86 2.86 0 0 1-.36-1.3 6.38 6.38 0 0 1 .16-1.62 7.11 7.11 0 0 1 .37-1.1 7.26 7.26 0 0 1 .64-1.19 6.93 6.93 0 0 1 .92-1.12 4.75 4.75 0 0 1 1.21-.88 4.7 4.7 0 0 1 3.29-.39 6.84 6.84 0 0 1 1.13.36 3.89 3.89 0 0 1 .85.5 2.83 2.83 0 0 1 .6.65 3.29 3.29 0 0 1 .4.82l-2.09.73a1.58 1.58 0 0 0-.47-.74 2.44 2.44 0 0 0-1-.42 2.13 2.13 0 0 0-.94 0 2.41 2.41 0 0 0-.82.36 3.37 3.37 0 0 0-.68.63 5 5 0 0 0-.54.78 5.08 5.08 0 0 0-.39.82 5.3 5.3 0 0 0-.24.75 3.37 3.37 0 0 0-.09.73 1.25 1.25 0 0 0 .11.59 1.09 1.09 0 0 0 .39.44 2.21 2.21 0 0 0 .72.28 2.58 2.58 0 0 0 1.14 0 3 3 0 0 0 1.06-.45zM193.33 172.92a7.56 7.56 0 0 1 .45-1.37 8.21 8.21 0 0 1 .72-1.34 7.28 7.28 0 0 1 1-1.18 5.54 5.54 0 0 1 1.17-.9 4.23 4.23 0 0 1 1.34-.49 3.54 3.54 0 0 1 1.48 0 3.81 3.81 0 0 1 1.34.55 2.79 2.79 0 0 1 .84.91l.29-.63 2.14.48-3.9 8.57-1.81-.41.3-1.09c-.35.18-.68.33-1 .45a5.22 5.22 0 0 1-.83.26 3.3 3.3 0 0 1-.75.08 4.07 4.07 0 0 1-.76-.1 3.27 3.27 0 0 1-1.11-.44 2.13 2.13 0 0 1-.73-.76 2.68 2.68 0 0 1-.31-1.12 4.9 4.9 0 0 1 .13-1.47zm7.51-2a2.78 2.78 0 0 0-.26-.37 2.39 2.39 0 0 0-.36-.35 2.69 2.69 0 0 0-.43-.29 2 2 0 0 0-.5-.18 1.83 1.83 0 0 0-.87 0 2.5 2.5 0 0 0-.78.36 3.6 3.6 0 0 0-.68.62 5.89 5.89 0 0 0-.56.78 7.44 7.44 0 0 0-.42.85 4.36 4.36 0 0 0-.26.83 2 2 0 0 0 0 1.26 1 1 0 0 0 .78.57 2.32 2.32 0 0 0 .7 0 6 6 0 0 0 .72-.11 5.05 5.05 0 0 0 .69-.22l.62-.27zM207.38 179.19a6.22 6.22 0 0 1-1 0 7.07 7.07 0 0 1-.93-.14 3.61 3.61 0 0 1-1.06-.4 1.93 1.93 0 0 1-.66-.6 1.65 1.65 0 0 1-.27-.76 2.89 2.89 0 0 1 .06-.91 4.33 4.33 0 0 1 .16-.52q.1-.27.24-.57l1.85-4.05-1.1-.25.76-1.67 1.11.24 1.11-2.38 2.18.5-1.12 2.38 2.06.46-.76 1.67-2.06-.46-1.85 4-.14.35a2.43 2.43 0 0 0-.09.3.8.8 0 0 0 .05.65.65.65 0 0 0 .43.27 4.57 4.57 0 0 0 .69.1 3.25 3.25 0 0 0 .7 0zM208.73 179.49l3.93-8.57 2.16.49-3.93 8.59zm4.76-10.64a1.81 1.81 0 0 1 .16-.41 1.38 1.38 0 0 1 .35-.44 1.41 1.41 0 0 1 .53-.28 1.59 1.59 0 0 1 .75 0 1.29 1.29 0 0 1 .78.4.76.76 0 0 1 .11.65 1.73 1.73 0 0 1-.17.44 1.37 1.37 0 0 1-.34.42 1.47 1.47 0 0 1-.53.27 1.56 1.56 0 0 1-.74 0 1.75 1.75 0 0 1-.49-.17.79.79 0 0 1-.29-.24.5.5 0 0 1-.11-.3.85.85 0 0 1-.01-.34zM214.39 177.33a7.79 7.79 0 0 1 .32-1 7.9 7.9 0 0 1 .54-1.15 9 9 0 0 1 .79-1.11 4.63 4.63 0 0 1 1.05-.92 4.42 4.42 0 0 1 1.73-.7 5.43 5.43 0 0 1 2.17.1 4.69 4.69 0 0 1 1.43.56 3 3 0 0 1 1.43 2.26 4.71 4.71 0 0 1-.11 1.68 6 6 0 0 1-.32 1 7.57 7.57 0 0 1-1.41 2.25 5 5 0 0 1-1.11.93 4.6 4.6 0 0 1-.86.43 3.66 3.66 0 0 1-.88.22 5 5 0 0 1-.95 0 8.24 8.24 0 0 1-1.07-.18 4.92 4.92 0 0 1-1.58-.61 3 3 0 0 1-.94-1 3 3 0 0 1-.37-1.25 5.45 5.45 0 0 1 .14-1.51zm2.27.55a3.41 3.41 0 0 0-.07.68 1.17 1.17 0 0 0 .15.54 1.09 1.09 0 0 0 .39.41 2 2 0 0 0 .67.27 2.28 2.28 0 0 0 1 0 2.93 2.93 0 0 0 .89-.43 3.45 3.45 0 0 0 .58-.57 5.88 5.88 0 0 0 .51-.72 5.76 5.76 0 0 0 .4-.78 3.81 3.81 0 0 0 .25-.71 2.1 2.1 0 0 0-.09-1.43 1.52 1.52 0 0 0-1.09-.74 2.11 2.11 0 0 0-1 0 2.59 2.59 0 0 0-.88.47 3 3 0 0 0-.56.57 5.75 5.75 0 0 0-.5.75 7 7 0 0 0-.66 1.67zM229 184.06l2.17-4.72c.14-.29.25-.56.35-.8a4.71 4.71 0 0 0 .22-.73.69.69 0 0 0-.59-.94 2.45 2.45 0 0 0-.72-.05 5.39 5.39 0 0 0-.77.13 8.1 8.1 0 0 0-.79.26l-.76.34-2.61 5.72-2.17-.49 3.93-8.56 2.16.48-.52 1.11c.27-.14.55-.27.83-.39a4.88 4.88 0 0 1 .87-.28 4.53 4.53 0 0 1 .89-.12 3.43 3.43 0 0 1 .9.08 3 3 0 0 1 1 .41 1.91 1.91 0 0 1 .58.63 2 2 0 0 1 .21.77 3 3 0 0 1-.07.83 6.41 6.41 0 0 1-.23.78 5.06 5.06 0 0 1-.26.62l-2.47 5.41z"/><path class="cls-2" d="M55.3 172.69l-.65 2.89 4 .89-.27 1.2-4-.89-1 4.61-1.33-.3 2.23-9.89 6 1.35-.28 1.19zM64.2 183.83l.26-1.11a6 6 0 0 1-1.48.67 2.82 2.82 0 0 1-1.43.08 2.34 2.34 0 0 1-1.15-.56 1.64 1.64 0 0 1-.49-1 4.72 4.72 0 0 1 .15-1.62l1.12-5 1.23.27-1 4.43a6 6 0 0 0-.21 1.45.93.93 0 0 0 .23.6 1.35 1.35 0 0 0 .67.32 2.42 2.42 0 0 0 1.18-.11 8.52 8.52 0 0 0 1.41-.6l1.19-5.3 1.23.27-1.69 7.5zM72.57 185.72l1-4.42a6 6 0 0 0 .21-1.45 1 1 0 0 0-.23-.6 1.35 1.35 0 0 0-.67-.32 2.41 2.41 0 0 0-1.18.11 7.55 7.55 0 0 0-1.42.6l-1.19 5.29-1.23-.27 1.69-7.5 1.23.28-.25 1.11a6.35 6.35 0 0 1 1.47-.65 2.94 2.94 0 0 1 1.49-.09 2 2 0 0 1 1.45 1 3.37 3.37 0 0 1 0 2.2l-1.13 5zM83.49 179l-.65 2.89 4 .89-.27 1.2-4-.89-1 4.61-1.32-.3 2.23-9.89 6 1.35-.26 1.19zM91.71 190l.21-.93a7.42 7.42 0 0 1-1.33.56 2.58 2.58 0 0 1-1.38 0 2.13 2.13 0 0 1-1.51-1 2.48 2.48 0 0 1-.21-1.8 2.59 2.59 0 0 1 .6-1.22 2.2 2.2 0 0 1 1.06-.61 5.12 5.12 0 0 1 1.76 0l1.88.25.08-.36a1.35 1.35 0 0 0-.21-1.29 2.57 2.57 0 0 0-1.26-.6 2.12 2.12 0 0 0-1.23 0 1.67 1.67 0 0 0-.72.44l-.87-.84a2.22 2.22 0 0 1 1.26-.72 4.06 4.06 0 0 1 1.82.06 3.68 3.68 0 0 1 2.19 1.06 2.55 2.55 0 0 1 .24 2.18l-1.15 5.1zm.86-3.8l-1.23-.16a3.66 3.66 0 0 0-1.83.09 1.31 1.31 0 0 0-.74 1 1.25 1.25 0 0 0 .12 1 1.5 1.5 0 0 0 .94.52 1.41 1.41 0 0 0 .58 0 3.3 3.3 0 0 0 .59-.13 3.66 3.66 0 0 0 .59-.24l.57-.27zM101.21 191a2.92 2.92 0 0 1-1.2.77 3.28 3.28 0 0 1-1.8 0 3.13 3.13 0 0 1-2.21-1.6 4.56 4.56 0 0 1-.17-3.14 4.65 4.65 0 0 1 1.49-2.78 3.06 3.06 0 0 1 2.67-.47 2.87 2.87 0 0 1 2.33 2l-1.14.39a2.36 2.36 0 0 0-.5-.83 1.85 1.85 0 0 0-.94-.46 1.66 1.66 0 0 0-1.71.43 4.49 4.49 0 0 0-.94 2.06 4.89 4.89 0 0 0-.15 1.69 1.87 1.87 0 0 0 .46 1.05 2 2 0 0 0 1.09.57 2 2 0 0 0 1 0 2.56 2.56 0 0 0 .88-.54zM106.42 193.34a5.11 5.11 0 0 1-1.47-.09 2.1 2.1 0 0 1-1.5-1 3 3 0 0 1-.07-2l.94-4.2-1.07-.25.23-1 1.08.24.44-2.04 1.22.28-.47 2.08 1.91.43-.24 1-1.9-.43-.89 4a3.38 3.38 0 0 0-.11 1.34c.06.29.3.48.72.58a2.48 2.48 0 0 0 1 0zM111 187.35a.82.82 0 0 1-.36.59 1.1 1.1 0 0 1-.71 0 .88.88 0 0 1-.63-.37.93.93 0 0 1 0-.63.84.84 0 0 1 .33-.57 1 1 0 0 1 .71 0 1 1 0 0 1 .64.35.85.85 0 0 1 .02.63zm-1.35 6a.8.8 0 0 1-.36.58 1.07 1.07 0 0 1-.7 0 .87.87 0 0 1-.64-.36.94.94 0 0 1 0-.63.82.82 0 0 1 .34-.57.93.93 0 0 1 .7 0 1 1 0 0 1 .64.34.88.88 0 0 1 .05.63zM121.43 187.59l-2 8.69-1.31-.29 2-8.7-3.28-.74.27-1.19 7.87 1.77-.27 1.2zM127.74 198.15L128 197a5.71 5.71 0 0 1-1.47.67 2.72 2.72 0 0 1-1.43.08 2.47 2.47 0 0 1-1.16-.55 1.63 1.63 0 0 1-.48-1 4.68 4.68 0 0 1 .14-1.62l1.13-5 1.23.28-1 4.42a6.07 6.07 0 0 0-.21 1.45.92.92 0 0 0 .24.6 1.27 1.27 0 0 0 .67.32 2.38 2.38 0 0 0 1.17-.11 7.86 7.86 0 0 0 1.41-.6l1.2-5.3 1.23.28-1.67 7.5zM136.86 193.6a1.54 1.54 0 0 0-.55-.21 2.49 2.49 0 0 0-1.12 0 5.37 5.37 0 0 0-1.4.67l-1.16 5.18-1.23-.24 1.69-7.5 1.22.28L134 193a8 8 0 0 1 1.29-.68 2.09 2.09 0 0 1 1.35-.12 1.62 1.62 0 0 1 .71.31zM141.9 201.34l1-4.42a6 6 0 0 0 .21-1.45 1 1 0 0 0-.23-.6 1.35 1.35 0 0 0-.67-.32 2.46 2.46 0 0 0-1.19.11 7.11 7.11 0 0 0-1.41.6l-1.19 5.29-1.23-.27 1.69-7.5 1.23.28-.25 1.11a6.15 6.15 0 0 1 1.42-.65 2.94 2.94 0 0 1 1.49-.09 2 2 0 0 1 1.45 1 3.37 3.37 0 0 1 0 2.2l-1.13 5zM147.21 198.75a3.41 3.41 0 0 0 0 2.23 2 2 0 0 0 1.48 1 1.82 1.82 0 0 0 .93 0 2.57 2.57 0 0 0 .88-.52l.87.86a3.16 3.16 0 0 1-1.26.75 3.43 3.43 0 0 1-1.74 0 3.15 3.15 0 0 1-2.28-1.53 4.54 4.54 0 0 1-.17-3.12 4.86 4.86 0 0 1 1.49-2.86 3 3 0 0 1 2.65-.44 2.82 2.82 0 0 1 2 1.33 3.93 3.93 0 0 1 .14 2.75l-.15.69zm3.89-.14a2.74 2.74 0 0 0-.1-1.61 1.59 1.59 0 0 0-1.2-.86 1.72 1.72 0 0 0-1.44.21 3.19 3.19 0 0 0-.94 1.49zM158 205l.17-.74a4 4 0 0 1-1.17.46 3.14 3.14 0 0 1-1.33 0 2.49 2.49 0 0 1-1.86-1.49 5 5 0 0 1-.08-3 4.91 4.91 0 0 1 1.46-2.75 2.66 2.66 0 0 1 2.46-.6 3.2 3.2 0 0 1 1.9 1.3l.85-3.76 1.23.28-2.4 10.64zm1.31-5.81a3.15 3.15 0 0 0-1.75-1.24 1.7 1.7 0 0 0-1.53.4 3.72 3.72 0 0 0-1 2.07c-.43 1.9-.05 3 1.14 3.24a2.29 2.29 0 0 0 1.19 0 4.16 4.16 0 0 0 1.07-.46zM170.29 207.73l.17-.74a4 4 0 0 1-1.17.46 3.14 3.14 0 0 1-1.33 0 2.49 2.49 0 0 1-1.86-1.45 5 5 0 0 1-.08-3 4.88 4.88 0 0 1 1.46-2.75 2.66 2.66 0 0 1 2.46-.6 3.2 3.2 0 0 1 1.9 1.3l.85-3.76 1.23.28-2.4 10.53zm1.31-5.81a3.15 3.15 0 0 0-1.75-1.24 1.7 1.7 0 0 0-1.53.4 3.72 3.72 0 0 0-1 2.07c-.43 1.9-.05 3 1.14 3.24a2.29 2.29 0 0 0 1.19 0 4.32 4.32 0 0 0 1.07-.46zM181 206.23a4.58 4.58 0 0 1-1.5 2.76 3.11 3.11 0 0 1-2.68.45 3.15 3.15 0 0 1-2.23-1.54 4.54 4.54 0 0 1-.18-3.16 4.61 4.61 0 0 1 1.52-2.8 3.15 3.15 0 0 1 2.68-.43 3.05 3.05 0 0 1 2.22 1.55 4.64 4.64 0 0 1 .17 3.17zm-1.27-.29a3.93 3.93 0 0 0 0-2.33 2.07 2.07 0 0 0-3.05-.69 5.31 5.31 0 0 0-1 4.39 2.07 2.07 0 0 0 3.07.7 3.85 3.85 0 0 0 .99-2.07zM189.24 212l-1.14-.26-.54-6.14-3.12 5.32-1.12-.25-.18-7.92 1.28.29v6l3.07-5.31 1 .23.55 6.12 2.5-5.44 1.23.28zM197.47 213.85l1-4.41a6.2 6.2 0 0 0 .22-1.45.92.92 0 0 0-.24-.6 1.31 1.31 0 0 0-.67-.32 2.42 2.42 0 0 0-1.18.11 7.11 7.11 0 0 0-1.41.6l-1.19 5.29-1.23-.28 1.69-7.49 1.23.28-.25 1.11a5.76 5.76 0 0 1 1.42-.65 2.7 2.7 0 0 1 1.48-.09 2 2 0 0 1 1.46 1 3.39 3.39 0 0 1 0 2.2l-1.12 5zM209.28 216.52l.21-.94a6.9 6.9 0 0 1-1.34.57 2.68 2.68 0 0 1-1.38 0 2.13 2.13 0 0 1-1.5-1 2.47 2.47 0 0 1-.21-1.81 2.55 2.55 0 0 1 .59-1.21 2.17 2.17 0 0 1 1.06-.61 5.2 5.2 0 0 1 1.77-.05l1.88.25.08-.37a1.31 1.31 0 0 0-.22-1.28 2.48 2.48 0 0 0-1.26-.62 2.31 2.31 0 0 0-1.23 0 1.8 1.8 0 0 0-.71.44l-.87-.84a2.34 2.34 0 0 1 1.26-.72 4.37 4.37 0 0 1 1.82.06 3.76 3.76 0 0 1 2.18 1.11 2.62 2.62 0 0 1 .25 2.19l-1.15 5.09zm.86-3.81l-1.23-.15a3.66 3.66 0 0 0-1.83.09 1.5 1.5 0 0 0-.62 2 1.5 1.5 0 0 0 .94.52 1.56 1.56 0 0 0 .57 0 4.34 4.34 0 0 0 .6-.14 5.5 5.5 0 0 0 .59-.23l.56-.28zM217.59 218.39l1-4.42a6.2 6.2 0 0 0 .22-1.45 1 1 0 0 0-.23-.6 1.39 1.39 0 0 0-.68-.32 2.42 2.42 0 0 0-1.18.11 7.75 7.75 0 0 0-1.41.6l-1.19 5.29-1.23-.27 1.69-7.5 1.23.28-.25 1.11a6.15 6.15 0 0 1 1.42-.65 2.91 2.91 0 0 1 1.48-.09 2 2 0 0 1 1.46 1 3.44 3.44 0 0 1 0 2.2l-1.13 5zM55 196.3a4.63 4.63 0 0 1-1.5 2.76 3.61 3.61 0 0 1-4.88-1.06 4.59 4.59 0 0 1-.19-3.16A4.66 4.66 0 0 1 50 192a3.15 3.15 0 0 1 2.68-.43 3 3 0 0 1 2.22 1.56 4.61 4.61 0 0 1 .1 3.17zm-1.24-.3a3.83 3.83 0 0 0 0-2.33 1.8 1.8 0 0 0-1.35-1 1.84 1.84 0 0 0-1.69.35 5.31 5.31 0 0 0-1 4.39 2.07 2.07 0 0 0 3.07.7 3.85 3.85 0 0 0 .97-2.11zM62 191.78a2.51 2.51 0 0 0-.48-.3 2.55 2.55 0 0 0-.55-.21 1 1 0 0 0-.93.13 2.23 2.23 0 0 0-.53 1.19l-.16.73 1.67.37-.24 1-1.66-.38-1.46 6.47-1.23-.28 1.46-6.46-1.1-.25.23-1 1.1.25.17-.73a3.23 3.23 0 0 1 1-1.88 2.24 2.24 0 0 1 1.94-.24 3.75 3.75 0 0 1 1.39.61zm4.52 1a3.06 3.06 0 0 0-1-.51 1.09 1.09 0 0 0-.94.12 2.32 2.32 0 0 0-.52 1.2l-.17.72 1.67.38-.23 1-1.67-.38-1.46 6.47-1.2-.23 1.45-6.46-1.1-.25.23-1 1.1.25.17-.73a3.2 3.2 0 0 1 1-1.88 2.24 2.24 0 0 1 1.94-.24 3.75 3.75 0 0 1 1.39.61zM67 199.13a3.55 3.55 0 0 0 0 2.23 2 2 0 0 0 1.49 1 1.79 1.79 0 0 0 .92 0 2.45 2.45 0 0 0 .89-.52l.87.86a3.19 3.19 0 0 1-1.27.75 3.43 3.43 0 0 1-1.74 0 3.19 3.19 0 0 1-2.28-1.53 4.55 4.55 0 0 1-.16-3.12 4.81 4.81 0 0 1 1.49-2.86 3 3 0 0 1 2.64-.44 2.8 2.8 0 0 1 2 1.33 4 4 0 0 1 .15 2.75l-.16.69zm3.89-.14a2.74 2.74 0 0 0-.07-1.66 1.59 1.59 0 0 0-1.21-.86 1.7 1.7 0 0 0-1.43.21 3.12 3.12 0 0 0-1 1.49zM78.48 198.9a1.42 1.42 0 0 0-.56-.21 2.32 2.32 0 0 0-1.11 0 4.86 4.86 0 0 0-1.4.66l-1.17 5.19-1.24-.27 1.69-7.5 1.23.28-.28 1.22a9.49 9.49 0 0 1 1.29-.69 2.26 2.26 0 0 1 1.36-.12 1.67 1.67 0 0 1 .71.32zM86.5 207.31a5 5 0 0 1-1.46-.1 2.07 2.07 0 0 1-1.51-1 3 3 0 0 1-.07-2l1-4.2-1.08-.24.24-1 1.07.24.47-2.08 1.23.27-.47 2.09 1.9.43-.23 1-1.91-.43-.89 4a3.4 3.4 0 0 0-.11 1.34c.06.3.3.49.72.58a2.71 2.71 0 0 0 1.06 0zM94.88 205.28a4.59 4.59 0 0 1-1.51 2.72 3.09 3.09 0 0 1-2.67.45 3.14 3.14 0 0 1-2.23-1.55 5.74 5.74 0 0 1 1.34-5.9 3.15 3.15 0 0 1 2.68-.43 3.07 3.07 0 0 1 2.22 1.55 4.7 4.7 0 0 1 .17 3.16zm-1.27-.28a3.87 3.87 0 0 0 0-2.34 1.79 1.79 0 0 0-1.35-1 1.81 1.81 0 0 0-1.69.35 4 4 0 0 0-1 2.11 4 4 0 0 0 0 2.28 2.07 2.07 0 0 0 3.07.7 4 4 0 0 0 .97-2.1zM107.23 208a5 5 0 0 1-1.44 2.79 2.59 2.59 0 0 1-2.41.57 3.09 3.09 0 0 1-1.11-.5 4 4 0 0 1-.86-.82l-.14.61-1.23-.27 2.4-10.64 1.23.27-.88 3.9a3.81 3.81 0 0 1 1.17-.46 3.14 3.14 0 0 1 1.33 0 2.49 2.49 0 0 1 1.88 1.49 5.07 5.07 0 0 1 .06 3.06zm-1.27-.25a4.16 4.16 0 0 0 0-2.28 1.55 1.55 0 0 0-1.18-1 2.45 2.45 0 0 0-1.17 0 5.19 5.19 0 0 0-1.1.46l-.89 4a4.06 4.06 0 0 0 .81.79 2.85 2.85 0 0 0 1 .47 1.6 1.6 0 0 0 1.49-.41 3.81 3.81 0 0 0 1.08-2.05zM110.13 208.85a3.55 3.55 0 0 0 0 2.23 2 2 0 0 0 1.49 1 1.83 1.83 0 0 0 .93 0 2.66 2.66 0 0 0 .88-.52l.87.86a3.13 3.13 0 0 1-1.27.75 3.43 3.43 0 0 1-1.74 0 3.19 3.19 0 0 1-2.29-1.57 4.55 4.55 0 0 1-.16-3.12 4.86 4.86 0 0 1 1.49-2.86 3 3 0 0 1 2.65-.44 2.8 2.8 0 0 1 2 1.33 4 4 0 0 1 .15 2.75l-.13.74zm3.89-.14a2.74 2.74 0 0 0-.07-1.66 1.59 1.59 0 0 0-1.21-.86 1.7 1.7 0 0 0-1.43.21 3.14 3.14 0 0 0-1 1.49zM124.36 215.84l.21-.94a6.83 6.83 0 0 1-1.33.57 2.72 2.72 0 0 1-1.39 0 2.15 2.15 0 0 1-1.5-1 2.51 2.51 0 0 1-.21-1.81 2.64 2.64 0 0 1 .59-1.21 2.16 2.16 0 0 1 1.07-.61 5.12 5.12 0 0 1 1.76 0l1.88.25.08-.37a1.33 1.33 0 0 0-.21-1.28 2.56 2.56 0 0 0-1.27-.62 2.27 2.27 0 0 0-1.22 0 1.89 1.89 0 0 0-.72.44l-.87-.84a2.34 2.34 0 0 1 1.26-.72 4.23 4.23 0 0 1 1.82.07 3.74 3.74 0 0 1 2.19 1.1 2.62 2.62 0 0 1 .24 2.19l-1.15 5.09zm.86-3.8l-1.23-.16a3.66 3.66 0 0 0-1.83.09 1.28 1.28 0 0 0-.74 1 1.25 1.25 0 0 0 .12 1 1.5 1.5 0 0 0 .94.52 1.56 1.56 0 0 0 .57 0 3.26 3.26 0 0 0 .6-.14 4.79 4.79 0 0 0 .59-.23l.57-.28zM140.2 214.21a7.33 7.33 0 0 1-1.12 2.78 3.09 3.09 0 0 1-1.79 1.24 6.35 6.35 0 0 1-2.86-.13l-2.52-.56 2.23-9.89 2.49.56a6.47 6.47 0 0 1 2.62 1.11 3.19 3.19 0 0 1 1.12 1.91 7.3 7.3 0 0 1-.17 2.98zm-1.39-.33a6.43 6.43 0 0 0 .19-2.28 2.17 2.17 0 0 0-.78-1.4 4.65 4.65 0 0 0-1.93-.81l-1.1-.25-1.69 7.49 1.1.25a4.48 4.48 0 0 0 2.09.09 2.21 2.21 0 0 0 1.3-.92 6.52 6.52 0 0 0 .82-2.17zM145.4 220.58l.22-.94a7.17 7.17 0 0 1-1.34.57 2.68 2.68 0 0 1-1.38 0 2.15 2.15 0 0 1-1.51-1 2.51 2.51 0 0 1-.21-1.81 2.56 2.56 0 0 1 .6-1.21 2.13 2.13 0 0 1 1.06-.61 5.14 5.14 0 0 1 1.76-.05l1.88.25.09-.37a1.36 1.36 0 0 0-.22-1.28 2.57 2.57 0 0 0-1.26-.62 2.3 2.3 0 0 0-1.23 0 2 2 0 0 0-.72.44l-.87-.84a2.34 2.34 0 0 1 1.26-.72 4.23 4.23 0 0 1 1.82.07 3.74 3.74 0 0 1 2.19 1.1 2.58 2.58 0 0 1 .24 2.19l-1.15 5.09zm.86-3.8l-1.23-.16a3.61 3.61 0 0 0-1.82.09 1.29 1.29 0 0 0-.75 1 1.25 1.25 0 0 0 .12 1 1.53 1.53 0 0 0 .94.52 1.61 1.61 0 0 0 .58 0 3.35 3.35 0 0 0 .59-.14 4.24 4.24 0 0 0 .59-.23q.28-.15.57-.27zM149.06 221.4l2.4-10.64 1.23.28-2.4 10.64zM152.84 222.25l2.39-10.64 1.23.28-2.4 10.64zM160.81 224.05l.21-.94a6.9 6.9 0 0 1-1.34.57 2.68 2.68 0 0 1-1.38 0 2.13 2.13 0 0 1-1.5-1 2.46 2.46 0 0 1-.21-1.81 2.55 2.55 0 0 1 .59-1.21 2.13 2.13 0 0 1 1.06-.61A5.2 5.2 0 0 1 160 219l1.88.25.08-.36a1.32 1.32 0 0 0-.22-1.29 2.48 2.48 0 0 0-1.26-.62 2.31 2.31 0 0 0-1.23 0 1.92 1.92 0 0 0-.71.44l-.87-.84a2.34 2.34 0 0 1 1.26-.72 4.23 4.23 0 0 1 1.82.07 3.71 3.71 0 0 1 2.18 1.1 2.62 2.62 0 0 1 .25 2.19l-1.18 5.1zm.86-3.8l-1.23-.16a3.66 3.66 0 0 0-1.83.09 1.26 1.26 0 0 0-.74 1 1.25 1.25 0 0 0 .12 1 1.5 1.5 0 0 0 .94.52 1.55 1.55 0 0 0 .57 0 4.29 4.29 0 0 0 .6-.13l.59-.24.56-.27zM170 224a2 2 0 0 1-1.11 1.48 3.34 3.34 0 0 1-2.25.12 3.87 3.87 0 0 1-1.6-.73 2.39 2.39 0 0 1-.87-1.24l1.13-.38a2 2 0 0 0 1.61 1.32 2 2 0 0 0 1.28 0 1 1 0 0 0 .6-.75.88.88 0 0 0 0-.54 1.25 1.25 0 0 0-.37-.45 8.24 8.24 0 0 0-1.14-.67 4.09 4.09 0 0 1-1.69-1.27 2.21 2.21 0 0 1 .86-3 3.06 3.06 0 0 1 2.11-.16 3.36 3.36 0 0 1 1.56.76 2.63 2.63 0 0 1 .76 1.15l-1.12.38a2.08 2.08 0 0 0-2.56-1.22 1 1 0 0 0-.62.75.82.82 0 0 0 .21.82 4.31 4.31 0 0 0 1.07.68 7.9 7.9 0 0 1 1.62 1 2 2 0 0 1 .56.87A2.2 2.2 0 0 1 170 224zM183.5 227.34a4.44 4.44 0 0 1-1.22.93 3.56 3.56 0 0 1-1.27.34 5.68 5.68 0 0 1-1.58-.15 4.08 4.08 0 0 1-3-2 7.81 7.81 0 0 1 1.73-7.74 4 4 0 0 1 3.52-.56 5.14 5.14 0 0 1 1.49.57 3.59 3.59 0 0 1 1 .84 3.84 3.84 0 0 1 .61 1.25l-1.24.47a3.82 3.82 0 0 0-.46-1 2.64 2.64 0 0 0-.67-.61 3.39 3.39 0 0 0-1-.39 2.53 2.53 0 0 0-2.4.49 5.31 5.31 0 0 0-1.37 2.84 5.45 5.45 0 0 0 0 3.13 2.56 2.56 0 0 0 2 1.5 2.8 2.8 0 0 0 2.92-.9zM191.94 227.14a4.59 4.59 0 0 1-1.51 2.76 3.6 3.6 0 0 1-4.9-1.09 5.76 5.76 0 0 1 1.34-6 3.15 3.15 0 0 1 2.68-.43 3.06 3.06 0 0 1 2.22 1.56 4.67 4.67 0 0 1 .17 3.2zm-1.27-.28a4 4 0 0 0 0-2.34 1.77 1.77 0 0 0-1.35-1 1.81 1.81 0 0 0-1.7.35 4 4 0 0 0-1 2.1 3.94 3.94 0 0 0 0 2.28 2.07 2.07 0 0 0 3.07.7 4 4 0 0 0 .98-2.09zM200.17 232.91l-1.14-.25-.54-6.15-3.12 5.32-1.12-.25-.18-7.92 1.28.29v6l3.07-5.31 1 .23.58 6.13 2.51-5.43 1.22.27zM210.88 231.33a5 5 0 0 1-1.44 2.79 2.6 2.6 0 0 1-2.41.57 3.22 3.22 0 0 1-1.12-.5 4.22 4.22 0 0 1-.86-.82l-.13.61-1.23-.27 2.39-10.64 1.23.27-.87 3.9a3.81 3.81 0 0 1 1.17-.46 3.14 3.14 0 0 1 1.33 0 2.49 2.49 0 0 1 1.88 1.49 5.15 5.15 0 0 1 .06 3.06zm-1.28-.25a4.09 4.09 0 0 0 0-2.28 1.55 1.55 0 0 0-1.18-1 2.37 2.37 0 0 0-1.18 0 5.1 5.1 0 0 0-1.09.46l-.89 4a4.06 4.06 0 0 0 .81.79 2.59 2.59 0 0 0 1 .46 1.57 1.57 0 0 0 1.49-.4 3.81 3.81 0 0 0 1.04-2.03zM219.13 233.27a4.58 4.58 0 0 1-1.5 2.76 3.09 3.09 0 0 1-2.67.45 3.13 3.13 0 0 1-2.24-1.55 4.51 4.51 0 0 1-.18-3.15 4.56 4.56 0 0 1 1.53-2.8 3.13 3.13 0 0 1 2.67-.43 3.09 3.09 0 0 1 2.26 1.55 4.71 4.71 0 0 1 .13 3.17zm-1.27-.29a4 4 0 0 0 0-2.34 2.08 2.08 0 0 0-3.05-.68 4 4 0 0 0-1 2.11 4.05 4.05 0 0 0 0 2.28 1.81 1.81 0 0 0 1.4 1.06 1.78 1.78 0 0 0 1.67-.36 3.85 3.85 0 0 0 .98-2.05zM219 238.82a2.71 2.71 0 0 0 1 .46c.58.13 1.18-.29 1.82-1.24l.39-.59-1.14-7.7 1.33.3.83 5.95 3.31-5 1.29.29-5 7.35a4.66 4.66 0 0 1-1.48 1.5 2.26 2.26 0 0 1-1.62.16 4.31 4.31 0 0 1-.7-.22 3.88 3.88 0 0 1-.58-.29zM49.91 216.3a3 3 0 0 1-1.2.77 3.2 3.2 0 0 1-1.8 0 3.14 3.14 0 0 1-2.26-1.55 4.58 4.58 0 0 1-.17-3.15 4.67 4.67 0 0 1 1.5-2.78 3 3 0 0 1 2.67-.46 2.87 2.87 0 0 1 2.33 2l-1.15.38a2.31 2.31 0 0 0-.5-.82 1.82 1.82 0 0 0-.94-.47 1.66 1.66 0 0 0-1.7.44 4.35 4.35 0 0 0-.95 2.06 5.09 5.09 0 0 0-.15 1.68 1.76 1.76 0 0 0 .47 1 2 2 0 0 0 1.08.58 1.88 1.88 0 0 0 1 0 2.58 2.58 0 0 0 .87-.53zM56.09 218.91l1-4.42a6.82 6.82 0 0 0 .21-1.49.91.91 0 0 0-.23-.59 1.31 1.31 0 0 0-.68-.33 2.42 2.42 0 0 0-1.18.11 7.11 7.11 0 0 0-1.41.6l-1.19 5.29-1.23-.27 2.39-10.64 1.23.27-1 4.26a6.23 6.23 0 0 1 1.43-.65A2.9 2.9 0 0 1 57 211a2 2 0 0 1 1.45 1 3.37 3.37 0 0 1 0 2.2l-1.13 5zM61.39 216.32a3.55 3.55 0 0 0 0 2.23 2 2 0 0 0 1.49 1 1.79 1.79 0 0 0 .92 0 2.6 2.6 0 0 0 .89-.52l.87.86a3.13 3.13 0 0 1-1.27.75 3.43 3.43 0 0 1-1.74 0 3.19 3.19 0 0 1-2.28-1.53 4.55 4.55 0 0 1-.16-3.12 4.81 4.81 0 0 1 1.49-2.86 3 3 0 0 1 2.64-.44 2.8 2.8 0 0 1 2 1.33 4 4 0 0 1 .15 2.75l-.16.69zm3.89-.14a2.74 2.74 0 0 0-.07-1.66 1.59 1.59 0 0 0-1.21-.86 1.7 1.7 0 0 0-1.43.21 3.19 3.19 0 0 0-1 1.49zM69.11 218.06a3.55 3.55 0 0 0 0 2.23 2 2 0 0 0 1.49 1 1.83 1.83 0 0 0 .93 0 2.57 2.57 0 0 0 .88-.52l.87.86a3.16 3.16 0 0 1-1.26.75 3.47 3.47 0 0 1-1.75 0 3.15 3.15 0 0 1-2.27-1.57 4.54 4.54 0 0 1-.17-3.12 4.86 4.86 0 0 1 1.49-2.86 3 3 0 0 1 2.65-.44 2.82 2.82 0 0 1 2 1.33 4 4 0 0 1 .14 2.75l-.15.69zm3.89-.14a2.67 2.67 0 0 0-.07-1.66 1.59 1.59 0 0 0-1.2-.86 1.72 1.72 0 0 0-1.44.21 3.11 3.11 0 0 0-.94 1.49zM80.6 217.83a1.37 1.37 0 0 0-.55-.21 2.36 2.36 0 0 0-1.12 0 4.86 4.86 0 0 0-1.4.66l-1.17 5.18-1.23-.27 1.69-7.5 1.23.28-.27 1.21a10 10 0 0 1 1.29-.68 2.23 2.23 0 0 1 1.35-.12 1.62 1.62 0 0 1 .71.32zM81 224.52l2.39-10.64 1.23.27-2.39 10.64zM86.41 222a3.44 3.44 0 0 0 0 2.24 2 2 0 0 0 1.48 1 1.82 1.82 0 0 0 .93 0 2.28 2.28 0 0 0 .88-.52l.87.86a3.07 3.07 0 0 1-1.26.76 3.43 3.43 0 0 1-1.74 0 3.14 3.14 0 0 1-2.28-1.54 4.54 4.54 0 0 1-.17-3.12 4.93 4.93 0 0 1 1.49-2.86 3 3 0 0 1 2.65-.43 2.82 2.82 0 0 1 2 1.33 3.92 3.92 0 0 1 .14 2.75l-.15.68zm3.89-.13a2.73 2.73 0 0 0-.08-1.66 1.57 1.57 0 0 0-1.2-.86 1.69 1.69 0 0 0-1.44.21 3.15 3.15 0 0 0-.94 1.48zM96.68 228.05l.22-.93a8.81 8.81 0 0 1-1.34.57 2.68 2.68 0 0 1-1.38 0 2.13 2.13 0 0 1-1.51-1 2.48 2.48 0 0 1-.21-1.8 2.59 2.59 0 0 1 .6-1.22 2.28 2.28 0 0 1 1.06-.61 5.41 5.41 0 0 1 1.76-.05l1.88.26.08-.37a1.36 1.36 0 0 0-.21-1.29 2.57 2.57 0 0 0-1.26-.61 2.3 2.3 0 0 0-1.23 0 1.74 1.74 0 0 0-.72.44l-.87-.84a2.28 2.28 0 0 1 1.26-.72 4.06 4.06 0 0 1 1.82.06 3.68 3.68 0 0 1 2.19 1.11 2.56 2.56 0 0 1 .24 2.18l-1.15 5.1zm.86-3.8l-1.23-.15a3.52 3.52 0 0 0-1.82.08 1.29 1.29 0 0 0-.75 1 1.26 1.26 0 0 0 .12 1 1.58 1.58 0 0 0 .94.52 1.87 1.87 0 0 0 .58 0 4.56 4.56 0 0 0 .59-.14 3.32 3.32 0 0 0 .59-.24l.57-.27zM105 229.93l.17-.75a3.76 3.76 0 0 1-1.17.46 3 3 0 0 1-1.33 0 2.51 2.51 0 0 1-1.86-1.49 5 5 0 0 1-.08-3.06 5 5 0 0 1 1.46-2.75 2.66 2.66 0 0 1 2.46-.59 3.16 3.16 0 0 1 1.9 1.3l.85-3.76 1.23.28-2.4 10.64zm1.31-5.81a3.1 3.1 0 0 0-1.75-1.24 1.67 1.67 0 0 0-1.53.39 3.75 3.75 0 0 0-1 2.08q-.64 2.84 1.14 3.24a2.41 2.41 0 0 0 1.19 0 4.73 4.73 0 0 0 1.07-.46zM110.38 227.35a3.51 3.51 0 0 0 0 2.24 2 2 0 0 0 1.48 1 1.82 1.82 0 0 0 .93 0 2.21 2.21 0 0 0 .88-.52l.88.86a3.17 3.17 0 0 1-1.27.76 3.43 3.43 0 0 1-1.74 0 3.14 3.14 0 0 1-2.28-1.54 4.49 4.49 0 0 1-.16-3.12 4.86 4.86 0 0 1 1.48-2.86 3 3 0 0 1 2.65-.43 2.82 2.82 0 0 1 2 1.33 4 4 0 0 1 .15 2.75l-.16.68zm3.89-.13a2.74 2.74 0 0 0-.07-1.66 1.61 1.61 0 0 0-1.21-.86 1.66 1.66 0 0 0-1.43.21 3.08 3.08 0 0 0-1 1.48zM121.86 227.13a1.52 1.52 0 0 0-.55-.22 2.36 2.36 0 0 0-1.12 0 5 5 0 0 0-1.4.66l-1.16 5.18-1.23-.28 1.69-7.49 1.23.27-.28 1.22a8 8 0 0 1 1.29-.68 2.09 2.09 0 0 1 1.35-.12 1.62 1.62 0 0 1 .71.32zM130.4 235.65l.21-.94a6.83 6.83 0 0 1-1.33.57 2.71 2.71 0 0 1-1.39 0 2.19 2.19 0 0 1-1.5-1 2.5 2.5 0 0 1-.21-1.81 2.69 2.69 0 0 1 .59-1.21 2.16 2.16 0 0 1 1.07-.61 5.12 5.12 0 0 1 1.76 0l1.88.25.08-.36a1.35 1.35 0 0 0-.21-1.29 2.48 2.48 0 0 0-1.27-.61 2.09 2.09 0 0 0-1.22 0 1.76 1.76 0 0 0-.72.43l-.87-.84a2.34 2.34 0 0 1 1.26-.72 4.23 4.23 0 0 1 1.82.07 3.74 3.74 0 0 1 2.19 1.1 2.62 2.62 0 0 1 .24 2.19l-1.15 5.1zm.86-3.8l-1.23-.16a3.66 3.66 0 0 0-1.83.09 1.28 1.28 0 0 0-.74 1 1.25 1.25 0 0 0 .12 1 1.5 1.5 0 0 0 .94.52 1.56 1.56 0 0 0 .57 0 4.29 4.29 0 0 0 .6-.13 4.87 4.87 0 0 0 .59-.24l.57-.27zM138.71 237.52l1-4.41a6.08 6.08 0 0 0 .21-1.46.91.91 0 0 0-.23-.59 1.28 1.28 0 0 0-.67-.33 2.41 2.41 0 0 0-1.18.11 7.86 7.86 0 0 0-1.41.6l-1.2 5.3-1.23-.28 1.69-7.5 1.23.28-.25 1.12a5.94 5.94 0 0 1 1.42-.65 2.74 2.74 0 0 1 1.49-.09 2 2 0 0 1 1.45 1 3.4 3.4 0 0 1 0 2.21l-1.13 5zM147 239.4l.16-.75a3.81 3.81 0 0 1-1.17.46 2.94 2.94 0 0 1-1.32 0 2.5 2.5 0 0 1-1.86-1.48 6.07 6.07 0 0 1 1.38-5.81 2.62 2.62 0 0 1 2.46-.59 3.19 3.19 0 0 1 1.9 1.3l.84-3.76 1.24.27-2.4 10.64zm1.3-5.81a3.08 3.08 0 0 0-1.74-1.24 1.67 1.67 0 0 0-1.53.39 3.78 3.78 0 0 0-1 2.08c-.42 1.89 0 3 1.15 3.24a2.36 2.36 0 0 0 1.18 0 4.41 4.41 0 0 0 1.08-.47zM158.19 232a.75.75 0 0 1-.32.54 1.07 1.07 0 0 1-.65 0 .87.87 0 0 1-.58-.33.8.8 0 0 1 0-.58.76.76 0 0 1 .31-.52 1.2 1.2 0 0 1 1.23.27.75.75 0 0 1 .01.62zm-3.54 9.07l1.69-7.49 1.23.27-1.69 7.5zM163 243l1-4.42a5.69 5.69 0 0 0 .22-1.45 1 1 0 0 0-.23-.6 1.39 1.39 0 0 0-.68-.32 2.42 2.42 0 0 0-1.18.11 7.11 7.11 0 0 0-1.41.6l-1.19 5.29-1.23-.27 1.69-7.5 1.23.28-.25 1.11a6.15 6.15 0 0 1 1.42-.65 2.91 2.91 0 0 1 1.48-.09 2 2 0 0 1 1.46 1 3.44 3.44 0 0 1 0 2.2l-1.13 5zM172.2 242.94a2.07 2.07 0 0 1-1.11 1.48 3.34 3.34 0 0 1-2.25.12 3.87 3.87 0 0 1-1.6-.73 2.39 2.39 0 0 1-.87-1.24l1.13-.38a2 2 0 0 0 1.61 1.31 2 2 0 0 0 1.29 0 1.05 1.05 0 0 0 .59-.75.81.81 0 0 0 0-.54 1.25 1.25 0 0 0-.37-.45 8.24 8.24 0 0 0-1.14-.67 4.09 4.09 0 0 1-1.69-1.27 2.21 2.21 0 0 1 .86-3 3 3 0 0 1 2.11-.16 3.36 3.36 0 0 1 1.56.76 2.63 2.63 0 0 1 .76 1.15l-1.12.38a2.08 2.08 0 0 0-2.56-1.22 1 1 0 0 0-.62.75.82.82 0 0 0 .21.82 4.31 4.31 0 0 0 1.01.7 7.9 7.9 0 0 1 1.62 1 2 2 0 0 1 .56.87 2.2 2.2 0 0 1 .02 1.07zM177.3 246.21a4.71 4.71 0 0 1-1.46-.09 2.12 2.12 0 0 1-1.51-1 3 3 0 0 1-.07-2l1-4.2-1.07-.24.23-1 1.07.24.47-2.09 1.23.28-.47 2.09 1.9.42-.23 1-1.9-.43-.9 4a3.6 3.6 0 0 0-.11 1.34c.07.29.31.48.73.58a2.48 2.48 0 0 0 1.05 0zM180.33 243.11a3.58 3.58 0 0 0 0 2.24 2 2 0 0 0 1.49 1 1.68 1.68 0 0 0 .92 0 2.21 2.21 0 0 0 .88-.52l.88.86a3.22 3.22 0 0 1-1.27.76 3.67 3.67 0 0 1-1.74 0 3.14 3.14 0 0 1-2.28-1.54 4.55 4.55 0 0 1-.16-3.12 4.84 4.84 0 0 1 1.49-2.86 3 3 0 0 1 2.64-.43 2.79 2.79 0 0 1 2 1.33 4 4 0 0 1 .15 2.74l-.16.69zm3.89-.13a2.74 2.74 0 0 0-.07-1.66 1.59 1.59 0 0 0-1.21-.86 1.66 1.66 0 0 0-1.43.2 3.12 3.12 0 0 0-.95 1.49zM190.61 249.21l.21-.93a8.4 8.4 0 0 1-1.34.57 2.68 2.68 0 0 1-1.38 0 2.15 2.15 0 0 1-1.51-1 2.43 2.43 0 0 1-.2-1.8 2.5 2.5 0 0 1 .59-1.22 2.2 2.2 0 0 1 1.06-.61 5.47 5.47 0 0 1 1.77-.05l1.88.26.08-.37a1.32 1.32 0 0 0-.22-1.29 2.48 2.48 0 0 0-1.26-.61 2.12 2.12 0 0 0-1.23 0 1.8 1.8 0 0 0-.72.44l-.87-.84a2.28 2.28 0 0 1 1.27-.72 4.06 4.06 0 0 1 1.82.06 3.68 3.68 0 0 1 2.18 1.11 2.55 2.55 0 0 1 .24 2.18l-1.14 5.1zm.85-3.8l-1.22-.16a3.66 3.66 0 0 0-1.83.09 1.52 1.52 0 0 0-.63 2 1.53 1.53 0 0 0 .95.52 1.54 1.54 0 0 0 .57 0 4.2 4.2 0 0 0 .59-.14 3.32 3.32 0 0 0 .59-.24l.57-.27zM198.93 251.09l.17-.75a3.58 3.58 0 0 1-1.17.46 3 3 0 0 1-1.33 0 2.44 2.44 0 0 1-1.85-1.48 6 6 0 0 1 1.37-5.81 2.63 2.63 0 0 1 2.46-.59 3.16 3.16 0 0 1 1.9 1.3l.85-3.76 1.23.28-2.39 10.64zm1.31-5.81a3.07 3.07 0 0 0-1.75-1.24 1.66 1.66 0 0 0-1.52.39 3.72 3.72 0 0 0-1 2.08c-.43 1.89-.05 3 1.15 3.24a2.37 2.37 0 0 0 1.18 0 4.41 4.41 0 0 0 1.08-.47zM44.78 234.81l.17-.74a3.81 3.81 0 0 1-1.17.46 3.09 3.09 0 0 1-1.32 0A2.49 2.49 0 0 1 40.6 233a5 5 0 0 1-.09-3.05 5 5 0 0 1 1.49-2.72 2.66 2.66 0 0 1 2.46-.6 3.17 3.17 0 0 1 1.9 1.3l.85-3.76 1.24.28L46 235.09zm1.31-5.81a3.13 3.13 0 0 0-1.74-1.24 1.7 1.7 0 0 0-1.53.4 3.78 3.78 0 0 0-1 2.07c-.42 1.9 0 3 1.15 3.24a2.26 2.26 0 0 0 1.18 0 4.39 4.39 0 0 0 1.05-.47zM50.15 232.24a3.55 3.55 0 0 0 0 2.23 2 2 0 0 0 1.49 1 1.83 1.83 0 0 0 .93 0 2.57 2.57 0 0 0 .88-.52l.87.86a3.16 3.16 0 0 1-1.26.75 3.47 3.47 0 0 1-1.75 0 3.15 3.15 0 0 1-2.24-1.56 4.54 4.54 0 0 1-.17-3.12 4.86 4.86 0 0 1 1.49-2.88 3 3 0 0 1 2.65-.44 2.8 2.8 0 0 1 2 1.33 4 4 0 0 1 .15 2.75l-.15.69zm3.85-.14a2.67 2.67 0 0 0-.07-1.66 1.59 1.59 0 0 0-1.21-.86 1.7 1.7 0 0 0-1.43.21 3.11 3.11 0 0 0-.94 1.49zM62.06 237.49a2.92 2.92 0 0 1-1.19.77 3.2 3.2 0 0 1-1.8 0 3.12 3.12 0 0 1-2.26-1.55 4.58 4.58 0 0 1-.17-3.15 4.71 4.71 0 0 1 1.49-2.78 3.06 3.06 0 0 1 2.67-.46 2.86 2.86 0 0 1 2.33 2l-1.14.38a2.2 2.2 0 0 0-.51-.82 1.78 1.78 0 0 0-.93-.47 1.68 1.68 0 0 0-1.71.44 4.44 4.44 0 0 0-.94 2.06 4.83 4.83 0 0 0-.15 1.68 1.81 1.81 0 0 0 .46 1.05 2.09 2.09 0 0 0 1.08.58 1.87 1.87 0 0 0 1 0 2.52 2.52 0 0 0 .88-.53zM67.07 230a.71.71 0 0 1-.32.54 1 1 0 0 1-.65 0 .8.8 0 0 1-.58-.33.85.85 0 0 1 0-.58.76.76 0 0 1 .31-.51 1.2 1.2 0 0 1 1.23.27.73.73 0 0 1 .01.61zm-3.54 9l1.69-7.5 1.23.28-1.69 7.49zM71.91 240.92l.17-.74a3.81 3.81 0 0 1-1.17.46 2.94 2.94 0 0 1-1.32 0 2.49 2.49 0 0 1-1.86-1.49 5 5 0 0 1-.09-3 5 5 0 0 1 1.46-2.75 2.66 2.66 0 0 1 2.46-.6 3.22 3.22 0 0 1 1.9 1.3l.85-3.76 1.24.28-2.4 10.64zm1.31-5.81a3.18 3.18 0 0 0-1.74-1.24 1.7 1.7 0 0 0-1.53.4 3.78 3.78 0 0 0-1 2.08c-.42 1.89 0 3 1.15 3.24a2.37 2.37 0 0 0 1.18-.05 4.39 4.39 0 0 0 1.08-.46zM77.28 238.35a3.55 3.55 0 0 0 0 2.23 2 2 0 0 0 1.49 1 1.83 1.83 0 0 0 .93 0 2.42 2.42 0 0 0 .88-.52l.87.86a3.16 3.16 0 0 1-1.26.75 3.47 3.47 0 0 1-1.75 0 3.15 3.15 0 0 1-2.27-1.53A4.54 4.54 0 0 1 76 238a4.89 4.89 0 0 1 1.49-2.86 3 3 0 0 1 2.65-.44 2.78 2.78 0 0 1 2 1.34 4 4 0 0 1 .15 2.74l-.15.69zm3.89-.14a2.68 2.68 0 0 0-.07-1.66 1.59 1.59 0 0 0-1.21-.86 1.7 1.7 0 0 0-1.43.21 3.11 3.11 0 0 0-.94 1.49zM88 244.55l.16-.74a3.86 3.86 0 0 1-1.16.46 3 3 0 0 1-1.33 0 2.49 2.49 0 0 1-1.86-1.49 6.06 6.06 0 0 1 1.38-5.8 2.65 2.65 0 0 1 2.46-.6 3.23 3.23 0 0 1 1.9 1.3l.84-3.76 1.24.28-2.4 10.64zm1.31-5.81a3.24 3.24 0 0 0-1.75-1.24 1.7 1.7 0 0 0-1.53.4A3.78 3.78 0 0 0 85 240c-.42 1.89 0 3 1.15 3.23a2.29 2.29 0 0 0 1.19 0 4.49 4.49 0 0 0 1.07-.46zM99.39 247.11a5.11 5.11 0 0 1-1.47-.09 2.1 2.1 0 0 1-1.5-1 3 3 0 0 1-.07-2l.94-4.2-1.07-.25.23-1 1.08.24.47-2.09 1.22.28-.47 2.08 1.9.43-.23 1-1.9-.43-.89 4a3.38 3.38 0 0 0-.11 1.34c.06.29.3.48.72.58a2.48 2.48 0 0 0 1.05 0zM107.77 245.08a4.64 4.64 0 0 1-1.51 2.76 3.06 3.06 0 0 1-2.67.45 3.14 3.14 0 0 1-2.24-1.54 5.79 5.79 0 0 1 1.35-6 3.15 3.15 0 0 1 2.68-.43 3.08 3.08 0 0 1 2.22 1.56 4.67 4.67 0 0 1 .17 3.2zm-1.28-.28a4 4 0 0 0 0-2.34 1.77 1.77 0 0 0-1.35-1 1.81 1.81 0 0 0-1.7.35 5.22 5.22 0 0 0-1 4.38 2.07 2.07 0 0 0 3.07.7 3.92 3.92 0 0 0 .98-2.09zM121.56 252.11l1-4.42a8.24 8.24 0 0 0 .25-1.49.77.77 0 0 0-.19-.56 1.24 1.24 0 0 0-.62-.29 1.68 1.68 0 0 0-.89.08 6.55 6.55 0 0 0-1.43.69l-1.2 5.29-1.23-.27 1-4.42a6.88 6.88 0 0 0 .23-1.45.9.9 0 0 0-.17-.59 1.2 1.2 0 0 0-.61-.3 2 2 0 0 0-1 .11 6.2 6.2 0 0 0-1.33.65l-1.19 5.3-1.23-.28 1.69-7.49 1.23.27-.26 1.12a6 6 0 0 1 1.3-.68 2.26 2.26 0 0 1 1.38-.11 2 2 0 0 1 1.13.62 1.79 1.79 0 0 1 .35 1.25 7.5 7.5 0 0 1 1.43-.78 2.45 2.45 0 0 1 1.44-.11 1.94 1.94 0 0 1 1 .53 1.76 1.76 0 0 1 .42 1 5.2 5.2 0 0 1-.17 1.62l-1.12 5zM132.22 250.59a4.64 4.64 0 0 1-1.51 2.76 3.09 3.09 0 0 1-2.67.45 3.17 3.17 0 0 1-2.24-1.54 4.66 4.66 0 0 1-.18-3.16 4.59 4.59 0 0 1 1.53-2.8 3.15 3.15 0 0 1 2.68-.43 3.08 3.08 0 0 1 2.22 1.56 4.67 4.67 0 0 1 .17 3.16zm-1.28-.29a3.93 3.93 0 0 0 0-2.33 1.8 1.8 0 0 0-1.35-1 1.86 1.86 0 0 0-1.7.35 4.07 4.07 0 0 0-1 2.11 3.94 3.94 0 0 0 0 2.28 2.07 2.07 0 0 0 3.07.7 3.92 3.92 0 0 0 .98-2.11zM137.17 255.62a4.69 4.69 0 0 1-1.46-.09 2.07 2.07 0 0 1-1.51-1 3 3 0 0 1-.07-2l1-4.2-1.07-.24.23-1 1.07.24.47-2.09 1.23.28-.47 2.09 1.9.42-.23 1-1.9-.43-.9 4a3.6 3.6 0 0 0-.11 1.34c.06.29.31.48.72.58a2.53 2.53 0 0 0 1.06 0zM142.17 246.88a.71.71 0 0 1-.32.54 1 1 0 0 1-.65 0 .83.83 0 0 1-.58-.33.85.85 0 0 1-.05-.58.76.76 0 0 1 .31-.51.86.86 0 0 1 .65 0 .89.89 0 0 1 .58.31.73.73 0 0 1 .06.57zm-3.53 9.12l1.68-7.49 1.23.28-1.68 7.49zM145.28 257.45l-1.21-.27-.94-8.09 1.32.3.62 6.32 3.26-5.45 1.27.29zM153.53 259.31l.21-.93a7.42 7.42 0 0 1-1.33.56 2.58 2.58 0 0 1-1.38 0 2.13 2.13 0 0 1-1.51-1 2.48 2.48 0 0 1-.21-1.8 2.59 2.59 0 0 1 .6-1.22 2.2 2.2 0 0 1 1.06-.61 5.14 5.14 0 0 1 1.76 0l1.88.25.08-.36a1.35 1.35 0 0 0-.21-1.29 2.57 2.57 0 0 0-1.26-.61 2.12 2.12 0 0 0-1.23 0 1.67 1.67 0 0 0-.72.44l-.87-.84a2.22 2.22 0 0 1 1.26-.72 4.06 4.06 0 0 1 1.82.06 3.68 3.68 0 0 1 2.19 1.11 2.55 2.55 0 0 1 .24 2.18l-1.15 5.1zm.86-3.8l-1.23-.16a3.66 3.66 0 0 0-1.83.09 1.31 1.31 0 0 0-.74 1 1.25 1.25 0 0 0 .12 1 1.5 1.5 0 0 0 .94.52 1.41 1.41 0 0 0 .58 0 3.67 3.67 0 0 0 1.18-.37l.57-.27zM160.74 260.93a5.11 5.11 0 0 1-1.47-.09 2.1 2.1 0 0 1-1.5-1 3 3 0 0 1-.07-2l.94-4.2-1.07-.25.23-1 1.07.24.47-2.09 1.23.28-.47 2.08 1.9.43-.23 1-1.9-.43-.89 4a3.2 3.2 0 0 0-.11 1.34c.06.29.3.48.72.58a2.48 2.48 0 0 0 1 0zM163.76 257.83a3.55 3.55 0 0 0 0 2.23 2 2 0 0 0 1.49 1 1.83 1.83 0 0 0 .93 0 2.5 2.5 0 0 0 .88-.52l.87.86a3.15 3.15 0 0 1-1.27.76 3.67 3.67 0 0 1-1.74 0 3.23 3.23 0 0 1-2.28-1.54 4.55 4.55 0 0 1-.16-3.12 4.89 4.89 0 0 1 1.52-2.9 3 3 0 0 1 2.65-.44 2.81 2.81 0 0 1 2 1.34 4 4 0 0 1 .15 2.74l-.15.69zm3.89-.14a2.75 2.75 0 0 0-.07-1.66 1.56 1.56 0 0 0-1.21-.85 1.67 1.67 0 0 0-1.43.2 3.19 3.19 0 0 0-.95 1.49zM177.48 264.7a4.78 4.78 0 0 1-1.47-.09 2.07 2.07 0 0 1-1.5-1 3 3 0 0 1-.07-2l.94-4.2-1.07-.24.23-1 1.07.24.47-2.09 1.23.28-.47 2.09 1.9.42-.23 1-1.9-.43-.89 4a3.21 3.21 0 0 0-.11 1.34c.06.29.3.48.72.58a2.48 2.48 0 0 0 1 0zM183.65 266.1l1-4.42a6 6 0 0 0 .21-1.45.86.86 0 0 0-.23-.59 1.24 1.24 0 0 0-.67-.33 2.46 2.46 0 0 0-1.19.11 7.11 7.11 0 0 0-1.41.6l-1.19 5.29-1.23-.28 2.4-10.64 1.23.28-1 4.26a5.76 5.76 0 0 1 1.42-.65 2.83 2.83 0 0 1 1.49-.09 2 2 0 0 1 1.45 1 3.44 3.44 0 0 1 0 2.2l-1.13 5zM189 263.51a3.41 3.41 0 0 0 0 2.23 2 2 0 0 0 1.48 1 1.94 1.94 0 0 0 .93 0 2.57 2.57 0 0 0 .88-.52l.87.86a3.16 3.16 0 0 1-1.26.75 3.43 3.43 0 0 1-1.74 0 3.15 3.15 0 0 1-2.28-1.53 4.57 4.57 0 0 1-.17-3.13 4.86 4.86 0 0 1 1.49-2.85 3 3 0 0 1 2.65-.44 2.82 2.82 0 0 1 2 1.33 3.93 3.93 0 0 1 .14 2.75l-.15.68zm3.89-.14a2.74 2.74 0 0 0-.08-1.66 1.59 1.59 0 0 0-1.2-.86 1.72 1.72 0 0 0-1.44.21 3.14 3.14 0 0 0-.94 1.49zM42 251.42a3 3 0 0 1-1.2.77 3.2 3.2 0 0 1-1.8 0 3.14 3.14 0 0 1-2.26-1.55 4.58 4.58 0 0 1-.17-3.15 4.71 4.71 0 0 1 1.49-2.78 3.08 3.08 0 0 1 2.68-.46 2.84 2.84 0 0 1 2.32 2l-1.14.38a2.31 2.31 0 0 0-.5-.82 1.86 1.86 0 0 0-.94-.47 1.68 1.68 0 0 0-1.71.44 4.44 4.44 0 0 0-.94 2.06 4.83 4.83 0 0 0-.15 1.68 1.81 1.81 0 0 0 .46 1 2.08 2.08 0 0 0 1.09.58 1.88 1.88 0 0 0 1 0 2.58 2.58 0 0 0 .87-.53zM48.17 254l1-4.42a6.82 6.82 0 0 0 .22-1.45 1 1 0 0 0-.23-.59 1.31 1.31 0 0 0-.68-.33 2.41 2.41 0 0 0-1.18.11 6.64 6.64 0 0 0-1.41.6l-1.2 5.29-1.22-.21 2.39-10.64 1.23.27-1 4.26a6.35 6.35 0 0 1 1.42-.65 3 3 0 0 1 1.49-.09 2 2 0 0 1 1.45 1 3.37 3.37 0 0 1 0 2.2l-1.13 5zM55.31 245.76a.71.71 0 0 1-.32.54 1.06 1.06 0 0 1-.65 0 .68.68 0 0 1-.63-.92.76.76 0 0 1 .31-.51.91.91 0 0 1 .65 0 .93.93 0 0 1 .58.31.73.73 0 0 1 .06.58zm-3.54 9.08l1.69-7.5 1.23.28-1.69 7.49zM55.49 255.67l2.4-10.67 1.23.27-2.4 10.73zM63.93 257.58l.17-.75a4 4 0 0 1-1.17.46 3 3 0 0 1-1.33 0 2.5 2.5 0 0 1-1.86-1.48 5 5 0 0 1-.08-3.06 5 5 0 0 1 1.46-2.75 2.63 2.63 0 0 1 2.46-.59 3.16 3.16 0 0 1 1.9 1.3l.85-3.76 1.23.27-2.4 10.64zm1.31-5.81a3.1 3.1 0 0 0-1.75-1.24 1.67 1.67 0 0 0-1.53.39 3.71 3.71 0 0 0-1 2.08q-.64 2.83 1.14 3.24a2.41 2.41 0 0 0 1.19 0 4.18 4.18 0 0 0 1.07-.47zM73.06 253a1.75 1.75 0 0 0-.55-.21 2.49 2.49 0 0 0-1.12 0 5.22 5.22 0 0 0-1.4.67l-1.17 5.18-1.23-.28 1.69-7.49 1.23.27-.27 1.22a8 8 0 0 1 1.29-.68 2.09 2.09 0 0 1 1.35-.12 1.62 1.62 0 0 1 .71.31zM74.66 256.21a3.41 3.41 0 0 0 0 2.23 2 2 0 0 0 1.48 1 1.82 1.82 0 0 0 .93 0 2.42 2.42 0 0 0 .88-.52l.88.86a3.26 3.26 0 0 1-1.27.75 3.43 3.43 0 0 1-1.74 0 3.15 3.15 0 0 1-2.25-1.53 4.49 4.49 0 0 1-.16-3.12 4.8 4.8 0 0 1 1.48-2.88 3 3 0 0 1 2.65-.44 2.85 2.85 0 0 1 2 1.33 4 4 0 0 1 .15 2.75l-.16.69zm3.89-.14a2.74 2.74 0 0 0-.08-1.66 1.59 1.59 0 0 0-1.2-.86 1.69 1.69 0 0 0-1.43.21 3.12 3.12 0 0 0-1 1.49zM85.39 262.41l1-4.42a6.74 6.74 0 0 0 .22-1.45 1 1 0 0 0-.24-.6 1.35 1.35 0 0 0-.67-.32 2.42 2.42 0 0 0-1.18.11 8.52 8.52 0 0 0-1.41.6l-1.19 5.3-1.23-.28 1.69-7.5 1.22.28-.25 1.11a6.69 6.69 0 0 1 1.43-.65 2.9 2.9 0 0 1 1.48-.09 2 2 0 0 1 1.46 1 3.46 3.46 0 0 1 0 2.2l-1.13 5zM96.48 255a.79.79 0 0 1-.33.54 1.07 1.07 0 0 1-.65 0 .82.82 0 0 1-.57-.33.75.75 0 0 1-.05-.58.73.73 0 0 1 .31-.52.88.88 0 0 1 .64 0 1 1 0 0 1 .59.31.75.75 0 0 1 .06.58zm-3.54 9.07l1.69-7.49 1.23.27-1.69 7.5zM101.31 266l1-4.42a6 6 0 0 0 .21-1.45.86.86 0 0 0-.23-.6 1.35 1.35 0 0 0-.67-.32 2.42 2.42 0 0 0-1.18.11 7.11 7.11 0 0 0-1.41.6l-1.19 5.29-1.23-.27 1.69-7.5 1.22.28-.25 1.11a5.84 5.84 0 0 1 1.43-.65 2.9 2.9 0 0 1 1.48-.09 2 2 0 0 1 1.45 1 3.37 3.37 0 0 1 0 2.2l-1.13 5zM113.57 268.76l1-4.42a6.82 6.82 0 0 0 .22-1.45.91.91 0 0 0-.23-.59 1.27 1.27 0 0 0-.68-.33 2.42 2.42 0 0 0-1.18.11 7.75 7.75 0 0 0-1.41.6l-1.2 5.32-1.23-.27 2.39-10.64 1.23.27-1 4.26a6.23 6.23 0 0 1 1.43-.65 2.9 2.9 0 0 1 1.48-.09 2 2 0 0 1 1.46 1 3.46 3.46 0 0 1 0 2.2l-1.12 5zM118.87 266.17a3.55 3.55 0 0 0 0 2.23 2 2 0 0 0 1.49 1 1.79 1.79 0 0 0 .92 0 2.45 2.45 0 0 0 .89-.52l.87.86a3.13 3.13 0 0 1-1.27.75 3.43 3.43 0 0 1-1.74 0 3.19 3.19 0 0 1-2.28-1.53 4.55 4.55 0 0 1-.16-3.12 4.84 4.84 0 0 1 1.49-2.86 3 3 0 0 1 2.65-.44 2.81 2.81 0 0 1 2 1.34 4 4 0 0 1 .15 2.74l-.16.69zm3.89-.14a2.75 2.75 0 0 0-.07-1.66 1.59 1.59 0 0 0-1.21-.86 1.7 1.7 0 0 0-1.43.21 3.19 3.19 0 0 0-1 1.49zM130.36 265.94a1.43 1.43 0 0 0-.55-.21 2.36 2.36 0 0 0-1.12 0 4.93 4.93 0 0 0-1.4.67l-1.17 5.18-1.23-.28 1.69-7.5 1.23.28-.27 1.22a8.93 8.93 0 0 1 1.29-.69 2.23 2.23 0 0 1 1.35-.12 1.67 1.67 0 0 1 .71.32zM140.53 273.62a3.07 3.07 0 0 1-1.2.77 3.4 3.4 0 0 1-1.8 0 3.15 3.15 0 0 1-2.26-1.56 4.55 4.55 0 0 1-.17-3.14 4.67 4.67 0 0 1 1.5-2.78 3 3 0 0 1 2.67-.46 2.88 2.88 0 0 1 2.33 2l-1.15.39a2.36 2.36 0 0 0-.5-.83 1.89 1.89 0 0 0-.94-.46 1.64 1.64 0 0 0-1.7.44 4.35 4.35 0 0 0-.95 2.06 5.09 5.09 0 0 0-.15 1.68 1.82 1.82 0 0 0 .47 1.05 1.94 1.94 0 0 0 1.08.57 1.89 1.89 0 0 0 1 0 2.47 2.47 0 0 0 .87-.54zM142.05 275.18l2.4-10.64 1.23.27-2.4 10.64zM150 277l.21-.93a8.4 8.4 0 0 1-1.34.57 2.68 2.68 0 0 1-1.38 0 2.15 2.15 0 0 1-1.51-1 2.43 2.43 0 0 1-.2-1.8 2.5 2.5 0 0 1 .59-1.22 2.2 2.2 0 0 1 1.06-.61 5.47 5.47 0 0 1 1.77-.05l1.88.26.08-.37a1.33 1.33 0 0 0-.22-1.29 2.48 2.48 0 0 0-1.26-.61 2.3 2.3 0 0 0-1.23 0 1.8 1.8 0 0 0-.72.44l-.87-.84a2.34 2.34 0 0 1 1.27-.72 4.06 4.06 0 0 1 1.82.06 3.68 3.68 0 0 1 2.18 1.11 2.55 2.55 0 0 1 .24 2.18l-1.14 5.1zm.85-3.8l-1.22-.16a3.66 3.66 0 0 0-1.83.09 1.26 1.26 0 0 0-.74 1 1.23 1.23 0 0 0 .12 1 1.52 1.52 0 0 0 .94.53 1.8 1.8 0 0 0 .57 0 4.2 4.2 0 0 0 .59-.14 3.32 3.32 0 0 0 .59-.24l.57-.27zM159.21 276.92a2 2 0 0 1-1.12 1.47 3.33 3.33 0 0 1-2.25.12 4 4 0 0 1-1.6-.73 2.39 2.39 0 0 1-.86-1.24l1.12-.38a2.41 2.41 0 0 0 2.9 1.28 1 1 0 0 0 .6-.75 1 1 0 0 0 0-.54 1.22 1.22 0 0 0-.37-.44 8.49 8.49 0 0 0-1.14-.67 4 4 0 0 1-1.69-1.28 2 2 0 0 1-.22-1.57 2.06 2.06 0 0 1 1.07-1.43 3.09 3.09 0 0 1 2.12-.15 3.36 3.36 0 0 1 1.55.75 2.66 2.66 0 0 1 .77 1.15l-1.12.38a1.92 1.92 0 0 0-1.46-1.25 2 2 0 0 0-1.1 0 1 1 0 0 0-.62.75.8.8 0 0 0 .21.82 4.29 4.29 0 0 0 1.07.69 7.61 7.61 0 0 1 1.61 1 1.83 1.83 0 0 1 .56.86 2.22 2.22 0 0 1-.03 1.16zM166.29 278.51a2.05 2.05 0 0 1-1.12 1.48 3.31 3.31 0 0 1-2.24.12 3.87 3.87 0 0 1-1.6-.73 2.39 2.39 0 0 1-.87-1.24l1.13-.38a2 2 0 0 0 1.61 1.32 2 2 0 0 0 1.28 0 1 1 0 0 0 .6-.75 1 1 0 0 0 0-.54 1.25 1.25 0 0 0-.37-.45 8.24 8.24 0 0 0-1.14-.67 4.09 4.09 0 0 1-1.69-1.27 2.21 2.21 0 0 1 .85-3 3.09 3.09 0 0 1 2.12-.16 3.36 3.36 0 0 1 1.56.76 2.72 2.72 0 0 1 .76 1.15l-1.12.38a2.08 2.08 0 0 0-2.56-1.22 1 1 0 0 0-.62.75.8.8 0 0 0 .21.82 4.31 4.31 0 0 0 1.07.68 8.21 8.21 0 0 1 1.62 1 2 2 0 0 1 .56.87 2.2 2.2 0 0 1-.04 1.08zM173.26 275.61a1.58 1.58 0 0 0-.56-.22 2.32 2.32 0 0 0-1.11 0 4.86 4.86 0 0 0-1.4.66l-1.19 5.2-1.23-.28 1.69-7.49 1.23.27-.28 1.22a8.52 8.52 0 0 1 1.3-.68 2.09 2.09 0 0 1 1.35-.12 1.67 1.67 0 0 1 .71.32zM180.21 279.85a4.64 4.64 0 0 1-1.51 2.76 3.06 3.06 0 0 1-2.67.45 3.14 3.14 0 0 1-2.24-1.54 5.79 5.79 0 0 1 1.35-6 3.15 3.15 0 0 1 2.68-.43 3.08 3.08 0 0 1 2.22 1.56 4.67 4.67 0 0 1 .17 3.2zm-1.28-.28a4 4 0 0 0 0-2.34 1.77 1.77 0 0 0-1.35-1 1.81 1.81 0 0 0-1.7.35 5.22 5.22 0 0 0-1 4.38 2.07 2.07 0 0 0 3.07.7 3.92 3.92 0 0 0 .98-2.09zM188.47 281.71a4.61 4.61 0 0 1-1.5 2.77 3.06 3.06 0 0 1-2.67.44 3.12 3.12 0 0 1-2.24-1.54 5.77 5.77 0 0 1 1.35-5.95 3.6 3.6 0 0 1 4.9 1.12 4.68 4.68 0 0 1 .16 3.16zm-1.27-.28a4 4 0 0 0 0-2.34 2.08 2.08 0 0 0-3-.68 4 4 0 0 0-1 2.11 4.05 4.05 0 0 0 0 2.28 1.8 1.8 0 0 0 1.4 1.05 1.73 1.73 0 0 0 1.67-.36 3.85 3.85 0 0 0 .93-2.06zM198.31 287.85l1-4.41a8.44 8.44 0 0 0 .25-1.5.82.82 0 0 0-.19-.56 1.24 1.24 0 0 0-.62-.29 1.82 1.82 0 0 0-.9.08 8 8 0 0 0-1.43.69l-1.19 5.29-1.23-.27 1-4.42a7.8 7.8 0 0 0 .24-1.45.92.92 0 0 0-.17-.59 1.2 1.2 0 0 0-.61-.3 2 2 0 0 0-1 .11 5.64 5.64 0 0 0-1.33.66l-1.2 5.29-1.23-.27 1.69-7.5 1.23.28-.25 1.11a5.55 5.55 0 0 1 1.3-.68A2.23 2.23 0 0 1 195 279a1.94 1.94 0 0 1 1.13.62 1.85 1.85 0 0 1 .36 1.25 7.67 7.67 0 0 1 1.42-.77 2.4 2.4 0 0 1 1.45-.12 1.92 1.92 0 0 1 1 .54 1.65 1.65 0 0 1 .41 1 4.91 4.91 0 0 1-.16 1.63l-1.13 5zM203.71 288.33a.84.84 0 0 1-.35.58 1.1 1.1 0 0 1-.71 0 .86.86 0 0 1-.63-.36.93.93 0 0 1-.05-.63.89.89 0 0 1 .34-.58 1.3 1.3 0 0 1 1.34.31.87.87 0 0 1 .06.68zM227.11 63.43a1.89 1.89 0 0 1-.13 1.49 2.19 2.19 0 0 1-1.36.76l-.83.18.4 1.8-.7.16-1.2-5.29 1.56-.36a2.17 2.17 0 0 1 1.53.08 1.7 1.7 0 0 1 .73 1.18zm-.73.19a1.12 1.12 0 0 0-.46-.75 1.42 1.42 0 0 0-1 0l-.78.17.5 2.22.68-.15a2.4 2.4 0 0 0 .79-.3.69.69 0 0 0 .3-.43 1.64 1.64 0 0 0-.03-.76zM231 66.78v-.51a3.82 3.82 0 0 1-.59.5 1.49 1.49 0 0 1-.7.23 1.18 1.18 0 0 1-.94-.29 1.33 1.33 0 0 1-.38-.89 1.37 1.37 0 0 1 .11-.72 1.19 1.19 0 0 1 .45-.47 2.47 2.47 0 0 1 .9-.3l1-.17v-.2a.71.71 0 0 0-.31-.62 1.27 1.27 0 0 0-.74-.12 1.15 1.15 0 0 0-.63.19 1 1 0 0 0-.3.34l-.58-.3a1.27 1.27 0 0 1 .54-.56 2.27 2.27 0 0 1 .94-.26 2 2 0 0 1 1.29.23 1.41 1.41 0 0 1 .47 1.08l.2 2.79zm-.15-2.08l-.66.11a1.89 1.89 0 0 0-.92.33.81.81 0 0 0 0 1.13.84.84 0 0 0 .56.11.67.67 0 0 0 .3-.08 1.33 1.33 0 0 0 .28-.16 1.71 1.71 0 0 0 .26-.21l.25-.23zM236.44 64.91a2.68 2.68 0 0 1-.56 1.57 1.43 1.43 0 0 1-1.26.5 1.72 1.72 0 0 1-1.11-.54l-.14 1.88h-.67l.43-5.65.67.05v.41a2 2 0 0 1 .58-.33 1.55 1.55 0 0 1 .71-.1 1.32 1.32 0 0 1 1.09.64 2.63 2.63 0 0 1 .26 1.57zm-.7 0c.08-1-.2-1.58-.86-1.63a1.22 1.22 0 0 0-.62.11 2.23 2.23 0 0 0-.54.33l-.16 2.17a1.6 1.6 0 0 0 1 .52.9.9 0 0 0 .78-.32 2 2 0 0 0 .4-1.22zM238.12 65.34a2 2 0 0 0 0 1.19 1.08 1.08 0 0 0 .8.54.94.94 0 0 0 .5 0 1.28 1.28 0 0 0 .47-.27l.46.46a1.75 1.75 0 0 1-.68.4 1.84 1.84 0 0 1-.93 0 1.7 1.7 0 0 1-1.21-.82 2.43 2.43 0 0 1-.09-1.68 2.63 2.63 0 0 1 .8-1.52 1.58 1.58 0 0 1 1.42-.23 1.5 1.5 0 0 1 1.07.71 2.14 2.14 0 0 1 .07 1.47l-.08.37zm2.08-.07a1.45 1.45 0 0 0 0-.89.85.85 0 0 0-.65-.46.88.88 0 0 0-.76.11 1.64 1.64 0 0 0-.51.79zM244.42 65.68a1 1 0 0 0-.28-.15 1.3 1.3 0 0 0-.59-.07 2.86 2.86 0 0 0-.79.26l-1 2.67-.63-.23 1.4-3.86.63.23-.22.62a4.93 4.93 0 0 1 .73-.27 1.11 1.11 0 0 1 .72 0 .89.89 0 0 1 .36.22zM244 69.29l2.49-5.29.61.29-2.47 5.29zM247.19 68.67a1.85 1.85 0 0 0-.36 1.13 1.06 1.06 0 0 0 .58.76.89.89 0 0 0 .47.15 1.27 1.27 0 0 0 .54-.11l.3.58a1.66 1.66 0 0 1-.77.17 1.87 1.87 0 0 1-.88-.31 1.68 1.68 0 0 1-.9-1.16 2.45 2.45 0 0 1 .45-1.62 2.57 2.57 0 0 1 1.24-1.19 1.61 1.61 0 0 1 1.41.22 1.52 1.52 0 0 1 .79 1 2.12 2.12 0 0 1-.39 1.42l-.19.32zm2 .59a1.47 1.47 0 0 0 .24-.86.84.84 0 0 0-.47-.64.9.9 0 0 0-.76-.14 1.79 1.79 0 0 0-.73.6zM252.05 73.18a1.1 1.1 0 0 1-.89.45 1.77 1.77 0 0 1-1.1-.48 2.06 2.06 0 0 1-.6-.73 1.27 1.27 0 0 1-.12-.8l.63.09a1.3 1.3 0 0 0 1.09 1.3.57.57 0 0 0 .46-.22.54.54 0 0 0 .12-.27.79.79 0 0 0-.07-.3 6.06 6.06 0 0 0-.39-.59 2.12 2.12 0 0 1-.51-1 1.08 1.08 0 0 1 .27-.81 1.1 1.1 0 0 1 .85-.43 1.68 1.68 0 0 1 1.05.43 1.8 1.8 0 0 1 .57.73 1.38 1.38 0 0 1 .09.73l-.62-.08a1 1 0 0 0-.41-1 1 1 0 0 0-.53-.24.52.52 0 0 0-.48.21.43.43 0 0 0-.09.44 2.15 2.15 0 0 0 .35.58 4.41 4.41 0 0 1 .53.87 1 1 0 0 1 .07.55 1.16 1.16 0 0 1-.27.57zM254.73 75.94a1.11 1.11 0 0 1-.94.32 1.79 1.79 0 0 1-1-.61 2.15 2.15 0 0 1-.49-.81 1.22 1.22 0 0 1 0-.8l.61.16a1.1 1.1 0 0 0 .32 1.07 1.15 1.15 0 0 0 .59.37.58.58 0 0 0 .48-.16.4.4 0 0 0 .15-.25.58.58 0 0 0 0-.31 4.28 4.28 0 0 0-.3-.63 2.09 2.09 0 0 1-.37-1.08 1.07 1.07 0 0 1 .36-.76 1.09 1.09 0 0 1 .91-.31 1.54 1.54 0 0 1 1 .56 1.68 1.68 0 0 1 .47.8 1.54 1.54 0 0 1 0 .74l-.61-.17a1 1 0 0 0-.28-1 .93.93 0 0 0-.5-.31.51.51 0 0 0-.5.14.46.46 0 0 0-.15.43 2.14 2.14 0 0 0 .27.62 4.34 4.34 0 0 1 .42.94 1 1 0 0 1 0 .55 1.18 1.18 0 0 1-.44.5zM257.35 81.79l2.78-4.47-4 2.35-.35-.6 4.68-2.74.54.92-2.54 4.09 3.68-2.16.35.61-4.68 2.74zM259.09 85.78l.48-.19a3.19 3.19 0 0 1-.65-.43 1.41 1.41 0 0 1-.43-.6 1.19 1.19 0 0 1 0-1 1.34 1.34 0 0 1 .75-.62 1.32 1.32 0 0 1 .71-.1 1.26 1.26 0 0 1 .59.29 2.68 2.68 0 0 1 .54.77l.45.92.19-.07a.77.77 0 0 0 .51-.48 1.39 1.39 0 0 0-.1-.75 1.09 1.09 0 0 0-.37-.54.89.89 0 0 0-.41-.19l.12-.64a1.15 1.15 0 0 1 .69.35 2.23 2.23 0 0 1 .52.83 2 2 0 0 1 .15 1.3 1.39 1.39 0 0 1-.9.76l-2.61 1zm2-.75l-.3-.59a1.92 1.92 0 0 0-.58-.79.7.7 0 0 0-.65-.05.7.7 0 0 0-.43.36.86.86 0 0 0 .05.58 1 1 0 0 0 .16.26 1.7 1.7 0 0 0 .24.22 2 2 0 0 0 .28.2l.29.17zM260.11 89.44a2.72 2.72 0 0 1-.31-.73 1.1 1.1 0 0 1 .1-.95 1.64 1.64 0 0 1 .94-.52l2.24-.56-.15-.57.55-.14.14.57 1.11-.27.17.65-1.11.28.25 1-.55.14-.25-1-2.11.53a1.82 1.82 0 0 0-.67.27.43.43 0 0 0-.1.48 1.5 1.5 0 0 0 .24.51zM260.21 90.13l4.06-.67.11.67-4.06.67zm5.22-.07a.4.4 0 0 1-.34 0 .56.56 0 0 1-.13-.32.47.47 0 0 1 0-.35.42.42 0 0 1 .28-.14.36.36 0 0 1 .32 0 .5.5 0 0 1 .15.31.53.53 0 0 1 0 .35.37.37 0 0 1-.28.15zM262.74 95.25a2.49 2.49 0 0 1-1.64-.38 1.65 1.65 0 0 1-.62-1.31 1.71 1.71 0 0 1 .47-1.38 2.46 2.46 0 0 1 1.6-.55 2.49 2.49 0 0 1 1.67.38 1.71 1.71 0 0 1 .61 1.32 1.65 1.65 0 0 1-.48 1.37 2.49 2.49 0 0 1-1.61.55zm0-.7a2.09 2.09 0 0 0 1.2-.34 1.12 1.12 0 0 0-.09-1.67 2.13 2.13 0 0 0-1.23-.21 2.16 2.16 0 0 0-1.18.33 1.11 1.11 0 0 0 .09 1.68 2.06 2.06 0 0 0 1.18.21zM260.41 98.85l2.41.24a3 3 0 0 0 .78 0 .44.44 0 0 0 .3-.16.71.71 0 0 0 .13-.38 1.3 1.3 0 0 0-.13-.62 4.65 4.65 0 0 0-.41-.71L260.6 97l.06-.67 4.1.41-.07.67-.61-.06a3.39 3.39 0 0 1 .44.71 1.5 1.5 0 0 1 .14.79 1.07 1.07 0 0 1-.42.83 1.85 1.85 0 0 1-1.17.17l-2.73-.28zM259.65 102.68l5.14 1.73-1.06 3.14-.62-.21.83-2.45-1.5-.51-.71 2.1-.62-.21.7-2.1-1.77-.59-.83 2.45-.62-.21zM257 109l2.15 1.11a3.21 3.21 0 0 0 .72.31.47.47 0 0 0 .34 0 .66.66 0 0 0 .26-.3 1.3 1.3 0 0 0 .1-.63 3.84 3.84 0 0 0-.11-.81l-2.58-1.34.31-.6 3.65 1.89-.31.6-.54-.28a3.13 3.13 0 0 1 .14.83 1.65 1.65 0 0 1-.15.78 1.09 1.09 0 0 1-.71.62 1.8 1.8 0 0 1-1.14-.28l-2.44-1.26zM254.27 113.21a1.63 1.63 0 0 1-.75-1.06 1.89 1.89 0 0 1 .47-1.34 2.7 2.7 0 0 1 1.2-1l.29.52a2.07 2.07 0 0 0-1 .79 1.17 1.17 0 0 0-.3.81 1.07 1.07 0 0 0 .49.68l.38.28a2.2 2.2 0 0 1 0-.67 1.52 1.52 0 0 1 .29-.65 1.33 1.33 0 0 1 1.11-.61 2.58 2.58 0 0 1 1.49.6 2.53 2.53 0 0 1 1 1.29 1.46 1.46 0 0 1-.26 1.31 1.74 1.74 0 0 1-1.05.65l.27.2-.4.55zm2.9 1.28a1.63 1.63 0 0 0 1-.59.87.87 0 0 0 .14-.86 2 2 0 0 0-.75-.88 2.07 2.07 0 0 0-1.07-.48.83.83 0 0 0-.72.38 1.69 1.69 0 0 0-.24 1.22zM253.38 114l3 2.79-.45.49-3-2.78zm3.26 4.07c-.11-.11-.17-.2-.16-.29a.54.54 0 0 1 .17-.31.45.45 0 0 1 .3-.18.47.47 0 0 1 .29.13.41.41 0 0 1 .15.28.51.51 0 0 1-.15.32.49.49 0 0 1-.3.18.39.39 0 0 1-.3-.1zM250.18 117.09l1.59 1.83a3 3 0 0 0 .56.55.52.52 0 0 0 .33.09.72.72 0 0 0 .35-.19 1.25 1.25 0 0 0 .33-.54 4.92 4.92 0 0 0 .19-.8l-1.91-2.19.51-.45 2.7 3.11-.51.44-.4-.46a3.53 3.53 0 0 1-.17.82 1.51 1.51 0 0 1-.44.67 1.09 1.09 0 0 1-.88.32 1.81 1.81 0 0 1-1-.69l-1.8-2.07zM249.41 120.12a1.84 1.84 0 0 0-.86-.83 1.07 1.07 0 0 0-.94.19 1 1 0 0 0-.34.35 1.18 1.18 0 0 0-.14.53h-.65a1.51 1.51 0 0 1 .19-.76 1.78 1.78 0 0 1 .66-.65 1.7 1.7 0 0 1 1.45-.29 2.45 2.45 0 0 1 1.24 1.11 2.64 2.64 0 0 1 .53 1.65 1.63 1.63 0 0 1-.83 1.17 1.51 1.51 0 0 1-1.26.25 2.08 2.08 0 0 1-1.1-1l-.2-.31zm-1.41 1.53a1.45 1.45 0 0 0 .65.6.85.85 0 0 0 .78-.14.9.9 0 0 0 .47-.62 1.79 1.79 0 0 0-.21-.92zM245.68 122.3a1.9 1.9 0 0 0-.73-1 1.1 1.1 0 0 0-1 .06.91.91 0 0 0-.39.3 1.51 1.51 0 0 0-.21.51l-.65-.09a1.76 1.76 0 0 1 .3-.73 1.83 1.83 0 0 1 .75-.55 1.71 1.71 0 0 1 1.47-.08 2.49 2.49 0 0 1 1.08 1.28 2.6 2.6 0 0 1 .28 1.7 1.58 1.58 0 0 1-1 1 1.5 1.5 0 0 1-1.28.08 2.17 2.17 0 0 1-.95-1.13l-.15-.34zm-1.61 1.31a1.48 1.48 0 0 0 .56.69.87.87 0 0 0 .8 0 .89.89 0 0 0 .54-.55 1.69 1.69 0 0 0-.08-.94zM240.45 125.83a.83.83 0 0 0 .32 0 1.23 1.23 0 0 0 .51-.31 2.55 2.55 0 0 0 .47-.68l-.83-2.71.64-.2 1.21 3.93-.64.2-.2-.64a4.33 4.33 0 0 1-.41.66 1.27 1.27 0 0 1-.6.42.88.88 0 0 1-.41 0zM235.11 126.22a1 1 0 0 1 .88-1.12 1 1 0 0 1 .74.21 1 1 0 0 1 .38.67 1 1 0 0 1-.21.75 1 1 0 0 1-.67.38 1 1 0 0 1-.74-.21 1 1 0 0 1-.38-.68zM229.59 125.38l.16-2.09.73.06-.16 2.05 1.45 3.49-.82-.06-1.06-2.73-1.51 2.53-.77-.07zM227 124.93a1.83 1.83 0 0 0 0-1.19 1.07 1.07 0 0 0-.8-.53 1 1 0 0 0-.5 0 1.21 1.21 0 0 0-.46.28l-.48-.45a1.58 1.58 0 0 1 .67-.41 1.85 1.85 0 0 1 .94 0 1.67 1.67 0 0 1 1.23.8 2.45 2.45 0 0 1 .11 1.67 2.57 2.57 0 0 1-.77 1.54 1.65 1.65 0 0 1-1.42.26 1.53 1.53 0 0 1-1.08-.7 2.18 2.18 0 0 1-.1-1.47l.08-.37zm-2 .07a1.41 1.41 0 0 0 0 .88.84.84 0 0 0 .65.45.9.9 0 0 0 .77-.12 1.66 1.66 0 0 0 .49-.8zM223.93 122.14l-1.8 5.55-.64-.21 1.8-5.55zM222.06 121.48l-2.18 5.42-.62-.25 2.17-5.42zM216.32 121a2.47 2.47 0 0 1 1.17-1.2 1.65 1.65 0 0 1 1.45.15 1.72 1.72 0 0 1 .93 1.12 2.47 2.47 0 0 1-.36 1.65 2.51 2.51 0 0 1-1.19 1.22 1.69 1.69 0 0 1-1.45-.16 1.65 1.65 0 0 1-.92-1.12 2.56 2.56 0 0 1 .37-1.66zm.62.33a2.13 2.13 0 0 0-.34 1.21 1 1 0 0 0 .55.73 1 1 0 0 0 .92.06 2.8 2.8 0 0 0 1.15-2.12.94.94 0 0 0-.56-.74 1 1 0 0 0-.92-.06 2.08 2.08 0 0 0-.8.88zM213.5 116.31l.49.39-1.16 3.09 2.73-1.84.49.38-1.75 3.86-.55-.44 1.4-2.89-2.72 1.85-.43-.34 1.15-3.08-2.47 2-.53-.42zM208.19 117.74l1.18-1.06-1.45-1.62.49-.44 1.45 1.62 1.88-1.68.48.54-4 3.62-2.22-2.45.49-.44zM206.09 110.47a2.52 2.52 0 0 1 1.61-.51 1.7 1.7 0 0 1 1.2.82 1.67 1.67 0 0 1 .28 1.43 2.4 2.4 0 0 1-1.1 1.28 2.47 2.47 0 0 1-1.62.51 1.69 1.69 0 0 1-1.2-.82 1.67 1.67 0 0 1-.28-1.43 2.52 2.52 0 0 1 1.11-1.28zm.39.58a2.13 2.13 0 0 0-.87.9 1 1 0 0 0 .14.9 1 1 0 0 0 .78.5 2.81 2.81 0 0 0 2-1.32 1.11 1.11 0 0 0-.92-1.41 2.06 2.06 0 0 0-1.13.43zM207.34 108.43l-5.18 2.7-.31-.6 5.18-2.7zM205.53 104.33l-.38.15a1.85 1.85 0 0 1 .55.39 1.39 1.39 0 0 1 .39.59 1.33 1.33 0 0 1-.11 1.27 2.64 2.64 0 0 1-1.33.94 2.68 2.68 0 0 1-1.66.17 1.44 1.44 0 0 1-1-.92 1.74 1.74 0 0 1 0-1.23l-1.93.74-.24-.63 5.45-2.1zm-3 1.15a1.7 1.7 0 0 0 0 1.15.91.91 0 0 0 .63.56 2 2 0 0 0 1.23-.16c1-.37 1.34-.87 1.1-1.48a1.16 1.16 0 0 0-.37-.51 2.32 2.32 0 0 0-.52-.34zM202.94 102.55A1.81 1.81 0 0 0 204 102a1.06 1.06 0 0 0 .15-1 1 1 0 0 0-.22-.44 1.23 1.23 0 0 0-.45-.31l.22-.62a1.67 1.67 0 0 1 .65.44 1.92 1.92 0 0 1 .38.85 1.69 1.69 0 0 1-.22 1.46 2.49 2.49 0 0 1-1.48.79 2.6 2.6 0 0 1-1.72-.08 1.6 1.6 0 0 1-.81-1.18 1.49 1.49 0 0 1 .19-1.27 2.1 2.1 0 0 1 1.3-.7l.36-.08zm-.94-1.85a1.45 1.45 0 0 0-.79.41.85.85 0 0 0-.14.78.92.92 0 0 0 .42.65 1.64 1.64 0 0 0 .94.12zM200.57 96.73a1 1 0 0 0 0 .32 1.25 1.25 0 0 0 .19.56 2.77 2.77 0 0 0 .57.61l2.83-.26.07.67-4.1.38-.06-.68.66-.06a4.79 4.79 0 0 1-.56-.54 1.18 1.18 0 0 1-.28-.67.85.85 0 0 1 0-.41zM199 94.31a2.41 2.41 0 0 1 .87.15 2 2 0 0 1 .58.3v.41a1.74 1.74 0 0 0-.51-.24 2.42 2.42 0 0 0-.59-.1.42.42 0 0 1-.1.33.46.46 0 0 1-.34.1.47.47 0 0 1-.33-.11.53.53 0 0 1-.11-.37.45.45 0 0 1 .14-.37.63.63 0 0 1 .39-.1zM203.25 90.3a1.1 1.1 0 0 1 .85.5 1.78 1.78 0 0 1 .19 1.19 2 2 0 0 1-.29.9 1.29 1.29 0 0 1-.61.53l-.27-.58a1.05 1.05 0 0 0 .61-.93 1.07 1.07 0 0 0-.1-.68.53.53 0 0 0-.43-.27.46.46 0 0 0-.29 0 .64.64 0 0 0-.21.22 4.58 4.58 0 0 0-.29.65 2.15 2.15 0 0 1-.58 1 1 1 0 0 1-.82.21 1.1 1.1 0 0 1-.83-.48 1.66 1.66 0 0 1-.2-1.12 1.74 1.74 0 0 1 .31-.87 1.3 1.3 0 0 1 .56-.47l.27.57a1 1 0 0 0-.58.85 1 1 0 0 0 .08.58.54.54 0 0 0 .44.29.45.45 0 0 0 .42-.16 2.29 2.29 0 0 0 .3-.61 3.68 3.68 0 0 1 .45-.92 1 1 0 0 1 .42-.35 1.14 1.14 0 0 1 .6-.05zM200.7 85.29l1.51.51.69-2.07.62.21-.69 2.06 2.4.8-.23.69-5.15-1.71 1-3.12.62.21zM202 80.91c.14.06.23.14.25.23a.58.58 0 0 1-.06.34.47.47 0 0 1-.24.27.5.5 0 0 1-.31 0 .38.38 0 0 1-.23-.22.43.43 0 0 1 0-.34c.07-.15.14-.24.23-.27a.37.37 0 0 1 .36-.01zm4.38 2.83l-3.75-1.69.28-.62 3.75 1.69zM208.45 79.8l-2.08-1.23a3.08 3.08 0 0 0-.71-.35.49.49 0 0 0-.34 0 .7.7 0 0 0-.27.29 1.19 1.19 0 0 0-.14.62 3.9 3.9 0 0 0 .09.87l2.5 1.48-.34.58-3.54-2.1.34-.58.53.31a3.2 3.2 0 0 1-.1-.83 1.5 1.5 0 0 1 .2-.77 1.06 1.06 0 0 1 .74-.58 1.85 1.85 0 0 1 1.12.34l2.37 1.4zM208.22 76.7a2 2 0 0 0 1.07.52 1.1 1.1 0 0 0 .84-.48.94.94 0 0 0 .21-.44 1.32 1.32 0 0 0 0-.55l.61-.21a1.5 1.5 0 0 1 .06.78 1.75 1.75 0 0 1-.43.83 1.7 1.7 0 0 1-1.27.73 2.53 2.53 0 0 1-1.54-.67 2.61 2.61 0 0 1-1-1.4 1.58 1.58 0 0 1 .42-1.37 1.51 1.51 0 0 1 1.11-.64 2.13 2.13 0 0 1 1.36.59l.29.23zm.86-1.9a1.44 1.44 0 0 0-.81-.36.84.84 0 0 0-.7.37.9.9 0 0 0-.24.74 1.68 1.68 0 0 0 .48.81zM213.37 72.52a1.1 1.1 0 0 1 .32.94 1.81 1.81 0 0 1-.63 1 2.12 2.12 0 0 1-.81.48 1.25 1.25 0 0 1-.81 0l.18-.61a1.08 1.08 0 0 0 1.06-.31 1.13 1.13 0 0 0 .38-.58.55.55 0 0 0-.15-.49.4.4 0 0 0-.25-.15.68.68 0 0 0-.31 0 5.62 5.62 0 0 0-.64.3 2.27 2.27 0 0 1-1.07.37 1.06 1.06 0 0 1-.76-.38 1.09 1.09 0 0 1-.31-.91 1.63 1.63 0 0 1 .57-1 1.88 1.88 0 0 1 .8-.46 1.42 1.42 0 0 1 .74 0l-.17.61a1 1 0 0 0-1 .27 1 1 0 0 0-.31.5.49.49 0 0 0 .14.49.44.44 0 0 0 .43.16 2.5 2.5 0 0 0 .62-.26 4.09 4.09 0 0 1 .94-.41 1 1 0 0 1 .55 0 1.15 1.15 0 0 1 .49.44zM216.46 71.59a2.76 2.76 0 0 1-.56.57 1.11 1.11 0 0 1-.91.27 1.61 1.61 0 0 1-.84-.67l-1.37-1.85-.48.35-.33-.45.47-.35-.68-.92.54-.41.68.92.84-.62.33.45-.83.63 1.29 1.74a1.91 1.91 0 0 0 .51.52.46.46 0 0 0 .49-.1 1.32 1.32 0 0 0 .37-.41zM219.15 66.74a1 1 0 0 1-.44 1.35 1 1 0 0 1-.77 0 1 1 0 0 1-.65-1.27 1 1 0 0 1 .51-.59 1 1 0 0 1 .77 0 1 1 0 0 1 .58.51z"/><path class="cls-3" d="M229.79 87.15a4.49 4.49 0 0 1-7.19-1.41l-1.35-2-3.7 2.52-1.66-2.43 12-8.16 3.06 4.5A5.66 5.66 0 0 1 232.1 84a4.65 4.65 0 0 1-2.31 3.15zm-1.73-2.5a2.11 2.11 0 0 0 1.08-1.55 4 4 0 0 0-.92-2.32l-.83-1.22-4 2.74.68 1a7.53 7.53 0 0 0 1.43 1.7 1.47 1.47 0 0 0 1.12.3 3.73 3.73 0 0 0 1.44-.65zM227.79 101.27l5.57-10.17-8.54 5.82-1.63-2.38 11.95-8.15 2.16 3.16-5.3 9.54 8.06-5.49 1.63 2.4-11.95 8.15zM231.5 106.72l12-8.15 5.29 7.76-2.15 1.47-3.64-5.33-2.55 1.74 3.06 4.49-2.16 1.47-3.06-4.49-2.87 2L239 113l-2.23 1.52z"/></g></g></svg>