<svg id="Layer_1" xmlns="http://www.w3.org/2000/svg" viewBox="0 0 595 768"><style>.st1,.st2{fill:#fff;stroke:gray;stroke-width:.5;stroke-linejoin:round;stroke-miterlimit:10}.st2{fill:none}</style><path d="M581.4 141.7c2.5-12.5-5.5-24.7-18-27.2L333.8 67.6l4.7-23c.9-4.5-2-8.9-6.5-9.8L206.5 9.2c-4.5-.9-8.9 2-9.8 6.5l-11.1 54.4-6 29.5L65.8 657a23.05 23.05 0 0 0 18 27.2L195.2 707l-.1.1 237.6 48.5c12.5 2.5 24.7-5.5 27.2-18l24.4-119.4 97.1-476.5z" fill="#ffc629"/><path transform="rotate(-70.73 178.4 531.99)" class="st1" d="M67.6 389.9h221.6v284.2H67.6z"/><path class="st2" d="M301.8 482.8l-57.6 164.6M284.5 476.8l-52 148.9M267.3 470.8l-36.5 104.5M250.1 464.8l-57.5 164.5M232.9 458.8l-57.5 164.5M215.7 452.8l-53.8 153.8M198.5 446.7L141 611.3M181.3 440.7l-57.5 164.6M164.1 434.7l-48.2 137.9M146.9 428.7L89.4 593.3M129.7 422.7l-52 148.8M112.5 416.7l-28.8 82.2"/><g><path transform="rotate(-13.67 446.05 468.22)" class="st1" d="M335.2 326.1h221.6v284.2H335.2z"/><path class="st2" d="M554.4 545L385 586.2M550.1 527.3l-153.2 37.3M545.8 509.6l-107.6 26.1M541.5 491.9l-169.4 41.2M537.2 474.2l-169.4 41.2M532.8 456.4L374.5 495M528.5 438.7L359.1 480M524.2 421l-169.4 41.2M519.9 403.3L378 437.8M515.6 385.6l-169.4 41.2M511.3 367.9l-153.2 37.3M507 350.2l-84.7 20.6"/></g><g><path transform="rotate(-35.27 244.3 233.86)" class="st1" d="M137.9 97.4h212.8v272.9H137.9z"/><path class="st2" d="M129.5 204.8l125.7-88.9M148.2 231.2l125.6-88.9M190.2 266l-61.7-87.2M215.8 247.9l-61.7-87.2M241.4 229.7l-61.7-87.2M267 211.6l-61.6-87.2M292.7 193.5L231 106.3M166.8 257.6l125.7-88.9M197 300.3l125.7-88.9M207.3 314.8l93.9-66.4M217.5 329.3l125.7-88.9M227.8 343.7l120.3-85.1M238 358.2l104.5-73.9"/></g></svg>