<svg width="334" height="708" viewBox="0 0 334 708" fill="none" xmlns="http://www.w3.org/2000/svg">
<path d="M20.2 690.6V16H312.4V689L20.2 690.6Z" fill="white" stroke="#808080" stroke-width="0.5" stroke-miterlimit="10" stroke-linecap="round" stroke-linejoin="round"/>
<path d="M51.7 207.3H43.7V39.1H288.8V207.3H131.5" fill="white"/>
<path d="M51.7 207.3H43.7V39.1H288.8V207.3H131.5" stroke="#808080" stroke-width="0.5" stroke-miterlimit="10" stroke-linecap="round" stroke-linejoin="round"/>
<path d="M190.2 67.1H142.4C140.3 67.1 138.6 65.4 138.6 63.3V58.5C138.6 56.4 140.3 54.7 142.4 54.7H190.2C192.3 54.7 194 56.4 194 58.5V63.3C194 65.4 192.3 67.1 190.2 67.1Z" fill="white" stroke="#808080" stroke-width="0.5" stroke-miterlimit="10" stroke-linecap="round" stroke-linejoin="round"/>
<path d="M51.7 664.2H43.7V495.9H288.8V664.2H131.5" fill="white"/>
<path d="M51.7 664.2H43.7V495.9H288.8V664.2H131.5" stroke="#808080" stroke-width="0.5" stroke-miterlimit="10" stroke-linecap="round" stroke-linejoin="round"/>
<path d="M46 253V201.96C46 198.19 48.2668 195 51.1813 195H130.952C133.759 195 136.134 198.045 136.134 201.96V221.535H281.967C288.876 221.535 294.597 228.06 296 236.615" fill="white"/>
<path d="M46 253V201.96C46 198.19 48.2668 195 51.1813 195H130.952C133.759 195 136.134 198.045 136.134 201.96V221.535H281.967C288.876 221.535 294.597 228.06 296 236.615" stroke="#808080" stroke-width="0.5" stroke-miterlimit="10" stroke-linecap="round" stroke-linejoin="round"/>
<path d="M33 255V214.055C33 210.15 35.5205 207 38.6458 207H125.249C128.374 207 130.895 210.15 130.895 214.055V233.835H289.18C296.136 233.835 301.984 239.504 304 247.189" fill="white"/>
<path d="M33 255V214.055C33 210.15 35.5205 207 38.6458 207H125.249C128.374 207 130.895 210.15 130.895 214.055V233.835H289.18C296.136 233.835 301.984 239.504 304 247.189" stroke="#808080" stroke-width="0.5" stroke-miterlimit="10" stroke-linecap="round" stroke-linejoin="round"/>
<path d="M10.2113 271.245L17.1511 272.585V264.339L10.2113 271.245Z" fill="white" stroke="#808080" stroke-width="0.5" stroke-miterlimit="10" stroke-linecap="round" stroke-linejoin="round"/>
<path d="M319.03 264.752L318.733 272.997L325.573 271.245L319.03 264.752Z" fill="white" stroke="#808080" stroke-width="0.5" stroke-miterlimit="10" stroke-linecap="round" stroke-linejoin="round"/>
<path d="M17.1541 271.396V228.49C17.1541 224.915 19.9293 222.054 23.3984 222.054H119.541C123.01 222.054 125.785 224.915 125.785 228.49V246.674H301.519C311.133 246.674 318.864 254.643 318.864 264.552V271.498" fill="white"/>
<path d="M17.1541 271.396V228.49C17.1541 224.915 19.9293 222.054 23.3984 222.054H119.541C123.01 222.054 125.785 224.915 125.785 228.49V246.674H301.519C311.133 246.674 318.864 254.643 318.864 264.552V271.498" stroke="#808080" stroke-width="0.5" stroke-miterlimit="10" stroke-linecap="round" stroke-linejoin="round"/>
<path d="M325.573 271.245H10.2113V515.725H325.573V271.245Z" fill="white" stroke="#808080" stroke-width="0.5" stroke-miterlimit="10" stroke-linecap="round" stroke-linejoin="round"/>
<path d="M204.524 310.617H131.161C127.989 310.617 125.411 307.938 125.411 304.639V297.012C125.411 293.714 127.989 291.034 131.161 291.034H204.524C207.697 291.034 210.274 293.714 210.274 297.012V304.639C210.274 307.938 207.697 310.617 204.524 310.617Z" fill="white" stroke="#808080" stroke-width="0.5" stroke-miterlimit="10" stroke-linecap="round" stroke-linejoin="round"/>
</svg>
