<?xml version="1.0" encoding="utf-8"?><!--Generator: Adobe Illustrator 22.1.0, SVG Export Plug-In . SVG Version: 6.00 Build 0)--><svg version="1.1" id="Layer_1" xmlns="http://www.w3.org/2000/svg" xmlns:xlink="http://www.w3.org/1999/xlink" x="0px" y="0px" viewBox="0 0 81 80" style="enable-background:new 0 0 81 80" xml:space="preserve"><style type="text/css">.st0{fill:#5B6670;} .st1{fill:#FFC629;}</style><path class="st0" d="M36.2 8.5c.1.6.1 1.1-.1 1.5-.2.4-.7.6-1.4.8l-.8.2.4 1.8-.7.2-1.2-5.3 1.6-.4c.7-.1 1.2-.1 1.5.1s.5.5.7 1.1zm-.8.2c-.1-.4-.2-.6-.4-.7h-1l-.8.2.5 2.2.7-.2.8-.3c.2-.1.3-.3.3-.4l-.1-.8z"/><path class="st0" d="M40.1 11.9v-.5l-.6.5-.7.2c-.4 0-.7-.1-.9-.3s-.4-.5-.4-.9l.1-.7.4-.5.9-.3 1-.2V9c0-.3-.1-.5-.3-.6l-.7-.1-.6.2-.3.3-.6-.3.5-.6.9-.3c.6 0 1 0 1.3.2.3.2.4.6.5 1.1l.2 2.8-.7.2zm-.2-2.1l-.7.1-.9.3c-.2.1-.2.4-.2.6l.2.5.6.1.3-.1.3-.2.3-.2.2-.2-.1-.9z"/><path class="st0" d="M45.5 10c-.1.7-.2 1.2-.6 1.6-.3.4-.7.5-1.3.5-.4 0-.8-.2-1.1-.5l-.1 1.9-.7-.1.4-5.6.7.1v.4c.2-.3.4-.4.6-.5l.7-.1c.5 0 .9.3 1.1.6.3.5.3 1 .3 1.7zm-.7 0c.1-1-.2-1.6-.9-1.6l-.6.1-.5.3-.2 2.2c.3.3.7.5 1 .5.3 0 .6-.1.8-.3.2-.3.4-.7.4-1.2z"/><path class="st0" d="M47.2 10.4v1.2c.1.3.4.4.8.5h.5c.2 0 .3-.1.5-.3l.5.5-.7.4h-.9c-.6-.1-1-.4-1.2-.8-.2-.4-.2-1-.1-1.7.2-.7.4-1.2.8-1.5.4-.3.8-.4 1.4-.2.5.1.9.4 1.1.7v1.4l-.1.4-2.6-.6zm2.1 0v-.9a1 1 0 0 0-.6-.5 1 1 0 0 0-.8.1c-.2.1-.4.4-.5.8l1.9.5z"/><path class="st0" d="M53.5 10.8l-.3-.2-.6-.1-.8.3-1 2.7-.6-.2 1.4-3.9.6.2-.2.6.7-.3h.7l.4.2-.3.7z"/><path class="st0" d="M53.1 14.4l2.5-5.3.6.3-2.5 5.3-.6-.3z"/><path class="st0" d="M56.2 13.7c-.3.5-.4.8-.4 1.1 0 .3.2.5.6.8l.5.2.5-.1.3.6-.8.2-.9-.3c-.5-.3-.8-.7-.9-1.2-.1-.5.1-1 .4-1.6.4-.6.8-1 1.2-1.2.4-.2.9-.1 1.4.2.5.3.7.6.8 1 .1.4-.1.9-.4 1.4l-.2.3-2.1-1.4zm2 .6c.2-.3.3-.6.2-.9 0-.3-.2-.5-.5-.6-.3-.2-.5-.2-.8-.1l-.7.6 1.8 1z"/><path class="st0" d="M61.1 18.3c-.2.3-.5.4-.9.4-.3 0-.7-.2-1.1-.5l-.6-.7c-.1-.3-.2-.5-.1-.8l.6.1c0 .4.1.7.5 1l.6.3.5-.2.1-.3-.1-.3-.4-.6c-.3-.4-.5-.7-.5-1s.1-.5.3-.8c.2-.3.5-.4.9-.4.3 0 .7.1 1.1.4l.6.7.1.7-.6-.1c0-.4-.1-.7-.4-.9l-.5-.2c-.2 0-.3 0-.5.2l-.1.4.4.6.5.9.1.5c-.3.2-.3.4-.5.6z"/><path class="st0" d="M63.8 21c-.3.3-.6.4-.9.3-.3 0-.7-.3-1-.6l-.5-.8c-.1-.3-.1-.6 0-.8l.6.2c-.1.4 0 .7.3 1.1l.6.4c.2 0 .3 0 .5-.2l.1-.3V20l-.3-.6c-.3-.4-.4-.8-.4-1.1 0-.3.1-.5.4-.8.3-.2.6-.4.9-.3.3 0 .7.2 1 .6l.5.8v.7l-.6-.2c.1-.4 0-.7-.3-1-.2-.2-.3-.3-.5-.3l-.5.1-.2.4.3.6.4.9v.6c-.1.3-.2.5-.4.6z"/><path class="st0" d="M66.4 26.9l2.8-4.5-4 2.4-.4-.6 4.7-2.7.5.9-2.5 4.1 3.7-2.2.4.6-4.7 2.7-.5-.7z"/><path class="st0" d="M68.1 30.9l.5-.2-.7-.4-.4-.6v-1c.1-.3.4-.5.7-.6l.7-.1.6.3c.2.2.4.4.5.8l.4.9.2-.1c.3-.1.5-.3.5-.5l-.1-.7c-.1-.3-.2-.4-.4-.5l-.4-.2.1-.6c.3 0 .5.2.7.3l.5.8c.2.6.3 1 .2 1.3-.1.3-.4.6-.9.8l-2.6 1-.1-.7zm2-.8l-.3-.6-.6-.8a.6.6 0 0 0-.6 0c-.2.1-.4.2-.4.4v.6l.2.3.2.2.3.2.3.2.9-.5z"/><path class="st0" d="M69.2 34.5l-.3-.7c-.1-.4-.1-.7.1-1 .2-.2.5-.4.9-.5l2.2-.6-.1-.5.5-.1.1.6 1.1-.3.3.6-1.1.3.3 1-.5.1-.3-1-2.1.5-.7.3c-.1.1-.2.3-.1.5l.2.5-.5.3z"/><path class="st0" d="M69.3 35.2l4.1-.7.1.7-4.1.7-.1-.7zm5.2-.1l-.3-.1a.2.2 0 0 1-.2-.2v-.4l.3-.1.3.1.1.3v.4h-.2z"/><path class="st0" d="M71.8 40.3c-.7 0-1.3-.1-1.6-.4-.4-.3-.6-.7-.6-1.3 0-.6.1-1 .5-1.4.3-.3.9-.5 1.6-.6.7 0 1.3.1 1.7.4.4.3.6.7.6 1.3 0 .6-.1 1-.5 1.4-.4.4-1 .6-1.7.6zm0-.7c.6 0 1-.1 1.2-.3s.4-.5.3-.8c0-.4-.2-.7-.4-.8l-1.2-.2c-.5 0-.9.1-1.2.3-.2.2-.4.5-.3.9 0 .4.2.6.4.8.2.1.6.2 1.2.1z"/><path class="st0" d="M69.5 43.9l2.4.2h.8l.3-.2.1-.4-.1-.6-.4-.7-2.9-.2.1-.7 4.1.4-.1.7-.6-.1.4.7c.1.3.2.5.1.8 0 .4-.2.7-.4.8-.2.2-.6.2-1.2.2l-2.7-.3.1-.6z"/><path class="st0" d="M68.7 47.8l5.1 1.7-1.1 3.1-.6-.2.9-2.4-1.5-.5-.7 2.1-.6-.2.7-2.1-1.8-.6-.8 2.5-.6-.2 1-3.2z"/><path class="st0" d="M66.1 54.1l2.2 1.1.7.3h.3l.3-.3.1-.6-.1-.8-2.6-1.4.3-.6 3.7 1.9-.3.6-.6-.3.1.8c0 .3 0 .6-.2.8-.2.4-.4.6-.7.6-.3.1-.7 0-1.1-.3l-2.4-1.3.3-.5z"/><path class="st0" d="M63.3 58.3c-.4-.3-.7-.7-.8-1.1-.1-.4.1-.8.5-1.3s.8-.8 1.2-1l.3.5c-.4.1-.8.4-1 .8l-.3.8c0 .2.2.5.5.7l.4.3v-.7c0-.2.1-.5.3-.7.3-.4.7-.6 1.1-.6s.9.2 1.5.6c.5.4.9.8 1 1.3.1.5 0 .9-.3 1.3-.2.3-.6.6-1 .7l.3.2-.4.5-3.3-2.3zm2.9 1.3c.4-.1.8-.3 1-.6.2-.3.2-.6.1-.9-.1-.3-.4-.6-.7-.9-.4-.3-.8-.5-1.1-.5-.3 0-.5.1-.7.4-.2.3-.3.7-.2 1.2l1.6 1.3z"/><path class="st0" d="M62.4 59.1l3 2.8-.4.5-3-2.8.4-.5zm3.3 4.1l-.2-.3.2-.3.3-.2.3.1.2.3-.2.3-.3.2-.3-.1z"/><path class="st0" d="M59.2 62.2l1.6 1.8.6.6.3.1.4-.2.3-.5.2-.8-1.9-2.2.5-.4 2.7 3.1-.5.3-.4-.4-.2.8-.4.7c-.3.3-.6.4-.9.3-.3 0-.6-.3-1-.7l-1.8-2.1.5-.4z"/><path class="st0" d="M58.5 65.2c-.3-.5-.6-.7-.9-.8-.3-.1-.6 0-.9.2-.2.1-.3.2-.3.4l-.1.5h-.7l.2-.8.7-.7c.5-.3 1-.4 1.4-.3s.9.5 1.2 1.1c.4.6.6 1.2.5 1.6-.1.5-.3.9-.8 1.2-.4.3-.9.4-1.3.3-.4-.1-.8-.4-1.1-1l-.2-.3 2.3-1.4zM57 66.7c.2.3.4.5.7.6.2.1.5 0 .8-.1.3-.2.4-.4.5-.6 0-.2 0-.5-.2-.9l-1.8 1z"/><path class="st0" d="M54.7 67.4c-.2-.5-.5-.8-.7-.9-.3-.1-.6-.1-1 .1l-.4.3-.2.5-.6-.1c0-.3.1-.5.3-.7l.8-.6c.6-.3 1-.3 1.5-.1.4.2.8.6 1.1 1.3.3.7.4 1.3.3 1.7-.1.4-.4.8-1 1a2 2 0 0 1-1.3.1c-.4-.2-.7-.5-.9-1.1l-.2-.3 2.3-1.2zm-1.6 1.3c.2.3.3.6.6.7s.5.1.8 0c.3-.1.5-.3.5-.6.1-.2 0-.5-.1-.9l-1.8.8z"/><path class="st0" d="M49.5 70.9h.3l.5-.3c.2-.1.3-.4.5-.7l-.8-2.7.6-.2 1.2 3.9-.6.2-.2-.6-.4.7-.6.4c-.2.1-.3.1-.4 0l-.1-.7z"/><path class="st0" d="M44.2 71.3c0-.3 0-.5.2-.7l.7-.4c.3 0 .5 0 .7.2l.4.7c0 .3 0 .5-.2.8l-.7.4c-.3 0-.5 0-.7-.2s-.4-.5-.4-.8z"/><path class="st0" d="M38.6 70.5l.2-2.1.7.1-.2 2.1 1.4 3.5-.7-.2-1.1-2.7-1.5 2.5-.8-.1 2-3.1z"/><path class="st0" d="M36.1 70v-1.2c-.1-.3-.4-.4-.8-.5h-.5c-.2 0-.3.1-.5.3l-.5-.5.7-.4h.9c.6.1 1 .4 1.2.8.2.4.3 1 .1 1.7-.2.7-.4 1.3-.8 1.5-.4.3-.8.4-1.4.3-.5-.1-.9-.3-1.1-.7-.2-.4-.2-.8-.1-1.5l.1-.4 2.7.6zm-2.1.1c-.1.4-.1.7.1.9.1.2.3.4.7.4.3.1.6 0 .8-.1.2-.1.4-.4.5-.8l-2.1-.4z"/><path class="st0" d="M33 67.2l-1.8 5.6-.6-.2 1.8-5.6.6.2z"/><path class="st0" d="M31.1 66.6L28.9 72l-.6-.3 2.2-5.4.6.3z"/><path class="st0" d="M25.4 66c.3-.6.7-1 1.2-1.2.4-.2.9-.1 1.4.2.5.3.8.7.9 1.1.1.5 0 1-.4 1.7-.3.6-.7 1.1-1.2 1.2-.4.2-.9.1-1.4-.2-.5-.3-.8-.7-.9-1.1-.1-.5 0-1 .4-1.7zm.6.4c-.3.5-.4.9-.3 1.2 0 .3.2.6.6.7.3.2.6.2.9.1.3-.1.6-.5.8-.9.3-.5.4-.9.3-1.2 0-.3-.2-.6-.6-.7a1 1 0 0 0-.9-.1c-.3.1-.6.4-.8.9z"/><path class="st0" d="M22.6 61.4l.5.4-1.2 3.1 2.7-1.8.5.4-1.7 3.9-.6-.4 1.4-2.9-2.7 1.9-.5-.5 1.2-3.1-2.5 2-.5-.4 3.4-2.6z"/><path class="st0" d="M17.2 62.8l1.2-1.1-1.4-1.6.5-.4 1.5 1.6 1.9-1.7.5.5-4 3.6-2.4-2.3.5-.4 1.7 1.8z"/><path class="st0" d="M15.1 55.6c.6-.4 1.1-.6 1.6-.5.5.1.9.3 1.2.8.3.5.4 1 .3 1.4-.1.5-.5.9-1.1 1.3-.6.4-1.2.6-1.6.5-.5-.1-.9-.3-1.2-.8-.3-.5-.4-1-.3-1.4.2-.5.5-1 1.1-1.3zm.4.5c-.5.3-.8.6-.9.9-.1.3-.1.6.1.9.2.3.5.5.8.5.3 0 .7-.1 1.2-.4.4-.3.7-.6.8-.9a1 1 0 0 0-.1-.9c-.2-.3-.5-.5-.8-.5-.2 0-.6.1-1.1.4z"/><path class="st0" d="M16.4 53.5l-5.2 2.7-.3-.6 5.2-2.7.3.6z"/><path class="st0" d="M14.6 49.4l-.4.1.6.4.4.6c.2.5.1.9-.1 1.3-.3.4-.7.7-1.3.9-.6.2-1.2.3-1.7.2-.5-.1-.8-.4-1-.9v-1.2l-1.9.7-.2-.6 5.4-2.1.2.6zm-3 1.2c-.1.4-.2.8 0 1.1.1.3.3.5.6.6s.7 0 1.2-.2c1-.4 1.3-.9 1.1-1.5l-.4-.5c-.2-.1-.3-.3-.5-.3l-2 .8z"/><path class="st0" d="M12 47.6c.5-.1.9-.3 1.1-.5.2-.2.2-.5.1-.9l-.2-.4-.5-.3.2-.6.7.4c.2.2.3.5.4.9.1.6.1 1.1-.2 1.5-.3.4-.8.6-1.5.8-.7.2-1.3.1-1.7-.1-.4-.4-.7-.7-.8-1.3-.1-.5-.1-.9.2-1.3.2-.3.7-.6 1.3-.7l.4-.1.5 2.6zm-1-1.8l-.8.4c-.2.2-.2.5-.1.8.1.3.2.5.4.6s.5.2.9.1l-.4-1.9z"/><path class="st0" d="M9.6 41.8v.3l.2.6.6.6 2.8-.3.1.7-4.1.4-.1-.7.7-.1-.6-.5a1 1 0 0 1-.3-.7v-.4l.7.1z"/><path class="st0" d="M8 39.4l.9.2.6.3v.4L9 40l-.6-.1-.1.3-.3.1-.3-.1-.1-.4.1-.4H8z"/><path class="st0" d="M12.3 35.4c.4 0 .7.2.9.5.2.3.3.7.2 1.2l-.3.9c-.2.3-.4.4-.6.5l-.3-.6c.4-.2.6-.5.6-.9l-.1-.7c-.1-.2-.2-.3-.4-.3H12l-.2.2-.3.6-.6 1c-.2.2-.5.2-.8.2-.4 0-.6-.2-.8-.5-.3-.1-.3-.5-.3-1 0-.4.1-.6.3-.9l.6-.5.3.6c-.3.2-.5.5-.6.9l.1.6c.1.2.2.3.4.3s.3 0 .4-.2l.3-.6.4-.9c.1-.2.3-.3.4-.3l.7-.1z"/><path class="st0" d="M9.8 30.4l1.5.5.7-2.1.6.2-.7 2.1 2.4.8-.2.7L9 30.9l1-3.1.6.2-.8 2.4z"/><path class="st0" d="M11 26l.2.2-.1.3-.2.3h-.3l-.2-.2v-.3l.2-.3c.1-.1.3-.1.4 0zm4.4 2.8l-3.7-1.7.3-.6 3.7 1.7-.3.6z"/><path class="st0" d="M17.5 24.9l-2.1-1.2-.7-.3h-.3l-.3.3-.1.5.1.8 2.5 1.5-.3.6-3.6-2.1.3-.6.5.3-.1-.8.2-.8c.2-.3.4-.5.7-.6l1.1.3 2.4 1.4-.3.7z"/><path class="st0" d="M17.3 21.8c.4.3.8.5 1.1.5.3 0 .6-.2.8-.5l.2-.4v-.5l.6-.2.1.8c0 .3-.2.5-.4.8-.4.5-.8.7-1.3.7a2 2 0 0 1-1.5-.7c-.6-.5-.9-.9-1-1.4-.1-.5 0-.9.4-1.4.3-.4.7-.6 1.1-.6.4 0 .9.2 1.4.6l.3.2-1.8 2.1zm.8-1.9l-.8-.4c-.3 0-.5.1-.7.4-.2.2-.3.5-.2.7 0 .2.2.5.5.8l1.2-1.5z"/><path class="st0" d="M22.4 17.6c.3.3.4.6.3.9-.1.3-.3.7-.6 1l-.8.5c-.3.1-.6.1-.8 0l.2-.6c.4.1.7 0 1.1-.3l.4-.6c0-.2 0-.3-.2-.5l-.2-.2h-.3l-.6.3c-.4.3-.8.4-1.1.4-.3 0-.5-.1-.8-.4-.2-.3-.4-.6-.3-.9 0-.3.2-.7.6-1l.8-.5h.7l-.2.6c-.4-.1-.7 0-1 .3-.2.2-.3.3-.3.5l.1.5.4.2.6-.3.9-.4h.6l.5.5z"/><path class="st0" d="M25.5 16.7l-.6.6-.9.3c-.3-.1-.6-.3-.8-.7L21.8 15l-.5.4-.3-.5.5-.4-.7-.9.5-.4.7.9.8-.6.3.5-.8.6 1.3 1.7.5.5c.1.1.3 0 .5-.1l.4-.4.5.4z"/><path class="st0" d="M28.2 11.8l.1.8a1 1 0 0 1-.5.6l-.8.1a1 1 0 0 1-.6-.5l-.1-.8c.1-.3.3-.5.5-.6l.8-.1c.3.1.5.3.6.5z"/><g><path class="st1" d="M38.8 32.2c-1.4 1-2.7 1.4-3.9 1.2-1.2-.2-2.3-1.1-3.3-2.6l-1.4-2-3.7 2.5-1.7-2.4 12-8.2 3.1 4.5a6 6 0 0 1 1.2 3.8c-.1 1.2-.8 2.3-2.3 3.2zm-1.7-2.5c.7-.5 1-1 1.1-1.6 0-.6-.3-1.3-.9-2.3l-.8-1.2-4 2.7.7 1c.6.9 1.1 1.5 1.4 1.7.4.3.7.4 1.1.3.4 0 .8-.2 1.4-.6z"/><path class="st1" d="M36.8 46.4l5.6-10.2-8.5 5.8-1.6-2.4 12-8.2 2.2 3.2-5.3 9.5 8.1-5.5 1.6 2.4-12 8.2-2.1-2.8z"/><path class="st1" d="M40.6 51.8l12-8.2 5.3 7.8-2.2 1.5-3.7-5.3-2.5 1.7 3.1 4.5-2.2 1.5-3.1-4.5-2.9 2 3.6 5.3-2.2 1.5-5.2-7.8z"/></g></svg>