<svg id="Layer_1" xmlns="http://www.w3.org/2000/svg" viewBox="0 0 564 581"><style>.st0{fill:#fff;stroke:gray;stroke-width:.5;stroke-linejoin:round;stroke-miterlimit:10}</style><path class="st0" d="M6.3 382.1H555v158.1H6.3zM555 382.1H6.3l92.4-95.4h365.4z"/><path class="st0" d="M521 370.2H40.4l80.9-83.5h320z"/><path class="st0" d="M450.3 343.4H111.7l14.4-99.9h308.6zM122.1 343.4H440v13H122.1z"/><path class="st0" d="M138.2 7.6h285.6v342H138.2zM116.7 540.1H85.8v-52.3c0-10.8 8.7-19.5 19.5-19.5h350.8c10.8 0 19.5 8.7 19.5 19.5v52.3h-30.2"/><path class="st0" d="M475.6 572H85.8l65.6-67.7h259.5z"/><path class="st0" d="M210.3 571v-18.9c0-3.9 3.2-7 7-7H344c3.9 0 7 3.2 7 7V571M423.8 394h119.5v62.4H423.8z"/><path transform="rotate(90 479.9 420.53)" class="st0" d="M463.1 396.8h33.6v47.5h-33.6z"/><path transform="rotate(90 484.59 425.23)" class="st0" d="M467.8 401.5h33.6V449h-33.6z"/><path transform="rotate(90 489.28 429.92)" class="st0" d="M472.5 406.2h33.6v47.5h-33.6z"/></svg>