<svg version="1" xmlns="http://www.w3.org/2000/svg" width="533.333" height="533.333" viewBox="0 0 400.000000 400.000000"><path d="M169.1 32.6c-31.4 6.6-55.4 27.6-64.5 56.3-3.3 10.6-3.7 12.8-4.1 28.3-.4 12.2-.2 13.9 1.3 14.6 1.7.8 36.8.9 37.6.1.2-.2.6-6.3.9-13.6.6-14.7 2.7-21.6 8.8-29.7 5.8-7.5 16.5-14.4 25.6-16.4 6.2-1.4 45.7-1.2 51.3.3 14.9 3.9 27.2 15.3 31.7 29.3 1.2 3.6 1.6 10.8 1.9 30.7.1 14.3.3 26.8.3 27.7.1 1.7 1.7 1.8 20 1.8h19.9l-.3-29.8c-.2-26.6-.5-30.5-2.4-37.7-6.8-25.5-23.3-45-47.5-56-3.9-1.8-9.3-3.8-12.1-4.4-2.7-.6-6.1-1.4-7.5-1.8-5.4-1.3-54.3-1.1-60.9.3z"/><path d="M65.3 140.2c-1.2.6-2.4 2.2-2.7 3.7-.6 3.3-.5 24.1.1 24.1.3 0 1.7-.9 3.2-1.9 4.5-3.2 11-3.7 53.8-3.6 26.9 0 41.4-.3 41.6-1 .2-.5.2-5 .2-9.9-.2-13.5 4.1-12.4-49.2-12.4-28.1 0-45.6.4-47 1zM71.2 172.1c-2 1-4.8 3.5-6.2 5.6l-2.5 3.7v176.3l2.8 3.6c5.8 7.6-5.3 7 134.7 7 138.9 0 128.6.5 134.4-6.6l3.1-3.9v-87.9c0-98.3.5-91.6-7.2-96.9l-3.7-2.5-125.8-.1c-120.9-.1-126-.1-129.6 1.7z"/></svg>